<svg width="191" height="191" viewBox="0 0 191 191" fill="none" xmlns="http://www.w3.org/2000/svg">
<g clip-path="url(#clip0_247_1472)">
<path d="M94.375 0.00156127C86.5851 0.0377468 79.1462 0.702143 72.6007 1.86045C53.3183 5.26712 49.8172 12.3972 49.8172 25.5467V42.9131H95.3838V48.7017H49.8172H32.7164C19.4736 48.7017 7.87742 56.6614 4.25066 71.8038C0.0669419 89.1601 -0.118462 99.9912 4.25066 118.114C7.48983 131.604 15.225 141.216 28.4677 141.216H44.1346V120.397C44.1346 105.357 57.1476 92.0908 72.6007 92.0908H118.114C130.784 92.0908 140.897 81.6593 140.897 68.9358V25.5467C140.897 13.1981 130.48 3.92154 118.114 1.86045C110.287 0.557401 102.165 -0.0346243 94.375 0.00156127ZM69.7327 13.9692C74.4394 13.9692 78.2829 17.8757 78.2829 22.6787C78.2829 27.4649 74.4394 31.3353 69.7327 31.3353C65.0092 31.3353 61.1825 27.4649 61.1825 22.6787C61.1825 17.8754 65.0092 13.9692 69.7327 13.9692Z" fill="#006BCD"/>
<path d="M146.58 48.7017V68.9357C146.58 84.6231 133.28 97.8263 118.114 97.8263H72.6008C60.134 97.8263 49.8174 108.496 49.8174 120.981V164.37C49.8174 176.719 60.5555 183.983 72.6008 187.525C87.0247 191.767 100.857 192.533 118.114 187.525C129.586 184.204 140.898 177.52 140.898 164.37V147.004H95.3839V141.215H140.898H163.681C176.924 141.215 181.859 131.978 186.464 118.113C191.222 103.84 191.019 90.1136 186.464 71.803C183.192 58.6195 176.941 48.7009 163.681 48.7009H146.58V48.7017ZM120.982 158.582C125.706 158.582 129.533 162.452 129.533 167.238C129.533 172.042 125.706 175.948 120.982 175.948C116.276 175.948 112.432 172.042 112.432 167.238C112.432 162.452 116.275 158.582 120.982 158.582Z" fill="#FFD86C"/>
</g>
<defs>
<clipPath id="clip0_247_1472">
<rect width="191" height="191" fill="white"/>
</clipPath>
</defs>
</svg>
