<svg width="289" height="291" viewBox="0 0 289 291" fill="none" xmlns="http://www.w3.org/2000/svg">
<path d="M142.786 0.00237869C130.918 0.0575095 119.584 1.06976 109.612 2.83451C80.2339 8.02477 74.8999 18.8878 74.8999 38.9219V65.3808H144.323V74.2H74.8999H48.8457C28.6695 74.2 11.0021 86.3271 5.47647 109.397C-0.89768 135.841 -1.18015 152.343 5.47647 179.954C10.4115 200.506 22.1965 215.151 42.3727 215.151H66.242V183.432C66.242 160.518 86.0681 140.306 109.612 140.306H178.955C198.257 140.306 213.666 124.413 213.666 105.028V38.9219C213.666 20.1081 197.794 5.9747 178.955 2.83451C167.029 0.849234 154.654 -0.0527522 142.786 0.00237869ZM105.242 21.2829C112.413 21.2829 118.269 27.2348 118.269 34.5524C118.269 41.8444 112.413 47.7412 105.242 47.7412C98.0457 47.7412 92.2155 41.8444 92.2155 34.5524C92.2155 27.2342 98.0457 21.2829 105.242 21.2829Z" fill="#006BCD"/>
<path d="M222.324 74.1999V105.028C222.324 128.928 202.061 149.044 178.955 149.044H109.612C90.6179 149.044 74.8999 165.3 74.8999 184.322V250.428C74.8999 269.242 91.2601 280.309 109.612 285.706C131.587 292.168 152.661 293.336 178.955 285.706C196.432 280.646 213.666 270.462 213.666 250.428V223.969H144.323V215.15H213.666H248.378C268.554 215.15 276.073 201.076 283.09 179.953C290.338 158.206 290.03 137.293 283.09 109.396C278.104 89.3103 268.58 74.1987 248.378 74.1987H222.324V74.1999ZM183.324 241.609C190.521 241.609 196.351 247.506 196.351 254.798C196.351 262.116 190.521 268.068 183.324 268.068C176.153 268.068 170.297 262.116 170.297 254.798C170.297 247.506 176.153 241.609 183.324 241.609Z" fill="#FFD86C"/>
</svg>
