<svg xmlns="http://www.w3.org/2000/svg" width="48" height="48" viewBox="0 0 48 48">
  <defs>
    <style>
      .cls-1 {
        fill: #f40000;
        fill-rule: evenodd;
      }
    </style>
  </defs>
  <path id="_4-tool_-_camera" data-name="4-tool - camera" class="cls-1" d="M214,862H178a6,6,0,0,1-6-6V829a6,6,0,0,1,6-6h4.483c1.864-3.553,5.11-9,7.517-9h12c2.408,0,5.653,5.447,7.517,9H214a6,6,0,0,1,6,6v27A6,6,0,0,1,214,862Zm-39-24h8.327a13.43,13.43,0,0,1,1.453-3H175v3Zm27-21H190c-1.118,0-3.117,3.381-4.5,6h21C205.116,820.376,203.118,817,202,817Zm15,12a3,3,0,0,0-3-3H178a3,3,0,0,0-3,3v3H187.61a13.233,13.233,0,0,1,16.778,0H217v3H207.22a13.473,13.473,0,0,1,1.453,3H217v3h-7.651a13.268,13.268,0,0,1,.151,1.5,13.5,13.5,0,0,1-27,0,13.268,13.268,0,0,1,.151-1.5H175v15a3,3,0,0,0,3,3h36a3,3,0,0,0,3-3V829Zm-31.5,13.5a10.5,10.5,0,1,0,10.5-10.5A10.5,10.5,0,0,0,185.5,842.5Z" transform="translate(-172 -814)"/>
</svg>
