<svg xmlns="http://www.w3.org/2000/svg" width="48" height="48" viewBox="0 0 48 48">
  <defs>
    <style>
      .cls-1 {
        fill: #f40000;
        fill-rule: evenodd;
      }
    </style>
  </defs>
  <path id="_2-building_-_building_office" data-name="2-building - building office" class="cls-1" d="M440,822.5a1.5,1.5,0,0,0-1.5-1.5h-9a1.5,1.5,0,0,0-1.5,1.5V857h-3v-36a3,3,0,0,1,3-3h12a3,3,0,0,1,3,3v36h-3V822.5Zm-21-3a1.5,1.5,0,0,0-1.5-1.5h-18a1.5,1.5,0,0,0-1.5,1.5V857h-3V818a3,3,0,0,1,3-3h21a3,3,0,0,1,3,3v39h-3V819.5ZM407,854h-6v-6h6v6Zm0-9h-6v-6h6v6Zm-6-24h6v6h-6v-6Zm6,15h-6v-6h6v6Zm9,18h-6v-6h6v6Zm0-9h-6v-6h6v6Zm-6-24h6v6h-6v-6Zm6,15h-6v-6h6v6Zm21,12h-6v-6h6v6Zm-6-24h6v6h-6v-6Zm6,15h-6v-6h6v6Zm-40.5,21h45a1.5,1.5,0,1,1,0,3h-45A1.5,1.5,0,1,1,396.5,860Z" transform="translate(-395 -815)"/>
</svg>
