<svg xmlns="http://www.w3.org/2000/svg" width="48" height="48" viewBox="0 0 48 48">
  <defs>
    <style>
      .cls-1 {
        fill: #f40000;
        fill-rule: evenodd;
      }
    </style>
  </defs>
  <path id="_36-document_-_folder_sync" data-name="36-document - folder sync" class="cls-1" d="M885,863H843a3,3,0,0,1-3-3V818a3,3,0,0,1,3-3h15a3,3,0,0,1,3,3v3h24a3,3,0,0,1,3,3v36A3,3,0,0,1,885,863Zm-1.5-39H858v-4.5a1.5,1.5,0,0,0-1.5-1.5h-12a1.5,1.5,0,0,0-1.5,1.5V827h40.5A1.5,1.5,0,1,0,883.5,824Zm1.5,9v-3H843v28.5a1.5,1.5,0,0,0,1.5,1.5h39a1.5,1.5,0,0,0,1.5-1.5v-25.5Zm-10.5,24a1.5,1.5,0,0,1-1.5-1.5v-2.782a11.735,11.735,0,0,1-9,4.282,11.96,11.96,0,0,1-11.849-10.5h3A8.982,8.982,0,0,0,864,854a8.815,8.815,0,0,0,6.554-3H868.5a1.5,1.5,0,0,1,0-3h7.076c-0.033.125-.091,0.239-0.127,0.364a1.479,1.479,0,0,1,.383.477c0,0.01.013,0.017,0.018,0.027a1.473,1.473,0,0,1,.15.632v6A1.5,1.5,0,0,1,874.5,856.994Zm-10.5-21a8.824,8.824,0,0,0-6.557,3H859.5a1.5,1.5,0,1,1,0,3h-7.075c0.032-.125.09-0.24,0.127-0.363a1.486,1.486,0,0,1-.383-0.479c0-.009-0.013-0.016-0.018-0.026A1.471,1.471,0,0,1,852,840.5v-6a1.5,1.5,0,1,1,3,0v2.783a11.738,11.738,0,0,1,9-4.284,11.962,11.962,0,0,1,11.848,10.5h-3A8.984,8.984,0,0,0,864,835.994Z" transform="translate(-840 -815)"/>
</svg>
