<svg width="262" height="256" fill="none" xmlns="http://www.w3.org/2000/svg"><path d="m203.758 138.066 57.896-63.685c.222-.245.346-.565.346-.896 0-1.223-1.509-1.8-2.325-.889l-57.417 64.116a1.013 1.013 0 0 0-.258.674c0 .924 1.137 1.363 1.758.68Z" fill="url('#paint0_linear_206_2')" fill-opacity=".35"/><path d="M2.635 70.45 74.81 2.076C75.6 1.328 75.07 0 73.982 0c-.31 0-.607.12-.83.333L1.298 69.047a.969.969 0 0 0-.299.7c0 .851 1.018 1.289 1.635.704Z" fill="url('#paint1_linear_206_2')" fill-opacity=".35"/><path d="m203.719 251.995 56.671-66.117c.633-.738.108-1.878-.864-1.878-.334 0-.651.146-.867.401l-56.426 66.325a.98.98 0 0 0-.233.633c0 .907 1.128 1.325 1.719.636Z" fill="url('#paint2_linear_206_2')" fill-opacity=".35"/><path d="m180.823 50.77 60.198-46.906a1.29 1.29 0 1 0-1.591-2.03L179.476 49.05c-.814.641-.361 1.95.676 1.95.243 0 .479-.081.671-.23Z" fill="url('#paint3_linear_206_2')" fill-opacity=".35"/><path d="m91.499 254.929 28.249-29.602a1.24 1.24 0 0 0-1.795-1.713l-28.242 29.609a1.236 1.236 0 0 0 1.788 1.706Z" fill="url('#paint4_linear_206_2')" fill-opacity=".35"/><path d="m2.423 195.107 36.782-36.328a1.413 1.413 0 0 0-1.984-2.01L.422 193.082c-.27.268-.423.632-.423 1.013 0 1.263 1.524 1.9 2.423 1.012Z" fill="url('#paint5_linear_206_2')" fill-opacity=".35"/><defs><linearGradient id="paint0_linear_206_2" x1="193.688" y1="142.691" x2="264.563" y2="72.089" gradientUnits="userSpaceOnUse"><stop stop-color="#35AFBF"/><stop offset="1" stop-color="#35AFBF" stop-opacity=".06"/></linearGradient><linearGradient id="paint1_linear_206_2" x1="-9.528" y1="74.768" x2="61.876" y2="-12.827" gradientUnits="userSpaceOnUse"><stop stop-color="#35AFBF"/><stop offset="1" stop-color="#35AFBF" stop-opacity=".06"/></linearGradient><linearGradient id="paint2_linear_206_2" x1="193.688" y1="256.691" x2="264.563" y2="186.089" gradientUnits="userSpaceOnUse"><stop stop-color="#35AFBF"/><stop offset="1" stop-color="#35AFBF" stop-opacity=".06"/></linearGradient><linearGradient id="paint3_linear_206_2" x1="167.996" y1="52.922" x2="214.597" y2="-17.484" gradientUnits="userSpaceOnUse"><stop stop-color="#35AFBF"/><stop offset="1" stop-color="#35AFBF" stop-opacity=".06"/></linearGradient><linearGradient id="paint4_linear_206_2" x1="84.567" y1="257.269" x2="117.743" y2="219.881" gradientUnits="userSpaceOnUse"><stop stop-color="#35AFBF"/><stop offset="1" stop-color="#35AFBF" stop-opacity=".06"/></linearGradient><linearGradient id="paint5_linear_206_2" x1="-5.61" y1="199.096" x2="36.078" y2="151.814" gradientUnits="userSpaceOnUse"><stop stop-color="#35AFBF"/><stop offset="1" stop-color="#35AFBF" stop-opacity=".06"/></linearGradient></defs></svg>