<svg width="1440" height="800" fill="none" xmlns="http://www.w3.org/2000/svg"><path fill="#F3FEFF" d="M0 0h1440v800H0z"/><path d="m719.844 399.163 153.019-143.727a3.646 3.646 0 1 0-5.004-5.3L715.607 394.677c-2.021 1.919-.663 5.323 2.125 5.323.785 0 1.54-.299 2.112-.837Z" fill="url('#paint0_linear_216_5')" fill-opacity=".35"/><path d="m922.844 757.163 153.016-143.727a3.653 3.653 0 0 0 .64-4.525c-1.2-2.005-3.95-2.383-5.64-.775L918.607 752.677c-2.021 1.919-.663 5.323 2.125 5.323.785 0 1.54-.299 2.112-.837Z" fill="url('#paint1_linear_216_5')" fill-opacity=".35"/><path d="m1105.84 314.163 153.02-143.727a3.653 3.653 0 0 0 .64-4.525c-1.2-2.005-3.95-2.383-5.64-.775l-152.25 144.541c-2.02 1.919-.67 5.323 2.12 5.323.79 0 1.54-.299 2.11-.837Z" fill="url('#paint2_linear_216_5')" fill-opacity=".35"/><path d="m1354.84 385.163 153.02-143.727a3.653 3.653 0 0 0 .64-4.525c-1.2-2.005-3.95-2.383-5.64-.775l-152.25 144.541c-2.02 1.919-.67 5.323 2.12 5.323.79 0 1.54-.299 2.11-.837Z" fill="url('#paint3_linear_216_5')" fill-opacity=".35"/><path d="m1025.84 102.163 153.02-143.727a3.652 3.652 0 0 0 .64-4.525c-1.2-2.005-3.95-2.383-5.64-.775l-152.25 144.54c-2.02 1.92-.67 5.324 2.12 5.324.79 0 1.54-.299 2.11-.837Z" fill="url('#paint4_linear_216_5')" fill-opacity=".35"/><path d="m637.844 748.163 153.019-143.727a3.646 3.646 0 1 0-5.004-5.3L633.607 743.677c-2.021 1.919-.663 5.323 2.125 5.323.785 0 1.54-.299 2.112-.837Z" fill="url('#paint5_linear_216_5')" fill-opacity=".35"/><path d="m1342.84 727.163 153.02-143.727a3.653 3.653 0 0 0 .64-4.525c-1.2-2.005-3.95-2.383-5.64-.775l-152.25 144.541c-2.02 1.919-.67 5.323 2.12 5.323.79 0 1.54-.299 2.11-.837Z" fill="url('#paint6_linear_216_5')" fill-opacity=".35"/><defs><linearGradient id="paint0_linear_216_5" x1="687.143" y1="405.882" x2="838.189" y2="216.571" gradientUnits="userSpaceOnUse"><stop stop-color="#35AFBF"/><stop offset="1" stop-color="#35AFBF" stop-opacity=".06"/></linearGradient><linearGradient id="paint1_linear_216_5" x1="890.143" y1="763.882" x2="1041.19" y2="574.571" gradientUnits="userSpaceOnUse"><stop stop-color="#EAF4F5"/><stop offset="1" stop-color="#35AFBF" stop-opacity=".06"/></linearGradient><linearGradient id="paint2_linear_216_5" x1="1073.14" y1="320.882" x2="1224.19" y2="131.571" gradientUnits="userSpaceOnUse"><stop stop-color="#35AFBF"/><stop offset="1" stop-color="#35AFBF" stop-opacity=".06"/></linearGradient><linearGradient id="paint3_linear_216_5" x1="1322.14" y1="391.882" x2="1473.19" y2="202.571" gradientUnits="userSpaceOnUse"><stop stop-color="#EAF4F5"/><stop offset="1" stop-color="#35AFBF" stop-opacity=".06"/></linearGradient><linearGradient id="paint4_linear_216_5" x1="993.143" y1="108.882" x2="1144.19" y2="-80.429" gradientUnits="userSpaceOnUse"><stop stop-color="#EAF4F5"/><stop offset="1" stop-color="#35AFBF" stop-opacity=".06"/></linearGradient><linearGradient id="paint5_linear_216_5" x1="605.143" y1="754.882" x2="756.189" y2="565.571" gradientUnits="userSpaceOnUse"><stop stop-color="#EAF4F5"/><stop offset="1" stop-color="#35AFBF" stop-opacity=".06"/></linearGradient><linearGradient id="paint6_linear_216_5" x1="1310.14" y1="733.882" x2="1461.19" y2="544.571" gradientUnits="userSpaceOnUse"><stop stop-color="#EAF4F5"/><stop offset="1" stop-color="#35AFBF" stop-opacity=".06"/></linearGradient></defs></svg>