<svg width="20" height="20" fill="none" xmlns="http://www.w3.org/2000/svg"><g clip-path="url('#clip0_27_71')" fill="#fff"><path d="M14.586 0H5.414A5.42 5.42 0 0 0 0 5.414v9.172A5.42 5.42 0 0 0 5.414 20h9.172A5.42 5.42 0 0 0 20 14.586V5.414A5.42 5.42 0 0 0 14.586 0ZM10 15.469A5.475 5.475 0 0 1 4.531 10 5.475 5.475 0 0 1 10 4.531 5.475 5.475 0 0 1 15.469 10 5.475 5.475 0 0 1 10 15.469Zm5.6-9.648a1.618 1.618 0 0 1-1.617-1.616c0-.891.725-1.616 1.616-1.616.891 0 1.616.725 1.616 1.616 0 .891-.725 1.616-1.616 1.616Z"/><path d="M10 5.704A4.301 4.301 0 0 0 5.704 10 4.301 4.301 0 0 0 10 14.296 4.301 4.301 0 0 0 14.296 10 4.3 4.3 0 0 0 10 5.704ZM15.6 3.762a.444.444 0 1 0 0 .888.444.444 0 0 0 0-.888Z"/></g><defs><clipPath id="clip0_27_71"><path fill="#fff" d="M0 0h20v20H0z"/></clipPath></defs></svg>