<svg width="80" height="80" fill="none" xmlns="http://www.w3.org/2000/svg"><circle cx="40" cy="40" r="40" fill="#35AFBF"/><path d="M25 25.877h3.633v9.082H25v-9.082ZM52.367 44.041H56v9.082h-3.633v-9.082ZM38.684 34.959h3.632v9.082h-3.632v-9.082ZM27.725 42.225h9.142v-5.45h-9.142A2.728 2.728 0 0 0 25 39.5a2.728 2.728 0 0 0 2.725 2.725ZM53.275 36.775h-9.142v5.45h9.142A2.728 2.728 0 0 0 56 39.5a2.728 2.728 0 0 0-2.725-2.725ZM53.275 27.693H30.45v5.45h22.826A2.728 2.728 0 0 0 56 30.418a2.728 2.728 0 0 0-2.725-2.725ZM27.725 51.307H50.55v-5.45H27.725A2.728 2.728 0 0 0 25 48.582a2.728 2.728 0 0 0 2.725 2.725Z" fill="#fff"/></svg>