<svg width="80" height="80" fill="none" xmlns="http://www.w3.org/2000/svg"><circle cx="40" cy="40" r="40" fill="#35AFBF"/><g clip-path="url('#clip0_206_19')" fill="#fff"><path d="M47.91 37.363h1.758v3.516H47.91v-3.516ZM48.79 32.09a.879.879 0 1 0 0-1.758.879.879 0 0 0 0 1.758Z"/><path d="M54.121 25H25.88a.878.878 0 0 0-.879.879V40c0 .486.393.879.879.879h20.273v-4.395c0-.485.393-.879.88-.879h3.515c.486 0 .879.394.879.88v4.394h2.695A.878.878 0 0 0 55 40V25.879a.878.878 0 0 0-.879-.879Zm-10.605 7.09h-1.758a4.4 4.4 0 0 0-4.395 4.394.878.878 0 1 1-1.758 0 2.64 2.64 0 0 0-2.636-2.636 2.64 2.64 0 0 0-2.637 2.636.878.878 0 1 1-1.758 0 4.4 4.4 0 0 1 4.395-4.394c1.349 0 2.542.623 3.349 1.583 1.025-1.975 3.066-3.341 5.44-3.341h1.758a.878.878 0 1 1 0 1.758Zm5.273 1.758a2.64 2.64 0 0 1-2.637-2.637 2.64 2.64 0 0 1 2.637-2.637 2.64 2.64 0 0 1 2.637 2.637 2.64 2.64 0 0 1-2.637 2.637ZM25.879 53.242H47.91v.88a.878.878 0 1 0 1.758 0v-6.727l1.5-1.5a.878.878 0 0 0 .258-.622v-1.757a.878.878 0 0 0-.88-.88h-3.515a.878.878 0 0 0-.879.88v1.757c0 .234.093.457.258.622l1.5 1.5v.515H25.88a.878.878 0 0 0-.879.88v3.573c0 .486.393.88.879.88ZM54.121 47.91h-2.695v5.332h2.695a.878.878 0 0 0 .879-.879V48.79a.878.878 0 0 0-.879-.879Z"/></g><defs><clipPath id="clip0_206_19"><path fill="#fff" transform="translate(25 25)" d="M0 0h30v30H0z"/></clipPath></defs></svg>