<svg width="155" height="31" fill="none" xmlns="http://www.w3.org/2000/svg"><path d="M21.9 25.572 1.224 11.31C-.87 9.865-.158 6.856 2.455 6.15L24.427.185a3.112 3.112 0 0 1 4.167 2.872L27.293 23.28c-.155 2.4-3.298 3.736-5.394 2.29Z" fill="#E9327C"/><path d="M15.342 29.092 3.162 5.272A3.323 3.323 0 0 1 6.628.478L29.2 3.961a3.322 3.322 0 0 1 2.452 4.796L21.253 29.093a3.322 3.322 0 0 1-5.91 0Z" fill="#1DACE3"/><path d="M28.54 3.858 17.288 2.122 3.472 5.872l5.515 10.789L21.9 25.57c.285.195.598.344.928.442l4.905-9.592.807-12.563ZM85.536 6.643a2.115 2.115 0 1 1 2.115 2.115 2.137 2.137 0 0 1-2.115-2.115Zm.353 3.148h3.525V21.54H85.89V9.791ZM104.638 15.665a5.906 5.906 0 0 1-3.373 5.646 5.905 5.905 0 0 1-2.242.558 4.412 4.412 0 0 1-3.501-1.434v5.804h-3.524V9.791h3.524v1.104a4.413 4.413 0 0 1 3.5-1.432 5.904 5.904 0 0 1 4.098 1.933 5.89 5.89 0 0 1 1.518 4.27Zm-3.525 0a2.798 2.798 0 0 0-5.544-.45 2.797 2.797 0 0 0 2.748 3.318 2.683 2.683 0 0 0 2.796-2.868ZM115.515 18.013c0 2.702-2.35 3.854-4.887 3.854a5.143 5.143 0 0 1-5.051-2.797l3.054-1.738a1.931 1.931 0 0 0 1.997 1.383c.846 0 1.267-.26 1.267-.729 0-1.293-5.779-.61-5.779-4.676 0-2.56 2.161-3.853 4.61-3.853a5.137 5.137 0 0 1 4.581 2.514l-3.007 1.621a1.71 1.71 0 0 0-1.574-1.037c-.611 0-.987.23-.987.658-.003 1.348 5.776.455 5.776 4.8ZM128.396 9.791V21.54h-3.524v-1.106a4.021 4.021 0 0 1-3.36 1.433c-2.373 0-4.393-1.691-4.393-4.864v-7.21h3.524v6.696a1.93 1.93 0 0 0 .526 1.543 1.936 1.936 0 0 0 1.518.595c1.292 0 2.19-.752 2.19-2.42V9.79h3.519ZM148.596 14.325v7.214h-3.524v-6.908c0-1.174-.565-1.926-1.692-1.926-1.175 0-1.832.822-1.832 2.209v6.625h-3.526v-6.908c0-1.174-.563-1.926-1.691-1.926-1.175 0-1.833.822-1.833 2.209v6.625h-3.524V9.791h3.53v1.077a3.605 3.605 0 0 1 3.149-1.41 3.497 3.497 0 0 1 3.078 1.55 3.866 3.866 0 0 1 3.407-1.55c2.697.005 4.458 1.93 4.458 4.867ZM151.582 9.719a2.616 2.616 0 1 0 0-5.232 2.616 2.616 0 0 0 0 5.232ZM37.42 4.387h3.525V21.54h-3.526V4.387Zm5.52 11.278a6.223 6.223 0 1 1 6.224 6.204 6.157 6.157 0 0 1-6.223-6.204Zm8.93 0a2.703 2.703 0 1 0-2.703 2.773 2.636 2.636 0 0 0 2.707-2.773h-.004Zm17.573-5.877v11.161c0 3.947-3.078 5.615-6.202 5.615a6.007 6.007 0 0 1-5.569-2.843l3.007-1.74a2.686 2.686 0 0 0 2.68 1.482 2.34 2.34 0 0 0 2.65-2.514v-1.08a4.175 4.175 0 0 1-3.43 1.526 5.97 5.97 0 0 1 0-11.936 4.174 4.174 0 0 1 3.43 1.527V9.788h3.434Zm-3.43 5.639a2.845 2.845 0 1 0-2.845 2.73 2.66 2.66 0 0 0 2.846-2.727v-.003Zm5.426.23a6.223 6.223 0 1 1 6.224 6.204 6.157 6.157 0 0 1-6.224-6.196v-.008Zm8.93 0a2.704 2.704 0 1 0-2.703 2.773 2.634 2.634 0 0 0 2.703-2.765v-.008Z" fill="#001A49"/></svg>