<svg width="103" height="38" fill="none" xmlns="http://www.w3.org/2000/svg"><path d="M55.884 12.14V26H53.28v-7.224l.126-4.053h-.042L49.521 26h-2.373l-3.822-11.277h-.042l.147 4.053V26h-2.625V12.14h4.2l2.499 7.56.882 3.129h.042l.903-3.108 2.478-7.581h4.074Zm9.214 7.161c0-.602-.175-1.071-.525-1.407-.336-.336-.784-.504-1.344-.504-.518 0-.973.133-1.365.399s-.68.707-.861 1.323l-2.457-.756c.238-.924.756-1.666 1.554-2.226.812-.56 1.897-.84 3.255-.84 1.372 0 2.478.329 3.318.987.854.644 1.28 1.61 1.28 2.898v4.263c0 .532.253.798.757.798.238 0 .462-.035.672-.105l-.168 1.785c-.364.182-.82.273-1.365.273-.602 0-1.127-.126-1.575-.378a1.901 1.901 0 0 1-.882-1.134c-.336.504-.82.889-1.45 1.155a5.001 5.001 0 0 1-1.91.378c-1.064 0-1.911-.238-2.541-.714-.616-.49-.924-1.197-.924-2.121 0-.784.252-1.421.756-1.911.504-.504 1.225-.847 2.163-1.029l3.612-.735v-.399Zm-3.654 3.801c0 .35.126.616.378.798.266.182.58.273.945.273.406 0 .784-.063 1.134-.189.35-.126.637-.336.86-.63.225-.308.337-.714.337-1.218v-.651l-2.205.441c-.476.098-.84.231-1.092.399-.238.154-.357.413-.357.777Zm12.604-12.201v9.387l4.536-4.788h3.276l-3.948 4.116 4.2 6.384h-3.255l-2.898-4.641-1.91 2.037V26H71.17V10.901h2.877ZM88.163 26.21c-1.652 0-2.975-.476-3.969-1.428-.994-.966-1.49-2.31-1.49-4.032 0-1.148.223-2.128.671-2.94a4.62 4.62 0 0 1 1.87-1.869c.811-.434 1.735-.651 2.771-.651 1.064 0 1.967.217 2.71.651a4.248 4.248 0 0 1 1.7 1.743c.392.728.588 1.561.588 2.499 0 .28-.007.546-.02.798a7.898 7.898 0 0 1-.064.672h-7.413c.112.812.392 1.421.84 1.827.462.392 1.057.588 1.785.588.616 0 1.113-.119 1.491-.357.378-.238.672-.567.882-.987l2.29.882c-.337.826-.925 1.47-1.765 1.932-.84.448-1.799.672-2.877.672Zm-.168-8.799c-1.358 0-2.177.749-2.457 2.247h4.725c-.084-.728-.322-1.281-.714-1.659-.378-.392-.896-.588-1.554-.588ZM95.452 26V15.5h2.5l.188 2.058c.266-.714.665-1.267 1.197-1.659.546-.406 1.232-.609 2.058-.609.49 0 .868.077 1.134.231l-.336 2.415a3.456 3.456 0 0 0-.525-.105 3.848 3.848 0 0 0-.777-.063c-.434 0-.847.105-1.239.315-.378.196-.693.504-.945.924-.252.406-.378.924-.378 1.554V26h-2.877Z" fill="#252626"/><path d="M27.744 20.99c3.142.89 5.042 4.28 3.014 6.84a14.997 14.997 0 0 1-13.285 5.609A15 15 0 1 1 29.306 7.618c2.373 2.244.977 5.871-2.006 7.2l-3.375 1.504c-1.119.499-2.434-.123-3.536-.66a3.175 3.175 0 1 0 .394 5.48c1.013-.687 2.227-1.49 3.405-1.157l3.556 1.005Z" fill="#35AFBF"/></svg>