<svg width="12" height="21" viewBox="0 0 12 21" fill="none" xmlns="http://www.w3.org/2000/svg">
<path d="M10.041 0.554442L1.03919 9.78904C0.881087 9.95124 0.792603 10.1688 0.792603 10.3953C0.792603 10.6218 0.881087 10.8394 1.03919 11.0016L10.041 20.2396C10.1147 20.3153 10.2027 20.3754 10.3 20.4164C10.3972 20.4575 10.5017 20.4786 10.6073 20.4786C10.7129 20.4786 10.8174 20.4575 10.9147 20.4164C11.0119 20.3754 11.1 20.3153 11.1736 20.2396C11.3251 20.0845 11.41 19.8763 11.41 19.6594C11.41 19.4426 11.3251 19.2344 11.1736 19.0792L2.70857 10.3953L11.1736 1.71311C11.3246 1.55807 11.4091 1.3502 11.4091 1.13378C11.4091 0.917354 11.3246 0.709485 11.1736 0.554442C11.1 0.478801 11.0119 0.418681 10.9147 0.37763C10.8174 0.336579 10.7129 0.31543 10.6073 0.31543C10.5017 0.31543 10.3972 0.336579 10.3 0.37763C10.2027 0.418681 10.1147 0.478801 10.041 0.554442Z" fill="#D0D0D0"/>
</svg>
