<svg width="871" height="174" viewBox="0 0 871 174" fill="none" xmlns="http://www.w3.org/2000/svg">
<path fill-rule="evenodd" clip-rule="evenodd" d="M342.989 -510.639C432.952 -540.839 528.181 -575.566 614.935 -556.867C701.274 -538.257 753.807 -473.822 800.419 -412.044C844.725 -353.324 861.639 -285.21 873.893 -213.656C889.171 -124.442 944.262 -27.4884 880.275 54.2591C816.381 135.887 683.713 152.033 574.173 169.254C482.5 183.667 401.204 156.649 313.634 143.342C219.254 129.001 102.733 147.378 42.5154 88.4652C-18.3928 28.8769 2.45806 -67.2819 12.1568 -151.602C21.3847 -231.827 34.729 -315.614 96.7344 -382.906C157.69 -449.058 252.58 -480.288 342.989 -510.639Z" fill="#CCEBEF"/>
</svg>
