<svg width="172" height="40" viewBox="0 0 172 40" fill="none" xmlns="http://www.w3.org/2000/svg">
<path d="M61.0685 14.2659C59.974 12.7574 59.3709 10.7194 59.3709 8.52634C59.3709 3.02174 62.4017 0.557666 65.4062 0.557666C67.4742 0.557666 69.4601 1.64637 70.8042 3.49481C71.1561 3.00294 71.446 2.37165 71.446 2.04425C71.446 0.961817 68.4338 0 66.0588 0C61.7025 0 57.0734 3.43215 57.0734 9.79048C57.0734 13.7239 59.3105 18.3168 65.6154 18.3168C68.0323 18.3168 70.3329 17.1294 71.3685 15.4956C69.8632 16.4292 68.1331 16.9148 66.2945 16.9148C64.1365 16.9148 62.3304 15.9984 61.0716 14.2628L61.0685 14.2659Z" fill="#494949"/>
<path d="M108.944 7.94361C106.744 6.98179 104.667 6.07167 104.667 3.91463C104.667 1.97063 106.174 0.504406 108.172 0.504406C110.558 0.504406 112.209 2.27453 112.826 3.0609C113.203 2.57529 113.455 1.98003 113.455 1.54298C113.455 0.690817 110.59 0 108.721 0C104.74 0 102.656 2.486 102.656 4.94224C102.656 7.76816 105.191 8.94615 107.643 10.085C109.794 11.0844 112.018 12.1167 112.018 14.3239C112.018 15.0867 111.739 17.5759 108.147 17.5759C105.262 17.5759 103.315 16.0204 102.576 15.3076C102.41 15.6209 102.238 15.989 102.238 16.2209C102.238 17.3299 105.338 18.3184 107.781 18.3184C111.883 18.3184 114.029 15.74 114.029 13.1913C114.029 10.1696 111.445 9.03857 108.944 7.94517V7.94361Z" fill="#494949"/>
<path d="M91.1593 4.68691C91.1857 3.59037 91.212 2.45624 91.212 1.30645C91.212 0.440188 90.347 0.131592 89.6059 0.131592C89.3656 0.131592 89.0354 0.175453 88.7068 0.245945C88.7672 0.664194 88.8323 1.39261 88.8851 2.68338C88.9517 4.59135 88.9936 6.21109 89.0153 7.7807L89.0215 8.22715L88.5797 8.24594C87.4231 8.29451 85.4062 8.35247 83.5273 8.35247C82.222 8.35247 80.4283 8.33367 79.2935 8.24594L78.8703 8.21305L78.8749 7.78383C78.9106 4.27492 78.9276 2.15548 78.9276 1.30645C78.9276 0.457419 78.0626 0.131592 77.3216 0.131592C77.0797 0.131592 76.7448 0.175453 76.4131 0.247511C76.4689 0.659495 76.5356 1.38321 76.6007 2.67868C76.6534 3.96163 76.7572 9.53359 76.7572 11.0813C76.7572 14.8737 76.6394 17.037 76.5015 18.0114C76.5495 18.0208 76.596 18.0302 76.6425 18.0396C77.0394 18.1179 77.3805 18.1852 77.7107 18.1852C78.5912 18.1852 78.9509 17.7999 78.9509 16.8522C78.9509 15.989 78.923 15.1416 78.8966 14.3239C78.8703 13.5422 78.847 12.8028 78.847 12.0822V9.00725L79.2826 8.98845C80.4702 8.93676 82.3522 8.88194 84.0746 8.88194C85.414 8.88194 87.2852 8.90073 88.5905 8.98845L89.0184 9.01665L89.0137 9.45057C89.0013 10.6051 88.9734 11.7533 88.9455 12.8624C88.913 14.1563 88.8835 15.3781 88.8835 16.4543C88.8835 17.9064 89.3098 18.1821 90.0974 18.1821C90.5873 18.1821 90.8632 18.121 91.212 18.0443C91.2678 18.0317 91.3252 18.0192 91.3856 18.0067C91.1764 16.0564 91.1035 10.475 91.1035 7.97024C91.1035 6.86744 91.1299 5.75838 91.1547 4.68534L91.1593 4.68691Z" fill="#494949"/>
<path d="M133.457 4.68691C133.483 3.59037 133.51 2.45624 133.51 1.30645C133.51 0.440188 132.645 0.131592 131.904 0.131592C131.663 0.131592 131.333 0.175453 131.005 0.245945C131.065 0.664194 131.13 1.39261 131.183 2.68338C131.249 4.59135 131.291 6.21109 131.313 7.7807L131.319 8.22715L130.877 8.24594C129.721 8.29451 127.704 8.35247 125.825 8.35247C124.52 8.35247 122.726 8.33367 121.591 8.24594L121.168 8.21305L121.173 7.78383C121.208 4.27492 121.225 2.15548 121.225 1.30645C121.225 0.457419 120.36 0.131592 119.619 0.131592C119.377 0.131592 119.043 0.175453 118.711 0.247511C118.767 0.659495 118.833 1.38321 118.898 2.67868C118.951 3.96163 119.055 9.53359 119.055 11.0813C119.055 14.8737 118.937 17.037 118.799 18.0114C118.847 18.0208 118.894 18.0302 118.94 18.0396C119.337 18.1179 119.678 18.1852 120.008 18.1852C120.889 18.1852 121.249 17.7999 121.249 16.8522C121.249 15.989 121.221 15.1416 121.194 14.3239C121.168 13.5422 121.145 12.8028 121.145 12.0822V9.00725L121.58 8.98845C122.768 8.93676 124.65 8.88194 126.372 8.88194C127.712 8.88194 129.583 8.90073 130.888 8.98845L131.316 9.01665L131.311 9.45057C131.299 10.6051 131.271 11.7533 131.243 12.8624C131.211 14.1563 131.181 15.3781 131.181 16.4543C131.181 17.9064 131.608 18.1821 132.395 18.1821C132.885 18.1821 133.161 18.121 133.51 18.0443C133.566 18.0317 133.623 18.0192 133.683 18.0067C133.474 16.0564 133.401 10.475 133.401 7.97024C133.401 6.86744 133.428 5.75838 133.452 4.68534L133.457 4.68691Z" fill="#494949"/>
<path d="M34.8766 2.91516C34.2456 0.781617 32.7155 0.236483 32.0427 0.0986328L26.7159 15.1118C26.1299 16.7769 25.6137 17.6808 25.2757 18.1523C25.3625 18.1726 25.4509 18.1867 25.5315 18.1867C26.7299 18.1867 26.9391 17.6134 27.7282 14.9081C27.9468 14.1593 28.2181 13.2273 28.5685 12.1527L28.6662 11.8535L28.9778 11.8378C29.9203 11.7924 31.3388 11.7313 32.7542 11.7313C33.6317 11.7313 34.5324 11.7564 35.3757 11.7846L35.6936 11.7955L35.7928 12.101C36.3881 13.9291 36.8671 15.5723 37.2578 16.9398C37.4872 17.7701 38.1476 18.1899 39.2204 18.1899C39.6095 18.1899 40.0173 18.1382 40.3459 18.0818C40.1366 17.7325 39.8979 17.1905 39.5088 16.307C38.1585 13.2758 35.785 5.97449 34.8735 2.91986L34.8766 2.91516ZM34.9076 11.3052C33.9975 11.3334 33.1061 11.3585 32.2085 11.3585C31.2148 11.3585 30.2335 11.3318 29.4041 11.3052L28.8041 11.2864L28.9855 10.7084C29.094 10.3606 29.2072 10.0003 29.3235 9.62438C29.8955 7.78377 30.6086 5.49358 31.545 2.76478L31.9496 1.58679L32.3977 2.74755C33.1806 4.77613 34.365 7.8433 35.3246 10.699L35.523 11.2864L34.9091 11.3052H34.9076Z" fill="#494949"/>
<path d="M20.9163 6.12656C20.2249 8.34626 19.2792 11.3852 17.9041 15.4722L17.4933 16.6925L17.0484 15.4847C15.4997 11.2834 13.5014 4.63371 12.8564 1.53209C12.6735 0.647027 11.8395 0.18335 11.1108 0.18335C10.4442 0.18335 10.038 0.242876 9.80239 0.299269C10.3062 1.49136 11.6689 4.88435 11.6689 6.67953C11.6689 8.09093 10.331 11.769 9.25515 14.725L8.57303 16.6079L8.13275 15.4925C6.4569 11.2458 4.16249 4.62745 3.41991 1.54618C3.20442 0.609431 2.36262 0.184916 1.6712 0.184916C0.879006 0.184916 0.341061 0.255408 0 0.327466C0.227891 0.714385 0.558099 1.32218 0.961171 2.19157C2.40138 5.33079 4.83531 13.1553 5.54689 15.4784C6.22436 17.6997 8.04128 18.1822 8.81022 18.2887C8.94044 17.7874 9.19159 16.8695 9.48304 16.0408L11.4922 10.3999C11.655 9.90647 11.7294 9.36604 11.7309 9.35977L12.0224 7.22153L12.6177 9.29398C12.9805 10.555 13.3463 11.7534 13.6703 12.8092C13.9835 13.8336 14.2548 14.7187 14.4703 15.4894C15.0547 17.612 16.9337 18.1446 17.7336 18.2762C17.8654 17.7718 18.115 16.8632 18.4033 16.0408L22.9162 3.39149C23.5208 1.69343 24.161 0.725351 24.5688 0.227211C24.4432 0.202147 24.2866 0.184916 24.099 0.184916C22.8185 0.184916 22.6991 0.407356 20.9179 6.12813L20.9163 6.12656Z" fill="#494949"/>
<path d="M52.4443 0.394683C49.8367 0.394683 41.1288 0.264665 41.042 0.263099C41.0312 0.263099 40.9041 0.382151 40.9041 0.936684C40.9041 1.11056 40.9165 1.30324 40.9304 1.47242C41.5304 1.39566 42.4853 1.29541 43.5535 1.29541C43.9705 1.29541 44.5999 1.29541 46.2727 1.32204L46.7207 1.3283V1.78102C46.7207 1.98936 46.7393 2.24313 46.761 2.53762L46.7718 2.69584C46.8571 4.52705 46.9036 6.64963 46.9036 8.68291V16.8521C46.9036 17.7982 47.2633 18.1852 48.1438 18.1852C48.474 18.1852 48.8167 18.1178 49.212 18.0395C49.2693 18.0285 49.3283 18.016 49.3872 18.005C48.9934 14.6167 48.9934 11.241 48.9934 7.97173C48.9934 6.75615 49.0197 5.59382 49.0477 4.36257C49.0663 3.53234 49.0864 2.67391 49.0973 1.79981L49.1035 1.3424L49.5561 1.3471C52.2257 1.37216 54.5558 1.39566 54.8674 1.39879C54.8937 1.35337 54.9387 1.22805 54.9387 0.988377C54.9387 0.707978 54.9185 0.426012 54.8968 0.200439C54.0597 0.327324 53.221 0.393116 52.4474 0.393116L52.4443 0.394683Z" fill="#494949"/>
<path d="M147.472 0C141.298 0 138.486 4.97983 138.486 9.60721C138.486 11.9397 139.254 14.0873 140.649 15.6538C142.201 17.3973 144.433 18.3184 147.107 18.3184C151.436 18.3184 156.093 15.1478 156.093 8.18484C156.093 2.56276 151.625 0.00156648 147.472 0.00156648V0ZM152.113 14.8909C150.975 16.7848 149.371 17.7858 147.472 17.7858C145.475 17.7858 143.783 16.8177 142.579 14.9849C141.523 13.3793 140.942 11.2442 140.942 8.97278C140.942 4.77619 143.05 0.529469 147.081 0.529469C149.088 0.529469 150.791 1.44429 152 3.17368C153.056 4.68533 153.639 6.68886 153.639 8.81457C153.639 11.064 153.084 13.2775 152.116 14.8894L152.113 14.8909Z" fill="#494949"/>
<path d="M165.622 0.394732H161.919C161.593 0.394732 161.178 0.374368 160.844 0.354004C160.923 1.02759 160.982 2.01447 161.016 2.67866C161.1 4.4989 161.147 6.63088 161.147 8.68296V16.8521C161.147 17.7983 161.506 18.1852 162.387 18.1852C162.717 18.1852 163.06 18.1179 163.455 18.0395C163.512 18.0286 163.571 18.016 163.63 18.0051C163.348 15.6037 163.286 13.2242 163.263 11.1925L163.256 10.6395L163.796 10.735C164.162 10.8008 164.608 10.8337 165.125 10.8337C169.637 10.8337 171.998 8.05637 171.998 5.3119C171.998 3.04365 170.329 0.396299 165.621 0.396299L165.622 0.394732ZM164.605 10.4609C164.306 10.4609 163.968 10.4609 163.618 10.4014L163.238 10.3372V7.97178C163.238 5.80378 163.342 1.36595 163.342 1.32052L163.353 0.872508H164.605C166.179 0.872508 167.49 1.37221 168.4 2.31993C169.206 3.15956 169.65 4.30466 169.65 5.54844C169.65 7.98901 167.917 10.4609 164.605 10.4609Z" fill="#494949"/>
<path d="M43.1426 30.1157H45.0495V38.0311H49.6042V39.82H43.1426V30.1157Z" fill="#494949"/>
<path d="M60.4716 29.9214C63.366 29.9214 65.5069 31.9735 65.5069 34.967C65.5069 37.9606 63.366 39.9985 60.4716 39.9985C57.5773 39.9985 55.4363 37.9465 55.4363 34.967C55.4363 31.9876 57.5773 29.9214 60.4716 29.9214ZM60.4716 38.183C62.2421 38.183 63.5861 36.9486 63.5861 34.967C63.5861 32.9854 62.2421 31.7369 60.4716 31.7369C58.7012 31.7369 57.3571 32.9839 57.3571 34.967C57.3571 36.9502 58.7012 38.183 60.4716 38.183Z" fill="#494949"/>
<path d="M74.221 33.3317H74.1792C74.1792 33.3458 74.2071 34.5097 74.2071 35.7441V39.82H72.3002V30.1157H74.235L78.8315 36.507H78.8734C78.8734 36.4929 78.8455 35.2867 78.8455 34.2199V30.1157H80.7523V39.82H78.8176L74.221 33.3317Z" fill="#494949"/>
<path d="M91.8105 30.1157C94.7048 30.1157 96.8737 32.0566 96.8737 35.0094C96.8737 37.9622 94.6924 39.82 91.8384 39.82H87.9689V30.1157H91.8105ZM91.7283 38.0311C93.4026 38.0311 94.9529 37.1304 94.9529 35.0094C94.9529 32.8884 93.4026 31.9046 91.7019 31.9046H89.8773V38.0327H91.7298L91.7283 38.0311Z" fill="#494949"/>
<path d="M108.33 29.9214C111.225 29.9214 113.366 31.9735 113.366 34.967C113.366 37.9606 111.225 39.9985 108.33 39.9985C105.436 39.9985 103.295 37.9465 103.295 34.967C103.295 31.9876 105.436 29.9214 108.33 29.9214ZM108.33 38.183C110.101 38.183 111.445 36.9486 111.445 34.967C111.445 32.9854 110.101 31.7369 108.33 31.7369C106.56 31.7369 105.216 32.9839 105.216 34.967C105.216 36.9502 106.56 38.183 108.33 38.183Z" fill="#494949"/>
<path d="M122.078 33.3317H122.036C122.036 33.3458 122.064 34.5097 122.064 35.7441V39.82H120.157V30.1157H122.092L126.689 36.507H126.73C126.73 36.4929 126.702 35.2867 126.702 34.2199V30.1157H128.609V39.82H126.675L122.078 33.3317Z" fill="#494949"/>
</svg>
