<svg width="545" height="402" viewBox="0 0 545 402" fill="none" xmlns="http://www.w3.org/2000/svg">
<g clip-path="url(#clip0_17_2)">
<path d="M392.581 138.935H204.799C201.813 138.932 198.951 137.742 196.84 135.628C194.729 133.513 193.542 130.646 193.538 127.655V16.6903C193.541 14.4536 194.429 12.3093 196.008 10.7277C197.586 9.14614 199.727 8.25648 201.96 8.25391H395.286C397.554 8.25652 399.729 9.16037 401.333 10.7672C402.937 12.374 403.839 14.5526 403.842 16.825V127.655C403.838 130.646 402.651 133.513 400.54 135.628C398.429 137.742 395.567 138.932 392.581 138.935Z" fill="white"/>
<path d="M392.581 138.935H204.799C201.813 138.932 198.951 137.742 196.84 135.628C194.729 133.513 193.542 130.646 193.538 127.655V16.6903C193.541 14.4536 194.429 12.3093 196.008 10.7277C197.586 9.14614 199.727 8.25648 201.96 8.25391H395.286C397.554 8.25652 399.729 9.16037 401.333 10.7672C402.937 12.374 403.839 14.5526 403.842 16.825V127.655C403.838 130.646 402.651 133.513 400.54 135.628C398.429 137.742 395.567 138.932 392.581 138.935ZM201.96 9.54304C200.068 9.5452 198.255 10.2989 196.917 11.6388C195.579 12.9787 194.827 14.7954 194.825 16.6903V127.655C194.828 130.304 195.88 132.843 197.75 134.716C199.619 136.589 202.154 137.643 204.799 137.646H392.581C395.225 137.643 397.76 136.589 399.63 134.716C401.5 132.843 402.552 130.304 402.555 127.655V16.825C402.553 14.8944 401.786 13.0435 400.423 11.6783C399.06 10.3132 397.213 9.54524 395.286 9.54304H201.96Z" fill="#3F3D56"/>
<path d="M215.094 127.655H382.286C385.016 127.655 387.635 126.569 389.566 124.635C391.497 122.701 392.581 120.077 392.581 117.342V36.4181C392.581 33.6829 391.497 31.0597 389.566 29.1256C387.635 27.1915 385.016 26.105 382.286 26.105H215.094C212.363 26.105 209.745 27.1915 207.814 29.1256C205.883 31.0597 204.798 33.6829 204.798 36.4181V117.342C204.798 120.077 205.883 122.701 207.814 124.635C209.745 126.569 212.363 127.655 215.094 127.655Z" fill="#F2F2F2"/>
<path d="M404.123 16.0822H193.072V10.6676C193.092 7.82302 194.237 5.10242 196.257 3.1026C198.276 1.10278 201.005 -0.0129712 203.845 0.000114045H393.35C396.19 -0.0129848 398.919 1.10275 400.939 3.10258C402.958 5.10241 404.103 7.82301 404.123 10.6676V16.0822Z" fill="#1E7CCF"/>
<path d="M213.397 10.8181C214.92 10.8181 216.154 9.58193 216.154 8.0571C216.154 6.53226 214.92 5.29614 213.397 5.29614C211.875 5.29614 210.641 6.53226 210.641 8.0571C210.641 9.58193 211.875 10.8181 213.397 10.8181Z" fill="white"/>
<path d="M223.859 10.8181C225.381 10.8181 226.615 9.58193 226.615 8.0571C226.615 6.53226 225.381 5.29614 223.859 5.29614C222.337 5.29614 221.103 6.53226 221.103 8.0571C221.103 9.58193 222.337 10.8181 223.859 10.8181Z" fill="white"/>
<path d="M234.321 10.8181C235.843 10.8181 237.077 9.58193 237.077 8.0571C237.077 6.53226 235.843 5.29614 234.321 5.29614C232.799 5.29614 231.565 6.53226 231.565 8.0571C231.565 9.58193 232.799 10.8181 234.321 10.8181Z" fill="white"/>
<path d="M244.853 98.1509C240.653 98.1509 236.548 96.9034 233.056 94.5661C229.564 92.2289 226.843 88.9068 225.236 85.0201C223.628 81.1334 223.208 76.8565 224.027 72.7304C224.847 68.6043 226.869 64.8142 229.838 61.8394C232.808 58.8647 236.592 56.8388 240.711 56.0181C244.829 55.1974 249.099 55.6186 252.979 57.2285C256.859 58.8385 260.175 61.5648 262.508 65.0627C264.841 68.5607 266.087 72.6732 266.087 76.8801C266.08 82.5195 263.841 87.9261 259.861 91.9138C255.88 95.9015 250.483 98.1445 244.853 98.1509Z" fill="#1E7CCF"/>
<path d="M368.613 94.2834H286.433C285.106 94.301 283.821 93.816 282.835 92.9255C281.849 92.035 281.235 90.8045 281.116 89.4801C281.068 88.775 281.166 88.0676 281.402 87.4018C281.639 86.736 282.009 86.1259 282.491 85.6094C282.972 85.0928 283.554 84.6808 284.201 84.3989C284.848 84.117 285.546 83.9711 286.252 83.9703H368.409C369.743 83.9507 371.035 84.4372 372.025 85.3321C373.016 86.2271 373.632 87.4644 373.75 88.7955C373.794 89.4989 373.694 90.2041 373.456 90.8674C373.218 91.5307 372.847 92.1381 372.366 92.6523C371.885 93.1665 371.303 93.5764 370.658 93.857C370.012 94.1375 369.316 94.2826 368.613 94.2834Z" fill="#3F3D56"/>
<path d="M325.502 72.3681H286.433C285.106 72.3857 283.821 71.9007 282.835 71.0102C281.849 70.1197 281.235 68.8892 281.116 67.5648C281.068 66.8597 281.166 66.1523 281.402 65.4865C281.639 64.8207 282.009 64.2106 282.491 63.6941C282.972 63.1776 283.554 62.7656 284.201 62.4836C284.848 62.2017 285.546 62.0558 286.252 62.055H325.298C326.632 62.0354 327.924 62.5219 328.914 63.4169C329.905 64.3118 330.521 65.5491 330.639 66.8802C330.683 67.5837 330.584 68.2888 330.346 68.9521C330.108 69.6154 329.736 70.2228 329.255 70.737C328.774 71.2512 328.193 71.6611 327.547 71.9417C326.902 72.2222 326.205 72.3673 325.502 72.3681Z" fill="#3F3D56"/>
<path d="M489.082 291.603C489.398 290.71 489.515 289.759 489.425 288.816C489.334 287.872 489.038 286.961 488.558 286.144C488.077 285.328 487.424 284.627 486.644 284.091C485.864 283.555 484.976 283.197 484.043 283.042L480.163 260.338L471.441 268.519L476.463 288.825C476.307 290.412 476.737 292.002 477.673 293.293C478.609 294.584 479.985 295.486 481.54 295.829C483.095 296.171 484.722 295.93 486.112 295.152C487.502 294.373 488.559 293.11 489.082 291.603V291.603Z" fill="#FFB8B8"/>
<path d="M483.286 280.742L474.723 282.993C474.316 283.098 473.883 283.04 473.518 282.831C473.153 282.621 472.883 282.278 472.767 281.872L457.379 227.258L452.73 213.325C452.282 211.983 452.181 210.549 452.435 209.156C452.689 207.764 453.29 206.458 454.184 205.361C455.077 204.264 456.232 203.412 457.543 202.882C458.853 202.353 460.276 202.164 461.679 202.334C463.303 202.529 464.834 203.197 466.083 204.254C467.332 205.312 468.245 206.712 468.708 208.283L481.004 249.918L484.475 278.992C484.513 279.315 484.452 279.642 484.301 279.931C484.151 280.219 483.916 280.455 483.629 280.608C483.521 280.666 483.406 280.71 483.286 280.742Z" fill="#CCCCCC"/>
<path d="M451.992 193.121C460.72 193.121 467.796 186.033 467.796 177.29C467.796 168.546 460.72 161.458 451.992 161.458C443.264 161.458 436.188 168.546 436.188 177.29C436.188 186.033 443.264 193.121 451.992 193.121Z" fill="#FFB8B8"/>
<path d="M405.46 393.863L397.899 391.609L402.978 361.322L414.138 364.648L405.46 393.863Z" fill="#FFB8B8"/>
<path d="M405.208 401.78L380.828 394.513L380.92 394.204C381.29 392.956 381.903 391.793 382.722 390.782C383.542 389.771 384.552 388.931 385.695 388.311C386.839 387.691 388.093 387.302 389.386 387.168C390.679 387.033 391.986 387.155 393.232 387.527L393.233 387.527L408.123 391.965L405.208 401.78Z" fill="#2F2E41"/>
<path d="M488.296 393.475H480.407L476.655 362.995L484.437 362.995L488.296 393.475Z" fill="#FFB8B8"/>
<path d="M490.308 401.135L464.872 401.134V400.812C464.872 399.51 465.128 398.22 465.626 397.017C466.123 395.813 466.853 394.72 467.772 393.799C468.691 392.878 469.783 392.148 470.984 391.649C472.185 391.151 473.473 390.894 474.773 390.895H474.773L490.309 390.895L490.308 401.135Z" fill="#2F2E41"/>
<path d="M408.369 384.902H400.448C400.023 384.902 399.604 384.808 399.22 384.628C398.835 384.447 398.495 384.185 398.223 383.858C397.952 383.531 397.755 383.148 397.647 382.737C397.54 382.326 397.523 381.896 397.6 381.477C392.549 379.226 419.745 248.577 426.171 251.109L426.382 250.804L458.739 253.449C473.232 282.506 482.407 330.587 490.991 380.78C491.096 381.196 491.108 381.631 491.025 382.053C490.943 382.475 490.767 382.873 490.512 383.218C490.257 383.564 489.928 383.848 489.55 384.051C489.172 384.254 488.753 384.37 488.325 384.39L479.426 384.823C478.823 384.854 478.226 384.695 477.719 384.369C477.211 384.043 476.819 383.565 476.597 383.003L442.501 297.619C442.433 297.432 442.308 297.272 442.142 297.163C441.977 297.053 441.781 297 441.583 297.011C441.385 297.013 441.194 297.076 441.034 297.193C440.875 297.309 440.756 297.473 440.693 297.66L411.104 382.954C410.906 383.523 410.536 384.016 410.046 384.365C409.556 384.714 408.97 384.902 408.369 384.902Z" fill="#2F2E41"/>
<path d="M459.417 256.006L459.17 255.988L424.719 253.383L430.762 214.883C431.425 210.586 433.458 206.618 436.556 203.573C439.655 200.528 443.654 198.568 447.956 197.986C448.221 197.949 448.487 197.913 448.755 197.877C452.135 197.432 455.572 197.864 458.737 199.133C461.902 200.402 464.688 202.464 466.827 205.122C469.018 207.796 470.485 210.989 471.089 214.394C471.692 217.799 471.411 221.303 470.273 224.568L459.417 256.006Z" fill="#CCCCCC"/>
<path d="M482.68 195.399C471.813 200.379 457.068 199.488 440.212 195.399C442.545 188.999 444.362 182.817 442.301 178.279C441.468 176.566 440.998 174.698 440.92 172.795C440.842 170.891 441.158 168.991 441.848 167.216C443.464 163.344 446.187 160.038 449.674 157.712C453.161 155.387 457.257 154.146 461.446 154.146C467.077 154.146 472.478 156.388 476.46 160.377C480.443 164.366 482.68 169.776 482.68 175.417V195.399Z" fill="#2F2E41"/>
<path d="M446.003 155.594H459.516V172.239H431.204V170.419C431.204 166.487 432.763 162.716 435.539 159.936C438.314 157.156 442.078 155.594 446.003 155.594Z" fill="#2F2E41"/>
<path d="M423.974 295.184C424.672 294.544 425.22 293.758 425.581 292.883C425.943 292.007 426.108 291.062 426.065 290.116C426.023 289.169 425.774 288.243 425.335 287.404C424.897 286.564 424.28 285.831 423.529 285.256L430.722 263.378L419.19 266.511L414.127 286.806C413.246 288.135 412.883 289.742 413.105 291.321C413.328 292.901 414.122 294.344 415.336 295.377C416.549 296.409 418.099 296.96 419.691 296.925C421.284 296.889 422.807 296.27 423.974 295.184Z" fill="#FFB8B8"/>
<path d="M423.936 282.868L415.319 280.837C414.909 280.739 414.555 280.484 414.33 280.128C414.105 279.772 414.028 279.341 414.115 278.929L426.071 223.459L428.481 208.969C428.714 207.572 429.295 206.258 430.171 205.147C431.047 204.036 432.189 203.165 433.491 202.615C434.793 202.066 436.213 201.855 437.618 202.002C439.023 202.15 440.369 202.651 441.529 203.46C442.871 204.395 443.912 205.703 444.521 207.224C445.129 208.744 445.28 210.41 444.955 212.015L436.34 254.567L425.805 281.88C425.687 282.184 425.48 282.444 425.212 282.628C424.944 282.812 424.627 282.91 424.302 282.911C424.179 282.911 424.056 282.897 423.936 282.868Z" fill="#CCCCCC"/>
<path d="M544.357 402H299.203C299.032 402 298.869 401.932 298.748 401.811C298.627 401.69 298.56 401.526 298.56 401.356C298.56 401.185 298.627 401.021 298.748 400.9C298.869 400.779 299.032 400.711 299.203 400.711H544.357C544.527 400.711 544.691 400.779 544.811 400.9C544.932 401.021 545 401.185 545 401.356C545 401.526 544.932 401.69 544.811 401.811C544.691 401.932 544.527 402 544.357 402Z" fill="#A9B1B9"/>
<path d="M86.8873 248.122C86.5424 248.211 86.205 248.327 85.8783 248.468L59.0631 231.14L59.433 223.383L47.8198 221.293L45.8328 234.962C45.6723 236.066 45.8736 237.193 46.4067 238.172C46.9397 239.152 47.7757 239.932 48.789 240.396L81.8149 255.498C81.9792 256.862 82.5542 258.144 83.4634 259.173C84.3727 260.202 85.573 260.929 86.9048 261.257C88.2365 261.586 89.6366 261.501 90.9189 261.013C92.2011 260.525 93.3047 259.658 94.0828 258.526C94.8609 257.395 95.2767 256.053 95.2749 254.679C95.2731 253.305 94.8537 251.964 94.0726 250.834C93.2915 249.705 92.1856 248.841 90.9021 248.356C89.6186 247.872 88.2183 247.79 86.8874 248.122H86.8873Z" fill="#FFB8B8"/>
<path d="M57.9691 230.662L43.5881 228.003C43.1789 227.927 42.7908 227.764 42.4503 227.525C42.1097 227.285 41.8246 226.975 41.6145 226.615C41.4044 226.256 41.2742 225.855 41.2327 225.44C41.1912 225.025 41.2394 224.606 41.3741 224.212L46.0935 210.393C46.4915 208.298 47.7028 206.446 49.4617 205.245C51.2206 204.043 53.3835 203.589 55.4761 203.982C57.5687 204.375 59.4202 205.584 60.6245 207.343C61.8288 209.102 62.2876 211.267 61.9004 213.364L61.3884 227.913C61.3736 228.33 61.2694 228.738 61.0828 229.111C60.8962 229.483 60.6316 229.811 60.3072 230.072C59.9827 230.333 59.6058 230.521 59.2024 230.623C58.7989 230.725 58.3782 230.738 57.9691 230.663V230.662Z" fill="#3F3D56"/>
<path d="M338.023 190.595H92.8692C90.7576 190.592 88.6818 191.141 86.8463 192.187C86.4067 192.437 85.9834 192.714 85.5789 193.018C84.0475 194.156 82.8033 195.637 81.9463 197.343C81.0893 199.048 80.6432 200.932 80.6437 202.842V330.466C80.6466 333.713 81.9356 336.827 84.2277 339.123C86.5198 341.419 89.6277 342.71 92.8692 342.713H338.023C341.264 342.71 344.372 341.419 346.664 339.123C348.956 336.827 350.245 333.713 350.248 330.466V202.842C350.245 199.594 348.956 196.481 346.664 194.185C344.372 191.889 341.264 190.598 338.023 190.595Z" fill="white"/>
<path d="M338.023 190.595H92.8692C90.7576 190.592 88.6818 191.141 86.8463 192.187C86.4067 192.437 85.9834 192.714 85.5789 193.018C84.0475 194.156 82.8033 195.637 81.9463 197.343C81.0893 199.048 80.6432 200.932 80.6437 202.842V330.466C80.6466 333.713 81.9356 336.827 84.2277 339.123C86.5198 341.419 89.6277 342.71 92.8692 342.713H338.023C341.264 342.71 344.372 341.419 346.664 339.123C348.956 336.827 350.245 333.713 350.248 330.466V202.842C350.245 199.594 348.956 196.481 346.664 194.185C344.372 191.889 341.264 190.598 338.023 190.595ZM348.961 330.466C348.957 333.371 347.803 336.156 345.753 338.21C343.702 340.264 340.923 341.42 338.023 341.424H92.8692C89.9694 341.42 87.1895 340.264 85.139 338.21C83.0885 336.156 81.9347 333.371 81.9306 330.466V202.842C81.9398 200.526 82.677 198.272 84.0376 196.4C85.3983 194.528 87.3131 193.132 89.5103 192.412C89.6005 192.387 89.684 192.354 89.7742 192.329C90.7793 192.033 91.8216 191.883 92.8692 191.884H338.023C340.923 191.888 343.702 193.044 345.753 195.098C347.803 197.152 348.957 199.937 348.961 202.842V330.466Z" fill="#3F3D56"/>
<path d="M215.178 266.599C214.201 266.599 213.241 266.351 212.386 265.878L84.3123 195.264C84.1628 195.181 84.0521 195.043 84.0046 194.879C83.9571 194.715 83.9766 194.538 84.0589 194.388C84.1411 194.239 84.2795 194.128 84.4433 194.08C84.6072 194.033 84.7833 194.052 84.9328 194.135L213.007 264.749C213.66 265.11 214.392 265.303 215.139 265.309C215.885 265.316 216.621 265.136 217.28 264.787L347.462 195.992C347.537 195.952 347.619 195.928 347.703 195.92C347.787 195.912 347.872 195.921 347.953 195.946C348.034 195.971 348.109 196.011 348.174 196.065C348.239 196.119 348.293 196.186 348.332 196.261C348.372 196.336 348.396 196.418 348.404 196.502C348.412 196.587 348.403 196.672 348.378 196.753C348.353 196.833 348.312 196.909 348.258 196.974C348.204 197.039 348.137 197.093 348.062 197.132L217.88 265.927C217.048 266.368 216.12 266.599 215.178 266.599Z" fill="#3F3D56"/>
<path d="M121.546 310.484H103.529C102.164 310.484 100.854 309.941 99.8891 308.974C98.9238 308.007 98.3814 306.695 98.3814 305.327C98.3814 303.96 98.9238 302.648 99.8891 301.681C100.854 300.714 102.164 300.171 103.529 300.171H121.546C122.911 300.171 124.22 300.714 125.185 301.681C126.151 302.648 126.693 303.96 126.693 305.327C126.693 306.695 126.151 308.007 125.185 308.974C124.22 309.941 122.911 310.484 121.546 310.484Z" fill="#3F3D56"/>
<path d="M142.779 327.887H103.529C102.164 327.887 100.854 327.344 99.8891 326.377C98.9238 325.41 98.3814 324.098 98.3814 322.731C98.3814 321.363 98.9238 320.052 99.8891 319.085C100.854 318.117 102.164 317.574 103.529 317.574H142.779C144.145 317.574 145.454 318.117 146.419 319.085C147.385 320.052 147.927 321.363 147.927 322.731C147.927 324.098 147.385 325.41 146.419 326.377C145.454 327.344 144.145 327.887 142.779 327.887Z" fill="#3F3D56"/>
<path d="M215.127 287.28C226.498 287.28 235.717 278.045 235.717 266.654C235.717 255.262 226.498 246.027 215.127 246.027C203.755 246.027 194.536 255.262 194.536 266.654C194.536 278.045 203.755 287.28 215.127 287.28Z" fill="#1E7CCF"/>
<path d="M121.79 202.729L212.531 240.654C212.844 240.785 213.195 240.786 213.509 240.659L307.061 202.734C307.338 202.622 307.568 202.417 307.71 202.154C307.852 201.891 307.899 201.586 307.842 201.293C307.785 200.999 307.628 200.735 307.397 200.544C307.167 200.354 306.877 200.25 306.579 200.25H122.285C121.988 200.25 121.699 200.353 121.469 200.542C121.239 200.731 121.082 200.994 121.023 201.286C120.965 201.578 121.009 201.882 121.149 202.145C121.289 202.408 121.515 202.614 121.79 202.729Z" fill="#F2F2F2"/>
<path d="M107.976 193.181C107.897 193.529 107.845 193.882 107.822 194.238L80.1811 210.212L73.4626 206.337L66.3003 215.73L77.5287 223.747C78.4358 224.395 79.5281 224.73 80.6417 224.703C81.7553 224.676 82.8301 224.288 83.7046 223.596L112.207 201.071C113.493 201.548 114.894 201.622 116.223 201.282C117.552 200.942 118.746 200.205 119.647 199.168C120.547 198.132 121.111 196.845 121.264 195.48C121.417 194.114 121.151 192.735 120.502 191.524C119.853 190.314 118.851 189.33 117.631 188.704C116.41 188.077 115.027 187.838 113.668 188.018C112.308 188.198 111.035 188.788 110.018 189.711C109.002 190.633 108.289 191.843 107.976 193.181Z" fill="#FFB8B8"/>
<path d="M79.2571 210.969L70.3236 222.567C70.0694 222.897 69.7472 223.168 69.379 223.362C69.0107 223.556 68.605 223.668 68.1895 223.691C67.774 223.714 67.3586 223.647 66.9713 223.494C66.5841 223.342 66.2343 223.107 65.9456 222.807L55.8323 212.287C54.1545 210.975 53.0646 209.049 52.8016 206.933C52.5386 204.817 53.1239 202.683 54.4292 200.998C55.7345 199.314 57.6534 198.216 59.7651 197.947C61.8768 197.677 64.009 198.258 65.6942 199.56L78.3785 206.665C78.7416 206.869 79.0567 207.149 79.3022 207.485C79.5478 207.822 79.718 208.207 79.8014 208.615C79.8848 209.024 79.8793 209.445 79.7854 209.851C79.6914 210.258 79.5112 210.639 79.2571 210.969H79.2571Z" fill="#3F3D56"/>
<path d="M42.6738 183.275C51.402 183.275 58.4776 176.187 58.4776 167.444C58.4776 158.701 51.402 151.613 42.6738 151.613C33.9457 151.613 26.8701 158.701 26.8701 167.444C26.8701 176.187 33.9457 183.275 42.6738 183.275Z" fill="#FFB8B8"/>
<path d="M57.5917 394.12H65.4804L69.233 363.639L57.5905 363.64L57.5917 394.12Z" fill="#FFB8B8"/>
<path d="M55.5797 391.54L71.1149 391.539H71.1156C72.4157 391.539 73.7031 391.796 74.9043 392.294C76.1055 392.792 77.1969 393.523 78.1162 394.444C79.0356 395.365 79.7648 396.458 80.2623 397.661C80.7599 398.865 81.016 400.154 81.016 401.457V401.779L55.5801 401.78L55.5797 391.54Z" fill="#2F2E41"/>
<path d="M30.567 394.12H38.4556L42.2082 363.639L30.5657 363.64L30.567 394.12Z" fill="#FFB8B8"/>
<path d="M28.5548 391.54L44.0901 391.539H44.0907C45.3909 391.539 46.6783 391.796 47.8794 392.294C49.0806 392.792 50.172 393.523 51.0914 394.444C52.0107 395.365 52.74 396.458 53.2375 397.661C53.7351 398.865 53.9911 400.154 53.9911 401.457V401.779L28.5553 401.78L28.5548 391.54Z" fill="#2F2E41"/>
<path d="M55.2248 382.552L47.1783 320.187C47.1741 320.104 47.1376 320.026 47.0768 319.97C47.0159 319.914 46.9354 319.884 46.8527 319.886C46.8112 319.885 46.7699 319.892 46.7313 319.907C46.6926 319.922 46.6574 319.944 46.6278 319.973C46.5982 320.002 46.5747 320.037 46.5589 320.075C46.5431 320.114 46.5352 320.155 46.5358 320.196L44.2234 381.656C44.1975 382.406 43.881 383.118 43.3409 383.639C42.8008 384.16 42.0796 384.45 41.3298 384.447H31.7748C31.0177 384.452 30.2893 384.157 29.7476 383.627C29.2058 383.097 28.8942 382.375 28.8803 381.617L26.3998 279.217L69.1608 279.645L70.2282 382.374C70.2187 382.782 70.1233 383.184 69.9483 383.553C69.7733 383.921 69.5226 384.249 69.2126 384.514C68.9092 384.776 68.5543 384.971 68.1708 385.087C67.7874 385.202 67.384 385.235 66.9868 385.185L57.7207 385.21C57.0639 385.12 56.4578 384.807 56.0036 384.323C55.5494 383.839 55.2745 383.214 55.2248 382.552Z" fill="#2F2E41"/>
<path d="M25.7664 282.018C25.2881 281.835 24.8669 281.527 24.5458 281.128C24.2248 280.728 24.0155 280.25 23.9392 279.743L23.5123 223.466C21.6225 210.936 19.3873 198.657 30.3237 192.309L31.2873 189.412C31.3923 189.099 31.5904 188.826 31.855 188.629C32.1196 188.432 32.4379 188.321 32.7674 188.311L53.5139 187.717C53.8367 187.706 54.1553 187.793 54.4275 187.968C54.6997 188.142 54.9127 188.395 55.0383 188.693L56.5814 192.3L57.1293 192.613C62.3415 195.589 66.5619 200.039 69.2627 205.406C71.9635 210.772 73.0247 216.818 72.3137 222.785L71.1274 232.818L70.2848 279.702C70.2738 280.217 70.1276 280.72 69.8607 281.159C69.5939 281.599 69.2159 281.961 68.7649 282.208C62.738 285.513 56.0609 286.644 49.7429 286.644C39.1272 286.644 29.5298 283.45 25.7664 282.018Z" fill="#3F3D56"/>
<path d="M42.1593 183.862C39.7808 183.913 37.4184 183.46 35.2272 182.532C33.036 181.603 31.0657 180.221 29.4459 178.476C27.826 176.73 26.5932 174.661 25.8285 172.404C25.0637 170.147 24.7844 167.754 25.0088 165.382C25.2332 163.009 25.9562 160.711 27.1304 158.638C28.3047 156.565 29.9035 154.765 31.8217 153.355C33.74 151.946 35.9344 150.959 38.2606 150.459C40.5868 149.96 42.9922 149.959 45.3188 150.457C48.7942 148.343 52.8348 146.921 56.8846 147.282C60.9344 147.644 64.9395 150.053 66.4539 153.832C67.9683 157.612 66.3414 162.595 62.5758 164.131C60.1617 165.116 57.4355 164.638 54.8592 164.241C52.2829 163.844 49.4725 163.585 47.2303 164.916C44.9881 166.248 43.9802 169.819 45.9883 171.483C47.0527 172.401 47.8129 173.622 48.1674 174.983C48.522 176.344 48.4541 177.781 47.9728 179.102C46.9635 181.717 44.209 183.817 42.1593 183.862Z" fill="#2F2E41"/>
<path d="M101.021 402H0.643447C0.472795 402 0.309131 401.932 0.188461 401.811C0.0677911 401.69 0 401.526 0 401.356C0 401.185 0.0677911 401.021 0.188461 400.9C0.309131 400.779 0.472795 400.711 0.643447 400.711H101.021C101.192 400.711 101.356 400.779 101.476 400.9C101.597 401.021 101.665 401.185 101.665 401.356C101.665 401.526 101.597 401.69 101.476 401.811C101.356 401.932 101.192 402 101.021 402Z" fill="#A9B1B9"/>
</g>
<defs>
<clipPath id="clip0_17_2">
<rect width="545" height="402" fill="white"/>
</clipPath>
</defs>
</svg>
