<svg width="458" height="376" viewBox="0 0 458 376" fill="none" xmlns="http://www.w3.org/2000/svg">
<g clip-path="url(#clip0_17_47)">
<path d="M113.047 343.089L113.979 362.748L113.979 362.749C114.136 366.072 112.969 369.321 110.733 371.782C108.498 374.242 105.378 375.713 102.059 375.871L101.652 375.89L100.127 343.703L113.047 343.089Z" fill="#2F2E41"/>
<path d="M392.218 309.867C382.866 328.139 371.004 345.81 355.996 361.804C355.662 362.166 355.326 362.518 354.986 362.876L319.426 346.021C319.644 345.66 319.882 345.253 320.139 344.809C335.414 318.643 427.622 159.026 424.708 122.875C425.048 125.856 435.977 224.46 392.218 309.867Z" fill="#A9B1B9"/>
<path d="M362.856 365.056C362.358 365.339 361.848 365.617 361.334 365.885L334.658 353.241C335.031 352.976 335.465 352.663 335.965 352.31C344.137 346.436 368.439 328.81 392.218 309.867C417.773 289.51 442.728 267.637 446.434 257.197C445.681 259.591 422.292 332.365 362.856 365.056Z" fill="#A9B1B9"/>
<path d="M44.3744 375.105C67.1112 375.105 85.5429 356.652 85.5429 333.888C85.5429 311.124 67.1112 292.67 44.3744 292.67C21.6377 292.67 3.20587 311.124 3.20587 333.888C3.20587 356.652 21.6377 375.105 44.3744 375.105Z" fill="#1E7CCF"/>
<path d="M60.8651 316.591H27.8836C26.4263 316.593 25.0291 317.173 23.9985 318.205C22.968 319.237 22.3884 320.636 22.3867 322.095V345.681C22.3884 347.14 22.968 348.539 23.9985 349.571C25.029 350.602 26.4263 351.183 27.8836 351.184H60.8652C62.3226 351.183 63.7198 350.602 64.7503 349.571C65.7808 348.539 66.3605 347.14 66.3621 345.681V322.095C66.3605 320.636 65.7808 319.237 64.7503 318.205C63.7197 317.173 62.3225 316.593 60.8651 316.591ZM60.8651 319.736C61.062 319.737 61.2581 319.762 61.4486 319.812L44.3782 333.446L27.4076 319.785C27.5642 319.752 27.7237 319.736 27.8836 319.736H60.8651ZM60.8651 348.04H27.8836C27.259 348.039 26.6603 347.79 26.2186 347.348C25.777 346.906 25.5285 346.306 25.5278 345.681V322.306L43.3903 336.686C43.6685 336.91 44.0145 337.032 44.3714 337.033C44.7283 337.033 45.0748 336.912 45.3538 336.689L63.221 322.42V345.681C63.2203 346.306 62.9719 346.906 62.5302 347.348C62.0886 347.79 61.4897 348.039 60.8651 348.04Z" fill="white"/>
<path d="M146.537 130.255C163.326 130.255 176.936 116.629 176.936 99.821C176.936 83.0125 163.326 69.3865 146.537 69.3865C129.749 69.3865 116.139 83.0125 116.139 99.821C116.139 116.629 129.749 130.255 146.537 130.255Z" fill="#1E7CCF"/>
<path d="M158.714 87.0495H134.361C133.285 87.0507 132.253 87.4792 131.492 88.241C130.731 89.0028 130.303 90.0357 130.302 91.1131V108.529C130.303 109.606 130.731 110.639 131.492 111.401C132.253 112.163 133.285 112.591 134.361 112.593H158.714C159.79 112.591 160.822 112.163 161.583 111.401C162.344 110.639 162.772 109.606 162.773 108.529V91.1131C162.772 90.0357 162.344 89.0028 161.583 88.241C160.822 87.4792 159.79 87.0507 158.714 87.0495ZM158.714 89.3716C158.859 89.3721 159.004 89.391 159.145 89.4278L146.54 99.4945L134.009 89.4073C134.125 89.3835 134.243 89.3715 134.361 89.3716H158.714ZM158.714 110.27H134.361C133.9 110.27 133.457 110.086 133.131 109.76C132.805 109.433 132.622 108.991 132.621 108.529V91.2695L145.811 101.887C146.016 102.052 146.272 102.143 146.535 102.143C146.799 102.144 147.055 102.054 147.261 101.89L160.453 91.353V108.529C160.453 108.991 160.269 109.433 159.943 109.76C159.617 110.086 159.175 110.27 158.714 110.27Z" fill="white"/>
<path d="M41.6381 100.25C54.2887 100.25 64.544 89.9829 64.544 77.3172C64.544 64.6516 54.2887 54.384 41.6381 54.384C28.9875 54.384 18.7321 64.6516 18.7321 77.3172C18.7321 89.9829 28.9875 100.25 41.6381 100.25Z" fill="#1E7CCF"/>
<path d="M50.8135 67.6935H32.4627C31.6519 67.6945 30.8745 68.0174 30.3011 68.5914C29.7277 69.1655 29.4052 69.9438 29.4043 70.7556V83.8789C29.4052 84.6907 29.7277 85.469 30.3011 86.0431C30.8744 86.6171 31.6518 86.9401 32.4627 86.941H50.8135C51.6244 86.9401 52.4018 86.6171 52.9751 86.0431C53.5485 85.469 53.871 84.6907 53.872 83.8789V70.7556C53.871 69.9438 53.5485 69.1654 52.9751 68.5914C52.4018 68.0173 51.6243 67.6944 50.8135 67.6935ZM50.8135 69.4433C50.923 69.4437 51.0321 69.458 51.1381 69.4857L41.6402 77.0712L32.1979 69.4703C32.285 69.4523 32.3737 69.4433 32.4627 69.4433H50.8135ZM50.8135 85.1912H32.4627C32.1152 85.1908 31.782 85.0524 31.5363 84.8064C31.2906 84.5603 31.1524 84.2268 31.152 83.8789V70.8735L41.0906 78.874C41.2453 78.9985 41.4379 79.0666 41.6364 79.067C41.835 79.0674 42.0278 79 42.183 78.876L52.1243 70.9363V83.8788C52.1239 84.2268 51.9856 84.5603 51.7399 84.8064C51.4942 85.0524 51.161 85.1908 50.8135 85.1912Z" fill="white"/>
<path d="M203.253 274.38L212.465 274.456C213.397 274.464 214.319 274.268 215.168 273.882C216.017 273.496 216.771 272.929 217.379 272.222C217.986 271.514 218.432 270.682 218.685 269.784C218.939 268.886 218.993 267.943 218.845 267.022C218.686 266.03 218.296 265.09 217.708 264.276C217.12 263.463 216.349 262.799 215.457 262.338C214.566 261.878 213.579 261.633 212.576 261.624C211.572 261.615 210.581 261.841 209.682 262.286L200.995 266.578L171.283 273.211L158.554 260.182L151.243 272.238L168.419 285.525L203.253 274.38Z" fill="#FFB8B8"/>
<path d="M201.527 369.664L190.674 371.754C183.261 348.358 175.229 326.203 175.23 309.067C164.739 320.757 151.729 327.444 136.41 329.545L138.08 303.634L150.602 296.948L169.768 288.091C171.446 287.316 173.256 286.868 175.102 286.77C178.69 286.581 182.221 287.728 185.015 289.989C187.809 292.251 189.669 295.467 190.237 299.019L201.527 369.664Z" fill="#2F2E41"/>
<path d="M149.559 326.41L145.233 329.702C143.373 331.117 141.176 332.021 138.859 332.323C136.543 332.625 134.187 332.316 132.027 331.425C119.638 322.128 110.836 324.871 102.859 338.904C93.2899 328.092 90.9292 312.476 99.4688 296.321L146.845 297.365L156.446 294.44L149.559 326.41Z" fill="#2F2E41"/>
<path d="M133.781 374.83C131.066 375.666 128.144 375.52 125.526 374.416C122.909 373.311 120.763 371.32 119.464 368.791C115.207 365.037 111.614 359.661 108.498 353.124C106.263 348.329 104.343 343.392 102.752 338.346C100.596 331.679 104.201 324.396 110.911 322.401C111.11 322.342 111.312 322.286 111.517 322.233C120.474 319.931 129.673 325.103 132.734 333.84L141.638 359.245C142.164 360.745 142.389 362.335 142.301 363.923C142.214 365.511 141.814 367.066 141.126 368.5C140.438 369.934 139.475 371.217 138.291 372.278C137.108 373.339 135.727 374.156 134.228 374.683C134.08 374.735 133.931 374.784 133.781 374.83Z" fill="#2F2E41"/>
<path opacity="0.2" d="M106.982 350.231C106.982 350.231 117.418 361.933 119.505 368.619L106.982 350.231Z" fill="black"/>
<path d="M66.5098 295.007L63.0173 303.542C62.6639 304.405 62.5029 305.335 62.5455 306.268C62.5881 307.2 62.8334 308.112 63.2641 308.939C63.6948 309.767 64.3006 310.49 65.0393 311.059C65.7781 311.629 66.6319 312.029 67.5413 312.234C68.52 312.455 69.5367 312.442 70.5096 312.197C71.4825 311.952 72.3845 311.482 73.1428 310.825C73.9012 310.167 74.4948 309.341 74.876 308.412C75.2571 307.483 75.415 306.477 75.3371 305.476L74.5846 295.807L79.4711 265.724L96.2826 258.733L87.8185 247.457L69.1164 258.488L66.5098 295.007Z" fill="#FFB8B8"/>
<path d="M149.976 296.321C137.983 316.49 114.074 324.3 93.5956 308.506C97.1979 296.656 108.828 263.906 101.315 262.652C85.3619 269.35 85.3388 253.624 82.3548 245.753L118.67 232.38L138.288 237.813L142.31 239.242C144.927 240.171 147.197 241.881 148.815 244.142C150.432 246.402 151.32 249.103 151.358 251.884C143.117 263.803 137.016 276.519 149.976 296.321Z" fill="#1E7CCF"/>
<path d="M154.568 280.022L140.167 268.112L144.967 240.321L164.586 261.216L154.568 280.022Z" fill="#1E7CCF"/>
<path d="M393.522 89.1045H391.464V32.6649C391.464 24.0016 388.026 15.6932 381.908 9.56732C375.789 3.44147 367.491 0 358.838 0H239.404C230.751 0 222.453 3.44147 216.334 9.56732C210.215 15.6932 206.778 24.0016 206.778 32.6649V342.298C206.778 350.961 210.215 359.27 216.334 365.395C222.453 371.521 230.751 374.963 239.404 374.963H358.837C367.49 374.963 375.789 371.521 381.907 365.395C388.026 359.27 391.463 350.961 391.463 342.298V129.279H393.522L393.522 89.1045Z" fill="#3F3D56"/>
<path d="M360.154 8.4975H344.564C345.281 10.2574 345.555 12.167 345.362 14.0579C345.168 15.9488 344.513 17.763 343.454 19.3407C342.395 20.9184 340.965 22.2111 339.289 23.1049C337.614 23.9987 335.744 24.4662 333.846 24.4662H265.424C263.526 24.466 261.657 23.9985 259.981 23.1047C258.306 22.2109 256.876 20.9184 255.817 19.3409C254.758 17.7635 254.103 15.9495 253.909 14.0589C253.716 12.1682 253.989 10.2589 254.706 8.49905H240.143C233.681 8.49905 227.483 11.0692 222.914 15.644C218.345 20.2189 215.777 26.4238 215.777 32.8936V342.071C215.777 348.54 218.345 354.745 222.914 359.32C227.483 363.895 233.681 366.465 240.143 366.465H360.149C366.611 366.465 372.809 363.895 377.378 359.32C381.948 354.745 384.515 348.54 384.515 342.071V342.071V32.8921C384.515 26.4222 381.948 20.2174 377.378 15.6425C372.809 11.0676 366.611 8.49748 360.149 8.49748H360.154L360.154 8.4975Z" fill="white"/>
<path d="M300.355 349.187C307.744 349.187 313.734 343.19 313.734 335.792C313.734 328.393 307.744 322.396 300.355 322.396C292.965 322.396 286.975 328.393 286.975 335.792C286.975 343.19 292.965 349.187 300.355 349.187Z" fill="#CACACA"/>
<path d="M246.076 211.908C244.811 211.908 243.782 213.085 243.782 214.53C243.782 215.975 244.811 217.151 246.076 217.151H354.217C355.481 217.151 356.51 215.975 356.51 214.53C356.51 213.085 355.481 211.908 354.217 211.908H246.076Z" fill="#CACACA"/>
<path d="M246.076 273.735C244.811 273.735 243.782 274.911 243.782 276.356C243.782 277.801 244.811 278.978 246.076 278.978H354.217C355.481 278.978 356.51 277.801 356.51 276.356C356.51 274.911 355.481 273.735 354.217 273.735H246.076Z" fill="#CACACA"/>
<path d="M246.076 227.637C244.811 227.637 243.782 228.813 243.782 230.258C243.782 231.703 244.811 232.88 246.076 232.88H292.609C293.874 232.88 294.903 231.703 294.903 230.258C294.903 228.813 293.874 227.637 292.609 227.637H246.076Z" fill="#CACACA"/>
<path d="M246.076 242.629C244.811 242.629 243.782 243.805 243.782 245.25C243.782 246.695 244.811 247.872 246.076 247.872H354.217C355.481 247.872 356.51 246.695 356.51 245.25C356.51 243.805 355.481 242.629 354.217 242.629H246.076Z" fill="#CACACA"/>
<path d="M246.076 258.357C244.811 258.357 243.782 259.533 243.782 260.978C243.782 262.424 244.811 263.6 246.076 263.6H292.609C293.874 263.6 294.903 262.424 294.903 260.978C294.903 259.533 293.874 258.357 292.609 258.357H246.076Z" fill="#CACACA"/>
<path d="M266.491 92.5473H333.808C334.552 92.5481 335.265 92.8443 335.791 93.3707C336.316 93.8972 336.612 94.611 336.613 95.3555V165.547C336.612 166.292 336.316 167.006 335.791 167.532C335.265 168.058 334.552 168.355 333.808 168.355H266.491C265.747 168.355 265.034 168.058 264.508 167.532C263.983 167.006 263.687 166.292 263.686 165.547V95.3555C263.687 94.6109 263.983 93.8972 264.508 93.3707C265.034 92.8443 265.747 92.5481 266.491 92.5473Z" fill="#1E7CCF"/>
<path d="M319.464 153.881C319.715 153.881 319.963 153.832 320.194 153.737C320.425 153.641 320.636 153.501 320.813 153.324C320.99 153.147 321.131 152.937 321.227 152.705C321.323 152.474 321.372 152.226 321.372 151.975C321.373 151.724 321.323 151.476 321.228 151.245C321.132 151.013 320.991 150.803 320.814 150.626C320.637 150.448 320.427 150.308 320.196 150.212C319.964 150.116 319.716 150.067 319.466 150.068H280.835C280.584 150.067 280.337 150.116 280.105 150.212C279.874 150.307 279.663 150.447 279.486 150.624C279.309 150.801 279.168 151.012 279.072 151.243C278.976 151.474 278.927 151.723 278.927 151.973C278.926 152.224 278.976 152.472 279.071 152.704C279.167 152.935 279.308 153.146 279.485 153.323C279.662 153.5 279.872 153.64 280.103 153.736C280.335 153.832 280.583 153.881 280.833 153.881H319.464Z" fill="white"/>
<path d="M319.464 142.648C319.969 142.648 320.454 142.447 320.811 142.089C321.168 141.732 321.369 141.247 321.369 140.741C321.369 140.236 321.168 139.751 320.811 139.393C320.454 139.036 319.969 138.835 319.464 138.835H280.835C280.33 138.834 279.845 139.035 279.488 139.392C279.131 139.75 278.93 140.235 278.93 140.74C278.929 141.246 279.13 141.731 279.487 142.089C279.844 142.446 280.328 142.648 280.833 142.648H319.464Z" fill="white"/>
<path d="M300.149 107.022C302.52 107.022 304.838 107.726 306.809 109.045C308.78 110.363 310.316 112.237 311.223 114.43C312.131 116.623 312.368 119.036 311.906 121.364C311.443 123.692 310.301 125.83 308.625 127.509C306.949 129.187 304.813 130.33 302.488 130.793C300.163 131.256 297.753 131.018 295.562 130.11C293.372 129.202 291.5 127.664 290.183 125.69C288.866 123.717 288.163 121.396 288.163 119.023C288.166 115.841 289.43 112.791 291.678 110.541C293.925 108.291 296.971 107.026 300.149 107.022Z" fill="white"/>
<path d="M147.21 228.742H111.626C110.894 228.741 110.192 228.449 109.674 227.931C109.157 227.413 108.865 226.71 108.865 225.978V210.621C108.865 205.163 111.03 199.929 114.885 196.07C118.739 192.211 123.967 190.043 129.418 190.043C134.869 190.043 140.097 192.211 143.951 196.07C147.806 199.929 149.971 205.163 149.971 210.621V225.978C149.971 226.71 149.679 227.413 149.162 227.931C148.644 228.449 147.942 228.741 147.21 228.742Z" fill="#2F2E41"/>
<path d="M146.569 219.966C150.561 212.655 147.877 203.488 140.575 199.492C133.272 195.495 124.116 198.182 120.124 205.493C116.133 212.804 118.816 221.971 126.119 225.968C133.421 229.965 142.577 227.278 146.569 219.966Z" fill="#FFB6B6"/>
<path d="M154.834 212.157H133.074L132.851 209.029L131.736 212.157H128.385L127.943 205.958L125.732 212.157H119.249V211.849C119.254 207.534 120.968 203.396 124.016 200.345C127.064 197.293 131.197 195.576 135.507 195.571H138.575C142.886 195.576 147.018 197.293 150.066 200.345C153.114 203.396 154.829 207.534 154.834 211.849V212.157Z" fill="#2F2E41"/>
<path d="M132.896 231.608C132.733 231.608 132.569 231.594 132.408 231.565L116.475 228.751V202.386H134.014L133.58 202.893C127.538 209.948 132.09 221.387 135.341 227.577C135.58 228.031 135.687 228.543 135.649 229.054C135.611 229.566 135.429 230.056 135.125 230.469C134.87 230.821 134.535 231.109 134.147 231.307C133.76 231.505 133.331 231.608 132.896 231.608Z" fill="#2F2E41"/>
<path d="M185.944 361.774L205.602 361.773H205.603C208.925 361.773 212.112 363.095 214.461 365.447C216.81 367.799 218.13 370.989 218.13 374.315V374.723L185.945 374.724L185.944 361.774Z" fill="#2F2E41"/>
<path d="M457.485 376H0.514607C0.378125 376 0.247232 375.946 0.150724 375.849C0.0542169 375.753 0 375.621 0 375.485C0 375.348 0.0542169 375.217 0.150724 375.12C0.247232 375.024 0.378125 374.97 0.514607 374.97H457.485C457.622 374.97 457.753 375.024 457.849 375.12C457.946 375.217 458 375.348 458 375.485C458 375.621 457.946 375.753 457.849 375.849C457.753 375.946 457.622 376 457.485 376Z" fill="#A9B1B9"/>
</g>
<defs>
<clipPath id="clip0_17_47">
<rect width="458" height="376" fill="white"/>
</clipPath>
</defs>
</svg>
