<svg width="1435" height="689" viewBox="0 0 1435 689" fill="none" xmlns="http://www.w3.org/2000/svg">
<path opacity="0.3" d="M655.578 548.469L436.584 293.333C423.371 277.835 406.949 263.996 387.973 252.278L655.578 548.469ZM1 1L85.6523 36.57C115.985 49.3154 149.782 57.0769 184.672 59.3102L766.291 96.5356L1 1ZM324.638 138.443L1384.22 573.164L324.638 138.443ZM1086.59 547.878L668.794 372.327C666.666 371.433 664.284 373.168 665.516 374.716L756.595 489.211C763.346 497.696 773.035 504.741 784.705 509.643L1086.59 547.878ZM696.014 223.196L661.129 208.334L696.014 223.196ZM698.115 161.888L699.631 172.296L698.115 161.888ZM727.505 184.162L699.786 172.352C699.671 172.304 699.524 172.332 699.457 172.415L696.901 175.594C696.834 175.677 696.872 175.784 696.986 175.833L724.706 187.642L727.505 184.162ZM724.993 187.872L698.396 176.542C698.281 176.494 698.134 176.522 698.067 176.605L695.511 179.784C695.444 179.867 695.482 179.974 695.597 180.023L721.439 191.033L724.993 187.872ZM721.845 191.201L696.977 180.606C696.862 180.557 696.715 180.585 696.649 180.668L694.092 183.847C694.025 183.931 694.063 184.037 694.178 184.086L719.046 194.681L721.845 191.201ZM718.913 194.848L695.712 184.964C695.598 184.915 695.451 184.943 695.384 185.026L692.827 188.205C692.761 188.288 692.799 188.395 692.913 188.444L716.115 198.328L718.913 194.848ZM716.052 198.412L694.729 189.33C694.615 189.281 694.468 189.309 694.401 189.392L691.844 192.571C691.778 192.655 691.816 192.762 691.93 192.81L713.247 201.892L716.052 198.412ZM713.184 201.972L693.864 193.744C693.749 193.695 693.602 193.723 693.535 193.806L690.979 196.985C690.912 197.068 690.95 197.175 691.065 197.224L710.378 205.453L713.184 201.972ZM707.454 209.099L691.633 202.36C691.518 202.312 691.371 202.34 691.304 202.423L688.748 205.602C688.68 205.685 688.719 205.792 688.834 205.841L704.655 212.579L707.454 209.099ZM704.655 212.58L690.895 206.72C690.781 206.671 690.634 206.699 690.567 206.783L688.01 209.961C687.943 210.044 687.982 210.152 688.096 210.2L701.85 216.061L704.655 212.58ZM701.787 216.143L689.505 210.911C689.391 210.862 689.244 210.89 689.176 210.974L686.62 214.152C686.553 214.235 686.591 214.342 686.706 214.391L698.987 219.623L701.787 216.143ZM698.923 219.705L688.017 215.059C687.903 215.01 687.756 215.038 687.689 215.122L685.132 218.3C685.065 218.383 685.103 218.49 685.218 218.539L696.124 223.185L698.923 219.705ZM710.315 205.536L692.44 197.92C692.325 197.871 692.178 197.899 692.111 197.983L689.555 201.161C689.488 201.245 689.526 201.352 689.641 201.401L707.517 209.016L710.315 205.536ZM406.596 392.502L386.203 367.101L406.596 392.502ZM322.355 393.985L336.656 395.097L322.355 393.985ZM352.932 415.396L336.728 395.211C336.661 395.128 336.7 395.021 336.814 394.972L341.184 393.114C341.299 393.065 341.446 393.093 341.512 393.177L357.717 413.361L352.932 415.396ZM358.034 413.565L342.488 394.199C342.421 394.116 342.459 394.008 342.574 393.96L346.944 392.102C347.059 392.053 347.206 392.081 347.272 392.165L362.38 410.984L358.034 413.565ZM362.612 411.278L348.074 393.169C348.007 393.086 348.046 392.979 348.161 392.93L352.53 391.072C352.644 391.023 352.791 391.051 352.858 391.135L367.396 409.243L362.612 411.278ZM367.625 409.148L354.063 392.254C353.996 392.171 354.035 392.064 354.149 392.015L358.519 390.157C358.634 390.108 358.781 390.136 358.847 390.22L372.41 407.114L367.625 409.148ZM372.522 407.064L360.06 391.541C359.992 391.458 360.032 391.351 360.146 391.302L364.515 389.444C364.63 389.395 364.777 389.424 364.844 389.507L377.306 405.03L372.522 407.064ZM377.423 404.98L366.131 390.915C366.065 390.832 366.104 390.724 366.218 390.676L370.587 388.818C370.702 388.769 370.849 388.797 370.916 388.881L382.207 402.945L377.423 404.98ZM387.218 400.812L377.971 389.294C377.904 389.211 377.943 389.104 378.057 389.055L382.427 387.197C382.542 387.148 382.689 387.176 382.756 387.26L392.002 398.778L387.218 400.812ZM392.001 398.781L383.96 388.764C383.893 388.681 383.932 388.574 384.046 388.525L388.416 386.667C388.53 386.618 388.677 386.646 388.744 386.73L396.786 396.747L392.001 398.781ZM396.902 396.697L389.724 387.755C389.657 387.671 389.695 387.564 389.81 387.516L394.18 385.657C394.294 385.609 394.441 385.637 394.508 385.72L401.687 394.663L396.902 396.697ZM401.796 394.613L395.421 386.672C395.354 386.589 395.393 386.482 395.507 386.433L399.877 384.575C399.991 384.527 400.138 384.555 400.205 384.638L406.58 392.579L401.796 394.613ZM382.321 402.898L371.872 389.881C371.805 389.798 371.843 389.691 371.958 389.642L376.328 387.784C376.442 387.735 376.589 387.763 376.656 387.846L387.106 400.863L382.321 402.898ZM846.823 496.793L925.39 529.808L846.823 496.793ZM937.941 535.078L1011.93 566.168L937.941 535.078ZM930.784 550.867L945.287 522.12C945.336 522.018 945.504 521.972 945.63 522.028L1007.99 548.23C1008.06 548.255 1008.1 548.301 1008.1 548.352L1016.7 586.967L930.784 550.867ZM821.057 504.653L868.225 489.478C868.301 489.456 868.378 489.459 868.448 489.487L934.953 517.43C935.065 517.481 935.107 517.583 935.044 517.664L915.287 544.248L821.057 504.653ZM942.201 491.891L930.987 506.027C930.917 506.111 930.959 506.217 931.071 506.266L958.67 517.863C958.81 517.919 958.992 517.863 959.027 517.746L963.694 501.089L942.201 491.891ZM699.487 542.415L797.123 511.493C797.193 511.473 797.277 511.473 797.34 511.503L856.289 536.269C856.429 536.331 856.45 536.473 856.331 536.549L788.819 581.458L699.487 542.415ZM792.128 513.413L852.357 538.719L792.128 513.413ZM868.134 545.348L904.136 560.475L868.134 545.348ZM812.955 589.875L872.121 542.868C872.198 542.807 872.324 542.792 872.422 542.833L906.053 556.967C906.165 557.013 906.206 557.12 906.144 557.201L865.398 611.917L812.955 589.875ZM822.169 558.622L747.758 527.354L822.848 558.907L822.169 558.622ZM1034.81 681.057L1023.31 606.316C1023.3 606.26 1023.25 606.214 1023.19 606.184L983.982 589.712C983.828 589.646 983.633 589.722 983.626 589.854L978.721 659.529L1034.81 681.057ZM1023.77 610.919L982.982 593.393L1023.77 610.919ZM1028.95 644.626L981.065 624.503L1028.95 644.626ZM842.311 567.084L885.204 585.104L842.311 567.084ZM960.601 584.203L922.822 568.327L960.601 584.203ZM947.302 646.332L961.476 580.384C961.49 580.313 961.441 580.241 961.357 580.206L925.11 564.976C924.984 564.92 924.823 564.961 924.767 565.063L893.474 623.714L947.302 646.332ZM954.123 614.066L908.438 594.87L954.123 614.066ZM785.852 508.529L792.156 500.584C792.191 500.544 792.24 500.515 792.303 500.503L804.714 498.008C804.777 497.996 804.847 498.002 804.903 498.025L1031.86 593.393C1031.91 593.414 1031.95 593.444 1031.97 593.48L1037.39 603.485C1037.42 603.536 1037.41 603.592 1037.38 603.638L1030.51 612.288L785.852 508.529ZM861.564 487.356L865.783 482.043C865.846 481.959 865.993 481.93 866.112 481.979L1020.03 546.657C1020.15 546.702 1020.19 546.809 1020.12 546.891L1014.79 553.607L861.564 487.356ZM963.966 501.592L1004.11 518.459C1004.17 518.484 1004.21 518.525 1004.22 518.571L1012.41 543.118C1012.46 543.265 1012.24 543.388 1012.06 543.311L873.353 485.024C873.185 484.954 873.192 484.776 873.367 484.715L900.896 475.178C900.966 475.153 901.05 475.156 901.12 475.185L942.264 492.472L963.966 501.592ZM762.863 258.492L761.352 260.399C761.289 260.482 761.324 260.589 761.443 260.637L814.746 283.035C814.858 283.083 815.005 283.055 815.075 282.971L816.866 280.711L762.863 258.492ZM790.708 286.063L789.196 287.97C789.126 288.054 789.168 288.161 789.28 288.208L832.684 306.446C832.803 306.495 832.95 306.466 833.013 306.382L834.804 304.123L790.708 286.063ZM777.751 254.31L788.469 269.181L777.751 254.31ZM800.607 280.145L810.891 294.349L800.607 280.145ZM754.167 184.068L723.223 223.072L754.167 184.068ZM720.39 222.157L812.396 316.875C812.438 316.916 812.493 316.951 812.549 316.976L843.136 329.826C843.542 329.999 844.011 329.681 843.808 329.371L836.112 317.843C835.91 317.533 836.378 317.216 836.784 317.388L847.957 322.08C848.048 322.119 848.118 322.18 848.16 322.252L855.072 334.758C855.114 334.831 855.184 334.891 855.282 334.93L876.347 343.783L720.39 222.157ZM774.246 210.142L939.543 279.599C939.774 279.695 940.068 279.638 940.201 279.471L1029.03 167.497L774.246 210.142ZM880.992 220.571L912.944 337.894L880.992 220.571ZM811.304 191.201L883.56 326.216L811.304 191.201ZM915.644 344.802L920.563 359.103C920.597 359.21 920.563 359.323 920.472 359.409L917.771 361.814L915.644 344.802ZM917.61 361.753L910.698 343.073C910.642 342.921 910.866 342.797 911.048 342.877L929.79 350.995C929.909 351.046 929.986 351.132 930.014 351.23L934.562 368.68L917.61 361.753ZM853.575 314.128L946.651 351.392C946.882 351.484 947.169 351.425 947.295 351.261L1050.32 221.399L853.575 314.128ZM1004.04 372.292L996.365 388.652C996.295 388.81 996.386 388.984 996.582 389.068L1021.71 399.624L1004.04 372.292ZM1021.71 399.624L1034.99 385.273C1035.13 385.121 1035.41 385.074 1035.63 385.166L1061.79 396.158L1021.71 399.624ZM1021.71 399.624L1042.85 408.511L1021.71 399.624ZM1061.79 396.158L1089.46 407.782C1089.77 407.916 1089.78 408.248 1089.46 408.385L1066.7 418.325C1066.56 418.39 1066.37 418.391 1066.22 418.328L1042.85 408.511L1061.79 396.158ZM1061.79 396.158L1042.85 408.511L1061.79 396.158ZM1001.73 371.323L993.301 389.61C993.231 389.768 993.322 389.941 993.518 390.024L1067.07 420.929C1067.22 420.99 1067.39 420.991 1067.54 420.933L1094.92 410.093L1001.73 371.323ZM1018.55 349.476L1009.67 366.554C1009.58 366.714 1009.67 366.895 1009.87 366.981L1096.77 403.493C1096.91 403.555 1097.1 403.555 1097.25 403.493L1122.27 393.057L1018.55 349.476ZM1054.03 364.236L1039.81 379.562L1054.03 364.236ZM1088.41 378.834L1068.63 391.82L1088.41 378.834ZM1009.37 351.172L995.953 368.081C995.827 368.248 995.904 368.462 996.135 368.559L1100.41 412.375C1100.64 412.471 1100.93 412.414 1101.06 412.246L1107.24 404.465L1009.37 351.172ZM1011.28 346.423L1002.87 367.029C1002.81 367.184 1002.9 367.35 1003.09 367.431L1098.52 407.531C1098.66 407.59 1098.84 407.594 1098.98 407.539L1129.38 396.045L1011.28 346.423ZM1135.06 397.982L1135.27 392.521L1135.06 397.982ZM1020.5 325.78L1006.22 343.775C1006.09 343.942 1006.17 344.156 1006.4 344.252L1134.97 398.278C1135.2 398.375 1135.5 398.317 1135.63 398.15L1141.93 390.216L1020.5 325.78ZM1129.8 351.258L1100.39 371.098L1129.8 351.258ZM1026.76 308.53L1014.42 341.591C1014.36 341.744 1014.45 341.906 1014.64 341.985L1135.13 392.616C1135.28 392.677 1135.46 392.679 1135.6 392.621L1182.66 374.038L1026.76 308.53ZM1211.65 83.4647L1040.31 299.448C1040.18 299.615 1040.26 299.829 1040.49 299.925L1187.07 361.52C1187.3 361.617 1187.6 361.559 1187.73 361.392L1433 52.2093L1211.65 83.4647ZM1217.76 61.4909L1027.06 301.879C1026.93 302.046 1027.02 302.26 1027.24 302.357L1190.8 371.083C1191.03 371.18 1191.33 371.122 1191.46 370.955L1382.16 130.567L1217.76 61.4909ZM1027.79 302.629L1022.46 305.528C1022.19 305.679 1022.22 305.985 1022.51 306.111L1190.77 376.813C1191.1 376.95 1191.51 376.772 1191.49 376.499L1191.25 371.285L1027.79 302.629ZM1036.31 312.011L1023.48 338.574C1023.41 338.732 1023.5 338.909 1023.7 338.993L1136.13 386.237C1136.28 386.299 1136.46 386.3 1136.61 386.238L1175.21 370.376L1036.31 312.011ZM1083.56 332.169L1063.24 355.152L1083.56 332.169ZM1006.15 343.824L1014.39 341.803L1006.15 343.824ZM996.981 149.631L932.477 230.95C932.344 231.117 932.05 231.174 931.819 231.078L728.449 145.623C728.218 145.526 728.134 145.313 728.267 145.146L792.778 63.827L996.981 149.631ZM735.256 159.306L876.879 344.443C876.921 344.499 876.984 344.545 877.061 344.576L949.135 374.861C949.365 374.958 949.659 374.901 949.792 374.733L1036.35 265.624C1036.37 265.594 1036.39 265.561 1036.4 265.528L1075.39 142.316L735.256 159.306ZM735.095 159.216L935.989 243.63C936.22 243.726 936.514 243.669 936.647 243.502L1018.1 140.821L735.095 159.216ZM936.22 243.311L949.519 375.06L936.22 243.311ZM814.243 262.804L942.803 316.826C943.034 316.923 943.335 316.864 943.461 316.694L1046.06 183.2L814.243 262.804ZM833.174 287.191L944.608 334.015C944.839 334.111 945.133 334.054 945.266 333.887L1051.67 199.757L833.174 287.191ZM752.306 182.295L720.809 221.997C720.676 222.165 720.753 222.378 720.984 222.475L813.004 261.138L752.306 182.295ZM608.005 562.471L798.088 504.618C798.151 504.597 798.235 504.601 798.298 504.628L1027.51 600.944C1027.58 600.97 1027.62 601.01 1027.63 601.061L1049.6 689L608.005 562.471ZM737.908 178.873L733.346 176.931C733.235 176.883 733.088 176.911 733.018 176.994L671.453 253.541C671.386 253.624 671.239 253.652 671.125 253.603L636.724 238.948C636.61 238.899 636.572 238.793 636.638 238.709L698.204 162.162C698.27 162.079 698.232 161.972 698.117 161.924L693.941 160.144C693.827 160.096 693.679 160.124 693.613 160.207L629.472 239.955C629.405 240.038 629.444 240.146 629.558 240.194L673.523 258.924C673.637 258.972 673.784 258.944 673.851 258.861L737.992 179.113C738.062 179.029 738.02 178.922 737.908 178.873ZM345.659 422.956L342.995 419.636C342.928 419.553 342.967 419.446 343.081 419.398L448.307 374.653C448.422 374.604 448.46 374.497 448.394 374.414L428.286 349.366C428.219 349.283 428.072 349.255 427.957 349.304L322.73 394.048C322.616 394.096 322.469 394.068 322.402 393.985L319.961 390.944C319.894 390.861 319.933 390.754 320.047 390.705L429.675 344.089C429.79 344.04 429.937 344.068 430.004 344.152L455.703 376.164C455.769 376.247 455.731 376.354 455.616 376.403L345.988 423.019C345.874 423.068 345.727 423.04 345.659 422.956ZM813.214 501.189L867.756 485.654C867.826 485.634 867.903 485.639 867.966 485.665L1012.41 546.361C1012.47 546.387 1012.51 546.427 1012.53 546.473L1026.2 590.669C1026.24 590.822 1026.02 590.939 1025.84 590.863L813.179 501.503C813.004 501.43 813.025 501.243 813.214 501.189ZM808.338 306.914L814.334 314.062C814.354 314.087 814.382 314.107 814.417 314.122L832.495 321.719C832.705 321.808 832.943 321.64 832.831 321.485L827.766 314.727C827.745 314.699 827.71 314.675 827.675 314.659L808.667 306.671C808.45 306.581 808.212 306.76 808.338 306.914ZM776.848 270.545L790.813 286.018C790.834 286.04 790.862 286.059 790.897 286.073L834.902 304.564C835.112 304.652 835.343 304.487 835.231 304.332L825.345 290.572C825.324 290.542 825.289 290.518 825.247 290.501L777.17 270.297C776.946 270.205 776.708 270.391 776.848 270.545ZM762.814 258.357L747.598 242.031C747.458 241.877 747.695 241.689 747.919 241.781L805.812 266.11C805.847 266.125 805.882 266.147 805.903 266.174L817.489 280.974C817.615 281.129 817.377 281.302 817.16 281.212L762.898 258.41C762.863 258.397 762.835 258.379 762.814 258.357ZM871.1 327.248L902.352 340.379C902.45 340.42 902.52 340.484 902.562 340.56L905.465 346.262C905.542 346.416 905.311 346.556 905.115 346.474L875.899 334.197C875.822 334.166 875.759 334.119 875.717 334.063L870.771 327.483C870.652 327.328 870.89 327.159 871.1 327.248Z" stroke="#4E66FF"/>
</svg>
