<svg width="555" height="410" viewBox="0 0 555 410" fill="none" xmlns="http://www.w3.org/2000/svg">
<g clip-path="url(#clip0_3_146)">
<path d="M78.3133 207.904L77.1943 207.06C83.3067 198.938 90.9142 188.83 92.0861 177.426C93.2413 166.185 87.8571 154.108 78.0346 145.907C69.6752 138.927 58.1672 134.516 44.7547 133.15C42.1091 132.881 39.3892 132.723 36.7586 132.57C30.4004 132.201 23.8255 131.82 17.6413 129.837C9.12358 127.107 0.366679 119.987 0.00445769 110.236C-0.0782982 107.108 0.716662 104.02 2.29908 101.322C3.88151 98.6244 6.18798 96.4245 8.95662 94.9727L9.61106 96.2132C7.07445 97.5429 4.961 99.5576 3.51053 102.029C2.06007 104.5 1.33066 107.329 1.40512 110.194C1.74177 119.255 10.017 125.92 18.0687 128.502C24.0838 130.43 30.5685 130.806 36.8396 131.17C39.4851 131.324 42.2208 131.482 44.8967 131.755C58.5883 133.149 70.3575 137.67 78.9321 144.83C89.1078 153.326 94.6824 165.871 93.4801 177.57C92.2682 189.362 84.5308 199.643 78.3133 207.904Z" fill="#D1D1D1"/>
<path d="M20.107 97.993C26.2641 95.1708 30.1452 90.4562 28.7757 87.4628C27.4062 84.4694 21.3047 84.3306 15.1475 87.1528C8.9904 89.9751 5.10926 94.6896 6.47877 97.683C7.84828 100.676 13.9498 100.815 20.107 97.993Z" fill="#D1D1D1"/>
<path d="M45.3627 129.614C51.5198 126.792 55.4009 122.077 54.0314 119.084C52.6619 116.09 46.5604 115.951 40.4032 118.774C34.2461 121.596 30.365 126.31 31.7345 129.304C33.104 132.297 39.2055 132.436 45.3627 129.614Z" fill="#D1D1D1"/>
<path d="M27.6024 144.697C33.7596 141.875 37.6407 137.16 36.2712 134.167C34.9017 131.173 28.8002 131.034 22.643 133.857C16.4859 136.679 12.6047 141.393 13.9743 144.387C15.3438 147.38 21.4453 147.519 27.6024 144.697Z" fill="#D1D1D1"/>
<path d="M73.1666 160.067C79.3238 157.244 83.2049 152.53 81.8354 149.536C80.4659 146.543 74.3643 146.404 68.2072 149.226C62.0501 152.049 58.1689 156.763 59.5384 159.757C60.9079 162.75 67.0095 162.889 73.1666 160.067Z" fill="#D1D1D1"/>
<path d="M95.4636 149.846C101.621 147.024 105.502 142.31 104.132 139.316C102.763 136.323 96.6613 136.184 90.5042 139.006C84.347 141.828 80.4659 146.543 81.8354 149.536C83.2049 152.53 89.3065 152.669 95.4636 149.846Z" fill="#D1D1D1"/>
<path d="M517.044 410L517.655 408.738C508.512 404.305 497.132 398.789 490.888 389.179C484.733 379.706 484.014 366.5 489.012 354.715C493.265 344.685 501.491 335.501 512.801 328.156C515.032 326.708 517.38 325.324 519.651 323.986C525.139 320.752 530.814 317.407 535.412 312.817C541.745 306.495 546.288 296.159 542.162 287.318C540.809 284.498 538.693 282.114 536.055 280.437C533.416 278.759 530.36 277.856 527.235 277.83L527.219 279.233C530.082 279.257 532.881 280.083 535.299 281.619C537.717 283.154 539.656 285.338 540.897 287.921C544.731 296.137 540.409 305.848 534.423 311.825C529.951 316.289 524.353 319.587 518.94 322.777C516.656 324.123 514.295 325.514 512.038 326.98C500.493 334.478 492.085 343.879 487.722 354.167C482.544 366.376 483.307 380.085 489.713 389.944C496.171 399.881 507.744 405.492 517.044 410Z" fill="#D1D1D1"/>
<path d="M518.692 285.613C525.458 285.31 530.823 282.398 530.676 279.109C530.529 275.82 524.925 273.399 518.16 273.702C511.395 274.005 506.03 276.917 506.177 280.206C506.324 283.495 511.927 285.916 518.692 285.613Z" fill="#D1D1D1"/>
<path d="M510.647 325.288C517.412 324.985 522.777 322.073 522.63 318.784C522.483 315.495 516.88 313.074 510.114 313.377C503.349 313.68 497.984 316.592 498.131 319.881C498.278 323.17 503.882 325.591 510.647 325.288Z" fill="#D1D1D1"/>
<path d="M533.328 330.59C540.093 330.287 545.458 327.375 545.311 324.086C545.164 320.797 539.561 318.376 532.796 318.679C526.03 318.982 520.665 321.894 520.812 325.183C520.959 328.473 526.563 330.893 533.328 330.59Z" fill="#D1D1D1"/>
<path d="M499.802 365.088C506.567 364.785 511.932 361.873 511.785 358.584C511.638 355.295 506.034 352.874 499.269 353.177C492.504 353.48 487.139 356.392 487.286 359.681C487.433 362.97 493.036 365.391 499.802 365.088Z" fill="#D1D1D1"/>
<path d="M475.302 366.185C482.068 365.882 487.433 362.97 487.286 359.681C487.139 356.392 481.535 353.971 474.77 354.275C468.005 354.578 462.64 357.49 462.787 360.779C462.934 364.068 468.537 366.488 475.302 366.185Z" fill="#D1D1D1"/>
<path d="M322.26 185.942C322.531 186.221 322.779 186.52 323.002 186.837L357.74 185.986L361.793 178.574L373.768 183.233L367.868 197.054C367.391 198.17 366.566 199.102 365.515 199.708C364.465 200.315 363.246 200.565 362.041 200.419L322.793 195.673C321.868 196.846 320.607 197.71 319.179 198.148C317.751 198.587 316.224 198.58 314.8 198.128C313.376 197.676 312.123 196.802 311.208 195.62C310.293 194.438 309.76 193.006 309.678 191.513C309.596 190.02 309.97 188.538 310.751 187.263C311.531 185.988 312.681 184.982 314.047 184.377C315.413 183.772 316.93 183.598 318.397 183.878C319.865 184.157 321.212 184.877 322.26 185.942Z" fill="#FFB7B7"/>
<path d="M435.502 397.112L424.08 397.111L418.647 353.012L435.504 353.013L435.502 397.112Z" fill="#FFB7B7"/>
<path d="M438.415 408.194L401.585 408.193V407.727C401.586 403.921 403.096 400.272 405.784 397.581C408.473 394.89 412.119 393.378 415.921 393.378H415.921L438.416 393.379L438.415 408.194Z" fill="#2F2E41"/>
<path d="M331.784 396.857L321.281 392.365L333.591 349.675L349.093 356.304L331.784 396.857Z" fill="#FFB7B7"/>
<path d="M330.114 408.194L296.245 393.712L296.428 393.283C297.922 389.783 300.743 387.021 304.271 385.604C307.8 384.186 311.746 384.23 315.242 385.724L315.243 385.725L335.929 394.57L330.114 408.194Z" fill="#2F2E41"/>
<path d="M379.982 195.496L379.156 208.893L403.3 211.479L428.563 214.185L421.128 193.841L379.982 195.496Z" fill="#FFB7B7"/>
<path d="M378.733 200.461L369.017 143.617L385.274 138.284L390.049 131.729L413.285 133.105L416.696 140.754L429.086 146.614L427.182 182.009L423.84 198.473L423.429 198.259C406.678 189.577 379.408 200.195 379.135 200.302L378.733 200.461Z" fill="#2F2E41"/>
<path d="M372.493 191.526L355.957 184.904L356.027 184.609C356.098 184.312 363.136 154.874 364.071 150.143C365.044 145.215 368.601 143.852 368.752 143.797L368.862 143.756L375.406 145.75L378.281 168.353L372.493 191.526Z" fill="#2F2E41"/>
<path d="M340.292 389.107L318.28 384.587L353.461 287.417L365.502 254.273C365.502 254.273 373.139 227.699 376.59 217.415L378.672 203.617L427.964 209.078C427.964 209.078 441.731 229.315 437.548 262.301L439.44 386.282L417.428 387.412L398.991 262.371L366.631 330.918C366.631 330.918 356.432 360.169 349.134 366.509L340.292 389.107Z" fill="#2F2E41"/>
<path d="M408.196 213.68C408.584 213.67 408.972 213.692 409.356 213.744L432.352 187.667L429.677 179.653L441.233 174.031L447.346 187.759C447.84 188.868 447.961 190.107 447.691 191.291C447.421 192.474 446.775 193.539 445.85 194.324L415.688 219.905C415.918 221.382 415.693 222.894 415.044 224.24C414.394 225.586 413.35 226.703 412.051 227.441C410.752 228.179 409.26 228.503 407.772 228.372C406.284 228.24 404.872 227.658 403.723 226.703C402.573 225.748 401.742 224.465 401.339 223.026C400.935 221.586 400.98 220.058 401.465 218.644C401.951 217.231 402.855 215.998 404.058 215.111C405.26 214.225 406.704 213.725 408.197 213.68H408.196Z" fill="#FFB7B7"/>
<path d="M430.516 190.205L420.924 167.62L424.665 151.888L428.696 146.79C428.991 146.664 429.31 146.6 429.631 146.603C429.952 146.606 430.269 146.676 430.562 146.808C432.048 147.407 433.314 149.242 434.325 152.264L443.315 177.895L430.516 190.205Z" fill="#2F2E41"/>
<path d="M380.748 123.36V106.333C380.748 100.282 383.149 94.4781 387.424 90.1992C391.699 85.9202 397.497 83.5164 403.543 83.5164C409.588 83.5164 415.386 85.9202 419.661 90.1992C423.936 94.4781 426.338 100.282 426.338 106.333V123.36C426.337 124.173 426.014 124.952 425.44 125.526C424.866 126.101 424.087 126.424 423.276 126.425H383.81C382.998 126.424 382.22 126.101 381.646 125.526C381.072 124.952 380.749 124.173 380.748 123.36Z" fill="#2F2E41"/>
<path d="M398.859 126.029C408.089 126.029 415.571 118.539 415.571 109.3C415.571 100.062 408.089 92.572 398.859 92.572C389.629 92.572 382.146 100.062 382.146 109.3C382.146 118.539 389.629 126.029 398.859 126.029Z" fill="#FFB7B7"/>
<path d="M375.355 107.695C375.36 102.91 377.262 98.3222 380.642 94.9386C384.023 91.5549 388.606 89.6516 393.387 89.6462H396.789C401.57 89.6517 406.153 91.555 409.534 94.9386C412.914 98.3223 414.816 102.91 414.821 107.695V108.036H407.631L405.179 101.162L404.688 108.036H400.972L399.735 104.568L399.487 108.036H375.355V107.695Z" fill="#2F2E41"/>
<path d="M397.214 128.34C396.876 127.882 396.675 127.338 396.632 126.771C396.59 126.204 396.708 125.636 396.974 125.134C400.579 118.27 405.627 105.586 398.927 97.7644L398.445 97.2024H417.898V126.435L400.227 129.555C400.048 129.587 399.867 129.603 399.685 129.603C399.203 129.603 398.727 129.489 398.297 129.269C397.868 129.049 397.497 128.731 397.214 128.34Z" fill="#2F2E41"/>
<path d="M300.512 339.738H92.1554C87.2169 339.733 82.4823 337.767 78.9903 334.271C75.4983 330.776 73.5341 326.037 73.5285 321.094V18.6445C73.5341 13.7014 75.4983 8.96233 78.9903 5.46702C82.4823 1.97171 87.2169 0.00558183 92.1554 0H300.512C305.45 0.00558182 310.185 1.97171 313.677 5.46702C317.169 8.96233 319.133 13.7014 319.138 18.6445V321.094C319.133 326.037 317.169 330.776 313.677 334.271C310.185 337.767 305.45 339.733 300.512 339.738Z" fill="#3F3D56"/>
<path d="M300.878 327.843H91.7886C90.2663 327.841 88.8068 327.235 87.7304 326.157C86.6539 325.08 86.0484 323.619 86.0467 322.095V17.6429C86.0484 16.1191 86.6539 14.6583 87.7304 13.5808C88.8068 12.5033 90.2663 11.8972 91.7886 11.8955H300.878C302.401 11.8972 303.86 12.5033 304.937 13.5808C306.013 14.6583 306.618 16.1191 306.62 17.6429V322.095C306.618 323.619 306.013 325.08 304.937 326.157C303.86 327.235 302.401 327.841 300.878 327.843Z" fill="white"/>
<path d="M195.541 7.29594C196.416 7.29594 197.126 6.58583 197.126 5.70986C197.126 4.83389 196.416 4.12378 195.541 4.12378C194.666 4.12378 193.957 4.83389 193.957 5.70986C193.957 6.58583 194.666 7.29594 195.541 7.29594Z" fill="white"/>
<path d="M242.76 204.791C233.586 204.791 224.764 201.259 218.12 194.927C211.476 188.595 207.52 179.948 207.07 170.776C207.042 171.357 207.026 171.942 207.026 172.53C207.026 182.016 210.791 191.114 217.492 197.822C224.194 204.53 233.283 208.298 242.76 208.298C252.238 208.298 261.327 204.53 268.028 197.822C274.73 191.114 278.495 182.016 278.495 172.53C278.495 171.942 278.478 171.357 278.451 170.776C278.001 179.948 274.044 188.595 267.401 194.927C260.757 201.259 251.934 204.791 242.76 204.791Z" fill="#CBCBCB"/>
<path d="M149.57 120.63C140.396 120.63 131.574 117.098 124.93 110.766C118.286 104.434 114.33 95.787 113.88 86.6155C113.852 87.1966 113.836 87.7808 113.836 88.3688C113.836 97.8552 117.601 106.953 124.302 113.661C131.004 120.369 140.093 124.137 149.57 124.137C159.048 124.137 168.137 120.369 174.838 113.661C181.54 106.953 185.305 97.8552 185.305 88.3688C185.305 87.7808 185.288 87.1966 185.261 86.6155C184.811 95.787 180.854 104.434 174.211 110.766C167.567 117.098 158.744 120.63 149.57 120.63Z" fill="#CBCBCB"/>
<path d="M151.672 288.952C142.498 288.952 133.676 285.42 127.032 279.088C120.388 272.756 116.432 264.109 115.982 254.937C115.954 255.518 115.938 256.102 115.938 256.69C115.938 266.177 119.703 275.275 126.404 281.982C133.106 288.69 142.195 292.459 151.672 292.459C161.15 292.459 170.239 288.69 176.94 281.982C183.642 275.275 187.407 266.177 187.407 256.69C187.407 256.102 187.39 255.518 187.363 254.937C186.913 264.109 182.957 272.756 176.313 279.088C169.669 285.42 160.846 288.952 151.672 288.952Z" fill="#CBCBCB"/>
<path d="M242.772 205.321C235.628 205.321 228.645 203.2 222.705 199.228C216.766 195.255 212.136 189.609 209.402 183.003C206.669 176.397 205.953 169.128 207.347 162.115C208.741 155.102 212.181 148.66 217.232 143.604C222.283 138.548 228.719 135.105 235.725 133.71C242.732 132.315 249.994 133.031 256.594 135.767C263.194 138.503 268.835 143.137 272.803 149.082C276.772 155.028 278.891 162.017 278.891 169.168C278.891 178.756 275.085 187.952 268.312 194.732C261.538 201.512 252.351 205.321 242.772 205.321ZM242.772 134.736C235.968 134.736 229.318 136.756 223.661 140.539C218.004 144.323 213.595 149.7 210.991 155.992C208.388 162.283 207.707 169.206 209.034 175.885C210.361 182.564 213.637 188.699 218.448 193.514C223.259 198.33 229.388 201.609 236.061 202.938C242.734 204.266 249.65 203.584 255.936 200.978C262.221 198.372 267.594 193.959 271.373 188.297C275.153 182.635 277.171 175.978 277.171 169.168C277.171 164.646 276.281 160.169 274.552 155.992C272.823 151.814 270.29 148.018 267.095 144.821C263.901 141.624 260.109 139.088 255.936 137.357C251.762 135.627 247.289 134.736 242.772 134.736Z" fill="#3F3D56"/>
<path d="M263.411 159.267L267.711 158.406C267.711 158.406 264.099 162.452 263.411 162.71C263.347 163.57 263.347 164.433 263.411 165.292C255.155 200.757 224.712 185.09 224.712 185.09C235.806 185.349 236.752 180.787 236.752 180.787C230.302 179.84 229.012 175.622 229.012 175.622C229.591 175.927 230.262 176.009 230.897 175.85C231.531 175.691 232.085 175.303 232.452 174.761C225.486 172.953 226.432 166.153 226.432 166.153C227.674 167.051 229.125 167.614 230.646 167.789C229.872 166.842 223.337 159.009 227.292 154.963C227.292 154.963 232.108 163.571 244.75 164.346L245.61 164.173C245.463 163.553 245.406 162.916 245.438 162.28C245.438 159.883 246.389 157.584 248.082 155.889C249.776 154.194 252.073 153.241 254.467 153.241C260.487 153.241 261.777 156.685 261.777 156.685L266.077 154.102C265.991 154.102 265.561 158.406 263.411 159.267Z" fill="#1E7CCF"/>
<path d="M149.895 121.394C142.751 121.394 135.768 119.274 129.829 115.301C123.889 111.329 119.259 105.683 116.526 99.0764C113.792 92.4704 113.077 85.2012 114.47 78.1882C115.864 71.1753 119.304 64.7334 124.355 59.6773C129.407 54.6213 135.842 51.178 142.849 49.7831C149.855 48.3881 157.117 49.104 163.717 51.8404C170.317 54.5767 175.958 59.2105 179.927 65.1558C183.895 71.1012 186.014 78.0909 186.014 85.2413C186.014 89.989 185.08 94.6902 183.264 99.0764C181.449 103.463 178.789 107.448 175.435 110.805C172.081 114.162 168.099 116.825 163.717 118.642C159.335 120.459 154.638 121.394 149.895 121.394ZM149.895 50.81C143.092 50.81 136.441 52.8294 130.784 56.6127C125.127 60.3961 120.718 65.7735 118.115 72.065C115.511 78.3565 114.83 85.2796 116.157 91.9586C117.485 98.6376 120.761 104.773 125.571 109.588C130.382 114.403 136.511 117.683 143.184 119.011C149.857 120.34 156.773 119.658 163.059 117.052C169.344 114.446 174.717 110.033 178.497 104.37C182.276 98.7082 184.294 92.0512 184.294 85.2414C184.294 76.1096 180.67 67.3518 174.219 60.8947C167.768 54.4376 159.018 50.81 149.895 50.81V50.81Z" fill="#3F3D56"/>
<path d="M159.733 67.3565C162.138 67.3637 164.444 68.3236 166.145 70.0265C167.846 71.7294 168.805 74.0369 168.812 76.4451V94.6204C168.805 97.0286 167.846 99.3361 166.145 101.039C164.444 102.742 162.138 103.702 159.733 103.709H141.574C139.169 103.702 136.863 102.742 135.162 101.039C133.461 99.3361 132.502 97.0286 132.495 94.6204V76.4451C132.502 74.0369 133.461 71.7294 135.162 70.0265C136.863 68.3236 139.169 67.3637 141.574 67.3565H159.733ZM159.733 63.7217H141.574C138.206 63.7315 134.979 65.0751 132.597 67.4591C130.215 69.8431 128.873 73.0737 128.863 76.4451V94.6204C128.873 97.9918 130.215 101.222 132.597 103.606C134.979 105.99 138.206 107.334 141.574 107.344H159.733C163.101 107.334 166.328 105.99 168.71 103.606C171.092 101.222 172.434 97.9918 172.444 94.6204V76.4451C172.434 73.0737 171.092 69.8431 168.71 67.4591C166.328 65.0752 163.101 63.7315 159.733 63.7217Z" fill="#1E7CCF"/>
<path d="M162.456 76.4452C161.736 76.4437 161.046 76.156 160.537 75.6453C160.029 75.1346 159.743 74.4428 159.744 73.7218C159.745 73.0008 160.032 72.3095 160.541 71.7999C161.051 71.2904 161.742 71.0042 162.462 71.0042C163.183 71.0042 163.873 71.2904 164.383 71.7999C164.893 72.3095 165.179 73.0008 165.18 73.7218C165.181 74.4428 164.896 75.1346 164.387 75.6453C163.879 76.156 163.188 76.4437 162.468 76.4452C162.464 76.4453 162.46 76.4453 162.456 76.4452Z" fill="#1E7CCF"/>
<path d="M150.653 78.2623C152.09 78.2623 153.494 78.6887 154.689 79.4876C155.884 80.2866 156.815 81.4221 157.364 82.7506C157.914 84.0792 158.058 85.5411 157.778 86.9514C157.497 88.3618 156.806 89.6573 155.79 90.6741C154.774 91.6909 153.48 92.3834 152.071 92.6639C150.662 92.9445 149.201 92.8005 147.874 92.2502C146.546 91.6999 145.412 90.768 144.614 89.5723C143.816 88.3767 143.39 86.9709 143.39 85.5329C143.39 84.5781 143.578 83.6327 143.943 82.7506C144.308 81.8685 144.843 81.067 145.517 80.3918C146.192 79.7167 146.992 79.1811 147.874 78.8157C148.755 78.4503 149.7 78.2623 150.653 78.2623ZM150.653 74.6274C148.499 74.6274 146.392 75.267 144.6 76.4653C142.809 77.6636 141.412 79.3668 140.588 81.3596C139.763 83.3523 139.547 85.545 139.968 87.6605C140.388 89.776 141.426 91.7191 142.949 93.2443C144.473 94.7695 146.414 95.8081 148.528 96.2289C150.641 96.6497 152.832 96.4338 154.823 95.6083C156.814 94.7829 158.515 93.3852 159.712 91.5918C160.91 89.7984 161.549 87.6899 161.549 85.533C161.549 82.6407 160.401 79.8668 158.358 77.8217C156.314 75.7765 153.543 74.6275 150.653 74.6275V74.6274Z" fill="#1E7CCF"/>
<path d="M151.615 289.247C144.471 289.247 137.488 287.127 131.549 283.154C125.609 279.182 120.979 273.536 118.246 266.929C115.512 260.323 114.797 253.054 116.19 246.041C117.584 239.028 121.024 232.586 126.075 227.53C131.127 222.474 137.562 219.031 144.569 217.636C151.575 216.241 158.837 216.957 165.437 219.693C172.037 222.43 177.678 227.064 181.647 233.009C185.615 238.954 187.734 245.944 187.734 253.094C187.734 262.683 183.928 271.878 177.155 278.658C170.381 285.438 161.194 289.247 151.615 289.247ZM151.615 218.663C144.812 218.663 138.161 220.682 132.504 224.466C126.847 228.249 122.438 233.627 119.835 239.918C117.231 246.21 116.55 253.133 117.877 259.812C119.204 266.491 122.481 272.626 127.291 277.441C132.102 282.256 138.231 285.536 144.904 286.864C151.577 288.193 158.493 287.511 164.779 284.905C171.064 282.299 176.437 277.886 180.217 272.223C183.996 266.561 186.014 259.904 186.014 253.094C186.014 248.573 185.124 244.095 183.395 239.918C181.667 235.741 179.133 231.945 175.939 228.748C172.744 225.55 168.952 223.014 164.779 221.284C160.605 219.554 156.132 218.663 151.615 218.663Z" fill="#3F3D56"/>
<path fill-rule="evenodd" clip-rule="evenodd" d="M175.227 253.236C175.226 248.72 173.932 244.298 171.499 240.495C169.065 236.692 165.594 233.666 161.496 231.776C157.398 229.886 152.845 229.211 148.376 229.83C143.906 230.45 139.708 232.338 136.277 235.272C132.847 238.206 130.328 242.062 129.019 246.384C127.71 250.706 127.666 255.313 128.891 259.66C130.117 264.007 132.561 267.911 135.934 270.91C139.308 273.909 143.469 275.878 147.926 276.584V260.07H141.929V253.236H147.926V248.028C147.926 242.106 151.452 238.832 156.844 238.832C158.615 238.857 160.382 239.011 162.131 239.294V245.111H159.152C156.22 245.111 155.303 246.932 155.303 248.804V253.237H161.851L160.806 260.071H155.303V276.586C160.858 275.706 165.916 272.87 169.568 268.59C173.22 264.309 175.227 258.865 175.227 253.236L175.227 253.236Z" fill="#1E7CCF"/>
<path d="M554.299 409.582H287.342C287.156 409.582 286.978 409.508 286.846 409.377C286.715 409.245 286.641 409.067 286.641 408.881C286.641 408.695 286.715 408.517 286.846 408.385C286.978 408.254 287.156 408.18 287.342 408.18H554.299C554.485 408.18 554.663 408.254 554.795 408.385C554.926 408.517 555 408.695 555 408.881C555 409.067 554.926 409.245 554.795 409.377C554.663 409.508 554.485 409.582 554.299 409.582Z" fill="#A9B1B9"/>
</g>
<defs>
<clipPath id="clip0_3_146">
<rect width="555" height="410" fill="white"/>
</clipPath>
</defs>
</svg>
