<svg width="194" height="80" viewBox="0 0 194 80" fill="none" xmlns="http://www.w3.org/2000/svg">
<path d="M47.7804 40.806C46.4077 39.0234 44.718 37.5553 42.7645 36.4542C40.8637 35.4057 38.8045 34.724 36.6396 34.4094C35.6894 34.3044 34.7388 34.2521 33.7886 34.2521C34.0526 33.9376 34.3694 33.623 34.6334 33.2558C35.9534 31.5256 36.9567 29.6379 37.5375 27.5409C38.1184 25.3911 38.2767 23.189 38.0127 20.9346C37.907 20.2529 37.3261 19.7811 36.6399 19.886C34.3697 20.2006 32.2575 20.8823 30.304 22.0358C28.4032 23.1371 26.8191 24.5524 25.4991 26.2827C24.9183 27.0167 24.3902 27.8557 23.9681 28.6947C23.8098 28.2752 23.7041 27.9084 23.5457 27.4889C22.7008 25.4964 21.5392 23.7138 20.0081 22.1408C18.424 20.5677 16.5763 19.3097 14.464 18.418C13.8305 18.1557 13.144 18.4703 12.8799 19.0997C12.035 21.1968 11.5599 23.3465 11.6126 25.6013C11.6126 27.7511 12.0351 29.8481 12.8799 31.893C13.2497 32.7843 13.6718 33.6232 14.1999 34.4096C13.7775 34.3046 13.355 34.2523 12.9326 34.2C10.7677 33.9378 8.60282 34.0428 6.49101 34.5672C4.32611 35.144 2.31999 36.0876 0.471806 37.4511C-0.0563451 37.8706 -0.161681 38.6045 0.260766 39.1813C1.63347 40.9639 3.32317 42.432 5.27667 43.5331C7.17747 44.5817 9.23667 45.2634 11.4016 45.5779C12.1407 45.6829 12.88 45.7352 13.6192 45.7352H14.2527C13.9886 46.0497 13.6718 46.3643 13.4078 46.7315C12.0878 48.4617 11.0845 50.3494 10.5037 52.4464C9.92286 54.5962 9.76449 56.7983 10.0286 59.0527C10.1343 59.6818 10.662 60.1013 11.2429 60.1013H11.4012C13.6714 59.7867 15.7836 59.105 17.7371 57.9515C19.5853 56.8502 21.222 55.4349 22.542 53.7046C23.1229 52.9706 23.651 52.1316 24.0731 51.2926C24.2314 51.7121 24.3371 52.0789 24.4955 52.4984C25.3404 54.4909 26.502 56.2735 28.0331 57.8465C29.6172 59.4196 31.4649 60.6776 33.5772 61.5693C33.7356 61.6216 33.8939 61.6743 34.0523 61.6743C34.5274 61.6743 35.0025 61.4121 35.1613 60.9403C36.0062 58.8432 36.4813 56.6934 36.4286 54.4387C36.4286 52.2889 36.0061 50.1918 35.1613 48.147C34.7915 47.2557 34.3694 46.4168 33.8413 45.6304C34.2637 45.7353 34.6862 45.7876 35.1086 45.8399C35.8478 45.9449 36.587 45.9972 37.3262 45.9972C38.7519 45.9972 40.1246 45.8399 41.4972 45.4727C43.6621 44.896 45.6682 43.9524 47.5164 42.5889C48.0976 42.1168 48.2029 41.3301 47.7805 40.806L47.7804 40.806ZM27.3996 27.7506C29.4588 25.0766 32.3629 23.2414 35.6363 22.5597C35.7947 25.9154 34.7387 29.1137 32.6796 31.7876C31.6237 33.1507 30.3563 34.3042 28.9306 35.1432C27.8216 35.5104 26.7657 36.0345 25.7624 36.6113C25.3399 36.7686 24.8648 36.8735 24.3897 36.9785V36.9262C24.6007 35.8777 24.7064 34.7764 24.7064 33.7279V33.5183C25.1819 31.4209 26.0794 29.481 27.3994 27.7507L27.3996 27.7506ZM23.8094 40.3866C23.7037 40.2816 23.5983 40.1243 23.5453 40.0194C23.598 39.8621 23.651 39.7571 23.7037 39.5999C23.862 39.5999 24.0204 39.5476 24.1788 39.5476C24.2845 39.6525 24.3898 39.8098 24.4428 39.9148C24.3902 40.072 24.3371 40.177 24.2845 40.3343C24.1261 40.3343 23.9677 40.3866 23.8094 40.3866ZM15.0445 30.8964C13.7245 27.7504 13.6188 24.3948 14.622 21.1966C19.2685 23.6087 22.1196 28.3273 22.2779 33.3083C22.0669 34.4095 21.9612 35.5627 21.9612 36.7162C21.8555 37.188 21.7501 37.6075 21.5914 38.0793C21.5914 38.0793 21.5387 38.0793 21.5387 38.027C20.6939 37.3453 19.8489 36.7162 18.8987 36.1395C18.8461 36.0872 18.7404 36.0872 18.6877 36.0345C17.1036 34.6717 15.8893 32.8888 15.0444 30.8967L15.0445 30.8964ZM11.6127 43.113C8.23345 42.6412 5.22366 41.0682 2.95345 38.6039C5.80446 36.8213 9.13105 36.0873 12.5103 36.5068C14.2 36.7164 15.8367 37.2408 17.3151 38.0271C18.2127 38.8135 19.1633 39.4429 20.1662 40.0196C20.5359 40.3342 20.8527 40.6487 21.1695 41.0159C21.1695 41.0159 21.1168 41.0159 21.1168 41.0682C20.1135 41.4354 19.1103 41.8545 18.1601 42.4313C18.1074 42.4836 18.0544 42.4837 17.949 42.5363C15.9422 43.2177 13.7777 43.4276 11.6128 43.1131L11.6127 43.113ZM20.5359 52.1836C18.4767 54.8575 15.5727 56.6927 12.2992 57.3744C12.0882 52.1836 14.7808 47.4124 19.0049 44.7384C20.1139 44.3712 21.1167 43.8994 22.12 43.2703C22.5425 43.113 23.0176 43.0081 23.4927 42.9031V42.9554C23.2817 44.0039 23.176 45.1052 23.176 46.1537V46.3633C22.7536 48.5134 21.856 50.4533 20.536 52.1836H20.5359ZM32.8912 49.0375C34.2112 52.1836 34.3168 55.5391 33.3136 58.7373C30.3569 57.1643 28.0336 54.7 26.7136 51.5543C26.0801 49.9812 25.7103 48.3036 25.6577 46.6783C25.8687 45.5248 25.9744 44.3713 25.9744 43.2178C26.0801 42.746 26.1855 42.3265 26.3442 41.8546C26.3442 41.8546 26.3969 41.8546 26.3969 41.9069C27.2418 42.5887 28.0867 43.2177 29.0369 43.7945C29.0895 43.8468 29.1953 43.8468 29.2479 43.8994C30.832 45.2622 32.0463 47.0451 32.8912 49.0373L32.8912 49.0375ZM30.6206 41.8545C29.723 41.1204 28.8255 40.4387 27.7696 39.9146C27.3998 39.6 27.083 39.2855 26.7663 38.9183C26.7663 38.9183 26.8189 38.9183 26.8189 38.866C27.8222 38.4988 28.8254 38.0797 29.7756 37.5029C29.8283 37.4506 29.8813 37.4506 29.9867 37.3979C31.9932 36.7688 34.1577 36.5589 36.3226 36.8211C39.7018 37.2929 42.7116 38.866 44.9818 41.3302C40.5997 44.1087 35.0563 44.1614 30.6202 41.8543L30.6206 41.8545Z" fill="#C5A6FD"/>
<path d="M60.3701 12.9971L63.7812 7.60352H65.0527V15H63.7812V9.60645L60.3701 15H59.1123V7.60352H60.3701V12.9971ZM70.043 14.0977C70.3438 14.0977 70.6217 14.0361 70.877 13.9131C71.1322 13.79 71.3418 13.6214 71.5059 13.4072C71.6699 13.1885 71.7633 12.9401 71.7861 12.6621H72.9893C72.9665 13.0996 72.8184 13.5075 72.5449 13.8857C72.276 14.2594 71.9229 14.5625 71.4854 14.7949C71.0479 15.0228 70.5671 15.1367 70.043 15.1367C69.487 15.1367 69.0016 15.0387 68.5869 14.8428C68.1768 14.6468 67.835 14.3779 67.5615 14.0361C67.2926 13.6943 67.0898 13.3024 66.9531 12.8604C66.821 12.4137 66.7549 11.9421 66.7549 11.4453V11.1582C66.7549 10.6615 66.821 10.1921 66.9531 9.75C67.0898 9.30339 67.2926 8.90918 67.5615 8.56738C67.835 8.22559 68.1768 7.95671 68.5869 7.76074C69.0016 7.56478 69.487 7.4668 70.043 7.4668C70.6217 7.4668 71.1276 7.58529 71.5605 7.82227C71.9935 8.05469 72.333 8.3737 72.5791 8.7793C72.8298 9.18034 72.9665 9.63607 72.9893 10.1465H71.7861C71.7633 9.84115 71.6768 9.56543 71.5264 9.31934C71.3805 9.07324 71.18 8.87728 70.9248 8.73145C70.6742 8.58105 70.3802 8.50586 70.043 8.50586C69.6556 8.50586 69.3298 8.58333 69.0654 8.73828C68.8057 8.88867 68.5983 9.09375 68.4434 9.35352C68.293 9.60872 68.1836 9.89355 68.1152 10.208C68.0514 10.5179 68.0195 10.8346 68.0195 11.1582V11.4453C68.0195 11.7689 68.0514 12.0879 68.1152 12.4023C68.179 12.7168 68.2861 13.0016 68.4365 13.2568C68.5915 13.512 68.7988 13.7171 69.0586 13.8721C69.3229 14.0225 69.651 14.0977 70.043 14.0977ZM77.3711 14.0977C77.6719 14.0977 77.9499 14.0361 78.2051 13.9131C78.4603 13.79 78.6699 13.6214 78.834 13.4072C78.998 13.1885 79.0915 12.9401 79.1143 12.6621H80.3174C80.2946 13.0996 80.1465 13.5075 79.873 13.8857C79.6042 14.2594 79.251 14.5625 78.8135 14.7949C78.376 15.0228 77.8952 15.1367 77.3711 15.1367C76.8151 15.1367 76.3298 15.0387 75.915 14.8428C75.5049 14.6468 75.1631 14.3779 74.8896 14.0361C74.6208 13.6943 74.418 13.3024 74.2812 12.8604C74.1491 12.4137 74.083 11.9421 74.083 11.4453V11.1582C74.083 10.6615 74.1491 10.1921 74.2812 9.75C74.418 9.30339 74.6208 8.90918 74.8896 8.56738C75.1631 8.22559 75.5049 7.95671 75.915 7.76074C76.3298 7.56478 76.8151 7.4668 77.3711 7.4668C77.9499 7.4668 78.4557 7.58529 78.8887 7.82227C79.3216 8.05469 79.6611 8.3737 79.9072 8.7793C80.1579 9.18034 80.2946 9.63607 80.3174 10.1465H79.1143C79.0915 9.84115 79.0049 9.56543 78.8545 9.31934C78.7087 9.07324 78.5081 8.87728 78.2529 8.73145C78.0023 8.58105 77.7083 8.50586 77.3711 8.50586C76.9837 8.50586 76.6579 8.58333 76.3936 8.73828C76.1338 8.88867 75.9264 9.09375 75.7715 9.35352C75.6211 9.60872 75.5117 9.89355 75.4434 10.208C75.3796 10.5179 75.3477 10.8346 75.3477 11.1582V11.4453C75.3477 11.7689 75.3796 12.0879 75.4434 12.4023C75.5072 12.7168 75.6143 13.0016 75.7646 13.2568C75.9196 13.512 76.127 13.7171 76.3867 13.8721C76.651 14.0225 76.9792 14.0977 77.3711 14.0977ZM86.6816 7.60352V8.64941H83.1064V7.60352H86.6816ZM87.7959 7.60352V15H86.5312V7.60352H87.7959ZM82.7988 7.60352H84.0703L83.8789 11.1719C83.847 11.7233 83.7946 12.2109 83.7217 12.6348C83.6533 13.054 83.5576 13.4141 83.4346 13.7148C83.3161 14.0156 83.1657 14.2617 82.9834 14.4531C82.8057 14.64 82.5915 14.779 82.3408 14.8701C82.0902 14.9567 81.8008 15 81.4727 15H81.0762V13.8857L81.3496 13.8652C81.5456 13.8516 81.7119 13.806 81.8486 13.7285C81.9899 13.651 82.1084 13.5371 82.2041 13.3867C82.2998 13.2318 82.3773 13.0335 82.4365 12.792C82.5003 12.5505 82.5482 12.2633 82.5801 11.9307C82.6165 11.598 82.6439 11.2106 82.6621 10.7686L82.7988 7.60352ZM92.9023 15.1367C92.3874 15.1367 91.9202 15.0501 91.501 14.877C91.0863 14.6992 90.7285 14.4508 90.4277 14.1318C90.1315 13.8128 89.9036 13.4346 89.7441 12.9971C89.5846 12.5596 89.5049 12.0811 89.5049 11.5615V11.2744C89.5049 10.6729 89.5938 10.1374 89.7715 9.66797C89.9492 9.19401 90.1908 8.79297 90.4961 8.46484C90.8014 8.13672 91.1478 7.88835 91.5352 7.71973C91.9225 7.55111 92.3236 7.4668 92.7383 7.4668C93.2669 7.4668 93.7227 7.55794 94.1055 7.74023C94.4928 7.92253 94.8096 8.17773 95.0557 8.50586C95.3018 8.82943 95.484 9.21224 95.6025 9.6543C95.721 10.0918 95.7803 10.5703 95.7803 11.0898V11.6572H90.2568V10.625H94.5156V10.5293C94.4974 10.2012 94.429 9.88216 94.3105 9.57227C94.1966 9.26237 94.0143 9.00716 93.7637 8.80664C93.513 8.60612 93.1712 8.50586 92.7383 8.50586C92.4512 8.50586 92.1868 8.56738 91.9453 8.69043C91.7038 8.80892 91.4964 8.98665 91.3232 9.22363C91.1501 9.46061 91.0156 9.75 90.9199 10.0918C90.8242 10.4336 90.7764 10.8278 90.7764 11.2744V11.5615C90.7764 11.9124 90.8242 12.2428 90.9199 12.5527C91.0202 12.8581 91.1637 13.127 91.3506 13.3594C91.542 13.5918 91.7721 13.7741 92.041 13.9062C92.3145 14.0384 92.6243 14.1045 92.9707 14.1045C93.4173 14.1045 93.7956 14.0133 94.1055 13.8311C94.4154 13.6488 94.6865 13.4049 94.9189 13.0996L95.6846 13.708C95.5251 13.9495 95.3223 14.1797 95.0762 14.3984C94.8301 14.6172 94.527 14.7949 94.167 14.9316C93.8115 15.0684 93.39 15.1367 92.9023 15.1367ZM98.5898 7.60352H99.8545L99.7451 10.3721C99.7178 11.0739 99.638 11.68 99.5059 12.1904C99.3737 12.7008 99.2051 13.1361 99 13.4961C98.7949 13.8516 98.5648 14.1501 98.3096 14.3916C98.0589 14.6331 97.7992 14.8359 97.5303 15H96.9014L96.9355 13.9678L97.1953 13.9609C97.3457 13.7832 97.4915 13.6009 97.6328 13.4141C97.7741 13.2227 97.904 12.9971 98.0225 12.7373C98.141 12.473 98.2389 12.1517 98.3164 11.7734C98.3984 11.3906 98.4508 10.9235 98.4736 10.3721L98.5898 7.60352ZM98.9043 7.60352H103.354V15H102.09V8.77246H98.9043V7.60352ZM96.6143 13.9609H104.305V17.1807H103.04V15H97.8789V17.1807H96.6074L96.6143 13.9609ZM105.371 11.3838V11.2266C105.371 10.6934 105.449 10.1989 105.604 9.74316C105.758 9.28288 105.982 8.88411 106.273 8.54688C106.565 8.20508 106.918 7.94076 107.333 7.75391C107.748 7.5625 108.213 7.4668 108.728 7.4668C109.247 7.4668 109.714 7.5625 110.129 7.75391C110.548 7.94076 110.904 8.20508 111.195 8.54688C111.492 8.88411 111.717 9.28288 111.872 9.74316C112.027 10.1989 112.104 10.6934 112.104 11.2266V11.3838C112.104 11.917 112.027 12.4115 111.872 12.8672C111.717 13.3229 111.492 13.7217 111.195 14.0635C110.904 14.4007 110.55 14.665 110.136 14.8564C109.726 15.0433 109.261 15.1367 108.741 15.1367C108.222 15.1367 107.755 15.0433 107.34 14.8564C106.925 14.665 106.57 14.4007 106.273 14.0635C105.982 13.7217 105.758 13.3229 105.604 12.8672C105.449 12.4115 105.371 11.917 105.371 11.3838ZM106.636 11.2266V11.3838C106.636 11.7529 106.679 12.1016 106.766 12.4297C106.852 12.7533 106.982 13.0404 107.155 13.291C107.333 13.5417 107.554 13.7399 107.818 13.8857C108.083 14.027 108.39 14.0977 108.741 14.0977C109.088 14.0977 109.391 14.027 109.65 13.8857C109.915 13.7399 110.133 13.5417 110.307 13.291C110.48 13.0404 110.61 12.7533 110.696 12.4297C110.787 12.1016 110.833 11.7529 110.833 11.3838V11.2266C110.833 10.862 110.787 10.5179 110.696 10.1943C110.61 9.86621 110.478 9.57682 110.3 9.32617C110.127 9.07096 109.908 8.87044 109.644 8.72461C109.384 8.57878 109.078 8.50586 108.728 8.50586C108.381 8.50586 108.076 8.57878 107.812 8.72461C107.552 8.87044 107.333 9.07096 107.155 9.32617C106.982 9.57682 106.852 9.86621 106.766 10.1943C106.679 10.5179 106.636 10.862 106.636 11.2266ZM117.163 11.7461H114.736L114.723 10.7344H116.705C117.097 10.7344 117.423 10.6956 117.683 10.6182C117.947 10.5407 118.145 10.4245 118.277 10.2695C118.41 10.1146 118.476 9.92318 118.476 9.69531C118.476 9.51758 118.437 9.36263 118.359 9.23047C118.286 9.09375 118.175 8.9821 118.024 8.89551C117.874 8.80436 117.687 8.73828 117.464 8.69727C117.245 8.65169 116.988 8.62891 116.691 8.62891H115.071V15H113.807V7.60352H116.691C117.161 7.60352 117.582 7.64453 117.956 7.72656C118.334 7.80859 118.656 7.93392 118.92 8.10254C119.189 8.2666 119.394 8.47624 119.535 8.73145C119.676 8.98665 119.747 9.28743 119.747 9.63379C119.747 9.8571 119.701 10.069 119.61 10.2695C119.519 10.4701 119.385 10.6478 119.207 10.8027C119.029 10.9577 118.811 11.0853 118.551 11.1855C118.291 11.2812 117.993 11.3428 117.655 11.3701L117.163 11.7461ZM117.163 15H114.278L114.907 13.9746H117.163C117.514 13.9746 117.806 13.9313 118.038 13.8447C118.271 13.7536 118.444 13.626 118.558 13.4619C118.676 13.2933 118.735 13.0928 118.735 12.8604C118.735 12.6279 118.676 12.4297 118.558 12.2656C118.444 12.097 118.271 11.9694 118.038 11.8828C117.806 11.7917 117.514 11.7461 117.163 11.7461H115.242L115.256 10.7344H117.655L118.113 11.1172C118.519 11.1491 118.863 11.2493 119.146 11.418C119.428 11.5866 119.642 11.8008 119.788 12.0605C119.934 12.3158 120.007 12.5938 120.007 12.8945C120.007 13.2409 119.941 13.5462 119.809 13.8105C119.681 14.0749 119.494 14.2959 119.248 14.4736C119.002 14.6468 118.703 14.779 118.353 14.8701C118.002 14.9567 117.605 15 117.163 15ZM126.063 13.7354V9.92773C126.063 9.63607 126.004 9.38314 125.886 9.16895C125.772 8.9502 125.599 8.78158 125.366 8.66309C125.134 8.5446 124.847 8.48535 124.505 8.48535C124.186 8.48535 123.906 8.54004 123.664 8.64941C123.427 8.75879 123.24 8.90234 123.104 9.08008C122.971 9.25781 122.905 9.44922 122.905 9.6543H121.641C121.641 9.38997 121.709 9.12793 121.846 8.86816C121.982 8.6084 122.178 8.3737 122.434 8.16406C122.693 7.94987 123.003 7.78125 123.363 7.6582C123.728 7.5306 124.133 7.4668 124.58 7.4668C125.118 7.4668 125.592 7.55794 126.002 7.74023C126.417 7.92253 126.74 8.19824 126.973 8.56738C127.21 8.93197 127.328 9.38997 127.328 9.94141V13.3867C127.328 13.6328 127.349 13.8949 127.39 14.1729C127.435 14.4508 127.501 14.6901 127.588 14.8906V15H126.269C126.205 14.8542 126.155 14.6605 126.118 14.4189C126.082 14.1729 126.063 13.945 126.063 13.7354ZM126.282 10.5156L126.296 11.4043H125.018C124.658 11.4043 124.336 11.4339 124.054 11.4932C123.771 11.5479 123.534 11.6322 123.343 11.7461C123.151 11.86 123.006 12.0036 122.905 12.1768C122.805 12.3454 122.755 12.5436 122.755 12.7715C122.755 13.0039 122.807 13.2158 122.912 13.4072C123.017 13.5986 123.174 13.7513 123.384 13.8652C123.598 13.9746 123.86 14.0293 124.17 14.0293C124.557 14.0293 124.899 13.9473 125.195 13.7832C125.492 13.6191 125.726 13.4186 125.899 13.1816C126.077 12.9447 126.173 12.7145 126.187 12.4912L126.727 13.0996C126.695 13.291 126.608 13.5029 126.467 13.7354C126.326 13.9678 126.136 14.1911 125.899 14.4053C125.667 14.6149 125.389 14.7904 125.065 14.9316C124.746 15.0684 124.386 15.1367 123.985 15.1367C123.484 15.1367 123.044 15.0387 122.666 14.8428C122.292 14.6468 122.001 14.3848 121.791 14.0566C121.586 13.724 121.483 13.3525 121.483 12.9424C121.483 12.5459 121.561 12.1973 121.716 11.8965C121.871 11.5911 122.094 11.3382 122.386 11.1377C122.677 10.9326 123.028 10.7777 123.438 10.6729C123.849 10.568 124.307 10.5156 124.812 10.5156H126.282ZM132.223 7.60352V15H130.951V7.60352H132.223ZM134.704 7.60352V8.62891H128.518V7.60352H134.704ZM138.471 15.1367C137.956 15.1367 137.489 15.0501 137.069 14.877C136.655 14.6992 136.297 14.4508 135.996 14.1318C135.7 13.8128 135.472 13.4346 135.312 12.9971C135.153 12.5596 135.073 12.0811 135.073 11.5615V11.2744C135.073 10.6729 135.162 10.1374 135.34 9.66797C135.518 9.19401 135.759 8.79297 136.064 8.46484C136.37 8.13672 136.716 7.88835 137.104 7.71973C137.491 7.55111 137.892 7.4668 138.307 7.4668C138.835 7.4668 139.291 7.55794 139.674 7.74023C140.061 7.92253 140.378 8.17773 140.624 8.50586C140.87 8.82943 141.052 9.21224 141.171 9.6543C141.289 10.0918 141.349 10.5703 141.349 11.0898V11.6572H135.825V10.625H140.084V10.5293C140.066 10.2012 139.997 9.88216 139.879 9.57227C139.765 9.26237 139.583 9.00716 139.332 8.80664C139.081 8.60612 138.74 8.50586 138.307 8.50586C138.02 8.50586 137.755 8.56738 137.514 8.69043C137.272 8.80892 137.065 8.98665 136.892 9.22363C136.718 9.46061 136.584 9.75 136.488 10.0918C136.393 10.4336 136.345 10.8278 136.345 11.2744V11.5615C136.345 11.9124 136.393 12.2428 136.488 12.5527C136.589 12.8581 136.732 13.127 136.919 13.3594C137.11 13.5918 137.34 13.7741 137.609 13.9062C137.883 14.0384 138.193 14.1045 138.539 14.1045C138.986 14.1045 139.364 14.0133 139.674 13.8311C139.984 13.6488 140.255 13.4049 140.487 13.0996L141.253 13.708C141.093 13.9495 140.891 14.1797 140.645 14.3984C140.398 14.6172 140.095 14.7949 139.735 14.9316C139.38 15.0684 138.958 15.1367 138.471 15.1367ZM147.768 7.60352V8.64941H144.192V7.60352H147.768ZM148.882 7.60352V15H147.617V7.60352H148.882ZM143.885 7.60352H145.156L144.965 11.1719C144.933 11.7233 144.881 12.2109 144.808 12.6348C144.739 13.054 144.644 13.4141 144.521 13.7148C144.402 14.0156 144.252 14.2617 144.069 14.4531C143.892 14.64 143.677 14.779 143.427 14.8701C143.176 14.9567 142.887 15 142.559 15H142.162V13.8857L142.436 13.8652C142.632 13.8516 142.798 13.806 142.935 13.7285C143.076 13.651 143.194 13.5371 143.29 13.3867C143.386 13.2318 143.463 13.0335 143.522 12.792C143.586 12.5505 143.634 12.2633 143.666 11.9307C143.702 11.598 143.73 11.2106 143.748 10.7686L143.885 7.60352ZM151.958 10.1465H154.18C154.777 10.1465 155.28 10.2513 155.69 10.4609C156.101 10.666 156.41 10.9508 156.62 11.3154C156.834 11.6755 156.941 12.0856 156.941 12.5459C156.941 12.8877 156.882 13.209 156.764 13.5098C156.645 13.806 156.467 14.0658 156.23 14.2891C155.998 14.5124 155.709 14.6878 155.362 14.8154C155.021 14.9385 154.626 15 154.18 15H151.035V7.60352H152.3V13.9609H154.18C154.544 13.9609 154.836 13.8949 155.055 13.7627C155.273 13.6305 155.431 13.4596 155.526 13.25C155.622 13.0404 155.67 12.8216 155.67 12.5938C155.67 12.3704 155.622 12.1517 155.526 11.9375C155.431 11.7233 155.273 11.5456 155.055 11.4043C154.836 11.2585 154.544 11.1855 154.18 11.1855H151.958V10.1465ZM161.48 14.0977C161.781 14.0977 162.059 14.0361 162.314 13.9131C162.57 13.79 162.779 13.6214 162.943 13.4072C163.107 13.1885 163.201 12.9401 163.224 12.6621H164.427C164.404 13.0996 164.256 13.5075 163.982 13.8857C163.714 14.2594 163.36 14.5625 162.923 14.7949C162.485 15.0228 162.005 15.1367 161.48 15.1367C160.924 15.1367 160.439 15.0387 160.024 14.8428C159.614 14.6468 159.272 14.3779 158.999 14.0361C158.73 13.6943 158.527 13.3024 158.391 12.8604C158.258 12.4137 158.192 11.9421 158.192 11.4453V11.1582C158.192 10.6615 158.258 10.1921 158.391 9.75C158.527 9.30339 158.73 8.90918 158.999 8.56738C159.272 8.22559 159.614 7.95671 160.024 7.76074C160.439 7.56478 160.924 7.4668 161.48 7.4668C162.059 7.4668 162.565 7.58529 162.998 7.82227C163.431 8.05469 163.771 8.3737 164.017 8.7793C164.267 9.18034 164.404 9.63607 164.427 10.1465H163.224C163.201 9.84115 163.114 9.56543 162.964 9.31934C162.818 9.07324 162.618 8.87728 162.362 8.73145C162.112 8.58105 161.818 8.50586 161.48 8.50586C161.093 8.50586 160.767 8.58333 160.503 8.73828C160.243 8.88867 160.036 9.09375 159.881 9.35352C159.73 9.60872 159.621 9.89355 159.553 10.208C159.489 10.5179 159.457 10.8346 159.457 11.1582V11.4453C159.457 11.7689 159.489 12.0879 159.553 12.4023C159.617 12.7168 159.724 13.0016 159.874 13.2568C160.029 13.512 160.236 13.7171 160.496 13.8721C160.76 14.0225 161.089 14.0977 161.48 14.0977ZM167.223 7.60352V15H165.958V7.60352H167.223ZM172.076 7.60352L168.569 11.8418H166.799L166.607 10.7344H168.057L170.538 7.60352H172.076ZM170.716 15L167.995 11.6504L168.809 10.7344L172.322 15H170.716ZM174.79 12.9971L178.201 7.60352H179.473V15H178.201V9.60645L174.79 15H173.532V7.60352H174.79V12.9971ZM182.87 12.9971L186.281 7.60352H187.553V15H186.281V9.60645L182.87 15H181.612V7.60352H182.87V12.9971ZM185.591 4.92383H186.616C186.616 5.2793 186.534 5.59603 186.37 5.87402C186.206 6.14746 185.971 6.36165 185.666 6.5166C185.361 6.67155 184.998 6.74902 184.579 6.74902C183.946 6.74902 183.444 6.5804 183.075 6.24316C182.711 5.90137 182.528 5.46159 182.528 4.92383H183.554C183.554 5.19271 183.631 5.42969 183.786 5.63477C183.941 5.83984 184.205 5.94238 184.579 5.94238C184.944 5.94238 185.203 5.83984 185.358 5.63477C185.513 5.42969 185.591 5.19271 185.591 4.92383ZM59.1123 35V27.6035H60.377V33.9609H63.7812V27.6035H65.0527V35H59.1123ZM65.9277 33.9609L65.8047 37.1943H64.6768V35H63.7129V33.9609H65.9277ZM70.3711 35.1367C69.8561 35.1367 69.389 35.0501 68.9697 34.877C68.555 34.6992 68.1973 34.4508 67.8965 34.1318C67.6003 33.8128 67.3724 33.4346 67.2129 32.9971C67.0534 32.5596 66.9736 32.0811 66.9736 31.5615V31.2744C66.9736 30.6729 67.0625 30.1374 67.2402 29.668C67.418 29.194 67.6595 28.793 67.9648 28.4648C68.2702 28.1367 68.6165 27.8883 69.0039 27.7197C69.3913 27.5511 69.7923 27.4668 70.207 27.4668C70.7357 27.4668 71.1914 27.5579 71.5742 27.7402C71.9616 27.9225 72.2783 28.1777 72.5244 28.5059C72.7705 28.8294 72.9528 29.2122 73.0713 29.6543C73.1898 30.0918 73.249 30.5703 73.249 31.0898V31.6572H67.7256V30.625H71.9844V30.5293C71.9661 30.2012 71.8978 29.8822 71.7793 29.5723C71.6654 29.2624 71.4831 29.0072 71.2324 28.8066C70.9818 28.6061 70.64 28.5059 70.207 28.5059C69.9199 28.5059 69.6556 28.5674 69.4141 28.6904C69.1725 28.8089 68.9652 28.9867 68.792 29.2236C68.6188 29.4606 68.4844 29.75 68.3887 30.0918C68.293 30.4336 68.2451 30.8278 68.2451 31.2744V31.5615C68.2451 31.9124 68.293 32.2428 68.3887 32.5527C68.4889 32.8581 68.6325 33.127 68.8193 33.3594C69.0107 33.5918 69.2409 33.7741 69.5098 33.9062C69.7832 34.0384 70.0931 34.1045 70.4395 34.1045C70.8861 34.1045 71.2643 34.0133 71.5742 33.8311C71.8841 33.6488 72.1553 33.4049 72.3877 33.0996L73.1533 33.708C72.9938 33.9495 72.791 34.1797 72.5449 34.3984C72.2988 34.6172 71.9958 34.7949 71.6357 34.9316C71.2803 35.0684 70.8587 35.1367 70.3711 35.1367ZM79.7432 30.8096V31.835H75.833V30.8096H79.7432ZM76.0996 27.6035V35H74.835V27.6035H76.0996ZM80.7686 27.6035V35H79.4971V27.6035H80.7686ZM85.8203 27.6035V35H84.5488V27.6035H85.8203ZM88.3018 27.6035V28.6289H82.1152V27.6035H88.3018ZM90.8105 29.0254V37.8438H89.5391V27.6035H90.7012L90.8105 29.0254ZM95.7939 31.2402V31.3838C95.7939 31.9215 95.7301 32.4206 95.6025 32.8809C95.4749 33.3366 95.2881 33.7331 95.042 34.0703C94.8005 34.4076 94.502 34.6696 94.1465 34.8564C93.791 35.0433 93.3831 35.1367 92.9229 35.1367C92.4535 35.1367 92.0387 35.0592 91.6787 34.9043C91.3187 34.7493 91.0133 34.5238 90.7627 34.2275C90.512 33.9313 90.3115 33.5758 90.1611 33.1611C90.0153 32.7464 89.915 32.2793 89.8604 31.7598V30.9941C89.915 30.4473 90.0176 29.9574 90.168 29.5244C90.3184 29.0915 90.5166 28.7223 90.7627 28.417C91.0133 28.1071 91.3164 27.8724 91.6719 27.7129C92.0273 27.5488 92.4375 27.4668 92.9023 27.4668C93.3672 27.4668 93.7796 27.5579 94.1396 27.7402C94.4997 27.918 94.8027 28.1732 95.0488 28.5059C95.2949 28.8385 95.4795 29.2373 95.6025 29.7021C95.7301 30.1624 95.7939 30.6751 95.7939 31.2402ZM94.5225 31.3838V31.2402C94.5225 30.8711 94.4837 30.5247 94.4062 30.2012C94.3288 29.873 94.208 29.5859 94.0439 29.3398C93.8844 29.0892 93.6794 28.8932 93.4287 28.752C93.1781 28.6061 92.8796 28.5332 92.5332 28.5332C92.2142 28.5332 91.9362 28.5879 91.6992 28.6973C91.4668 28.8066 91.2686 28.9548 91.1045 29.1416C90.9404 29.3239 90.806 29.5335 90.7012 29.7705C90.6009 30.0029 90.5257 30.2445 90.4756 30.4951V32.2656C90.5667 32.5846 90.6943 32.8854 90.8584 33.168C91.0225 33.446 91.2412 33.6715 91.5146 33.8447C91.7881 34.0133 92.1322 34.0977 92.5469 34.0977C92.8887 34.0977 93.1826 34.027 93.4287 33.8857C93.6794 33.7399 93.8844 33.5417 94.0439 33.291C94.208 33.0404 94.3288 32.7533 94.4062 32.4297C94.4837 32.1016 94.5225 31.7529 94.5225 31.3838ZM105.897 30.8096V31.835H101.987V30.8096H105.897ZM102.254 27.6035V35H100.989V27.6035H102.254ZM106.923 27.6035V35H105.651V27.6035H106.923ZM108.625 31.3838V31.2266C108.625 30.6934 108.702 30.1989 108.857 29.7432C109.012 29.2829 109.236 28.8841 109.527 28.5469C109.819 28.2051 110.172 27.9408 110.587 27.7539C111.002 27.5625 111.466 27.4668 111.981 27.4668C112.501 27.4668 112.968 27.5625 113.383 27.7539C113.802 27.9408 114.158 28.2051 114.449 28.5469C114.745 28.8841 114.971 29.2829 115.126 29.7432C115.281 30.1989 115.358 30.6934 115.358 31.2266V31.3838C115.358 31.917 115.281 32.4115 115.126 32.8672C114.971 33.3229 114.745 33.7217 114.449 34.0635C114.158 34.4007 113.804 34.665 113.39 34.8564C112.979 35.0433 112.515 35.1367 111.995 35.1367C111.476 35.1367 111.008 35.0433 110.594 34.8564C110.179 34.665 109.824 34.4007 109.527 34.0635C109.236 33.7217 109.012 33.3229 108.857 32.8672C108.702 32.4115 108.625 31.917 108.625 31.3838ZM109.89 31.2266V31.3838C109.89 31.7529 109.933 32.1016 110.02 32.4297C110.106 32.7533 110.236 33.0404 110.409 33.291C110.587 33.5417 110.808 33.7399 111.072 33.8857C111.337 34.027 111.644 34.0977 111.995 34.0977C112.341 34.0977 112.645 34.027 112.904 33.8857C113.169 33.7399 113.387 33.5417 113.561 33.291C113.734 33.0404 113.864 32.7533 113.95 32.4297C114.041 32.1016 114.087 31.7529 114.087 31.3838V31.2266C114.087 30.862 114.041 30.5179 113.95 30.1943C113.864 29.8662 113.731 29.5768 113.554 29.3262C113.381 29.071 113.162 28.8704 112.897 28.7246C112.638 28.5788 112.332 28.5059 111.981 28.5059C111.635 28.5059 111.33 28.5788 111.065 28.7246C110.806 28.8704 110.587 29.071 110.409 29.3262C110.236 29.5768 110.106 29.8662 110.02 30.1943C109.933 30.5179 109.89 30.862 109.89 31.2266ZM120.417 31.7461H117.99L117.977 30.7344H119.959C120.351 30.7344 120.677 30.6956 120.937 30.6182C121.201 30.5407 121.399 30.4245 121.531 30.2695C121.663 30.1146 121.729 29.9232 121.729 29.6953C121.729 29.5176 121.691 29.3626 121.613 29.2305C121.54 29.0938 121.429 28.9821 121.278 28.8955C121.128 28.8044 120.941 28.7383 120.718 28.6973C120.499 28.6517 120.242 28.6289 119.945 28.6289H118.325V35H117.061V27.6035H119.945C120.415 27.6035 120.836 27.6445 121.21 27.7266C121.588 27.8086 121.91 27.9339 122.174 28.1025C122.443 28.2666 122.648 28.4762 122.789 28.7314C122.93 28.9867 123.001 29.2874 123.001 29.6338C123.001 29.8571 122.955 30.069 122.864 30.2695C122.773 30.4701 122.639 30.6478 122.461 30.8027C122.283 30.9577 122.064 31.0853 121.805 31.1855C121.545 31.2812 121.246 31.3428 120.909 31.3701L120.417 31.7461ZM120.417 35H117.532L118.161 33.9746H120.417C120.768 33.9746 121.06 33.9313 121.292 33.8447C121.524 33.7536 121.698 33.626 121.812 33.4619C121.93 33.2933 121.989 33.0928 121.989 32.8604C121.989 32.6279 121.93 32.4297 121.812 32.2656C121.698 32.097 121.524 31.9694 121.292 31.8828C121.06 31.7917 120.768 31.7461 120.417 31.7461H118.496L118.51 30.7344H120.909L121.367 31.1172C121.773 31.1491 122.117 31.2493 122.399 31.418C122.682 31.5866 122.896 31.8008 123.042 32.0605C123.188 32.3158 123.261 32.5938 123.261 32.8945C123.261 33.2409 123.195 33.5462 123.062 33.8105C122.935 34.0749 122.748 34.2959 122.502 34.4736C122.256 34.6468 121.957 34.779 121.606 34.8701C121.256 34.9567 120.859 35 120.417 35ZM128.025 35.1367C127.51 35.1367 127.043 35.0501 126.624 34.877C126.209 34.6992 125.852 34.4508 125.551 34.1318C125.255 33.8128 125.027 33.4346 124.867 32.9971C124.708 32.5596 124.628 32.0811 124.628 31.5615V31.2744C124.628 30.6729 124.717 30.1374 124.895 29.668C125.072 29.194 125.314 28.793 125.619 28.4648C125.924 28.1367 126.271 27.8883 126.658 27.7197C127.046 27.5511 127.447 27.4668 127.861 27.4668C128.39 27.4668 128.846 27.5579 129.229 27.7402C129.616 27.9225 129.933 28.1777 130.179 28.5059C130.425 28.8294 130.607 29.2122 130.726 29.6543C130.844 30.0918 130.903 30.5703 130.903 31.0898V31.6572H125.38V30.625H129.639V30.5293C129.62 30.2012 129.552 29.8822 129.434 29.5723C129.32 29.2624 129.137 29.0072 128.887 28.8066C128.636 28.6061 128.294 28.5059 127.861 28.5059C127.574 28.5059 127.31 28.5674 127.068 28.6904C126.827 28.8089 126.619 28.9867 126.446 29.2236C126.273 29.4606 126.139 29.75 126.043 30.0918C125.947 30.4336 125.899 30.8278 125.899 31.2744V31.5615C125.899 31.9124 125.947 32.2428 126.043 32.5527C126.143 32.8581 126.287 33.127 126.474 33.3594C126.665 33.5918 126.895 33.7741 127.164 33.9062C127.438 34.0384 127.747 34.1045 128.094 34.1045C128.54 34.1045 128.919 34.0133 129.229 33.8311C129.538 33.6488 129.81 33.4049 130.042 33.0996L130.808 33.708C130.648 33.9495 130.445 34.1797 130.199 34.3984C129.953 34.6172 129.65 34.7949 129.29 34.9316C128.935 35.0684 128.513 35.1367 128.025 35.1367ZM133.747 32.9971L137.158 27.6035H138.43V35H137.158V29.6064L133.747 35H132.489V27.6035H133.747V32.9971ZM136.468 24.9238H137.493C137.493 25.2793 137.411 25.596 137.247 25.874C137.083 26.1475 136.848 26.3617 136.543 26.5166C136.238 26.6715 135.875 26.749 135.456 26.749C134.823 26.749 134.321 26.5804 133.952 26.2432C133.588 25.9014 133.405 25.4616 133.405 24.9238H134.431C134.431 25.1927 134.508 25.4297 134.663 25.6348C134.818 25.8398 135.082 25.9424 135.456 25.9424C135.821 25.9424 136.08 25.8398 136.235 25.6348C136.39 25.4297 136.468 25.1927 136.468 24.9238ZM140.569 27.6035H141.834V33.9609H144.541V27.6035H145.812V33.9609H148.513V27.6035H149.777V35H140.569V27.6035ZM153.161 32.9971L156.572 27.6035H157.844V35H156.572V29.6064L153.161 35H151.903V27.6035H153.161V32.9971ZM160.729 27.6035L162.349 30.2969L163.989 27.6035H165.473L163.053 31.2539L165.548 35H164.085L162.376 32.2246L160.667 35H159.197L161.686 31.2539L159.272 27.6035H160.729ZM63.2549 53.3184L65.7705 47.6035H66.9873L63.6924 55H62.8174L59.5361 47.6035H60.7529L63.2549 53.3184ZM60.3838 47.6035V55H59.1191V47.6035H60.3838ZM66.085 55V47.6035H67.3564V55H66.085ZM72.4629 55.1367C71.9479 55.1367 71.4808 55.0501 71.0615 54.877C70.6468 54.6992 70.2891 54.4508 69.9883 54.1318C69.6921 53.8128 69.4642 53.4346 69.3047 52.9971C69.1452 52.5596 69.0654 52.0811 69.0654 51.5615V51.2744C69.0654 50.6729 69.1543 50.1374 69.332 49.668C69.5098 49.194 69.7513 48.793 70.0566 48.4648C70.362 48.1367 70.7083 47.8883 71.0957 47.7197C71.4831 47.5511 71.8841 47.4668 72.2988 47.4668C72.8275 47.4668 73.2832 47.5579 73.666 47.7402C74.0534 47.9225 74.3701 48.1777 74.6162 48.5059C74.8623 48.8294 75.0446 49.2122 75.1631 49.6543C75.2816 50.0918 75.3408 50.5703 75.3408 51.0898V51.6572H69.8174V50.625H74.0762V50.5293C74.0579 50.2012 73.9896 49.8822 73.8711 49.5723C73.7572 49.2624 73.5749 49.0072 73.3242 48.8066C73.0736 48.6061 72.7318 48.5059 72.2988 48.5059C72.0117 48.5059 71.7474 48.5674 71.5059 48.6904C71.2643 48.8089 71.057 48.9867 70.8838 49.2236C70.7106 49.4606 70.5762 49.75 70.4805 50.0918C70.3848 50.4336 70.3369 50.8278 70.3369 51.2744V51.5615C70.3369 51.9124 70.3848 52.2428 70.4805 52.5527C70.5807 52.8581 70.7243 53.127 70.9111 53.3594C71.1025 53.5918 71.3327 53.7741 71.6016 53.9062C71.875 54.0384 72.1849 54.1045 72.5312 54.1045C72.9779 54.1045 73.3561 54.0133 73.666 53.8311C73.9759 53.6488 74.2471 53.4049 74.4795 53.0996L75.2451 53.708C75.0856 53.9495 74.8828 54.1797 74.6367 54.3984C74.3906 54.6172 74.0876 54.7949 73.7275 54.9316C73.3721 55.0684 72.9505 55.1367 72.4629 55.1367ZM79.75 47.6035V55H78.4785V47.6035H79.75ZM82.2314 47.6035V48.6289H76.0449V47.6035H82.2314ZM82.8535 51.3838V51.2266C82.8535 50.6934 82.931 50.1989 83.0859 49.7432C83.2409 49.2829 83.4642 48.8841 83.7559 48.5469C84.0475 48.2051 84.4007 47.9408 84.8154 47.7539C85.2301 47.5625 85.695 47.4668 86.21 47.4668C86.7295 47.4668 87.1966 47.5625 87.6113 47.7539C88.0306 47.9408 88.3861 48.2051 88.6777 48.5469C88.974 48.8841 89.1995 49.2829 89.3545 49.7432C89.5094 50.1989 89.5869 50.6934 89.5869 51.2266V51.3838C89.5869 51.917 89.5094 52.4115 89.3545 52.8672C89.1995 53.3229 88.974 53.7217 88.6777 54.0635C88.3861 54.4007 88.0329 54.665 87.6182 54.8564C87.208 55.0433 86.7432 55.1367 86.2236 55.1367C85.7041 55.1367 85.237 55.0433 84.8223 54.8564C84.4076 54.665 84.0521 54.4007 83.7559 54.0635C83.4642 53.7217 83.2409 53.3229 83.0859 52.8672C82.931 52.4115 82.8535 51.917 82.8535 51.3838ZM84.1182 51.2266V51.3838C84.1182 51.7529 84.1615 52.1016 84.248 52.4297C84.3346 52.7533 84.4645 53.0404 84.6377 53.291C84.8154 53.5417 85.0365 53.7399 85.3008 53.8857C85.5651 54.027 85.8727 54.0977 86.2236 54.0977C86.57 54.0977 86.873 54.027 87.1328 53.8857C87.3971 53.7399 87.6159 53.5417 87.7891 53.291C87.9622 53.0404 88.0921 52.7533 88.1787 52.4297C88.2699 52.1016 88.3154 51.7529 88.3154 51.3838V51.2266C88.3154 50.862 88.2699 50.5179 88.1787 50.1943C88.0921 49.8662 87.96 49.5768 87.7822 49.3262C87.609 49.071 87.3903 48.8704 87.126 48.7246C86.8662 48.5788 86.5609 48.5059 86.21 48.5059C85.8636 48.5059 85.5583 48.5788 85.2939 48.7246C85.0342 48.8704 84.8154 49.071 84.6377 49.3262C84.4645 49.5768 84.3346 49.8662 84.248 50.1943C84.1615 50.5179 84.1182 50.862 84.1182 51.2266ZM92.0137 47.6035H93.2783L93.1689 50.3721C93.1416 51.0739 93.0618 51.68 92.9297 52.1904C92.7975 52.7008 92.6289 53.1361 92.4238 53.4961C92.2188 53.8516 91.9886 54.1501 91.7334 54.3916C91.4827 54.6331 91.223 54.8359 90.9541 55H90.3252L90.3594 53.9678L90.6191 53.9609C90.7695 53.7832 90.9154 53.6009 91.0566 53.4141C91.1979 53.2227 91.3278 52.9971 91.4463 52.7373C91.5648 52.473 91.6628 52.1517 91.7402 51.7734C91.8223 51.3906 91.8747 50.9235 91.8975 50.3721L92.0137 47.6035ZM92.3281 47.6035H96.7783V55H95.5137V48.7725H92.3281V47.6035ZM90.0381 53.9609H97.7285V57.1807H96.4639V55H91.3027V57.1807H90.0312L90.0381 53.9609ZM98.7949 51.3838V51.2266C98.7949 50.6934 98.8724 50.1989 99.0273 49.7432C99.1823 49.2829 99.4056 48.8841 99.6973 48.5469C99.9889 48.2051 100.342 47.9408 100.757 47.7539C101.172 47.5625 101.636 47.4668 102.151 47.4668C102.671 47.4668 103.138 47.5625 103.553 47.7539C103.972 47.9408 104.327 48.2051 104.619 48.5469C104.915 48.8841 105.141 49.2829 105.296 49.7432C105.451 50.1989 105.528 50.6934 105.528 51.2266V51.3838C105.528 51.917 105.451 52.4115 105.296 52.8672C105.141 53.3229 104.915 53.7217 104.619 54.0635C104.327 54.4007 103.974 54.665 103.56 54.8564C103.149 55.0433 102.685 55.1367 102.165 55.1367C101.646 55.1367 101.178 55.0433 100.764 54.8564C100.349 54.665 99.9935 54.4007 99.6973 54.0635C99.4056 53.7217 99.1823 53.3229 99.0273 52.8672C98.8724 52.4115 98.7949 51.917 98.7949 51.3838ZM100.06 51.2266V51.3838C100.06 51.7529 100.103 52.1016 100.189 52.4297C100.276 52.7533 100.406 53.0404 100.579 53.291C100.757 53.5417 100.978 53.7399 101.242 53.8857C101.507 54.027 101.814 54.0977 102.165 54.0977C102.511 54.0977 102.814 54.027 103.074 53.8857C103.339 53.7399 103.557 53.5417 103.73 53.291C103.904 53.0404 104.034 52.7533 104.12 52.4297C104.211 52.1016 104.257 51.7529 104.257 51.3838V51.2266C104.257 50.862 104.211 50.5179 104.12 50.1943C104.034 49.8662 103.901 49.5768 103.724 49.3262C103.55 49.071 103.332 48.8704 103.067 48.7246C102.808 48.5788 102.502 48.5059 102.151 48.5059C101.805 48.5059 101.5 48.5788 101.235 48.7246C100.976 48.8704 100.757 49.071 100.579 49.3262C100.406 49.5768 100.276 49.8662 100.189 50.1943C100.103 50.5179 100.06 50.862 100.06 51.2266ZM110.587 51.7461H108.16L108.146 50.7344H110.129C110.521 50.7344 110.847 50.6956 111.106 50.6182C111.371 50.5407 111.569 50.4245 111.701 50.2695C111.833 50.1146 111.899 49.9232 111.899 49.6953C111.899 49.5176 111.861 49.3626 111.783 49.2305C111.71 49.0938 111.599 48.9821 111.448 48.8955C111.298 48.8044 111.111 48.7383 110.888 48.6973C110.669 48.6517 110.411 48.6289 110.115 48.6289H108.495V55H107.23V47.6035H110.115C110.585 47.6035 111.006 47.6445 111.38 47.7266C111.758 47.8086 112.079 47.9339 112.344 48.1025C112.613 48.2666 112.818 48.4762 112.959 48.7314C113.1 48.9867 113.171 49.2874 113.171 49.6338C113.171 49.8571 113.125 50.069 113.034 50.2695C112.943 50.4701 112.809 50.6478 112.631 50.8027C112.453 50.9577 112.234 51.0853 111.975 51.1855C111.715 51.2812 111.416 51.3428 111.079 51.3701L110.587 51.7461ZM110.587 55H107.702L108.331 53.9746H110.587C110.938 53.9746 111.229 53.9313 111.462 53.8447C111.694 53.7536 111.868 53.626 111.981 53.4619C112.1 53.2933 112.159 53.0928 112.159 52.8604C112.159 52.6279 112.1 52.4297 111.981 52.2656C111.868 52.097 111.694 51.9694 111.462 51.8828C111.229 51.7917 110.938 51.7461 110.587 51.7461H108.666L108.68 50.7344H111.079L111.537 51.1172C111.943 51.1491 112.287 51.2493 112.569 51.418C112.852 51.5866 113.066 51.8008 113.212 52.0605C113.358 52.3158 113.431 52.5938 113.431 52.8945C113.431 53.2409 113.365 53.5462 113.232 53.8105C113.105 54.0749 112.918 54.2959 112.672 54.4736C112.426 54.6468 112.127 54.779 111.776 54.8701C111.425 54.9567 111.029 55 110.587 55ZM122.071 51.7461H119.645L119.631 50.7344H121.613C122.005 50.7344 122.331 50.6956 122.591 50.6182C122.855 50.5407 123.053 50.4245 123.186 50.2695C123.318 50.1146 123.384 49.9232 123.384 49.6953C123.384 49.5176 123.345 49.3626 123.268 49.2305C123.195 49.0938 123.083 48.9821 122.933 48.8955C122.782 48.8044 122.595 48.7383 122.372 48.6973C122.153 48.6517 121.896 48.6289 121.6 48.6289H119.979V55H118.715V47.6035H121.6C122.069 47.6035 122.491 47.6445 122.864 47.7266C123.243 47.8086 123.564 47.9339 123.828 48.1025C124.097 48.2666 124.302 48.4762 124.443 48.7314C124.585 48.9867 124.655 49.2874 124.655 49.6338C124.655 49.8571 124.61 50.069 124.519 50.2695C124.427 50.4701 124.293 50.6478 124.115 50.8027C123.938 50.9577 123.719 51.0853 123.459 51.1855C123.199 51.2812 122.901 51.3428 122.563 51.3701L122.071 51.7461ZM122.071 55H119.187L119.815 53.9746H122.071C122.422 53.9746 122.714 53.9313 122.946 53.8447C123.179 53.7536 123.352 53.626 123.466 53.4619C123.584 53.2933 123.644 53.0928 123.644 52.8604C123.644 52.6279 123.584 52.4297 123.466 52.2656C123.352 52.097 123.179 51.9694 122.946 51.8828C122.714 51.7917 122.422 51.7461 122.071 51.7461H120.15L120.164 50.7344H122.563L123.021 51.1172C123.427 51.1491 123.771 51.2493 124.054 51.418C124.336 51.5866 124.55 51.8008 124.696 52.0605C124.842 52.3158 124.915 52.5938 124.915 52.8945C124.915 53.2409 124.849 53.5462 124.717 53.8105C124.589 54.0749 124.402 54.2959 124.156 54.4736C123.91 54.6468 123.612 54.779 123.261 54.8701C122.91 54.9567 122.513 55 122.071 55ZM64.0205 70.8096V71.835H60.1104V70.8096H64.0205ZM60.377 67.6035V75H59.1123V67.6035H60.377ZM65.0459 67.6035V75H63.7744V67.6035H65.0459ZM71.4443 73.7354V69.9277C71.4443 69.6361 71.3851 69.3831 71.2666 69.1689C71.1527 68.9502 70.9795 68.7816 70.7471 68.6631C70.5146 68.5446 70.2275 68.4854 69.8857 68.4854C69.5667 68.4854 69.2865 68.54 69.0449 68.6494C68.8079 68.7588 68.6211 68.9023 68.4844 69.0801C68.3522 69.2578 68.2861 69.4492 68.2861 69.6543H67.0215C67.0215 69.39 67.0898 69.1279 67.2266 68.8682C67.3633 68.6084 67.5592 68.3737 67.8145 68.1641C68.0742 67.9499 68.3841 67.7812 68.7441 67.6582C69.1087 67.5306 69.5143 67.4668 69.9609 67.4668C70.4987 67.4668 70.9727 67.5579 71.3828 67.7402C71.7975 67.9225 72.1211 68.1982 72.3535 68.5674C72.5905 68.932 72.709 69.39 72.709 69.9414V73.3867C72.709 73.6328 72.7295 73.8949 72.7705 74.1729C72.8161 74.4508 72.8822 74.6901 72.9688 74.8906V75H71.6494C71.5856 74.8542 71.5355 74.6605 71.499 74.4189C71.4626 74.1729 71.4443 73.945 71.4443 73.7354ZM71.6631 70.5156L71.6768 71.4043H70.3984C70.0384 71.4043 69.7171 71.4339 69.4346 71.4932C69.152 71.5479 68.915 71.6322 68.7236 71.7461C68.5322 71.86 68.3864 72.0036 68.2861 72.1768C68.1859 72.3454 68.1357 72.5436 68.1357 72.7715C68.1357 73.0039 68.1882 73.2158 68.293 73.4072C68.3978 73.5986 68.555 73.7513 68.7646 73.8652C68.9788 73.9746 69.2409 74.0293 69.5508 74.0293C69.9382 74.0293 70.2799 73.9473 70.5762 73.7832C70.8724 73.6191 71.1071 73.4186 71.2803 73.1816C71.458 72.9447 71.5537 72.7145 71.5674 72.4912L72.1074 73.0996C72.0755 73.291 71.9889 73.5029 71.8477 73.7354C71.7064 73.9678 71.5173 74.1911 71.2803 74.4053C71.0479 74.6149 70.7699 74.7904 70.4463 74.9316C70.1273 75.0684 69.7673 75.1367 69.3662 75.1367C68.8649 75.1367 68.4251 75.0387 68.0469 74.8428C67.6732 74.6468 67.3815 74.3848 67.1719 74.0566C66.9668 73.724 66.8643 73.3525 66.8643 72.9424C66.8643 72.5459 66.9417 72.1973 67.0967 71.8965C67.2516 71.5911 67.4749 71.3382 67.7666 71.1377C68.0583 70.9326 68.4092 70.7777 68.8193 70.6729C69.2295 70.568 69.6875 70.5156 70.1934 70.5156H71.6631ZM75.9629 69.0254V77.8438H74.6914V67.6035H75.8535L75.9629 69.0254ZM80.9463 71.2402V71.3838C80.9463 71.9215 80.8825 72.4206 80.7549 72.8809C80.6273 73.3366 80.4404 73.7331 80.1943 74.0703C79.9528 74.4076 79.6543 74.6696 79.2988 74.8564C78.9434 75.0433 78.5355 75.1367 78.0752 75.1367C77.6058 75.1367 77.1911 75.0592 76.8311 74.9043C76.471 74.7493 76.1657 74.5238 75.915 74.2275C75.6644 73.9313 75.4639 73.5758 75.3135 73.1611C75.1676 72.7464 75.0674 72.2793 75.0127 71.7598V70.9941C75.0674 70.4473 75.1699 69.9574 75.3203 69.5244C75.4707 69.0915 75.6689 68.7223 75.915 68.417C76.1657 68.1071 76.4688 67.8724 76.8242 67.7129C77.1797 67.5488 77.5898 67.4668 78.0547 67.4668C78.5195 67.4668 78.932 67.5579 79.292 67.7402C79.652 67.918 79.9551 68.1732 80.2012 68.5059C80.4473 68.8385 80.6318 69.2373 80.7549 69.7021C80.8825 70.1624 80.9463 70.6751 80.9463 71.2402ZM79.6748 71.3838V71.2402C79.6748 70.8711 79.6361 70.5247 79.5586 70.2012C79.4811 69.873 79.3604 69.5859 79.1963 69.3398C79.0368 69.0892 78.8317 68.8932 78.5811 68.752C78.3304 68.6061 78.0319 68.5332 77.6855 68.5332C77.3665 68.5332 77.0885 68.5879 76.8516 68.6973C76.6191 68.8066 76.4209 68.9548 76.2568 69.1416C76.0928 69.3239 75.9583 69.5335 75.8535 69.7705C75.7533 70.0029 75.6781 70.2445 75.6279 70.4951V72.2656C75.7191 72.5846 75.8467 72.8854 76.0107 73.168C76.1748 73.446 76.3936 73.6715 76.667 73.8447C76.9404 74.0133 77.2845 74.0977 77.6992 74.0977C78.041 74.0977 78.335 74.027 78.5811 73.8857C78.8317 73.7399 79.0368 73.5417 79.1963 73.291C79.3604 73.0404 79.4811 72.7533 79.5586 72.4297C79.6361 72.1016 79.6748 71.7529 79.6748 71.3838ZM83.9336 67.6035V75H82.6689V67.6035H83.9336ZM88.7871 67.6035L85.2803 71.8418H83.5098L83.3184 70.7344H84.7676L87.249 67.6035H88.7871ZM87.4268 75L84.7061 71.6504L85.5195 70.7344L89.0332 75H87.4268ZM89.6484 71.3838V71.2266C89.6484 70.6934 89.7259 70.1989 89.8809 69.7432C90.0358 69.2829 90.2591 68.8841 90.5508 68.5469C90.8424 68.2051 91.1956 67.9408 91.6104 67.7539C92.0251 67.5625 92.4899 67.4668 93.0049 67.4668C93.5244 67.4668 93.9915 67.5625 94.4062 67.7539C94.8255 67.9408 95.181 68.2051 95.4727 68.5469C95.7689 68.8841 95.9945 69.2829 96.1494 69.7432C96.3044 70.1989 96.3818 70.6934 96.3818 71.2266V71.3838C96.3818 71.917 96.3044 72.4115 96.1494 72.8672C95.9945 73.3229 95.7689 73.7217 95.4727 74.0635C95.181 74.4007 94.8278 74.665 94.4131 74.8564C94.0029 75.0433 93.5381 75.1367 93.0186 75.1367C92.499 75.1367 92.0319 75.0433 91.6172 74.8564C91.2025 74.665 90.847 74.4007 90.5508 74.0635C90.2591 73.7217 90.0358 73.3229 89.8809 72.8672C89.7259 72.4115 89.6484 71.917 89.6484 71.3838ZM90.9131 71.2266V71.3838C90.9131 71.7529 90.9564 72.1016 91.043 72.4297C91.1296 72.7533 91.2594 73.0404 91.4326 73.291C91.6104 73.5417 91.8314 73.7399 92.0957 73.8857C92.36 74.027 92.6676 74.0977 93.0186 74.0977C93.3649 74.0977 93.668 74.027 93.9277 73.8857C94.1921 73.7399 94.4108 73.5417 94.584 73.291C94.7572 73.0404 94.887 72.7533 94.9736 72.4297C95.0648 72.1016 95.1104 71.7529 95.1104 71.3838V71.2266C95.1104 70.862 95.0648 70.5179 94.9736 70.1943C94.887 69.8662 94.7549 69.5768 94.5771 69.3262C94.404 69.071 94.1852 68.8704 93.9209 68.7246C93.6611 68.5788 93.3558 68.5059 93.0049 68.5059C92.6585 68.5059 92.3532 68.5788 92.0889 68.7246C91.8291 68.8704 91.6104 69.071 91.4326 69.3262C91.2594 69.5768 91.1296 69.8662 91.043 70.1943C90.9564 70.5179 90.9131 70.862 90.9131 71.2266ZM102.801 67.6035V68.6494H99.2256V67.6035H102.801ZM103.915 67.6035V75H102.65V67.6035H103.915ZM98.918 67.6035H100.189L99.998 71.1719C99.9661 71.7233 99.9137 72.2109 99.8408 72.6348C99.7725 73.054 99.6768 73.4141 99.5537 73.7148C99.4352 74.0156 99.2848 74.2617 99.1025 74.4531C98.9248 74.64 98.7106 74.779 98.46 74.8701C98.2093 74.9567 97.9199 75 97.5918 75H97.1953V73.8857L97.4688 73.8652C97.6647 73.8516 97.8311 73.806 97.9678 73.7285C98.109 73.651 98.2275 73.5371 98.3232 73.3867C98.4189 73.2318 98.4964 73.0335 98.5557 72.792C98.6195 72.5505 98.6673 72.2633 98.6992 71.9307C98.7357 71.598 98.763 71.2106 98.7812 70.7686L98.918 67.6035ZM105.617 71.3838V71.2266C105.617 70.6934 105.695 70.1989 105.85 69.7432C106.005 69.2829 106.228 68.8841 106.52 68.5469C106.811 68.2051 107.164 67.9408 107.579 67.7539C107.994 67.5625 108.459 67.4668 108.974 67.4668C109.493 67.4668 109.96 67.5625 110.375 67.7539C110.794 67.9408 111.15 68.2051 111.441 68.5469C111.738 68.8841 111.963 69.2829 112.118 69.7432C112.273 70.1989 112.351 70.6934 112.351 71.2266V71.3838C112.351 71.917 112.273 72.4115 112.118 72.8672C111.963 73.3229 111.738 73.7217 111.441 74.0635C111.15 74.4007 110.797 74.665 110.382 74.8564C109.972 75.0433 109.507 75.1367 108.987 75.1367C108.468 75.1367 108.001 75.0433 107.586 74.8564C107.171 74.665 106.816 74.4007 106.52 74.0635C106.228 73.7217 106.005 73.3229 105.85 72.8672C105.695 72.4115 105.617 71.917 105.617 71.3838ZM106.882 71.2266V71.3838C106.882 71.7529 106.925 72.1016 107.012 72.4297C107.098 72.7533 107.228 73.0404 107.401 73.291C107.579 73.5417 107.8 73.7399 108.064 73.8857C108.329 74.027 108.636 74.0977 108.987 74.0977C109.334 74.0977 109.637 74.027 109.896 73.8857C110.161 73.7399 110.38 73.5417 110.553 73.291C110.726 73.0404 110.856 72.7533 110.942 72.4297C111.034 72.1016 111.079 71.7529 111.079 71.3838V71.2266C111.079 70.862 111.034 70.5179 110.942 70.1943C110.856 69.8662 110.724 69.5768 110.546 69.3262C110.373 69.071 110.154 68.8704 109.89 68.7246C109.63 68.5788 109.325 68.5059 108.974 68.5059C108.627 68.5059 108.322 68.5788 108.058 68.7246C107.798 68.8704 107.579 69.071 107.401 69.3262C107.228 69.5768 107.098 69.8662 107.012 70.1943C106.925 70.5179 106.882 70.862 106.882 71.2266ZM118.715 67.6035V68.6494H115.297V75H114.032V67.6035H118.715ZM121.183 72.9971L124.594 67.6035H125.865V75H124.594V69.6064L121.183 75H119.925V67.6035H121.183V72.9971ZM129.263 72.9971L132.674 67.6035H133.945V75H132.674V69.6064L129.263 75H128.005V67.6035H129.263V72.9971Z" fill="white"/>
</svg>
