<svg width="153" height="54" viewBox="0 0 153 54" fill="none" xmlns="http://www.w3.org/2000/svg">
<g clip-path="url(#clip0_247_1731)">
<path d="M20.9907 6.01665C9.39785 9.33964 2.69478 21.4279 6.01897 33.0166C9.34315 44.6053 21.4358 51.306 33.0287 47.983C44.6215 44.66 51.3246 32.5717 48.0004 20.983C44.6762 9.39431 32.5836 2.69366 20.9907 6.01665ZM30.8229 40.2933L12.2744 22.4224L37.0794 15.3123L30.8229 40.2933Z" fill="#009688"/>
<path d="M28.403 31.8567L31.004 21.4713L20.6918 24.4508L28.403 31.8567Z" fill="#009688"/>
<path fill-rule="evenodd" clip-rule="evenodd" d="M78.6416 47.2382L79.3188 44.2515C79.53 44.3476 79.7864 44.4401 80.0881 44.529C80.2095 44.5648 80.3316 44.5984 80.4542 44.6298C80.8619 44.7361 81.2804 44.7957 81.7015 44.8074C81.7439 44.8084 81.7863 44.809 81.8286 44.809C82.2758 44.8115 82.7223 44.7764 83.1636 44.7038C83.6496 44.621 84.0877 44.4891 84.4778 44.308C84.7545 44.1807 85.0152 44.0214 85.2547 43.8333C85.5855 43.5673 85.885 43.2645 86.1474 42.9309C86.4082 42.6046 86.6599 42.2312 86.9024 41.8107C87.1149 41.4391 87.3095 41.0575 87.4856 40.6673C85.9811 37.7936 84.6022 34.8558 83.3528 31.8624C83.1675 31.4201 82.9848 30.9767 82.8046 30.5323C81.3572 26.9614 80.1554 23.3442 79.1993 19.6804H83.1831C83.4753 20.8751 83.8272 22.1627 84.2388 23.5433C84.6505 24.9238 85.1086 26.3442 85.6132 27.8044C86.1178 29.2646 86.6623 30.7248 87.2466 32.185C87.8308 33.6451 88.4417 35.0522 89.0791 36.4062C90.0883 33.6186 90.9648 30.8575 91.7084 28.123C92.452 25.3884 93.1558 22.5742 93.8198 19.6804H97.6442C96.6881 23.5831 95.6258 27.3331 94.4572 30.9305C93.6839 33.3198 92.8361 35.6843 91.9152 38.0207C91.5168 39.0288 91.1025 40.0306 90.6726 41.0258C90.1414 42.2205 89.5903 43.2492 89.0193 44.1121C88.723 44.5634 88.3919 44.991 88.029 45.3908C87.7502 45.697 87.4487 45.9818 87.127 46.2426C86.4365 46.8002 85.6597 47.2117 84.7965 47.4772C84.288 47.6311 83.7665 47.7387 83.2385 47.7985C82.7837 47.8509 82.3262 47.8766 81.8685 47.8754C81.5763 47.8754 81.2709 47.8555 80.9522 47.8157C80.6335 47.7758 80.3214 47.7227 80.016 47.6564C79.8517 47.6208 79.6884 47.5814 79.526 47.5381C79.4097 47.507 79.2942 47.4734 79.1794 47.4373C78.9271 47.3577 78.7478 47.2913 78.6416 47.2382ZM139.394 13.2688V19.6804H147.242V22.7866H139.394V32.3442C139.394 33.0895 139.436 33.7419 139.518 34.3016C139.548 34.5069 139.586 34.7108 139.633 34.9129C139.793 35.5899 140.032 36.1208 140.35 36.5058C140.669 36.8908 141.067 37.1629 141.545 37.3222C141.994 37.4716 142.512 37.551 143.1 37.5603C143.139 37.5609 143.179 37.5612 143.219 37.5611C143.569 37.5622 143.92 37.5479 144.269 37.5185C144.59 37.4904 144.887 37.4483 145.161 37.3923C145.415 37.3417 145.664 37.2717 145.908 37.1828C146.585 36.9306 147.056 36.7514 147.322 36.6452L148.039 39.7116C147.931 39.765 147.82 39.8145 147.708 39.8597C147.45 39.9651 147.122 40.0822 146.722 40.211C146.511 40.279 146.299 40.3449 146.087 40.4085C145.568 40.5616 145.037 40.6704 144.499 40.7339C143.969 40.7973 143.434 40.8282 142.9 40.8266C142.425 40.8282 141.95 40.8051 141.478 40.7573C140.689 40.6748 140.001 40.5187 139.414 40.289C138.88 40.0846 138.382 39.7959 137.939 39.434C137.667 39.2091 137.42 38.955 137.203 38.6762C136.844 38.2089 136.557 37.6903 136.352 37.1378C136.216 36.7765 136.108 36.4055 136.028 36.0279C135.917 35.5048 135.836 34.9759 135.785 34.4437C135.721 33.8042 135.689 33.1176 135.689 32.3841V13.906L139.394 13.2688ZM64.6984 30.154H61.6309V40.3886H57.7666V13.1892C58.3934 13.0381 59.0273 12.9186 59.6661 12.8312C60.2457 12.7511 60.828 12.6912 61.4118 12.6516C62.753 12.5586 63.9813 12.5122 65.0968 12.5122C68.9743 12.5122 71.9555 13.2489 74.0403 14.7224C74.8862 15.3127 75.595 16.0781 76.1187 16.9666C76.6424 17.8551 76.9686 18.8458 77.0752 19.8715C77.138 20.3495 77.1689 20.8311 77.1676 21.3132C77.1676 22.9061 76.8821 24.2667 76.3111 25.3951C75.7401 26.5234 74.9168 27.4393 73.8411 28.1429C73.2223 28.543 72.5604 28.8722 71.868 29.1245C71.2325 29.3572 70.5804 29.5416 69.9171 29.6761C68.3887 29.9923 66.6642 30.1516 64.7438 30.154C64.7287 30.154 64.7135 30.154 64.6984 30.154ZM108.281 37.6806L107.763 40.7868C107.201 40.7764 106.64 40.7313 106.083 40.6518C104.868 40.4718 103.915 40.1183 103.225 39.5913C103.113 39.5051 103.005 39.4123 102.903 39.3133C102.437 38.8505 102.085 38.2866 101.873 37.6655C101.713 37.2192 101.601 36.7214 101.536 36.1721C101.49 35.7739 101.467 35.3734 101.469 34.9726V10.1228L105.174 9.4856V34.3752C105.173 34.5812 105.18 34.7871 105.194 34.9925C105.208 35.185 105.228 35.3637 105.256 35.5285C105.276 35.6497 105.302 35.7698 105.333 35.8885C105.375 36.0517 105.434 36.2102 105.509 36.3616C105.596 36.54 105.711 36.7031 105.851 36.8443C105.992 36.9835 106.153 37.1003 106.33 37.1908C106.474 37.2659 106.633 37.3296 106.807 37.3819C106.968 37.4296 107.13 37.4716 107.294 37.5078C107.477 37.5486 107.674 37.5865 107.885 37.6213C108.017 37.6428 108.149 37.6626 108.281 37.6806ZM130.507 32.5231C130.645 31.7008 130.713 30.8682 130.71 30.0345C130.71 28.415 130.471 26.9349 129.993 25.5942C129.514 24.2535 128.844 23.1052 127.981 22.1494C127.118 21.1937 126.088 20.457 124.893 19.9392C124.552 19.7914 124.202 19.6645 123.845 19.5593C122.917 19.2906 121.955 19.157 120.989 19.1627C120.815 19.1626 120.64 19.1666 120.466 19.1746C119.302 19.2213 118.156 19.4804 117.085 19.9392C115.89 20.457 114.861 21.1937 113.998 22.1494C113.671 22.5112 113.374 22.8979 113.108 23.3059C112.645 24.0217 112.268 24.7898 111.986 25.5942C111.781 26.1714 111.622 26.7636 111.509 27.3655C111.345 28.2457 111.265 29.1393 111.269 30.0345C111.269 31.6805 111.508 33.1673 111.986 34.4947C112.464 35.8222 113.134 36.9638 113.998 37.9195C114.861 38.8753 115.89 39.612 117.085 40.1297C117.426 40.2776 117.776 40.4045 118.133 40.5096C119.061 40.7784 120.023 40.912 120.989 40.9063C121.164 40.9064 121.338 40.9024 121.512 40.8943C122.676 40.8477 123.822 40.5885 124.893 40.1297C126.088 39.612 127.118 38.8753 127.981 37.9195C128.279 37.5889 128.554 37.2376 128.803 36.8682C129.296 36.1294 129.696 35.3321 129.993 34.4947C130.221 33.8538 130.394 33.1941 130.507 32.5231ZM125.951 25.5767C125.761 25.1894 125.534 24.8217 125.272 24.4791C124.223 23.1118 122.795 22.4282 120.989 22.4282C120.303 22.4201 119.621 22.5347 118.975 22.7667C118.07 23.108 117.283 23.7024 116.707 24.4791C115.658 25.8464 115.133 27.6982 115.133 30.0345C115.133 31.7957 115.431 33.2817 116.027 34.4923C116.217 34.8796 116.445 35.2472 116.707 35.5899C117.756 36.9571 119.183 37.6408 120.989 37.6408C121.675 37.6489 122.357 37.5343 123.003 37.3023C123.908 36.961 124.696 36.3665 125.272 35.5899C126.321 34.2226 126.845 32.3708 126.845 30.0345C126.845 28.2732 126.547 26.7873 125.951 25.5767ZM61.6309 16.0166V26.8486H64.539C65.1657 26.8497 65.7922 26.8285 66.4174 26.7849C66.989 26.7453 67.5586 26.6802 68.1244 26.5898C69.0731 26.4358 69.8895 26.1863 70.5737 25.8415C70.6546 25.8007 70.7345 25.7581 70.8135 25.7136C71.5438 25.3021 72.1082 24.738 72.5066 24.0211C72.6999 23.6663 72.8434 23.2866 72.9328 22.8926C73.0149 22.5456 73.0675 22.1691 73.0906 21.7632C73.0997 21.6 73.1043 21.4367 73.1041 21.2733C73.1041 20.398 72.9643 19.6489 72.6847 19.0261C72.6261 18.8953 72.56 18.7681 72.4867 18.645C72.075 17.9547 71.5173 17.4038 70.8135 16.9923C70.3379 16.7173 69.8303 16.5018 69.302 16.3508C68.9935 16.2614 68.6801 16.1898 68.3635 16.1361C67.4339 15.9768 66.4512 15.8972 65.4155 15.8972C63.7688 15.8972 62.5073 15.937 61.6309 16.0166Z" fill="#181818" stroke="#181818" stroke-width="0.390566" stroke-linecap="round"/>
</g>
<defs>
<clipPath id="clip0_247_1731">
<rect width="153" height="54" fill="white"/>
</clipPath>
</defs>
</svg>
