<svg width="11" height="6" viewBox="0 0 11 6" fill="none" xmlns="http://www.w3.org/2000/svg">
<path d="M9.56088 0.32739L5.5 4.28589L1.43913 0.32739C1.36657 0.256521 1.26917 0.216846 1.16775 0.216846C1.06633 0.216846 0.96893 0.256521 0.896376 0.32739C0.861245 0.36181 0.833336 0.402895 0.814283 0.448238C0.79523 0.49358 0.785416 0.542269 0.785416 0.591452C0.785416 0.640635 0.79523 0.689323 0.814283 0.734666C0.833336 0.780008 0.861245 0.821093 0.896376 0.855514L5.21644 5.06751C5.2923 5.14146 5.39406 5.18285 5.5 5.18285C5.60594 5.18285 5.7077 5.14146 5.78356 5.06751L10.1036 0.856327C10.139 0.82188 10.1671 0.780694 10.1863 0.735202C10.2055 0.689709 10.2154 0.640831 10.2154 0.591452C10.2154 0.542073 10.2055 0.493195 10.1863 0.447702C10.1671 0.402209 10.139 0.361023 10.1036 0.326577C10.0311 0.255708 9.93367 0.216034 9.83225 0.216034C9.73083 0.216034 9.63343 0.255708 9.56088 0.326577V0.32739Z" fill="#212121"/>
</svg>
