<svg width="10" height="14" viewBox="0 0 10 14" fill="none" xmlns="http://www.w3.org/2000/svg">
<path fill-rule="evenodd" clip-rule="evenodd" d="M4.99992 0.333496C2.41992 0.333496 0.333252 2.42016 0.333252 5.00016C0.333252 8.50016 4.99992 13.6668 4.99992 13.6668C4.99992 13.6668 9.66659 8.50016 9.66659 5.00016C9.66659 2.42016 7.57992 0.333496 4.99992 0.333496ZM1.66659 5.00016C1.66659 3.16016 3.15992 1.66683 4.99992 1.66683C6.83992 1.66683 8.33325 3.16016 8.33325 5.00016C8.33325 6.92016 6.41325 9.7935 4.99992 11.5868C3.61325 9.80683 1.66659 6.90016 1.66659 5.00016ZM3.33325 5.00016C3.33325 4.07969 4.07944 3.3335 4.99992 3.3335C5.59536 3.3335 6.14557 3.65116 6.44329 4.16683C6.74102 4.6825 6.74102 5.31783 6.44329 5.8335C6.14557 6.34916 5.59536 6.66683 4.99992 6.66683C4.07944 6.66683 3.33325 5.92064 3.33325 5.00016Z" fill="#C40B0B"/>
</svg>
