<svg width="31" height="37" viewBox="0 0 31 37" fill="none" xmlns="http://www.w3.org/2000/svg">
<path d="M12.6703 1.14469C12.8003 1.01154 12.9557 0.90579 13.1273 0.833682C13.2989 0.761574 13.4832 0.72457 13.6693 0.724855C13.8554 0.725141 14.0396 0.76271 14.2109 0.835344C14.3823 0.907978 14.5374 1.01421 14.667 1.14776L30.5369 17.4311C30.8156 17.717 30.9716 18.1006 30.9716 18.4999C30.9716 18.8992 30.8156 19.2827 30.5369 19.5687L14.667 35.852C14.5372 35.9854 14.3819 36.0914 14.2105 36.1637C14.039 36.2361 13.8548 36.2734 13.6686 36.2734C13.4825 36.2734 13.2983 36.2361 13.1268 36.1637C12.9553 36.0914 12.8001 35.9854 12.6703 35.852C12.4031 35.5785 12.2536 35.2114 12.2536 34.8291C12.2536 34.4468 12.4031 34.0797 12.6703 33.8063L27.5938 18.4999L12.6703 3.18738C12.4041 2.91405 12.2551 2.54758 12.2551 2.16604C12.2551 1.7845 12.4041 1.41803 12.6703 1.14469ZM0.420262 1.14469C0.550305 1.01154 0.705704 0.90579 0.877289 0.833682C1.04887 0.761574 1.23316 0.72457 1.41928 0.724855C1.6054 0.725141 1.78958 0.76271 1.96094 0.835344C2.1323 0.907978 2.28738 1.01421 2.41701 1.14776L18.2869 17.4311C18.5656 17.717 18.7216 18.1006 18.7216 18.4999C18.7216 18.8992 18.5656 19.2827 18.2869 19.5687L2.41701 35.852C2.28717 35.9854 2.13194 36.0914 1.96046 36.1637C1.78899 36.2361 1.60476 36.2734 1.41864 36.2734C1.23252 36.2734 1.04828 36.2361 0.87681 36.1637C0.705337 36.0914 0.5501 35.9854 0.420262 35.852C0.153144 35.5785 0.00360107 35.2114 0.00360107 34.8291C0.00360107 34.4468 0.153144 34.0797 0.420262 33.8063L15.3438 18.4999L0.420262 3.18738C0.15406 2.91405 0.00509425 2.54758 0.00509425 2.16604C0.00509425 1.7845 0.15406 1.41803 0.420262 1.14469Z" fill="#1E7CCF"/>
</svg>
