<svg width="149" height="154" viewBox="0 0 149 154" fill="none" xmlns="http://www.w3.org/2000/svg">
<g clip-path="url(#clip0_20_46)">
<path d="M107.298 36.5006H106.461V13.381C106.461 9.83211 105.06 6.42861 102.567 3.91919C100.074 1.40978 96.6927 1.74548e-09 93.1671 1.74548e-09H44.504C42.7583 -2.83795e-05 41.0296 0.346052 39.4168 1.01848C37.8039 1.69091 36.3384 2.67652 35.104 3.91904C33.8696 5.16156 32.8904 6.63665 32.2223 8.26009C31.5542 9.88353 31.2103 11.6235 31.2103 13.3807V140.217C31.2103 143.766 32.6108 147.169 35.1039 149.679C37.5969 152.188 40.9781 153.598 44.5038 153.598H93.1664C96.6921 153.598 100.073 152.188 102.566 149.679C105.059 147.169 106.46 143.766 106.46 140.217V52.9576H107.297L107.298 36.5006Z" fill="#3F3D56"/>
<path d="M103.734 12.4849V141.113C103.733 143.804 102.671 146.384 100.782 148.287C98.8915 150.19 96.3282 151.259 93.6551 151.26H43.9937C41.3195 151.261 38.7547 150.192 36.8634 148.289C34.972 146.386 33.9091 143.805 33.9083 141.113V12.4849C33.9091 9.79321 34.972 7.2121 36.8632 5.30923C38.7545 3.40635 41.3192 2.33755 43.9932 2.33789H50.0174C49.7216 3.0701 49.6091 3.86423 49.6896 4.65049C49.7701 5.43676 50.0413 6.19107 50.4792 6.84714C50.9172 7.50321 51.5086 8.04095 52.2014 8.41308C52.8941 8.78522 53.6671 8.98037 54.4524 8.98137H82.7652C83.5505 8.98037 84.3235 8.78522 85.0163 8.41308C85.709 8.04095 86.3004 7.50321 86.7384 6.84714C87.1764 6.19107 87.4475 5.43676 87.528 4.65049C87.6086 3.86423 87.496 3.0701 87.2002 2.33789H93.6532C96.3262 2.33835 98.8897 3.40728 100.78 5.30969C102.67 7.21209 103.733 9.79225 103.734 12.4829V12.4849Z" fill="white"/>
<path d="M91.4239 86.5763H47.2939C47.0772 86.576 46.8695 86.4893 46.7163 86.3351C46.5631 86.1809 46.4769 85.9718 46.4767 85.7537V74.7351C46.477 74.5171 46.5632 74.308 46.7164 74.1538C46.8696 73.9996 47.0772 73.9129 47.2939 73.9126H91.4239C91.6405 73.9129 91.8482 73.9996 92.0014 74.1538C92.1546 74.308 92.2407 74.5171 92.241 74.7351V85.7539C92.2407 85.972 92.1546 86.181 92.0014 86.3352C91.8482 86.4894 91.6405 86.5762 91.4239 86.5765V86.5763ZM47.2939 74.2415C47.1639 74.2416 47.0392 74.2937 46.9473 74.3862C46.8553 74.4788 46.8036 74.6043 46.8035 74.7351V85.7539C46.8036 85.8848 46.8553 86.0103 46.9473 86.1028C47.0392 86.1954 47.1639 86.2474 47.2939 86.2475H91.4239C91.5539 86.2474 91.6786 86.1954 91.7705 86.1028C91.8624 86.0103 91.9141 85.8848 91.9143 85.7539V74.7351C91.9141 74.6043 91.8624 74.4788 91.7705 74.3862C91.6786 74.2937 91.5539 74.2416 91.4239 74.2415H47.2939Z" fill="#E6E6E6"/>
<path d="M60.9416 77.8804C60.7899 77.8804 60.6444 77.941 60.5371 78.049C60.4298 78.157 60.3696 78.3035 60.3696 78.4562C60.3696 78.6089 60.4298 78.7554 60.5371 78.8634C60.6444 78.9714 60.7899 79.0321 60.9416 79.0321H87.9098C88.0614 79.0379 88.2092 78.9829 88.3205 78.8791C88.4318 78.7753 88.4976 78.6312 88.5035 78.4786C88.5093 78.3259 88.4546 78.1772 88.3515 78.0652C88.2484 77.9531 88.1052 77.8868 87.9536 77.881C87.9452 77.8807 87.9368 77.8805 87.9284 77.8806H60.9416V77.8804Z" fill="#E6E6E6"/>
<path d="M60.9416 81.335C60.7899 81.335 60.6444 81.3956 60.5371 81.5036C60.4298 81.6116 60.3696 81.7581 60.3696 81.9108C60.3696 82.0635 60.4298 82.21 60.5371 82.318C60.6444 82.426 60.7899 82.4867 60.9416 82.4867H87.9098C88.0614 82.4925 88.2092 82.4375 88.3205 82.3337C88.4318 82.2299 88.4976 82.0858 88.5035 81.9332C88.5093 81.7805 88.4546 81.6318 88.3515 81.5198C88.2484 81.4077 88.1052 81.3414 87.9536 81.3356C87.9452 81.3353 87.9368 81.3351 87.9284 81.3352H60.9416V81.335Z" fill="#E6E6E6"/>
<path d="M91.4239 104.942H47.2939C47.0772 104.942 46.8695 104.855 46.7163 104.701C46.5631 104.547 46.4769 104.338 46.4767 104.119V93.1009C46.477 92.8828 46.5632 92.6737 46.7164 92.5196C46.8696 92.3654 47.0772 92.2786 47.2939 92.2783H91.4239C91.6405 92.2786 91.8482 92.3654 92.0014 92.5196C92.1546 92.6737 92.2407 92.8828 92.241 93.1009V104.12C92.2407 104.338 92.1545 104.547 92.0013 104.701C91.8481 104.855 91.6405 104.942 91.4239 104.942ZM47.2939 92.6072C47.1639 92.6074 47.0392 92.6594 46.9473 92.7519C46.8553 92.8445 46.8036 92.97 46.8035 93.1009V104.12C46.8036 104.251 46.8553 104.376 46.9473 104.469C47.0392 104.561 47.1639 104.613 47.2939 104.613H91.4239C91.5539 104.613 91.6786 104.561 91.7705 104.469C91.8624 104.376 91.9141 104.251 91.9143 104.12V93.1009C91.9141 92.97 91.8624 92.8445 91.7705 92.7519C91.6786 92.6594 91.5539 92.6074 91.4239 92.6072H47.2939Z" fill="#E6E6E6"/>
<path d="M60.9416 96.3062C60.7899 96.3062 60.6444 96.3668 60.5371 96.4748C60.4298 96.5828 60.3696 96.7293 60.3696 96.882C60.3696 97.0347 60.4298 97.1812 60.5371 97.2892C60.6444 97.3972 60.7899 97.4579 60.9416 97.4579H87.9098C88.0593 97.457 88.2026 97.3972 88.309 97.2913C88.4153 97.1854 88.4762 97.0418 88.4786 96.8913C88.4811 96.7408 88.4249 96.5953 88.322 96.4859C88.2192 96.3766 88.0779 96.3121 87.9284 96.3064H60.9416V96.3062Z" fill="#E6E6E6"/>
<path d="M60.9416 99.7612C60.7899 99.7612 60.6444 99.8219 60.5371 99.9299C60.4298 100.038 60.3696 100.184 60.3696 100.337C60.3696 100.49 60.4298 100.636 60.5371 100.744C60.6444 100.852 60.7899 100.913 60.9416 100.913H87.9098C88.0593 100.912 88.2026 100.852 88.309 100.746C88.4153 100.641 88.4762 100.497 88.4786 100.346C88.4811 100.196 88.4249 100.05 88.322 99.941C88.2192 99.8317 88.0779 99.7672 87.9284 99.7615H60.9416V99.7612Z" fill="#E6E6E6"/>
<path d="M91.4239 123.368H47.2939C47.0772 123.368 46.8695 123.281 46.7163 123.127C46.5631 122.972 46.4769 122.763 46.4767 122.545V111.527C46.477 111.309 46.5632 111.1 46.7164 110.945C46.8696 110.791 47.0772 110.704 47.2939 110.704H91.4239C91.6405 110.704 91.8482 110.791 92.0014 110.945C92.1546 111.1 92.2407 111.309 92.241 111.527V122.545C92.2407 122.764 92.1546 122.973 92.0014 123.127C91.8482 123.281 91.6405 123.368 91.4239 123.368V123.368ZM47.2939 111.033C47.1639 111.033 47.0392 111.085 46.9473 111.178C46.8553 111.27 46.8036 111.396 46.8035 111.527V122.545C46.8036 122.676 46.8553 122.802 46.9473 122.894C47.0392 122.987 47.1639 123.039 47.2939 123.039H91.4239C91.5539 123.039 91.6786 122.987 91.7705 122.894C91.8624 122.802 91.9141 122.676 91.9143 122.545V111.527C91.9141 111.396 91.8624 111.27 91.7705 111.178C91.6786 111.085 91.5539 111.033 91.4239 111.033H47.2939Z" fill="#E6E6E6"/>
<path d="M60.9416 114.732C60.7899 114.732 60.6444 114.793 60.5371 114.901C60.4298 115.009 60.3696 115.156 60.3696 115.308C60.3696 115.461 60.4298 115.607 60.5371 115.715C60.6444 115.823 60.7899 115.884 60.9416 115.884H87.9098C87.9849 115.887 88.0598 115.875 88.1302 115.849C88.2007 115.822 88.2654 115.783 88.3205 115.731C88.3756 115.68 88.4202 115.618 88.4515 115.549C88.4829 115.48 88.5006 115.406 88.5035 115.331C88.5063 115.255 88.4944 115.18 88.4683 115.109C88.4422 115.038 88.4025 114.973 88.3515 114.917C88.3004 114.862 88.239 114.817 88.1707 114.785C88.1025 114.754 88.0287 114.736 87.9536 114.733C87.9452 114.733 87.9368 114.733 87.9284 114.733H60.9416V114.732Z" fill="#E6E6E6"/>
<path d="M60.9416 118.188C60.7899 118.188 60.6444 118.248 60.5371 118.356C60.4298 118.464 60.3696 118.611 60.3696 118.763C60.3696 118.916 60.4298 119.063 60.5371 119.171C60.6444 119.279 60.7899 119.339 60.9416 119.339H87.9098C87.9849 119.342 88.0598 119.33 88.1302 119.304C88.2007 119.278 88.2654 119.238 88.3205 119.186C88.3756 119.135 88.4202 119.073 88.4515 119.004C88.4829 118.936 88.5006 118.861 88.5035 118.786C88.5063 118.71 88.4944 118.635 88.4683 118.564C88.4422 118.493 88.4025 118.428 88.3515 118.372C88.3004 118.317 88.239 118.272 88.1707 118.24C88.1025 118.209 88.0287 118.191 87.9536 118.188C87.9452 118.188 87.9368 118.188 87.9284 118.188H60.9416V118.188Z" fill="#E6E6E6"/>
<path d="M148.611 154H0.389046C0.17434 154 0 153.899 0 153.774C0 153.649 0.17434 153.548 0.389046 153.548H148.611C148.826 153.548 149 153.649 149 153.774C149 153.899 148.825 154 148.611 154Z" fill="#A9B1B9"/>
<path d="M6.24171 145.19C6.91917 145.43 7.64655 145.49 8.35376 145.364C9.06097 145.239 9.72417 144.932 10.2795 144.474C11.6937 143.279 12.1371 141.311 12.4978 139.488L13.5649 134.097L11.3309 135.646C9.72424 136.759 8.08152 137.908 6.96892 139.521C5.85631 141.134 5.37086 143.336 6.26468 145.081" fill="#A9B1B9"/>
<path d="M6.58696 152.092C6.3057 150.03 6.01649 147.941 6.2138 145.857C6.389 144.006 6.95003 142.198 8.09227 140.716C8.69853 139.93 9.43621 139.257 10.2722 138.727C10.4901 138.589 10.6908 138.937 10.4738 139.074C9.02702 139.994 7.90793 141.353 7.27789 142.955C6.58224 144.736 6.47059 146.677 6.59083 148.569C6.6634 149.713 6.81691 150.85 6.97171 151.985C6.98389 152.036 6.97626 152.091 6.95036 152.136C6.92445 152.182 6.8822 152.217 6.83216 152.232C6.78109 152.246 6.72666 152.239 6.68069 152.213C6.63471 152.187 6.60088 152.143 6.58654 152.092H6.58696Z" fill="#F2F2F2"/>
<path d="M8.61099 148.784C8.90154 149.228 9.30092 149.59 9.77064 149.834C10.2404 150.078 10.7646 150.196 11.2929 150.177C12.6505 150.112 13.7824 149.158 14.8012 148.254L17.8148 145.575L15.8204 145.479C14.3861 145.41 12.9148 145.346 11.5477 145.791C10.1807 146.236 8.92167 147.308 8.67197 148.73" fill="#A9B1B9"/>
<path d="M5.79212 153.278C7.14477 150.867 8.71598 148.187 11.5215 147.33C12.3016 147.093 13.1196 147.008 13.9314 147.08C14.1873 147.102 14.1234 147.499 13.867 147.477C12.5062 147.363 11.1481 147.725 10.0212 148.501C8.9367 149.244 8.09247 150.277 7.37793 151.372C6.94015 152.042 6.5481 152.743 6.15605 153.441C6.03109 153.664 5.66609 153.503 5.79212 153.278Z" fill="#F2F2F2"/>
<path d="M52.7994 83.6314C54.695 83.6314 56.2317 82.0846 56.2317 80.1765C56.2317 78.2685 54.695 76.7217 52.7994 76.7217C50.9038 76.7217 49.3671 78.2685 49.3671 80.1765C49.3671 82.0846 50.9038 83.6314 52.7994 83.6314Z" fill="#1E7CCF"/>
<path d="M51.1562 79.5312C51.1167 79.5312 51.0847 79.7891 51.0847 80.107C51.0847 80.4249 51.1167 80.6829 51.1562 80.6829H54.5312C54.5707 80.6881 54.6033 80.4346 54.604 80.1167C54.6259 79.9188 54.6018 79.7184 54.5336 79.5315H51.1562V79.5312Z" fill="#E6E6E6"/>
<path d="M52.7994 102.065C54.695 102.065 56.2317 100.518 56.2317 98.6101C56.2317 96.7021 54.695 95.1553 52.7994 95.1553C50.9038 95.1553 49.3671 96.7021 49.3671 98.6101C49.3671 100.518 50.9038 102.065 52.7994 102.065Z" fill="#1E7CCF"/>
<path d="M51.1562 97.9648C51.1167 97.9648 51.0847 98.2227 51.0847 98.5406C51.0847 98.8585 51.1167 99.1165 51.1562 99.1165H54.5312C54.5707 99.1217 54.6033 98.8682 54.604 98.5503C54.6259 98.3524 54.6018 98.152 54.5336 97.9651H51.1562V97.9648Z" fill="#E6E6E6"/>
<path d="M52.7994 120.491C54.695 120.491 56.2317 118.944 56.2317 117.036C56.2317 115.128 54.695 113.581 52.7994 113.581C50.9038 113.581 49.3671 115.128 49.3671 117.036C49.3671 118.944 50.9038 120.491 52.7994 120.491Z" fill="#1E7CCF"/>
<path d="M51.1562 116.391C51.1167 116.391 51.0847 116.648 51.0847 116.966C51.0847 117.284 51.1167 117.542 51.1562 117.542H54.5312C54.5707 117.548 54.6033 117.294 54.604 116.976C54.6259 116.778 54.6018 116.578 54.5336 116.391H51.1562V116.391Z" fill="#E6E6E6"/>
<path d="M79.9106 55.4708C79.7324 55.4714 79.5575 55.4222 79.4054 55.3288C79.2533 55.2353 79.13 55.1012 79.0491 54.9414C78.3605 53.5864 77.41 52.3835 76.2533 51.4033C75.0966 50.4231 73.757 49.6854 72.3132 49.2335C71.7221 49.0529 71.1188 48.9154 70.508 48.822L70.3835 48.803L76.8075 28.5859L76.9161 28.5897C89.3964 32.0033 96.537 42.0715 98.4282 45.0759C98.5003 45.1908 98.5476 45.3196 98.5672 45.454C98.5867 45.5884 98.578 45.7255 98.5417 45.8563C98.5053 45.9871 98.4421 46.1088 98.3561 46.2135C98.2701 46.3182 98.1633 46.4036 98.0424 46.4641L80.3441 55.3676C80.2095 55.4355 80.0611 55.4708 79.9106 55.4708Z" fill="#E6E6E6"/>
<path d="M118.437 98.5486C118.503 98.2634 118.632 97.9963 118.812 97.7664C118.993 97.5364 119.221 97.349 119.481 97.2175C119.741 97.086 120.027 97.0135 120.318 97.0051C120.609 96.9968 120.899 97.0527 121.166 97.1691L125.95 91.9189L126.844 95.51L122.163 99.9449C121.94 100.384 121.563 100.725 121.106 100.904C120.649 101.082 120.143 101.086 119.683 100.914C119.224 100.741 118.843 100.405 118.613 99.9695C118.384 99.5336 118.321 99.0279 118.436 98.5484L118.437 98.5486Z" fill="#FEB8B8"/>
<path d="M128.712 150.922H125.789L124.398 139.572H128.714L128.712 150.922Z" fill="#FEB8B8"/>
<path d="M129.458 149.961H123.7C122.727 149.961 121.794 150.35 121.106 151.043C120.418 151.735 120.032 152.674 120.031 153.654V153.774H129.457L129.458 149.961Z" fill="#2F2E41"/>
<path d="M145.5 148.007L142.767 149.051L137.465 138.937L141.499 137.396L145.5 148.007Z" fill="#FEB8B8"/>
<path d="M145.858 146.842L140.476 148.899C139.566 149.246 138.831 149.943 138.432 150.837C138.033 151.73 138.003 152.746 138.348 153.662L138.391 153.774L147.204 150.407L145.858 146.842Z" fill="#2F2E41"/>
<path d="M135.877 113.169L138.299 126.291C138.299 126.291 144.875 144.753 144.413 145.218C143.952 145.682 137.607 147.308 137.953 146.263C138.299 145.218 130.339 129.542 130.339 129.542L135.877 113.169Z" fill="#2F2E41"/>
<path d="M126.053 89.3252C126.053 89.3252 121.162 95.7599 121.803 96.1113C122.444 96.4627 124.927 98.3235 124.927 98.3235L127.452 91.3463L126.053 89.3252Z" fill="#E4E4E4"/>
<path d="M124.687 95.8202C124.687 95.8202 123.879 101.858 124.226 103.136C124.572 104.413 124.341 140.641 124.11 141.222C123.88 141.802 123.187 143.776 123.534 144.705C123.88 145.634 128.609 147.957 129.301 147.144C129.994 146.331 135.07 116.721 135.07 116.721C135.07 116.721 142.222 98.8392 140.607 97.0977C138.992 95.3562 124.687 95.8202 124.687 95.8202Z" fill="#2F2E41"/>
<path d="M135.065 57.0143C138.187 57.0143 140.718 54.4669 140.718 51.3245C140.718 48.1822 138.187 45.6348 135.065 45.6348C131.943 45.6348 129.413 48.1822 129.413 51.3245C129.413 54.4669 131.943 57.0143 135.065 57.0143Z" fill="#FEB8B8"/>
<path d="M129.159 64.1835C129.301 63.2622 129.757 62.4191 130.447 61.7975L131.478 58.626H137.534L139.222 61.2918C141.047 62.083 142.4 63.3378 142.451 64.8169C142.73 65.7992 141.528 96.9813 141.182 98.1423C141.081 98.4803 139.701 98.661 137.761 98.7414C135.982 98.8145 133.734 98.8041 131.575 98.7542C128.001 98.6705 124.67 98.4777 124.109 98.3744C122.841 98.1425 129.033 64.9161 129.159 64.1835Z" fill="#E4E4E4"/>
<path d="M134.514 105.533C134.759 105.375 134.967 105.165 135.123 104.918C135.279 104.671 135.379 104.392 135.417 104.101C135.454 103.81 135.428 103.515 135.339 103.236C135.251 102.956 135.103 102.7 134.906 102.485L138.248 96.2051L134.586 96.5418L131.973 102.453C131.635 102.811 131.439 103.281 131.423 103.774C131.406 104.268 131.57 104.75 131.884 105.13C132.197 105.509 132.638 105.76 133.123 105.835C133.607 105.909 134.102 105.802 134.514 105.533L134.514 105.533Z" fill="#FEB8B8"/>
<path d="M135.069 60.7528C135.069 60.7528 129.763 62.9589 131.724 68.5331C133.685 74.1072 135.877 80.7254 135.877 80.7254C135.877 80.7254 133.108 95.7045 133.108 96.2859C133.108 96.8672 131.378 100.002 132.07 100.582C132.762 101.163 137.376 102.324 137.492 101.744C137.845 100.406 138.269 99.088 138.76 97.7955C138.991 97.331 144.413 82.8163 143.72 81.5391C143.211 80.5992 142.764 71.9866 142.563 67.5046C142.517 66.2255 142.141 64.9807 141.471 63.8926C140.802 62.8044 139.862 61.9105 138.746 61.2987C137.671 60.7234 136.419 60.4131 135.069 60.7528Z" fill="#E4E4E4"/>
<path d="M137.241 53.8675C136.812 53.6682 136.314 53.627 135.85 53.5031C134.189 53.0596 133.077 51.4091 133.432 49.9156C133.497 49.7256 133.527 49.5251 133.519 49.3243C133.457 48.8819 132.942 48.5964 132.449 48.495C131.955 48.3936 131.43 48.4086 130.958 48.2454C130.617 48.1236 130.314 47.9115 130.082 47.6314C129.85 47.3513 129.698 47.0135 129.641 46.6535C129.568 45.954 129.745 45.2512 130.14 44.6714L130.319 45.1227C130.583 44.9302 130.786 44.6638 130.901 44.3566C131.095 44.3799 131.28 44.4512 131.44 44.564C131.599 44.6769 131.728 44.8278 131.816 45.0032C132.102 45.1517 132.143 44.5422 132.46 44.4523C132.598 44.4369 132.736 44.4673 132.855 44.5387C133.492 44.8 134.232 44.5766 134.916 44.4318C136.103 44.1822 137.329 44.1809 138.517 44.4281C139.303 44.593 140.082 44.8804 140.645 45.3909C141.077 45.8175 141.416 46.3297 141.64 46.8951C142.244 48.2311 142.643 49.6767 142.444 51.1036C142.262 52.3008 141.702 53.4073 140.847 54.2589C140.391 54.7207 138.904 56.3317 138.088 56.0572C137.063 55.7114 138.448 54.4288 137.241 53.8675Z" fill="#2F2E41"/>
<path d="M69.1307 59.3158C70.0793 59.3158 70.8483 58.5417 70.8483 57.5869C70.8483 56.632 70.0793 55.8579 69.1307 55.8579C68.182 55.8579 67.413 56.632 67.413 57.5869C67.413 58.5417 68.182 59.3158 69.1307 59.3158Z" fill="#3F3D56"/>
<path d="M57.6037 55.4457C57.4464 55.4455 57.2916 55.4066 57.1528 55.3324L39.557 45.9886C39.4403 45.9267 39.3374 45.8413 39.2547 45.7377C39.1721 45.6342 39.1113 45.5147 39.0763 45.3866C39.0413 45.2585 39.0327 45.1246 39.0511 44.993C39.0694 44.8615 39.1144 44.7351 39.1831 44.6218C41.5336 40.8296 44.51 37.4693 47.9842 34.6857C54.0607 29.838 60.9725 27.406 68.5268 27.4468C71.36 27.4594 74.1795 27.8436 76.914 28.5898L77.0224 28.6193L70.5969 48.8352L70.5065 48.8215C69.9277 48.7336 69.3441 48.6815 68.7591 48.6655C62.2211 48.4798 59.3879 52.9611 58.473 54.8961C58.4179 55.0135 58.3396 55.1183 58.2428 55.2041C58.1461 55.29 58.033 55.3551 57.9104 55.3954C57.8115 55.4286 57.7079 55.4456 57.6037 55.4457Z" fill="#1E7CCF"/>
<path d="M76.888 28.6938L72.3449 49.13C71.7486 48.9478 71.1402 48.8091 70.5241 48.715L76.8858 28.6938H76.888Z" fill="#3F3D56"/>
</g>
<defs>
<clipPath id="clip0_20_46">
<rect width="149" height="154" fill="white"/>
</clipPath>
</defs>
</svg>
