<svg width="47" height="47" viewBox="0 0 47 47" fill="none" xmlns="http://www.w3.org/2000/svg">
<path fill-rule="evenodd" clip-rule="evenodd" d="M23.5 0.125C10.5906 0.125 0.125 10.5906 0.125 23.5C0.125 36.4094 10.5906 46.875 23.5 46.875C36.4094 46.875 46.875 36.4094 46.875 23.5C46.875 10.5906 36.4094 0.125 23.5 0.125ZM33.632 19.5475C33.8186 19.3342 33.9606 19.0858 34.0497 18.8169C34.1389 18.5479 34.1733 18.2638 34.1511 17.9813C34.1288 17.6989 34.0503 17.4237 33.9201 17.172C33.7899 16.9203 33.6107 16.6972 33.393 16.5159C33.1754 16.3345 32.9236 16.1984 32.6526 16.1158C32.3816 16.0331 32.0967 16.0055 31.8149 16.0345C31.533 16.0635 31.2598 16.1487 31.0113 16.2848C30.7629 16.421 30.5441 16.6055 30.368 16.8275L21.2305 27.7904L16.5024 23.0601C16.1016 22.673 15.5648 22.4589 15.0076 22.4637C14.4505 22.4685 13.9175 22.692 13.5235 23.086C13.1295 23.48 12.906 24.013 12.9012 24.5701C12.8964 25.1273 13.1105 25.6641 13.4976 26.0649L19.8726 32.4399C20.0814 32.6485 20.3314 32.8114 20.6066 32.9181C20.8819 33.0248 21.1763 33.073 21.4712 33.0596C21.7661 33.0462 22.0549 32.9715 22.3194 32.8403C22.5838 32.7091 22.818 32.5242 23.007 32.2975L33.632 19.5475Z" fill="#1E7CCF"/>
</svg>
