<svg width="442" height="526" viewBox="0 0 442 526" fill="none" xmlns="http://www.w3.org/2000/svg">
<path fill-rule="evenodd" clip-rule="evenodd" d="M407.735 72.7924C440.624 107.625 453.04 155.915 460.746 204.195C467.656 247.488 456.687 289.562 449.332 333.415C439.963 389.274 453.351 455.932 411.926 495.28C370.245 534.87 305.349 524.218 249.527 523.201C195.086 522.209 135.141 525.102 95.0115 489.505C55.7719 454.697 60.4286 393.076 45.2645 342.009C29.8536 290.11 -14.5203 240.187 5.58861 188.36C25.7026 136.52 94.9237 129.569 140.188 97.3604C184.92 65.5305 215.369 5.918 268.889 1.00342C323.088 -3.97343 371.065 33.9569 407.735 72.7924Z" fill="#CCEBEF"/>
</svg>
