<svg width="261" height="60" viewBox="0 0 261 60" fill="none" xmlns="http://www.w3.org/2000/svg">
<path d="M92.6679 21.3989C91.007 19.1361 90.0919 16.0791 90.0919 12.7895C90.0919 4.5326 94.691 0.836499 99.25 0.836499C102.388 0.836499 105.402 2.46955 107.441 5.24222C107.975 4.50441 108.415 3.55747 108.415 3.06638C108.415 1.44273 103.844 0 100.24 0C93.63 0 86.6056 5.14823 86.6056 14.6857C86.6056 20.5859 90.0002 27.4752 99.5676 27.4752C103.235 27.4752 106.726 25.6941 108.298 23.2434C106.013 24.6438 103.388 25.3722 100.598 25.3722C97.3234 25.3722 94.5828 23.9976 92.6726 21.3942L92.6679 21.3989Z" fill="#494949"/>
<path d="M165.316 11.9154C161.978 10.4727 158.826 9.1075 158.826 5.87194C158.826 2.95594 161.112 0.756609 164.145 0.756609C167.765 0.756609 170.271 3.41179 171.207 4.59135C171.779 3.86293 172.162 2.97004 172.162 2.31447C172.162 1.03622 167.815 0 164.978 0C158.936 0 155.775 3.729 155.775 7.41335C155.775 11.6522 159.621 13.4192 163.343 15.1275C166.605 16.6266 169.981 18.1751 169.981 21.4858C169.981 22.6301 169.558 26.3638 164.107 26.3638C159.729 26.3638 156.775 24.0305 155.652 22.9614C155.401 23.4314 155.14 23.9836 155.14 24.3313C155.14 25.9949 159.844 27.4776 163.552 27.4776C169.777 27.4776 173.032 23.6099 173.032 19.787C173.032 15.2544 169.111 13.5579 165.316 11.9178V11.9154Z" fill="#494949"/>
<path d="M138.329 7.03036C138.369 5.38556 138.409 3.68437 138.409 1.95967C138.409 0.660282 137.096 0.197388 135.972 0.197388C135.607 0.197388 135.106 0.26318 134.607 0.368917C134.699 0.996291 134.798 2.08891 134.878 4.02507C134.979 6.88703 135.043 9.31663 135.076 11.6711L135.085 12.3407L134.414 12.3689C132.66 12.4418 129.599 12.5287 126.748 12.5287C124.767 12.5287 122.045 12.5005 120.323 12.3689L119.681 12.3196L119.688 11.6757C119.742 6.41239 119.768 3.23322 119.768 1.95967C119.768 0.686129 118.455 0.197388 117.331 0.197388C116.964 0.197388 116.456 0.26318 115.952 0.371267C116.037 0.989242 116.138 2.07481 116.237 4.01803C116.317 5.94244 116.475 14.3004 116.475 16.6219C116.475 22.3106 116.296 25.5555 116.087 27.017C116.159 27.0311 116.23 27.0452 116.301 27.0593C116.903 27.1768 117.42 27.2779 117.921 27.2779C119.258 27.2779 119.803 26.6998 119.803 25.2783C119.803 23.9836 119.761 22.7124 119.721 21.4858C119.681 20.3133 119.646 19.2042 119.646 18.1234V13.5109L120.307 13.4827C122.109 13.4051 124.965 13.3229 127.578 13.3229C129.611 13.3229 132.45 13.3511 134.431 13.4827L135.08 13.525L135.073 14.1758C135.054 15.9076 135.012 17.6299 134.97 19.2935C134.92 21.2344 134.876 23.0672 134.876 24.6814C134.876 26.8596 135.522 27.2732 136.718 27.2732C137.461 27.2732 137.88 27.1815 138.409 27.0664C138.494 27.0476 138.581 27.0288 138.672 27.01C138.355 24.0846 138.244 15.7126 138.244 11.9554C138.244 10.3012 138.284 8.63757 138.322 7.02801L138.329 7.03036Z" fill="#494949"/>
<path d="M202.513 7.03036C202.553 5.38556 202.593 3.68437 202.593 1.95967C202.593 0.660282 201.281 0.197388 200.156 0.197388C199.792 0.197388 199.29 0.26318 198.792 0.368917C198.883 0.996291 198.982 2.08891 199.062 4.02507C199.163 6.88703 199.227 9.31663 199.26 11.6711L199.269 12.3407L198.599 12.3689C196.844 12.4418 193.783 12.5287 190.932 12.5287C188.951 12.5287 186.23 12.5005 184.508 12.3689L183.865 12.3196L183.872 11.6757C183.927 6.41239 183.952 3.23322 183.952 1.95967C183.952 0.686129 182.64 0.197388 181.515 0.197388C181.148 0.197388 180.64 0.26318 180.137 0.371267C180.221 0.989242 180.323 2.07481 180.421 4.01803C180.501 5.94244 180.659 14.3004 180.659 16.6219C180.659 22.3106 180.48 25.5555 180.271 27.017C180.344 27.0311 180.414 27.0452 180.485 27.0593C181.087 27.1768 181.605 27.2779 182.106 27.2779C183.442 27.2779 183.988 26.6998 183.988 25.2783C183.988 23.9836 183.945 22.7124 183.905 21.4858C183.865 20.3133 183.83 19.2042 183.83 18.1234V13.5109L184.491 13.4827C186.293 13.4051 189.149 13.3229 191.763 13.3229C193.795 13.3229 196.635 13.3511 198.615 13.4827L199.265 13.525L199.258 14.1758C199.239 15.9076 199.196 17.6299 199.154 19.2935C199.105 21.2344 199.06 23.0672 199.06 24.6814C199.06 26.8596 199.707 27.2732 200.902 27.2732C201.645 27.2732 202.064 27.1815 202.593 27.0664C202.678 27.0476 202.765 27.0288 202.857 27.01C202.539 24.0846 202.429 15.7126 202.429 11.9554C202.429 10.3012 202.469 8.63757 202.506 7.02801L202.513 7.03036Z" fill="#494949"/>
<path d="M52.9231 4.37283C51.9657 1.17252 49.6438 0.354816 48.6229 0.148041L40.5398 22.6677C39.6506 25.1655 38.8672 26.5213 38.3544 27.2285C38.4861 27.2591 38.6202 27.2802 38.7426 27.2802C40.561 27.2802 40.8786 26.4202 42.076 22.3623C42.4077 21.2391 42.8194 19.841 43.351 18.2291L43.4992 17.7803L43.9721 17.7568C45.4024 17.6887 47.5548 17.597 49.7026 17.597C51.0341 17.597 52.4009 17.6346 53.6806 17.6769L54.1629 17.6934L54.3134 18.1516C55.2168 20.8937 55.9437 23.3585 56.5365 25.4098C56.8847 26.6552 57.8868 27.2849 59.5147 27.2849C60.1052 27.2849 60.7239 27.2074 61.2226 27.1228C60.905 26.5988 60.5427 25.7858 59.9523 24.4606C57.9033 19.9139 54.3017 8.96183 52.9184 4.37988L52.9231 4.37283ZM52.9702 16.9579C51.5893 17.0002 50.2366 17.0378 48.8746 17.0378C47.3667 17.0378 45.8775 16.9979 44.619 16.9579L43.7086 16.9297L43.9838 16.0627C44.1485 15.541 44.3202 15.0006 44.4967 14.4367C45.3647 11.6757 46.4468 8.24046 47.8677 4.14726L48.4817 2.38027L49.1616 4.12141C50.3496 7.16429 52.1468 11.765 53.603 16.0486L53.9041 16.9297L52.9725 16.9579H52.9702Z" fill="#494949"/>
<path d="M31.7393 9.18973C30.6901 12.5193 29.2551 17.0777 27.1685 23.2081L26.5451 25.0386L25.8699 23.2269C23.5198 16.925 20.4875 6.95045 19.5089 2.29801C19.2313 0.970418 17.9657 0.274902 16.86 0.274902C15.8485 0.274902 15.2321 0.364192 14.8746 0.448781C15.6391 2.23692 17.7069 7.3264 17.7069 10.0192C17.7069 12.1363 15.6768 17.6534 14.0441 22.0873L13.0091 24.9117L12.341 23.2387C9.79797 16.8686 6.31634 6.94105 5.18951 2.31916C4.86252 0.914025 3.58514 0.277252 2.53594 0.277252C1.33384 0.277252 0.51754 0.382989 0 0.491076C0.345811 1.07146 0.846883 1.98315 1.45852 3.28724C3.64395 7.99607 7.3373 19.7329 8.41708 23.2175C9.4451 26.5494 12.2022 27.2731 13.369 27.4329C13.5666 26.681 13.9477 25.3041 14.39 24.0611L17.4387 15.5998C17.6857 14.8596 17.7987 14.0489 17.801 14.0395L18.2433 10.8322L19.1466 13.9409C19.6971 15.8324 20.2523 17.6299 20.7439 19.2136C21.2191 20.7503 21.6308 22.0779 21.9578 23.234C22.8447 26.4178 25.6958 27.2167 26.9097 27.4141C27.1097 26.6575 27.4884 25.2947 27.926 24.0611L34.774 5.08712C35.6914 2.54003 36.663 1.0879 37.2817 0.340694C37.0911 0.303099 36.8535 0.277252 36.5689 0.277252C34.6258 0.277252 34.4446 0.610912 31.7417 9.19207L31.7393 9.18973Z" fill="#494949"/>
<path d="M79.5812 0.592116C75.6243 0.592116 62.4106 0.397089 62.2789 0.394739C62.2624 0.394739 62.0695 0.573318 62.0695 1.40512C62.0695 1.66594 62.0883 1.95495 62.1095 2.20872C63.0199 2.09358 64.469 1.9432 66.0898 1.9432C66.7226 1.9432 67.6777 1.9432 70.216 1.98315L70.8959 1.99255V2.67161C70.8959 2.98413 70.9241 3.36478 70.9571 3.80653L70.9735 4.04385C71.1029 6.79067 71.1735 9.97453 71.1735 13.0245V25.2782C71.1735 26.6975 71.7192 27.2778 73.0554 27.2778C73.5565 27.2778 74.0764 27.1768 74.6763 27.0593C74.7633 27.0429 74.8527 27.0241 74.9421 27.0076C74.3446 21.9252 74.3446 16.8615 74.3446 11.9577C74.3446 10.1343 74.3846 8.39082 74.4269 6.54395C74.4552 5.2986 74.4857 4.01095 74.5022 2.69981L74.5116 2.01369L75.1985 2.02074C79.2495 2.05834 82.7852 2.09358 83.258 2.09828C83.298 2.03014 83.3662 1.84216 83.3662 1.48266C83.3662 1.06206 83.3357 0.63911 83.3027 0.300751C82.0324 0.491078 80.7597 0.589766 79.5859 0.589766L79.5812 0.592116Z" fill="#494949"/>
<path d="M223.779 0C214.412 0 210.145 7.46975 210.145 14.4108C210.145 17.9095 211.309 21.131 213.426 23.4807C215.781 26.0959 219.169 27.4776 223.227 27.4776C229.795 27.4776 236.861 22.7218 236.861 12.2773C236.861 3.84414 230.082 0.00234972 223.779 0.00234972V0ZM230.823 22.3364C229.096 25.1772 226.661 26.6787 223.779 26.6787C220.75 26.6787 218.183 25.2266 216.355 22.4774C214.753 20.0689 213.871 16.8663 213.871 13.4592C213.871 7.16428 217.07 0.794204 223.187 0.794204C226.233 0.794204 228.816 2.16644 230.651 4.76052C232.253 7.028 233.138 10.0333 233.138 13.2219C233.138 16.596 232.295 19.9162 230.827 22.3341L230.823 22.3364Z" fill="#494949"/>
<path d="M251.322 0.592129H245.702C245.208 0.592129 244.578 0.561583 244.072 0.531036C244.192 1.54141 244.281 3.02174 244.333 4.01802C244.46 6.74839 244.53 9.94635 244.53 13.0245V25.2782C244.53 26.6975 245.076 27.2779 246.412 27.2779C246.914 27.2779 247.433 27.1768 248.033 27.0593C248.12 27.0429 248.21 27.0241 248.299 27.0076C247.871 23.4055 247.777 19.8363 247.742 16.7887L247.732 15.9593L248.551 16.1026C249.106 16.2013 249.784 16.2506 250.567 16.2506C257.415 16.2506 260.998 12.0846 260.998 7.96789C260.998 4.5655 258.464 0.594479 251.32 0.594479L251.322 0.592129ZM249.779 15.6914C249.325 15.6914 248.812 15.6914 248.28 15.6021L247.704 15.5058V11.9577C247.704 8.7057 247.862 2.04895 247.862 1.98081L247.878 1.30879H249.779C252.167 1.30879 254.157 2.05835 255.538 3.47993C256.761 4.73938 257.434 6.45702 257.434 8.3227C257.434 11.9836 254.804 15.6914 249.779 15.6914Z" fill="#494949"/>
<path d="M65.4664 45.1733H68.3599V57.0464H75.2715V59.7298H65.4664V45.1733Z" fill="#494949"/>
<path d="M91.7621 44.8819C96.1542 44.8819 99.4029 47.9601 99.4029 52.4504C99.4029 56.9407 96.1542 59.9977 91.7621 59.9977C87.3701 59.9977 84.1214 56.9195 84.1214 52.4504C84.1214 47.9812 87.3701 44.8819 91.7621 44.8819ZM91.7621 57.2743C94.4486 57.2743 96.4882 55.4228 96.4882 52.4504C96.4882 49.478 94.4486 47.6053 91.7621 47.6053C89.0756 47.6053 87.0361 49.4756 87.0361 52.4504C87.0361 55.4251 89.0756 57.2743 91.7621 57.2743Z" fill="#494949"/>
<path d="M112.626 49.9973H112.563C112.563 50.0184 112.605 51.7643 112.605 53.6158V59.7298H109.711V45.1733H112.647L119.622 54.7602H119.686C119.686 54.739 119.643 52.9297 119.643 51.3296V45.1733H122.537V59.7298H119.601L112.626 49.9973V49.9973Z" fill="#494949"/>
<path d="M139.317 45.1733C143.709 45.1733 147 48.0846 147 52.5138C147 56.943 143.69 59.7298 139.359 59.7298H133.488V45.1733H139.317V45.1733ZM139.192 57.0464C141.733 57.0464 144.085 55.6953 144.085 52.5138C144.085 49.3323 141.733 47.8567 139.152 47.8567H136.383V57.0488H139.195L139.192 57.0464Z" fill="#494949"/>
<path d="M164.385 44.8819C168.777 44.8819 172.026 47.9601 172.026 52.4504C172.026 56.9407 168.777 59.9977 164.385 59.9977C159.993 59.9977 156.744 56.9195 156.744 52.4504C156.744 47.9812 159.993 44.8819 164.385 44.8819ZM164.385 57.2743C167.071 57.2743 169.111 55.4228 169.111 52.4504C169.111 49.478 167.071 47.6053 164.385 47.6053C161.698 47.6053 159.659 49.4756 159.659 52.4504C159.659 55.4251 161.698 57.2743 164.385 57.2743Z" fill="#494949"/>
<path d="M185.246 49.9973H185.183C185.183 50.0184 185.225 51.7643 185.225 53.6158V59.7298H182.332V45.1733H185.267L192.242 54.7602H192.306C192.306 54.739 192.264 52.9297 192.264 51.3296V45.1733H195.157V59.7298H192.221L185.246 49.9973V49.9973Z" fill="#494949"/>
</svg>
