<svg width="67" height="68" viewBox="0 0 67 68" fill="none" xmlns="http://www.w3.org/2000/svg">
<path fill-rule="evenodd" clip-rule="evenodd" d="M20.8398 3.47588C24.1144 3.32513 25.1585 3.29163 33.5 3.29163C41.8415 3.29163 42.8856 3.32792 46.1574 3.47588C49.4292 3.62383 51.6626 4.14588 53.6167 4.90242C55.663 5.67571 57.5195 6.8845 59.0549 8.44783C60.6182 9.98046 61.8242 11.8341 62.5947 13.8832C63.3541 15.8374 63.8733 18.0707 64.0241 21.337C64.1748 24.6172 64.2083 25.6612 64.2083 34C64.2083 42.3415 64.172 43.3855 64.0241 46.6602C63.8761 49.9264 63.3541 52.1597 62.5947 54.1139C61.8242 56.1633 60.6162 58.02 59.0549 59.5549C57.5195 61.1182 55.663 62.3242 53.6167 63.0947C51.6626 63.854 49.4292 64.3733 46.163 64.524C42.8856 64.6748 41.8415 64.7083 33.5 64.7083C25.1585 64.7083 24.1144 64.672 20.8398 64.524C17.5735 64.3761 15.3402 63.854 13.386 63.0947C11.3367 62.3241 9.48 61.1161 7.94509 59.5549C6.38282 58.0213 5.17384 56.1655 4.40246 54.1167C3.64592 52.1625 3.12667 49.9292 2.97592 46.663C2.82517 43.3827 2.79167 42.3387 2.79167 34C2.79167 25.6585 2.82796 24.6144 2.97592 21.3425C3.12388 18.0707 3.64592 15.8374 4.40246 13.8832C5.17498 11.8344 6.38488 9.97854 7.94788 8.44504C9.48062 6.88311 11.3355 5.67416 13.3833 4.90242C15.3374 4.14588 17.5708 3.62663 20.837 3.47588H20.8398ZM45.909 9.00338C42.6706 8.85542 41.6991 8.82471 33.5 8.82471C25.3009 8.82471 24.3294 8.85542 21.091 9.00338C18.0956 9.14017 16.4708 9.63987 15.3877 10.0614C13.9555 10.6198 12.931 11.2814 11.8562 12.3562C10.8374 13.3474 10.0533 14.554 9.56146 15.8876C9.13992 16.9708 8.64021 18.5955 8.50342 21.591C8.35546 24.8293 8.32475 25.8008 8.32475 34C8.32475 42.1991 8.35546 43.1706 8.50342 46.4089C8.64021 49.4044 9.13992 51.0291 9.56146 52.1123C10.0528 53.4439 10.8373 54.6527 11.8562 55.6437C12.8473 56.6627 14.056 57.4472 15.3877 57.9385C16.4708 58.36 18.0956 58.8597 21.091 58.9965C24.3294 59.1445 25.2981 59.1752 33.5 59.1752C41.7019 59.1752 42.6706 59.1445 45.909 58.9965C48.9044 58.8597 50.5292 58.36 51.6123 57.9385C53.0445 57.3802 54.069 56.7185 55.1438 55.6437C56.1627 54.6527 56.9472 53.4439 57.4385 52.1123C57.8601 51.0291 58.3598 49.4044 58.4966 46.4089C58.6445 43.1706 58.6752 42.1991 58.6752 34C58.6752 25.8008 58.6445 24.8293 58.4966 21.591C58.3598 18.5955 57.8601 16.9708 57.4385 15.8876C56.8802 14.4555 56.2186 13.431 55.1438 12.3562C54.1525 11.3374 52.9459 10.5533 51.6123 10.0614C50.5292 9.63987 48.9044 9.14017 45.909 9.00338ZM29.5777 43.4665C31.7682 44.3783 34.2073 44.5014 36.4785 43.8147C38.7497 43.1279 40.712 41.674 42.0302 39.7012C43.3485 37.7284 43.941 35.3591 43.7065 32.998C43.4719 30.6369 42.425 28.4305 40.7444 26.7556C39.673 25.6849 38.3776 24.8651 36.9514 24.3552C35.5252 23.8452 34.0037 23.6578 32.4964 23.8065C30.9891 23.9552 29.5335 24.4362 28.2344 25.2149C26.9353 25.9937 25.825 27.0508 24.9835 28.3101C24.1419 29.5695 23.5901 30.9997 23.3677 32.4979C23.1453 33.9961 23.2578 35.525 23.6972 36.9745C24.1366 38.424 24.8918 39.7581 25.9087 40.8806C26.9255 42.0032 28.1786 42.8863 29.5777 43.4665ZM22.3389 22.8389C23.8046 21.3732 25.5446 20.2105 27.4597 19.4173C29.3747 18.6241 31.4272 18.2158 33.5 18.2158C35.5728 18.2158 37.6253 18.6241 39.5403 19.4173C41.4554 20.2105 43.1954 21.3732 44.6611 22.8389C46.1268 24.3046 47.2894 26.0446 48.0827 27.9596C48.8759 29.8746 49.2842 31.9272 49.2842 34C49.2842 36.0728 48.8759 38.1253 48.0827 40.0403C47.2894 41.9553 46.1268 43.6953 44.6611 45.161C41.701 48.1211 37.6862 49.7841 33.5 49.7841C29.3138 49.7841 25.299 48.1211 22.3389 45.161C19.3788 42.2009 17.7158 38.1862 17.7158 34C17.7158 29.8137 19.3788 25.799 22.3389 22.8389ZM52.7848 20.5665C53.148 20.2238 53.4388 19.8118 53.6399 19.3548C53.841 18.8978 53.9484 18.4051 53.9557 17.9058C53.963 17.4065 53.87 16.9109 53.6823 16.4482C53.4946 15.9855 53.216 15.5652 52.8629 15.2121C52.5098 14.8591 52.0895 14.5804 51.6268 14.3927C51.1641 14.205 50.6685 14.1121 50.1692 14.1193C49.67 14.1266 49.1773 14.234 48.7202 14.4351C48.2632 14.6362 47.8512 14.927 47.5086 15.2902C46.8422 15.9966 46.4774 16.9348 46.4916 17.9058C46.5057 18.8768 46.8977 19.804 47.5844 20.4906C48.271 21.1773 49.1983 21.5693 50.1692 21.5835C51.1402 21.5976 52.0785 21.2328 52.7848 20.5665Z" fill="#F8F8F8"/>
</svg>
