<svg width="268" height="224" viewBox="0 0 268 224" fill="none" xmlns="http://www.w3.org/2000/svg">
<path d="M129.338 14.7422L124.998 24.2441C122.752 24.3756 120.516 24.6469 118.307 25.0562L111.668 16.8356L104.512 19.1686L104.476 29.6276C101.445 31.1216 98.5401 32.928 95.7961 35.0362L85.683 30.6699L80.5054 35.9508L85.6827 45.3672C84.0309 47.6252 82.5794 50.0119 81.3432 52.5023L70.2398 52.7927L67.9854 59.7052L76.9501 66.0374C76.5209 68.6023 76.3113 71.1939 76.2994 73.7877L66.3457 78.624L67.3882 85.8018L78.3134 87.8525C78.9665 90.0453 79.7764 92.1923 80.7373 94.2783L73.5373 102.849L77.556 108.984L88.7484 106.472C89.4567 107.271 90.1906 108.049 90.9493 108.804C92.5338 110.376 94.2216 111.849 96.0022 113.214L93.8279 123.963L100.369 127.586L108.914 120.451C111.36 121.394 113.877 122.154 116.445 122.724L119.234 133.226L126.763 133.815L131.29 123.912C134.418 123.731 137.536 123.283 140.602 122.561L147.794 130.551L154.807 127.859L154.602 123.809L138.232 111.906C133.466 113.062 128.525 113.371 123.671 112.846C114.616 111.867 105.914 107.946 99.0853 101.174C83.4765 85.6935 83.9227 61.0688 100.066 46.1019C107.885 38.8523 117.942 35.1745 128.011 35.0704C138.73 34.9593 149.459 38.8974 157.507 46.8793C170.606 59.8709 172.391 79.4143 163.085 94.21L172.202 100.841C173.335 99.1364 174.359 97.3671 175.267 95.543L186.29 95.2523L188.544 88.3398L179.643 82.0508C180.072 79.4648 180.289 76.8506 180.293 74.2321L190.184 69.4127L189.142 62.235L178.226 60.1842C177.308 57.1522 176.09 54.2108 174.59 51.4L181.095 42.7611L176.746 36.8392L166.036 39.8213C165.901 39.6846 165.771 39.546 165.634 39.4112C163.948 37.7385 162.144 36.1795 160.234 34.7452L162.284 24.5939L155.742 20.9711L147.615 27.7562C144.984 26.7409 142.282 25.9507 139.542 25.3636L136.877 15.3317L129.338 14.7422ZM112.755 56.7148C109.805 56.7471 106.882 57.4416 104.2 58.7055L117.095 68.0882C120.995 70.9254 122.101 76.3173 119.108 80.1022C116.115 83.8893 110.366 84.4586 106.41 81.581L93.5245 72.207C92.2051 78.9863 94.7036 86.1695 100.823 90.6214C106.311 94.6127 113.354 95.36 119.421 93.2704L120.784 92.8001L121.933 93.6377L160.483 121.682L161.632 122.52L161.534 123.904C161.067 130.07 163.699 136.376 169.189 140.37C175.308 144.821 183.203 145.19 189.658 142.147L176.772 132.774C172.816 129.895 171.844 124.432 174.839 120.648C177.833 116.864 183.547 116.436 187.448 119.272L200.333 128.647C201.65 121.87 199.161 114.683 193.044 110.232C187.537 106.224 180.549 105.43 174.518 107.489L173.164 107.95L172.014 107.113L133.464 79.0686L132.315 78.2311L132.413 76.8557C132.855 70.7343 130.175 64.498 124.669 60.4918C121.092 57.8898 116.906 56.6695 112.755 56.7148ZM125.177 81.3926L171.907 115.393L168.69 119.469L121.951 85.46L125.177 81.3926Z" fill="#EDAA46"/>
<g filter="url(#filter0_d_5_62)">
<path d="M53.4266 183H47.9866V170.456L42.0986 177.656L36.2426 170.456V183H30.8026V160.6H34.0666L42.0986 170.584L50.1626 160.6H53.4266V183ZM74.2719 183H71.0079L70.6879 181.432C69.4079 182.605 67.8399 183.192 65.9839 183.192C63.7439 183.192 61.8985 182.403 60.4479 180.824C59.0185 179.245 58.3039 177.304 58.3039 175C58.3039 172.696 59.0185 170.755 60.4479 169.176C61.8985 167.576 63.7439 166.776 65.9839 166.776C67.8399 166.776 69.4185 167.373 70.7199 168.568L71.0079 167H74.2719V183ZM64.2559 177.464C64.8959 178.061 65.6425 178.36 66.4959 178.36C67.3492 178.36 68.0959 178.061 68.7359 177.464C69.3759 176.845 69.6959 176.024 69.6959 175C69.6959 173.976 69.3759 173.155 68.7359 172.536C68.0959 171.917 67.3492 171.608 66.4959 171.608C65.6425 171.608 64.8959 171.917 64.2559 172.536C63.6159 173.155 63.2959 173.976 63.2959 175C63.2959 176.024 63.6159 176.845 64.2559 177.464ZM86.7146 166.808C89.2746 166.808 91.376 167.789 93.0186 169.752L90.0426 172.984C88.9973 172.088 87.888 171.64 86.7146 171.64C85.8613 171.64 85.1146 171.949 84.4746 172.568C83.8346 173.165 83.5146 173.976 83.5146 175C83.5146 176.024 83.8346 176.845 84.4746 177.464C85.1146 178.061 85.8613 178.36 86.7146 178.36C87.888 178.36 88.9973 177.912 90.0426 177.016L93.0186 180.248C91.376 182.211 89.2746 183.192 86.7146 183.192C84.432 183.192 82.4906 182.392 80.8906 180.792C79.312 179.192 78.5226 177.261 78.5226 175C78.5226 172.739 79.312 170.808 80.8906 169.208C82.4906 167.608 84.432 166.808 86.7146 166.808ZM105.012 171.832V183H100.02V171.832H95.5076V167H109.492V171.832H105.012ZM120.117 166.776C123.445 166.776 125.76 168.152 127.061 170.904C127.445 171.693 127.648 172.621 127.669 173.688C127.712 174.755 127.584 175.672 127.285 176.44H117.237C117.237 177.123 117.514 177.667 118.069 178.072C118.645 178.456 119.338 178.648 120.149 178.648C121.749 178.648 123.232 178.371 124.597 177.816L127.189 180.664C124.906 182.349 122.56 183.192 120.149 183.192C117.781 183.192 115.84 182.413 114.325 180.856C112.832 179.277 112.085 177.325 112.085 175C112.085 172.653 112.81 170.701 114.261 169.144C115.712 167.565 117.664 166.776 120.117 166.776ZM120.117 171.352C119.349 171.352 118.709 171.565 118.197 171.992C117.706 172.397 117.45 172.835 117.429 173.304H122.773C122.773 172.984 122.645 172.675 122.389 172.376C121.898 171.693 121.141 171.352 120.117 171.352ZM140.899 166.808C143.139 166.808 144.974 167.597 146.403 169.176C147.854 170.755 148.579 172.696 148.579 175C148.579 177.304 147.854 179.256 146.403 180.856C144.974 182.435 143.139 183.224 140.899 183.224C139.683 183.224 138.585 182.925 137.603 182.328V188.888H132.611V167H135.907L136.195 168.568C137.475 167.395 139.043 166.808 140.899 166.808ZM140.387 171.64C139.555 171.64 138.809 171.949 138.147 172.568C137.507 173.165 137.187 173.976 137.187 175C137.187 176.024 137.507 176.845 138.147 177.464C138.809 178.083 139.555 178.392 140.387 178.392C141.241 178.392 141.987 178.083 142.627 177.464C143.267 176.845 143.587 176.024 143.587 175C143.587 173.976 143.267 173.165 142.627 172.568C141.987 171.949 141.241 171.64 140.387 171.64ZM181.776 183H176.336V165.72H169.68V183H164.24V160.6H181.776V183ZM188.205 161.528C188.781 161.016 189.464 160.76 190.253 160.76C191.043 160.76 191.715 161.016 192.269 161.528C192.845 162.019 193.133 162.616 193.133 163.32C193.133 164.045 192.856 164.653 192.301 165.144C191.747 165.635 191.064 165.88 190.253 165.88C189.443 165.88 188.76 165.635 188.205 165.144C187.651 164.653 187.373 164.045 187.373 163.32C187.373 162.616 187.651 162.019 188.205 161.528ZM195.245 161.528C195.821 161.016 196.504 160.76 197.293 160.76C198.083 160.76 198.755 161.016 199.309 161.528C199.885 162.019 200.173 162.616 200.173 163.32C200.173 164.045 199.896 164.653 199.341 165.144C198.787 165.635 198.104 165.88 197.293 165.88C196.483 165.88 195.8 165.635 195.245 165.144C194.691 164.653 194.413 164.045 194.413 163.32C194.413 162.616 194.691 162.019 195.245 161.528ZM193.773 166.776C197.101 166.776 199.416 168.152 200.717 170.904C201.101 171.693 201.304 172.621 201.325 173.688C201.368 174.755 201.24 175.672 200.941 176.44H190.893C190.893 177.123 191.171 177.667 191.725 178.072C192.301 178.456 192.995 178.648 193.805 178.648C195.405 178.648 196.888 178.371 198.253 177.816L200.845 180.664C198.563 182.349 196.216 183.192 193.805 183.192C191.437 183.192 189.496 182.413 187.981 180.856C186.488 179.277 185.741 177.325 185.741 175C185.741 172.653 186.467 170.701 187.917 169.144C189.368 167.565 191.32 166.776 193.773 166.776ZM193.773 171.352C193.005 171.352 192.365 171.565 191.853 171.992C191.363 172.397 191.107 172.835 191.085 173.304H196.429C196.429 172.984 196.301 172.675 196.045 172.376C195.555 171.693 194.797 171.352 193.773 171.352ZM213.293 171.832V183H208.301V171.832H203.789V167H217.773V171.832H213.293ZM229.774 166.808C232.014 166.808 233.849 167.597 235.278 169.176C236.729 170.755 237.454 172.696 237.454 175C237.454 177.304 236.729 179.256 235.278 180.856C233.849 182.435 232.014 183.224 229.774 183.224C228.558 183.224 227.46 182.925 226.478 182.328V188.888H221.486V167H224.782L225.07 168.568C226.35 167.395 227.918 166.808 229.774 166.808ZM229.262 171.64C228.43 171.64 227.684 171.949 227.022 172.568C226.382 173.165 226.062 173.976 226.062 175C226.062 176.024 226.382 176.845 227.022 177.464C227.684 178.083 228.43 178.392 229.262 178.392C230.116 178.392 230.862 178.083 231.502 177.464C232.142 176.845 232.462 176.024 232.462 175C232.462 173.976 232.142 173.165 231.502 172.568C230.862 171.949 230.116 171.64 229.262 171.64Z" fill="#1E0EDC"/>
</g>
<defs>
<filter id="filter0_d_5_62" x="0.802612" y="135.6" width="266.652" height="88.288" filterUnits="userSpaceOnUse" color-interpolation-filters="sRGB">
<feFlood flood-opacity="0" result="BackgroundImageFix"/>
<feColorMatrix in="SourceAlpha" type="matrix" values="0 0 0 0 0 0 0 0 0 0 0 0 0 0 0 0 0 0 127 0" result="hardAlpha"/>
<feOffset dy="5"/>
<feGaussianBlur stdDeviation="15"/>
<feComposite in2="hardAlpha" operator="out"/>
<feColorMatrix type="matrix" values="0 0 0 0 0.117647 0 0 0 0 0.054902 0 0 0 0 0.862745 0 0 0 0.2 0"/>
<feBlend mode="normal" in2="BackgroundImageFix" result="effect1_dropShadow_5_62"/>
<feBlend mode="normal" in="SourceGraphic" in2="effect1_dropShadow_5_62" result="shape"/>
</filter>
</defs>
</svg>
