<svg width="22" height="43" viewBox="0 0 22 43" fill="none" xmlns="http://www.w3.org/2000/svg">
<g clip-path="url(#clip0_51_290)">
<mask id="mask0_51_290" style="mask-type:luminance" maskUnits="userSpaceOnUse" x="0" y="0" width="22" height="43">
<path d="M22 43L22 0L1.90735e-06 -9.6165e-07L2.77589e-08 43L22 43Z" fill="white"/>
</mask>
<g mask="url(#mask0_51_290)">
<path d="M20.2445 17.412C20.7685 17.412 21.2457 17.4187 21.7228 17.412C21.9071 17.412 21.9992 17.4356 21.9978 17.6654C21.9877 19.1963 21.9841 20.728 21.9978 22.259C21.9978 22.5727 21.8243 22.5123 21.6538 22.5123C17.7192 22.5123 13.7847 22.5123 9.85019 22.5123C6.69341 22.5123 3.53598 22.5072 0.379262 22.5197C0.0805368 22.5197 0.00497529 22.446 0.00856875 22.1411C0.0258246 20.6684 0.0229484 19.2015 0.00856894 17.7317C0.00856895 17.4746 0.071191 17.3966 0.323112 17.4083C0.787341 17.429 1.25301 17.4142 1.77339 17.4142C-0.0864035 14.2728 -0.519 10.9863 0.621765 7.53778C1.42858 5.10403 2.93428 3.2012 5.02939 1.79396C9.05488 -0.916686 14.5478 -0.496212 18.189 2.71519C21.9208 5.99359 23.4675 12.1668 20.2445 17.412ZM10.9737 17.4187C14.1146 17.4834 16.9201 14.7235 17.0122 11.5276C17.1123 8.04443 14.5169 5.28444 11.3263 5.10698C8.02779 4.92288 5.03593 7.51717 4.98553 11.1851C4.93801 14.616 7.59958 17.3678 10.9737 17.4187Z" fill="#010101"/>
<path d="M20.6828 27.7282C21.0362 28.4329 21.3493 29.1126 21.5616 29.8372C21.9738 31.2184 22.094 32.6735 21.9143 34.1059C21.7346 35.5383 21.2591 36.9152 20.5194 38.1452C19.7796 39.3751 18.7925 40.43 17.6237 41.2396C16.4549 42.0492 15.1311 42.5951 13.7403 42.8411C13.1752 42.9427 12.6025 42.9935 12.0287 42.9928C8.14219 42.9972 4.25567 42.9928 0.369149 43.0016C0.0934306 43.0016 0.00924212 42.939 0.0142756 42.6445C0.0300914 41.1717 0.0322487 39.7041 0.0142758 38.2342C0.00996141 37.9095 0.115073 37.8661 0.395753 37.8661C4.29522 37.8759 8.19454 37.8779 12.0935 37.872C14.9005 37.872 17.1863 35.3822 17.0194 32.5236C16.8603 29.8564 14.6601 27.7282 12.041 27.7282C8.15442 27.7247 4.26789 27.727 0.381372 27.7348C0.081209 27.7348 0.0106809 27.6612 0.0142763 27.3578C0.0315302 25.885 0.028654 24.4174 0.0142765 22.9468C0.0142765 22.695 0.0668316 22.6235 0.323786 22.6235C7.43949 22.6314 14.556 22.6314 21.6731 22.6235C21.9502 22.6235 22.0028 22.7023 21.9999 22.9681C21.9869 24.4507 21.9869 25.9331 21.9999 27.4152C21.9999 27.6774 21.933 27.7517 21.6832 27.7333C21.3658 27.7105 21.0455 27.7282 20.6828 27.7282Z" fill="#010101"/>
</g>
</g>
<defs>
<clipPath id="clip0_51_290">
<rect width="43" height="22" fill="white" transform="translate(22) rotate(90)"/>
</clipPath>
</defs>
</svg>
