<svg width="33" height="33" viewBox="0 0 33 33" fill="none" xmlns="http://www.w3.org/2000/svg">
<circle cx="16.9492" cy="16.5" r="16" fill="white"/>
<path d="M16.9629 8.73438C14.8144 8.73438 12.9785 10.624 12.9785 12.7812C12.9785 14.9385 14.8144 16.7357 16.9629 16.7357C19.1114 16.7357 20.9473 14.9385 20.9473 12.7812C20.9473 10.624 19.1114 8.73438 16.9629 8.73438ZM16.9629 14.853C15.8254 14.853 14.8535 13.9015 14.8535 12.7595C14.8535 11.6174 15.8254 10.617 16.9629 10.617C18.1004 10.617 19.0723 11.6174 19.0723 12.7595C19.0723 13.9016 18.1004 14.853 16.9629 14.853Z" fill="#43CDD7"/>
<path d="M20.9256 21.0273H20.4483C18.6468 22.7449 16.9629 23.795 16.9629 23.795C16.9629 23.795 15.279 22.745 13.4775 21.0274H13.0002C10.4917 21.7506 8.99414 23.0485 8.99414 24.499C8.99414 25.5292 9.77377 26.5095 11.1893 27.2593C12.6993 28.0592 14.7497 28.4997 16.9629 28.4997C19.176 28.4997 21.2265 28.0592 22.7365 27.2594C24.152 26.5095 24.9316 25.5292 24.9316 24.4991C24.9316 23.0485 23.4341 21.7506 20.9256 21.0273Z" fill="#43CDD7"/>
<path d="M16.9629 10.1484C15.5654 10.1484 14.3848 11.3442 14.3848 12.7597C14.3848 14.1486 15.5654 15.3219 16.9629 15.3219C18.3604 15.3219 19.541 14.1486 19.541 12.7597C19.541 11.3442 18.3604 10.1484 16.9629 10.1484ZM16.9629 14.3844C16.0736 14.3844 15.3223 13.6403 15.3223 12.7596C15.3223 11.868 16.0889 11.0859 16.9629 11.0859C17.8369 11.0859 18.6035 11.868 18.6035 12.7596C18.6035 13.6403 17.8522 14.3844 16.9629 14.3844Z" fill="#5531D2"/>
<path d="M25.2117 12.7633C25.0387 8.172 21.4878 4.5 16.9629 4.5C12.4406 4.5 8.88721 8.16909 8.71406 12.7633C8.59804 15.8426 10.4887 18.6802 12.6539 20.8755C14.6432 22.8925 16.6312 24.141 16.7149 24.1931C16.7908 24.2404 16.8768 24.264 16.9629 24.264C17.0489 24.264 17.135 24.2404 17.2109 24.1931C17.2945 24.1409 19.2825 22.8925 21.2719 20.8755C23.4369 18.6803 25.3277 15.8426 25.2117 12.7633ZM20.6178 20.2035C19.1038 21.7413 17.553 22.8384 16.9629 23.2349C16.3727 22.8384 14.8219 21.7413 13.3079 20.2035C11.5785 18.4469 9.54018 15.7363 9.6509 12.7985C9.80643 8.67089 13.0183 5.4375 16.9629 5.4375C20.9075 5.4375 24.1193 8.67089 24.2748 12.7986C24.3856 15.7363 22.3472 18.447 20.6178 20.2035Z" fill="#5531D2"/>
</svg>
