<svg width="239" height="61" viewBox="0 0 239 61" fill="none" xmlns="http://www.w3.org/2000/svg">
<path fill-rule="evenodd" clip-rule="evenodd" d="M48.8772 11.6839C46.9586 21.1934 43.9597 25.945 41.2035 28.1035L42.2112 29.3901C45.5209 26.798 48.7422 21.3221 50.678 10.9844C50.7832 10.4226 50.3296 9.78465 49.63 9.88797C48.4586 10.061 45.7291 10.661 42.6392 11.6714C39.5537 12.6803 36.0382 14.1209 33.3372 15.9997L34.2704 17.3413C36.7796 15.5959 40.1205 14.2143 43.1471 13.2246C45.4605 12.4682 47.5489 11.9538 48.8772 11.6839Z" fill="#E7CDFC"/>
<path fill-rule="evenodd" clip-rule="evenodd" d="M28.1125 54.2719C31.6525 48.9424 33.4029 44.7342 34.0577 41.4844L35.6597 41.8072C34.9131 45.5126 32.8905 50.1978 28.8909 56.0403C28.5551 56.5309 27.7827 56.623 27.3741 56.0728C26.1026 54.3601 22.0765 47.859 20.5312 41.8493L22.114 41.4423C23.4015 46.4497 26.5396 51.8972 28.1125 54.2719Z" fill="#E7CDFC"/>
<path fill-rule="evenodd" clip-rule="evenodd" d="M7.12277 11.6839C9.04137 21.1934 12.0403 25.945 14.7965 28.1035L13.7888 29.3901C10.4791 26.798 7.25776 21.3221 5.32202 10.9844C5.21681 10.4226 5.67041 9.78465 6.37002 9.88797C7.54136 10.061 10.2709 10.661 13.3608 11.6714C16.4463 12.6803 19.9618 14.1209 22.6628 15.9997L21.7296 17.3413C19.2204 15.5959 15.8795 14.2143 12.8529 13.2246C10.5395 12.4682 8.45112 11.9538 7.12277 11.6839Z" fill="#E7CDFC"/>
<path fill-rule="evenodd" clip-rule="evenodd" d="M21.0138 27.7933C19.3426 27.3974 17.4951 28.0588 15.5647 29.5094C13.0901 31.3691 10.7211 34.3494 8.83594 37.1836C7.37485 39.3803 6.23524 41.4417 5.58943 42.7378C13.8437 43.2733 18.6853 42.3415 21.6596 40.9533C24.7057 39.5317 25.8757 37.596 26.784 35.996C27.3307 35.0331 28.6906 35.0767 29.1991 36.0337C30.0577 37.6495 31.2278 39.5794 34.2859 40.9879C37.2753 42.3647 42.1435 43.2758 50.4081 42.7379C49.7623 41.4418 48.6227 39.3803 47.1616 37.1836C45.2764 34.3494 42.9074 31.3691 40.4328 29.5094C38.5025 28.0588 36.655 27.3974 34.9838 27.7933L34.6071 26.203C36.977 25.6417 39.3312 26.6373 41.4146 28.203C44.1126 30.2305 46.6043 33.3951 48.5223 36.2786C50.4456 39.1701 51.8435 41.8581 52.3375 42.9999C52.63 43.6759 52.086 44.2539 51.5472 44.2953C42.5388 44.9873 37.0747 44.0715 33.6023 42.4722C30.3425 40.9709 28.911 38.8996 27.9746 37.2046C27.0138 38.8539 25.588 40.9233 22.3507 42.4342C18.8925 44.0482 13.4541 44.9869 4.45028 44.2953C3.91158 44.2539 3.36757 43.6759 3.66005 42.9999C4.15405 41.8581 5.55196 39.1701 7.47524 36.2786C9.39318 33.3951 11.8849 30.2305 14.5829 28.203C16.6664 26.6373 19.0205 25.6417 21.3904 26.203L21.0138 27.7933Z" fill="#E7CDFC"/>
<path fill-rule="evenodd" clip-rule="evenodd" d="M25.197 34.9986C25.1336 35.0543 25.0704 35.1098 25.0074 35.1654C24.7657 35.3787 24.7427 35.7475 24.956 35.9892C25.1693 36.2309 25.5382 36.2539 25.7798 36.0406C25.8437 35.9842 25.9084 35.9274 25.9739 35.8699C26.8673 35.0863 27.9123 34.1696 28.8954 32.4251C29.9429 30.5662 30.9055 27.7995 31.6313 23.2715L30.4787 23.0867C29.7651 27.5387 28.8335 30.1573 27.8784 31.852C26.9946 33.4203 26.0785 34.2246 25.197 34.9986Z" fill="#E7CDFC"/>
<path fill-rule="evenodd" clip-rule="evenodd" d="M28.4497 30.7245C28.6875 30.8554 28.9328 30.9921 29.1668 31.1423L28.5362 32.1246C28.3391 31.9981 28.1254 31.8785 27.8866 31.747C27.8615 31.7332 27.8362 31.7192 27.8107 31.7052C27.5971 31.5877 27.3657 31.4605 27.1315 31.3195C26.6006 31.0002 26.0346 30.5989 25.4975 30.0035C24.4176 28.8065 23.5314 26.9125 23.1209 23.5413L24.2796 23.4002C24.673 26.6302 25.5004 28.2642 26.3642 29.2216C26.7989 29.7034 27.2622 30.0359 27.7333 30.3193C27.9469 30.4479 28.1579 30.5639 28.3737 30.6826C28.3989 30.6965 28.4243 30.7105 28.4497 30.7245Z" fill="#E7CDFC"/>
<path d="M24.8072 22.9456C24.8072 23.5903 24.2846 24.1129 23.6399 24.1129C22.9953 24.1129 22.4727 23.5903 22.4727 22.9456C22.4727 22.3009 22.9953 21.7783 23.6399 21.7783C24.2846 21.7783 24.8072 22.3009 24.8072 22.9456Z" fill="#E7CDFC"/>
<path d="M30.0132 22.3563C29.8463 22.979 30.2158 23.6191 30.8386 23.7859C31.4613 23.9528 32.1013 23.5832 32.2682 22.9605C32.435 22.3378 32.0655 21.6977 31.4428 21.5309C30.8201 21.364 30.18 21.7336 30.0132 22.3563Z" fill="#E7CDFC"/>
<path fill-rule="evenodd" clip-rule="evenodd" d="M29.395 30.8124C29.4296 30.8643 29.4644 30.9167 29.4995 30.9695L28.5268 31.6149C28.4901 31.5596 28.4534 31.5045 28.4166 31.4493C27.7596 30.463 27.0974 29.469 26.7254 27.6598C26.3394 25.782 26.268 23.051 26.7369 18.5088L27.898 18.6286C27.433 23.133 27.5189 25.7228 27.8688 27.4247C28.1945 29.009 28.7501 29.8437 29.395 30.8124Z" fill="#E7CDFC"/>
<path d="M28.4283 17.8099C28.4283 18.4545 27.9057 18.9772 27.261 18.9772C26.6164 18.9772 26.0938 18.4545 26.0938 17.8099C26.0938 17.1652 26.6164 16.6426 27.261 16.6426C27.9057 16.6426 28.4283 17.1652 28.4283 17.8099Z" fill="#E7CDFC"/>
<path fill-rule="evenodd" clip-rule="evenodd" d="M28.2317 6.24459C28.5135 6.28044 28.7481 6.43988 28.8926 6.65097C34.4815 14.8156 36.2206 20.7378 35.9871 24.8831C35.751 29.0748 33.4922 31.4008 31.3262 32.1988C30.9028 32.3548 30.4331 32.138 30.277 31.7146C30.121 31.2911 30.3378 30.8214 30.7613 30.6653C32.2816 30.1052 34.1539 28.3704 34.3555 24.7912C34.5524 21.294 33.1481 15.998 28.1126 8.4171C26.7193 10.521 24.0867 15.0519 22.6107 19.5552C21.7473 22.1897 21.3169 24.7064 21.674 26.6893C21.8499 27.6659 22.2125 28.4891 22.788 29.142C23.3612 29.7924 24.1865 30.3203 25.3654 30.6442C25.8006 30.7637 26.0564 31.2134 25.9369 31.6485C25.8173 32.0837 25.3676 32.3395 24.9325 32.22C23.4929 31.8245 22.3753 31.1454 21.562 30.2226C20.7509 29.3023 20.2831 28.1862 20.0657 26.9789C19.6362 24.5939 20.1669 21.7644 21.0578 19.0463C22.8458 13.5909 26.2343 8.14796 27.3814 6.60657C27.5938 6.32104 27.9271 6.20584 28.2317 6.24459Z" fill="#E7CDFC"/>
<path d="M68.3311 13.498L71.7422 8.10449H73.0137V15.501H71.7422V10.1074L68.3311 15.501H67.0732V8.10449H68.3311V13.498ZM78.0039 14.5986C78.3047 14.5986 78.5827 14.5371 78.8379 14.4141C79.0931 14.291 79.3027 14.1224 79.4668 13.9082C79.6309 13.6895 79.7243 13.4411 79.7471 13.1631H80.9502C80.9274 13.6006 80.7793 14.0085 80.5059 14.3867C80.237 14.7604 79.8838 15.0635 79.4463 15.2959C79.0088 15.5238 78.528 15.6377 78.0039 15.6377C77.4479 15.6377 76.9626 15.5397 76.5479 15.3438C76.1377 15.1478 75.7959 14.8789 75.5225 14.5371C75.2536 14.1953 75.0508 13.8034 74.9141 13.3613C74.7819 12.9147 74.7158 12.443 74.7158 11.9463V11.6592C74.7158 11.1624 74.7819 10.693 74.9141 10.251C75.0508 9.80436 75.2536 9.41016 75.5225 9.06836C75.7959 8.72656 76.1377 8.45768 76.5479 8.26172C76.9626 8.06576 77.4479 7.96777 78.0039 7.96777C78.5827 7.96777 79.0885 8.08626 79.5215 8.32324C79.9544 8.55566 80.2939 8.87467 80.54 9.28027C80.7907 9.68132 80.9274 10.137 80.9502 10.6475H79.7471C79.7243 10.3421 79.6377 10.0664 79.4873 9.82031C79.3415 9.57422 79.141 9.37826 78.8857 9.23242C78.6351 9.08203 78.3411 9.00684 78.0039 9.00684C77.6165 9.00684 77.2907 9.08431 77.0264 9.23926C76.7666 9.38965 76.5592 9.59473 76.4043 9.85449C76.2539 10.1097 76.1445 10.3945 76.0762 10.709C76.0124 11.0189 75.9805 11.3356 75.9805 11.6592V11.9463C75.9805 12.2699 76.0124 12.5889 76.0762 12.9033C76.14 13.2178 76.2471 13.5026 76.3975 13.7578C76.5524 14.013 76.7598 14.2181 77.0195 14.373C77.2839 14.5234 77.612 14.5986 78.0039 14.5986ZM85.332 14.5986C85.6328 14.5986 85.9108 14.5371 86.166 14.4141C86.4212 14.291 86.6309 14.1224 86.7949 13.9082C86.959 13.6895 87.0524 13.4411 87.0752 13.1631H88.2783C88.2555 13.6006 88.1074 14.0085 87.834 14.3867C87.5651 14.7604 87.2119 15.0635 86.7744 15.2959C86.3369 15.5238 85.8561 15.6377 85.332 15.6377C84.776 15.6377 84.2907 15.5397 83.876 15.3438C83.4658 15.1478 83.124 14.8789 82.8506 14.5371C82.5817 14.1953 82.3789 13.8034 82.2422 13.3613C82.11 12.9147 82.0439 12.443 82.0439 11.9463V11.6592C82.0439 11.1624 82.11 10.693 82.2422 10.251C82.3789 9.80436 82.5817 9.41016 82.8506 9.06836C83.124 8.72656 83.4658 8.45768 83.876 8.26172C84.2907 8.06576 84.776 7.96777 85.332 7.96777C85.9108 7.96777 86.4167 8.08626 86.8496 8.32324C87.2826 8.55566 87.6221 8.87467 87.8682 9.28027C88.1188 9.68132 88.2555 10.137 88.2783 10.6475H87.0752C87.0524 10.3421 86.9658 10.0664 86.8154 9.82031C86.6696 9.57422 86.4691 9.37826 86.2139 9.23242C85.9632 9.08203 85.6693 9.00684 85.332 9.00684C84.9447 9.00684 84.6188 9.08431 84.3545 9.23926C84.0947 9.38965 83.8874 9.59473 83.7324 9.85449C83.582 10.1097 83.4727 10.3945 83.4043 10.709C83.3405 11.0189 83.3086 11.3356 83.3086 11.6592V11.9463C83.3086 12.2699 83.3405 12.5889 83.4043 12.9033C83.4681 13.2178 83.5752 13.5026 83.7256 13.7578C83.8805 14.013 84.0879 14.2181 84.3477 14.373C84.612 14.5234 84.9401 14.5986 85.332 14.5986ZM94.6426 8.10449V9.15039H91.0674V8.10449H94.6426ZM95.7568 8.10449V15.501H94.4922V8.10449H95.7568ZM90.7598 8.10449H92.0312L91.8398 11.6729C91.8079 12.2243 91.7555 12.7119 91.6826 13.1357C91.6143 13.555 91.5186 13.915 91.3955 14.2158C91.277 14.5166 91.1266 14.7627 90.9443 14.9541C90.7666 15.141 90.5524 15.2799 90.3018 15.3711C90.0511 15.4577 89.7617 15.501 89.4336 15.501H89.0371V14.3867L89.3105 14.3662C89.5065 14.3525 89.6729 14.307 89.8096 14.2295C89.9508 14.152 90.0693 14.0381 90.165 13.8877C90.2607 13.7327 90.3382 13.5345 90.3975 13.293C90.4613 13.0514 90.5091 12.7643 90.541 12.4316C90.5775 12.099 90.6048 11.7116 90.623 11.2695L90.7598 8.10449ZM100.863 15.6377C100.348 15.6377 99.8812 15.5511 99.4619 15.3779C99.0472 15.2002 98.6895 14.9518 98.3887 14.6328C98.0924 14.3138 97.8646 13.9355 97.7051 13.498C97.5456 13.0605 97.4658 12.582 97.4658 12.0625V11.7754C97.4658 11.1738 97.5547 10.6383 97.7324 10.1689C97.9102 9.69499 98.1517 9.29395 98.457 8.96582C98.7624 8.6377 99.1087 8.38932 99.4961 8.2207C99.8835 8.05208 100.285 7.96777 100.699 7.96777C101.228 7.96777 101.684 8.05892 102.066 8.24121C102.454 8.4235 102.771 8.67871 103.017 9.00684C103.263 9.3304 103.445 9.71322 103.563 10.1553C103.682 10.5928 103.741 11.0713 103.741 11.5908V12.1582H98.2178V11.126H102.477V11.0303C102.458 10.7021 102.39 10.3831 102.271 10.0732C102.158 9.76335 101.975 9.50814 101.725 9.30762C101.474 9.1071 101.132 9.00684 100.699 9.00684C100.412 9.00684 100.148 9.06836 99.9062 9.19141C99.6647 9.3099 99.4574 9.48763 99.2842 9.72461C99.111 9.96159 98.9766 10.251 98.8809 10.5928C98.7852 10.9346 98.7373 11.3288 98.7373 11.7754V12.0625C98.7373 12.4134 98.7852 12.7438 98.8809 13.0537C98.9811 13.359 99.1247 13.6279 99.3115 13.8604C99.5029 14.0928 99.7331 14.2751 100.002 14.4072C100.275 14.5394 100.585 14.6055 100.932 14.6055C101.378 14.6055 101.757 14.5143 102.066 14.332C102.376 14.1497 102.647 13.9059 102.88 13.6006L103.646 14.209C103.486 14.4505 103.283 14.6807 103.037 14.8994C102.791 15.1182 102.488 15.2959 102.128 15.4326C101.772 15.5693 101.351 15.6377 100.863 15.6377ZM106.551 8.10449H107.815L107.706 10.873C107.679 11.5749 107.599 12.181 107.467 12.6914C107.335 13.2018 107.166 13.637 106.961 13.9971C106.756 14.3525 106.526 14.651 106.271 14.8926C106.02 15.1341 105.76 15.3369 105.491 15.501H104.862L104.896 14.4688L105.156 14.4619C105.307 14.2842 105.452 14.1019 105.594 13.915C105.735 13.7236 105.865 13.498 105.983 13.2383C106.102 12.974 106.2 12.6527 106.277 12.2744C106.359 11.8916 106.412 11.4245 106.435 10.873L106.551 8.10449ZM106.865 8.10449H111.315V15.501H110.051V9.27344H106.865V8.10449ZM104.575 14.4619H112.266V17.6816H111.001V15.501H105.84V17.6816H104.568L104.575 14.4619ZM113.332 11.8848V11.7275C113.332 11.1943 113.41 10.6999 113.564 10.2441C113.719 9.78385 113.943 9.38509 114.234 9.04785C114.526 8.70605 114.879 8.44173 115.294 8.25488C115.709 8.06348 116.174 7.96777 116.688 7.96777C117.208 7.96777 117.675 8.06348 118.09 8.25488C118.509 8.44173 118.865 8.70605 119.156 9.04785C119.452 9.38509 119.678 9.78385 119.833 10.2441C119.988 10.6999 120.065 11.1943 120.065 11.7275V11.8848C120.065 12.418 119.988 12.9124 119.833 13.3682C119.678 13.8239 119.452 14.2227 119.156 14.5645C118.865 14.9017 118.511 15.166 118.097 15.3574C117.687 15.5443 117.222 15.6377 116.702 15.6377C116.183 15.6377 115.715 15.5443 115.301 15.3574C114.886 15.166 114.531 14.9017 114.234 14.5645C113.943 14.2227 113.719 13.8239 113.564 13.3682C113.41 12.9124 113.332 12.418 113.332 11.8848ZM114.597 11.7275V11.8848C114.597 12.2539 114.64 12.6025 114.727 12.9307C114.813 13.2542 114.943 13.5413 115.116 13.792C115.294 14.0426 115.515 14.2409 115.779 14.3867C116.044 14.528 116.351 14.5986 116.702 14.5986C117.049 14.5986 117.352 14.528 117.611 14.3867C117.876 14.2409 118.094 14.0426 118.268 13.792C118.441 13.5413 118.571 13.2542 118.657 12.9307C118.748 12.6025 118.794 12.2539 118.794 11.8848V11.7275C118.794 11.363 118.748 11.0189 118.657 10.6953C118.571 10.3672 118.438 10.0778 118.261 9.82715C118.088 9.57194 117.869 9.37142 117.604 9.22559C117.345 9.07975 117.039 9.00684 116.688 9.00684C116.342 9.00684 116.037 9.07975 115.772 9.22559C115.513 9.37142 115.294 9.57194 115.116 9.82715C114.943 10.0778 114.813 10.3672 114.727 10.6953C114.64 11.0189 114.597 11.363 114.597 11.7275ZM125.124 12.2471H122.697L122.684 11.2354H124.666C125.058 11.2354 125.384 11.1966 125.644 11.1191C125.908 11.0417 126.106 10.9255 126.238 10.7705C126.37 10.6156 126.437 10.4242 126.437 10.1963C126.437 10.0186 126.398 9.86361 126.32 9.73145C126.247 9.59473 126.136 9.48307 125.985 9.39648C125.835 9.30534 125.648 9.23926 125.425 9.19824C125.206 9.15267 124.949 9.12988 124.652 9.12988H123.032V15.501H121.768V8.10449H124.652C125.122 8.10449 125.543 8.14551 125.917 8.22754C126.295 8.30957 126.617 8.4349 126.881 8.60352C127.15 8.76758 127.355 8.97721 127.496 9.23242C127.637 9.48763 127.708 9.78841 127.708 10.1348C127.708 10.3581 127.662 10.57 127.571 10.7705C127.48 10.971 127.346 11.1488 127.168 11.3037C126.99 11.4587 126.771 11.5863 126.512 11.6865C126.252 11.7822 125.953 11.8438 125.616 11.8711L125.124 12.2471ZM125.124 15.501H122.239L122.868 14.4756H125.124C125.475 14.4756 125.767 14.4323 125.999 14.3457C126.231 14.2546 126.405 14.127 126.519 13.9629C126.637 13.7943 126.696 13.5938 126.696 13.3613C126.696 13.1289 126.637 12.9307 126.519 12.7666C126.405 12.598 126.231 12.4704 125.999 12.3838C125.767 12.2926 125.475 12.2471 125.124 12.2471H123.203L123.217 11.2354H125.616L126.074 11.6182C126.48 11.6501 126.824 11.7503 127.106 11.9189C127.389 12.0876 127.603 12.3018 127.749 12.5615C127.895 12.8167 127.968 13.0947 127.968 13.3955C127.968 13.7419 127.902 14.0472 127.77 14.3115C127.642 14.5758 127.455 14.7969 127.209 14.9746C126.963 15.1478 126.664 15.2799 126.313 15.3711C125.963 15.4577 125.566 15.501 125.124 15.501ZM134.024 14.2363V10.4287C134.024 10.137 133.965 9.88411 133.847 9.66992C133.733 9.45117 133.56 9.28255 133.327 9.16406C133.095 9.04557 132.808 8.98633 132.466 8.98633C132.147 8.98633 131.867 9.04102 131.625 9.15039C131.388 9.25977 131.201 9.40332 131.064 9.58105C130.932 9.75879 130.866 9.9502 130.866 10.1553H129.602C129.602 9.89095 129.67 9.62891 129.807 9.36914C129.943 9.10938 130.139 8.87467 130.395 8.66504C130.654 8.45085 130.964 8.28223 131.324 8.15918C131.689 8.03158 132.094 7.96777 132.541 7.96777C133.079 7.96777 133.553 8.05892 133.963 8.24121C134.378 8.4235 134.701 8.69922 134.934 9.06836C135.171 9.43294 135.289 9.89095 135.289 10.4424V13.8877C135.289 14.1338 135.31 14.3958 135.351 14.6738C135.396 14.9518 135.462 15.1911 135.549 15.3916V15.501H134.229C134.166 15.3551 134.116 15.1615 134.079 14.9199C134.043 14.6738 134.024 14.446 134.024 14.2363ZM134.243 11.0166L134.257 11.9053H132.979C132.618 11.9053 132.297 11.9349 132.015 11.9941C131.732 12.0488 131.495 12.1331 131.304 12.2471C131.112 12.361 130.966 12.5046 130.866 12.6777C130.766 12.8464 130.716 13.0446 130.716 13.2725C130.716 13.5049 130.768 13.7168 130.873 13.9082C130.978 14.0996 131.135 14.2523 131.345 14.3662C131.559 14.4756 131.821 14.5303 132.131 14.5303C132.518 14.5303 132.86 14.4482 133.156 14.2842C133.452 14.1201 133.687 13.9196 133.86 13.6826C134.038 13.4456 134.134 13.2155 134.147 12.9922L134.688 13.6006C134.656 13.792 134.569 14.0039 134.428 14.2363C134.286 14.4688 134.097 14.6921 133.86 14.9062C133.628 15.1159 133.35 15.2913 133.026 15.4326C132.707 15.5693 132.347 15.6377 131.946 15.6377C131.445 15.6377 131.005 15.5397 130.627 15.3438C130.253 15.1478 129.962 14.8857 129.752 14.5576C129.547 14.2249 129.444 13.8535 129.444 13.4434C129.444 13.0469 129.522 12.6982 129.677 12.3975C129.832 12.0921 130.055 11.8392 130.347 11.6387C130.638 11.4336 130.989 11.2786 131.399 11.1738C131.81 11.069 132.268 11.0166 132.773 11.0166H134.243ZM140.184 8.10449V15.501H138.912V8.10449H140.184ZM142.665 8.10449V9.12988H136.479V8.10449H142.665ZM146.432 15.6377C145.917 15.6377 145.45 15.5511 145.03 15.3779C144.616 15.2002 144.258 14.9518 143.957 14.6328C143.661 14.3138 143.433 13.9355 143.273 13.498C143.114 13.0605 143.034 12.582 143.034 12.0625V11.7754C143.034 11.1738 143.123 10.6383 143.301 10.1689C143.479 9.69499 143.72 9.29395 144.025 8.96582C144.331 8.6377 144.677 8.38932 145.064 8.2207C145.452 8.05208 145.853 7.96777 146.268 7.96777C146.796 7.96777 147.252 8.05892 147.635 8.24121C148.022 8.4235 148.339 8.67871 148.585 9.00684C148.831 9.3304 149.013 9.71322 149.132 10.1553C149.25 10.5928 149.31 11.0713 149.31 11.5908V12.1582H143.786V11.126H148.045V11.0303C148.027 10.7021 147.958 10.3831 147.84 10.0732C147.726 9.76335 147.544 9.50814 147.293 9.30762C147.042 9.1071 146.701 9.00684 146.268 9.00684C145.98 9.00684 145.716 9.06836 145.475 9.19141C145.233 9.3099 145.026 9.48763 144.853 9.72461C144.679 9.96159 144.545 10.251 144.449 10.5928C144.354 10.9346 144.306 11.3288 144.306 11.7754V12.0625C144.306 12.4134 144.354 12.7438 144.449 13.0537C144.549 13.359 144.693 13.6279 144.88 13.8604C145.071 14.0928 145.301 14.2751 145.57 14.4072C145.844 14.5394 146.154 14.6055 146.5 14.6055C146.947 14.6055 147.325 14.5143 147.635 14.332C147.945 14.1497 148.216 13.9059 148.448 13.6006L149.214 14.209C149.054 14.4505 148.852 14.6807 148.605 14.8994C148.359 15.1182 148.056 15.2959 147.696 15.4326C147.341 15.5693 146.919 15.6377 146.432 15.6377ZM155.729 8.10449V9.15039H152.153V8.10449H155.729ZM156.843 8.10449V15.501H155.578V8.10449H156.843ZM151.846 8.10449H153.117L152.926 11.6729C152.894 12.2243 152.841 12.7119 152.769 13.1357C152.7 13.555 152.604 13.915 152.481 14.2158C152.363 14.5166 152.213 14.7627 152.03 14.9541C151.853 15.141 151.638 15.2799 151.388 15.3711C151.137 15.4577 150.848 15.501 150.52 15.501H150.123V14.3867L150.396 14.3662C150.592 14.3525 150.759 14.307 150.896 14.2295C151.037 14.152 151.155 14.0381 151.251 13.8877C151.347 13.7327 151.424 13.5345 151.483 13.293C151.547 13.0514 151.595 12.7643 151.627 12.4316C151.663 12.099 151.691 11.7116 151.709 11.2695L151.846 8.10449ZM159.919 10.6475H162.141C162.738 10.6475 163.241 10.7523 163.651 10.9619C164.062 11.167 164.371 11.4518 164.581 11.8164C164.795 12.1764 164.902 12.5866 164.902 13.0469C164.902 13.3887 164.843 13.71 164.725 14.0107C164.606 14.307 164.428 14.5667 164.191 14.79C163.959 15.0133 163.67 15.1888 163.323 15.3164C162.981 15.4395 162.587 15.501 162.141 15.501H158.996V8.10449H160.261V14.4619H162.141C162.505 14.4619 162.797 14.3958 163.016 14.2637C163.234 14.1315 163.392 13.9606 163.487 13.751C163.583 13.5413 163.631 13.3226 163.631 13.0947C163.631 12.8714 163.583 12.6527 163.487 12.4385C163.392 12.2243 163.234 12.0465 163.016 11.9053C162.797 11.7594 162.505 11.6865 162.141 11.6865H159.919V10.6475ZM169.441 14.5986C169.742 14.5986 170.02 14.5371 170.275 14.4141C170.531 14.291 170.74 14.1224 170.904 13.9082C171.068 13.6895 171.162 13.4411 171.185 13.1631H172.388C172.365 13.6006 172.217 14.0085 171.943 14.3867C171.674 14.7604 171.321 15.0635 170.884 15.2959C170.446 15.5238 169.965 15.6377 169.441 15.6377C168.885 15.6377 168.4 15.5397 167.985 15.3438C167.575 15.1478 167.233 14.8789 166.96 14.5371C166.691 14.1953 166.488 13.8034 166.352 13.3613C166.219 12.9147 166.153 12.443 166.153 11.9463V11.6592C166.153 11.1624 166.219 10.693 166.352 10.251C166.488 9.80436 166.691 9.41016 166.96 9.06836C167.233 8.72656 167.575 8.45768 167.985 8.26172C168.4 8.06576 168.885 7.96777 169.441 7.96777C170.02 7.96777 170.526 8.08626 170.959 8.32324C171.392 8.55566 171.731 8.87467 171.978 9.28027C172.228 9.68132 172.365 10.137 172.388 10.6475H171.185C171.162 10.3421 171.075 10.0664 170.925 9.82031C170.779 9.57422 170.578 9.37826 170.323 9.23242C170.073 9.08203 169.779 9.00684 169.441 9.00684C169.054 9.00684 168.728 9.08431 168.464 9.23926C168.204 9.38965 167.997 9.59473 167.842 9.85449C167.691 10.1097 167.582 10.3945 167.514 10.709C167.45 11.0189 167.418 11.3356 167.418 11.6592V11.9463C167.418 12.2699 167.45 12.5889 167.514 12.9033C167.577 13.2178 167.685 13.5026 167.835 13.7578C167.99 14.013 168.197 14.2181 168.457 14.373C168.721 14.5234 169.049 14.5986 169.441 14.5986ZM175.184 8.10449V15.501H173.919V8.10449H175.184ZM180.037 8.10449L176.53 12.3428H174.76L174.568 11.2354H176.018L178.499 8.10449H180.037ZM178.677 15.501L175.956 12.1514L176.77 11.2354L180.283 15.501H178.677ZM182.751 13.498L186.162 8.10449H187.434V15.501H186.162V10.1074L182.751 15.501H181.493V8.10449H182.751V13.498ZM190.831 13.498L194.242 8.10449H195.514V15.501H194.242V10.1074L190.831 15.501H189.573V8.10449H190.831V13.498ZM193.552 5.4248H194.577C194.577 5.78027 194.495 6.09701 194.331 6.375C194.167 6.64844 193.932 6.86263 193.627 7.01758C193.322 7.17253 192.959 7.25 192.54 7.25C191.907 7.25 191.405 7.08138 191.036 6.74414C190.672 6.40234 190.489 5.96257 190.489 5.4248H191.515C191.515 5.69368 191.592 5.93066 191.747 6.13574C191.902 6.34082 192.166 6.44336 192.54 6.44336C192.905 6.44336 193.164 6.34082 193.319 6.13574C193.474 5.93066 193.552 5.69368 193.552 5.4248ZM67.0732 35.501V28.1045H68.3379V34.4619H71.7422V28.1045H73.0137V35.501H67.0732ZM73.8887 34.4619L73.7656 37.6953H72.6377V35.501H71.6738V34.4619H73.8887ZM78.332 35.6377C77.8171 35.6377 77.3499 35.5511 76.9307 35.3779C76.516 35.2002 76.1582 34.9518 75.8574 34.6328C75.5612 34.3138 75.3333 33.9355 75.1738 33.498C75.0143 33.0605 74.9346 32.582 74.9346 32.0625V31.7754C74.9346 31.1738 75.0234 30.6383 75.2012 30.1689C75.3789 29.695 75.6204 29.2939 75.9258 28.9658C76.2311 28.6377 76.5775 28.3893 76.9648 28.2207C77.3522 28.0521 77.7533 27.9678 78.168 27.9678C78.6966 27.9678 79.1523 28.0589 79.5352 28.2412C79.9225 28.4235 80.2393 28.6787 80.4854 29.0068C80.7314 29.3304 80.9137 29.7132 81.0322 30.1553C81.1507 30.5928 81.21 31.0713 81.21 31.5908V32.1582H75.6865V31.126H79.9453V31.0303C79.9271 30.7021 79.8587 30.3831 79.7402 30.0732C79.6263 29.7633 79.444 29.5081 79.1934 29.3076C78.9427 29.1071 78.6009 29.0068 78.168 29.0068C77.8809 29.0068 77.6165 29.0684 77.375 29.1914C77.1335 29.3099 76.9261 29.4876 76.7529 29.7246C76.5798 29.9616 76.4453 30.251 76.3496 30.5928C76.2539 30.9346 76.2061 31.3288 76.2061 31.7754V32.0625C76.2061 32.4134 76.2539 32.7438 76.3496 33.0537C76.4499 33.359 76.5934 33.6279 76.7803 33.8604C76.9717 34.0928 77.2018 34.2751 77.4707 34.4072C77.7441 34.5394 78.054 34.6055 78.4004 34.6055C78.847 34.6055 79.2253 34.5143 79.5352 34.332C79.8451 34.1497 80.1162 33.9059 80.3486 33.6006L81.1143 34.209C80.9548 34.4505 80.752 34.6807 80.5059 34.8994C80.2598 35.1182 79.9567 35.2959 79.5967 35.4326C79.2412 35.5693 78.8197 35.6377 78.332 35.6377ZM87.7041 31.3105V32.3359H83.7939V31.3105H87.7041ZM84.0605 28.1045V35.501H82.7959V28.1045H84.0605ZM88.7295 28.1045V35.501H87.458V28.1045H88.7295ZM93.7812 28.1045V35.501H92.5098V28.1045H93.7812ZM96.2627 28.1045V29.1299H90.0762V28.1045H96.2627ZM98.7715 29.5264V38.3447H97.5V28.1045H98.6621L98.7715 29.5264ZM103.755 31.7412V31.8848C103.755 32.4225 103.691 32.9215 103.563 33.3818C103.436 33.8376 103.249 34.234 103.003 34.5713C102.761 34.9085 102.463 35.1706 102.107 35.3574C101.752 35.5443 101.344 35.6377 100.884 35.6377C100.414 35.6377 99.9997 35.5602 99.6396 35.4053C99.2796 35.2503 98.9743 35.0247 98.7236 34.7285C98.473 34.4323 98.2725 34.0768 98.1221 33.6621C97.9762 33.2474 97.876 32.7803 97.8213 32.2607V31.4951C97.876 30.9482 97.9785 30.4583 98.1289 30.0254C98.2793 29.5924 98.4775 29.2233 98.7236 28.918C98.9743 28.6081 99.2773 28.3734 99.6328 28.2139C99.9883 28.0498 100.398 27.9678 100.863 27.9678C101.328 27.9678 101.741 28.0589 102.101 28.2412C102.461 28.4189 102.764 28.6742 103.01 29.0068C103.256 29.3395 103.44 29.7383 103.563 30.2031C103.691 30.6634 103.755 31.1761 103.755 31.7412ZM102.483 31.8848V31.7412C102.483 31.3721 102.445 31.0257 102.367 30.7021C102.29 30.374 102.169 30.0869 102.005 29.8408C101.845 29.5902 101.64 29.3942 101.39 29.2529C101.139 29.1071 100.84 29.0342 100.494 29.0342C100.175 29.0342 99.8971 29.0889 99.6602 29.1982C99.4277 29.3076 99.2295 29.4557 99.0654 29.6426C98.9014 29.8249 98.7669 30.0345 98.6621 30.2715C98.5618 30.5039 98.4867 30.7454 98.4365 30.9961V32.7666C98.5277 33.0856 98.6553 33.3864 98.8193 33.6689C98.9834 33.9469 99.2021 34.1725 99.4756 34.3457C99.749 34.5143 100.093 34.5986 100.508 34.5986C100.85 34.5986 101.144 34.528 101.39 34.3867C101.64 34.2409 101.845 34.0426 102.005 33.792C102.169 33.5413 102.29 33.2542 102.367 32.9307C102.445 32.6025 102.483 32.2539 102.483 31.8848ZM113.858 31.3105V32.3359H109.948V31.3105H113.858ZM110.215 28.1045V35.501H108.95V28.1045H110.215ZM114.884 28.1045V35.501H113.612V28.1045H114.884ZM116.586 31.8848V31.7275C116.586 31.1943 116.663 30.6999 116.818 30.2441C116.973 29.7839 117.197 29.3851 117.488 29.0479C117.78 28.7061 118.133 28.4417 118.548 28.2549C118.963 28.0635 119.427 27.9678 119.942 27.9678C120.462 27.9678 120.929 28.0635 121.344 28.2549C121.763 28.4417 122.118 28.7061 122.41 29.0479C122.706 29.3851 122.932 29.7839 123.087 30.2441C123.242 30.6999 123.319 31.1943 123.319 31.7275V31.8848C123.319 32.418 123.242 32.9124 123.087 33.3682C122.932 33.8239 122.706 34.2227 122.41 34.5645C122.118 34.9017 121.765 35.166 121.351 35.3574C120.94 35.5443 120.476 35.6377 119.956 35.6377C119.437 35.6377 118.969 35.5443 118.555 35.3574C118.14 35.166 117.785 34.9017 117.488 34.5645C117.197 34.2227 116.973 33.8239 116.818 33.3682C116.663 32.9124 116.586 32.418 116.586 31.8848ZM117.851 31.7275V31.8848C117.851 32.2539 117.894 32.6025 117.98 32.9307C118.067 33.2542 118.197 33.5413 118.37 33.792C118.548 34.0426 118.769 34.2409 119.033 34.3867C119.298 34.528 119.605 34.5986 119.956 34.5986C120.302 34.5986 120.605 34.528 120.865 34.3867C121.13 34.2409 121.348 34.0426 121.521 33.792C121.695 33.5413 121.825 33.2542 121.911 32.9307C122.002 32.6025 122.048 32.2539 122.048 31.8848V31.7275C122.048 31.363 122.002 31.0189 121.911 30.6953C121.825 30.3672 121.692 30.0778 121.515 29.8271C121.341 29.5719 121.123 29.3714 120.858 29.2256C120.599 29.0798 120.293 29.0068 119.942 29.0068C119.596 29.0068 119.291 29.0798 119.026 29.2256C118.767 29.3714 118.548 29.5719 118.37 29.8271C118.197 30.0778 118.067 30.3672 117.98 30.6953C117.894 31.0189 117.851 31.363 117.851 31.7275ZM128.378 32.2471H125.951L125.938 31.2354H127.92C128.312 31.2354 128.638 31.1966 128.897 31.1191C129.162 31.0417 129.36 30.9255 129.492 30.7705C129.624 30.6156 129.69 30.4242 129.69 30.1963C129.69 30.0186 129.652 29.8636 129.574 29.7314C129.501 29.5947 129.39 29.4831 129.239 29.3965C129.089 29.3053 128.902 29.2393 128.679 29.1982C128.46 29.1527 128.202 29.1299 127.906 29.1299H126.286V35.501H125.021V28.1045H127.906C128.376 28.1045 128.797 28.1455 129.171 28.2275C129.549 28.3096 129.87 28.4349 130.135 28.6035C130.404 28.7676 130.609 28.9772 130.75 29.2324C130.891 29.4876 130.962 29.7884 130.962 30.1348C130.962 30.3581 130.916 30.57 130.825 30.7705C130.734 30.971 130.6 31.1488 130.422 31.3037C130.244 31.4587 130.025 31.5863 129.766 31.6865C129.506 31.7822 129.207 31.8438 128.87 31.8711L128.378 32.2471ZM128.378 35.501H125.493L126.122 34.4756H128.378C128.729 34.4756 129.021 34.4323 129.253 34.3457C129.485 34.2546 129.659 34.127 129.772 33.9629C129.891 33.7943 129.95 33.5938 129.95 33.3613C129.95 33.1289 129.891 32.9307 129.772 32.7666C129.659 32.598 129.485 32.4704 129.253 32.3838C129.021 32.2926 128.729 32.2471 128.378 32.2471H126.457L126.471 31.2354H128.87L129.328 31.6182C129.734 31.6501 130.078 31.7503 130.36 31.9189C130.643 32.0876 130.857 32.3018 131.003 32.5615C131.149 32.8167 131.222 33.0947 131.222 33.3955C131.222 33.7419 131.156 34.0472 131.023 34.3115C130.896 34.5758 130.709 34.7969 130.463 34.9746C130.217 35.1478 129.918 35.2799 129.567 35.3711C129.216 35.4577 128.82 35.501 128.378 35.501ZM135.986 35.6377C135.471 35.6377 135.004 35.5511 134.585 35.3779C134.17 35.2002 133.812 34.9518 133.512 34.6328C133.215 34.3138 132.988 33.9355 132.828 33.498C132.669 33.0605 132.589 32.582 132.589 32.0625V31.7754C132.589 31.1738 132.678 30.6383 132.855 30.1689C133.033 29.695 133.275 29.2939 133.58 28.9658C133.885 28.6377 134.232 28.3893 134.619 28.2207C135.007 28.0521 135.408 27.9678 135.822 27.9678C136.351 27.9678 136.807 28.0589 137.189 28.2412C137.577 28.4235 137.894 28.6787 138.14 29.0068C138.386 29.3304 138.568 29.7132 138.687 30.1553C138.805 30.5928 138.864 31.0713 138.864 31.5908V32.1582H133.341V31.126H137.6V31.0303C137.581 30.7021 137.513 30.3831 137.395 30.0732C137.281 29.7633 137.098 29.5081 136.848 29.3076C136.597 29.1071 136.255 29.0068 135.822 29.0068C135.535 29.0068 135.271 29.0684 135.029 29.1914C134.788 29.3099 134.58 29.4876 134.407 29.7246C134.234 29.9616 134.1 30.251 134.004 30.5928C133.908 30.9346 133.86 31.3288 133.86 31.7754V32.0625C133.86 32.4134 133.908 32.7438 134.004 33.0537C134.104 33.359 134.248 33.6279 134.435 33.8604C134.626 34.0928 134.856 34.2751 135.125 34.4072C135.398 34.5394 135.708 34.6055 136.055 34.6055C136.501 34.6055 136.88 34.5143 137.189 34.332C137.499 34.1497 137.771 33.9059 138.003 33.6006L138.769 34.209C138.609 34.4505 138.406 34.6807 138.16 34.8994C137.914 35.1182 137.611 35.2959 137.251 35.4326C136.896 35.5693 136.474 35.6377 135.986 35.6377ZM141.708 33.498L145.119 28.1045H146.391V35.501H145.119V30.1074L141.708 35.501H140.45V28.1045H141.708V33.498ZM144.429 25.4248H145.454C145.454 25.7803 145.372 26.097 145.208 26.375C145.044 26.6484 144.809 26.8626 144.504 27.0176C144.199 27.1725 143.836 27.25 143.417 27.25C142.784 27.25 142.282 27.0814 141.913 26.7441C141.549 26.4023 141.366 25.9626 141.366 25.4248H142.392C142.392 25.6937 142.469 25.9307 142.624 26.1357C142.779 26.3408 143.043 26.4434 143.417 26.4434C143.782 26.4434 144.041 26.3408 144.196 26.1357C144.351 25.9307 144.429 25.6937 144.429 25.4248ZM148.53 28.1045H149.795V34.4619H152.502V28.1045H153.773V34.4619H156.474V28.1045H157.738V35.501H148.53V28.1045ZM161.122 33.498L164.533 28.1045H165.805V35.501H164.533V30.1074L161.122 35.501H159.864V28.1045H161.122V33.498ZM168.689 28.1045L170.31 30.7979L171.95 28.1045H173.434L171.014 31.7549L173.509 35.501H172.046L170.337 32.7256L168.628 35.501H167.158L169.646 31.7549L167.233 28.1045H168.689ZM71.2158 53.8193L73.7314 48.1045H74.9482L71.6533 55.501H70.7783L67.4971 48.1045H68.7139L71.2158 53.8193ZM68.3447 48.1045V55.501H67.0801V48.1045H68.3447ZM74.0459 55.501V48.1045H75.3174V55.501H74.0459ZM80.4238 55.6377C79.9089 55.6377 79.4417 55.5511 79.0225 55.3779C78.6077 55.2002 78.25 54.9518 77.9492 54.6328C77.653 54.3138 77.4251 53.9355 77.2656 53.498C77.1061 53.0605 77.0264 52.582 77.0264 52.0625V51.7754C77.0264 51.1738 77.1152 50.6383 77.293 50.1689C77.4707 49.695 77.7122 49.2939 78.0176 48.9658C78.3229 48.6377 78.6693 48.3893 79.0566 48.2207C79.444 48.0521 79.8451 47.9678 80.2598 47.9678C80.7884 47.9678 81.2441 48.0589 81.627 48.2412C82.0143 48.4235 82.3311 48.6787 82.5771 49.0068C82.8232 49.3304 83.0055 49.7132 83.124 50.1553C83.2425 50.5928 83.3018 51.0713 83.3018 51.5908V52.1582H77.7783V51.126H82.0371V51.0303C82.0189 50.7021 81.9505 50.3831 81.832 50.0732C81.7181 49.7633 81.5358 49.5081 81.2852 49.3076C81.0345 49.1071 80.6927 49.0068 80.2598 49.0068C79.9727 49.0068 79.7083 49.0684 79.4668 49.1914C79.2253 49.3099 79.0179 49.4876 78.8447 49.7246C78.6715 49.9616 78.5371 50.251 78.4414 50.5928C78.3457 50.9346 78.2979 51.3288 78.2979 51.7754V52.0625C78.2979 52.4134 78.3457 52.7438 78.4414 53.0537C78.5417 53.359 78.6852 53.6279 78.8721 53.8604C79.0635 54.0928 79.2936 54.2751 79.5625 54.4072C79.8359 54.5394 80.1458 54.6055 80.4922 54.6055C80.9388 54.6055 81.3171 54.5143 81.627 54.332C81.9368 54.1497 82.208 53.9059 82.4404 53.6006L83.2061 54.209C83.0465 54.4505 82.8438 54.6807 82.5977 54.8994C82.3516 55.1182 82.0485 55.2959 81.6885 55.4326C81.333 55.5693 80.9115 55.6377 80.4238 55.6377ZM87.7109 48.1045V55.501H86.4395V48.1045H87.7109ZM90.1924 48.1045V49.1299H84.0059V48.1045H90.1924ZM90.8145 51.8848V51.7275C90.8145 51.1943 90.8919 50.6999 91.0469 50.2441C91.2018 49.7839 91.4251 49.3851 91.7168 49.0479C92.0085 48.7061 92.3617 48.4417 92.7764 48.2549C93.1911 48.0635 93.6559 47.9678 94.1709 47.9678C94.6904 47.9678 95.1576 48.0635 95.5723 48.2549C95.9915 48.4417 96.347 48.7061 96.6387 49.0479C96.9349 49.3851 97.1605 49.7839 97.3154 50.2441C97.4704 50.6999 97.5479 51.1943 97.5479 51.7275V51.8848C97.5479 52.418 97.4704 52.9124 97.3154 53.3682C97.1605 53.8239 96.9349 54.2227 96.6387 54.5645C96.347 54.9017 95.9938 55.166 95.5791 55.3574C95.1689 55.5443 94.7041 55.6377 94.1846 55.6377C93.665 55.6377 93.1979 55.5443 92.7832 55.3574C92.3685 55.166 92.013 54.9017 91.7168 54.5645C91.4251 54.2227 91.2018 53.8239 91.0469 53.3682C90.8919 52.9124 90.8145 52.418 90.8145 51.8848ZM92.0791 51.7275V51.8848C92.0791 52.2539 92.1224 52.6025 92.209 52.9307C92.2956 53.2542 92.4255 53.5413 92.5986 53.792C92.7764 54.0426 92.9974 54.2409 93.2617 54.3867C93.526 54.528 93.8337 54.5986 94.1846 54.5986C94.5309 54.5986 94.834 54.528 95.0938 54.3867C95.3581 54.2409 95.5768 54.0426 95.75 53.792C95.9232 53.5413 96.0531 53.2542 96.1396 52.9307C96.2308 52.6025 96.2764 52.2539 96.2764 51.8848V51.7275C96.2764 51.363 96.2308 51.0189 96.1396 50.6953C96.0531 50.3672 95.9209 50.0778 95.7432 49.8271C95.57 49.5719 95.3512 49.3714 95.0869 49.2256C94.8271 49.0798 94.5218 49.0068 94.1709 49.0068C93.8245 49.0068 93.5192 49.0798 93.2549 49.2256C92.9951 49.3714 92.7764 49.5719 92.5986 49.8271C92.4255 50.0778 92.2956 50.3672 92.209 50.6953C92.1224 51.0189 92.0791 51.363 92.0791 51.7275ZM99.9746 48.1045H101.239L101.13 50.873C101.103 51.5749 101.023 52.181 100.891 52.6914C100.758 53.2018 100.59 53.637 100.385 53.9971C100.18 54.3525 99.9495 54.651 99.6943 54.8926C99.4437 55.1341 99.1839 55.3369 98.915 55.501H98.2861L98.3203 54.4688L98.5801 54.4619C98.7305 54.2842 98.8763 54.1019 99.0176 53.915C99.1589 53.7236 99.2887 53.498 99.4072 53.2383C99.5257 52.974 99.6237 52.6527 99.7012 52.2744C99.7832 51.8916 99.8356 51.4245 99.8584 50.873L99.9746 48.1045ZM100.289 48.1045H104.739V55.501H103.475V49.2734H100.289V48.1045ZM97.999 54.4619H105.689V57.6816H104.425V55.501H99.2637V57.6816H97.9922L97.999 54.4619ZM106.756 51.8848V51.7275C106.756 51.1943 106.833 50.6999 106.988 50.2441C107.143 49.7839 107.367 49.3851 107.658 49.0479C107.95 48.7061 108.303 48.4417 108.718 48.2549C109.132 48.0635 109.597 47.9678 110.112 47.9678C110.632 47.9678 111.099 48.0635 111.514 48.2549C111.933 48.4417 112.288 48.7061 112.58 49.0479C112.876 49.3851 113.102 49.7839 113.257 50.2441C113.412 50.6999 113.489 51.1943 113.489 51.7275V51.8848C113.489 52.418 113.412 52.9124 113.257 53.3682C113.102 53.8239 112.876 54.2227 112.58 54.5645C112.288 54.9017 111.935 55.166 111.521 55.3574C111.11 55.5443 110.646 55.6377 110.126 55.6377C109.606 55.6377 109.139 55.5443 108.725 55.3574C108.31 55.166 107.954 54.9017 107.658 54.5645C107.367 54.2227 107.143 53.8239 106.988 53.3682C106.833 52.9124 106.756 52.418 106.756 51.8848ZM108.021 51.7275V51.8848C108.021 52.2539 108.064 52.6025 108.15 52.9307C108.237 53.2542 108.367 53.5413 108.54 53.792C108.718 54.0426 108.939 54.2409 109.203 54.3867C109.467 54.528 109.775 54.5986 110.126 54.5986C110.472 54.5986 110.775 54.528 111.035 54.3867C111.299 54.2409 111.518 54.0426 111.691 53.792C111.865 53.5413 111.994 53.2542 112.081 52.9307C112.172 52.6025 112.218 52.2539 112.218 51.8848V51.7275C112.218 51.363 112.172 51.0189 112.081 50.6953C111.994 50.3672 111.862 50.0778 111.685 49.8271C111.511 49.5719 111.293 49.3714 111.028 49.2256C110.769 49.0798 110.463 49.0068 110.112 49.0068C109.766 49.0068 109.461 49.0798 109.196 49.2256C108.937 49.3714 108.718 49.5719 108.54 49.8271C108.367 50.0778 108.237 50.3672 108.15 50.6953C108.064 51.0189 108.021 51.363 108.021 51.7275ZM118.548 52.2471H116.121L116.107 51.2354H118.09C118.482 51.2354 118.808 51.1966 119.067 51.1191C119.332 51.0417 119.53 50.9255 119.662 50.7705C119.794 50.6156 119.86 50.4242 119.86 50.1963C119.86 50.0186 119.822 49.8636 119.744 49.7314C119.671 49.5947 119.56 49.4831 119.409 49.3965C119.259 49.3053 119.072 49.2393 118.849 49.1982C118.63 49.1527 118.372 49.1299 118.076 49.1299H116.456V55.501H115.191V48.1045H118.076C118.546 48.1045 118.967 48.1455 119.341 48.2275C119.719 48.3096 120.04 48.4349 120.305 48.6035C120.574 48.7676 120.779 48.9772 120.92 49.2324C121.061 49.4876 121.132 49.7884 121.132 50.1348C121.132 50.3581 121.086 50.57 120.995 50.7705C120.904 50.971 120.77 51.1488 120.592 51.3037C120.414 51.4587 120.195 51.5863 119.936 51.6865C119.676 51.7822 119.377 51.8438 119.04 51.8711L118.548 52.2471ZM118.548 55.501H115.663L116.292 54.4756H118.548C118.899 54.4756 119.19 54.4323 119.423 54.3457C119.655 54.2546 119.828 54.127 119.942 53.9629C120.061 53.7943 120.12 53.5938 120.12 53.3613C120.12 53.1289 120.061 52.9307 119.942 52.7666C119.828 52.598 119.655 52.4704 119.423 52.3838C119.19 52.2926 118.899 52.2471 118.548 52.2471H116.627L116.641 51.2354H119.04L119.498 51.6182C119.904 51.6501 120.248 51.7503 120.53 51.9189C120.813 52.0876 121.027 52.3018 121.173 52.5615C121.319 52.8167 121.392 53.0947 121.392 53.3955C121.392 53.7419 121.326 54.0472 121.193 54.3115C121.066 54.5758 120.879 54.7969 120.633 54.9746C120.387 55.1478 120.088 55.2799 119.737 55.3711C119.386 55.4577 118.99 55.501 118.548 55.501ZM130.032 52.2471H127.605L127.592 51.2354H129.574C129.966 51.2354 130.292 51.1966 130.552 51.1191C130.816 51.0417 131.014 50.9255 131.146 50.7705C131.279 50.6156 131.345 50.4242 131.345 50.1963C131.345 50.0186 131.306 49.8636 131.229 49.7314C131.156 49.5947 131.044 49.4831 130.894 49.3965C130.743 49.3053 130.556 49.2393 130.333 49.1982C130.114 49.1527 129.857 49.1299 129.561 49.1299H127.94V55.501H126.676V48.1045H129.561C130.03 48.1045 130.451 48.1455 130.825 48.2275C131.203 48.3096 131.525 48.4349 131.789 48.6035C132.058 48.7676 132.263 48.9772 132.404 49.2324C132.546 49.4876 132.616 49.7884 132.616 50.1348C132.616 50.3581 132.571 50.57 132.479 50.7705C132.388 50.971 132.254 51.1488 132.076 51.3037C131.898 51.4587 131.68 51.5863 131.42 51.6865C131.16 51.7822 130.862 51.8438 130.524 51.8711L130.032 52.2471ZM130.032 55.501H127.147L127.776 54.4756H130.032C130.383 54.4756 130.675 54.4323 130.907 54.3457C131.14 54.2546 131.313 54.127 131.427 53.9629C131.545 53.7943 131.604 53.5938 131.604 53.3613C131.604 53.1289 131.545 52.9307 131.427 52.7666C131.313 52.598 131.14 52.4704 130.907 52.3838C130.675 52.2926 130.383 52.2471 130.032 52.2471H128.111L128.125 51.2354H130.524L130.982 51.6182C131.388 51.6501 131.732 51.7503 132.015 51.9189C132.297 52.0876 132.511 52.3018 132.657 52.5615C132.803 52.8167 132.876 53.0947 132.876 53.3955C132.876 53.7419 132.81 54.0472 132.678 54.3115C132.55 54.5758 132.363 54.7969 132.117 54.9746C131.871 55.1478 131.573 55.2799 131.222 55.3711C130.871 55.4577 130.474 55.501 130.032 55.501ZM143.062 51.3105V52.3359H139.151V51.3105H143.062ZM139.418 48.1045V55.501H138.153V48.1045H139.418ZM144.087 48.1045V55.501H142.815V48.1045H144.087ZM150.485 54.2363V50.4287C150.485 50.137 150.426 49.8841 150.308 49.6699C150.194 49.4512 150.021 49.2826 149.788 49.1641C149.556 49.0456 149.269 48.9863 148.927 48.9863C148.608 48.9863 148.327 49.041 148.086 49.1504C147.849 49.2598 147.662 49.4033 147.525 49.5811C147.393 49.7588 147.327 49.9502 147.327 50.1553H146.062C146.062 49.891 146.131 49.6289 146.268 49.3691C146.404 49.1094 146.6 48.8747 146.855 48.665C147.115 48.4508 147.425 48.2822 147.785 48.1592C148.15 48.0316 148.555 47.9678 149.002 47.9678C149.54 47.9678 150.014 48.0589 150.424 48.2412C150.839 48.4235 151.162 48.6992 151.395 49.0684C151.632 49.4329 151.75 49.891 151.75 50.4424V53.8877C151.75 54.1338 151.771 54.3958 151.812 54.6738C151.857 54.9518 151.923 55.1911 152.01 55.3916V55.501H150.69C150.627 55.3551 150.576 55.1615 150.54 54.9199C150.504 54.6738 150.485 54.446 150.485 54.2363ZM150.704 51.0166L150.718 51.9053H149.439C149.079 51.9053 148.758 51.9349 148.476 51.9941C148.193 52.0488 147.956 52.1331 147.765 52.2471C147.573 52.361 147.427 52.5046 147.327 52.6777C147.227 52.8464 147.177 53.0446 147.177 53.2725C147.177 53.5049 147.229 53.7168 147.334 53.9082C147.439 54.0996 147.596 54.2523 147.806 54.3662C148.02 54.4756 148.282 54.5303 148.592 54.5303C148.979 54.5303 149.321 54.4482 149.617 54.2842C149.913 54.1201 150.148 53.9196 150.321 53.6826C150.499 53.4456 150.595 53.2155 150.608 52.9922L151.148 53.6006C151.117 53.792 151.03 54.0039 150.889 54.2363C150.747 54.4688 150.558 54.6921 150.321 54.9062C150.089 55.1159 149.811 55.2913 149.487 55.4326C149.168 55.5693 148.808 55.6377 148.407 55.6377C147.906 55.6377 147.466 55.5397 147.088 55.3438C146.714 55.1478 146.423 54.8857 146.213 54.5576C146.008 54.2249 145.905 53.8535 145.905 53.4434C145.905 53.0469 145.983 52.6982 146.138 52.3975C146.293 52.0921 146.516 51.8392 146.808 51.6387C147.099 51.4336 147.45 51.2786 147.86 51.1738C148.271 51.069 148.729 51.0166 149.234 51.0166H150.704ZM155.004 49.5264V58.3447H153.732V48.1045H154.895L155.004 49.5264ZM159.987 51.7412V51.8848C159.987 52.4225 159.924 52.9215 159.796 53.3818C159.668 53.8376 159.481 54.234 159.235 54.5713C158.994 54.9085 158.695 55.1706 158.34 55.3574C157.984 55.5443 157.576 55.6377 157.116 55.6377C156.647 55.6377 156.232 55.5602 155.872 55.4053C155.512 55.2503 155.207 55.0247 154.956 54.7285C154.705 54.4323 154.505 54.0768 154.354 53.6621C154.209 53.2474 154.108 52.7803 154.054 52.2607V51.4951C154.108 50.9482 154.211 50.4583 154.361 50.0254C154.512 49.5924 154.71 49.2233 154.956 48.918C155.207 48.6081 155.51 48.3734 155.865 48.2139C156.221 48.0498 156.631 47.9678 157.096 47.9678C157.561 47.9678 157.973 48.0589 158.333 48.2412C158.693 48.4189 158.996 48.6742 159.242 49.0068C159.488 49.3395 159.673 49.7383 159.796 50.2031C159.924 50.6634 159.987 51.1761 159.987 51.7412ZM158.716 51.8848V51.7412C158.716 51.3721 158.677 51.0257 158.6 50.7021C158.522 50.374 158.401 50.0869 158.237 49.8408C158.078 49.5902 157.873 49.3942 157.622 49.2529C157.371 49.1071 157.073 49.0342 156.727 49.0342C156.408 49.0342 156.13 49.0889 155.893 49.1982C155.66 49.3076 155.462 49.4557 155.298 49.6426C155.134 49.8249 154.999 50.0345 154.895 50.2715C154.794 50.5039 154.719 50.7454 154.669 50.9961V52.7666C154.76 53.0856 154.888 53.3864 155.052 53.6689C155.216 53.9469 155.435 54.1725 155.708 54.3457C155.981 54.5143 156.326 54.5986 156.74 54.5986C157.082 54.5986 157.376 54.528 157.622 54.3867C157.873 54.2409 158.078 54.0426 158.237 53.792C158.401 53.5413 158.522 53.2542 158.6 52.9307C158.677 52.6025 158.716 52.2539 158.716 51.8848ZM162.975 48.1045V55.501H161.71V48.1045H162.975ZM167.828 48.1045L164.321 52.3428H162.551L162.359 51.2354H163.809L166.29 48.1045H167.828ZM166.468 55.501L163.747 52.1514L164.561 51.2354L168.074 55.501H166.468ZM168.689 51.8848V51.7275C168.689 51.1943 168.767 50.6999 168.922 50.2441C169.077 49.7839 169.3 49.3851 169.592 49.0479C169.883 48.7061 170.237 48.4417 170.651 48.2549C171.066 48.0635 171.531 47.9678 172.046 47.9678C172.565 47.9678 173.033 48.0635 173.447 48.2549C173.867 48.4417 174.222 48.7061 174.514 49.0479C174.81 49.3851 175.035 49.7839 175.19 50.2441C175.345 50.6999 175.423 51.1943 175.423 51.7275V51.8848C175.423 52.418 175.345 52.9124 175.19 53.3682C175.035 53.8239 174.81 54.2227 174.514 54.5645C174.222 54.9017 173.869 55.166 173.454 55.3574C173.044 55.5443 172.579 55.6377 172.06 55.6377C171.54 55.6377 171.073 55.5443 170.658 55.3574C170.243 55.166 169.888 54.9017 169.592 54.5645C169.3 54.2227 169.077 53.8239 168.922 53.3682C168.767 52.9124 168.689 52.418 168.689 51.8848ZM169.954 51.7275V51.8848C169.954 52.2539 169.997 52.6025 170.084 52.9307C170.171 53.2542 170.3 53.5413 170.474 53.792C170.651 54.0426 170.872 54.2409 171.137 54.3867C171.401 54.528 171.709 54.5986 172.06 54.5986C172.406 54.5986 172.709 54.528 172.969 54.3867C173.233 54.2409 173.452 54.0426 173.625 53.792C173.798 53.5413 173.928 53.2542 174.015 52.9307C174.106 52.6025 174.151 52.2539 174.151 51.8848V51.7275C174.151 51.363 174.106 51.0189 174.015 50.6953C173.928 50.3672 173.796 50.0778 173.618 49.8271C173.445 49.5719 173.226 49.3714 172.962 49.2256C172.702 49.0798 172.397 49.0068 172.046 49.0068C171.7 49.0068 171.394 49.0798 171.13 49.2256C170.87 49.3714 170.651 49.5719 170.474 49.8271C170.3 50.0778 170.171 50.3672 170.084 50.6953C169.997 51.0189 169.954 51.363 169.954 51.7275ZM181.842 48.1045V49.1504H178.267V48.1045H181.842ZM182.956 48.1045V55.501H181.691V48.1045H182.956ZM177.959 48.1045H179.23L179.039 51.6729C179.007 52.2243 178.955 52.7119 178.882 53.1357C178.813 53.555 178.718 53.915 178.595 54.2158C178.476 54.5166 178.326 54.7627 178.144 54.9541C177.966 55.141 177.752 55.2799 177.501 55.3711C177.25 55.4577 176.961 55.501 176.633 55.501H176.236V54.3867L176.51 54.3662C176.706 54.3525 176.872 54.307 177.009 54.2295C177.15 54.152 177.269 54.0381 177.364 53.8877C177.46 53.7327 177.537 53.5345 177.597 53.293C177.66 53.0514 177.708 52.7643 177.74 52.4316C177.777 52.099 177.804 51.7116 177.822 51.2695L177.959 48.1045ZM184.658 51.8848V51.7275C184.658 51.1943 184.736 50.6999 184.891 50.2441C185.046 49.7839 185.269 49.3851 185.561 49.0479C185.852 48.7061 186.205 48.4417 186.62 48.2549C187.035 48.0635 187.5 47.9678 188.015 47.9678C188.534 47.9678 189.001 48.0635 189.416 48.2549C189.835 48.4417 190.191 48.7061 190.482 49.0479C190.779 49.3851 191.004 49.7839 191.159 50.2441C191.314 50.6999 191.392 51.1943 191.392 51.7275V51.8848C191.392 52.418 191.314 52.9124 191.159 53.3682C191.004 53.8239 190.779 54.2227 190.482 54.5645C190.191 54.9017 189.838 55.166 189.423 55.3574C189.013 55.5443 188.548 55.6377 188.028 55.6377C187.509 55.6377 187.042 55.5443 186.627 55.3574C186.212 55.166 185.857 54.9017 185.561 54.5645C185.269 54.2227 185.046 53.8239 184.891 53.3682C184.736 52.9124 184.658 52.418 184.658 51.8848ZM185.923 51.7275V51.8848C185.923 52.2539 185.966 52.6025 186.053 52.9307C186.139 53.2542 186.269 53.5413 186.442 53.792C186.62 54.0426 186.841 54.2409 187.105 54.3867C187.37 54.528 187.677 54.5986 188.028 54.5986C188.375 54.5986 188.678 54.528 188.938 54.3867C189.202 54.2409 189.421 54.0426 189.594 53.792C189.767 53.5413 189.897 53.2542 189.983 52.9307C190.075 52.6025 190.12 52.2539 190.12 51.8848V51.7275C190.12 51.363 190.075 51.0189 189.983 50.6953C189.897 50.3672 189.765 50.0778 189.587 49.8271C189.414 49.5719 189.195 49.3714 188.931 49.2256C188.671 49.0798 188.366 49.0068 188.015 49.0068C187.668 49.0068 187.363 49.0798 187.099 49.2256C186.839 49.3714 186.62 49.5719 186.442 49.8271C186.269 50.0778 186.139 50.3672 186.053 50.6953C185.966 51.0189 185.923 51.363 185.923 51.7275ZM197.756 48.1045V49.1504H194.338V55.501H193.073V48.1045H197.756ZM200.224 53.498L203.635 48.1045H204.906V55.501H203.635V50.1074L200.224 55.501H198.966V48.1045H200.224V53.498ZM208.304 53.498L211.715 48.1045H212.986V55.501H211.715V50.1074L208.304 55.501H207.046V48.1045H208.304V53.498Z" fill="white"/>
</svg>
