<svg width="24" height="24" viewBox="0 0 24 24" fill="none" xmlns="http://www.w3.org/2000/svg">
<path fill-rule="evenodd" clip-rule="evenodd" d="M17.0767 16.1472C18.0682 14.8721 18.6586 13.2697 18.6586 11.5295C18.6586 7.37106 15.2875 4 11.1291 4C6.97067 4 3.59961 7.37106 3.59961 11.5295C3.59961 15.6879 6.97067 19.0589 11.1291 19.0589C12.8688 19.0589 14.4707 18.4689 15.7456 17.4781L17.9929 19.7255C18.3605 20.093 18.9564 20.093 19.324 19.7255C19.6915 19.3579 19.6915 18.762 19.324 18.3944L17.0767 16.1472ZM11.1287 17.176C8.00988 17.176 5.48159 14.6477 5.48159 11.5289C5.48159 8.41009 8.00988 5.88179 11.1287 5.88179C14.2475 5.88179 16.7758 8.41009 16.7758 11.5289C16.7758 14.6477 14.2475 17.176 11.1287 17.176Z" fill="#200F3F"/>
</svg>
