<svg width="32" height="33" viewBox="0 0 32 33" fill="none" xmlns="http://www.w3.org/2000/svg">
<circle cx="16" cy="16.5" r="16" fill="white"/>
<path d="M12.909 14.3268C13.4337 13.6505 13.297 12.6823 12.8126 11.9627C12.3058 11.2096 10.8868 9.06959 10.2097 8.62046C9.64488 8.24567 8.80806 8.2586 8.20355 8.62484C8.01744 8.73811 7.41108 9.31654 6.89453 9.83052L11.2024 15.8195C11.8903 15.2262 12.8679 14.3798 12.909 14.3268Z" fill="#43CDD7"/>
<path d="M23.8823 24.3043C24.2493 23.7007 24.2623 22.8639 23.8875 22.2991C23.4384 21.622 21.3668 20.2663 20.5453 19.6962C19.8327 19.2015 18.8567 19.0743 18.1803 19.5989C18.1273 19.6401 17.2808 20.6178 16.6875 21.3056L22.6775 25.6142C23.1913 25.0976 23.7695 24.491 23.8823 24.3043Z" fill="#43CDD7"/>
<path d="M20.9846 15.3832C23.1204 15.3832 24.8519 13.6517 24.8519 11.5158C24.8519 9.37992 23.1204 7.64844 20.9846 7.64844C18.8487 7.64844 17.1172 9.37992 17.1172 11.5158C17.1172 13.6517 18.8487 15.3832 20.9846 15.3832Z" fill="#43CDD7"/>
<path d="M21.1873 19.6154C21.0368 19.5126 20.9022 19.4208 20.7908 19.3434C19.928 18.7446 18.7503 18.6137 17.9175 19.2596C17.878 19.2902 17.8056 19.3463 15.965 21.4866C14.1432 20.8953 11.6141 18.366 11.0221 16.5435C13.1624 14.7028 13.2185 14.6305 13.249 14.5911C13.8417 13.8272 13.8097 12.6749 13.1695 11.7237L13.0913 11.6074C12.1383 10.1888 11.0788 8.68208 10.4477 8.26342C9.72828 7.78601 8.71116 7.81614 7.98049 8.25878C7.57905 8.50315 5.90882 10.2032 5.75954 10.3928C5.6776 10.4978 5.58663 10.5792 5.4948 10.7593C4.41769 12.8893 5.30001 16.8265 6.23372 19.0062C7.41426 21.7656 10.743 25.0943 13.5023 26.2748C14.9269 26.8854 17.2542 27.5015 19.2422 27.5015C20.2663 27.5015 21.1099 27.3374 21.7475 27.0147C22.2347 26.7712 24.0783 24.8119 24.25 24.5279C24.7095 23.772 24.7079 22.7579 24.2461 22.0618C23.8454 21.4578 22.5154 20.522 21.1873 19.6154ZM23.5151 24.0823C23.3694 24.319 21.6175 26.1189 21.3613 26.2469C19.5347 27.1713 15.7224 26.2914 13.8405 25.4849C11.2973 24.3967 8.11189 21.2113 7.02378 18.6679C6.15444 16.6384 5.34328 12.9633 6.26114 11.1483C6.29728 11.0775 6.34158 11.0441 6.43599 10.923C6.61982 10.692 8.18142 9.14497 8.42661 8.99336C8.90212 8.70533 9.5591 8.70516 9.97261 8.97957C10.5724 9.37748 12.0545 11.6052 12.4566 12.2037C12.8126 12.7326 12.9874 13.5039 12.5838 14.0463C12.4052 14.216 11.0744 15.3656 10.2549 16.0698C10.1334 16.1742 10.0801 16.3375 10.1164 16.4934C10.6383 18.729 13.7807 21.8714 16.0153 22.3923C16.1713 22.4287 16.3344 22.3753 16.4388 22.2538C17.1431 21.4343 18.2927 20.1035 18.4624 19.9249C18.9883 19.5333 19.7579 19.6726 20.3008 20.0495C20.9149 20.4756 23.1329 21.9383 23.5299 22.5369C23.805 22.9515 23.7989 23.6155 23.5151 24.0823Z" fill="#5531D2"/>
<path d="M22.7033 11.086H21.4142V9.7969C21.4142 9.55961 21.2218 9.36719 20.9845 9.36719C20.7471 9.36719 20.5548 9.55961 20.5548 9.7969V11.086H19.2656C19.0283 11.086 18.8359 11.2784 18.8359 11.5157C18.8359 11.7531 19.0283 11.9454 19.2656 11.9454H20.5548V13.2346C20.5548 13.4719 20.7471 13.6643 20.9845 13.6643C21.2218 13.6643 21.4142 13.4719 21.4142 13.2346V11.9454H22.7033C22.9406 11.9454 23.133 11.7531 23.133 11.5157C23.133 11.2784 22.9406 11.086 22.7033 11.086Z" fill="#5531D2"/>
<path d="M20.9847 5.5C17.6675 5.5 14.9688 8.19874 14.9688 11.5159C14.9688 13.0704 15.5739 14.5638 16.643 15.6796L15.5243 16.7983C15.4015 16.9212 15.3647 17.106 15.4312 17.2666C15.4977 17.4271 15.6544 17.5318 15.8282 17.5318H20.9847C24.3018 17.5318 27.0006 14.8331 27.0006 11.5159C27.0006 8.19874 24.3018 5.5 20.9847 5.5ZM20.9847 16.6724H16.8656L17.5594 15.9786C17.7333 15.8046 17.7261 15.5198 17.5425 15.3549C16.453 14.3774 15.8282 12.9781 15.8282 11.5159C15.8282 8.67262 18.1414 6.35942 20.9847 6.35942C23.828 6.35942 26.1412 8.67262 26.1412 11.5159C26.1412 14.3592 23.828 16.6724 20.9847 16.6724Z" fill="#5531D2"/>
</svg>
