<svg width="32" height="32" viewBox="0 0 32 32" fill="none" xmlns="http://www.w3.org/2000/svg">
<g clip-path="url(#clip0_1153_2617)">
<path d="M23.9993 10.668L6.66602 16.668L12.666 18.668M23.9993 10.668L12.666 18.668M23.9993 10.668L18.666 24.668L12.666 18.668" stroke="#9E00FF" stroke-width="1.5" stroke-linecap="round" stroke-linejoin="round"/>
<path d="M15.9993 29.3346C23.3633 29.3346 29.3327 23.3653 29.3327 16.0013C29.3327 8.6373 23.3633 2.66797 15.9993 2.66797C8.63535 2.66797 2.66602 8.6373 2.66602 16.0013C2.66602 23.3653 8.63535 29.3346 15.9993 29.3346Z" stroke="#9E00FF" stroke-width="1.5" stroke-linecap="round" stroke-linejoin="round"/>
<g clip-path="url(#clip1_1153_2617)">
<path d="M15.9492 32C24.7719 32 31.9492 24.8227 31.9492 16C31.9492 7.17733 24.7719 0 15.9492 0C7.12655 0 -0.0507812 7.17733 -0.0507812 16C-0.0507812 24.8227 7.12655 32 15.9492 32ZM15.9492 2C23.6692 2 29.9492 8.28 29.9492 16C29.9492 23.72 23.6692 30 15.9492 30C8.22922 30 1.94922 23.72 1.94922 16C1.94922 8.28 8.22922 2 15.9492 2Z" fill="white"/>
<path d="M15.9492 2C23.6692 2 29.9492 8.28 29.9492 16C29.9492 23.72 23.6692 30 15.9492 30C8.22922 30 1.94922 23.72 1.94922 16C1.94922 8.28 8.22922 2 15.9492 2Z" fill="white"/>
<g clip-path="url(#clip2_1153_2617)">
<path d="M6.32214 15.7077L10.8869 17.9827C11.0635 18.0698 11.2719 18.0636 11.4407 17.9648L15.5038 15.6027L13.0445 17.7821C12.9193 17.8933 12.8477 18.052 12.8477 18.2192V23.5275C12.8477 24.0875 13.5625 24.3232 13.8977 23.8783L15.8709 21.2548L20.7507 24.0338C21.0929 24.2306 21.5316 24.0331 21.6109 23.6418L24.6544 8.47518C24.7454 8.0194 24.2919 7.64762 23.8704 7.81718L6.37036 14.6422C5.90059 14.8257 5.87025 15.483 6.32214 15.7077ZM23.301 9.29185L20.6263 22.6206L16.0024 19.9871C15.7504 19.8432 15.426 19.907 15.2471 20.1434L14.0144 21.7822V18.4813L20.6651 12.5888C21.1917 12.123 20.5866 11.2946 19.9854 11.6477L11.1265 16.7982L8.02159 15.2512L23.301 9.29185Z" fill="#5531D2"/>
</g>
</g>
</g>
<defs>
<clipPath id="clip0_1153_2617">
<rect width="32" height="32" fill="white" transform="translate(0 0.000976562)"/>
</clipPath>
<clipPath id="clip1_1153_2617">
<rect width="32" height="32" fill="white" transform="translate(-0.0507812)"/>
</clipPath>
<clipPath id="clip2_1153_2617">
<rect width="18.6667" height="18.6667" fill="white" transform="translate(6 7)"/>
</clipPath>
</defs>
</svg>
