<svg width="44" height="43" viewBox="0 0 44 43" fill="none" xmlns="http://www.w3.org/2000/svg">
<circle cx="21.9629" cy="21.5" r="16" fill="white"/>
<g clip-path="url(#clip0_1153_2573)">
<path d="M21.9629 30.5C26.9335 30.5 30.9629 26.4706 30.9629 21.5C30.9629 16.5294 26.9335 12.5 21.9629 12.5C16.9923 12.5 12.9629 16.5294 12.9629 21.5C12.9629 26.4706 16.9923 30.5 21.9629 30.5Z" fill="#43CDD7"/>
<path d="M32.6323 24.0915C32.3777 24.0423 32.1323 24.2089 32.0833 24.463C31.1515 29.2987 26.8952 32.8084 21.9629 32.8084C17.1344 32.8084 12.9539 29.445 11.9057 24.7669L12.0281 24.8892C12.1196 24.9808 12.2396 25.0266 12.3595 25.0266C12.4795 25.0266 12.5995 24.9808 12.691 24.8893C12.874 24.7062 12.874 24.4095 12.691 24.2264L11.727 23.2623C11.6391 23.1744 11.5199 23.125 11.3956 23.125C11.2712 23.125 11.152 23.1744 11.0641 23.2623L10.1002 24.2264C9.91712 24.4094 9.91712 24.7062 10.1002 24.8893C10.2832 25.0724 10.5801 25.0723 10.7631 24.8892L10.9367 24.7157C11.9828 29.9529 16.6075 33.7459 21.9629 33.7459C27.3438 33.7459 31.9872 29.9165 33.0039 24.6405C33.0529 24.3863 32.8865 24.1405 32.6323 24.0915Z" fill="#5531D2"/>
<path d="M33.8263 18.1115C33.6433 17.9284 33.3464 17.9285 33.1634 18.1116L32.9899 18.2851C31.9438 13.048 27.319 9.25488 21.9636 9.25488C16.5827 9.25488 11.9393 13.0843 10.9226 18.3604C10.8736 18.6146 11.04 18.8604 11.2942 18.9094C11.5487 18.9582 11.7942 18.7919 11.8432 18.5378C12.775 13.7021 17.0313 10.1924 21.9636 10.1924C26.7921 10.1924 30.9726 13.5558 32.0208 18.2339L31.8984 18.1116C31.7154 17.9285 31.4187 17.9285 31.2355 18.1115C31.0524 18.2946 31.0524 18.5914 31.2355 18.7744L32.1994 19.7385C32.2873 19.8264 32.4066 19.8758 32.5309 19.8758C32.6552 19.8758 32.7744 19.8264 32.8623 19.7385L33.8263 18.7744C34.0094 18.5914 34.0094 18.2946 33.8263 18.1115Z" fill="#5531D2"/>
<path d="M22.0937 23.659C22.2632 23.9991 22.5716 24.2078 22.9049 24.2078H25.2342C25.2316 24.6192 25.2289 25.0133 25.2262 25.3742C25.2218 25.9907 25.6399 26.4946 26.1601 26.5H26.1684C26.6848 26.5 27.1057 26.0065 27.1102 25.3934C27.1124 25.1013 27.1152 24.6867 27.1184 24.2018C27.5928 24.1439 27.9629 23.669 27.9629 23.0915C27.9629 22.5191 27.5994 22.0474 27.1309 21.9828C27.1394 20.166 27.1426 18.3368 27.1234 18.0629C27.073 17.3451 26.703 16.7576 26.1807 16.5658C25.6593 16.3747 25.1109 16.6054 24.7137 17.1829C24.3407 17.725 22.7478 21.1185 22.0802 22.5523C21.9191 22.8982 21.9243 23.3189 22.0937 23.659ZM24.8703 20.4167C25.4175 20.5 25.8019 21.4293 25.7993 21.9753H23.763C24.0248 21.4227 24.1448 21 24.8703 20.4167Z" fill="#5531D2"/>
<path d="M21.1827 26.4801C21.7788 26.4725 22.256 25.9741 22.2485 25.367C22.2412 24.7647 21.7593 24.2815 21.1694 24.2815C21.1648 24.2815 21.1601 24.2815 21.1555 24.2816C20.5644 24.2891 19.9435 24.2947 19.3825 24.2974C19.7709 23.7619 20.2695 23.0602 20.8994 22.1437C21.3963 21.4207 21.7212 20.7334 21.8652 20.101C21.9006 19.9607 21.9299 19.7622 21.9303 19.5568C21.9326 17.8712 20.5838 16.5 18.9286 16.5C17.4976 16.5 16.259 17.5369 15.9833 18.9654C15.8685 19.5612 16.2494 20.139 16.8345 20.2561C17.42 20.3734 17.9871 19.9851 18.1019 19.3892C18.1791 18.9891 18.5268 18.6987 18.9286 18.6987C19.3748 18.6987 19.741 19.0538 19.7694 19.5009L19.7505 19.6514C19.686 19.9022 19.5253 20.3085 19.1306 20.8828C17.9434 22.6101 17.2353 23.5544 16.8548 24.0616C16.367 24.7121 16.0983 25.0704 16.2778 25.6654C16.3835 26.0151 16.6532 26.2941 17 26.4119C17.1442 26.4609 17.2596 26.5 18.7339 26.5C19.3127 26.4999 20.101 26.494 21.1827 26.4801Z" fill="#5531D2"/>
</g>
<defs>
<clipPath id="clip0_1153_2573">
<rect width="24" height="27" fill="white" transform="translate(9.96289 8.5)"/>
</clipPath>
</defs>
</svg>
