<svg width="32" height="32" viewBox="0 0 32 32" fill="none" xmlns="http://www.w3.org/2000/svg">
<g clip-path="url(#clip0_1153_2627)">
<path d="M15.914 0H15.922C24.7268 0 31.8868 7.178 31.8868 16C31.8868 24.822 24.7268 32 15.922 32C12.6744 32 9.66225 31.032 7.13718 29.356L0.999168 31.322L2.98928 25.378C1.07502 22.744 -0.0507812 19.5 -0.0507812 16C-0.0507812 7.176 7.10924 0 15.914 0Z" fill="white"/>
<g clip-path="url(#clip1_1153_2627)">
<path d="M10.4188 19.0744C12.26 21.2752 14.4763 23.0081 17.0059 24.2342C17.969 24.6906 19.2571 25.2321 20.6921 25.3249C20.781 25.3288 20.8661 25.3327 20.9551 25.3327C21.9182 25.3327 22.6918 25 23.3223 24.3154C23.3261 24.3115 23.3339 24.3038 23.3377 24.2961C23.5621 24.0253 23.8174 23.7816 24.0842 23.5225C24.266 23.3484 24.4517 23.1666 24.6296 22.981C25.4535 22.1223 25.4535 21.0315 24.6219 20.1999L22.2973 17.8753C21.9027 17.4653 21.4308 17.2487 20.9357 17.2487C20.4406 17.2487 19.9649 17.4653 19.5588 17.8714L18.174 19.2562C18.0464 19.1827 17.9149 19.1169 17.7911 19.055C17.6364 18.9777 17.4933 18.9042 17.3656 18.8229C16.1047 18.0223 14.9598 16.9779 13.8652 15.6358C13.312 14.9357 12.9407 14.3477 12.6816 13.7482C13.0452 13.4194 13.3855 13.0752 13.7143 12.7387C13.8303 12.6188 13.9502 12.4989 14.0702 12.379C14.4879 11.9612 14.7122 11.4777 14.7122 10.9865C14.7122 10.4953 14.4918 10.0118 14.0702 9.59404L12.9175 8.4414C12.7821 8.30602 12.6545 8.17451 12.523 8.03913C12.2677 7.77611 12.0008 7.50536 11.7378 7.26168C11.3394 6.87102 10.8714 6.66602 10.3763 6.66602C9.88505 6.66602 9.41316 6.87102 8.99929 7.26555L7.55268 8.71215C7.02664 9.23819 6.72881 9.8764 6.66692 10.6152C6.59343 11.5396 6.76362 12.5221 7.20457 13.7095C7.88145 15.5468 8.90259 17.2526 10.4188 19.0744ZM7.6107 10.6964C7.65711 10.182 7.85438 9.75263 8.2257 9.38131L9.66457 7.94243C9.88891 7.72583 10.1365 7.61366 10.3763 7.61366C10.6122 7.61366 10.852 7.72583 11.0725 7.95017C11.3317 8.18998 11.5753 8.4414 11.8384 8.70829C11.9699 8.84366 12.1052 8.97904 12.2406 9.11829L13.3933 10.2709C13.6331 10.5107 13.7569 10.7544 13.7569 10.9942C13.7569 11.234 13.6331 11.4777 13.3933 11.7175C13.2734 11.8374 13.1535 11.9612 13.0335 12.0811C12.6738 12.4447 12.3373 12.789 11.966 13.1177C11.9583 13.1255 11.9544 13.1293 11.9467 13.1371C11.6256 13.4581 11.6759 13.7637 11.7533 13.9958C11.7571 14.0074 11.761 14.0151 11.7649 14.0267C12.0627 14.7423 12.4766 15.423 13.1225 16.2353C14.2829 17.6664 15.5052 18.7765 16.8512 19.6313C17.0175 19.7396 17.1954 19.8247 17.3618 19.9098C17.5165 19.9872 17.6596 20.0607 17.7872 20.1419C17.8027 20.1496 17.8143 20.1574 17.8298 20.1651C17.9574 20.2309 18.0812 20.2618 18.205 20.2618C18.5144 20.2618 18.7155 20.0646 18.7813 19.9988L20.2279 18.5522C20.4522 18.3278 20.6959 18.2079 20.9357 18.2079C21.2297 18.2079 21.4695 18.3897 21.6204 18.5522L23.9527 20.8807C24.4169 21.3448 24.413 21.8477 23.9411 22.3389C23.7787 22.513 23.6085 22.6793 23.4267 22.8533C23.1559 23.1164 22.8736 23.3871 22.6183 23.6927C22.1735 24.1723 21.6436 24.3966 20.9589 24.3966C20.8932 24.3966 20.8236 24.3928 20.7578 24.3889C19.4891 24.3077 18.3094 23.8126 17.4237 23.391C15.0178 22.2267 12.9059 20.5751 11.1537 18.4787C9.71099 16.742 8.74014 15.1252 8.09806 13.3924C7.69966 12.3287 7.54881 11.4739 7.6107 10.6964Z" fill="#5531D2"/>
<path fill-rule="evenodd" clip-rule="evenodd" d="M10.2659 19.2021C8.73805 17.3664 7.70397 15.6412 7.01776 13.7787C6.57021 12.5734 6.39187 11.561 6.46833 10.5991C6.5342 9.81286 6.85285 9.12973 7.41204 8.57054L8.86203 7.12055C9.3067 6.69666 9.82623 6.46582 10.3771 6.46582C10.9305 6.46582 11.4464 6.69576 11.8765 7.11667C12.143 7.36368 12.4123 7.63693 12.6672 7.89958C12.6672 7.8996 12.6672 7.89956 12.6672 7.89958L12.6776 7.91024C12.8056 8.04201 12.9291 8.16913 13.0597 8.29978L14.2117 9.45178C14.2118 9.45189 14.2116 9.45166 14.2117 9.45178C14.6633 9.89938 14.913 10.4319 14.913 10.9863C14.913 11.5416 14.6591 12.0735 14.2124 12.5202C14.0922 12.6403 13.9735 12.759 13.8588 12.8776C13.562 13.1813 13.2522 13.4951 12.9238 13.7983C13.1707 14.333 13.5168 14.8709 14.0219 15.5103C15.1049 16.8381 16.2339 17.8667 17.4736 18.6539C17.5916 18.729 17.7264 18.7985 17.8813 18.8759L17.8835 18.877C17.9646 18.9176 18.0517 18.9611 18.1398 19.0081L19.4181 17.7298C19.8548 17.2931 20.3793 17.0485 20.9365 17.0485C21.4935 17.0485 22.0148 17.2929 22.4408 17.735L24.7641 20.0583C25.2116 20.5058 25.4463 21.0353 25.4473 21.5797C25.4484 22.1236 25.2164 22.6589 24.7747 23.1192C24.5942 23.3076 24.4065 23.4914 24.224 23.6661C24.2063 23.6833 24.1888 23.7003 24.1713 23.7173C23.9258 23.9554 23.7004 24.1741 23.5007 24.4136C23.4935 24.4242 23.4869 24.4322 23.4826 24.4372C23.4768 24.4439 23.4713 24.4497 23.4678 24.4533C22.7984 25.1788 21.9715 25.5325 20.9559 25.5325C20.866 25.5325 20.7802 25.5287 20.696 25.5251L20.6799 25.5244C19.2054 25.429 17.8889 24.8734 16.9211 24.4147L16.9195 24.414C14.364 23.1753 12.1249 21.4243 10.2659 19.2021ZM23.323 24.3152C23.3269 24.3113 23.3347 24.3036 23.3385 24.2959C23.5474 24.0437 23.7832 23.8151 24.0301 23.5756C24.0484 23.5579 24.0667 23.5401 24.085 23.5223C24.2668 23.3482 24.4525 23.1664 24.6304 22.9808C25.4543 22.1221 25.4543 21.0313 24.6227 20.1997L22.298 17.8751C21.9035 17.4651 21.4316 17.2485 20.9365 17.2485C20.4414 17.2485 19.9657 17.4651 19.5595 17.8712L18.1748 19.256C18.0472 19.1825 17.9157 19.1167 17.7919 19.0548C17.6372 18.9775 17.4941 18.904 17.3664 18.8227C16.1055 18.0221 14.9606 16.9777 13.8659 15.6356C13.3128 14.9355 12.9415 14.3475 12.6823 13.748C13.0459 13.4192 13.3863 13.075 13.7151 12.7385C13.8311 12.6186 13.951 12.4987 14.0709 12.3788C14.4887 11.961 14.713 11.4775 14.713 10.9863C14.713 10.4951 14.4925 10.0116 14.0709 9.59385L12.9183 8.4412C12.7866 8.30948 12.6622 8.18141 12.5344 8.04988L12.5238 8.03894C12.2685 7.77592 12.0016 7.50516 11.7386 7.26148C11.3402 6.87082 10.8722 6.66582 10.3771 6.66582C9.88583 6.66582 9.41394 6.87082 9.00007 7.26535L7.55346 8.71196C7.02742 9.238 6.72959 9.87621 6.6677 10.615C6.59421 11.5394 6.7644 12.5219 7.20535 13.7093C7.88224 15.5466 8.90337 17.2524 10.4196 19.0742C12.2607 21.275 14.4771 23.0079 17.0067 24.234C17.9698 24.6904 19.2578 25.2319 20.6928 25.3248L20.7035 25.3252C20.7886 25.3289 20.8705 25.3325 20.9559 25.3325C21.919 25.3325 22.6926 24.9998 23.323 24.3152ZM11.0733 7.94998C10.8528 7.72564 10.613 7.61346 10.3771 7.61346C10.1372 7.61346 9.8897 7.72564 9.66536 7.94224L8.22648 9.38111C7.85516 9.75243 7.6579 10.1818 7.61148 10.6962C7.54959 11.4737 7.70044 12.3285 8.09884 13.3922C8.74092 15.125 9.71177 16.7418 11.1545 18.4785C12.9067 20.5749 15.0186 22.2265 17.4244 23.3908C18.3102 23.8124 19.4899 24.3075 20.7586 24.3887C20.8244 24.3926 20.894 24.3964 20.9597 24.3964C21.6444 24.3964 22.1743 24.1721 22.6191 23.6925C22.8604 23.4036 23.126 23.1458 23.383 22.8963C23.3979 22.8819 23.4127 22.8675 23.4275 22.8531C23.6093 22.6791 23.7795 22.5128 23.9419 22.3387C24.4138 21.8475 24.4177 21.3446 23.9535 20.8805L21.6212 18.552C21.4703 18.3895 21.2305 18.2077 20.9365 18.2077C20.6967 18.2077 20.453 18.3277 20.2287 18.552L18.7821 19.9986C18.7163 20.0644 18.5152 20.2616 18.2058 20.2616C18.082 20.2616 17.9582 20.2307 17.8306 20.1649C17.8228 20.1611 17.8161 20.1572 17.8093 20.1533C17.8025 20.1494 17.7958 20.1456 17.788 20.1417C17.6604 20.0605 17.5173 19.987 17.3626 19.9096C17.3346 19.8953 17.3064 19.8811 17.2779 19.8667C17.1368 19.7953 16.9904 19.7213 16.852 19.6311C15.5059 18.7763 14.2837 17.6662 13.1233 16.2351C12.4773 15.4228 12.0635 14.7421 11.7656 14.0265C11.7637 14.0207 11.7618 14.0159 11.7598 14.011C11.7579 14.0062 11.756 14.0014 11.754 13.9956C11.6767 13.7635 11.6264 13.4579 11.9474 13.1369L11.9668 13.1175C12.3101 12.8136 12.6236 12.4964 12.9533 12.1629C12.9802 12.1357 13.0072 12.1084 13.0343 12.0809C13.0943 12.021 13.1542 11.9601 13.2142 11.8991C13.2741 11.8382 13.3341 11.7773 13.394 11.7173C13.6339 11.4775 13.7576 11.2339 13.7576 10.994C13.7576 10.7542 13.6339 10.5105 13.394 10.2707L12.2414 9.11809C12.1742 9.04896 12.107 8.98079 12.0402 8.91309C11.9726 8.84443 11.9054 8.77626 11.8391 8.70809C11.8042 8.6726 11.7695 8.63738 11.7352 8.60243C11.511 8.37454 11.298 8.1579 11.0733 7.94998ZM11.6962 8.84797C11.6611 8.81239 11.6265 8.77718 11.5922 8.74234C11.3679 8.5142 11.1584 8.30124 10.9374 8.09677L10.9305 8.09032C10.7369 7.89333 10.5458 7.81346 10.3771 7.81346C10.2021 7.81346 10.0024 7.89526 9.80549 8.08495L8.36791 9.52253C8.03033 9.86011 7.85319 10.2453 7.81077 10.7131C7.75219 11.4516 7.89421 12.2756 8.28614 13.322C8.91881 15.0295 9.87689 16.6275 11.3081 18.3504C13.0423 20.4252 15.1315 22.0589 17.5112 23.2106C18.3924 23.63 19.5426 24.1103 20.7706 24.1891C20.8368 24.193 20.9007 24.1964 20.9597 24.1964C21.59 24.1964 22.0648 23.9942 22.469 23.5601C22.7164 23.2646 22.9876 23.0014 23.242 22.7544C23.2575 22.7395 23.2728 22.7245 23.2881 22.7097L23.2892 22.7087C23.4703 22.5352 23.6372 22.3721 23.7957 22.2022L23.7977 22.2001C24.0116 21.9775 24.0973 21.7754 24.0987 21.5979C24.1001 21.4219 24.019 21.2288 23.8121 21.0219L21.4745 18.6882C21.338 18.5411 21.1478 18.4077 20.9365 18.4077C20.7661 18.4077 20.5703 18.4932 20.3701 18.6934L18.9235 20.14C18.8539 20.2096 18.6019 20.4616 18.2058 20.4616C18.0471 20.4616 17.8924 20.4216 17.7399 20.3432C17.7276 20.337 17.7172 20.3311 17.711 20.3275L17.7101 20.327C17.7029 20.3229 17.7007 20.3216 17.6986 20.3206L17.6894 20.316L17.6806 20.3104C17.5627 20.2354 17.4281 20.166 17.2731 20.0885L17.2715 20.0877C17.2452 20.0743 17.2181 20.0606 17.1903 20.0465C17.0495 19.9754 16.8919 19.8957 16.7438 19.7994C15.3775 18.9315 14.1398 17.8063 12.9679 16.3611L12.9667 16.3596C12.3123 15.5366 11.8876 14.84 11.581 14.1034L11.5782 14.0966L11.576 14.09C11.576 14.09 11.5757 14.0891 11.5741 14.0853C11.5722 14.0805 11.5681 14.0703 11.5643 14.0588C11.5219 13.9317 11.4796 13.764 11.5028 13.5752C11.5267 13.3812 11.617 13.1845 11.806 12.9955L11.834 12.9675C12.172 12.6682 12.4813 12.3559 12.8119 12.0214C12.8385 11.9945 12.8652 11.9675 12.8922 11.9403L12.8929 11.9395C12.9522 11.8802 13.0116 11.8199 13.0716 11.7589C13.1314 11.6982 13.1922 11.6364 13.2526 11.5759C13.4714 11.3571 13.5576 11.1613 13.5576 10.994C13.5576 10.8267 13.4714 10.6309 13.2526 10.4122L12.098 9.25752C12.0312 9.18886 11.9644 9.12107 11.8975 9.05319L11.8964 9.05205C11.8294 8.98413 11.7624 8.9161 11.6962 8.84797ZM17.7399 20.3432C17.7396 20.343 17.7393 20.3429 17.739 20.3427L17.8306 20.1649L17.7411 20.3438C17.7407 20.3436 17.7403 20.3434 17.7399 20.3432Z" fill="#5531D2"/>
</g>
</g>
<defs>
<clipPath id="clip0_1153_2627">
<rect width="32" height="32" fill="white" transform="translate(0 0.000976562)"/>
</clipPath>
<clipPath id="clip1_1153_2627">
<rect width="20" height="20" fill="white" transform="translate(5.96289 6)"/>
</clipPath>
</defs>
</svg>
