<svg width="32" height="32" viewBox="0 0 32 32" fill="none" xmlns="http://www.w3.org/2000/svg">
<g clip-path="url(#clip0_1153_2634)">
<path d="M16 32.001C24.8366 32.001 32 24.8375 32 16.001C32 7.16442 24.8366 0.000976562 16 0.000976562C7.16344 0.000976562 0 7.16442 0 16.001C0 24.8375 7.16344 32.001 16 32.001Z" fill="white"/>
<g clip-path="url(#clip1_1153_2634)">
<path d="M15.409 22.1667C18.1094 22.1667 17.1466 20.4571 17.355 19.9656C17.3519 19.5984 17.3488 19.2453 17.3612 19.0307C17.5323 19.0789 17.936 19.2834 18.7698 20.0939C20.057 21.3928 20.386 22.1667 21.4259 22.1667H23.34C23.9467 22.1667 24.2624 21.9154 24.4203 21.7047C24.5728 21.5009 24.7221 21.1431 24.5588 20.5862C24.1318 19.2453 21.6413 16.9299 21.4866 16.6857C21.5099 16.6406 21.5472 16.5807 21.5667 16.5496H21.5651C22.0567 15.9001 23.9327 13.0892 24.2088 11.9646C24.2096 11.963 24.2103 11.9607 24.2103 11.9583C24.3597 11.445 24.2228 11.1121 24.0812 10.9239C23.8681 10.6423 23.529 10.5 23.0709 10.5H21.1568C20.5159 10.5 20.0298 10.8228 19.784 11.4116C19.3726 12.4577 18.2168 14.609 17.3503 15.3704C17.3239 14.2917 17.3418 13.468 17.3558 12.8559C17.3838 11.662 17.474 10.5 16.235 10.5H13.2266C12.4503 10.5 11.7076 11.3478 12.5118 12.3542C13.2149 13.2362 12.7646 13.7278 12.9162 16.1747C12.3251 15.5408 11.2736 13.8289 10.53 11.641C10.3216 11.0491 10.0058 10.5008 9.11678 10.5008H7.20267C6.42645 10.5008 5.96289 10.9239 5.96289 11.6324C5.96289 13.2238 9.48545 22.1667 15.409 22.1667ZM9.11678 11.6674C9.28556 11.6674 9.30267 11.6674 9.42789 12.0229C10.1893 14.2652 11.8973 17.5832 13.1449 17.5832C14.0821 17.5832 14.0821 16.6227 14.0821 16.261L14.0813 13.3817C14.03 12.4289 13.6831 11.9544 13.4552 11.6667L16.1837 11.6698C16.1852 11.683 16.1681 14.8548 16.1914 15.6232C16.1914 16.7144 17.0579 17.3398 18.4104 15.9709C19.8377 14.3601 20.8247 11.9521 20.8643 11.8541C20.9227 11.7141 20.9732 11.6667 21.1568 11.6667H23.0709H23.0787C23.0779 11.669 23.0779 11.6713 23.0771 11.6737C22.9021 12.4903 21.1747 15.0928 20.5968 15.9009C20.5874 15.9133 20.5789 15.9266 20.5703 15.9398C20.316 16.3551 20.1091 16.814 20.6053 17.4596H20.6061C20.6512 17.514 20.7687 17.6416 20.9398 17.8189C21.4718 18.368 23.2964 20.2456 23.4582 20.9922C23.3509 21.0093 23.2342 20.9969 21.4259 21.0008C21.0409 21.0008 20.7399 20.4252 19.5911 19.2663C18.5582 18.2614 17.8878 17.8508 17.2772 17.8508C16.0919 17.8508 16.1782 18.8129 16.1891 19.9764C16.193 21.238 16.1852 20.839 16.1938 20.9183C16.1246 20.9456 15.9262 21 15.409 21C10.474 21 7.26022 13.167 7.13656 11.6698C7.17933 11.6659 7.76811 11.6682 9.11678 11.6674Z" fill="#5531D2"/>
</g>
</g>
<defs>
<clipPath id="clip0_1153_2634">
<rect width="32" height="32" fill="white" transform="translate(0 0.000976562)"/>
</clipPath>
<clipPath id="clip1_1153_2634">
<rect width="18.6667" height="18.6667" fill="white" transform="translate(5.96289 7)"/>
</clipPath>
</defs>
</svg>
