<svg width="48" height="16" viewBox="0 0 48 16" fill="none" xmlns="http://www.w3.org/2000/svg">
<path d="M20.1305 8.20505C20.1305 10.4259 18.3931 12.0624 16.2609 12.0624C14.1287 12.0624 12.3914 10.4259 12.3914 8.20505C12.3914 5.96853 14.1287 4.34766 16.2609 4.34766C18.3931 4.34766 20.1305 5.96853 20.1305 8.20505ZM18.4366 8.20505C18.4366 6.81722 17.4296 5.86766 16.2609 5.86766C15.0922 5.86766 14.0853 6.81722 14.0853 8.20505C14.0853 9.57896 15.0922 10.5424 16.2609 10.5424C17.4296 10.5424 18.4366 9.57722 18.4366 8.20505Z" fill="#EA4335"/>
<path d="M28.4781 8.20505C28.4781 10.4259 26.7408 12.0624 24.6086 12.0624C22.4764 12.0624 20.739 10.4259 20.739 8.20505C20.739 5.97026 22.4764 4.34766 24.6086 4.34766C26.7408 4.34766 28.4781 5.96853 28.4781 8.20505ZM26.7842 8.20505C26.7842 6.81722 25.7773 5.86766 24.6086 5.86766C23.4399 5.86766 22.4329 6.81722 22.4329 8.20505C22.4329 9.57896 23.4399 10.5424 24.6086 10.5424C25.7773 10.5424 26.7842 9.57722 26.7842 8.20505Z" fill="#FBBC05"/>
<path d="M36.4783 4.5807V11.5059C36.4783 14.3546 34.7983 15.5181 32.8122 15.5181C30.9426 15.5181 29.8174 14.2677 29.3931 13.245L30.8678 12.6311C31.1305 13.259 31.7739 13.9998 32.8105 13.9998C34.0818 13.9998 34.8696 13.2155 34.8696 11.739V11.1842H34.8105C34.4313 11.652 33.7009 12.0607 32.7791 12.0607C30.8505 12.0607 29.0835 10.3807 29.0835 8.21896C29.0835 6.04157 30.8505 4.34766 32.7791 4.34766C33.6991 4.34766 34.4296 4.75635 34.8105 5.21026H34.8696V4.58244H36.4783V4.5807ZM34.9896 8.21896C34.9896 6.8607 34.0835 5.86766 32.9305 5.86766C31.7618 5.86766 30.7826 6.8607 30.7826 8.21896C30.7826 9.56331 31.7618 10.5424 32.9305 10.5424C34.0835 10.5424 34.9896 9.56331 34.9896 8.21896Z" fill="#4285F4"/>
<path d="M39.1304 0.521973V11.8263H37.4783V0.521973H39.1304Z" fill="#34A853"/>
<path d="M45.5688 9.47489L46.8835 10.3514C46.4592 10.9792 45.4366 12.061 43.6696 12.061C41.4783 12.061 39.8418 10.3671 39.8418 8.20358C39.8418 5.90967 41.4922 4.34619 43.4801 4.34619C45.4818 4.34619 46.4609 5.93923 46.7809 6.8001L46.9566 7.23837L41.8001 9.37402C42.1948 10.1479 42.8088 10.5427 43.6696 10.5427C44.5322 10.5427 45.1305 10.1184 45.5688 9.47489ZM41.5218 8.08706L44.9688 6.65576C44.7792 6.17402 44.2088 5.83837 43.5374 5.83837C42.6766 5.83837 41.4783 6.59837 41.5218 8.08706Z" fill="#EA4335"/>
<path d="M6.13728 7.20154V5.56502H11.6521C11.706 5.85024 11.7338 6.18763 11.7338 6.55285C11.7338 7.78067 11.3982 9.29893 10.3164 10.3807C9.26424 11.4763 7.91989 12.0607 6.13902 12.0607C2.83815 12.0607 0.0625 9.37198 0.0625 6.07111C0.0625 2.77024 2.83815 0.081543 6.13902 0.081543C7.96511 0.081543 9.26598 0.798065 10.2434 1.73198L9.08859 2.88676C8.38772 2.22937 7.43815 1.71806 6.13728 1.71806C3.72685 1.71806 1.84163 3.66067 1.84163 6.07111C1.84163 8.48154 3.72685 10.4242 6.13728 10.4242C7.70076 10.4242 8.5912 9.79633 9.16163 9.22589C9.62424 8.76328 9.92859 8.10241 10.0486 7.1998L6.13728 7.20154Z" fill="#4285F4"/>
</svg>
