<svg width="120" height="14" viewBox="0 0 120 14" fill="none" xmlns="http://www.w3.org/2000/svg">
<path fill-rule="evenodd" clip-rule="evenodd" d="M23.6829 3.24354C22.1638 3.74943 21.7246 4.30427 21.6682 6.22989C21.64 7.28246 21.5755 10.4075 21.7488 11.2847C22.2686 13.7896 26.8743 13.8753 29.1872 13.1817C30.674 12.733 30.9641 12.0965 30.9923 10.2403C31.0205 8.86948 30.9923 7.64147 31.0205 6.60931C31.0205 4.56945 30.5652 3.31698 28.3692 3.06811C26.9871 2.90084 24.9079 2.83965 23.6789 3.24354H23.6829ZM29.2113 10.6686V6.0667C29.2476 4.77344 27.3457 4.9407 26.3907 4.9407C25.3431 4.9407 23.5137 4.83055 23.5137 6.0667V10.6686C23.5137 11.3132 24.3196 11.5539 25.2342 11.6192C26.0731 11.6488 26.9129 11.6242 27.7487 11.5458C28.6029 11.4805 29.1589 11.2398 29.1952 10.6605L29.2113 10.6686Z" fill="#EC2327"/>
<path fill-rule="evenodd" clip-rule="evenodd" d="M12.2145 2.98123C14.4388 2.98123 16.9396 2.82739 18.314 3.11013C19.6885 3.39287 20.4082 4.26603 20.4082 6.02067C20.4082 8.93124 19.4974 9.76279 17.4764 9.97487C17.4182 9.97939 17.3597 9.97939 17.3015 9.97487C16.106 10.0788 14.5282 9.97487 12.5316 9.97487V12.5819C12.5316 12.8399 12.4314 13.0874 12.253 13.2699C12.0745 13.4523 11.8324 13.5548 11.5801 13.5548C11.3278 13.5548 11.0857 13.4523 10.9072 13.2699C10.7288 13.0874 10.6286 12.8399 10.6286 12.5819V10.9187C10.592 9.69628 10.6286 8.24932 10.6286 7.03937C10.6286 6.05394 10.6652 4.99783 10.6286 4.0124C10.6119 3.8988 10.6172 3.78295 10.6444 3.67148C10.6715 3.56001 10.7199 3.45512 10.7868 3.3628C10.8536 3.27049 10.9377 3.19257 11.034 3.13351C11.1304 3.07446 11.2372 3.03543 11.3483 3.01865C11.6338 2.97681 11.9225 2.96428 12.2104 2.98123H12.2145ZM17.3422 4.94377H12.5357V8.0539H16.7647C17.9847 8.0539 18.6109 7.97073 18.6637 6.54873C18.7166 5.12672 18.3059 4.97288 17.3422 4.94377Z" fill="#EC2327"/>
<path d="M9.38764 12.5771V8.48493V6.66708C9.39568 4.59491 8.92168 3.32327 6.72438 3.06894C5.3466 2.90633 3.25776 2.83128 2.02455 3.24822C0.514172 3.75687 0.0723055 4.31974 0.0160679 6.27933C0.0160679 7.03398 -0.0200848 8.83515 0.0160679 10.1443V12.5667C0.0165943 12.6948 0.0414289 12.8216 0.089154 12.9397C0.136878 13.0579 0.206559 13.1652 0.294216 13.2553C0.381874 13.3456 0.485792 13.417 0.600037 13.4655C0.714281 13.514 0.836617 13.5387 0.960055 13.5381C1.20903 13.5382 1.44793 13.4361 1.62473 13.2541C1.80153 13.0722 1.90193 12.8251 1.90404 12.5667V8.63502V8.55998V6.11255C1.90404 4.85758 3.73979 4.97015 4.79225 4.97015C5.7282 4.97015 7.58003 4.80338 7.54385 6.11255V11.8746V12.5834C7.5444 12.7115 7.56923 12.8383 7.61695 12.9564C7.66468 13.0746 7.73437 13.1818 7.82202 13.272C7.90966 13.3622 8.0136 13.4336 8.12783 13.4821C8.24206 13.5307 8.36442 13.5554 8.48788 13.5548C8.73609 13.5548 8.97415 13.4525 9.14968 13.2703C9.3252 13.0881 9.38764 12.8347 9.38764 12.5771Z" fill="#EC2327"/>
<path fill-rule="evenodd" clip-rule="evenodd" d="M32.2451 12.5807C32.2462 12.3205 32.3468 12.0712 32.5252 11.8872C32.7036 11.7031 32.9452 11.5993 33.1975 11.5982H33.8296L37.951 3.47067C38.0401 3.29623 38.1774 3.15303 38.3455 3.05924C38.5136 2.96545 38.705 2.9253 38.8952 2.94389C39.0838 2.92618 39.2731 2.96684 39.4392 3.06067C39.6052 3.1545 39.7403 3.29724 39.8273 3.47067L43.9487 11.5982H44.354C44.6062 11.5993 44.8478 11.7031 45.0262 11.8872C45.2046 12.0712 45.3053 12.3205 45.3063 12.5807C45.3058 12.7092 45.2808 12.8363 45.2326 12.9547C45.1844 13.0733 45.1141 13.1808 45.0257 13.2713C44.9373 13.3617 44.8324 13.4333 44.7172 13.482C44.6019 13.5306 44.4785 13.5554 44.354 13.5548H33.1975C33.0729 13.5554 32.9495 13.5306 32.8342 13.482C32.719 13.4333 32.6142 13.3617 32.5257 13.2713C32.4373 13.1808 32.367 13.0733 32.3188 12.9547C32.2707 12.8363 32.2456 12.7092 32.2451 12.5807ZM38.8952 5.84538L35.9734 11.5982H41.805L38.8952 5.84538Z" fill="#117DC1"/>
<path fill-rule="evenodd" clip-rule="evenodd" d="M58.194 2.97649C58.3311 2.97704 58.4672 3.00272 58.5937 3.05209C58.7206 3.10146 58.8356 3.17353 58.932 3.26421C59.0289 3.35488 59.1056 3.46237 59.1577 3.58054C59.2094 3.69872 59.2362 3.82526 59.2352 3.95294V6.81997L64.8725 3.11777C65.1 2.96995 65.3806 2.91067 65.6548 2.95259C65.9285 2.99451 66.174 3.13431 66.3388 3.34214C66.4182 3.4471 66.4749 3.56567 66.5054 3.69105C66.5359 3.81642 66.5391 3.94613 66.5156 4.07275C66.492 4.19937 66.4417 4.32039 66.3674 4.42889C66.2936 4.53739 66.1971 4.63123 66.084 4.70502L60.7196 8.24516L66.084 11.7853C66.3116 11.9351 66.4662 12.1625 66.5137 12.4179C66.5617 12.6733 66.4985 12.9359 66.3388 13.1482C66.1745 13.3565 65.9299 13.4972 65.6562 13.5407C65.3825 13.5841 65.1014 13.5268 64.8725 13.3809L59.2352 9.67455V12.5831C59.2352 12.71 59.2085 12.8358 59.1559 12.953C59.1037 13.0702 59.0266 13.1767 58.9302 13.2662C58.8332 13.3558 58.7183 13.4267 58.5923 13.4749C58.4659 13.5231 58.3306 13.5476 58.194 13.5471C57.9176 13.5471 57.6522 13.446 57.4556 13.2655C57.2589 13.0851 57.1468 12.8399 57.1436 12.5831V3.95294C57.1459 3.69465 57.2571 3.44754 57.4537 3.26489C57.6503 3.08224 57.9162 2.97866 58.194 2.97649Z" fill="#117DC1"/>
<path fill-rule="evenodd" clip-rule="evenodd" d="M73.4618 4.89536V12.5852C73.4595 12.8425 73.3524 13.0884 73.1637 13.2699C72.9749 13.4514 72.7197 13.5537 72.4529 13.5548C72.3209 13.5554 72.1893 13.5307 72.067 13.4822C71.9447 13.4337 71.8335 13.3624 71.7398 13.2723C71.6461 13.1822 71.5718 13.0752 71.521 12.9572C71.4703 12.8394 71.444 12.7129 71.444 12.5852V4.89536H68.7726C68.504 4.89537 68.2464 4.79304 68.0558 4.61066C67.8652 4.42828 67.7572 4.18061 67.7549 3.92158C67.7572 3.66178 67.8647 3.41324 68.0553 3.22953C68.2455 3.04581 68.503 2.94164 68.7726 2.93945H76.1337C76.2666 2.94 76.3981 2.96584 76.5209 3.01549C76.6437 3.06515 76.7549 3.13764 76.8486 3.22884C76.9423 3.32004 77.0166 3.42816 77.0669 3.54702C77.1177 3.66588 77.143 3.79316 77.1426 3.92158C77.1426 4.17985 77.0364 4.42753 76.8472 4.61014C76.658 4.79277 76.4013 4.89536 76.1337 4.89536H73.4618Z" fill="#117DC1"/>
<path fill-rule="evenodd" clip-rule="evenodd" d="M112.646 7.20229H116.49C117.847 7.20229 118.362 7.24817 118.362 6.08861C118.362 5.2544 118.052 4.89986 116.49 4.89986H112.646V7.20229ZM112.646 11.6028H117.493C118.194 11.4526 118.362 11.1022 118.362 10.4891C118.362 9.32955 117.847 9.37958 116.49 9.37958H112.646V11.6111V11.6028ZM117.584 13.5548C115.573 13.5548 113.547 13.5548 111.537 13.5548C111.294 13.5559 111.06 13.4547 110.886 13.2734C110.713 13.092 110.615 12.8453 110.612 12.5871V3.91965C110.613 3.66075 110.711 3.41269 110.883 3.22922C111.055 3.04575 111.289 2.94165 111.533 2.93945C113.24 2.93945 115.026 2.93945 116.706 2.93945C118.386 2.93945 119.995 3.62768 119.995 5.7007C120.022 6.37748 119.936 7.05394 119.74 7.69865C119.698 7.81053 119.646 7.91807 119.586 8.01984C119.539 8.11284 119.519 8.21825 119.527 8.32335C119.536 8.42848 119.573 8.52873 119.634 8.61213C119.684 8.71911 119.729 8.82915 119.767 8.94162C119.941 9.56239 120.018 10.2091 119.995 10.8561C119.982 11.5429 119.727 12.1995 119.28 12.6967C118.833 13.1939 118.226 13.4956 117.58 13.5423L117.584 13.5548Z" fill="#117DC1"/>
<path fill-rule="evenodd" clip-rule="evenodd" d="M48.5803 3.24354C47.0613 3.74943 46.622 4.30427 46.5656 6.22989C46.5375 7.28246 46.4729 10.4075 46.6464 11.2847C47.1661 13.7896 51.776 13.8753 54.0887 13.1817C55.5716 12.733 55.8615 12.0965 55.8896 10.2403C55.9183 8.86948 55.8896 7.64147 55.9183 6.60931C55.9183 4.56945 55.4627 3.31698 53.2667 3.06811C51.8844 2.90084 49.8052 2.83965 48.5766 3.24354H48.5803ZM54.109 10.6686V6.0667C54.145 4.77344 52.243 4.9407 51.2881 4.9407C50.2404 4.9407 48.4113 4.83055 48.4113 6.0667V10.6686C48.4113 11.3132 49.2172 11.5539 50.132 11.6192C50.9706 11.6486 51.8106 11.6241 52.646 11.5458C53.5003 11.4805 54.0564 11.2398 54.0929 10.6605L54.109 10.6686Z" fill="#117DC1"/>
<path fill-rule="evenodd" clip-rule="evenodd" d="M80.4188 3.24354C78.9045 3.74943 78.4563 4.30427 78.4 6.22989C78.3719 7.28246 78.3109 10.4075 78.4928 11.2847C79.0014 13.7896 83.6283 13.8753 85.9374 13.1817C87.4231 12.733 87.718 12.0965 87.7545 10.2403C87.7545 8.86948 87.7545 7.64147 87.7545 6.60931C87.7743 4.56945 87.298 3.31698 85.102 3.06811C83.7211 2.90084 81.6419 2.83965 80.4026 3.24354H80.4188ZM85.9499 10.6686V6.0667C85.9859 4.77344 84.0765 4.9407 83.1234 4.9407C82.078 4.9407 80.2411 4.83055 80.2411 6.0667V10.6686C80.2411 11.3132 81.0483 11.5539 81.9769 11.6192C82.8133 11.6486 83.6509 11.6241 84.484 11.5458C85.3443 11.4805 85.8973 11.2398 85.9374 10.6605L85.9499 10.6686Z" fill="#117DC1"/>
<path fill-rule="evenodd" clip-rule="evenodd" d="M102.047 3.24354C100.524 3.74943 100.088 4.30427 100.032 6.22989C100.008 7.28246 99.9432 10.4075 100.117 11.2847C100.636 13.7896 105.244 13.8753 107.558 13.1817C109.045 12.733 109.336 12.0965 109.364 10.2403C109.388 8.86948 109.364 7.64147 109.388 6.60931C109.388 4.56945 108.932 3.31698 106.739 3.06811C105.353 2.90084 103.277 2.83965 102.047 3.24354ZM107.594 10.6686V6.0667C107.63 4.77344 105.724 4.9407 104.772 4.9407C103.724 4.9407 101.89 4.83055 101.89 6.0667V10.6686C101.89 11.3132 102.696 11.5539 103.615 11.6192C104.453 11.6488 105.292 11.6243 106.127 11.5458C106.985 11.4805 107.542 11.2398 107.578 10.6605L107.594 10.6686Z" fill="#117DC1"/>
<path fill-rule="evenodd" clip-rule="evenodd" d="M90.7073 2.97075C92.937 2.97075 95.2983 2.83761 96.6709 3.12052C98.044 3.40343 98.7755 4.27712 98.7755 6.03281C98.7755 8.94508 97.8653 9.77719 95.8466 9.99352C95.7884 9.99781 95.7298 9.99781 95.6717 9.99352C94.4532 10.0975 92.889 10.0143 90.9067 10.0143V12.5813C90.9067 12.8395 90.8066 13.0871 90.6284 13.2697C90.4503 13.4523 90.2084 13.5548 89.9564 13.5548C89.7044 13.5548 89.4626 13.4523 89.2844 13.2697C89.1058 13.0871 89.0057 12.8395 89.0057 12.5813V10.9171C88.9613 9.69398 88.9817 8.24613 89.0057 7.03131C89.0057 6.04529 89.0343 4.99271 89.0057 4.00669C88.972 3.77665 89.0287 3.54228 89.1635 3.35507C89.2983 3.16785 89.5004 3.04309 89.7247 3.00819C90.0072 2.96857 90.2929 2.95603 90.5777 2.97074L90.7073 2.97075ZM95.68 4.95111H90.903V8.06308H95.1192C96.3381 8.06308 96.9718 7.97987 97.0286 6.56118C97.0853 5.14248 96.6672 4.98023 95.6758 4.95111H95.68Z" fill="#117DC1"/>
</svg>
