<svg width="112" height="16" viewBox="0 0 112 16" fill="none" xmlns="http://www.w3.org/2000/svg">
<path d="M7.38272 1.7555C7.59605 1.19283 8.40338 1.19283 8.61738 1.7555L9.99738 5.57816C10.0455 5.70269 10.1303 5.80968 10.2405 5.88503C10.3507 5.96037 10.4812 6.00051 10.6147 6.00016H14.0061C14.6327 6.00016 14.9061 6.78016 14.4134 7.16216L12.0001 9.3335C11.8919 9.4166 11.8129 9.53181 11.7744 9.6626C11.7358 9.79339 11.7397 9.93303 11.7854 10.0615L12.6667 13.7968C12.8814 14.3968 12.1867 14.9122 11.6614 14.5428L8.38338 12.4628C8.27113 12.3839 8.13726 12.3416 8.00005 12.3416C7.86284 12.3416 7.72898 12.3839 7.61672 12.4628L4.33872 14.5428C3.81405 14.9122 3.11872 14.3962 3.33338 13.7968L4.21472 10.0615C4.26044 9.93303 4.26429 9.79339 4.22572 9.6626C4.18716 9.53181 4.10816 9.4166 4.00005 9.3335L1.58672 7.16216C1.09338 6.78016 1.36805 6.00016 1.99338 6.00016H5.38472C5.51825 6.00061 5.64876 5.9605 5.759 5.88514C5.86923 5.80979 5.95399 5.70274 6.00205 5.57816L7.38205 1.7555H7.38272Z" fill="#E1B919"/>
<path d="M31.3827 1.7555C31.5961 1.19283 32.4034 1.19283 32.6174 1.7555L33.9974 5.57816C34.0455 5.70269 34.1303 5.80968 34.2405 5.88503C34.3507 5.96037 34.4812 6.00051 34.6147 6.00016H38.0061C38.6327 6.00016 38.9061 6.78016 38.4134 7.16216L36.0001 9.3335C35.8919 9.4166 35.8129 9.53181 35.7744 9.6626C35.7358 9.79339 35.7397 9.93303 35.7854 10.0615L36.6667 13.7968C36.8814 14.3968 36.1867 14.9122 35.6614 14.5428L32.3834 12.4628C32.2711 12.3839 32.1373 12.3416 32.0001 12.3416C31.8628 12.3416 31.729 12.3839 31.6167 12.4628L28.3387 14.5428C27.8141 14.9122 27.1187 14.3962 27.3334 13.7968L28.2147 10.0615C28.2604 9.93303 28.2643 9.79339 28.2257 9.6626C28.1872 9.53181 28.1082 9.4166 28.0001 9.3335L25.5867 7.16216C25.0934 6.78016 25.3681 6.00016 25.9934 6.00016H29.3847C29.5182 6.00061 29.6488 5.9605 29.759 5.88514C29.8692 5.80979 29.954 5.70274 30.0021 5.57816L31.3821 1.7555H31.3827Z" fill="#E1B919"/>
<path d="M55.3827 1.7555C55.5961 1.19283 56.4034 1.19283 56.6174 1.7555L57.9974 5.57816C58.0455 5.70269 58.1303 5.80968 58.2405 5.88503C58.3507 5.96037 58.4812 6.00051 58.6147 6.00016H62.0061C62.6327 6.00016 62.9061 6.78016 62.4134 7.16216L60.0001 9.3335C59.8919 9.4166 59.8129 9.53181 59.7744 9.6626C59.7358 9.79339 59.7397 9.93303 59.7854 10.0615L60.6667 13.7968C60.8814 14.3968 60.1867 14.9122 59.6614 14.5428L56.3834 12.4628C56.2711 12.3839 56.1373 12.3416 56.0001 12.3416C55.8628 12.3416 55.729 12.3839 55.6167 12.4628L52.3387 14.5428C51.8141 14.9122 51.1187 14.3962 51.3334 13.7968L52.2147 10.0615C52.2604 9.93303 52.2643 9.79339 52.2257 9.6626C52.1872 9.53181 52.1082 9.4166 52.0001 9.3335L49.5867 7.16216C49.0934 6.78016 49.3681 6.00016 49.9934 6.00016H53.3847C53.5182 6.00061 53.6488 5.9605 53.759 5.88514C53.8692 5.80979 53.954 5.70274 54.0021 5.57816L55.3821 1.7555H55.3827Z" fill="#E1B919"/>
<path d="M79.3827 1.7555C79.5961 1.19283 80.4034 1.19283 80.6174 1.7555L81.9974 5.57816C82.0455 5.70269 82.1303 5.80968 82.2405 5.88503C82.3507 5.96037 82.4812 6.00051 82.6147 6.00016H86.0061C86.6327 6.00016 86.9061 6.78016 86.4134 7.16216L84.0001 9.3335C83.8919 9.4166 83.8129 9.53181 83.7744 9.6626C83.7358 9.79339 83.7397 9.93303 83.7854 10.0615L84.6667 13.7968C84.8814 14.3968 84.1867 14.9122 83.6614 14.5428L80.3834 12.4628C80.2711 12.3839 80.1373 12.3416 80.0001 12.3416C79.8628 12.3416 79.729 12.3839 79.6167 12.4628L76.3387 14.5428C75.8141 14.9122 75.1187 14.3962 75.3334 13.7968L76.2147 10.0615C76.2604 9.93303 76.2643 9.79339 76.2257 9.6626C76.1872 9.53181 76.1082 9.4166 76.0001 9.3335L73.5867 7.16216C73.0934 6.78016 73.3681 6.00016 73.9934 6.00016H77.3847C77.5182 6.00061 77.6488 5.9605 77.759 5.88514C77.8692 5.80979 77.954 5.70274 78.0021 5.57816L79.3821 1.7555H79.3827Z" fill="#E1B919"/>
<path d="M103.383 1.7555C103.596 1.19283 104.403 1.19283 104.617 1.7555L105.997 5.57816C106.046 5.70269 106.13 5.80968 106.241 5.88503C106.351 5.96037 106.481 6.00051 106.615 6.00016H110.006C110.633 6.00016 110.906 6.78016 110.413 7.16216L108 9.3335C107.892 9.4166 107.813 9.53181 107.774 9.6626C107.736 9.79339 107.74 9.93303 107.785 10.0615L108.667 13.7968C108.881 14.3968 108.187 14.9122 107.661 14.5428L104.383 12.4628C104.271 12.3839 104.137 12.3416 104 12.3416C103.863 12.3416 103.729 12.3839 103.617 12.4628L100.339 14.5428C99.8141 14.9122 99.1187 14.3962 99.3334 13.7968L100.215 10.0615C100.26 9.93303 100.264 9.79339 100.226 9.6626C100.187 9.53181 100.108 9.4166 100 9.3335L97.5867 7.16216C97.0934 6.78016 97.3681 6.00016 97.9934 6.00016H101.385C101.518 6.00061 101.649 5.9605 101.759 5.88514C101.869 5.80979 101.954 5.70274 102.002 5.57816L103.382 1.7555H103.383Z" fill="#DDDDDD"/>
<path d="M103.383 1.7555C103.596 1.19283 104.403 1.19283 104.617 1.7555L105.997 5.57816C106.046 5.70269 106.13 5.80968 106.241 5.88503C106.351 5.96037 106.481 6.00051 106.615 6.00016H110.006C110.633 6.00016 110.906 6.78016 110.413 7.16216L108 9.3335C107.892 9.4166 107.813 9.53181 107.774 9.6626C107.736 9.79339 107.74 9.93303 107.785 10.0615L108.667 13.7968C108.881 14.3968 108.187 14.9122 107.661 14.5428L104.383 12.4628C104.271 12.3839 104.137 12.3416 104 12.3416C103.863 12.3416 103.729 12.3839 103.617 12.4628L100.339 14.5428C99.8141 14.9122 99.1187 14.3962 99.3334 13.7968L100.215 10.0615C100.26 9.93303 100.264 9.79339 100.226 9.6626C100.187 9.53181 100.108 9.4166 100 9.3335L97.5867 7.16216C97.0934 6.78016 97.3681 6.00016 97.9934 6.00016H101.385C101.518 6.00061 101.649 5.9605 101.759 5.88514C101.869 5.80979 101.954 5.70274 102.002 5.57816L103.382 1.7555H103.383Z" fill="url(#paint0_linear_1186_1229)"/>
<defs>
<linearGradient id="paint0_linear_1186_1229" x1="103.5" y1="8.38525" x2="104" y2="8.38525" gradientUnits="userSpaceOnUse">
<stop offset="0.9999" stop-color="#E1B919"/>
<stop offset="1" stop-color="#E1B919" stop-opacity="0"/>
</linearGradient>
</defs>
</svg>
