<svg width="56" height="16" viewBox="0 0 56 16" fill="none" xmlns="http://www.w3.org/2000/svg">
<g clip-path="url(#clip0_1186_4862)">
<path d="M52.815 13.932C53.9018 13.932 54.6716 13.7357 55.2452 13.3131V11.3961C54.6565 11.8036 53.9471 12.0603 52.9508 12.0603C51.2754 12.0603 50.581 10.7621 50.581 8.70931C50.581 6.55082 51.4263 5.44893 52.9659 5.44893C53.8716 5.44893 54.7622 5.76591 55.2301 6.0678V4.07535C54.732 3.80365 53.8716 3.60742 52.6942 3.60742C49.6905 3.60742 48.1357 5.76591 48.1357 8.78478C48.1508 12.0904 49.6754 13.932 52.815 13.932ZM38.1282 13.0565V11.1395C37.4037 11.6376 36.1659 12.0753 35.0339 12.0753C33.3131 12.0753 32.6641 11.2603 32.5584 9.59987H38.2339V8.36214C38.2339 4.90554 36.7093 3.60742 34.3697 3.60742C31.5018 3.60742 30.1433 5.7961 30.1433 8.79987C30.1433 12.2565 31.849 13.932 34.8376 13.932C36.332 13.932 37.4339 13.5244 38.1282 13.0565ZM16.5886 3.78855V7.71308H13.449V3.78855H11.0942V13.7357H13.449V9.58478H16.5886V13.7357H18.9433V3.78855H16.5886ZM29.5546 11.864H28.5131V3.78855H21.6603V4.63384C21.6603 7.06403 21.5093 10.2036 20.6791 11.864H19.9244V15.9999H22.098V13.7357H27.3659V15.9999H29.5395V11.864H29.5546ZM45.6301 13.7357H48.3018L44.5282 8.37723L47.849 3.78855H45.4791L42.1584 8.37723V3.78855H39.8037V13.7357H42.1584V8.84516L45.6301 13.7357ZM34.3093 5.44893C35.4716 5.44893 35.8339 6.41497 35.8339 7.6678V7.86403H32.5584C32.6188 6.27912 33.1924 5.44893 34.3093 5.44893ZM26.1584 11.864H22.8376C23.4867 10.3697 23.6678 7.6527 23.6678 5.93195V5.63006H26.1584V11.864Z" fill="#200F3F"/>
<path d="M9.13208 13.7358H6.73208V1.8566H5.66038C3.69811 1.8566 2.6717 2.83774 2.6717 4.30189C2.6717 5.96226 3.38113 6.73208 4.84528 7.71321L6.05283 8.5283L2.58113 13.7358H0L3.12453 9.08679C1.3283 7.80377 0.316981 6.55094 0.316981 4.43774C0.316981 1.79623 2.15849 0 5.64528 0H9.11698V13.7358H9.13208Z" fill="#FC3F1D"/>
</g>
<defs>
<clipPath id="clip0_1186_4862">
<rect width="55.3962" height="16" fill="white"/>
</clipPath>
</defs>
</svg>
