<svg width="10" height="150" viewBox="0 0 10 150" fill="none" xmlns="http://www.w3.org/2000/svg">
<path d="M9.91827 142.618C9.80351 142.423 9.58529 142.301 9.34794 142.301L5.65208 142.301L5.65208 0.611912C5.65208 0.274136 5.35995 -2.02823e-07 5.00002 -2.18556e-07C4.64008 -2.34289e-07 4.34796 0.274136 4.34796 0.611912L4.34796 142.301L0.652099 142.301C0.413881 142.301 0.195658 142.423 0.0817656 142.618C-0.0338655 142.813 -0.0260416 143.051 0.100023 143.24L4.44794 149.714C4.56792 149.892 4.77571 150 5.00002 150C5.22432 150 5.43211 149.892 5.55209 149.714L9.90001 143.24C9.96609 143.14 9.99999 143.027 9.99999 142.913C9.99999 142.812 9.97217 142.71 9.91827 142.618Z" fill="white"/>
</svg>
