<svg width="100" height="50" viewBox="0 0 100 50" fill="none" xmlns="http://www.w3.org/2000/svg">
<path fill-rule="evenodd" clip-rule="evenodd" d="M77.5561 35.198C72.3561 35.198 68.1409 30.985 68.1409 25.7879C68.1409 20.5908 72.3561 16.3779 77.5561 16.3779C82.7558 16.3779 86.9713 20.5908 86.9713 25.7879C86.9713 30.985 82.7558 35.198 77.5561 35.198ZM36.1673 37.7105C36.1673 38.0149 35.9126 38.2525 35.6083 38.2525H9.00448C8.46585 38.2525 8.19653 38.2525 7.95557 38.1043C7.77403 37.9926 7.57933 37.7375 7.51955 37.533C7.44021 37.2614 7.49601 37.0575 7.60761 36.6495C8.35116 33.9315 10.8386 31.9336 13.794 31.9336C14.718 31.9336 15.5961 32.1293 16.3894 32.4811C17.2672 32.8704 17.7061 33.0651 17.9056 33.0698C18.1611 33.0758 18.1856 33.0699 18.4098 32.947C18.5847 32.8511 18.8573 32.5111 19.4025 31.831C21.1274 29.6789 23.7782 28.3005 26.7521 28.3005C31.9518 28.3005 36.1673 32.5134 36.1673 37.7105ZM98.4762 25.5701C99.1119 25.4184 99.4298 25.3426 99.5933 25.222C99.7591 25.0998 99.8403 24.997 99.9207 24.8073C100 24.6203 100 24.3541 100 23.8217V14.498C100 6.52417 93.4724 0 85.4941 0H14.5059C7.31712 0 1.3095 5.29775 0.190522 12.1793C0.102103 12.7231 0.570837 13.1758 1.12174 13.1758C4.0955 13.1758 6.74634 14.5543 8.47136 16.7063C9.01652 17.3865 9.2891 17.7265 9.46402 17.8224C9.68823 17.9452 9.71272 17.9512 9.96832 17.9452C10.1677 17.9404 10.6066 17.7458 11.4843 17.3564C12.2777 17.0045 13.1558 16.8088 14.0798 16.8088C17.0354 16.8088 19.5228 18.8067 20.2663 21.5249C20.3778 21.9329 20.4336 22.1369 20.3543 22.4084C20.2945 22.6129 20.0998 22.868 19.9183 22.9797C19.6773 23.1278 19.408 23.1278 18.8693 23.1278H1.6C1.03995 23.1278 0.759921 23.1278 0.546009 23.2368C0.357847 23.3327 0.204867 23.4857 0.108993 23.6738C0 23.8878 0 24.1678 0 24.7278V35.502C0 43.4758 6.52775 50 14.5059 50H29.3012C29.5457 50 29.6679 50 29.783 49.9724C29.885 49.9479 29.9825 49.9075 30.0719 49.8527C30.1728 49.7909 30.2593 49.7045 30.4322 49.5317L44.5427 35.4289C47.5278 32.4455 52.4125 32.4455 55.3975 35.4289L69.508 49.5317C69.681 49.7045 69.7674 49.7909 69.8683 49.8527C69.9578 49.9075 70.0553 49.9479 70.1573 49.9724C70.2723 50 70.3946 50 70.6391 50H85.4941C93.4724 50 100 43.4758 100 35.502V34.6798C100 34.1198 100 33.8398 99.891 33.6258C99.7951 33.4377 99.6422 33.2847 99.454 33.1888C99.2401 33.0798 98.96 33.0798 98.4 33.0798H94.0869C93.5396 33.0798 93.266 33.0798 93.0294 32.9389C92.8464 32.8298 92.6575 32.5939 92.5911 32.3913C92.5054 32.1297 92.5546 31.91 92.6532 31.4706C93.3061 28.5597 95.5788 26.2615 98.4762 25.5701Z" fill="url(#paint0_linear_1160_621)"/>
<defs>
<linearGradient id="paint0_linear_1160_621" x1="-20.5" y1="-19.1667" x2="-2.64816" y2="81.6024" gradientUnits="userSpaceOnUse">
<stop stop-color="#E24B7E"/>
<stop offset="1" stop-color="#5956AB"/>
</linearGradient>
</defs>
</svg>
