<svg width="101" height="102" viewBox="0 0 101 102" fill="none" xmlns="http://www.w3.org/2000/svg">
<rect y="0.5" width="101" height="101" rx="50.5" fill="#EDAA46"/>
<path d="M66.0083 34.844L53.4003 47.004C54.5949 46.9187 55.5976 46.8973 56.4083 46.94C60.0776 47.452 62.9149 48.8813 64.9202 51.228C66.9256 53.532 67.9283 56.3267 67.9283 59.612C67.9283 63.708 66.5416 67.1213 63.7683 69.852C61.0376 72.54 56.9629 73.9053 51.5443 73.948H51.0963C44.0136 73.9053 37.9976 71.1747 33.0483 65.756L38.8083 60.444C42.8189 63.9 46.8723 65.628 50.9683 65.628H51.4163C53.8056 65.5853 55.7683 64.8813 57.3043 63.516C58.8403 62.108 59.6083 60.38 59.6083 58.332C59.6083 53.8093 56.7496 51.548 51.0323 51.548C49.4109 51.548 47.2989 52.1027 44.6963 53.212L40.5363 50.076L53.1443 37.916H37.0803V29.66H66.0083V34.844Z" fill="white"/>
</svg>
