<svg width="101" height="101" viewBox="0 0 101 101" fill="none" xmlns="http://www.w3.org/2000/svg">
<rect width="101" height="101" rx="50.5" fill="#EDAA46"/>
<path d="M67.4995 73H33.5795V67.688L52.0115 52.264C54.0595 50.6 55.5742 49.128 56.5555 47.848C57.5795 46.568 58.0915 45.16 58.0915 43.624C58.0915 41.576 57.3875 39.976 55.9795 38.824C54.6142 37.6293 52.8648 37.0107 50.7315 36.968H50.3475C47.3182 36.968 43.9262 38.6107 40.1715 41.896L34.4115 36.648C39.7022 31.3147 45.2488 28.648 51.0515 28.648H51.5635C56.3848 28.6907 60.1182 30.0133 62.7635 32.616C65.4088 35.176 66.7315 38.248 66.7315 41.832C66.7315 44.904 65.7715 47.784 63.8515 50.472C61.9315 53.1173 58.9235 56.04 54.8275 59.24L48.5555 64.68H67.4995V73Z" fill="white"/>
</svg>
