<svg width="69" height="72" viewBox="0 0 69 72" fill="none" xmlns="http://www.w3.org/2000/svg">
<g clip-path="url(#clip0_1810_3112)">
<path fill-rule="evenodd" clip-rule="evenodd" d="M39.5417 21.94C39.5579 21.9579 39.5749 21.9753 39.5929 21.9919C39.6109 22.0086 39.6294 22.0244 39.6485 22.0392C39.6636 22.0512 39.6782 22.0626 39.692 22.0732C39.7079 22.0854 39.73 22.102 39.7546 22.1186C39.7664 22.1267 39.787 22.1403 39.8129 22.1552C39.826 22.1627 39.846 22.1737 39.8708 22.1856C39.8836 22.1917 39.8999 22.199 39.9191 22.2068C39.9379 22.2143 39.9636 22.2238 39.9947 22.2329C40.0246 22.2417 40.0697 22.2531 40.1255 22.26C40.1542 22.2635 40.1892 22.2663 40.2291 22.2662C40.2689 22.266 40.3175 22.263 40.372 22.2532C40.4816 22.2334 40.6298 22.1831 40.7661 22.0633C40.8334 22.0042 40.889 21.9355 40.932 21.8609C40.9745 21.7871 41.0009 21.7141 41.0166 21.6479C41.0322 21.5823 41.0375 21.523 41.0381 21.4739C41.0386 21.4247 41.0346 21.3818 41.0293 21.347C41.0192 21.2793 41.0022 21.2257 40.9896 21.1915C40.9765 21.1557 40.963 21.1267 40.9527 21.1062C40.9421 21.0851 40.932 21.0675 40.924 21.0541C40.9083 21.0279 40.8939 21.0073 40.8845 20.9943C40.8745 20.9805 40.8656 20.9691 40.8588 20.9606C40.8455 20.944 40.8336 20.9305 40.8257 20.9216C40.8097 20.9038 40.7946 20.8882 40.7839 20.8773C40.7616 20.8547 40.7378 20.832 40.7168 20.8126C40.6958 20.7931 40.6714 20.7711 40.6473 20.7505C40.6356 20.7406 40.6191 20.7268 40.6003 20.7123C40.5909 20.7051 40.5768 20.6945 40.5597 20.6827C40.5509 20.6766 40.5392 20.6688 40.5253 20.6601C40.512 20.6518 40.4915 20.6395 40.4656 20.6262C40.4524 20.6193 40.4352 20.611 40.4149 20.6021C40.395 20.5936 40.3675 20.5825 40.3338 20.572C40.3015 20.5619 40.252 20.5485 40.1903 20.5408C40.1586 20.5368 40.1197 20.5338 40.0753 20.5345C40.031 20.5352 39.9772 20.5396 39.9172 20.5523C39.8568 20.5652 39.7879 20.5869 39.7165 20.6232C39.6441 20.66 39.5734 20.7095 39.5099 20.7731C39.4463 20.8368 39.397 20.9074 39.3607 20.9797C39.3248 21.0511 39.3037 21.1198 39.2916 21.1801C39.2796 21.2399 39.276 21.2935 39.2761 21.3376C39.2762 21.3818 39.28 21.4204 39.2846 21.4519C39.2937 21.5131 39.3082 21.562 39.3192 21.5939C39.3306 21.6271 39.3423 21.6543 39.3515 21.6738C39.3608 21.6938 39.3697 21.7107 39.377 21.7237C39.3911 21.7491 39.404 21.7693 39.4128 21.7823C39.4299 21.808 39.4455 21.8283 39.4545 21.8397C39.4731 21.8633 39.4915 21.8844 39.5047 21.8993C39.5163 21.9123 39.5287 21.9259 39.5417 21.94ZM40.6875 20.8083C40.6875 20.8083 40.6873 20.8081 40.6867 20.8077C40.6872 20.8081 40.6875 20.8083 40.6875 20.8083ZM40.7225 20.8409C40.7225 20.8409 40.7228 20.8412 40.7233 20.8418C40.7228 20.8412 40.7225 20.8409 40.7225 20.8409Z" fill="#171A1E"/>
<path fill-rule="evenodd" clip-rule="evenodd" d="M37.5752 20.5513C36.2962 19.9796 34.8582 19.8547 33.4977 20.1969C32.1372 20.5391 30.935 21.3282 30.0887 22.4344C29.2423 23.5407 28.8022 24.8984 28.8406 26.2844C28.8789 27.6704 29.3935 29.0023 30.2998 30.0612C31.2061 31.1202 32.4502 31.8432 33.8276 32.1115C35.205 32.3798 36.6339 32.1774 37.8794 31.5375C39.125 30.8977 40.1131 29.8585 40.6814 28.5907C41.2498 27.3228 41.3646 25.9018 41.0069 24.561C40.8928 24.1332 41.1514 23.6951 41.5846 23.5824C42.0178 23.4697 42.4614 23.7251 42.5756 24.1529C43.027 25.8453 42.8821 27.6389 42.1647 29.2392C41.4474 30.8395 40.2001 32.1512 38.628 32.9588C37.0559 33.7664 35.2523 34.0219 33.5137 33.6832C31.7751 33.3446 30.2048 32.432 29.0609 31.0954C27.917 29.7587 27.2674 28.0776 27.219 26.3282C27.1705 24.5787 27.7261 22.8651 28.7944 21.4687C29.8626 20.0723 31.38 19.0764 33.0973 18.6444C34.8146 18.2125 36.6296 18.3702 38.2441 19.0918C38.6522 19.2742 38.8333 19.7488 38.6486 20.1518C38.4639 20.5548 37.9833 20.7337 37.5752 20.5513Z" fill="#171A1E"/>
<path fill-rule="evenodd" clip-rule="evenodd" d="M27.0066 11.0807C27.1382 10.7947 27.4269 10.6111 27.745 10.6111H41.4316C41.7497 10.6111 42.0385 10.7947 42.1701 11.0807L44.2339 15.566H50.5857C52.0356 15.566 53.4524 16.5744 53.4524 18.0858V36.1209C53.4524 37.6325 52.0388 38.639 50.5857 38.639H24.7062C24.2583 38.639 23.8951 38.2804 23.8951 37.838C23.8951 37.3956 24.2583 37.037 24.7062 37.037H50.5857C51.4074 37.037 51.8302 36.5074 51.8302 36.1209V18.0858C51.8302 17.6992 51.4038 17.1681 50.5857 17.1681H43.7116C43.3935 17.1681 43.1048 16.9844 42.9732 16.6984L40.9093 12.2131H28.2674L26.2035 16.6984C26.0719 16.9844 25.7832 17.1681 25.4651 17.1681H18.4145C17.5939 17.1681 17.17 17.6984 17.17 18.0858V36.1209C17.17 36.5066 17.5953 37.037 18.4145 37.037H20.0727C20.5206 37.037 20.8837 37.3956 20.8837 37.838C20.8837 38.2804 20.5206 38.639 20.0727 38.639H18.4145C16.9658 38.639 15.5479 37.6333 15.5479 36.1209V18.0858C15.5479 16.5751 16.9603 15.566 18.4145 15.566H24.9427L27.0066 11.0807Z" fill="#171A1E"/>
<path d="M9.60631 48.3536L6.65487 57.5868H3.47561L0.52417 48.3536H1.9151L4.44001 56.3722H5.70932L8.25307 48.3536H9.60631Z" fill="#171A1E"/>
<path fill-rule="evenodd" clip-rule="evenodd" d="M0.290527 48.1844H2.04128L4.56619 56.203H5.58354L8.1273 48.1844H9.84008L6.78049 57.756H3.35012L0.290527 48.1844ZM0.757937 48.5227L3.60123 57.4176H6.52938L9.37267 48.5227H8.37898L5.83522 56.5413H4.31395L1.78904 48.5227H0.757937Z" fill="#171A1E"/>
<path d="M16.8179 53.6029H15.2145V57.5868H13.8801V48.3536H15.2145V52.3358H16.7905L20.2164 48.3536H21.7666L17.8936 52.8501L21.8471 57.5868H20.1581L16.8179 53.6029Z" fill="#171A1E"/>
<path fill-rule="evenodd" clip-rule="evenodd" d="M13.709 48.1844H15.386V52.1667H16.7114L20.1373 48.1844H22.1374L18.1172 52.8518L22.2105 57.756H20.0777L16.7375 53.7721H15.386V57.756H13.709V48.1844ZM14.0516 48.5228V57.4177H15.0434V53.4338H16.8986L20.2389 57.4177H21.4841L17.6703 52.8484L21.3962 48.5228H20.2958L16.8698 52.505H15.0434V48.5228H14.0516Z" fill="#171A1E"/>
<path d="M31.6728 55.4756H26.6641L25.9961 57.5868H24.6462L27.5977 48.3536H30.7769L33.7284 57.5868H32.3392L31.6728 55.4756ZM31.2977 54.2626L29.816 49.5665H28.5467L27.0512 54.2626H31.2977Z" fill="#171A1E"/>
<path fill-rule="evenodd" clip-rule="evenodd" d="M27.4719 48.1844H30.9023L33.9619 57.756H32.213L31.5466 55.6448H26.7899L26.1218 57.756H24.4124L27.4719 48.1844ZM27.7231 48.5227L24.8798 57.4176H25.8699L26.538 55.3064H31.7987L32.465 57.4176H33.4945L30.6512 48.5227H27.7231ZM28.4208 49.3973H29.9418L31.5303 54.4318H26.8176L28.4208 49.3973ZM28.6722 49.7357L27.2845 54.0935H31.0647L29.6897 49.7357H28.6722Z" fill="#171A1E"/>
<path d="M45.9504 52.9786C45.9504 55.577 44.133 57.5952 41.0753 57.5952H37.8704V48.3535H41.0753C44.133 48.3535 45.9504 50.3717 45.9504 52.9786ZM44.5475 52.9786C44.5475 50.9333 43.2114 49.6274 41.0753 49.6274H39.2048V56.3281H41.0753C43.2114 56.3197 44.5475 55.0086 44.5475 52.9786Z" fill="#171A1E"/>
<path fill-rule="evenodd" clip-rule="evenodd" d="M37.699 48.1844H41.0752C42.6435 48.1844 43.9081 48.7029 44.7808 49.5692C45.653 50.435 46.1216 51.6359 46.1216 52.9786C46.1216 54.3173 45.6529 55.5161 44.7808 56.3808C43.908 57.246 42.6435 57.7644 41.0752 57.7644H37.699V48.1844ZM38.0416 48.5227V57.4261H41.0752C42.5646 57.4261 43.7377 56.9355 44.5381 56.142C45.339 55.3479 45.7791 54.2384 45.7791 52.9786C45.7791 51.7145 45.3389 50.6029 44.538 49.8078C43.7376 49.0134 42.5646 48.5227 41.0752 48.5227H38.0416ZM39.0334 49.4582H41.0752C42.1789 49.4582 43.0932 49.7963 43.7323 50.4153C44.3717 51.0346 44.7187 51.9189 44.7187 52.9786C44.7187 54.0312 44.3715 54.9127 43.7323 55.5322C43.0935 56.1514 42.1796 56.493 41.0759 56.4974L41.0752 56.4974H39.0334V49.4582ZM39.376 49.7966V56.159H41.0749C42.1071 56.1549 42.9291 55.8367 43.4924 55.2908C44.0553 54.7452 44.3761 53.9562 44.3761 52.9786C44.3761 51.9932 44.0551 51.2018 43.4924 50.6568C42.9294 50.1115 42.1076 49.7966 41.0752 49.7966H39.376Z" fill="#171A1E"/>
<path d="M53.5096 53.7602H51.7624V57.5868H50.4263V48.3536H54.5134C56.4371 48.3536 57.506 49.5276 57.506 51.0603C57.506 52.4136 56.6632 53.5014 55.1078 53.7247L58.2203 57.5902H56.5416L53.5096 53.7602ZM51.7624 52.5608H54.4329C55.5018 52.5608 56.103 52.0195 56.103 51.0569C56.103 50.0943 55.5018 49.553 54.4329 49.553H51.7624V52.5608Z" fill="#171A1E"/>
<path fill-rule="evenodd" clip-rule="evenodd" d="M50.2551 48.1844H54.5136C55.5112 48.1844 56.305 48.4896 56.8503 49.0106C57.3956 49.5317 57.6774 50.2544 57.6774 51.0603C57.6774 51.7721 57.4554 52.4227 57.0206 52.9261C56.6379 53.3692 56.0976 53.6896 55.4196 53.84L58.5755 57.7594H56.4582L53.4262 53.9294H51.9338V57.756H50.2551V48.1844ZM50.5977 48.5228V57.4177H51.5912V53.5911H53.5933L56.6252 57.4211H57.8654L54.7884 53.5997L55.0833 53.5573C55.825 53.4508 56.385 53.1406 56.76 52.7065C57.1354 52.2718 57.3348 51.7019 57.3348 51.0603C57.3348 50.3336 57.0822 49.7029 56.6121 49.2538C56.1421 48.8047 55.4395 48.5228 54.5136 48.5228H50.5977ZM51.5912 49.3839H54.4331C54.995 49.3839 55.4592 49.5262 55.7844 49.819C56.1119 50.1139 56.2745 50.54 56.2745 51.0569C56.2745 51.5739 56.1119 51.9999 55.7844 52.2949C55.4592 52.5876 54.995 52.73 54.4331 52.73H51.5912V49.3839ZM51.9338 49.7222V52.3917H54.4331C54.94 52.3917 55.3109 52.2634 55.5535 52.0448C55.7939 51.8285 55.9319 51.5025 55.9319 51.0569C55.9319 50.6113 55.7939 50.2854 55.5535 50.069C55.3109 49.8505 54.94 49.7222 54.4331 49.7222H51.9338Z" fill="#171A1E"/>
<path d="M63.5683 49.5952V52.351H68.1094V53.591H63.5683V56.3484H68.5102V57.5885H62.2322V48.3535H68.5102V49.5952H63.5683Z" fill="#171A1E"/>
<path fill-rule="evenodd" clip-rule="evenodd" d="M62.0608 48.1844H68.6814V49.7644H63.7395V52.1819H68.2806V53.7602H63.7395V56.1793H68.6814V57.7577H62.0608V48.1844ZM62.4034 48.5227V57.4193H68.3388V56.5177H63.3969V53.4219H67.938V52.5202H63.3969V49.4261H68.3388V48.5227H62.4034Z" fill="#171A1E"/>
<path fill-rule="evenodd" clip-rule="evenodd" d="M0.000732422 0.80187C0.000732422 0.359481 0.36387 0.000854492 0.811822 0.000854492H68.1897C68.6376 0.000854492 69.0007 0.359481 69.0007 0.80187V41.4396C69.0007 41.882 68.6376 42.2407 68.1897 42.2407C67.7417 42.2407 67.3786 41.882 67.3786 41.4396V1.60288H1.62291V41.4396C1.62291 41.882 1.25977 42.2407 0.811822 42.2407C0.36387 42.2407 0.000732422 41.882 0.000732422 41.4396V0.80187Z" fill="#171A1E"/>
<path fill-rule="evenodd" clip-rule="evenodd" d="M0.812066 62.6119C1.26002 62.6119 1.62316 62.9706 1.62316 63.413V70.3971H67.3788V63.413C67.3788 62.9706 67.7419 62.6119 68.1899 62.6119C68.6378 62.6119 69.001 62.9706 69.001 63.413V71.1981C69.001 71.6405 68.6378 71.9991 68.1899 71.9991H0.812066C0.364114 71.9991 0.000976562 71.6405 0.000976562 71.1981V63.413C0.000976562 62.9706 0.364114 62.6119 0.812066 62.6119Z" fill="#171A1E"/>
</g>
<defs>
<clipPath id="clip0_1810_3112">
<rect width="69" height="72" fill="white"/>
</clipPath>
</defs>
</svg>
