<svg width="40" height="40" viewBox="0 0 40 40" fill="none" xmlns="http://www.w3.org/2000/svg">
<rect x="0.5" y="0.5" width="39" height="39" stroke="black" stroke-opacity="0.4" stroke-dasharray="5 5"/>
<path fill-rule="evenodd" clip-rule="evenodd" d="M19.9999 11.6667C17.9289 11.6667 16.2499 13.3456 16.2499 15.4167C16.2499 17.4877 17.9289 19.1667 19.9999 19.1667C22.071 19.1667 23.7499 17.4877 23.7499 15.4167C23.7499 13.3456 22.071 11.6667 19.9999 11.6667ZM17.9166 15.4167C17.9166 14.2661 18.8493 13.3333 19.9999 13.3333C21.1505 13.3333 22.0833 14.2661 22.0833 15.4167C22.0833 16.5673 21.1505 17.5 19.9999 17.5C18.8493 17.5 17.9166 16.5673 17.9166 15.4167ZM19.9999 20.4167C16.318 20.4167 13.3333 23.4014 13.3333 27.0833V28.3333H26.6666V27.0833C26.6666 23.4014 23.6818 20.4167 19.9999 20.4167ZM19.9999 22.0833C22.621 22.0833 24.7711 24.1002 24.9828 26.6667H15.017C15.2288 24.1002 17.3788 22.0833 19.9999 22.0833Z" fill="black"/>
</svg>
