<svg width="13" height="13" viewBox="0 0 13 13" fill="none" xmlns="http://www.w3.org/2000/svg">
<path d="M7.87591 4.03731L7.93991 4.08531C8.35591 3.89331 8.65991 3.36531 8.83591 2.66131C8.93191 2.35731 8.97991 2.02131 8.97991 1.74931C8.97991 1.39731 8.89991 1.09331 8.75591 0.837309C8.69191 0.821309 8.45191 0.805309 8.40391 0.805309C8.06791 0.805309 7.77991 0.933309 7.58791 1.10931C7.69991 1.38131 7.95591 2.22931 7.95591 3.17331C7.95591 3.44531 7.93991 3.74931 7.87591 4.03731ZM2.30791 2.72531C2.65991 2.83731 4.03591 3.09331 4.96391 3.95731L5.05991 3.94131V3.86131C5.05991 3.42931 4.75591 2.91731 4.25991 2.42131C3.79591 1.97331 3.20391 1.62131 2.70791 1.62131H2.65991C2.40391 1.84531 2.25991 2.16531 2.25991 2.46931C2.25991 2.56531 2.29191 2.66131 2.30791 2.72531ZM2.78791 8.22931C3.13991 8.42131 3.53991 8.50131 3.90791 8.50131C4.62791 8.50131 5.36391 8.29331 5.93991 8.00531C6.01991 8.34131 6.05191 8.75731 6.05191 9.28531C6.05191 9.66931 6.03591 10.0693 5.95591 10.4213L6.03591 10.5013C6.94791 10.0213 7.33191 8.69331 7.39591 7.66931C7.71591 7.78131 8.13191 7.94131 8.61191 8.22931C8.94791 8.37331 9.26791 8.61331 9.52391 8.85331L9.63591 8.82131V8.78931C9.63591 7.73331 8.65991 6.78931 7.85991 6.26131C8.11591 6.00531 8.45191 5.71731 8.96391 5.44531C9.26791 5.25331 9.61991 5.09331 9.97191 4.96531V4.88531C9.63591 4.67731 9.23591 4.56531 8.85191 4.56531C8.13191 4.56531 7.42791 4.86931 6.81991 5.12531C6.77191 4.75731 6.72391 4.32531 6.72391 3.78131C6.72391 3.41331 6.73991 3.01331 6.80391 2.66131L6.73991 2.61331C5.81191 3.09331 5.41191 4.46931 5.39591 5.44531C5.01191 5.33331 4.62791 5.15731 4.14791 4.88531C3.85991 4.69331 3.49191 4.48531 3.23591 4.21331L3.13991 4.27731V4.32531C3.13991 5.33331 4.08391 6.34131 4.91591 6.83731C4.62791 7.12531 4.29191 7.38131 3.81191 7.62131C3.49191 7.81331 3.17191 8.00531 2.78791 8.10131V8.22931ZM9.26791 6.66131C9.45991 6.80531 9.73191 6.86931 10.0359 6.86931C10.8839 6.86931 12.0679 6.45331 12.4519 5.76531C12.4359 5.55731 12.2919 5.33331 12.1799 5.18931C12.0519 5.06131 11.8759 4.94931 11.6839 4.86931C11.4119 5.14131 10.4839 6.19731 9.28391 6.58131L9.26791 6.66131ZM1.04391 8.14931C1.31591 7.89331 2.22791 6.83731 3.44391 6.45331L3.45991 6.35731C3.26791 6.21331 3.01191 6.16531 2.67591 6.16531C2.41991 6.16531 2.08391 6.19731 1.77991 6.29331C1.13991 6.48531 0.515914 6.80531 0.275914 7.26931V7.28531C0.275914 7.34931 0.339914 7.58931 0.563914 7.84531C0.675914 7.95731 0.851914 8.08531 1.04391 8.14931ZM3.74791 11.3013C3.74791 11.6533 3.79591 11.9413 3.95591 12.1973C4.06791 12.2293 4.19591 12.2453 4.30791 12.2453C4.61191 12.2453 4.94791 12.1173 5.12391 11.9253C5.05991 11.6533 4.75591 10.8053 4.75591 9.86131C4.75591 9.58931 4.78791 9.26931 4.83591 8.99731L4.78791 8.94931C4.38791 9.14131 4.06791 9.66931 3.89191 10.3733C3.79591 10.6773 3.74791 10.9973 3.74791 11.3013ZM7.68391 9.17331C7.68391 9.60531 7.97191 10.1173 8.45191 10.6133C8.93191 11.0613 9.50791 11.4133 10.0199 11.4133H10.0839C10.3079 11.2053 10.4679 10.8853 10.4679 10.5493C10.4679 10.4853 10.4519 10.3733 10.4359 10.3093C10.0839 10.1973 8.70791 9.94131 7.76391 9.07731L7.68391 9.09331V9.17331Z" fill="#494949"/>
</svg>
