<svg width="94" height="93" viewBox="0 0 94 93" fill="none" xmlns="http://www.w3.org/2000/svg">
<path fill-rule="evenodd" clip-rule="evenodd" d="M5.875 46.5C5.875 57.291 10.2078 67.64 17.9202 75.2704C25.6327 82.9008 36.093 87.1875 47 87.1875C57.907 87.1875 68.3673 82.9008 76.0798 75.2704C83.7922 67.64 88.125 57.291 88.125 46.5C88.125 35.709 83.7922 25.36 76.0798 17.7296C68.3673 10.0992 57.907 5.8125 47 5.8125C36.093 5.8125 25.6327 10.0992 17.9202 17.7296C10.2078 25.36 5.875 35.709 5.875 46.5ZM94 46.5C94 58.8326 89.0482 70.66 80.234 79.3805C71.4198 88.1009 59.4652 93 47 93C34.5348 93 22.5802 88.1009 13.766 79.3805C4.95177 70.66 0 58.8326 0 46.5C0 34.1674 4.95177 22.34 13.766 13.6195C22.5802 4.89909 34.5348 0 47 0C59.4652 0 71.4198 4.89909 80.234 13.6195C89.0482 22.34 94 34.1674 94 46.5ZM49.9375 66.8438C49.9375 67.6145 49.628 68.3538 49.0771 68.8988C48.5262 69.4438 47.7791 69.75 47 69.75C46.2209 69.75 45.4738 69.4438 44.9229 68.8988C44.372 68.3538 44.0625 67.6145 44.0625 66.8438V33.1719L31.4548 45.6514C30.9032 46.1971 30.1551 46.5037 29.375 46.5037C28.5949 46.5037 27.8468 46.1971 27.2952 45.6514C26.7437 45.1057 26.4338 44.3655 26.4338 43.5938C26.4338 42.822 26.7437 42.0818 27.2952 41.5361L44.9202 24.0986C45.1931 23.828 45.5173 23.6132 45.8742 23.4667C46.231 23.3202 46.6136 23.2448 47 23.2448C47.3864 23.2448 47.769 23.3202 48.1258 23.4667C48.4827 23.6132 48.8069 23.828 49.0798 24.0986L66.7048 41.5361C67.2563 42.0818 67.5662 42.822 67.5662 43.5938C67.5662 44.3655 67.2563 45.1057 66.7048 45.6514C66.1532 46.1971 65.4051 46.5037 64.625 46.5037C63.8449 46.5037 63.0968 46.1971 62.5452 45.6514L49.9375 33.1719V66.8438Z" fill="#F8F8F8"/>
</svg>
