<svg width="72" height="72" viewBox="0 0 72 72" fill="none" xmlns="http://www.w3.org/2000/svg">
<path d="M50.168 42.1805C49.4016 41.7867 45.5836 39.9164 44.8734 39.6633C44.1633 39.3961 43.643 39.2695 43.1297 40.057C42.6094 40.8375 41.1328 42.5742 40.6687 43.1016C40.2187 43.6219 39.7617 43.6852 38.9953 43.2984C34.4391 41.0203 31.4508 39.2344 28.4484 34.0805C27.6539 32.7094 29.243 32.8078 30.7266 29.8477C30.9797 29.3273 30.8531 28.8844 30.6562 28.4906C30.4594 28.0969 28.9125 24.2859 28.2656 22.732C27.6398 21.2203 26.993 21.4312 26.5219 21.4031C26.0719 21.375 25.5586 21.375 25.0383 21.375C24.518 21.375 23.6813 21.5719 22.9711 22.3383C22.2609 23.1188 20.257 24.9961 20.257 28.807C20.257 32.618 23.0344 36.3094 23.4141 36.8297C23.8078 37.35 28.8773 45.1687 36.6609 48.5367C41.5828 50.6602 43.5094 50.843 45.9703 50.4773C47.468 50.2523 50.5547 48.607 51.1945 46.7859C51.8344 44.9719 51.8344 43.418 51.6445 43.0945C51.4547 42.75 50.9344 42.5531 50.168 42.1805Z" fill="#F8F8F8"/>
<path d="M65.0531 23.7937C63.4641 20.018 61.1859 16.6289 58.282 13.718C55.3781 10.8141 51.9891 8.52891 48.2062 6.94688C44.3391 5.32266 40.2328 4.5 36 4.5H35.8594C31.5984 4.52109 27.4711 5.36484 23.5898 7.02422C19.8422 8.62734 16.4812 10.9055 13.6055 13.8094C10.7297 16.7133 8.47266 20.0883 6.91172 23.85C5.29453 27.7453 4.47891 31.8867 4.5 36.1477C4.52109 41.0273 5.68828 45.8719 7.875 50.2031V60.8906C7.875 62.6766 9.32344 64.125 11.1094 64.125H21.8039C26.1352 66.3117 30.9797 67.4789 35.8594 67.5H36.007C40.2187 67.5 44.3039 66.6844 48.15 65.0883C51.9117 63.5203 55.2937 61.2703 58.1906 58.3945C61.0945 55.5187 63.3797 52.1578 64.9758 48.4102C66.6351 44.5289 67.4789 40.4016 67.5 36.1406C67.5211 31.8586 66.6914 27.7031 65.0531 23.7937V23.7937ZM54.4289 54.5906C49.5 59.4703 42.9609 62.1562 36 62.1562H35.8805C31.6406 62.1352 27.4289 61.0805 23.7094 59.0977L23.1187 58.7812H13.2187V48.8813L12.9023 48.2906C10.9195 44.5711 9.86484 40.3594 9.84375 36.1195C9.81562 29.1094 12.4945 22.5281 17.4094 17.5711C22.3172 12.6141 28.8773 9.87188 35.8875 9.84375H36.007C39.5226 9.84375 42.9328 10.5258 46.1461 11.8758C49.282 13.1906 52.0945 15.082 54.5133 17.5008C56.925 19.9125 58.8234 22.732 60.1383 25.868C61.5023 29.1164 62.1844 32.5617 62.1703 36.1195C62.1281 43.1227 59.3789 49.6828 54.4289 54.5906V54.5906Z" fill="#F8F8F8"/>
</svg>
