<svg width="150" height="22" viewBox="0 0 150 22" fill="none" xmlns="http://www.w3.org/2000/svg">
<path opacity="0.2" d="M132.775 0.179794C132.32 0.432271 132.036 0.912359 132.036 1.43453V9.56542H1.42779C0.639652 9.56542 0 10.2081 0 10.9999C0 11.7918 0.639652 12.4345 1.42779 12.4345H132.036V20.5654C132.036 21.0895 132.32 21.5695 132.775 21.8201C133.23 22.0745 133.786 22.0573 134.226 21.7799L149.334 12.2145C149.749 11.9506 150 11.4934 150 10.9999C150 10.5065 149.749 10.0493 149.334 9.78538L134.226 0.219961C133.993 0.0745954 133.729 0 133.464 0C133.228 0 132.99 0.0612065 132.775 0.179794Z" fill="white"/>
</svg>
