<svg width="46" height="46" viewBox="0 0 46 46" fill="none" xmlns="http://www.w3.org/2000/svg">
<circle cx="23" cy="23" r="22.5" stroke="white"/>
<path d="M33.2647 13.4737C32.98 13.2368 32.6364 13.0816 32.2704 13.0245C31.9045 12.9674 31.5299 13.0106 31.1866 13.1495L13.2657 20.3848C12.8824 20.5425 12.5562 20.813 12.3303 21.1604C12.1043 21.5079 11.9894 21.9158 12.0008 22.33C12.0121 22.7443 12.1492 23.1453 12.3937 23.4799C12.6383 23.8144 12.9789 24.0667 13.3702 24.2032L16.9952 25.4639L19.0157 32.1456C19.0431 32.2348 19.083 32.3198 19.134 32.3979C19.1418 32.4099 19.1527 32.4189 19.161 32.4305C19.22 32.5129 19.2913 32.5856 19.3724 32.6463C19.3955 32.6639 19.4175 32.6804 19.4422 32.696C19.5371 32.759 19.6423 32.805 19.7529 32.8321L19.7648 32.8331L19.7715 32.836C19.838 32.8495 19.9057 32.8564 19.9736 32.8565C19.9802 32.8565 19.986 32.8533 19.9924 32.8532C20.0949 32.8514 20.1965 32.8338 20.2935 32.8009C20.3161 32.7932 20.3355 32.7804 20.3574 32.7711C20.4297 32.7411 20.4983 32.7026 20.5617 32.6565C20.6124 32.6138 20.6631 32.571 20.7139 32.5283L23.416 29.5449L27.4463 32.667C27.8011 32.9433 28.2379 33.0934 28.6875 33.0938C29.1587 33.0932 29.6154 32.9306 29.9809 32.6333C30.3465 32.336 30.5987 31.9221 30.6954 31.4609L33.958 15.4444C34.032 15.0839 34.0065 14.7101 33.8844 14.363C33.7623 14.0158 33.5481 13.7085 33.2647 13.4737V13.4737ZM20.3702 25.7823C20.2315 25.9204 20.1367 26.0964 20.0977 26.2881L19.7882 27.7921L19.0041 25.1991L23.0694 23.0821L20.3702 25.7823ZM28.6719 31.0859L23.9092 27.3965C23.71 27.2425 23.46 27.1693 23.2092 27.1914C22.9583 27.2134 22.725 27.3292 22.5557 27.5156L21.6903 28.4708L21.9961 26.9844L29.0791 19.9014C29.2482 19.7325 29.3512 19.5087 29.3695 19.2705C29.3878 19.0323 29.3201 18.7954 29.1788 18.6027C29.0375 18.41 28.8319 18.2744 28.5992 18.2202C28.3664 18.1661 28.122 18.1971 27.9102 18.3076L17.7449 23.6003L14.0205 22.2374L31.999 15.0449L28.6719 31.0859Z" fill="#FFFEFE"/>
</svg>
