<svg width="101" height="100" viewBox="0 0 101 100" fill="none" xmlns="http://www.w3.org/2000/svg">
<rect width="100" height="100" transform="translate(0.5)" fill="white"/>
<path d="M60.8147 70.81C55.5947 76.99 48.8447 80.08 40.5647 80.08C32.2847 80.08 25.5647 76.99 20.4047 70.81C15.2447 64.63 12.6647 56.86 12.6647 47.5C12.6647 38.2 15.2747 30.46 20.4947 24.28C25.7147 18.04 32.4647 14.92 40.7447 14.92C48.9647 14.92 55.6547 18.01 60.8147 24.19C66.0347 30.37 68.6447 38.14 68.6447 47.5C68.6447 56.8 66.0347 64.57 60.8147 70.81ZM30.6647 61.9C33.2447 65.68 36.6047 67.57 40.7447 67.57C44.8847 67.57 48.1847 65.71 50.6447 61.99C53.1647 58.21 54.4247 53.38 54.4247 47.5C54.4247 41.74 53.1347 36.97 50.5547 33.19C47.9747 29.35 44.6447 27.43 40.5647 27.43C36.4847 27.43 33.1847 29.32 30.6647 33.1C28.1447 36.82 26.8847 41.62 26.8847 47.5C26.8847 53.32 28.1447 58.12 30.6647 61.9ZM81.6349 69.352C80.8669 70.184 79.8829 70.6 78.6829 70.6C77.4829 70.6 76.5069 70.192 75.7549 69.376C75.0029 68.544 74.6269 67.52 74.6269 66.304C74.6269 65.088 75.0109 64.072 75.7789 63.256C76.5469 62.424 77.5309 62.008 78.7309 62.008C79.9309 62.008 80.9069 62.424 81.6589 63.256C82.4109 64.072 82.7869 65.088 82.7869 66.304C82.7869 67.504 82.4029 68.52 81.6349 69.352ZM76.3069 79L88.5709 62.2H91.4269L79.1629 79H76.3069ZM91.9549 77.944C91.1869 78.776 90.2029 79.192 89.0029 79.192C87.8029 79.192 86.8269 78.784 86.0749 77.968C85.3229 77.136 84.9469 76.112 84.9469 74.896C84.9469 73.68 85.3309 72.664 86.0989 71.848C86.8669 71.016 87.8509 70.6 89.0509 70.6C90.2509 70.6 91.2269 71.016 91.9789 71.848C92.7309 72.664 93.1069 73.68 93.1069 74.896C93.1069 76.096 92.7229 77.112 91.9549 77.944ZM78.7309 68.416C79.2109 68.416 79.5869 68.216 79.8589 67.816C80.1309 67.4 80.2669 66.896 80.2669 66.304C80.2669 65.728 80.1149 65.232 79.8109 64.816C79.5229 64.4 79.1469 64.192 78.6829 64.192C78.2029 64.192 77.8269 64.392 77.5549 64.792C77.2829 65.192 77.1469 65.696 77.1469 66.304C77.1469 66.88 77.2909 67.376 77.5789 67.792C77.8829 68.208 78.2669 68.416 78.7309 68.416ZM89.0509 77.008C89.5309 77.008 89.9069 76.808 90.1789 76.408C90.4509 75.992 90.5869 75.488 90.5869 74.896C90.5869 74.32 90.4349 73.824 90.1309 73.408C89.8429 72.992 89.4669 72.784 89.0029 72.784C88.5229 72.784 88.1469 72.984 87.8749 73.384C87.6029 73.784 87.4669 74.288 87.4669 74.896C87.4669 75.472 87.6109 75.968 87.8989 76.384C88.2029 76.8 88.5869 77.008 89.0509 77.008Z" fill="#333333"/>
</svg>
