<svg width="102" height="102" viewBox="0 0 102 102" fill="none" xmlns="http://www.w3.org/2000/svg">
<g clip-path="url(#clip0_247_1302)">
<path d="M84.3659 89.097C69.3261 87.7692 55.2076 83.1427 42.2871 75.3076C40.3606 74.1394 39.4907 71.7984 40.1877 69.6558L55.6256 22.1953C68.7965 30.8753 83.2779 36.1207 98.7628 37.8312C101.563 38.1406 102.964 41.3741 101.26 43.6179C97.7914 48.1848 94.3011 52.7344 90.7887 57.2674C87.9528 60.9274 86.5941 65.5182 86.9786 70.1323C87.3966 75.1461 87.8285 80.1588 88.273 85.1702C88.4716 87.4088 86.6043 89.2946 84.3659 89.097Z" fill="url(#paint0_linear_247_1302)"/>
<path d="M47.9214 57.9878C45.9949 56.8196 45.125 54.4785 45.822 52.3359L40.1877 69.6578C39.4907 71.8004 40.3606 74.1412 42.2871 75.3096C50.8501 80.5025 59.9395 84.2842 69.4743 86.6318L75.1086 69.31C65.574 66.9622 56.4842 63.1806 47.9214 57.9878Z" fill="url(#paint1_linear_247_1302)"/>
<path d="M53.8728 39.6879C61.8717 44.5387 71.437 48.5165 81.023 51.1243L86.0777 35.5842C86.0779 35.5842 86.0781 35.5842 86.0781 35.5842C75.3215 32.9356 65.1317 28.4607 55.625 22.1953L51.7737 34.0359C51.0766 36.1787 51.9466 38.5195 53.8728 39.6879Z" fill="url(#paint2_linear_247_1302)"/>
<path d="M87.0906 71.4761C83.0243 70.998 79.028 70.2742 75.107 69.3086L69.4727 86.6305C74.3248 87.8252 79.2919 88.6499 84.3643 89.0976C86.6027 89.2952 88.4698 87.4094 88.2713 85.171C87.8663 80.6071 87.4735 76.042 87.0906 71.4761Z" fill="url(#paint3_linear_247_1302)"/>
<path d="M86.9792 70.1335C86.5945 65.5194 87.9532 60.9286 90.7893 57.2685C91.7033 56.0889 92.6117 54.9052 93.5226 53.7232C89.4394 53.1497 85.2301 52.2693 81.0242 51.125L75.1094 69.3089C79.0306 70.2745 83.0267 70.9981 87.093 71.4764C87.0555 71.0287 87.0165 70.5811 86.9792 70.1335Z" fill="url(#paint4_linear_247_1302)"/>
<path d="M77.8594 33.1663C70.104 30.5035 62.6767 26.8423 55.6256 22.1953L40.1877 69.6558C39.4907 71.7984 40.3606 74.1392 42.2871 75.3076C55.2074 83.1431 69.3261 87.7692 84.3659 89.097C86.6043 89.2946 88.4716 87.4088 88.273 85.1703C87.8283 80.1588 87.3966 75.1461 86.9786 70.1325C86.6123 65.7372 87.8311 61.3647 90.3986 57.7959L77.8594 33.1663Z" fill="url(#paint5_linear_247_1302)"/>
<path d="M53.8718 39.6909C51.9453 38.5227 51.0753 36.1817 51.7724 34.0391L45.8206 52.3369C45.1235 54.4795 45.9933 56.8203 47.9199 57.9887C56.4829 63.1816 65.5723 66.9633 75.1071 69.3109L81.0219 51.1271C71.4361 48.5193 61.8708 44.5415 53.8718 39.6909Z" fill="url(#paint6_linear_247_1302)"/>
<path d="M101.26 43.6198C102.964 41.3762 101.563 38.1425 98.7627 37.8331C94.4548 37.3574 90.2246 36.6069 86.0782 35.5859L81.0234 51.126C85.2293 52.2701 89.4384 53.1507 93.5218 53.7242C96.1119 50.3644 98.6939 46.9984 101.26 43.6198Z" fill="url(#paint7_linear_247_1302)"/>
<path d="M81.0211 51.127L75.1065 69.3101C65.5729 66.9622 56.4819 63.1814 47.9191 57.9869C45.9927 56.8189 45.1237 54.4781 45.8206 52.3363L51.7722 34.0391C51.0756 36.1809 51.9443 38.5217 53.8708 39.6897C61.8712 44.5407 71.4355 48.5181 81.0211 51.127Z" fill="url(#paint8_linear_247_1302)"/>
<path opacity="0.2" d="M87.825 52.7451C85.5692 52.2873 83.2959 51.7446 81.0234 51.1274L83.3545 43.9609L87.825 52.7451Z" fill="url(#paint9_linear_247_1302)"/>
<path d="M64.9154 71.967C64.9154 71.967 58.9753 67.3294 42.6726 62.0156L40.1871 69.6567C39.4875 71.8072 40.3716 74.1477 42.3056 75.3199C46.4717 77.845 50.7623 80.0358 55.168 81.8903C58.2503 83.1878 61.784 81.594 62.8184 78.4137L64.9154 71.967Z" fill="url(#paint10_linear_247_1302)"/>
<path d="M60.778 72.1411C46.6701 63.6122 31.1357 58.9046 14.5352 58.1363C20.0701 41.1208 25.6045 24.1053 31.1394 7.08984C46.2422 7.7891 60.4624 11.7482 73.5288 18.8794C77.7923 21.2063 79.7877 26.2459 78.2852 30.8648C74.6331 42.0922 62.9537 77.9984 62.9537 77.9984C63.6762 75.7779 62.7762 73.349 60.778 72.1411Z" fill="url(#paint11_linear_247_1302)"/>
<path d="M69.2048 32.1688C67.0561 30.9962 64.8756 29.911 62.6657 28.9102L56.875 46.7121C59.0849 47.713 61.2654 48.798 63.4142 49.9708C67.6776 52.2976 69.673 57.3373 68.1705 61.9562C70.5147 54.7494 72.7093 48.0023 73.9612 44.1542C75.4637 39.5353 73.4683 34.4955 69.2048 32.1688Z" fill="url(#paint12_linear_247_1302)"/>
<path d="M44.9391 22.8789L39.1484 40.6809C45.2441 42.1095 51.1597 44.122 56.8749 46.7101L62.6656 28.9081C56.9502 26.32 51.0348 24.3075 44.9391 22.8789Z" fill="url(#paint13_linear_247_1302)"/>
<path d="M26.818 20.3789C24.8878 26.3128 22.9576 32.247 21.0273 38.1809C27.2236 38.4678 33.2709 39.3043 39.1513 40.6827L44.942 22.8807C39.0616 21.5025 33.0141 20.6658 26.818 20.3789Z" fill="url(#paint14_linear_247_1302)"/>
<path d="M39.1509 40.6836L32.6602 60.6383C38.7553 62.0667 44.6713 64.0786 50.3872 66.6655L56.8774 46.7128C51.162 44.1247 45.2464 42.1122 39.1509 40.6836Z" fill="url(#paint15_linear_247_1302)"/>
<path d="M62.6679 28.9077L66.9903 15.619C61.2756 13.0284 55.3596 11.0164 49.2639 9.58984L44.9414 22.8783C51.0371 24.3069 56.9525 26.3194 62.6679 28.9077Z" fill="url(#paint16_linear_247_1302)"/>
<path d="M62.9541 77.9984C62.9541 77.9982 63.935 74.9826 65.4158 70.4303L33.2292 7.21017C32.5344 7.16395 31.8383 7.12212 31.1394 7.08984C25.6045 24.1053 20.0701 41.1208 14.5352 58.1363C31.1357 58.9046 46.6701 63.612 60.778 72.1411C62.7766 73.349 63.6766 75.7779 62.9541 77.9984Z" fill="url(#paint17_linear_247_1302)"/>
<path d="M26.818 20.3789C33.0141 20.6658 39.0616 21.5025 44.9419 22.8807L49.2644 9.59223C43.384 8.21443 37.3363 7.37692 31.1396 7.08984L14.5352 58.1371C20.7321 58.4241 26.7801 59.2597 32.6605 60.6375L39.1512 40.6827C33.2709 39.3045 27.2234 38.468 21.0273 38.1809C22.9575 32.2468 24.8878 26.3129 26.818 20.3789Z" fill="url(#paint18_linear_247_1302)"/>
<path d="M73.9687 44.1359C75.7333 38.7107 77.3008 33.8914 78.2853 30.8655C79.788 26.2452 77.7923 21.206 73.5298 18.8801C71.3806 17.7061 69.2006 16.6206 66.9904 15.6211L62.668 28.9098C64.8779 29.9107 67.0584 30.9956 69.2071 32.1684C73.465 34.4921 75.4604 39.522 73.9687 44.1359Z" fill="url(#paint19_linear_247_1302)"/>
<path d="M63.416 49.9696C61.2673 48.797 59.0868 47.7118 56.8769 46.7109L50.3867 66.6637C53.9292 68.2696 57.3944 70.0942 60.779 72.1406C61.7763 72.7452 62.5014 73.6531 62.8853 74.6892C63.2712 75.7262 63.3148 76.8872 62.9536 77.9978C62.9536 77.9978 65.2785 70.8509 68.1777 61.937C69.6695 57.3231 67.6741 52.2932 63.416 49.9696Z" fill="url(#paint20_linear_247_1302)"/>
<path d="M44.9391 22.8789L39.1484 40.6809C45.2441 42.1095 51.1597 44.122 56.8749 46.7101L62.6656 28.9081C56.9502 26.32 51.0348 24.3075 44.9391 22.8789Z" fill="url(#paint21_linear_247_1302)"/>
<path opacity="0.1" d="M40.7565 22C36.2028 21.1393 31.553 20.5979 26.8164 20.3781L31.1389 7.08984C31.5271 7.10777 31.912 7.1277 32.2987 7.15021C32.6087 7.17113 32.9193 7.18985 33.2293 7.21077L33.2309 7.21376L40.7565 22Z" fill="url(#paint22_linear_247_1302)"/>
<path opacity="0.2" d="M65.4146 70.4307L62.9534 77.9971C63.2467 77.0958 63.273 76.1593 63.0662 75.2835C63.0349 75.1496 62.9961 75.0162 62.954 74.8839C62.9335 74.8205 62.9112 74.754 62.8861 74.6892C62.7423 74.3 62.5506 73.9312 62.3143 73.589C62.236 73.4734 62.1516 73.361 62.0625 73.2547C62.0179 73.2015 61.9735 73.1485 61.9265 73.0947C61.7866 72.9385 61.6368 72.7893 61.474 72.6488C61.2613 72.4636 61.0284 72.2926 60.7788 72.142C60.312 71.8587 59.843 71.5826 59.3733 71.3089C58.8438 70.9975 58.3108 70.6955 57.7751 70.3951C57.7114 70.3614 57.646 70.3248 57.5807 70.2881C57.2145 70.0839 56.8476 69.8821 56.4788 69.6851C56.2728 69.5743 56.0668 69.4635 55.8577 69.3544C55.6517 69.2436 55.4449 69.1352 55.2357 69.0261C55.0289 68.9177 54.8191 68.8107 54.6092 68.7039C54.4747 68.6346 54.3356 68.5633 54.1988 68.4931C54.0286 68.4069 53.8559 68.3198 53.6826 68.2352C53.4898 68.1389 53.2947 68.0419 53.0991 67.9473C52.7664 67.7825 52.4307 67.6192 52.0956 67.4612C51.6745 67.2598 51.2515 67.0629 50.8282 66.8685C50.6806 66.8 50.5351 66.7318 50.3867 66.6657L55.4977 50.9531L65.4146 70.4307Z" fill="url(#paint23_linear_247_1302)"/>
<path opacity="0.1" d="M52.3694 44.8086C48.0683 43.1161 43.6564 41.7403 39.1484 40.6832L43.4836 27.3555L52.3694 44.8086Z" fill="url(#paint24_linear_247_1302)"/>
<path d="M73.9626 44.1542C73.9646 44.1485 73.966 44.1425 73.9679 44.1367C72.1062 49.8601 70.0252 56.258 68.1772 61.9387C68.1755 61.9445 68.1739 61.9505 68.1719 61.9562C70.5163 54.7495 72.7109 48.0022 73.9626 44.1542Z" fill="url(#paint25_linear_247_1302)"/>
<path d="M69.2048 32.1688C67.0561 30.9962 64.8756 29.911 62.6657 28.9102L56.875 46.7121C59.0849 47.713 61.2654 48.798 63.4142 49.9708C67.6723 52.2947 69.6676 57.3243 68.1759 61.9384C70.0236 56.2577 72.1047 49.8598 73.9666 44.1364C75.4581 39.5223 73.4627 34.4925 69.2048 32.1688Z" fill="url(#paint26_linear_247_1302)"/>
<path d="M1.26896 98.9171C0.304344 98.6033 -0.223187 97.5672 0.090582 96.6024L30.1256 4.26507C30.4394 3.30026 31.4757 2.77292 32.4403 3.08669C33.4049 3.40046 33.9325 4.4366 33.6187 5.40142L3.58368 97.7385C3.26991 98.7031 2.23358 99.2309 1.26896 98.9171Z" fill="url(#paint27_linear_247_1302)"/>
</g>
<defs>
<linearGradient id="paint0_linear_247_1302" x1="73.8406" y1="58.2222" x2="96.9101" y2="65.726" gradientUnits="userSpaceOnUse">
<stop stop-color="#E2EDF2"/>
<stop offset="1" stop-color="#9FC7E2"/>
</linearGradient>
<linearGradient id="paint1_linear_247_1302" x1="68.5258" y1="73.1541" x2="63.0919" y2="71.3882" gradientUnits="userSpaceOnUse">
<stop stop-color="#E2EDF2"/>
<stop offset="1" stop-color="#9FC7E2"/>
</linearGradient>
<linearGradient id="paint2_linear_247_1302" x1="79.2179" y1="40.2774" x2="73.784" y2="38.5094" gradientUnits="userSpaceOnUse">
<stop stop-color="#E2EDF2"/>
<stop offset="1" stop-color="#9FC7E2"/>
</linearGradient>
<linearGradient id="paint3_linear_247_1302" x1="58.0599" y1="51.5604" x2="92.6685" y2="54.0707" gradientUnits="userSpaceOnUse">
<stop stop-color="#805FFF"/>
<stop offset="1" stop-color="#24F3DF"/>
</linearGradient>
<linearGradient id="paint4_linear_247_1302" x1="73.4598" y1="57.9855" x2="68.0259" y2="56.2175" gradientUnits="userSpaceOnUse">
<stop stop-color="#E2EDF2"/>
<stop offset="1" stop-color="#9FC7E2"/>
</linearGradient>
<linearGradient id="paint5_linear_247_1302" x1="72.8137" y1="80.0628" x2="52.6862" y2="40.5356" gradientUnits="userSpaceOnUse">
<stop stop-color="#9FC7E2" stop-opacity="0"/>
<stop offset="1" stop-color="#9FC7E2"/>
</linearGradient>
<linearGradient id="paint6_linear_247_1302" x1="65.2937" y1="52.4144" x2="80.3213" y2="57.3023" gradientUnits="userSpaceOnUse">
<stop stop-color="#654E48"/>
<stop offset="1" stop-color="#503837"/>
</linearGradient>
<linearGradient id="paint7_linear_247_1302" x1="68.2977" y1="19.3299" x2="106.791" y2="22.729" gradientUnits="userSpaceOnUse">
<stop stop-color="#805FFF"/>
<stop offset="1" stop-color="#24F3DF"/>
</linearGradient>
<linearGradient id="paint8_linear_247_1302" x1="24.0834" y1="2.42819" x2="89.2365" y2="7.42646" gradientUnits="userSpaceOnUse">
<stop stop-color="#805FFF"/>
<stop offset="1" stop-color="#24F3DF"/>
</linearGradient>
<linearGradient id="paint9_linear_247_1302" x1="89.6763" y1="62.2551" x2="74.1306" y2="31.7218" gradientUnits="userSpaceOnUse">
<stop stop-color="#3E2E28" stop-opacity="0"/>
<stop offset="1" stop-color="#503837"/>
</linearGradient>
<linearGradient id="paint10_linear_247_1302" x1="48.8164" y1="82.2942" x2="55.6562" y2="61.2607" gradientUnits="userSpaceOnUse">
<stop stop-color="#E2EDF2"/>
<stop offset="1" stop-color="#9FC7E2"/>
</linearGradient>
<linearGradient id="paint11_linear_247_1302" x1="50.5828" y1="41.8195" x2="74.2743" y2="49.5253" gradientUnits="userSpaceOnUse">
<stop stop-color="#E2EDF2"/>
<stop offset="1" stop-color="#9FC7E2"/>
</linearGradient>
<linearGradient id="paint12_linear_247_1302" x1="50.9371" y1="40.7248" x2="74.6286" y2="48.4306" gradientUnits="userSpaceOnUse">
<stop stop-color="#E2EDF2"/>
<stop offset="1" stop-color="#9FC7E2"/>
</linearGradient>
<linearGradient id="paint13_linear_247_1302" x1="52.031" y1="34.9828" x2="60.5308" y2="37.7468" gradientUnits="userSpaceOnUse">
<stop stop-color="#E2EDF2"/>
<stop offset="1" stop-color="#9FC7E2"/>
</linearGradient>
<linearGradient id="paint14_linear_247_1302" x1="50.6421" y1="36.2757" x2="70.1157" y2="42.6095" gradientUnits="userSpaceOnUse">
<stop stop-color="#E2EDF2"/>
<stop offset="1" stop-color="#9FC7E2"/>
</linearGradient>
<linearGradient id="paint15_linear_247_1302" x1="45.0155" y1="53.5769" x2="64.489" y2="59.9108" gradientUnits="userSpaceOnUse">
<stop stop-color="#E2EDF2"/>
<stop offset="1" stop-color="#9FC7E2"/>
</linearGradient>
<linearGradient id="paint16_linear_247_1302" x1="56.2111" y1="19.1507" x2="75.6847" y2="25.4845" gradientUnits="userSpaceOnUse">
<stop stop-color="#E2EDF2"/>
<stop offset="1" stop-color="#9FC7E2"/>
</linearGradient>
<linearGradient id="paint17_linear_247_1302" x1="37.5799" y1="59.5789" x2="12.3432" y2="10.0119" gradientUnits="userSpaceOnUse">
<stop stop-color="#9FC7E2" stop-opacity="0"/>
<stop offset="1" stop-color="#9FC7E2"/>
</linearGradient>
<linearGradient id="paint18_linear_247_1302" x1="-6.5328" y1="-40.9009" x2="57.5339" y2="-37.7284" gradientUnits="userSpaceOnUse">
<stop stop-color="#805FFF"/>
<stop offset="1" stop-color="#24F3DF"/>
</linearGradient>
<linearGradient id="paint19_linear_247_1302" x1="52.8924" y1="-9.9346" x2="82.6369" y2="-8.65117" gradientUnits="userSpaceOnUse">
<stop stop-color="#805FFF"/>
<stop offset="1" stop-color="#24F3DF"/>
</linearGradient>
<linearGradient id="paint20_linear_247_1302" x1="39.296" y1="18.6708" x2="73.0379" y2="20.1762" gradientUnits="userSpaceOnUse">
<stop stop-color="#805FFF"/>
<stop offset="1" stop-color="#24F3DF"/>
</linearGradient>
<linearGradient id="paint21_linear_247_1302" x1="24.8821" y1="1.5208" x2="68.1262" y2="4.77909" gradientUnits="userSpaceOnUse">
<stop stop-color="#805FFF"/>
<stop offset="1" stop-color="#24F3DF"/>
</linearGradient>
<linearGradient id="paint22_linear_247_1302" x1="63.224" y1="79.0048" x2="27.0267" y2="7.91357" gradientUnits="userSpaceOnUse">
<stop stop-color="#3E2E28" stop-opacity="0"/>
<stop offset="1" stop-color="#503837"/>
</linearGradient>
<linearGradient id="paint23_linear_247_1302" x1="63.2235" y1="79.0053" x2="27.0263" y2="7.91368" gradientUnits="userSpaceOnUse">
<stop stop-color="#3E2E28" stop-opacity="0"/>
<stop offset="1" stop-color="#503837"/>
</linearGradient>
<linearGradient id="paint24_linear_247_1302" x1="64.0139" y1="78.6008" x2="27.8167" y2="7.51009" gradientUnits="userSpaceOnUse">
<stop stop-color="#3E2E28" stop-opacity="0"/>
<stop offset="1" stop-color="#503837"/>
</linearGradient>
<linearGradient id="paint25_linear_247_1302" x1="69.5142" y1="52.542" x2="72.6322" y2="53.556" gradientUnits="userSpaceOnUse">
<stop stop-color="#E2EDF2"/>
<stop offset="1" stop-color="#9FC7E2"/>
</linearGradient>
<linearGradient id="paint26_linear_247_1302" x1="49.363" y1="40.2031" x2="68.8366" y2="46.5369" gradientUnits="userSpaceOnUse">
<stop stop-color="#E2EDF2"/>
<stop offset="1" stop-color="#9FC7E2"/>
</linearGradient>
<linearGradient id="paint27_linear_247_1302" x1="15.8137" y1="50.6646" x2="18.7476" y2="51.6186" gradientUnits="userSpaceOnUse">
<stop stop-color="#FFE7A5"/>
<stop offset="0.966" stop-color="#FFBF5C"/>
</linearGradient>
<clipPath id="clip0_247_1302">
<rect width="102" height="102" fill="white"/>
</clipPath>
</defs>
</svg>
