<svg width="30" height="30" viewBox="0 0 30 30" fill="none" xmlns="http://www.w3.org/2000/svg">
<g clip-path="url(#clip0_247_3655)">
<path d="M29.3819 7.79845C29.0361 6.51328 28.0228 5.50026 26.7379 5.15419C24.3902 4.51172 14.9997 4.51172 14.9997 4.51172C14.9997 4.51172 5.60941 4.51172 3.26178 5.1297C2.00156 5.47554 0.963588 6.51351 0.61775 7.79845C0 10.1459 0 15.0141 0 15.0141C0 15.0141 0 19.9069 0.61775 22.2298C0.963817 23.5148 1.97684 24.528 3.26201 24.8741C5.63413 25.5166 14.9999 25.5166 14.9999 25.5166C14.9999 25.5166 24.3902 25.5166 26.7379 24.8986C28.023 24.5528 29.0361 23.5395 29.3821 22.2546C29.9999 19.9069 29.9999 15.0389 29.9999 15.0389C29.9999 15.0389 30.0246 10.1459 29.3819 7.79845Z" fill="#FF0000"/>
<path d="M12.0098 19.5117L19.8186 15.0141L12.0098 10.5166V19.5117Z" fill="white"/>
</g>
<defs>
<clipPath id="clip0_247_3655">
<rect width="30" height="30" fill="white"/>
</clipPath>
</defs>
</svg>
