<svg width="211" height="153" viewBox="0 0 211 153" fill="none" xmlns="http://www.w3.org/2000/svg">
<mask id="path-1-inside-1_1_107" fill="white">
<path fill-rule="evenodd" clip-rule="evenodd" d="M53.1996 37.6968C56.8014 27.6012 67.9053 22.3367 78.001 25.9383C88.0967 29.5399 93.3613 40.6437 89.7599 50.7394L53.1996 37.6968ZM48.2888 35.9449C52.8581 23.1371 66.945 16.4584 79.7529 21.0275C92.5608 25.5966 99.2397 39.6834 94.6707 52.4914L101.219 54.8275C107.783 57.1691 111.344 64.2591 109.303 70.9224L93.2789 123.233C91.1023 130.339 83.4351 134.19 76.4358 131.693L12.2773 108.804C5.27805 106.308 1.77938 98.4733 4.59156 91.5947L25.2952 40.9531C27.9324 34.5026 35.1769 31.2673 41.7405 33.6088L48.2888 35.9449Z"/>
</mask>
<path fill-rule="evenodd" clip-rule="evenodd" d="M53.1996 37.6968C56.8014 27.6012 67.9053 22.3367 78.001 25.9383C88.0967 29.5399 93.3613 40.6437 89.7599 50.7394L53.1996 37.6968ZM48.2888 35.9449C52.8581 23.1371 66.945 16.4584 79.7529 21.0275C92.5608 25.5966 99.2397 39.6834 94.6707 52.4914L101.219 54.8275C107.783 57.1691 111.344 64.2591 109.303 70.9224L93.2789 123.233C91.1023 130.339 83.4351 134.19 76.4358 131.693L12.2773 108.804C5.27805 106.308 1.77938 98.4733 4.59156 91.5947L25.2952 40.9531C27.9324 34.5026 35.1769 31.2673 41.7405 33.6088L48.2888 35.9449Z" fill="url(#paint0_linear_1_107)"/>
<path d="M53.1996 37.6968L52.7086 37.5216L52.5334 38.0127L53.0244 38.1879L53.1996 37.6968ZM89.7599 50.7394L89.5847 51.2305L90.0758 51.4057L90.251 50.9146L89.7599 50.7394ZM48.2888 35.9449L48.1136 36.436L48.6047 36.6112L48.7799 36.1201L48.2888 35.9449ZM94.6707 52.4914L94.1797 52.3162L94.0045 52.8072L94.4956 52.9824L94.6707 52.4914ZM101.219 54.8275L101.395 54.3365L101.219 54.8275ZM109.303 70.9224L109.801 71.0751L109.303 70.9224ZM93.2789 123.233L92.7803 123.081L93.2789 123.233ZM4.59156 91.5947L5.07418 91.792L4.59156 91.5947ZM25.2952 40.9531L24.8126 40.7558L25.2952 40.9531ZM41.7405 33.6088L41.9157 33.1177L41.7405 33.6088ZM78.1762 25.4472C67.8092 21.7489 56.4071 27.1547 52.7086 37.5216L53.6907 37.872C57.1957 28.0476 68.0013 22.9246 77.8258 26.4294L78.1762 25.4472ZM90.251 50.9146C93.9492 40.5477 88.5431 29.1456 78.1762 25.4472L77.8258 26.4294C87.6503 29.9342 92.7735 40.7397 89.2688 50.5643L90.251 50.9146ZM53.0244 38.1879L89.5847 51.2305L89.9351 50.2484L53.3748 37.2057L53.0244 38.1879ZM48.7799 36.1201C53.2524 23.5835 67.041 17.0462 79.5777 21.5186L79.9281 20.5364C66.849 15.8705 52.4638 22.6907 47.7977 35.7697L48.7799 36.1201ZM79.5777 21.5186C92.1144 25.991 98.6518 39.7795 94.1797 52.3162L95.1618 52.6665C99.8275 39.5874 93.0072 25.2023 79.9281 20.5364L79.5777 21.5186ZM94.4956 52.9824L101.044 55.3186L101.395 54.3365L94.8459 52.0003L94.4956 52.9824ZM101.044 55.3186C107.345 57.5665 110.764 64.373 108.804 70.7696L109.801 71.0751C111.924 64.1453 108.221 56.7717 101.395 54.3365L101.044 55.3186ZM108.804 70.7696L92.7803 123.081L93.7774 123.386L109.801 71.0751L108.804 70.7696ZM92.7803 123.081C90.6908 129.902 83.3303 133.599 76.611 131.202L76.2607 132.184C83.5399 134.781 91.5138 130.776 93.7774 123.386L92.7803 123.081ZM76.611 131.202L12.4525 108.313L12.1021 109.296L76.2607 132.184L76.611 131.202ZM12.4525 108.313C5.73321 105.916 2.37449 98.3955 5.07418 91.792L4.10894 91.3974C1.18427 98.5512 4.82289 106.699 12.1021 109.296L12.4525 108.313ZM5.07418 91.792L25.7779 41.1504L24.8126 40.7558L4.10894 91.3974L5.07418 91.792ZM25.7779 41.1504C28.3095 34.9579 35.2642 31.852 41.5653 34.0999L41.9157 33.1177C35.0895 30.6825 27.5553 34.0473 24.8126 40.7558L25.7779 41.1504ZM41.5653 34.0999L48.1136 36.436L48.464 35.4538L41.9157 33.1177L41.5653 34.0999Z" fill="white" fill-opacity="0.2" mask="url(#path-1-inside-1_1_107)"/>
<path d="M170.237 35.8276C170.237 18.8358 157.412 5.06116 141.592 5.06116C125.772 5.06116 112.948 18.8358 112.948 35.8276" stroke="url(#paint1_linear_1_107)" stroke-width="2.26131"/>
<g filter="url(#filter0_bi_1_107)">
<path d="M173.419 35.8273C173.419 18.2496 159.169 4 141.591 4C124.014 4 109.764 18.2496 109.764 35.8273" stroke="black" stroke-opacity="0.1" stroke-width="7.53769"/>
</g>
<g filter="url(#filter1_biiii_1_107)">
<path d="M77.1193 53.8162C77.5767 43.7519 85.8694 35.8276 95.9441 35.8276H187.239C197.314 35.8276 205.606 43.7519 206.064 53.8162L209.655 132.828C210.143 143.56 201.574 152.528 190.831 152.528H92.3526C81.6094 152.528 73.04 143.56 73.5278 132.828L77.1193 53.8162Z" fill="black" fill-opacity="0.2"/>
<path d="M77.4958 53.8333C77.9441 43.9703 86.0709 36.2045 95.9441 36.2045H187.239C197.112 36.2045 205.239 43.9703 205.687 53.8333L209.279 132.845C209.757 143.363 201.359 152.151 190.831 152.151H92.3526C81.8242 152.151 73.4263 143.363 73.9043 132.845L77.4958 53.8333Z" stroke="white" stroke-opacity="0.2" stroke-width="0.753769"/>
</g>
<circle cx="117.721" cy="70.3061" r="7.95683" fill="url(#paint2_linear_1_107)"/>
<circle cx="166.524" cy="70.3061" r="7.95683" fill="url(#paint3_linear_1_107)"/>
<defs>
<filter id="filter0_bi_1_107" x="99.9651" y="-5.79895" width="83.2527" height="47.6565" filterUnits="userSpaceOnUse" color-interpolation-filters="sRGB">
<feFlood flood-opacity="0" result="BackgroundImageFix"/>
<feGaussianBlur in="BackgroundImage" stdDeviation="3.01508"/>
<feComposite in2="SourceAlpha" operator="in" result="effect1_backgroundBlur_1_107"/>
<feBlend mode="normal" in="SourceGraphic" in2="effect1_backgroundBlur_1_107" result="shape"/>
<feColorMatrix in="SourceAlpha" type="matrix" values="0 0 0 0 0 0 0 0 0 0 0 0 0 0 0 0 0 0 127 0" result="hardAlpha"/>
<feOffset dy="1.50754"/>
<feGaussianBlur stdDeviation="0.753769"/>
<feComposite in2="hardAlpha" operator="arithmetic" k2="-1" k3="1"/>
<feColorMatrix type="matrix" values="0 0 0 0 1 0 0 0 0 1 0 0 0 0 1 0 0 0 0.3 0"/>
<feBlend mode="normal" in2="shape" result="effect2_innerShadow_1_107"/>
</filter>
<filter id="filter1_biiii_1_107" x="62.9552" y="25.2749" width="157.273" height="137.806" filterUnits="userSpaceOnUse" color-interpolation-filters="sRGB">
<feFlood flood-opacity="0" result="BackgroundImageFix"/>
<feGaussianBlur in="BackgroundImage" stdDeviation="5.27638"/>
<feComposite in2="SourceAlpha" operator="in" result="effect1_backgroundBlur_1_107"/>
<feBlend mode="normal" in="SourceGraphic" in2="effect1_backgroundBlur_1_107" result="shape"/>
<feColorMatrix in="SourceAlpha" type="matrix" values="0 0 0 0 0 0 0 0 0 0 0 0 0 0 0 0 0 0 127 0" result="hardAlpha"/>
<feOffset/>
<feGaussianBlur stdDeviation="9.42211"/>
<feComposite in2="hardAlpha" operator="arithmetic" k2="-1" k3="1"/>
<feColorMatrix type="matrix" values="0 0 0 0 1 0 0 0 0 1 0 0 0 0 1 0 0 0 0.15 0"/>
<feBlend mode="normal" in2="shape" result="effect2_innerShadow_1_107"/>
<feColorMatrix in="SourceAlpha" type="matrix" values="0 0 0 0 0 0 0 0 0 0 0 0 0 0 0 0 0 0 127 0" result="hardAlpha"/>
<feOffset dy="-7.53769"/>
<feGaussianBlur stdDeviation="9.42211"/>
<feComposite in2="hardAlpha" operator="arithmetic" k2="-1" k3="1"/>
<feColorMatrix type="matrix" values="0 0 0 0 1 0 0 0 0 1 0 0 0 0 1 0 0 0 0.15 0"/>
<feBlend mode="normal" in2="effect2_innerShadow_1_107" result="effect3_innerShadow_1_107"/>
<feColorMatrix in="SourceAlpha" type="matrix" values="0 0 0 0 0 0 0 0 0 0 0 0 0 0 0 0 0 0 127 0" result="hardAlpha"/>
<feOffset dy="7.53769"/>
<feGaussianBlur stdDeviation="9.42211"/>
<feComposite in2="hardAlpha" operator="arithmetic" k2="-1" k3="1"/>
<feColorMatrix type="matrix" values="0 0 0 0 1 0 0 0 0 1 0 0 0 0 1 0 0 0 0.1 0"/>
<feBlend mode="normal" in2="effect3_innerShadow_1_107" result="effect4_innerShadow_1_107"/>
<feColorMatrix in="SourceAlpha" type="matrix" values="0 0 0 0 0 0 0 0 0 0 0 0 0 0 0 0 0 0 127 0" result="hardAlpha"/>
<feOffset dy="6.78392"/>
<feGaussianBlur stdDeviation="9.42211"/>
<feComposite in2="hardAlpha" operator="arithmetic" k2="-1" k3="1"/>
<feColorMatrix type="matrix" values="0 0 0 0 1 0 0 0 0 1 0 0 0 0 1 0 0 0 0.15 0"/>
<feBlend mode="normal" in2="effect4_innerShadow_1_107" result="effect5_innerShadow_1_107"/>
</filter>
<linearGradient id="paint0_linear_1_107" x1="54.1845" y1="28.1565" x2="61.4103" y2="132.846" gradientUnits="userSpaceOnUse">
<stop stop-color="#D360E5"/>
<stop offset="1" stop-color="#3849FB"/>
</linearGradient>
<linearGradient id="paint1_linear_1_107" x1="118.783" y1="8.24389" x2="140.34" y2="52.2647" gradientUnits="userSpaceOnUse">
<stop stop-color="#D360E5"/>
<stop offset="1" stop-color="#3849FB"/>
</linearGradient>
<linearGradient id="paint2_linear_1_107" x1="111.71" y1="64.2942" x2="122.849" y2="76.6715" gradientUnits="userSpaceOnUse">
<stop stop-color="white" stop-opacity="0.7"/>
<stop offset="1" stop-color="white" stop-opacity="0.2"/>
</linearGradient>
<linearGradient id="paint3_linear_1_107" x1="160.512" y1="64.2942" x2="171.652" y2="76.6715" gradientUnits="userSpaceOnUse">
<stop stop-color="white" stop-opacity="0.7"/>
<stop offset="1" stop-color="white" stop-opacity="0.2"/>
</linearGradient>
</defs>
</svg>
