<svg width="22" height="26" viewBox="0 0 22 26" fill="none" xmlns="http://www.w3.org/2000/svg">
<path d="M11 0C8.08369 0.0031214 5.28779 1.05557 3.22564 2.92648C1.16348 4.79739 0.00345217 7.33399 1.17029e-05 9.97985C-0.00348119 12.142 0.774992 14.2456 2.21601 15.9678C2.21601 15.9678 2.51601 16.3261 2.56501 16.3778L11 25.4032L19.439 16.3733C19.483 16.3252 19.784 15.9678 19.784 15.9678L19.785 15.965C21.2253 14.2436 22.0034 12.1411 22 9.97985C21.9966 7.33399 20.8365 4.79739 18.7744 2.92648C16.7122 1.05557 13.9163 0.0031214 11 0ZM11 13.6089C10.2089 13.6089 9.43553 13.396 8.77773 12.9973C8.11993 12.5985 7.60724 12.0317 7.30449 11.3686C7.00174 10.7055 6.92253 9.97582 7.07687 9.27186C7.23121 8.56789 7.61217 7.92126 8.17158 7.41373C8.73099 6.9062 9.44373 6.56057 10.2197 6.42054C10.9956 6.28052 11.7998 6.35238 12.5307 6.62706C13.2616 6.90173 13.8864 7.36687 14.3259 7.96366C14.7654 8.56046 15 9.26209 15 9.97985C14.9987 10.942 14.5768 11.8643 13.827 12.5446C13.0771 13.225 12.0605 13.6077 11 13.6089Z" fill="#D9D9D9"/>
</svg>
