<svg width="44" height="51" viewBox="0 0 44 51" fill="none" xmlns="http://www.w3.org/2000/svg">
<path d="M22 51C23.496 51 29.344 46.8102 34.004 41.6121C40.216 34.6878 44 26.9594 44 19.6154C44 7.99131 34.26 0 22 0C9.74 0 0 7.99131 0 19.6154C0 26.9908 3.784 34.7192 9.996 41.6356C14.652 46.8219 20.5 51 22 51ZM22 24.3231C23.0609 24.3231 24.0783 23.9098 24.8284 23.174C25.5786 22.4383 26 21.4405 26 20.4C26 19.3595 25.5786 18.3617 24.8284 17.626C24.0783 16.8902 23.0609 16.4769 22 16.4769C20.9391 16.4769 19.9217 16.8902 19.1716 17.626C18.4214 18.3617 18 19.3595 18 20.4C18 21.4405 18.4214 22.4383 19.1716 23.174C19.9217 23.9098 20.9391 24.3231 22 24.3231ZM22 32.9538C18.6052 32.9538 15.3495 31.6312 12.949 29.2769C10.5486 26.9226 9.2 23.7295 9.2 20.4C9.2 17.0705 10.5486 13.8774 12.949 11.5231C15.3495 9.16879 18.6052 7.84615 22 7.84615C25.3948 7.84615 28.6505 9.16879 31.051 11.5231C33.4514 13.8774 34.8 17.0705 34.8 20.4C34.8 23.7295 33.4514 26.9226 31.051 29.2769C28.6505 31.6312 25.3948 32.9538 22 32.9538Z" fill="white"/>
</svg>
