<svg width="51" height="51" viewBox="0 0 51 51" fill="none" xmlns="http://www.w3.org/2000/svg">
<rect width="51" height="51" rx="10" transform="matrix(-1 0 0 1 51 0)" fill="#009688"/>
<g clip-path="url(#clip0_247_1383)">
<path d="M30.0001 38C30.1317 38.0008 30.2621 37.9755 30.384 37.9258C30.5058 37.876 30.6166 37.8027 30.7101 37.71C30.8038 37.617 30.8782 37.5064 30.929 37.3846C30.9797 37.2627 31.0059 37.132 31.0059 37C31.0059 36.868 30.9797 36.7373 30.929 36.6154C30.8782 36.4936 30.8038 36.383 30.7101 36.29L22.5401 28.12C21.9783 27.5575 21.6627 26.795 21.6627 26C21.6627 25.205 21.9783 24.4425 22.5401 23.88L30.7101 15.71C30.8984 15.5217 31.0042 15.2663 31.0042 15C31.0042 14.7337 30.8984 14.4783 30.7101 14.29C30.5218 14.1017 30.2664 13.9959 30.0001 13.9959C29.7338 13.9959 29.4784 14.1017 29.2901 14.29L21.1201 22.46C20.6544 22.9245 20.285 23.4762 20.0329 24.0837C19.7809 24.6911 19.6511 25.3423 19.6511 26C19.6511 26.6577 19.7809 27.3089 20.0329 27.9163C20.285 28.5238 20.6544 29.0755 21.1201 29.54L29.2901 37.71C29.3835 37.8027 29.4943 37.876 29.6162 37.9258C29.738 37.9755 29.8685 38.0008 30.0001 38Z" fill="white"/>
</g>
<defs>
<clipPath id="clip0_247_1383">
<rect width="24" height="24" fill="white" transform="matrix(-1 0 0 1 37 14)"/>
</clipPath>
</defs>
</svg>
