<svg width="129" height="56" viewBox="0 0 129 56" fill="none" xmlns="http://www.w3.org/2000/svg">
<path d="M29.4651 11.183C29.4651 10.8447 29.6333 10.6586 29.9699 10.6586H30.4074C30.7271 10.6586 30.9122 10.8447 30.9122 11.183V24.3117H37.2899C37.6264 24.3117 37.8115 24.4978 37.8115 24.8362V25.09C37.8115 25.4284 37.6264 25.6145 37.2899 25.6145H29.9531C29.6165 25.6145 29.4482 25.4284 29.4482 25.09V11.183H29.4651Z" fill="white"/>
<path d="M39.4775 11.9444V11.183C39.4775 10.8447 39.6458 10.6586 39.9824 10.6586H40.504C40.8406 10.6586 41.0088 10.8447 41.0088 11.183V11.9444C41.0088 12.2827 40.8406 12.4519 40.504 12.4519H39.9824C39.6458 12.4688 39.4775 12.2997 39.4775 11.9444ZM39.5112 15.4465C39.5112 15.1081 39.6963 14.922 40.0329 14.922H40.4367C40.7733 14.922 40.9415 15.1081 40.9415 15.4465V25.1069C40.9415 25.4453 40.7733 25.6314 40.4367 25.6314H40.0329C39.6963 25.6314 39.5112 25.4453 39.5112 25.1069V15.4465Z" fill="white"/>
<path d="M44.5761 16.2078H43.6843C43.3477 16.2078 43.1794 16.0386 43.1794 15.7003V15.5311C43.1794 15.1927 43.3477 15.0066 43.6843 15.0066H44.593V12.4858C44.593 12.1474 44.7781 11.9613 45.1146 11.9613H45.5016C45.8382 11.9613 46.0065 12.1474 46.0065 12.4858V15.0066H48.1604C48.4969 15.0066 48.6821 15.1927 48.6821 15.5311V15.7003C48.6821 16.0386 48.4969 16.2078 48.1604 16.2078H46.0065V21.571C46.0065 24.0411 47.5041 24.3456 48.3455 24.3794C48.7662 24.4302 48.9176 24.5486 48.9176 24.9039V25.1746C48.9176 25.513 48.7494 25.6821 48.3287 25.6821C45.9896 25.6821 44.5761 24.261 44.5761 21.7402V16.2078Z" fill="white"/>
<path d="M50.7014 19.7268V19.4561C50.7014 19.1177 50.8697 18.9316 51.2062 18.9316H56.1872C56.5237 18.9316 56.692 19.1177 56.692 19.4561V19.7268C56.692 20.0652 56.5237 20.2344 56.1872 20.2344H51.2062C50.8697 20.2513 50.7014 20.0652 50.7014 19.7268Z" fill="white"/>
<path d="M66.6709 10.4048C69.3128 10.4048 70.9955 11.4706 71.6686 11.9951C71.9211 12.2151 71.9211 12.4688 71.7528 12.7395L71.5677 13.0102C71.3826 13.264 71.1302 13.2809 70.8441 13.0948C70.2046 12.6549 68.7743 11.7752 66.7045 11.7752C63.0866 11.7752 60.6971 14.499 60.6971 18.0181C60.6971 21.5709 63.0698 24.4978 66.755 24.4978C68.9762 24.4978 70.5244 23.4151 71.1806 22.8737C71.4331 22.6537 71.6855 22.6537 71.9042 22.9413L72.0893 23.1782C72.3081 23.432 72.2744 23.6858 72.0388 23.9226C71.3321 24.5148 69.4979 25.8851 66.7045 25.8851C62.1611 25.8851 59.1658 22.4169 59.1658 18.035C59.1826 13.7039 62.2789 10.4048 66.6709 10.4048Z" fill="white"/>
<path d="M79.4092 14.6514C82.5223 14.6514 85.0464 17.0369 85.0464 20.2175C85.0464 23.449 82.5223 25.8852 79.426 25.8852C76.313 25.8852 73.7888 23.449 73.7888 20.2175C73.7888 17.0538 76.3129 14.6514 79.4092 14.6514ZM79.426 24.5994C81.6978 24.5994 83.5656 22.7215 83.5656 20.2344C83.5656 17.7982 81.6978 15.971 79.426 15.971C77.1375 15.971 75.2696 17.7982 75.2696 20.2344C75.2696 22.7215 77.1375 24.5994 79.426 24.5994Z" fill="white"/>
<path d="M87.4866 15.4465C87.4866 15.1082 87.6717 14.9221 88.0082 14.9221H88.3953C88.715 14.9221 88.9001 15.1082 88.9001 15.4465V16.6816C88.9001 17.1045 88.816 17.4429 88.816 17.4429H88.8664C89.2703 16.4616 90.667 14.6514 93.1743 14.6514C95.8162 14.6514 96.7586 16.1571 96.7586 18.8133V25.107C96.7586 25.4453 96.5735 25.6314 96.2369 25.6314H95.833C95.4965 25.6314 95.3282 25.4453 95.3282 25.107V19.2024C95.3282 17.5106 95.059 16.0218 92.9892 16.0218C90.7175 16.0218 88.9337 17.8997 88.9337 20.3867V25.09C88.9337 25.4284 88.7655 25.6145 88.4289 25.6145H88.0251C87.6885 25.6145 87.5034 25.4284 87.5034 25.09V15.4465H87.4866Z" fill="white"/>
<path d="M100.107 16.2078H99.2153C98.8787 16.2078 98.7104 16.0386 98.7104 15.7003V15.5311C98.7104 15.1927 98.8787 15.0066 99.2153 15.0066H100.124V12.4858C100.124 12.1474 100.309 11.9613 100.646 11.9613H101.033C101.369 11.9613 101.537 12.1474 101.537 12.4858V15.0066H103.691C104.028 15.0066 104.213 15.1927 104.213 15.5311V15.7003C104.213 16.0386 104.028 16.2078 103.691 16.2078H101.537V21.571C101.537 24.0411 103.035 24.3456 103.877 24.3794C104.297 24.4302 104.449 24.5486 104.449 24.9039V25.1746C104.449 25.513 104.28 25.6821 103.86 25.6821C101.521 25.6821 100.107 24.261 100.107 21.7402V16.2078Z" fill="white"/>
<path d="M106.367 15.4465C106.367 15.1081 106.552 14.922 106.889 14.922H107.276C107.595 14.922 107.78 15.1081 107.78 15.4465V16.9015C107.78 17.3752 107.696 17.7474 107.696 17.7474H107.747C108.252 16.1909 109.48 14.8544 111.18 14.8544C111.567 14.8544 111.735 15.0236 111.735 15.3619V15.751C111.735 16.0894 111.499 16.2755 111.146 16.2755C108.891 16.2755 107.814 18.8471 107.814 21.0973V25.1069C107.814 25.4453 107.646 25.6314 107.309 25.6314H106.905C106.569 25.6314 106.384 25.4453 106.384 25.1069V15.4465H106.367Z" fill="white"/>
<path d="M117.928 14.6514C121.041 14.6514 123.565 17.0369 123.565 20.2175C123.565 23.449 121.041 25.8852 117.944 25.8852C114.831 25.8852 112.307 23.449 112.307 20.2175C112.307 17.0538 114.831 14.6514 117.928 14.6514ZM117.944 24.5994C120.216 24.5994 122.084 22.7215 122.084 20.2344C122.084 17.7982 120.216 15.971 117.944 15.971C115.656 15.971 113.788 17.7982 113.788 20.2344C113.788 22.7215 115.656 24.5994 117.944 24.5994Z" fill="white"/>
<path d="M126.021 11.183C126.021 10.8447 126.19 10.6586 126.526 10.6586H126.93C127.267 10.6586 127.452 10.8447 127.452 11.183V22.8398C127.452 24.1764 128.091 24.3287 128.562 24.3963C128.815 24.4132 129 24.5486 129 24.8701V25.1915C129 25.5129 128.848 25.716 128.445 25.716C127.57 25.716 126.005 25.4453 126.005 23.0936V11.183H126.021Z" fill="white"/>
<path d="M31.4338 35.4271C33.0492 35.4271 33.5372 36.2223 33.5372 36.2223H33.5709C33.5709 36.2223 33.5541 36.07 33.5541 35.867V33.3461C33.5541 32.7878 33.857 32.4833 34.4123 32.4833H35.3883C35.9436 32.4833 36.2465 32.7878 36.2465 33.3461V42.8204C36.2465 43.3787 35.9436 43.6833 35.3883 43.6833H34.5805C34.0252 43.6833 33.7223 43.4126 33.7223 42.905V42.8035C33.7223 42.7697 33.7392 42.702 33.7392 42.702H33.7055C33.7055 42.702 33.0324 43.8694 31.3833 43.8694C29.1957 43.8694 27.7654 42.1437 27.7654 39.6398C27.7654 37.0851 29.2967 35.4271 31.4338 35.4271ZM32.0564 41.6361C32.8641 41.6361 33.6382 41.044 33.6382 39.6398C33.6382 38.6754 33.1165 37.7111 32.0564 37.7111C31.215 37.7111 30.4746 38.4047 30.4746 39.6398C30.4746 40.8579 31.1141 41.6361 32.0564 41.6361Z" fill="white"/>
<path d="M41.8837 35.4271C44.2732 35.4271 45.5857 37.119 45.5857 39.2845C45.5857 39.7075 45.2155 40.1812 44.677 40.1812H40.4533C40.6553 41.1625 41.463 41.6193 42.3212 41.6193C42.8597 41.6193 43.3813 41.4501 43.7852 41.2471C44.3068 41.0102 44.677 41.0779 44.9463 41.5685L45.165 41.9746C45.4174 42.4652 45.3333 42.8882 44.8621 43.1419C44.29 43.4634 43.3308 43.8694 42.1024 43.8694C39.2417 43.8694 37.6936 41.7885 37.6936 39.6398C37.7104 37.2712 39.2922 35.4271 41.8837 35.4271ZM42.927 38.6247C42.927 37.9649 42.5063 37.4235 41.8164 37.4235C41.0423 37.4235 40.6553 37.9818 40.5206 38.6247H42.927Z" fill="white"/>
<path d="M46.3936 36.6114C46.1916 36.0192 46.4609 35.6301 47.1003 35.6301H48.1436C48.6485 35.6301 48.9514 35.867 49.1028 36.3576L50.1461 39.9274C50.2976 40.4519 50.449 41.3147 50.449 41.3147H50.4827C50.4827 41.3147 50.6173 40.4519 50.7856 39.9274L51.812 36.3576C51.9467 35.867 52.2664 35.6301 52.7712 35.6301H53.8482C54.4708 35.6301 54.7569 36.0192 54.5549 36.6114L52.3842 42.9896C52.2327 43.4803 51.913 43.7002 51.425 43.7002H49.6076C49.1028 43.7002 48.7999 43.4803 48.6485 42.9896L46.3936 36.6114Z" fill="white"/>
<path d="M55.8169 36.476C55.8169 35.9177 56.1198 35.6132 56.6751 35.6132H57.6511C58.2064 35.6132 58.5093 35.9177 58.5093 36.476V42.8204C58.5093 43.3787 58.2064 43.6833 57.6511 43.6833H56.6751C56.1198 43.6833 55.8169 43.3787 55.8169 42.8204V36.476ZM55.8506 33.7352V33.3461C55.8506 32.7878 56.1534 32.4833 56.7088 32.4833H57.6343C58.1896 32.4833 58.4925 32.7878 58.4925 33.3461V33.7352C58.4925 34.2935 58.1896 34.5981 57.6343 34.5981H56.7088C56.1534 34.5981 55.8506 34.2935 55.8506 33.7352Z" fill="white"/>
<path d="M64.4327 35.4271C65.6442 35.4271 66.5024 35.7993 67.0241 36.1546C67.4616 36.4422 67.4953 36.8821 67.2092 37.322L66.94 37.728C66.6371 38.2187 66.2837 38.2356 65.7789 37.9818C65.4591 37.8295 65.0553 37.6773 64.6009 37.6773C63.322 37.6773 62.6826 38.6416 62.6826 39.606C62.6826 40.5703 63.3389 41.6193 64.7019 41.6193C65.2236 41.6193 65.762 41.3993 66.1491 41.1625C66.6707 40.8749 67.0578 40.9425 67.3102 41.467L67.5121 41.8561C67.7477 42.3298 67.6972 42.7528 67.2765 43.0235C66.7212 43.3957 65.7452 43.8694 64.4158 43.8694C61.5551 43.8694 59.9397 41.8561 59.9397 39.6398C59.9734 37.4743 61.5551 35.4271 64.4327 35.4271Z" fill="white"/>
<path d="M72.9641 38.6585H73.1997V38.5232C73.1997 37.8465 72.6612 37.6265 72.0554 37.6265C71.5337 37.6265 71.0121 37.7957 70.6082 37.9818C70.0866 38.2017 69.6995 38.1002 69.4471 37.6096L69.262 37.2205C69.0264 36.7298 69.1274 36.3069 69.5986 36.0531C70.2044 35.7655 71.1467 35.4271 72.291 35.4271C74.5122 35.4271 75.8752 36.6622 75.8752 38.7262V42.8374C75.8752 43.3957 75.5723 43.7002 75.017 43.7002H74.2766C73.7213 43.7002 73.4184 43.4126 73.4184 42.8205V42.7528C73.4184 42.6513 73.4352 42.6005 73.4352 42.6005H73.4016C73.4016 42.6005 72.6443 43.8863 71.0289 43.8863C69.4808 43.8863 68.4038 42.8205 68.4038 41.4332C68.4375 39.2507 70.9784 38.6585 72.9641 38.6585ZM71.8535 41.8561C72.6275 41.8561 73.2333 41.0948 73.2333 40.435V40.215H72.9809C72.1564 40.215 71.0962 40.435 71.0962 41.1794C71.0962 41.5347 71.3655 41.8561 71.8535 41.8561Z" fill="white"/>
<path d="M77.6758 36.476C77.6758 35.9177 77.9787 35.6132 78.534 35.6132H79.409C79.9643 35.6132 80.2672 35.9177 80.2672 36.476V36.9836C80.2672 37.2543 80.2336 37.4912 80.2336 37.4912H80.2672C80.5365 36.6621 81.3947 35.5455 82.4043 35.5455C82.9428 35.5455 83.1447 35.8501 83.1447 36.4084V37.2881C83.1447 37.8464 82.8418 38.151 82.2865 38.151C81.0076 38.151 80.385 39.2507 80.385 40.5703V42.8374C80.385 43.3957 80.0821 43.7002 79.5268 43.7002H78.5508C77.9955 43.7002 77.6926 43.3957 77.6926 42.8374V36.476H77.6758Z" fill="white"/>
<path d="M87.9408 35.4271C90.3303 35.4271 91.6428 37.119 91.6428 39.2845C91.6428 39.7075 91.2726 40.1812 90.7342 40.1812H86.5104C86.7124 41.1625 87.5201 41.6193 88.3783 41.6193C88.9168 41.6193 89.4384 41.4501 89.8423 41.2471C90.3639 41.0102 90.7342 41.0779 91.0034 41.5685L91.2222 41.9746C91.4746 42.4652 91.3904 42.8882 90.9193 43.1419C90.3471 43.4634 89.388 43.8694 88.1595 43.8694C85.2989 43.8694 83.7507 41.7885 83.7507 39.6398C83.7676 37.2712 85.3493 35.4271 87.9408 35.4271ZM88.9841 38.6247C88.9841 37.9649 88.5634 37.4235 87.8735 37.4235C87.0994 37.4235 86.7124 37.9818 86.5778 38.6247H88.9841Z" fill="white"/>
<path d="M21.0344 20.7589C20.6306 20.2852 19.9406 20.2344 19.4695 20.6405L18.544 21.4526V17.8997C18.544 14.3299 16.7434 11.5384 13.7145 10.4048C14.8082 9.25438 15.3972 7.74864 15.3972 6.15831C15.3972 2.7577 12.6543 0 9.27198 0C5.88964 0 3.14675 2.7577 3.14675 6.15831C3.14675 7.74864 3.75254 9.25438 4.84633 10.4048C1.80055 11.5553 0 14.3299 0 17.8828V29.0828C0 32.1619 1.00965 33.6846 1.90151 35.0211C1.90151 35.0211 1.90151 35.0211 1.90151 35.0381C2.45682 35.8502 2.75972 36.29 2.75972 37.7619V49.4526C2.75972 53.0562 5.67088 56 9.25515 56C12.8394 56 15.7674 53.0731 15.7674 49.4526V37.7619C15.7674 36.3069 16.0535 35.8502 16.7602 34.7843C17.5007 33.6846 18.5271 32.1789 18.5271 29.0659C18.5271 28.4568 18.0391 27.9492 17.4165 27.9492C16.8107 27.9492 16.3059 28.4399 16.3059 29.0659C16.3059 31.4852 15.5655 32.568 14.9092 33.5323C14.051 34.8181 13.5294 35.7148 13.5294 37.745V49.4356C13.5294 51.8042 11.611 53.7498 9.23833 53.7498C6.88247 53.7498 4.9473 51.8211 4.9473 49.4356V37.745C4.9473 35.7317 4.4593 34.8689 3.70206 33.7692C2.87751 32.5341 2.17075 31.4514 2.17075 29.0659V17.8828C2.17075 15.2097 3.46648 13.2302 5.70454 12.435C6.27668 12.232 7.21902 11.9106 7.42095 10.997C7.62288 10.1003 6.94978 9.40665 6.44495 8.89909C5.70454 8.15468 5.30068 7.17342 5.30068 6.12447C5.30068 3.95891 7.05074 2.1994 9.20467 2.1994C11.3586 2.1994 13.1087 3.95891 13.1087 6.12447C13.1087 7.17342 12.7048 8.15468 11.9644 8.89909C11.4764 9.40665 10.7865 10.0834 11.0052 10.9801C11.2072 11.8767 12.1663 12.2151 12.7216 12.4012C14.9597 13.1795 16.2554 15.1589 16.2554 17.8489V21.4018L15.2794 20.5897C14.8082 20.1837 14.1183 20.2344 13.7145 20.7082C13.3106 21.1819 13.3611 21.8755 13.8322 22.2816L16.6256 24.684C16.6424 24.7009 16.6424 24.7009 16.6593 24.7178C16.6761 24.7347 16.6761 24.7347 16.6929 24.7517C16.7098 24.7686 16.7434 24.7855 16.7602 24.8024C16.7771 24.8024 16.7771 24.8193 16.7939 24.8193C16.8276 24.8363 16.8612 24.8532 16.8949 24.8701C16.9117 24.8701 16.9117 24.8701 16.9285 24.887C16.9453 24.9039 16.979 24.9039 16.9958 24.9208C17.0127 24.9208 17.0127 24.9208 17.0295 24.9378C17.0463 24.9378 17.08 24.9547 17.0968 24.9547C17.1136 24.9547 17.1136 24.9547 17.1304 24.9547C17.1641 24.9547 17.1809 24.9716 17.2146 24.9716C17.2314 24.9716 17.2314 24.9716 17.2482 24.9716C17.2819 24.9716 17.3155 24.9716 17.3492 24.9716C17.3829 24.9716 17.4165 24.9716 17.4502 24.9716C17.467 24.9716 17.467 24.9716 17.4838 24.9716C17.5175 24.9716 17.5343 24.9716 17.568 24.9547C17.5848 24.9547 17.5848 24.9547 17.6016 24.9547C17.6184 24.9547 17.6521 24.9378 17.6689 24.9378C17.6858 24.9378 17.6858 24.9378 17.7026 24.9208C17.7362 24.9039 17.7531 24.9039 17.7867 24.887C17.8035 24.887 17.8036 24.887 17.8204 24.8701C17.854 24.8532 17.8877 24.8363 17.9213 24.8193C17.9382 24.8193 17.9382 24.8024 17.9382 24.8024C17.955 24.7855 17.9887 24.7686 18.0055 24.7517C18.0223 24.7347 18.0223 24.7347 18.0391 24.7178C18.056 24.7009 18.056 24.7009 18.0728 24.684L20.8157 22.2985C21.371 21.9263 21.4215 21.2157 21.0344 20.7589Z" fill="white"/>
</svg>
