<svg width="169" height="35" viewBox="0 0 169 35" fill="none" xmlns="http://www.w3.org/2000/svg">
<path d="M54.0227 14.5847C54.0212 15.5188 53.6744 16.4193 53.049 17.1131C52.5941 17.5218 52.0587 17.8308 51.4772 18.0201C50.8956 18.2094 50.2809 18.2749 49.6726 18.2124H45.7151L46.9243 11.9307H50.8504C51.7076 11.8719 52.5567 12.1289 53.2375 12.6531C53.4998 12.8995 53.7058 13.1996 53.8413 13.533C53.9769 13.8664 54.0387 14.2252 54.0227 14.5847ZM51.4158 10.0619H45.1341L41.7419 27.7763H43.8777L45.3696 19.9242H50.2536C51.2065 19.9055 52.1461 19.6973 53.0176 19.3117C53.9672 18.9166 54.7614 18.2217 55.279 17.333C55.8048 16.5103 56.0979 15.5606 56.127 14.5847C56.1348 14.0015 56.0247 13.4227 55.8034 12.883C55.5822 12.3433 55.2542 11.8538 54.8393 11.4439C54.3808 11.0175 53.8418 10.6867 53.254 10.471C52.6662 10.2553 52.0413 10.1589 51.4158 10.1875" fill="white"/>
<path d="M134.664 14.5847C134.662 15.5188 134.316 16.4193 133.69 17.1131C133.235 17.5218 132.7 17.8308 132.118 18.0201C131.537 18.2094 130.922 18.2749 130.314 18.2124H126.356L127.566 11.9307H131.492C132.349 11.8719 133.198 12.1289 133.879 12.6531C134.141 12.8995 134.347 13.1996 134.483 13.533C134.618 13.8664 134.68 14.2252 134.664 14.5847ZM132.057 10.0619H125.775L122.383 27.7763H124.519L126.011 19.9242H130.942C131.895 19.9055 132.834 19.6973 133.706 19.3117C134.656 18.9166 135.45 18.2217 135.967 17.333C136.477 16.5056 136.753 15.5561 136.768 14.5847C136.776 14.0015 136.666 13.4227 136.445 12.883C136.223 12.3433 135.895 11.8538 135.481 11.4439C135.022 11.0175 134.483 10.6867 133.895 10.471C133.307 10.2553 132.682 10.1589 132.057 10.1875" fill="white"/>
<path d="M64.0734 14.836C62.6468 14.9335 61.3157 15.5877 60.3672 16.6577L61.6235 10.0619H59.6762L56.2369 27.7763H58.2628L59.8332 19.1861C60.4357 18.4421 61.1448 17.7912 61.9376 17.2544C62.4502 16.9102 63.0481 16.7145 63.665 16.6891C63.9016 16.6776 64.138 16.7149 64.3595 16.7987C64.581 16.8824 64.783 17.0108 64.9528 17.1759C65.1215 17.3464 65.2521 17.5507 65.336 17.7754C65.4199 18.0001 65.4553 18.24 65.4396 18.4794C65.4338 18.881 65.3864 19.281 65.2983 19.6729L63.7279 27.7763H65.7223L67.4184 19.4216C67.4892 19.1231 67.5261 18.8176 67.5283 18.5108C67.5556 18.0182 67.4835 17.5252 67.3162 17.0612C67.1489 16.5971 66.8899 16.1715 66.5546 15.8096C66.2288 15.4875 65.8407 15.235 65.4141 15.0676C64.9876 14.9002 64.5314 14.8214 64.0734 14.836Z" fill="white"/>
<path d="M77.2805 21.7613C77.0136 22.7821 76.8094 23.7714 76.6524 24.7451C76.0847 25.1984 75.4621 25.5783 74.7993 25.8758C74.3063 26.1074 73.7729 26.2408 73.2288 26.2684C72.9732 26.2719 72.7197 26.2221 72.4844 26.122C72.2491 26.022 72.0374 25.8739 71.8626 25.6874C71.6775 25.4934 71.5334 25.264 71.439 25.0131C71.3445 24.7622 71.3017 24.4947 71.3129 24.2269C71.3008 23.874 71.3796 23.524 71.5419 23.2105C71.7042 22.8969 71.9444 22.6304 72.2395 22.4366C73.5144 21.8261 74.9305 21.5711 76.3383 21.6985L77.2805 21.7613ZM78.7096 15.9507C77.89 15.368 76.9376 14.9996 75.9393 14.8789C74.9409 14.7582 73.9282 14.8891 72.9933 15.2597C72.3024 15.5845 71.6831 16.0436 71.1716 16.6103L70.9988 16.783L72.3337 17.9295L72.475 17.7881C72.8639 17.3735 73.3206 17.0283 73.8256 16.7673C74.2287 16.5793 74.6685 16.4827 75.1134 16.4847C75.8701 16.4557 76.6119 16.701 77.202 17.1756C77.4577 17.3876 77.6624 17.6543 77.8011 17.956C77.9397 18.2577 78.0087 18.5868 78.0029 18.9188C77.9825 19.3055 77.903 19.6868 77.7674 20.0495H76.1969C74.2546 19.9301 72.3244 20.4305 70.6848 21.4786C70.2292 21.8011 69.8594 22.2302 69.6075 22.7283C69.3557 23.2265 69.2295 23.7787 69.24 24.3368C69.2303 24.8236 69.32 25.3072 69.5036 25.7581C69.6872 26.2091 69.9609 26.6178 70.3079 26.9594C70.6441 27.3047 71.0474 27.5776 71.4931 27.7612C71.9387 27.9449 72.4171 28.0354 72.8991 28.0273C73.505 28.0233 74.1036 27.895 74.6579 27.6504C75.2632 27.3559 75.8324 26.9923 76.354 26.5668V27.776H78.2385V27.5719C78.2975 26.7552 78.4023 25.9426 78.5526 25.1377C78.6939 24.3839 78.9452 23.3631 79.3064 22.0911C79.6643 20.9963 79.8909 19.8629 79.9817 18.7147C79.9867 18.1886 79.8753 17.668 79.6553 17.1902C79.4354 16.7123 79.1124 16.289 78.7096 15.9507Z" fill="white"/>
<path d="M89.2159 14.8514H88.8075C88.1637 14.8621 87.5387 15.0705 87.0173 15.4482C86.5535 15.7843 86.1364 16.1804 85.7766 16.626L86.0593 15.0556H84.0649L81.6621 27.776H83.688L85.0856 20.505C85.1368 20.1976 85.2375 19.9006 85.384 19.6255C85.6642 19.1138 86.0071 18.639 86.4048 18.2122C86.7832 17.8123 87.2169 17.4686 87.6925 17.1914C88.096 16.971 88.5389 16.8323 88.996 16.7831H89.153L89.5142 14.8671L89.2159 14.8514Z" fill="white"/>
<path d="M104.685 14.8357C103.918 14.8431 103.169 15.0604 102.517 15.4639C101.765 15.9614 101.088 16.5643 100.507 17.2542C100.339 16.641 99.9884 16.0934 99.5022 15.6837C98.8756 15.1674 98.0839 14.8943 97.2722 14.9142C96.5141 14.9584 95.7747 15.1666 95.1049 15.5245C94.4352 15.8824 93.8512 16.3815 93.3932 16.9872L93.7544 15.1655H91.8699L89.5143 27.776H91.5401L93.1106 19.2015C93.6855 18.4445 94.3805 17.7867 95.1678 17.2542C95.6837 16.921 96.2814 16.7362 96.8953 16.7202C97.1207 16.7116 97.3456 16.749 97.5561 16.83C97.7667 16.911 97.9586 17.0339 98.1202 17.1913C98.4465 17.5934 98.6091 18.1037 98.5756 18.6204C98.5834 18.7669 98.5834 18.9137 98.5756 19.0601L96.8482 27.776H98.9368L100.507 19.1858C101.144 18.4223 101.884 17.751 102.706 17.1913C103.178 16.8923 103.718 16.7193 104.276 16.6888C104.498 16.6809 104.72 16.7202 104.925 16.8041C105.131 16.888 105.317 17.0147 105.47 17.1756C105.632 17.3468 105.758 17.5493 105.839 17.7708C105.92 17.9922 105.954 18.2279 105.941 18.4634C105.94 18.7746 105.909 19.085 105.847 19.3899L104.261 27.776H106.286L107.857 19.704C107.945 19.2803 107.993 18.8491 107.998 18.4163C108.023 17.9396 107.951 17.4628 107.786 17.0148C107.621 16.5667 107.368 16.1567 107.04 15.8094C106.724 15.4878 106.344 15.2352 105.925 15.0676C105.506 14.9 105.057 14.8211 104.606 14.8357" fill="white"/>
<path d="M117.782 21.7613C117.515 22.7821 117.311 23.7871 117.154 24.7451C116.586 25.1984 115.963 25.5783 115.301 25.8758C114.846 26.1694 114.31 26.3095 113.77 26.2756C113.23 26.2417 112.715 26.0355 112.301 25.6874C112.116 25.4934 111.972 25.264 111.878 25.0131C111.783 24.7622 111.74 24.4947 111.751 24.2269C111.76 23.8757 111.858 23.5326 112.037 23.2302C112.216 22.9279 112.469 22.6762 112.772 22.4994C114.047 21.8889 115.463 21.6339 116.871 21.7613H117.782ZM119.211 15.9507C118.391 15.368 117.439 14.9996 116.441 14.8789C115.442 14.7582 114.43 14.8891 113.495 15.2597C112.804 15.5845 112.184 16.0436 111.673 16.6103L111.5 16.783L112.835 17.9295L113.071 17.7253C113.459 17.3107 113.916 16.9654 114.421 16.7045C114.824 16.5165 115.264 16.4199 115.709 16.4218C116.466 16.3928 117.207 16.6382 117.798 17.1128C118.053 17.3247 118.258 17.5914 118.397 17.8932C118.535 18.1949 118.604 18.524 118.599 18.856C118.578 19.2427 118.499 19.624 118.363 19.9867H116.793C114.85 19.8672 112.92 20.3676 111.28 21.4158C110.825 21.7383 110.455 22.1674 110.203 22.6655C109.951 23.1637 109.825 23.7159 109.836 24.274C109.826 24.7608 109.916 25.2444 110.099 25.6953C110.283 26.1463 110.556 26.555 110.903 26.8966C111.24 27.2419 111.643 27.5148 112.089 27.6984C112.534 27.8821 113.013 27.9726 113.495 27.9645C114.101 27.9605 114.699 27.8322 115.254 27.5876C115.859 27.2931 116.428 26.9295 116.95 26.504V27.7132H118.834V27.509C118.893 26.6924 118.998 25.8797 119.148 25.0749C119.29 24.3211 119.541 23.3003 119.902 22.0283C120.26 20.9335 120.487 19.8001 120.577 18.6519C120.582 18.1258 120.471 17.6052 120.251 17.1273C120.031 16.6495 119.708 16.2262 119.305 15.8879" fill="white"/>
<path d="M143.961 14.8357C143.317 14.8464 142.692 15.0547 142.171 15.4325C141.703 15.7644 141.286 16.161 140.93 16.6103L141.213 15.0398H139.218L136.784 27.776H138.81L140.208 20.5049C140.259 20.1975 140.359 19.9005 140.506 19.6255C140.786 19.1138 141.129 18.639 141.527 18.2121C141.905 17.8122 142.339 17.4685 142.814 17.1913C143.213 16.9714 143.65 16.8327 144.102 16.783H144.275L144.62 14.8828H143.961" fill="white"/>
<path d="M147.542 12.5275H149.599L150.07 10.0619H148.044L147.542 12.5275Z" fill="white"/>
<path d="M144.668 27.7761H146.709L149.112 15.087H147.102L144.668 27.7761Z" fill="white"/>
<path d="M168.208 15.8094C167.89 15.4901 167.51 15.239 167.092 15.0716C166.673 14.9042 166.225 14.8239 165.774 14.8357C165.003 14.8435 164.248 15.0606 163.591 15.4639C162.824 15.954 162.136 16.5576 161.55 17.2542C161.381 16.641 161.031 16.0934 160.545 15.6838C159.917 15.17 159.126 14.8971 158.315 14.9143C157.557 14.9584 156.817 15.1666 156.147 15.5245C155.478 15.8824 154.894 16.3815 154.436 16.9872L154.781 15.1655H152.944L150.525 27.776H152.535L154.106 19.2015C154.69 18.447 155.389 17.7897 156.179 17.2542C156.693 16.9164 157.292 16.7313 157.906 16.7202C158.13 16.7081 158.353 16.7438 158.562 16.8251C158.77 16.9063 158.959 17.0312 159.115 17.1914C159.455 17.5871 159.624 18.1006 159.587 18.6205C159.602 18.7666 159.602 18.914 159.587 19.0602L157.922 27.776H159.979L161.55 19.1858C162.191 18.4211 162.937 17.7497 163.764 17.1914C164.236 16.8923 164.777 16.7193 165.334 16.6888C165.556 16.6809 165.778 16.7202 165.983 16.8042C166.189 16.8881 166.375 17.0147 166.528 17.1757C166.69 17.3468 166.816 17.5493 166.897 17.7708C166.978 17.9923 167.013 18.228 166.999 18.4634C167 18.7756 166.963 19.0867 166.889 19.39L165.209 27.776H167.235L168.805 19.7041C168.906 19.2821 168.959 18.8501 168.962 18.4163C168.983 17.94 168.909 17.4642 168.745 17.0166C168.58 16.5691 168.329 16.1587 168.004 15.8094" fill="white"/>
<path d="M17.2747 1.78555C14.1245 1.77934 11.0433 2.7076 8.42082 4.45288C5.79833 6.19817 3.7524 8.68207 2.54186 11.5904C1.33133 14.4986 1.01058 17.7006 1.62019 20.7912C2.2298 23.8818 3.74238 26.7222 5.96658 28.953C8.19078 31.1838 11.0267 32.7048 14.1155 33.3235C17.2042 33.9423 20.4072 33.631 23.319 32.4291C26.2309 31.2272 28.7208 29.1886 30.4739 26.5713C32.2269 23.954 33.1643 20.8755 33.1674 17.7254C33.1674 13.506 31.4945 9.45879 28.5154 6.47084C25.5363 3.4829 21.494 1.79802 17.2747 1.78555ZM17.2747 35C13.8581 35 10.5182 33.9869 7.67739 32.0887C4.83658 30.1906 2.62244 27.4926 1.31496 24.3361C0.00748491 21.1796 -0.334611 17.7062 0.331936 14.3552C0.998483 11.0043 2.64374 7.92623 5.05964 5.51033C7.47555 3.09442 10.5536 1.44917 13.9046 0.782619C17.2555 0.116072 20.7289 0.458169 23.8854 1.76565C27.042 3.07313 29.7399 5.28727 31.6381 8.12807C33.5362 10.9689 34.5494 14.3088 34.5494 17.7254C34.5494 22.3069 32.7294 26.7008 29.4897 29.9404C26.2501 33.18 21.8562 35 17.2747 35Z" fill="white"/>
<path d="M20.4156 21.3374V25.1693C20.4827 26.0056 20.2302 26.8362 19.7089 27.4935C19.474 27.7524 19.1844 27.9558 18.8612 28.0889C18.538 28.222 18.1891 28.2815 17.8401 28.263C16.9267 28.2669 16.0457 27.9247 15.3745 27.3051C14.9594 26.8688 14.6424 26.3489 14.4447 25.7801C14.2469 25.2113 14.1731 24.6068 14.2281 24.0072V20.1596L20.4156 21.3374ZM4.80554 18.3536L12.4221 19.8141V24.6353C12.4397 25.5681 12.6481 26.4874 13.0346 27.3365C13.4231 28.2674 14.1002 29.0491 14.9662 29.5665C15.8186 30.0807 16.7975 30.3472 17.793 30.336C18.3749 30.3552 18.9545 30.2535 19.4952 30.0373C20.0358 29.821 20.5257 29.4949 20.9338 29.0796C21.352 28.6296 21.6758 28.1004 21.8862 27.5232C22.0966 26.946 22.1893 26.3325 22.1587 25.7189V19.5629L4.88406 16.2493L4.80554 18.3536Z" fill="white"/>
<path d="M14.1339 14.3959V10.564C14.0743 9.76014 14.2964 8.96059 14.7621 8.30261C15.0011 8.04999 15.2917 7.85188 15.6142 7.72179C15.9367 7.59171 16.2835 7.5327 16.6309 7.5488C17.5416 7.54368 18.4212 7.87985 19.0964 8.49106C19.5004 8.93265 19.8058 9.45501 19.9926 10.0236C20.1794 10.5921 20.2433 11.1939 20.18 11.7889V15.5737L14.1339 14.3959ZM21.986 15.9663V11.098C21.9666 10.1671 21.7638 9.24923 21.3893 8.39683C20.9961 7.46878 20.3201 6.68841 19.4576 6.16683C18.6046 5.65409 17.6261 5.38774 16.6309 5.39732C16.0489 5.37807 15.4693 5.47979 14.9287 5.69604C14.388 5.91229 13.8982 6.23837 13.49 6.65366C13.0738 7.10182 12.7511 7.62847 12.5407 8.20282C12.3304 8.77716 12.2367 9.38768 12.2651 9.99866V16.1547L29.5398 19.484V17.3797L21.986 15.9663Z" fill="white"/>
</svg>
