<svg width="1920" height="795" viewBox="0 0 1920 795" fill="none" xmlns="http://www.w3.org/2000/svg">
<g clip-path="url(#clip0_194_10233)">
<path d="M-8334 9.18027L-8204.92 -33.0601C-8075.83 -76.1759 -7817.67 -159.343 -7559.5 -160C-7301.33 -159.343 -7043.17 -76.1759 -6785 -22.5547C-6526.83 31.0665 -6268.67 50.764 -6010.5 62.1448C-5752.33 72.6502 -5494.17 72.6502 -5236 30.4099C-4977.83 -12.7059 -4719.67 -95.8735 -4461.5 -54.2897C-4203.33 -12.7059 -3945.17 158.006 -3687 220.82C-3428.83 284.946 -3170.67 241.174 -2912.5 178.361C-2654.33 114.234 -2396.17 31.0664 -2138 -33.0601C-1879.83 -95.8735 -1621.67 -139.646 -1363.5 -117.76C-1105.33 -95.8735 -847.167 -12.7059 -589 19.6856C-330.833 50.764 -72.667 31.0664 185.5 62.1448C443.667 94.5364 701.833 177.704 960 189.085C1218.17 199.59 1476.33 136.12 1734.5 125.615C1992.67 114.234 2250.83 158.006 2509 146.626C2767.17 136.12 3025.33 72.6502 3283.5 30.4099C3541.67 -12.7059 3799.83 -32.4035 4058 -43.7843C4316.17 -54.2897 4574.33 -54.2897 4832.5 -22.5547C5090.67 9.18027 5348.83 72.6502 5607 93.8798C5865.17 114.234 6123.33 94.5364 6381.5 51.4206C6639.67 9.18027 6897.83 -54.2897 7156 -22.5547C7414.17 9.18027 7672.33 136.12 7930.5 146.626C8188.67 158.006 8446.83 50.764 8705 -1.32512C8963.17 -54.2897 9221.33 -54.2897 9479.5 -1.32512C9737.67 50.764 9995.83 158.006 10124.9 210.096L10254 263.06V390H10124.9C9995.83 390 9737.67 390 9479.5 390C9221.33 390 8963.17 390 8705 390C8446.83 390 8188.67 390 7930.5 390C7672.33 390 7414.17 390 7156 390C6897.83 390 6639.67 390 6381.5 390C6123.33 390 5865.17 390 5607 390C5348.83 390 5090.67 390 4832.5 390C4574.33 390 4316.17 390 4058 390C3799.83 390 3541.67 390 3283.5 390C3025.33 390 2767.17 390 2509 390C2250.83 390 1992.67 390 1734.5 390C1476.33 390 1218.17 390 960 390C701.833 390 443.667 390 185.5 390C-72.667 390 -330.833 390 -589 390C-847.167 390 -1105.33 390 -1363.5 390C-1621.67 390 -1879.83 390 -2138 390C-2396.17 390 -2654.33 390 -2912.5 390C-3170.67 390 -3428.83 390 -3687 390C-3945.17 390 -4203.33 390 -4461.5 390C-4719.67 390 -4977.83 390 -5236 390C-5494.17 390 -5752.33 390 -6010.5 390C-6268.67 390 -6526.83 390 -6785 390C-7043.17 390 -7301.33 390 -7559.5 390C-7817.67 390 -8075.83 390 -8204.92 390H-8334V9.18027Z" fill="url(#paint0_linear_194_10233)"/>
<path d="M-8334 829.674L-8204.92 878.442C-8075.83 928.221 -7817.67 1024.24 -7559.5 1025C-7301.33 1024.24 -7043.17 928.221 -6785 866.313C-6526.83 804.405 -6268.67 781.663 -6010.5 768.524C-5752.33 756.395 -5494.17 756.395 -5236 805.163C-4977.83 854.942 -4719.67 950.963 -4461.5 902.953C-4203.33 854.942 -3945.17 657.847 -3687 585.326C-3428.83 511.289 -3170.67 561.827 -2912.5 634.347C-2654.33 708.384 -2396.17 804.405 -2138 878.442C-1879.83 950.963 -1621.67 1001.5 -1363.5 976.232C-1105.33 950.963 -847.167 854.942 -589 817.545C-330.833 781.663 -72.667 804.405 185.5 768.524C443.667 731.126 715.333 695.14 973.5 682C1231.67 669.871 1476.33 683.116 1734.5 695.245C1992.67 708.384 2250.83 657.847 2509 670.987C2767.17 683.116 3025.33 756.395 3283.5 805.163C3541.67 854.942 3799.83 877.684 4058 890.824C4316.17 902.953 4574.33 902.953 4832.5 866.313C5090.67 829.674 5348.83 756.395 5607 731.884C5865.17 708.384 6123.33 731.126 6381.5 780.905C6639.67 829.674 6897.83 902.953 7156 866.313C7414.17 829.674 7672.33 683.116 7930.5 670.987C8188.67 657.847 8446.83 781.663 8705 841.803C8963.17 902.953 9221.33 902.953 9479.5 841.803C9737.67 781.663 9995.83 657.847 10124.9 597.708L10254 536.558V390H10124.9C9995.83 390 9737.67 390 9479.5 390C9221.33 390 8963.17 390 8705 390C8446.83 390 8188.67 390 7930.5 390C7672.33 390 7414.17 390 7156 390C6897.83 390 6639.67 390 6381.5 390C6123.33 390 5865.17 390 5607 390C5348.83 390 5090.67 390 4832.5 390C4574.33 390 4316.17 390 4058 390C3799.83 390 3541.67 390 3283.5 390C3025.33 390 2767.17 390 2509 390C2250.83 390 1992.67 390 1734.5 390C1476.33 390 1218.17 390 960 390C701.833 390 443.667 390 185.5 390C-72.667 390 -330.833 390 -589 390C-847.167 390 -1105.33 390 -1363.5 390C-1621.67 390 -1879.83 390 -2138 390C-2396.17 390 -2654.33 390 -2912.5 390C-3170.67 390 -3428.83 390 -3687 390C-3945.17 390 -4203.33 390 -4461.5 390C-4719.67 390 -4977.83 390 -5236 390C-5494.17 390 -5752.33 390 -6010.5 390C-6268.67 390 -6526.83 390 -6785 390C-7043.17 390 -7301.33 390 -7559.5 390C-7817.67 390 -8075.83 390 -8204.92 390H-8334V829.674Z" fill="url(#paint1_linear_194_10233)"/>
<circle opacity="0.1" cx="70" cy="571" r="242" fill="#C5A6FD"/>
<rect opacity="0.4" x="1731" y="283.793" width="254.204" height="70" rx="20" transform="rotate(-15 1731 283.793)" fill="#E7CDFC"/>
<rect opacity="0.4" x="1790.45" y="499.207" width="250.204" height="66" rx="18" transform="rotate(-15 1790.45 499.207)" stroke="#E7CDFC" stroke-width="4"/>
</g>
<defs>
<linearGradient id="paint0_linear_194_10233" x1="-59.9998" y1="645.5" x2="229.572" y2="-359.336" gradientUnits="userSpaceOnUse">
<stop stop-color="#5531D2"/>
<stop offset="0.584681" stop-color="#9273E4"/>
<stop offset="1" stop-color="#E7CDFC"/>
</linearGradient>
<linearGradient id="paint1_linear_194_10233" x1="-59.9998" y1="645.5" x2="229.572" y2="-359.336" gradientUnits="userSpaceOnUse">
<stop stop-color="#5531D2"/>
<stop offset="0.584681" stop-color="#9273E4"/>
<stop offset="1" stop-color="#E7CDFC"/>
</linearGradient>
<clipPath id="clip0_194_10233">
<rect width="1920" height="795" fill="white"/>
</clipPath>
</defs>
</svg>
