<svg width="18588" height="2679" viewBox="0 0 18588 2679" fill="none" xmlns="http://www.w3.org/2000/svg">
<g clip-path="url(#clip0_194_10327)">
<path d="M0 382.476L129.083 286.981C258.167 189.506 516.333 1.48438 774.5 0C1032.67 1.48438 1290.83 189.506 1549 310.731C1807.17 431.955 2065.33 476.487 2323.5 502.216C2581.67 525.966 2839.83 525.966 3098 430.471C3356.17 332.996 3614.33 144.975 3872.5 238.986C4130.67 332.996 4388.83 718.936 4647 860.942C4905.17 1005.92 5163.33 906.958 5421.5 764.952C5679.67 619.977 5937.83 431.955 6196 286.981C6454.17 144.975 6712.33 46.0159 6970.5 95.4953C7228.67 144.975 7486.83 332.996 7745 406.226C8003.17 476.487 8261.33 431.955 8519.5 502.216C8777.67 575.446 9035.83 763.467 9294 789.197C9552.17 812.947 9810.33 669.457 10068.5 645.706C10326.7 619.977 10584.8 718.936 10843 693.207C11101.2 669.457 11359.3 525.966 11617.5 430.471C11875.7 332.996 12133.8 288.465 12392 262.736C12650.2 238.986 12908.3 238.986 13166.5 310.731C13424.7 382.476 13682.8 525.966 13941 573.961C14199.2 619.977 14457.3 575.446 14715.5 477.971C14973.7 382.476 15231.8 238.986 15490 310.731C15748.2 382.476 16006.3 669.457 16264.5 693.207C16522.7 718.936 16780.8 476.487 17039 358.726C17297.2 238.986 17555.3 238.986 17813.5 358.726C18071.7 476.487 18329.8 718.936 18458.9 836.697L18588 956.437V1243.42H18458.9C18329.8 1243.42 18071.7 1243.42 17813.5 1243.42C17555.3 1243.42 17297.2 1243.42 17039 1243.42C16780.8 1243.42 16522.7 1243.42 16264.5 1243.42C16006.3 1243.42 15748.2 1243.42 15490 1243.42C15231.8 1243.42 14973.7 1243.42 14715.5 1243.42C14457.3 1243.42 14199.2 1243.42 13941 1243.42C13682.8 1243.42 13424.7 1243.42 13166.5 1243.42C12908.3 1243.42 12650.2 1243.42 12392 1243.42C12133.8 1243.42 11875.7 1243.42 11617.5 1243.42C11359.3 1243.42 11101.2 1243.42 10843 1243.42C10584.8 1243.42 10326.7 1243.42 10068.5 1243.42C9810.33 1243.42 9552.17 1243.42 9294 1243.42C9035.83 1243.42 8777.67 1243.42 8519.5 1243.42C8261.33 1243.42 8003.17 1243.42 7745 1243.42C7486.83 1243.42 7228.67 1243.42 6970.5 1243.42C6712.33 1243.42 6454.17 1243.42 6196 1243.42C5937.83 1243.42 5679.67 1243.42 5421.5 1243.42C5163.33 1243.42 4905.17 1243.42 4647 1243.42C4388.83 1243.42 4130.67 1243.42 3872.5 1243.42C3614.33 1243.42 3356.17 1243.42 3098 1243.42C2839.83 1243.42 2581.67 1243.42 2323.5 1243.42C2065.33 1243.42 1807.17 1243.42 1549 1243.42C1290.83 1243.42 1032.67 1243.42 774.5 1243.42C516.333 1243.42 258.167 1243.42 129.083 1243.42H0V382.476Z" fill="url(#paint0_linear_194_10327)"/>
<path d="M0 2237.41L129.083 2347.67C258.167 2460.21 516.333 2677.29 774.5 2679C1032.67 2677.29 1290.83 2460.21 1549 2320.25C1807.17 2180.29 2065.33 2128.87 2323.5 2099.17C2581.67 2071.75 2839.83 2071.75 3098 2182C3356.17 2294.54 3614.33 2511.62 3872.5 2403.08C4130.67 2294.54 4388.83 1848.96 4647 1685C4905.17 1517.62 5163.33 1631.88 5421.5 1795.83C5679.67 1963.21 5937.83 2180.29 6196 2347.67C6454.17 2511.62 6712.33 2625.87 6970.5 2568.75C7228.67 2511.62 7486.83 2294.54 7745 2209.99C8003.17 2128.87 8261.33 2180.29 8519.5 2099.17C8777.67 2014.62 9049.33 1933.27 9307.5 1903.56C9565.67 1876.14 9810.33 1906.08 10068.5 1933.5C10326.7 1963.21 10584.8 1848.96 10843 1878.66C11101.2 1906.08 11359.3 2071.75 11617.5 2182C11875.7 2294.54 12133.8 2345.95 12392 2375.66C12650.2 2403.08 12908.3 2403.08 13166.5 2320.25C13424.7 2237.41 13682.8 2071.75 13941 2016.34C14199.2 1963.21 14457.3 2014.62 14715.5 2127.16C14973.7 2237.41 15231.8 2403.08 15490 2320.25C15748.2 2237.41 16006.3 1906.08 16264.5 1878.66C16522.7 1848.96 16780.8 2128.87 17039 2264.83C17297.2 2403.08 17555.3 2403.08 17813.5 2264.83C18071.7 2128.87 18329.8 1848.96 18458.9 1713L18588 1574.75V1243.42H18458.9C18329.8 1243.42 18071.7 1243.42 17813.5 1243.42C17555.3 1243.42 17297.2 1243.42 17039 1243.42C16780.8 1243.42 16522.7 1243.42 16264.5 1243.42C16006.3 1243.42 15748.2 1243.42 15490 1243.42C15231.8 1243.42 14973.7 1243.42 14715.5 1243.42C14457.3 1243.42 14199.2 1243.42 13941 1243.42C13682.8 1243.42 13424.7 1243.42 13166.5 1243.42C12908.3 1243.42 12650.2 1243.42 12392 1243.42C12133.8 1243.42 11875.7 1243.42 11617.5 1243.42C11359.3 1243.42 11101.2 1243.42 10843 1243.42C10584.8 1243.42 10326.7 1243.42 10068.5 1243.42C9810.33 1243.42 9552.17 1243.42 9294 1243.42C9035.83 1243.42 8777.67 1243.42 8519.5 1243.42C8261.33 1243.42 8003.17 1243.42 7745 1243.42C7486.83 1243.42 7228.67 1243.42 6970.5 1243.42C6712.33 1243.42 6454.17 1243.42 6196 1243.42C5937.83 1243.42 5679.67 1243.42 5421.5 1243.42C5163.33 1243.42 4905.17 1243.42 4647 1243.42C4388.83 1243.42 4130.67 1243.42 3872.5 1243.42C3614.33 1243.42 3356.17 1243.42 3098 1243.42C2839.83 1243.42 2581.67 1243.42 2323.5 1243.42C2065.33 1243.42 1807.17 1243.42 1549 1243.42C1290.83 1243.42 1032.67 1243.42 774.5 1243.42C516.333 1243.42 258.167 1243.42 129.083 1243.42H0V2237.41Z" fill="url(#paint1_linear_194_10327)"/>
</g>
<defs>
<linearGradient id="paint0_linear_194_10327" x1="8274" y1="1821.04" x2="9399.29" y2="93.8198" gradientUnits="userSpaceOnUse">
<stop stop-color="#5531D2"/>
<stop offset="0.584681" stop-color="#9273E4"/>
<stop offset="1" stop-color="#E7CDFC"/>
</linearGradient>
<linearGradient id="paint1_linear_194_10327" x1="8274" y1="1821.04" x2="9399.29" y2="93.8198" gradientUnits="userSpaceOnUse">
<stop stop-color="#5531D2"/>
<stop offset="0.584681" stop-color="#9273E4"/>
<stop offset="1" stop-color="#E7CDFC"/>
</linearGradient>
<clipPath id="clip0_194_10327">
<rect width="18588" height="2679" fill="white"/>
</clipPath>
</defs>
</svg>
