<svg width="128" height="114" viewBox="0 0 128 114" fill="none" xmlns="http://www.w3.org/2000/svg">
<rect width="128" height="114" rx="20" fill="#F8E4FF"/>
<path d="M83 82.0146C89.6274 82.0146 95 76.6421 95 70.0146C95 63.3872 89.6274 58.0146 83 58.0146C76.3726 58.0146 71 63.3872 71 70.0146C71 76.6421 76.3726 82.0146 83 82.0146Z" fill="#43CDD7"/>
<path d="M83 61.6035C80.4505 61.6035 78.3762 63.678 78.3762 66.2279C78.3762 66.8215 78.8572 67.3026 79.4502 67.3026C80.0433 67.3026 80.5242 66.8215 80.5242 66.2279C80.5242 64.8632 81.6349 63.753 83 63.753C84.3651 63.753 85.4756 64.8632 85.4756 66.2279C85.4756 67.5926 84.3651 68.7028 83 68.7028C82.407 68.7028 81.926 69.1841 81.926 69.7775V72.3413C81.926 72.9348 82.407 73.416 83 73.416C83.5931 73.416 84.074 72.9348 84.074 72.3413V70.7263C86.1075 70.2407 87.6236 68.4082 87.6236 66.2278C87.6235 63.678 85.5494 61.6035 83 61.6035Z" fill="#5531D2"/>
<path d="M83.0002 75.5615C82.7167 75.5615 82.4407 75.6764 82.2409 75.8764C82.0412 76.0752 81.9262 76.3525 81.9262 76.6362C81.9262 76.9189 82.0411 77.195 82.2409 77.396C82.4407 77.5959 82.7168 77.711 83.0002 77.711C83.2827 77.711 83.5598 77.596 83.7595 77.396C83.9592 77.195 84.0742 76.9189 84.0742 76.6362C84.0742 76.3535 83.9593 76.0762 83.7595 75.8764C83.5598 75.6754 83.2826 75.5615 83.0002 75.5615Z" fill="#5531D2"/>
<path d="M68.713 51.0028L69.1493 51.4393C69.5765 51.8665 70.2688 51.8666 70.6962 51.4395C71.1233 51.0125 71.1234 50.3199 70.6964 49.8927L70.2346 49.4308C69.4339 48.596 67.9929 48.596 67.1922 49.4308C66.7652 49.8581 66.7653 50.5506 67.1926 50.9776C67.6109 51.3961 68.2842 51.4044 68.713 51.0028Z" fill="#5531D2"/>
<path d="M59.8729 49.4308C59.0722 48.596 57.6312 48.596 56.8305 49.4308L56.3688 49.8927C55.9418 50.3199 55.9419 51.0125 56.369 51.4395C56.7962 51.8666 57.4888 51.8664 57.9159 51.4393L58.3522 51.0028C58.7809 51.4045 59.4541 51.396 59.8726 50.9776C60.2999 50.5506 60.3 49.8581 59.8729 49.4308Z" fill="#5531D2"/>
<path d="M67.02 56.7952C67.4468 56.3677 67.4461 55.6752 67.0187 55.2484C66.5913 54.8218 65.8988 54.8222 65.4718 55.2497C64.4505 56.3157 62.6145 56.3157 61.5932 55.2497C61.1667 54.8223 60.4741 54.8215 60.0463 55.2484C59.6189 55.6752 59.6182 56.3677 60.045 56.7952C61.8808 58.7117 65.1844 58.7116 67.02 56.7952Z" fill="#5531D2"/>
<path d="M72.7503 65.6823H66.9896C66.8741 65.2819 66.8902 64.363 67.0199 63.4214C71.5856 63.0476 74.8562 59.8937 75.6226 55.1102C78.8965 54.0987 79.1821 49.5414 76.0731 48.112C77.2745 45.2173 78.9814 39.6992 76.35 36.2931C76.3363 36.2717 76.3198 36.244 76.3 36.2118C75.2704 34.3377 73.0847 32.9692 70.8535 35.1922C70.5144 35.5267 70.3627 35.6116 70.2977 35.6298C70.2198 35.5895 69.739 35.2795 69.099 33.5662C68.534 32.0531 67.4696 30.9217 66.1022 30.3805C64.2956 29.6657 62.0542 29.9589 59.4407 31.2528C57.1318 32.3959 55.8515 32.3342 54.2942 32.122C52.5226 31.881 50.841 33.0028 50.383 34.7319L50.3137 34.993C49.2213 39.1095 48.4268 42.1036 51.2708 47.997C47.9191 49.2343 48.0269 54.0362 51.434 55.1076C51.768 57.2816 52.6139 59.1623 53.9046 60.5841C55.428 62.2623 57.5375 63.2344 60.0456 63.4244C60.175 64.3651 60.1908 65.2824 60.0755 65.6823H54.3148C50.2814 65.6823 47 68.9636 47 72.9969V82.9163C47 83.5204 47.4898 84.01 48.0937 84.01H78.9713C79.5753 84.01 80.065 83.5204 80.065 82.9163V72.9969C80.065 68.9636 76.7837 65.6823 72.7503 65.6823ZM52.4281 35.5541L52.4976 35.292C52.6735 34.628 53.3197 34.1966 53.9991 34.2896C55.7507 34.5283 57.5594 34.6254 60.4113 33.2133C62.4179 32.22 64.1073 31.9437 65.2973 32.4147C66.3027 32.8126 66.8053 33.6768 67.0499 34.3316C67.8341 36.4314 68.7191 37.5241 69.8352 37.7706C71.0776 38.0447 71.9973 37.1368 72.3901 36.7492C72.6016 36.5404 73.0058 36.1957 73.3179 36.2346C73.6285 36.2727 74.0038 36.6485 74.4331 37.3517C74.4992 37.4597 74.5467 37.5378 74.6078 37.616C75.8913 39.2609 75.6804 41.8496 75.118 44.0887C74.9882 44.0344 74.8456 44.0043 74.696 44.0043H74.4168C71.827 44.0043 69.4012 42.8544 67.761 40.8495C67.3491 40.3199 66.4797 40.3199 66.0679 40.8495C64.4279 42.8544 62.002 44.0043 59.4122 44.0043H52.369C52.254 44.0043 52.1434 44.022 52.0392 44.0549C51.0411 40.7808 51.6096 38.6385 52.4281 35.5541ZM53.4626 46.1918H59.4122C62.2404 46.1918 64.9127 45.0987 66.9145 43.1562C68.723 44.9111 71.0786 45.9727 73.6023 46.1614V48.8709C73.6023 49.446 74.0476 49.9229 74.6212 49.9622C76.5681 50.1582 76.5421 52.9367 74.5879 53.0874C74.0449 53.1131 73.6033 53.5337 73.551 54.0747C73.2143 57.5538 71.0787 61.2713 66.0946 61.2713C65.5792 61.2713 65.1338 61.6311 65.0254 62.1348C65.0178 62.1701 64.8385 63.0094 64.7603 63.9836C64.6363 65.5267 64.8206 66.5448 65.3399 67.188C65.6485 67.5701 66.071 67.8031 66.5461 67.8574C65.7246 70.9647 61.3393 70.9626 60.519 67.8574C60.9941 67.8031 61.4166 67.5701 61.7252 67.188C62.2445 66.5448 62.4288 65.5267 62.3047 63.9836C62.2265 63.0094 62.0473 62.1701 62.0396 62.1348C61.9312 61.6311 61.4858 61.2713 60.9705 61.2713C54.8306 61.2713 53.7087 56.2425 53.5114 54.0805C53.4619 53.5374 53.0199 53.1139 52.4752 53.0873C50.5211 52.9335 50.4992 50.1573 52.4437 49.9622C53.0174 49.9229 53.4626 49.446 53.4626 48.8709V46.1918ZM77.8775 81.8225H74.1591V73.849C74.1014 72.3978 72.0289 72.3989 71.9716 73.849V81.8225H55.0935V73.849C55.0358 72.3978 52.9633 72.3989 52.906 73.849V81.8225H49.1875V72.9969C49.1875 70.1698 51.4875 67.8699 54.3148 67.8699H58.2932C59.3175 73.8649 67.7499 73.8605 68.7719 67.8699H72.7503C75.5775 67.8699 77.8775 70.1698 77.8775 72.9969V81.8225Z" fill="#5531D2"/>
</svg>
