<svg width="128" height="114" viewBox="0 0 128 114" fill="none" xmlns="http://www.w3.org/2000/svg">
<rect width="128" height="114" rx="20" fill="#F8E4FF"/>
<g clip-path="url(#clip0_1186_562)">
<path d="M80.4895 76.2185C78.8919 76.2185 50.1771 76.2185 48.5837 76.2185V54.2549H80.4326V67.0889L77.8634 69.6571C77.1131 70.4074 76.738 71.3918 76.738 72.375C76.738 74.4725 78.4128 76.1684 80.4895 76.2185Z" fill="#43CDD7"/>
<path d="M87.5705 75.1245H84.8144C86.1869 73.7521 89.7038 70.2351 91.0617 68.8771C92.9923 66.947 92.9926 63.825 91.0618 61.8944C89.1373 59.9699 86.0051 59.97 84.079 61.8944L81.5263 64.447V48.763C81.5263 46.3434 79.5578 44.3748 77.1382 44.3748H74.3922V41.0669H77.6868C78.2908 41.0669 78.7805 40.5771 78.7805 39.9732V33.3885C78.7805 30.9686 76.8119 29 74.3922 29H54.6244C52.2047 29 50.2361 30.9686 50.2361 33.3885V39.9732C50.2361 40.5771 50.7259 41.0669 51.3298 41.0669H54.6244V44.3748H51.8792C49.459 44.3748 47.49 46.3434 47.49 48.763V80.6119C47.49 83.0315 49.459 85 51.8792 85H87.5705C90.2978 85 92.5086 82.7924 92.5086 80.0628C92.5087 77.3398 90.2935 75.1245 87.5705 75.1245ZM85.6256 63.4415C86.6985 62.3694 88.4434 62.3695 89.515 63.4413C90.5904 64.5167 90.591 66.2545 89.5149 67.3304L86.7938 70.0515L82.9046 66.1623L85.6256 63.4415ZM74.3878 31.1875H74.3922C75.6058 31.1875 76.593 32.1748 76.593 33.3885V38.8794H74.3878V31.1875ZM69.9949 31.1875H72.2003V38.8794H69.9949V31.1875ZM65.6021 31.1875H67.8074V38.8794H65.6021V31.1875ZM61.2092 31.1875H63.4146V38.8794H61.2092V31.1875ZM56.8163 31.1875H59.0217V38.8794H56.8163V31.1875ZM56.8119 41.0669H72.2047V44.3748H56.8119V41.0669ZM52.4236 38.8794V33.3885C52.4236 32.1748 53.4108 31.1875 54.6244 31.1875H54.6288V38.8794H52.4236ZM73.5946 82.8125H51.8792C50.6651 82.8125 49.6775 81.8254 49.6775 80.6119V48.763C49.6775 47.5495 50.6651 46.5623 51.8792 46.5623C54.3241 46.5623 72.8654 46.5626 77.1382 46.5623C78.3517 46.5623 79.3388 47.5495 79.3388 48.763V66.6356L77.09 68.8834C75.3347 70.6388 75.1968 73.347 76.5692 75.2523C75.677 75.4579 74.8582 75.9081 74.196 76.5713C72.5057 78.2617 72.2838 80.8707 73.5946 82.8125ZM81.5351 82.8125C77.4983 82.81 77.6505 82.8183 77.4813 82.8051C76.0153 82.689 74.9366 81.4641 74.9366 80.0629C74.9366 78.5678 76.1453 77.3121 77.6873 77.3121C80.665 77.3129 81.3169 77.3121 81.5351 77.3121V82.8125ZM80.5092 75.1245C79.0301 75.0853 77.8317 73.8782 77.8317 72.3748C77.8317 71.64 78.1176 70.9495 78.6366 70.4304C78.6483 70.4187 80.7818 68.2853 81.3578 67.7092L85.2469 71.5983L82.5258 74.3195C81.6444 75.201 80.5294 75.1205 80.5092 75.1245ZM87.5705 82.8125H83.7225V77.312H87.5705C89.0872 77.312 90.3211 78.546 90.3211 80.0628C90.3212 81.5785 89.0941 82.8125 87.5705 82.8125Z" fill="#5531D2"/>
<path d="M69.9994 61.9457H67.7987V59.7451C67.7987 59.141 67.309 58.6514 66.705 58.6514H62.3114C61.7074 58.6514 61.2176 59.141 61.2176 59.7451V61.9457H59.017C58.4131 61.9457 57.9233 62.4355 57.9233 63.0395V67.4331C57.9233 68.0372 58.4131 68.5268 59.017 68.5268H61.2176V70.7275C61.2176 71.3314 61.7074 71.8212 62.3114 71.8212H66.705C67.309 71.8212 67.7987 71.3314 67.7987 70.7275V68.5268H69.9994C70.6033 68.5268 71.0931 68.0372 71.0931 67.4331V63.0395C71.0931 62.4354 70.6034 61.9457 69.9994 61.9457ZM68.9056 66.3393H66.705C66.1009 66.3393 65.6112 66.8291 65.6112 67.4331V69.6337H63.4051V67.4331C63.4051 66.8291 62.9154 66.3393 62.3114 66.3393H60.1108V64.1332H62.3114C62.9154 64.1332 63.4051 63.6435 63.4051 63.0395V60.8389H65.6112V63.0395C65.6112 63.6435 66.1009 64.1332 66.705 64.1332H68.9056V66.3393Z" fill="#5531D2"/>
</g>
<defs>
<clipPath id="clip0_1186_562">
<rect width="46" height="56" fill="white" transform="translate(47 29)"/>
</clipPath>
</defs>
</svg>
