<svg width="128" height="114" viewBox="0 0 128 114" fill="none" xmlns="http://www.w3.org/2000/svg">
<rect width="128" height="114" rx="20" fill="#F8E4FF"/>
<g clip-path="url(#clip0_1186_1614)">
<path d="M64 60.9634C70.6447 60.9634 76.0312 55.5768 76.0312 48.9321C76.0312 42.2875 70.6447 36.9009 64 36.9009C57.3553 36.9009 51.9688 42.2875 51.9688 48.9321C51.9688 55.5768 57.3553 60.9634 64 60.9634Z" fill="#43CDD7"/>
<path d="M69.759 45.8948L66.4573 45.415L64.9808 42.4231C64.7965 42.0497 64.4164 41.8135 64 41.8135C63.5836 41.8135 63.2034 42.0497 63.0191 42.4231L61.5426 45.415L58.2409 45.8948C57.8288 45.9546 57.4866 46.2434 57.358 46.6393C57.2292 47.0351 57.3366 47.4699 57.6347 47.7604L60.0239 50.0891L59.4598 53.3776C59.3895 53.7877 59.5582 54.2024 59.895 54.4472C60.2317 54.6919 60.6783 54.724 61.0469 54.5305L64 52.9779L66.9531 54.5305C67.1131 54.6145 67.2879 54.6561 67.4619 54.6561C67.6887 54.6561 67.9144 54.5855 68.1049 54.4472C68.4417 54.2024 68.6104 53.7877 68.54 53.3776L67.976 50.0891L70.3652 47.7604C70.6633 47.4699 70.7706 47.0351 70.642 46.6393C70.5133 46.2433 70.171 45.9546 69.759 45.8948ZM66.0374 48.9239C65.7796 49.1754 65.6621 49.5372 65.723 49.8921L66.0095 51.5628L64.5089 50.7741C64.3497 50.6904 64.1748 50.6486 64.0001 50.6486C63.8252 50.6486 63.6504 50.6905 63.4912 50.7741L61.9907 51.5628L62.2772 49.8921C62.3381 49.5373 62.2204 49.1754 61.9627 48.9239L60.7487 47.7409L62.4263 47.4971C62.7825 47.4452 63.0904 47.2215 63.2498 46.8988L64 45.3787L64.7502 46.8988C64.9094 47.2215 65.2174 47.4452 65.5737 47.4971L67.2512 47.7409L66.0374 48.9239Z" fill="#5531D2"/>
<path d="M91.769 77.6561L79.4971 61.9061L80.384 61.4996C80.7313 61.3404 80.9702 61.0117 81.0147 60.6322L81.7092 54.6863L84.6411 49.4679C84.828 49.1351 84.828 48.729 84.6411 48.3963L81.7092 43.178L81.0147 37.232C80.9703 36.8526 80.7313 36.5238 80.384 36.3644L74.9421 33.87L70.8903 29.463C70.6312 29.1813 70.2439 29.0551 69.8686 29.1311L64.0001 30.3161L58.1314 29.1311C57.7563 29.0551 57.3687 29.1811 57.1097 29.463L53.0579 33.87L47.6159 36.3644C47.2687 36.5238 47.0297 36.8526 46.9853 37.232L46.2907 43.178L43.3588 48.3963C43.1719 48.729 43.1719 49.1351 43.3588 49.4679L46.2907 54.6863L46.9853 60.6322C47.0296 61.0117 47.2687 61.3404 47.6159 61.4996L48.5029 61.9061L36.231 77.6561C35.9477 78.0197 35.9228 78.5219 36.1686 78.9118C36.4146 79.3017 36.8787 79.4956 37.3286 79.3965L46.1307 77.4619L47.0579 83.9518C47.1349 84.4908 47.5968 84.8911 48.141 84.8911C48.5601 84.8908 48.9488 84.6497 49.1308 84.2615L56.7535 68.0135L57.1097 68.401C57.37 68.6841 57.7587 68.8087 58.1314 68.7328L64 67.5478L69.8686 68.7328C70.6779 68.8977 71.0534 68.1669 71.2465 68.0135L78.8691 84.2615C79.0512 84.6497 79.4399 84.8911 79.8589 84.8911C80.407 84.8898 80.8654 84.4883 80.9421 83.9518L81.8692 77.4619L90.6715 79.3965C91.1216 79.4952 91.5854 79.3017 91.8313 78.9118C92.0773 78.5219 92.0524 78.0197 91.769 77.6561ZM48.7055 80.0176L48.1296 75.9862C48.04 75.3584 47.4349 74.9358 46.812 75.0726L39.8197 76.6093L50.5462 62.8428L53.0579 63.994L55.1535 66.2734L48.7055 80.0176ZM69.6972 66.4667L64.2165 65.36C64.0764 65.3318 63.9299 65.3304 63.7834 65.36L58.3027 66.4667L54.5191 62.3513C54.4207 62.2442 54.3019 62.158 54.1698 62.0973L49.0868 59.7673L48.4383 54.2148C48.4215 54.0711 48.3764 53.9319 48.3055 53.8059L45.567 48.9321L48.3053 44.0582C48.3762 43.932 48.4214 43.7931 48.4381 43.6494L49.0866 38.0966L54.1696 35.7666C54.3017 35.7059 54.4205 35.6196 54.5189 35.5126L58.3025 31.3974L63.7832 32.5039C63.9262 32.5328 64.0734 32.5328 64.2163 32.5039L69.697 31.3974L73.4806 35.5126C73.579 35.6197 73.6978 35.706 73.8301 35.7666L78.913 38.0966L79.5616 43.6494C79.5784 43.7931 79.6235 43.932 79.6944 44.0582L82.4327 48.9321L79.6944 53.8059C79.6237 53.9319 79.5784 54.0711 79.5616 54.2148L78.913 59.7673L73.8301 62.0973C73.6978 62.158 73.579 62.2443 73.4806 62.3513L69.6972 66.4667ZM81.1879 75.0726C80.5646 74.9356 79.9599 75.3587 79.8704 75.9862L79.2944 80.0176L72.8463 66.2736L74.9421 63.994L77.4538 62.8428L88.1802 76.6093L81.1879 75.0726Z" fill="#5531D2"/>
</g>
<defs>
<clipPath id="clip0_1186_1614">
<rect width="56" height="56" fill="white" transform="translate(36 29)"/>
</clipPath>
</defs>
</svg>
