<svg width="128" height="114" viewBox="0 0 128 114" fill="none" xmlns="http://www.w3.org/2000/svg">
<rect width="128" height="114" rx="20" fill="#F8E4FF"/>
<path d="M78.7656 38.8438V79.5312H49.2344V38.8438H54.7031V41.0312H73.2969V38.8438H78.7656Z" fill="#43CDD7"/>
<path d="M79.75 33.375C78.6765 33.375 71.3344 33.375 70.1884 33.375C69.2749 30.7935 66.8015 29 64 29C61.1985 29 58.725 30.7935 57.8116 33.375C56.685 33.375 49.312 33.375 48.25 33.375C45.7774 33.375 43.7656 35.3867 43.7656 37.8594V80.5156C43.7656 82.9883 45.7774 85 48.25 85H79.75C82.2226 85 84.2344 82.9883 84.2344 80.5156V37.8594C84.2344 35.3867 82.2226 33.375 79.75 33.375ZM58.6408 35.5625C59.161 35.5625 59.6093 35.1961 59.7127 34.6863C60.1242 32.6589 61.9273 31.1875 64 31.1875C66.0727 31.1875 67.8757 32.6589 68.2873 34.6863C68.3907 35.1961 68.839 35.5625 69.3592 35.5625H72.2031V39.9375H55.7969V35.5625H58.6408ZM82.0469 80.5156C82.0469 81.7821 81.0165 82.8125 79.75 82.8125H48.25C46.9835 82.8125 45.9531 81.7821 45.9531 80.5156V37.8594C45.9531 36.5929 46.9835 35.5625 48.25 35.5625H53.6094V41.0312C53.6094 41.6352 54.099 42.125 54.7031 42.125H73.2969C73.9008 42.125 74.3906 41.6352 74.3906 41.0312V35.5625H79.75C81.0165 35.5625 82.0469 36.5929 82.0469 37.8594V80.5156Z" fill="#5531D2"/>
<path d="M55.0235 51.7578C55.4508 52.1849 56.143 52.1848 56.5704 51.7578L60.9454 47.3828C61.3725 46.9557 61.3725 46.2631 60.9454 45.8359C60.5181 45.4089 59.8258 45.4089 59.3985 45.8359L55.7969 49.4375L54.3828 48.0234C53.9555 47.5964 53.2632 47.5964 52.8359 48.0234C52.4088 48.4505 52.4088 49.143 52.8359 49.5703L55.0235 51.7578Z" fill="#5531D2"/>
<path d="M74.3906 48.7969H63.4531C62.849 48.7969 62.3594 49.2865 62.3594 49.8906C62.3594 50.4947 62.849 50.9844 63.4531 50.9844H74.3906C74.9946 50.9844 75.4844 50.4947 75.4844 49.8906C75.4844 49.2865 74.9946 48.7969 74.3906 48.7969Z" fill="#5531D2"/>
<path d="M55.0235 60.5078C55.4508 60.9349 56.143 60.9348 56.5704 60.5078L60.9454 56.1328C61.3725 55.7057 61.3725 55.0131 60.9454 54.5859C60.5181 54.1589 59.8258 54.1589 59.3985 54.5859L55.7969 58.1875L54.3828 56.7734C53.9555 56.3464 53.2632 56.3464 52.8359 56.7734C52.4088 57.2005 52.4088 57.893 52.8359 58.3203L55.0235 60.5078Z" fill="#5531D2"/>
<path d="M74.3906 57.5469H63.4531C62.849 57.5469 62.3594 58.0367 62.3594 58.6406C62.3594 59.2446 62.849 59.7344 63.4531 59.7344H74.3906C74.9946 59.7344 75.4844 59.2446 75.4844 58.6406C75.4844 58.0367 74.9946 57.5469 74.3906 57.5469Z" fill="#5531D2"/>
<path d="M55.0235 69.2578C55.4508 69.6849 56.143 69.6848 56.5704 69.2578L60.9454 64.8828C61.3725 64.4557 61.3725 63.7631 60.9454 63.3359C60.5181 62.9089 59.8258 62.9089 59.3985 63.3359L55.7969 66.9375L54.3828 65.5234C53.9555 65.0964 53.2632 65.0964 52.8359 65.5234C52.4088 65.9505 52.4088 66.643 52.8359 67.0703L55.0235 69.2578Z" fill="#5531D2"/>
<path d="M74.3906 66.2969H63.4531C62.849 66.2969 62.3594 66.7867 62.3594 67.3906C62.3594 67.9946 62.849 68.4844 63.4531 68.4844H74.3906C74.9946 68.4844 75.4844 67.9946 75.4844 67.3906C75.4844 66.7867 74.9946 66.2969 74.3906 66.2969Z" fill="#5531D2"/>
<path d="M74.3906 72.9688H53.6094C53.0053 72.9688 52.5156 73.4585 52.5156 74.0625C52.5156 74.6665 53.0053 75.1562 53.6094 75.1562H74.3906C74.9946 75.1562 75.4844 74.6665 75.4844 74.0625C75.4844 73.4585 74.9946 72.9688 74.3906 72.9688Z" fill="#5531D2"/>
</svg>
