<svg width="1440" height="750" viewBox="0 0 1440 750" fill="none" xmlns="http://www.w3.org/2000/svg">
<g clip-path="url(#clip0_1_860)">
<g opacity="0.2">
<path d="M1077.75 -55.9538H1325.12C1326.78 -55.9538 1328.12 -54.6095 1328.12 -52.9538V489.791C1328.12 491.447 1326.78 492.791 1325.12 492.791H1077.75C1076.09 492.791 1074.75 491.447 1074.75 489.791V-52.9538C1074.75 -54.6095 1076.09 -55.9538 1077.75 -55.9538Z" fill="#FFEA30"/>
</g>
<path d="M1323.14 497.747C1328.67 497.747 1333.14 493.27 1333.14 487.747V420.012H1323.14V487.747H1249.77V497.747H1323.14ZM1069.14 487.748C1069.14 493.271 1073.61 497.748 1079.14 497.748H1146.87V487.748H1079.14V397.434H1069.14V487.748Z" fill="#FFEA30"/>
<g opacity="0.2">
<path d="M1325.59 1070.62H1078.21C1076.56 1070.62 1075.21 1069.28 1075.21 1067.62V524.875C1075.21 523.22 1076.56 521.875 1078.21 521.875H1325.59C1327.24 521.875 1328.59 523.22 1328.59 524.875V1067.62C1328.59 1069.28 1327.24 1070.62 1325.59 1070.62Z" fill="#FFEA30"/>
</g>
<path d="M1080.19 516.919C1074.67 516.919 1070.19 521.396 1070.19 526.919V594.654H1080.19V526.919H1153.57V516.919H1080.19ZM1334.2 526.918C1334.2 521.395 1329.72 516.918 1324.2 516.918H1256.46V526.918H1324.2V617.232H1334.2V526.918Z" fill="#FFEA30"/>
<g opacity="0.999991">
<path d="M1262.39 519.387H1325.97V596.955H1323.97V521.387H1262.39V519.387ZM1074.49 596.29V520.719H1140.07V522.719H1076.49V596.29H1074.49Z" fill="#FFEA30"/>
</g>
<path d="M24.0361 13.8906L26.3604 19.6914L28.6846 13.8906H29.9004V21H28.9629V18.2314L29.0508 15.2432L26.7168 21H25.999L23.6699 15.2578L23.7627 18.2314V21H22.8252V13.8906H24.0361ZM36.9693 19.1445H33.9908L33.3219 21H32.3551L35.0699 13.8906H35.8902L38.61 21H37.648L36.9693 19.1445ZM34.274 18.373H36.691L35.4801 15.0479L34.274 18.373ZM42.8127 17.8066H41.9484V21H41.0109V13.8906H41.9484V17.0254H42.6809L45.1662 13.8906H46.3332L43.6184 17.3379L46.5334 21H45.3859L42.8127 17.8066ZM52.8113 17.7139H49.7303V20.2334H53.3094V21H48.7928V13.8906H53.2605V14.6621H49.7303V16.9473H52.8113V17.7139ZM60.8861 14.6621H58.601V21H57.6684V14.6621H55.3881V13.8906H60.8861V14.6621ZM68.8717 17.8066H68.0074V21H67.0699V13.8906H68.0074V17.0254H68.7398L71.2252 13.8906H72.3922L69.6773 17.3379L72.5924 21H71.4449L68.8717 17.8066ZM78.7775 19.1445H75.799L75.1301 21H74.1633L76.8781 13.8906H77.6984L80.4182 21H79.4562L78.7775 19.1445ZM76.0822 18.373H78.4992L77.2883 15.0479L76.0822 18.373ZM88.2391 21H87.2967V17.7139H83.7127V21H82.7752V13.8906H83.7127V16.9473H87.2967V13.8906H88.2391V21ZM95.3178 19.1445H92.3393L91.6703 21H90.7035L93.4184 13.8906H94.2387L96.9584 21H95.9965L95.3178 19.1445ZM92.6225 18.373H95.0395L93.8285 15.0479L92.6225 18.373ZM104.779 13.8906V21H103.842V14.6621H101.293L101.166 17.4795C101.117 18.4235 101.02 19.1331 100.873 19.6084C100.73 20.0837 100.518 20.4336 100.238 20.6582C99.9583 20.8796 99.584 20.9935 99.1152 21H98.8076V20.2334L99.0029 20.2236C99.3057 20.2008 99.5384 20.1032 99.7012 19.9307C99.8639 19.7549 99.9876 19.4766 100.072 19.0957C100.157 18.7148 100.217 18.1289 100.253 17.3379L100.399 13.8906H104.779ZM111.897 19.1445H108.919L108.25 21H107.283L109.998 13.8906H110.818L113.538 21H112.576L111.897 19.1445ZM109.202 18.373H111.619L110.408 15.0479L109.202 18.373ZM127.436 18.5488C127.397 19.3366 127.202 19.9583 126.85 20.4141C126.499 20.8698 126.028 21.0977 125.439 21.0977C124.831 21.0977 124.44 20.8242 124.267 20.2773C124.092 20.554 123.89 20.7607 123.662 20.8975C123.437 21.0309 123.205 21.0977 122.964 21.0977C122.501 21.0977 122.151 20.9089 121.914 20.5312C121.676 20.1536 121.588 19.6312 121.65 18.9639C121.699 18.4268 121.821 17.9482 122.016 17.5283C122.215 17.1051 122.469 16.7731 122.778 16.5322C123.091 16.2913 123.418 16.1709 123.76 16.1709C124.023 16.1709 124.259 16.2067 124.468 16.2783C124.676 16.3467 124.91 16.4834 125.171 16.6885L124.917 19.3936C124.855 20.1455 125.063 20.5215 125.542 20.5215C125.91 20.5215 126.207 20.3392 126.435 19.9746C126.663 19.61 126.787 19.1348 126.806 18.5488C126.868 17.2826 126.632 16.3174 126.098 15.6533C125.568 14.9893 124.759 14.6572 123.672 14.6572C123.017 14.6572 122.436 14.82 121.929 15.1455C121.421 15.4678 121.02 15.9349 120.727 16.5469C120.434 17.1589 120.27 17.8652 120.234 18.666C120.195 19.4733 120.293 20.1748 120.527 20.7705C120.762 21.363 121.118 21.8154 121.596 22.1279C122.078 22.4437 122.659 22.6016 123.34 22.6016C123.633 22.6016 123.926 22.5658 124.219 22.4941C124.515 22.4225 124.761 22.3298 124.956 22.2158L125.137 22.7773C124.935 22.9043 124.666 23.0085 124.331 23.0898C123.999 23.1712 123.662 23.2119 123.32 23.2119C122.506 23.2119 121.806 23.028 121.221 22.6602C120.635 22.2956 120.195 21.7682 119.902 21.0781C119.612 20.3913 119.487 19.5872 119.526 18.666C119.565 17.7708 119.765 16.9668 120.127 16.2539C120.488 15.5378 120.978 14.986 121.596 14.5986C122.215 14.208 122.913 14.0127 123.691 14.0127C124.502 14.0127 125.197 14.195 125.776 14.5596C126.356 14.9242 126.787 15.4499 127.07 16.1367C127.353 16.8236 127.475 17.6276 127.436 18.5488ZM122.427 18.9639C122.381 19.4261 122.423 19.7809 122.554 20.0283C122.687 20.2757 122.897 20.3994 123.183 20.3994C123.379 20.3994 123.566 20.3164 123.745 20.1504C123.927 19.9844 124.077 19.7467 124.194 19.4375L124.199 19.3936L124.424 16.9375C124.241 16.8431 124.046 16.7959 123.838 16.7959C123.457 16.7959 123.141 16.9896 122.89 17.377C122.643 17.7643 122.488 18.2933 122.427 18.9639ZM134.08 17.8604H131.097V21H130.16V13.8906H134.564V14.6621H131.097V17.0938H134.08V17.8604ZM138.093 21H137.155V13.8906H138.093V21ZM146.461 20.0674C146.22 20.4124 145.883 20.6712 145.45 20.8438C145.02 21.013 144.519 21.0977 143.946 21.0977C143.366 21.0977 142.852 20.9626 142.403 20.6924C141.954 20.4189 141.605 20.0316 141.358 19.5303C141.114 19.029 140.989 18.4479 140.982 17.7871V17.167C140.982 16.096 141.231 15.266 141.729 14.6768C142.23 14.0876 142.934 13.793 143.838 13.793C144.581 13.793 145.178 13.9834 145.63 14.3643C146.083 14.7419 146.36 15.279 146.461 15.9756H145.523C145.347 15.0348 144.787 14.5645 143.843 14.5645C143.215 14.5645 142.738 14.7858 142.413 15.2285C142.09 15.668 141.928 16.306 141.924 17.1426V17.7236C141.924 18.5212 142.107 19.1559 142.471 19.6279C142.836 20.0967 143.329 20.3311 143.951 20.3311C144.302 20.3311 144.61 20.292 144.874 20.2139C145.137 20.1357 145.355 20.0039 145.528 19.8184V18.2217H143.882V17.46H146.461V20.0674ZM150.639 13.8906L152.963 19.6914L155.287 13.8906H156.503V21H155.566V18.2314L155.654 15.2432L153.32 21H152.602L150.273 15.2578L150.365 18.2314V21H149.428V13.8906H150.639ZM163.572 19.1445H160.594L159.925 21H158.958L161.673 13.8906H162.493L165.213 21H164.251L163.572 19.1445ZM160.877 18.373H163.294L162.083 15.0479L160.877 18.373ZM171.994 21H167.335V20.3506L169.796 17.6162C170.161 17.2028 170.412 16.8675 170.548 16.6104C170.688 16.3499 170.758 16.0814 170.758 15.8047C170.758 15.4336 170.646 15.1292 170.421 14.8916C170.197 14.654 169.897 14.5352 169.523 14.5352C169.074 14.5352 168.724 14.6637 168.473 14.9209C168.226 15.1748 168.102 15.5296 168.102 15.9854H167.199C167.199 15.3311 167.409 14.8021 167.829 14.3984C168.252 13.9948 168.816 13.793 169.523 13.793C170.184 13.793 170.706 13.9671 171.09 14.3154C171.474 14.6605 171.666 15.1211 171.666 15.6973C171.666 16.3971 171.22 17.2305 170.329 18.1973L168.424 20.2627H171.994V21ZM180.049 21H179.106V17.7139H175.522V21H174.585V13.8906H175.522V16.9473H179.106V13.8906H180.049V21ZM187.879 14.6621H185.594V21H184.662V14.6621H182.381V13.8906H187.879V14.6621ZM191.545 13.8906L193.869 19.6914L196.194 13.8906H197.409V21H196.472V18.2314L196.56 15.2432L194.226 21H193.508L191.179 15.2578L191.272 18.2314V21H190.334V13.8906H191.545ZM201.407 20.2334H204.776V21H200.465V13.8906H201.407V20.2334Z" fill="#E4E4E4"/>
</g>
<defs>
<clipPath id="clip0_1_860">
<rect width="1440" height="750" fill="white"/>
</clipPath>
</defs>
</svg>
