<svg width="265" height="554" viewBox="0 0 265 554" fill="none" xmlns="http://www.w3.org/2000/svg">
<g opacity="0.2">
<path d="M255.398 553.702H8.02295C6.36725 553.702 5.02295 552.357 5.02295 550.702V7.95673C5.02295 6.30103 6.36725 4.95673 8.02295 4.95673H255.398C257.053 4.95673 258.398 6.30103 258.398 7.95673V550.702C258.398 552.357 257.053 553.702 255.398 553.702Z" fill="#FFEA30"/>
</g>
<path d="M9.99988 0.000938416C4.47687 0.000938416 -0.00012207 4.47793 -0.00012207 10.0009V77.7359H9.99988V10.0009H83.3789V0.000938416H9.99988ZM264.008 9.99993C264.008 4.47694 259.531 -6.10352e-05 254.008 -6.10352e-05H186.273V9.99993H254.008V100.314H264.008V9.99993Z" fill="#FFEA30"/>
</svg>
