<svg width="198" height="429" viewBox="0 0 198 429" fill="none" xmlns="http://www.w3.org/2000/svg">
<path d="M64.436 16.91C71.203 15.2361 82.733 13.2211 95.261 12.6331C107.806 12.0441 121.247 12.8931 131.896 16.8761L132.597 15.0031C121.574 10.8811 107.817 10.0421 95.168 10.6351C82.502 11.229 70.842 13.2661 63.956 14.9691L64.436 16.91ZM166.338 33.9591C166.577 35.391 166.612 37.5751 165.845 39.421C165.454 40.361 164.839 41.2521 163.901 41.882C162.956 42.5171 161.764 42.833 160.322 42.757C158.328 42.6521 156.607 41.3041 155.144 39.6831C153.656 38.0341 152.249 35.891 150.923 33.839C150.835 33.703 150.747 33.5671 150.66 33.432C149.409 31.494 148.231 29.6681 147.063 28.2881C146.442 27.5541 145.857 26.9881 145.307 26.6111C144.759 26.2361 144.298 26.0831 143.899 26.0831C140.819 26.0831 137.497 23.9401 135.046 20.9891C132.568 18.005 130.785 13.9731 130.964 9.84906L132.962 9.93605C132.809 13.4451 134.34 17.007 136.585 19.7111C138.857 22.4471 141.669 24.0831 143.899 24.0831C144.827 24.0831 145.679 24.4411 146.438 24.9611C147.194 25.479 147.91 26.1931 148.59 26.9961C149.845 28.4801 151.092 30.4131 152.318 32.313C152.413 32.46 152.508 32.6071 152.603 32.7541C153.944 34.8291 155.267 36.8341 156.629 38.3431C158.016 39.88 159.267 40.699 160.427 40.7601C161.508 40.8171 162.256 40.5791 162.786 40.2221C163.324 39.861 163.72 39.3231 163.998 38.6531C164.569 37.279 164.569 35.5131 164.365 34.2891L166.338 33.9591ZM31.074 33.9591C30.835 35.391 30.8 37.5751 31.567 39.421C31.958 40.361 32.573 41.2521 33.511 41.882C34.456 42.5171 35.648 42.833 37.09 42.757C39.084 42.6521 40.805 41.3041 42.268 39.6831C43.756 38.0341 45.164 35.891 46.49 33.839C46.578 33.703 46.666 33.5671 46.753 33.432C48.004 31.494 49.182 29.6681 50.35 28.2881C50.971 27.5541 51.555 26.9881 52.105 26.6111C52.653 26.2361 53.115 26.0831 53.514 26.0831C56.594 26.0831 59.915 23.9401 62.366 20.9891C64.844 18.005 66.627 13.9731 66.448 9.84906L64.45 9.93605C64.603 13.4451 63.073 17.007 60.828 19.7111C58.556 22.4471 55.744 24.0831 53.514 24.0831C52.586 24.0831 51.734 24.4411 50.975 24.9611C50.219 25.479 49.503 26.1931 48.823 26.9961C47.568 28.4801 46.32 30.4131 45.094 32.313C44.999 32.46 44.905 32.6071 44.81 32.7541C43.469 34.8291 42.146 36.8341 40.784 38.3431C39.397 39.88 38.145 40.699 36.985 40.7601C35.904 40.8171 35.157 40.5791 34.627 40.2221C34.089 39.861 33.692 39.3231 33.414 38.6531C32.843 37.279 32.843 35.5131 33.047 34.2891L31.074 33.9591ZM154.094 323.24C154.094 322.146 153.06 321.31 151.956 321.547C139.834 324.154 116.911 327.65 98.05 328.357L97.975 326.359C116.698 325.658 139.503 322.178 151.535 319.591C153.85 319.093 156.094 320.837 156.094 323.24V381.916C156.094 383.558 155.011 385.019 153.406 385.454C142.29 388.468 118.227 393.584 96.604 393.584V391.584C117.979 391.584 141.85 386.515 152.882 383.524C153.595 383.331 154.094 382.676 154.094 381.916V323.24ZM42.694 323.24C42.694 322.146 43.728 321.31 44.832 321.547C56.954 324.154 79.876 327.65 98.737 328.357L98.812 326.359C80.089 325.658 57.284 322.178 45.252 319.591C42.937 319.093 40.694 320.837 40.694 323.24V381.916C40.694 383.558 41.777 385.019 43.382 385.454C54.498 388.468 78.56 393.584 100.183 393.584V391.584C78.808 391.584 54.937 386.515 43.905 383.524C43.192 383.331 42.694 382.676 42.694 381.916V323.24ZM168.428 233.596C169.51 233.242 170.623 234.048 170.623 235.187V326.63C170.623 328.201 168.535 329.003 167.605 327.516C163.768 321.377 157.504 308.422 155.898 293.611L155.892 293.557V238.908C155.892 238.184 156.358 237.542 157.046 237.317L168.428 233.596ZM168.623 325.34V235.637L157.892 239.145V293.449C159.374 307.01 164.876 319.01 168.623 325.34ZM167.986 124.498C168.416 122.542 171.295 122.855 171.295 124.858V219.292C171.295 220.651 170.55 221.9 169.354 222.545L160.845 227.136C158.382 228.465 155.393 226.68 155.393 223.882V182.231C155.393 181.964 155.422 181.698 155.479 181.438L167.986 124.498ZM169.295 219.292V127.86L157.432 181.867C157.406 181.987 157.393 182.109 157.393 182.231V223.882C157.393 225.166 158.765 225.986 159.895 225.376L168.404 220.785C168.953 220.489 169.295 219.916 169.295 219.292ZM168.975 303.173L156.389 294.407L157.533 292.766L170.118 301.532L168.975 303.173ZM28.346 233.594C27.264 233.24 26.152 234.046 26.152 235.185V326.628C26.152 328.199 28.24 329.001 29.17 327.514C33.007 321.375 39.27 308.42 40.876 293.609L40.882 293.555V238.906C40.882 238.182 40.416 237.54 39.728 237.315L28.346 233.594ZM28.152 325.338V235.634L38.882 239.142V293.446C37.4 307.007 31.899 319.008 28.152 325.338ZM28.794 124.496C28.364 122.54 25.485 122.852 25.485 124.855V219.289C25.485 220.648 26.23 221.898 27.426 222.543L35.936 227.133C38.399 228.462 41.387 226.678 41.387 223.88V182.228C41.387 181.961 41.358 181.695 41.301 181.435L28.794 124.496ZM27.485 219.289V127.857L39.348 181.864C39.374 181.984 39.387 182.106 39.387 182.228V223.88C39.387 225.164 38.015 225.983 36.885 225.373L28.376 220.783C27.827 220.487 27.485 219.913 27.485 219.289ZM27.806 303.169L40.391 294.403L39.248 292.762L26.663 301.528L27.806 303.169ZM155.487 91.938C143.97 87.0611 123.005 80.68 98.503 80.3901L98.526 78.3901C123.34 78.684 144.563 85.1401 156.267 90.096C160.678 91.9641 163.441 96.175 163.976 100.839L165.235 111.811C165.399 113.236 165.35 114.677 165.09 116.088L156.832 160.882C155.511 168.05 149.068 173.119 141.79 172.717L98.393 170.32L98.503 168.323L141.9 170.72C148.173 171.067 153.726 166.698 154.865 160.52L163.123 115.726C163.347 114.51 163.389 113.267 163.248 112.039L161.989 101.067C161.525 97.022 159.148 93.488 155.487 91.938ZM41.41 91.938C52.927 87.0611 73.892 80.68 98.394 80.3901L98.37 78.3901C73.556 78.684 52.334 85.1401 40.63 90.096C36.219 91.9641 33.455 96.175 32.92 100.839L31.661 111.811C31.497 113.236 31.547 114.677 31.807 116.088L40.065 160.882C41.386 168.05 47.829 173.119 55.107 172.717L98.504 170.32L98.394 168.323L54.997 170.72C48.724 171.067 43.171 166.698 42.032 160.52L33.774 115.726C33.55 114.51 33.507 113.267 33.648 112.039L34.907 101.067C35.371 97.022 37.749 93.488 41.41 91.938ZM108.419 2.92706C105.168 2.31006 101.865 2.00006 98.556 2.00006H93.669V6.10352e-05H98.556C101.99 6.10352e-05 105.418 0.322052 108.792 0.962051L115.108 2.16005C119.709 3.03305 124.18 4.48906 128.411 6.49606L150.267 16.8611C151.749 17.5641 153.176 18.3791 154.535 19.298C160.318 23.2101 164.681 28.8871 166.975 35.481L171.034 47.1491L174.033 54.6481C176.628 61.1361 177.962 68.061 177.962 75.049V99.5301C177.962 102.554 177.688 105.572 177.145 108.546L176.496 112.098C176.406 112.59 176.361 113.09 176.361 113.591V122.667C176.361 123.637 177.289 124.337 178.222 124.071C178.692 123.937 179.184 123.903 179.667 123.973L182.62 124.4C185.21 124.774 187.724 125.704 189.88 127.253C192.248 128.954 194.13 130.552 196.388 133.117C197.018 133.833 197.346 134.75 197.346 135.682C197.346 138.356 194.75 140.263 192.198 139.462L187.94 138.126C187.371 137.947 186.826 137.699 186.318 137.387L176.928 131.62C176.694 131.476 176.394 131.647 176.398 131.922L178.267 256.139V338.509L171.186 389.794C170.185 397.046 166.991 403.819 162.032 409.205C156.914 414.764 150.174 418.566 142.77 420.072L123.211 424.05L123.21 424.051L109.187 426.926C105.556 427.671 101.859 428.046 98.153 428.046H93.435V426.046H98.153C101.724 426.046 105.286 425.684 108.785 424.967L122.81 422.091H122.811L142.372 418.113C149.364 416.691 155.728 413.099 160.561 407.85C165.243 402.764 168.259 396.368 169.205 389.52L176.267 338.372V256.147L174.398 131.952C174.37 130.1 176.397 128.946 177.975 129.915L187.365 135.683C187.733 135.909 188.127 136.089 188.539 136.218L192.797 137.554C194.06 137.95 195.346 137.006 195.346 135.682C195.346 135.215 195.181 134.773 194.887 134.439C192.744 132.005 190.979 130.506 188.713 128.878C186.848 127.538 184.645 126.713 182.334 126.379L179.381 125.952C179.177 125.923 178.969 125.937 178.771 125.994C176.561 126.625 174.361 124.966 174.361 122.667V113.591C174.361 112.97 174.417 112.349 174.529 111.738L175.178 108.186C175.7 105.33 175.962 102.433 175.962 99.5301V75.049C175.962 68.3151 174.677 61.643 172.176 55.391L169.16 47.8491L165.086 36.1381C162.934 29.951 158.841 24.6251 153.415 20.9551C152.14 20.0931 150.801 19.328 149.41 18.6681L127.554 8.30406C123.477 6.37106 119.169 4.96605 114.736 4.12506L108.419 2.92706ZM93.907 1.98306L93.534 0.0180511L82.238 2.16005C77.637 3.03305 73.166 4.49005 68.935 6.49705L47.079 16.8611C45.597 17.5641 44.17 18.3791 42.811 19.298C37.028 23.2101 32.665 28.8871 30.371 35.481L26.312 47.1491L23.313 54.6491C20.718 61.1371 19.384 68.061 19.384 75.049V99.5301C19.384 102.554 19.658 105.572 20.201 108.546L20.85 112.098C20.94 112.591 20.985 113.09 20.985 113.591V122.667C20.985 123.637 20.057 124.337 19.124 124.071C18.654 123.937 18.162 123.903 17.679 123.973L14.726 124.4C12.136 124.774 9.62199 125.705 7.46599 127.254C5.098 128.955 3.216 130.552 0.958 133.117C0.327995 133.833 0 134.75 0 135.682C0 138.356 2.59599 140.263 5.14799 139.462L9.406 138.126C9.975 137.947 10.52 137.699 11.028 137.387L20.418 131.62C20.652 131.476 20.952 131.647 20.948 131.922L19.079 256.139V338.509L26.16 389.794C27.161 397.046 30.355 403.819 35.314 409.205C40.432 414.764 47.172 418.566 54.576 420.072L74.135 424.05L74.136 424.051L93.52 428.025L93.922 426.066L74.536 422.091H74.535L54.974 418.113C47.982 416.691 41.618 413.099 36.785 407.85C32.103 402.764 29.087 396.368 28.141 389.52L21.079 338.372V256.147L22.948 131.952C22.976 130.1 20.949 128.946 19.371 129.915L9.98099 135.683C9.613 135.909 9.21899 136.089 8.807 136.218L4.549 137.554C3.28599 137.95 2 137.006 2 135.682C2 135.215 2.16499 134.773 2.459 134.439C4.602 132.005 6.367 130.506 8.63299 128.878C10.498 127.538 12.701 126.713 15.012 126.379L17.965 125.953C18.169 125.924 18.377 125.937 18.575 125.994C20.785 126.625 22.985 124.966 22.985 122.667V113.591C22.985 112.97 22.929 112.349 22.817 111.738L22.168 108.186C21.646 105.33 21.384 102.433 21.384 99.5301V75.049C21.384 68.3151 22.669 61.643 25.17 55.391L28.186 47.8491L32.26 36.1381C34.412 29.951 38.505 24.6251 43.931 20.9551C45.206 20.0931 46.545 19.3291 47.936 18.6691L69.792 8.30406C73.869 6.37106 78.177 4.96605 82.61 4.12506L93.907 1.98306Z" fill="#FFEA30"/>
</svg>
