<svg xmlns="http://www.w3.org/2000/svg" width="21" height="17" viewBox="0 0 21 17">
  <defs>
    <style>
      .cls-1 {
        fill: #1d1d1d;
        fill-rule: evenodd;
      }
    </style>
  </defs>
  <path id="Корзина" class="cls-1" d="M1194.96,84.825l-2.44,7.95a1.307,1.307,0,0,1-1.25.93h-9.43a1.347,1.347,0,0,1-1.25-.865L1177,82.879h-2.09a0.942,0.942,0,0,1,0-1.883h2.72a0.932,0.932,0,0,1,.85.633l3.73,10.193h8.68l1.95-6.354h-10.76a0.942,0.942,0,0,1,0-1.883h12a0.927,0.927,0,0,1,.74.4A1,1,0,0,1,1194.96,84.825ZM1182.31,94.96a1.486,1.486,0,0,0-1.05.444,1.559,1.559,0,0,0,0,2.15,1.464,1.464,0,0,0,2.1,0,1.559,1.559,0,0,0,0-2.15A1.486,1.486,0,0,0,1182.31,94.96Zm8.19,0a1.486,1.486,0,0,0-1.05.444,1.559,1.559,0,0,0,0,2.15,1.464,1.464,0,0,0,2.1,0,1.559,1.559,0,0,0,0-2.15A1.486,1.486,0,0,0,1190.5,94.96Z" transform="translate(-1174 -81)"/>
</svg>
