<svg width="32" height="32" fill="none" xmlns="http://www.w3.org/2000/svg"><path d="m30.713 9.713-3.775 3.762C26.188 22.213 18.813 29 10 29c-1.812 0-3.312-.287-4.45-.85-.912-.462-1.287-.95-1.387-1.1a1 1 0 0 1 .487-1.487c.025-.013 2.975-1.138 4.888-3.3a13.574 13.574 0 0 1-3.088-3.05C4.738 16.888 2.925 12.85 4.013 6.825A1.013 1.013 0 0 1 4.7 6.05a1 1 0 0 1 1.013.238c.037.05 4.2 4.15 9.287 5.475V11a6.039 6.039 0 0 1 6.075-6A6.025 6.025 0 0 1 26.2 8H30a1 1 0 0 1 .925.613 1.05 1.05 0 0 1-.212 1.1Z" fill="#D5E27B"/></svg>