<svg width="96" height="32" fill="none" xmlns="http://www.w3.org/2000/svg"><g clip-path="url('#clip0_1_743')"><mask id="mask0_1_743" style="mask-type:luminance" maskUnits="userSpaceOnUse" x="0" y="0" width="96" height="32"><path d="M95.731 0H0v32h95.731V0Z" fill="#fff"/></mask><g mask="url('#mask0_1_743')" fill="#fff"><path fill-rule="evenodd" clip-rule="evenodd" d="M7.628 0h80.48c.287 0 .58 0 .867.002.199 0 .402.004.603.008l.135.002c.536.006 1.07.053 1.6.141.53.09 1.045.26 1.526.502a5.173 5.173 0 0 1 2.24 2.24c.24.48.408.993.494 1.522.09.53.14 1.065.149 1.602.003.245.003.491.003.737.006.29.006.58.006.872v16.745c0 .295 0 .584-.006.874 0 .248 0 .489-.003.738-.01.536-.06 1.072-.149 1.601a5.283 5.283 0 0 1-.495 1.523 5.12 5.12 0 0 1-.945 1.292c-.378.381-.815.7-1.294.943a5.441 5.441 0 0 1-1.526.505 10.63 10.63 0 0 1-1.6.14c-.244.006-.494.01-.738.01l-.867.001H7.628c-.294 0-.583 0-.876-.002-.245 0-.488-.003-.735-.008a10.765 10.765 0 0 1-1.603-.141 5.36 5.36 0 0 1-1.521-.505 5.018 5.018 0 0 1-1.295-.943 4.967 4.967 0 0 1-.943-1.292 5.27 5.27 0 0 1-.5-1.523c-.089-.53-.137-1.065-.143-1.601-.005-.17-.007-.336-.009-.504L0 25.247V6.756l.003-.237c.002-.166.004-.333.01-.5.005-.537.053-1.072.142-1.602s.257-1.043.5-1.522A5.15 5.15 0 0 1 4.413.154 10.572 10.572 0 0 1 6.17.008c.195-.003.388-.006.582-.007C7.045 0 7.334 0 7.628 0ZM6.032 31.292c.242.005.48.008.724.008l81.352.002.867-.002c.238 0 .484-.003.718-.008.501-.007 1-.05 1.495-.13a4.69 4.69 0 0 0 1.335-.44c.414-.212.792-.488 1.12-.819.327-.324.6-.698.812-1.108.211-.42.357-.871.432-1.336.081-.49.127-.986.136-1.483.004-.245.004-.484.004-.744.006-.286.006-.57.006-.86V7.629c0-.288 0-.573-.007-.873 0-.243 0-.486-.002-.712-.01-.506-.056-1.011-.139-1.51a4.611 4.611 0 0 0-.428-1.32 4.475 4.475 0 0 0-1.932-1.935A4.75 4.75 0 0 0 91.188.84a9.908 9.908 0 0 0-1.486-.13l-.73-.01H6.755l-.722.01c-.502.006-1.004.05-1.5.131A4.452 4.452 0 0 0 .843 4.542 9.896 9.896 0 0 0 .71 6.04c-.005.163-.012.716-.012.716v18.48s.007.562.012.73c.006.503.051 1.005.133 1.5.077.462.223.91.435 1.326.21.415.485.792.816 1.118.327.329.704.603 1.118.813.417.211.864.359 1.325.438.495.08.994.124 1.495.13Z"/><path d="M19.997 15.912a4.117 4.117 0 0 1 1.96-3.455 4.215 4.215 0 0 0-3.32-1.795c-1.396-.146-2.75.836-3.463.836-.725 0-1.821-.821-3.002-.797a4.422 4.422 0 0 0-3.72 2.27c-1.61 2.785-.41 6.88 1.132 9.13.77 1.103 1.672 2.335 2.851 2.291 1.154-.047 1.585-.735 2.978-.735 1.38 0 1.784.735 2.987.708 1.239-.02 2.019-1.108 2.763-2.221a9.116 9.116 0 0 0 1.263-2.573 3.978 3.978 0 0 1-2.429-3.66ZM17.725 9.181a4.054 4.054 0 0 0 .927-2.904 4.124 4.124 0 0 0-2.668 1.381 3.858 3.858 0 0 0-.952 2.796 3.41 3.41 0 0 0 2.693-1.273ZM33.841 21.712h-3.786l-.91 2.685h-1.604l3.587-9.934h1.666l3.587 9.934H34.75l-.909-2.685Zm-3.394-1.239h3.002l-1.48-4.358h-.042l-1.48 4.358ZM44.127 20.776c0 2.251-1.204 3.697-3.022 3.697a2.456 2.456 0 0 1-2.28-1.267h-.034v3.587h-1.486v-9.639h1.439v1.205h.027a2.569 2.569 0 0 1 2.306-1.28c1.839 0 3.05 1.453 3.05 3.697Zm-1.528 0c0-1.466-.758-2.43-1.914-2.43-1.136 0-1.9.984-1.9 2.43 0 1.46.764 2.437 1.9 2.437 1.156 0 1.914-.957 1.914-2.437ZM52.1 20.776c0 2.251-1.206 3.697-3.023 3.697a2.455 2.455 0 0 1-2.28-1.267h-.034v3.587h-1.486v-9.639h1.439v1.205h.027a2.569 2.569 0 0 1 2.306-1.28c1.839 0 3.05 1.453 3.05 3.697Zm-1.529 0c0-1.466-.758-2.43-1.914-2.43-1.136 0-1.9.984-1.9 2.43 0 1.46.764 2.437 1.9 2.437 1.156 0 1.914-.957 1.914-2.437ZM57.368 21.629c.11.985 1.067 1.632 2.375 1.632 1.253 0 2.154-.647 2.154-1.535 0-.771-.544-1.233-1.831-1.55l-1.288-.31c-1.824-.44-2.67-1.293-2.67-2.678 0-1.714 1.493-2.891 3.614-2.891 2.1 0 3.539 1.177 3.587 2.891h-1.5c-.09-.991-.91-1.59-2.108-1.59-1.197 0-2.017.606-2.017 1.487 0 .703.523 1.116 1.804 1.432l1.094.269c2.039.482 2.885 1.3 2.885 2.754 0 1.858-1.48 3.023-3.835 3.023-2.203 0-3.69-1.137-3.786-2.934h1.522ZM66.677 15.44v1.714h1.377v1.177h-1.377v3.993c0 .62.276.91.881.91a4.65 4.65 0 0 0 .49-.035v1.17c-.273.051-.55.074-.826.069-1.467 0-2.039-.55-2.039-1.955V18.33H64.13v-1.177h1.053V15.44h1.494ZM68.851 20.776c0-2.28 1.342-3.712 3.435-3.712 2.1 0 3.436 1.433 3.436 3.712 0 2.285-1.329 3.71-3.436 3.71-2.106 0-3.435-1.425-3.435-3.71Zm5.356 0c0-1.564-.716-2.486-1.92-2.486-1.205 0-1.922.93-1.922 2.486 0 1.569.717 2.485 1.921 2.485 1.205 0 1.921-.916 1.921-2.485ZM76.948 17.154h1.418v1.233h.034a1.728 1.728 0 0 1 1.743-1.309c.17 0 .342.018.509.056v1.39a2.078 2.078 0 0 0-.668-.09 1.498 1.498 0 0 0-1.55 1.667v4.296h-1.486v-7.243ZM87.507 22.27c-.2 1.314-1.48 2.216-3.12 2.216-2.106 0-3.414-1.411-3.414-3.676 0-2.272 1.315-3.745 3.352-3.745 2.004 0 3.264 1.376 3.264 3.572v.51h-5.115v.09a1.887 1.887 0 0 0 1.948 2.051 1.639 1.639 0 0 0 1.673-1.019h1.412Zm-5.026-2.162h3.621a1.742 1.742 0 0 0-1.777-1.839 1.834 1.834 0 0 0-1.844 1.839ZM30.261 6.985a2.112 2.112 0 0 1 2.246 2.372c0 1.525-.824 2.401-2.246 2.401h-1.724V6.985h1.724Zm-.983 4.098h.9a1.501 1.501 0 0 0 1.574-1.716 1.506 1.506 0 0 0-1.574-1.708h-.9v3.424ZM33.344 9.955a1.709 1.709 0 0 1 1.7-1.87 1.707 1.707 0 0 1 1.698 1.87 1.707 1.707 0 1 1-3.398 0Zm2.667 0c0-.78-.35-1.237-.967-1.237s-.965.456-.965 1.237c0 .787.348 1.24.965 1.24.616 0 .967-.456.967-1.24ZM41.259 11.759h-.738l-.744-2.654h-.057l-.741 2.654h-.73l-.994-3.603h.722l.645 2.75h.053l.74-2.75h.683l.74 2.75h.057l.642-2.75h.71l-.988 3.603ZM43.083 8.156h.684v.572h.053a1.079 1.079 0 0 1 1.075-.641 1.172 1.172 0 0 1 1.247 1.34v2.331h-.71V9.605c0-.579-.252-.867-.778-.867a.826.826 0 0 0-.86.913v2.107h-.711V8.156ZM47.275 6.75h.711v5.009h-.711V6.75ZM48.974 9.955a1.707 1.707 0 1 1 3.398 0 1.708 1.708 0 1 1-3.398 0Zm2.667 0c0-.78-.351-1.237-.967-1.237-.618 0-.965.456-.965 1.237 0 .787.347 1.24.965 1.24.616 0 .967-.456.967-1.24ZM53.12 10.74c0-.65.483-1.023 1.34-1.076l.976-.057v-.31c0-.381-.251-.596-.737-.596-.397 0-.672.146-.75.4h-.69c.073-.618.655-1.015 1.473-1.015.903 0 1.412.45 1.412 1.21v2.462h-.684v-.506h-.056a1.212 1.212 0 0 1-1.083.565 1.088 1.088 0 0 1-1.2-1.078Zm2.316-.309v-.3l-.88.055c-.495.034-.72.202-.72.52 0 .324.28.513.668.513a.848.848 0 0 0 .932-.788ZM57.078 9.956c0-1.138.586-1.86 1.496-1.86a1.187 1.187 0 0 1 1.105.633h.053V6.75h.71v5.009h-.68v-.57h-.057a1.25 1.25 0 0 1-1.131.629c-.917 0-1.495-.721-1.495-1.862Zm.735 0c0 .764.36 1.224.962 1.224.6 0 .97-.467.97-1.221 0-.75-.374-1.224-.97-1.224-.598 0-.962.463-.962 1.22ZM63.384 9.955a1.707 1.707 0 1 1 3.398 0 1.708 1.708 0 0 1-2.963 1.313 1.706 1.706 0 0 1-.435-1.313Zm2.666 0c0-.78-.35-1.237-.966-1.237-.618 0-.966.456-.966 1.237 0 .787.348 1.24.966 1.24.616 0 .966-.456.966-1.24ZM67.736 8.156h.684v.572h.053a1.078 1.078 0 0 1 1.075-.641 1.172 1.172 0 0 1 1.247 1.34v2.331h-.711V9.605c0-.579-.252-.867-.777-.867a.826.826 0 0 0-.86.913v2.107h-.711V8.156ZM74.812 7.259v.913h.78v.599h-.78v1.852c0 .378.156.543.51.543.09 0 .18-.006.27-.017v.593a2.333 2.333 0 0 1-.386.036c-.79 0-1.106-.278-1.106-.973V8.771h-.572v-.599h.572v-.913h.712ZM76.564 6.75h.704v1.985h.057a1.108 1.108 0 0 1 1.098-.645 1.187 1.187 0 0 1 1.24 1.343v2.326h-.711v-2.15c0-.576-.268-.868-.77-.868a.841.841 0 0 0-.907.914v2.104h-.711V6.75ZM83.809 10.785a1.462 1.462 0 0 1-1.56 1.042 1.636 1.636 0 0 1-1.665-1.859 1.661 1.661 0 0 1 1.66-1.882c1.003 0 1.608.685 1.608 1.816v.248h-2.544v.04a.953.953 0 0 0 .96 1.032.863.863 0 0 0 .857-.437h.684Zm-2.5-1.16h1.819a.868.868 0 0 0-.887-.934.921.921 0 0 0-.933.933Z"/></g></g><defs><clipPath id="clip0_1_743"><path fill="#fff" d="M0 0h96v32H0z"/></clipPath></defs></svg>