<svg width="32" height="32" fill="none" xmlns="http://www.w3.org/2000/svg"><path d="M29.288 8.725a2.937 2.937 0 0 0-1.813-2.038C23.2 5.037 16.375 5.05 16 5.05S8.8 5.037 4.525 6.687a2.938 2.938 0 0 0-1.813 2.038C2.387 9.962 2 12.237 2 16c0 3.762.388 6.037.712 7.275a2.937 2.937 0 0 0 1.813 2.037c4.1 1.588 10.525 1.638 11.387 1.638h.175c.863 0 7.288-.05 11.388-1.638a2.938 2.938 0 0 0 1.813-2.037C29.613 22.037 30 19.762 30 16c0-3.763-.387-6.038-.712-7.275Zm-9.013 7.687-6 4A.45.45 0 0 1 14 20.5a.562.562 0 0 1-.238-.063A.488.488 0 0 1 13.5 20v-8a.488.488 0 0 1 .262-.438.5.5 0 0 1 .513.025l6 4a.488.488 0 0 1 0 .825Z" fill="#D5E27B"/></svg>