<svg width="109" height="32" fill="none" xmlns="http://www.w3.org/2000/svg"><g clip-path="url('#clip0_1_772')"><mask id="mask0_1_772" style="mask-type:luminance" maskUnits="userSpaceOnUse" x="0" y="0" width="109" height="32"><path d="M108.731 0h-108v32h108V0Z" fill="#fff"/></mask><g mask="url('#mask0_1_772')"><path d="M104.731.64a3.36 3.36 0 0 1 3.36 3.36v24a3.36 3.36 0 0 1-3.36 3.36h-100A3.36 3.36 0 0 1 1.371 28V4A3.36 3.36 0 0 1 4.731.64h100Zm0-.64h-100c-2.2 0-4 1.8-4 4v24c0 2.2 1.8 4 4 4h100c2.2 0 4-1.8 4-4V4c0-2.2-1.8-4-4-4Z" fill="#fff"/><path d="M38.667 8.192c0 .672-.2 1.208-.6 1.6-.448.472-1.04.712-1.76.712s-1.28-.24-1.768-.72-.728-1.08-.728-1.784.24-1.304.728-1.784a2.42 2.42 0 0 1 1.768-.72c.344 0 .672.064.984.2.312.136.56.312.752.536l-.424.424c-.32-.376-.752-.568-1.312-.568-.504 0-.944.176-1.312.536-.368.352-.552.816-.552 1.384s.184 1.032.552 1.384c.368.352.808.536 1.312.536.536 0 .984-.176 1.344-.536.232-.232.368-.56.4-.976h-1.744V7.84h2.328c.024.128.032.248.032.36v-.008ZM42.355 6.192h-2.184v1.52h1.968v.576h-1.968v1.52h2.184v.592h-2.8V5.6h2.8v.592ZM44.955 10.4h-.616V6.192h-1.344V5.6h3.296v.592h-1.344V10.4h.008ZM48.683 10.4V5.6h.616v4.8h-.616ZM52.035 10.4h-.616V6.192h-1.344V5.6h3.296v.592h-1.344V10.4h.008ZM59.62 9.776c-.473.488-1.057.728-1.76.728-.705 0-1.289-.24-1.76-.728-.473-.488-.705-1.08-.705-1.776s.232-1.296.704-1.776c.472-.488 1.056-.728 1.76-.728s1.28.24 1.76.728c.472.488.712 1.08.712 1.776s-.232 1.296-.704 1.776h-.008Zm-3.065-.4c.352.36.792.536 1.304.536s.952-.176 1.304-.536c.352-.36.536-.816.536-1.376 0-.56-.176-1.016-.536-1.376a1.756 1.756 0 0 0-1.304-.536c-.512 0-.952.176-1.304.536-.352.36-.536.816-.536 1.376 0 .56.176 1.016.536 1.376ZM61.195 10.4V5.6h.752l2.336 3.736h.024l-.024-.928V5.6h.616v4.8h-.64l-2.44-3.912h-.024l.024.928v2.992h-.616l-.008-.008Z" fill="#fff" stroke="#fff" stroke-width=".2" stroke-miterlimit="10"/><path d="M55.243 17.4c-1.88 0-3.416 1.432-3.416 3.4s1.536 3.4 3.416 3.4 3.416-1.44 3.416-3.4-1.536-3.4-3.416-3.4Zm0 5.464c-1.032 0-1.92-.848-1.92-2.064 0-1.216.888-2.064 1.92-2.064s1.92.84 1.92 2.064c0 1.224-.888 2.064-1.92 2.064ZM47.795 17.4c-1.88 0-3.416 1.432-3.416 3.4s1.536 3.4 3.416 3.4 3.416-1.44 3.416-3.4-1.536-3.4-3.416-3.4Zm0 5.464c-1.032 0-1.92-.848-1.92-2.064 0-1.216.888-2.064 1.92-2.064s1.92.84 1.92 2.064c0 1.224-.888 2.064-1.92 2.064Zm-8.864-4.424v1.44h3.456c-.104.808-.376 1.408-.784 1.816-.504.504-1.288 1.056-2.664 1.056-2.128 0-3.792-1.712-3.792-3.84s1.664-3.84 3.792-3.84c1.144 0 1.984.448 2.6 1.032l1.016-1.016c-.864-.824-2.008-1.456-3.624-1.456-2.912 0-5.36 2.368-5.36 5.288 0 2.92 2.448 5.288 5.36 5.288 1.576 0 2.76-.512 3.688-1.48.952-.952 1.248-2.296 1.248-3.376 0-.336-.024-.648-.08-.904h-4.856v-.008Zm36.248 1.12c-.28-.76-1.144-2.168-2.912-2.168s-3.208 1.376-3.208 3.4c0 1.904 1.44 3.4 3.376 3.4 1.56 0 2.464-.952 2.832-1.504l-1.16-.776c-.384.568-.912.944-1.672.944-.76 0-1.304-.344-1.648-1.032l4.552-1.88-.152-.384h-.008Zm-4.64 1.136c-.04-1.312 1.016-1.984 1.776-1.984.592 0 1.096.296 1.264.72l-3.04 1.264Zm-3.696 3.296h1.496v-10h-1.496v10Zm-2.448-5.84h-.048c-.336-.4-.976-.76-1.792-.76-1.704 0-3.264 1.496-3.264 3.416s1.56 3.392 3.264 3.392c.816 0 1.456-.36 1.792-.776h.048v.488c0 1.304-.696 2-1.816 2-.912 0-1.48-.656-1.712-1.208l-1.304.544c.376.904 1.368 2.008 3.016 2.008 1.752 0 3.232-1.032 3.232-3.544V17.6h-1.416v.552Zm-1.712 4.704c-1.032 0-1.896-.864-1.896-2.048 0-1.184.864-2.072 1.896-2.072s1.816.88 1.816 2.072c0 1.192-.8 2.048-1.816 2.048Zm19.504-8.864h-3.576v10h1.496V20.2h2.088c1.656 0 3.28-1.2 3.28-3.104 0-1.904-1.624-3.104-3.28-3.104h-.008Zm.04 4.824h-2.12v-3.432h2.12c1.12 0 1.752.928 1.752 1.712 0 .784-.632 1.712-1.752 1.712v.008Zm9.224-1.44c-1.08 0-2.2.48-2.664 1.528l1.328.552c.28-.552.808-.736 1.36-.736.768 0 1.56.464 1.568 1.288v.104a3.34 3.34 0 0 0-1.56-.384c-1.432 0-2.88.784-2.88 2.248 0 1.336 1.168 2.2 2.48 2.2 1 0 1.56-.448 1.904-.976h.048v.776h1.44v-3.832c0-1.776-1.328-2.768-3.04-2.768h.016Zm-.184 5.48c-.488 0-1.168-.248-1.168-.848 0-.768.848-1.064 1.584-1.064.656 0 .968.144 1.36.336a1.806 1.806 0 0 1-1.776 1.584v-.008Zm8.464-5.264-1.712 4.336h-.048l-1.776-4.336h-1.608l2.664 6.064-1.52 3.368h1.56l4.104-9.432h-1.664Zm-13.448 6.4h1.496v-10h-1.496v10Z" fill="#fff"/><path d="M9.075 6.04c-.232.248-.368.624-.368 1.12v17.68c0 .496.136.88.368 1.12l.056.056 9.904-9.904v-.232L9.14 5.976l-.056.056-.008.008Z" fill="#5BC9F4"/><path d="m22.34 19.416-3.305-3.304v-.232l3.304-3.304.072.04 3.912 2.224c1.12.632 1.12 1.672 0 2.312l-3.912 2.224-.072.04Z" fill="url('#paint0_linear_1_772')"/><path d="M22.42 19.376 19.042 16l-9.96 9.96c.368.392.976.44 1.664.048l11.68-6.632" fill="url('#paint1_linear_1_772')"/><path d="M22.42 12.624 10.74 5.992c-.689-.392-1.297-.344-1.665.048l9.96 9.96 3.376-3.376h.008Z" fill="url('#paint2_linear_1_772')"/></g></g><defs><linearGradient id="paint0_linear_1_772" x1="25.603" y1="16" x2="6.259" y2="16" gradientUnits="userSpaceOnUse"><stop stop-color="#FEE000"/><stop offset=".42" stop-color="#FBBC0E"/><stop offset=".78" stop-color="#F9A318"/><stop offset="1" stop-color="#F99B1C"/></linearGradient><linearGradient id="paint1_linear_1_772" x1="20.579" y1="17.832" x2="2.387" y2="36.024" gradientUnits="userSpaceOnUse"><stop stop-color="#EF4547"/><stop offset="1" stop-color="#C6186D"/></linearGradient><linearGradient id="paint2_linear_1_772" x1="2.307" y1="-4.104" x2="17.163" y2="10.744" gradientUnits="userSpaceOnUse"><stop stop-color="#279E6F"/><stop offset=".04" stop-color="#2B9F6E"/><stop offset=".46" stop-color="#52B16B"/><stop offset=".8" stop-color="#6BBC69"/><stop offset="1" stop-color="#74C169"/></linearGradient><clipPath id="clip0_1_772"><path fill="#fff" d="M0 0h109v32H0z"/></clipPath></defs></svg>