<svg width="90" height="46" fill="none" xmlns="http://www.w3.org/2000/svg"><g clip-path="url('#clip0_1_730')"><path d="M10.943 27.315c3.91 3.418 15.464 9.123 15.65 9.21 1.507.733-.859 4.325-2.041 4.3-2.067 0-14.48-7.457-18.676-11.186a56.955 56.955 0 0 0-.349 8.414c0 .933-1.494.957-2.938 1.044-1.444.087-2.49 0-2.565-.733-.46-14.48 5.715-28.86 14.218-35.759 5.255-4.263 14.244-3.641 12.912 4.462-1.108 6.7-7.608 15.984-16.186 20.248h-.025Zm-3.996-3.12c9.425-3.132 17.99-16.941 15.251-19.303-2.739-2.361-11.853 6.04-15.251 19.303ZM88.16 15.83c-1.159-.41-2.764-.435-2.976.547-1.432 6.438-3.91 13.498-6.81 12.603-1.246-.398-2.042-1.765.672-10.067.299-.933-.41-1.38-1.47-1.778-1.058-.398-2.253-.211-2.49.447-2.9 7.135-5.216 11.187-7.308 10.777-2.34-.473 1.183-7.88 1.706-8.95.523-1.068-.86-1.615-1.544-1.889-.685-.273-1.805-.745-2.191 0-.15.249-.486.933-.685 1.33.112-2.945-2.714-4.636-5.727-3.33-5.49 2.386-8.441 8.451-8.815 12.03-.224 2.101.324 4.463 2.415 5.457 3.922 1.852 8.23-2.834 9.413-5.295-.125 2.946 1.78 4.76 4.196 4.674 3.299-.112 5.677-3.331 6.35-4.76-.524 4.86 4.095 6.711 7.47 4.35a47.63 47.63 0 0 1-7.47 10.577c-.847.932.323 2.1.746 2.486.698.683 1.718 1.243 2.316.807 1.805-1.242 5.354-5.195 9.3-12.938a60.339 60.339 0 0 0 4.67-14.667c.249-1.243-.113-1.852-1.719-2.411h-.05ZM55.839 28.433c-1.008-.708 0-3.816 1.17-5.655 1.62-2.672 4.11-4.649 5.18-3.803 1.656 1.242-.635 4.536-1.805 6.488-1.17 1.951-3.237 3.89-4.545 2.97Zm-13.546-3.132c-3.81 6.302-8.715 8.265-12.114 8.365a7.07 7.07 0 0 1-5.444-2.168 7.046 7.046 0 0 1-1.927-5.526c.153-2.26.933-4.434 2.252-6.278a12.235 12.235 0 0 1 5.219-4.162c4.146-1.541 7.918 1.479 7.109 4.971a7.936 7.936 0 0 1-3.443 5.098 7.964 7.964 0 0 1-6.057 1.117c.212 2.486 2.876 3.866 6.636 1.939 2.49-1.243 5.254-3.729 7.869-10.018 1.942-4.723 4.706-14.43 5.939-16.58.36-.622 1.643-.448 2.739.087 1.095.534 2.216 1.305 1.867 2.274a101.598 101.598 0 0 0-5.216 17.7 34.136 34.136 0 0 0 .36 14.914c.275 1.032-1.033 1.678-1.83 1.84a2.394 2.394 0 0 1-2.639-.92c-2.067-3.729-1.843-8.315-1.357-12.628l.037-.025ZM27.801 23.91c3.835 1.243 7.234-2.946 6.05-4.648-1.182-1.703-5.54.174-6.05 4.648Z" fill="#D5E27B"/></g><defs><clipPath id="clip0_1_730"><path fill="#fff" d="M0 0h90v46H0z"/></clipPath></defs></svg>