<svg width="85" height="62" fill="none" xmlns="http://www.w3.org/2000/svg"><g clip-path="url('#clip0_1_515')"><path d="M10.335 36.003c3.692 4.755 14.605 12.693 14.781 12.814 1.423 1.02-.811 6.018-1.928 5.983-1.953 0-13.676-10.375-17.639-15.563a116.487 116.487 0 0 0-.329 11.707c0 1.297-1.41 1.331-2.775 1.453-1.364.12-2.352 0-2.422-1.02C-.412 31.23 5.42 11.221 13.45 1.624c4.962-5.931 13.452-5.067 12.194 6.208-1.046 9.32-7.184 22.238-15.286 28.17h-.024Zm-3.774-4.34c8.901-4.358 16.991-23.57 14.404-26.856C18.378 1.52 9.771 13.21 6.561 31.662Zm76.702-11.639c-1.094-.57-2.61-.605-2.81.761-1.353 8.958-3.693 18.78-6.433 17.535-1.176-.553-1.928-2.455.635-14.007.283-1.297-.388-1.92-1.387-2.473-1-.553-2.129-.294-2.352.623-2.74 9.926-4.927 15.563-6.902 14.992-2.211-.657 1.117-10.963 1.61-12.45.495-1.488-.81-2.248-1.457-2.629-.647-.38-1.706-1.037-2.07 0-.141.346-.459 1.297-.647 1.85.106-4.098-2.563-6.45-5.409-4.634-5.185 3.32-7.972 11.76-8.325 16.74-.212 2.922.306 6.208 2.281 7.591 3.704 2.577 7.773-3.943 8.89-7.367-.118 4.099 1.681 6.623 3.963 6.502 3.116-.155 5.361-4.634 5.997-6.623-.494 6.762 3.868 9.338 7.055 6.053-1.886 5.355-4.26 10.306-7.055 14.716-.8 1.297.305 2.922.705 3.458.658.952 1.622 1.73 2.187 1.124 1.705-1.729 5.057-7.228 8.784-18.001 2.056-6.498 3.537-13.355 4.41-20.406.235-1.729-.107-2.576-1.623-3.355h-.047ZM52.737 37.56c-.952-.985 0-5.309 1.105-7.868 1.529-3.718 3.88-6.467 4.892-5.291 1.564 1.729-.6 6.311-1.705 9.026s-3.057 5.413-4.292 4.133Zm-12.793-4.357c-3.599 8.767-8.232 11.5-11.442 11.638-.953.068-1.906-.167-2.793-.687-.887-.52-1.688-1.315-2.348-2.33-.66-1.015-1.164-2.227-1.478-3.553a14.164 14.164 0 0 1-.342-4.135c.145-3.145.881-6.17 2.127-8.734 1.246-2.565 2.952-4.57 4.928-5.792 3.916-2.144 7.479 2.058 6.715 6.917-.195 1.441-.582 2.81-1.14 4.028-.559 1.218-1.277 2.26-2.112 3.065-.835.805-1.772 1.357-2.754 1.624a5.169 5.169 0 0 1-2.966-.07c.2 3.458 2.716 5.378 6.267 2.697 2.352-1.729 4.962-5.187 7.432-13.937C41.872 17.36 44.483 3.856 45.647.864c.34-.865 1.552-.622 2.587.121 1.034.744 2.093 1.816 1.763 3.165a194.698 194.698 0 0 0-4.927 24.625 69.473 69.473 0 0 0 .341 20.75c.26 1.436-.976 2.335-1.728 2.56a1.58 1.58 0 0 1-1.387-.048c-.447-.23-.834-.66-1.106-1.231-1.952-5.188-1.74-11.57-1.282-17.57l.036-.034Zm-13.688-1.937c3.622 1.729 6.832-4.099 5.715-6.468-1.117-2.369-5.232.242-5.715 6.468Z" fill="#004822"/></g><defs><clipPath id="clip0_1_515"><path fill="#fff" transform="translate(0 -2)" d="M0 0h85v64H0z"/></clipPath></defs></svg>