<svg width="240" height="25" fill="none" xmlns="http://www.w3.org/2000/svg"><g clip-path="url('#clip0_1_580')"><path d="M25.931 9.334h9.981v1.861h-3.93V21.69h-2.154V11.195h-3.913l.016-1.861Zm9.554 3.41h1.841v1.73h.033c.066-.248.181-.478.346-.709.164-.23.361-.445.608-.626a2.69 2.69 0 0 1 .79-.461c.279-.116.575-.181.87-.181.231 0 .395.016.478.016.082.017.18.033.263.033v1.894a3.321 3.321 0 0 0-.428-.065c-.148-.017-.28-.033-.427-.033-.33 0-.642.066-.938.197-.296.132-.542.33-.772.577a3.122 3.122 0 0 0-.527.955 4.037 4.037 0 0 0-.197 1.318v4.25h-1.973l.033-8.895Zm14.272 8.945h-1.94v-1.252h-.033c-.246.461-.608.807-1.085 1.087a2.86 2.86 0 0 1-1.463.412c-1.168 0-2.023-.28-2.55-.873-.525-.577-.788-1.466-.788-2.636v-5.683h1.973v5.485c0 .791.148 1.351.46 1.664.296.33.724.494 1.266.494.411 0 .757-.066 1.036-.197.28-.132.51-.297.674-.511.181-.214.296-.478.379-.774.082-.297.115-.626.115-.972v-5.19h1.973v8.946h-.017Zm3.355-2.867c.066.577.28.972.657 1.22.379.23.84.345 1.365.345.181 0 .395-.016.625-.05.23-.032.46-.081.658-.164.214-.082.378-.197.51-.362a.845.845 0 0 0 .18-.61c-.016-.247-.098-.461-.279-.626-.181-.165-.395-.28-.658-.395a5.697 5.697 0 0 0-.92-.247c-.346-.066-.691-.148-1.053-.23a11.334 11.334 0 0 1-1.069-.297 3.06 3.06 0 0 1-.92-.478 2.053 2.053 0 0 1-.642-.758c-.164-.313-.247-.675-.247-1.137 0-.494.116-.889.362-1.218.23-.33.543-.594.905-.791a4.102 4.102 0 0 1 1.216-.429 6.96 6.96 0 0 1 1.267-.115c.46 0 .904.05 1.315.148.411.1.806.248 1.135.478.345.214.624.51.838.857.23.346.362.774.428 1.268h-2.056c-.098-.477-.312-.79-.641-.955a2.645 2.645 0 0 0-1.168-.247c-.131 0-.312.016-.493.033a2.906 2.906 0 0 0-.542.131 1.286 1.286 0 0 0-.428.28.66.66 0 0 0-.18.478c0 .247.081.428.246.577.164.148.378.263.658.379a5.7 5.7 0 0 0 .92.247c.346.066.707.148 1.07.23.361.083.706.181 1.052.297.345.115.657.263.92.478.264.197.494.444.658.74.165.297.247.676.247 1.105 0 .527-.115.971-.362 1.35a3.077 3.077 0 0 1-.937.906c-.378.231-.822.396-1.283.511a6.879 6.879 0 0 1-1.397.165c-.56 0-1.086-.066-1.563-.198a3.977 3.977 0 0 1-1.25-.576 2.764 2.764 0 0 1-.821-.972c-.198-.38-.313-.84-.33-1.384h1.99v.016h.017Zm6.495-6.078h1.496v-2.702h1.973v2.685h1.776v1.466h-1.776v4.778c0 .214.017.379.033.543.017.149.066.28.115.38a.644.644 0 0 0 .28.23c.131.05.296.082.526.082.132 0 .28 0 .411-.016.132-.017.28-.033.411-.066v1.532c-.214.033-.427.05-.641.066a4.083 4.083 0 0 1-.641.033c-.526 0-.938-.05-1.25-.149a1.795 1.795 0 0 1-.74-.428 1.531 1.531 0 0 1-.362-.708 5.625 5.625 0 0 1-.115-.989V14.21h-1.496v-1.5.034Zm6.626 0h1.858v1.219h.033c.28-.527.658-.89 1.151-1.12a3.721 3.721 0 0 1 1.612-.346c.707 0 1.315.115 1.841.379.527.247.954.576 1.3 1.02.345.43.608.94.772 1.516a6.76 6.76 0 0 1 .264 1.845c0 .61-.083 1.186-.231 1.747-.164.56-.394 1.07-.707 1.499a3.505 3.505 0 0 1-1.2 1.038c-.493.263-1.053.395-1.71.395a5.01 5.01 0 0 1-.855-.082c-.28-.05-.56-.132-.823-.248a2.952 2.952 0 0 1-.723-.444 2.508 2.508 0 0 1-.56-.626h-.032V25H66.25V12.744h-.017Zm6.89 4.48c0-.395-.05-.79-.164-1.17a2.986 2.986 0 0 0-.477-1.004 2.633 2.633 0 0 0-.773-.708 2.1 2.1 0 0 0-1.069-.264c-.822 0-1.447.28-1.874.857-.411.576-.625 1.35-.625 2.306 0 .461.05.873.164 1.252.115.379.263.708.493.988.214.28.477.494.79.66.312.164.658.246 1.069.246.46 0 .822-.099 1.134-.28.313-.18.56-.428.773-.708.197-.297.345-.626.428-1.005.082-.395.131-.774.131-1.17Zm3.47-7.89h1.973v1.861h-1.974V9.334Zm0 3.41h1.973v8.945h-1.974v-8.945Zm3.732-3.41H82.3v12.355h-1.974V9.334Zm7.991 12.602c-.707 0-1.348-.116-1.907-.363a4.33 4.33 0 0 1-1.414-.971 4.228 4.228 0 0 1-.872-1.5 5.882 5.882 0 0 1-.312-1.894c0-.675.099-1.301.312-1.878.198-.576.493-1.07.872-1.499a3.944 3.944 0 0 1 1.414-.972c.56-.23 1.2-.362 1.907-.362.708 0 1.349.115 1.908.362.56.23 1.02.56 1.414.972.378.412.674.923.871 1.499.198.577.313 1.203.313 1.878 0 .692-.098 1.318-.313 1.894a4.664 4.664 0 0 1-.87 1.5 3.943 3.943 0 0 1-1.415.971c-.56.231-1.184.363-1.908.363Zm0-1.565c.428 0 .823-.099 1.135-.28a2.39 2.39 0 0 0 .79-.725 3.12 3.12 0 0 0 .46-1.005 4.507 4.507 0 0 0 0-2.29 2.966 2.966 0 0 0-.46-1.004 2.503 2.503 0 0 0-.79-.709 2.315 2.315 0 0 0-1.135-.28c-.427 0-.822.099-1.134.28a2.515 2.515 0 0 0-.79.708 2.95 2.95 0 0 0-.46 1.005 4.476 4.476 0 0 0 0 2.29c.099.379.247.709.46 1.005.214.297.478.544.79.725.33.197.707.28 1.134.28Zm5.098-7.627h1.496v-2.702h1.974v2.685h1.775v1.466h-1.775v4.778c0 .214.016.379.033.543.016.149.065.28.114.38a.645.645 0 0 0 .28.23c.131.05.296.082.526.082.131 0 .28 0 .411-.016.131-.017.28-.033.411-.066v1.532c-.214.033-.427.05-.64.066-.215.033-.412.033-.642.033-.526 0-.937-.05-1.25-.149a1.79 1.79 0 0 1-.74-.428 1.538 1.538 0 0 1-.362-.708 5.653 5.653 0 0 1-.115-.989V14.21h-1.496v-1.5.034Z" fill="#D5E27B"/><path fill-rule="evenodd" clip-rule="evenodd" d="M14.601 9.334h9.028l-7.3 5.304 2.778 8.6-7.3-5.321-7.302 5.32 2.796-8.599L0 9.318l9.027.016 2.796-8.6 2.778 8.6Zm1.726 5.304.625 1.944-5.13 1.334 4.505-3.278Z" fill="#D5E27B"/><path d="M114.724.493h23.485v23.529h-23.485V.492Zm25.44 0h23.485v23.529h-23.485V.492Zm25.44 0h23.485v23.529h-23.485V.492Zm25.44 0h23.485v23.529h-23.485V.492Zm25.439 0h23.486v23.529h-23.486V.492Z" fill="#D5E27B"/><path d="M239.971.493h-23.486v23.529h23.486V.492Z" fill="#5C5958"/><path d="M228.252.493h-11.767v23.529h11.767V.492Z" fill="#D5E27B"/><path d="m126.465 16.348 3.572-.909 1.493 4.608-5.065-3.7Zm8.216-5.953h-6.287l-1.929-5.932-1.934 5.932h-6.287l5.09 3.674-1.934 5.933 5.09-3.674 3.131-2.254 5.06-3.679Zm17.224 5.953 3.572-.909 1.493 4.608-5.065-3.7Zm8.216-5.953h-6.282l-1.934-5.932-1.934 5.932h-6.287l5.09 3.674-1.934 5.933 5.09-3.674 3.131-2.254 5.06-3.679Zm17.224 5.953 3.572-.909 1.493 4.608-5.065-3.7Zm8.221-5.953h-6.287l-1.934-5.932-1.934 5.932h-6.287l5.09 3.674-1.934 5.933 5.09-3.674 3.131-2.254 5.065-3.679Zm17.219 5.953 3.572-.909 1.493 4.608-5.065-3.7Zm8.221-5.953h-6.287l-1.934-5.932-1.934 5.932h-6.287l5.09 3.674-1.934 5.933 5.09-3.674 3.131-2.254 5.065-3.679Zm17.219 5.953 3.572-.909 1.493 4.608-5.065-3.7Zm8.221-5.953h-6.287l-1.934-5.932-1.934 5.932h-6.287l5.09 3.674-1.934 5.933 5.09-3.674 3.131-2.254 5.065-3.679Z" fill="#25201F"/></g><defs><clipPath id="clip0_1_580"><path fill="#fff" d="M0 0h240v25H0z"/></clipPath></defs></svg>