<svg width="203" height="22" fill="none" xmlns="http://www.w3.org/2000/svg"><g clip-path="url('#clip0_1_669')" fill="#F1ECDA"><path d="M23.057 7.937h8.874v1.671h-3.494v9.42h-1.915v-9.42h-3.48l.015-1.671Zm8.494 3.061h1.638v1.553h.029c.058-.222.16-.429.307-.636.146-.207.322-.4.54-.562a2.39 2.39 0 0 1 .703-.414c.248-.104.511-.163.774-.163.205 0 .351.015.425.015.073.015.16.03.233.03v1.7c-.117-.03-.248-.044-.38-.059-.131-.015-.248-.03-.38-.03-.292 0-.57.06-.833.178a2.114 2.114 0 0 0-.687.518c-.19.236-.351.517-.468.857-.117.34-.176.74-.176 1.183v3.816h-1.754l.03-7.986Zm12.69 8.03h-1.725v-1.124h-.03c-.218.414-.54.725-.964.976-.424.252-.862.37-1.301.37-1.038 0-1.798-.252-2.266-.784-.468-.518-.702-1.316-.702-2.366v-5.102h1.754v4.925c0 .71.132 1.212.41 1.493.263.296.643.444 1.125.444.366 0 .673-.06.922-.178.248-.118.453-.266.599-.458.16-.192.263-.429.336-.695a3.32 3.32 0 0 0 .103-.873v-4.658h1.754v8.03h-.015Zm2.983-2.573c.058.518.248.872.585 1.094.336.207.745.31 1.213.31.16 0 .35-.014.556-.044.204-.03.409-.074.584-.148a1.03 1.03 0 0 0 .454-.325.762.762 0 0 0 .16-.547.8.8 0 0 0-.248-.562c-.16-.148-.351-.251-.585-.355a5.033 5.033 0 0 0-.819-.222c-.307-.059-.614-.133-.935-.207a10.043 10.043 0 0 1-.95-.266 2.714 2.714 0 0 1-.82-.429 1.84 1.84 0 0 1-.57-.68c-.146-.28-.219-.606-.219-1.02 0-.444.102-.799.322-1.095.205-.295.482-.532.804-.71.322-.177.687-.31 1.082-.384a6.13 6.13 0 0 1 1.126-.104c.409 0 .804.045 1.17.134.365.088.715.221 1.008.428.307.193.555.459.745.77.205.31.322.694.38 1.138H50.44c-.088-.429-.278-.71-.57-.858a2.332 2.332 0 0 0-1.038-.221c-.117 0-.278.014-.439.03-.175.029-.321.058-.482.117a1.14 1.14 0 0 0-.38.252.595.595 0 0 0-.161.429c0 .221.073.384.22.517.145.133.335.237.584.34.234.09.512.163.819.222.307.06.628.133.95.207.322.074.629.163.936.266.307.104.585.237.819.43.233.177.438.399.584.665.147.266.22.606.22.99 0 .474-.103.873-.322 1.213-.22.326-.497.607-.833.814a4.106 4.106 0 0 1-1.14.458 6.055 6.055 0 0 1-1.243.148c-.497 0-.965-.06-1.39-.178a3.515 3.515 0 0 1-1.11-.517 2.476 2.476 0 0 1-.731-.873c-.176-.34-.278-.754-.293-1.242h1.77v.015h.014Zm5.775-5.457h1.33V8.573h1.754v2.41h1.58V12.3h-1.58v4.289c0 .192.015.34.03.488.014.133.058.251.102.34a.572.572 0 0 0 .249.207c.117.044.263.074.467.074.117 0 .249 0 .366-.015.117-.014.248-.03.365-.059v1.375c-.19.03-.38.045-.57.06-.19.03-.365.03-.57.03-.468 0-.833-.045-1.111-.134a1.593 1.593 0 0 1-.658-.384 1.38 1.38 0 0 1-.322-.636 5.11 5.11 0 0 1-.102-.888v-4.732H53V10.97v.03Zm5.892 0h1.651v1.094h.03c.248-.473.585-.798 1.023-1.005.439-.207.907-.31 1.433-.31.629 0 1.17.103 1.637.34.468.221.848.517 1.155.916.307.385.541.843.688 1.36.146.518.234 1.08.234 1.657a6.13 6.13 0 0 1-.205 1.567c-.147.503-.351.962-.629 1.346a3.12 3.12 0 0 1-1.067.932c-.439.236-.936.355-1.52.355-.25 0-.512-.03-.76-.074a3.216 3.216 0 0 1-.732-.222 2.619 2.619 0 0 1-.643-.4 2.24 2.24 0 0 1-.497-.561h-.03V22h-1.754V10.998h-.014Zm6.125 4.023c0-.356-.044-.71-.146-1.05a2.691 2.691 0 0 0-.424-.903 2.35 2.35 0 0 0-.687-.636 1.854 1.854 0 0 0-.95-.236c-.731 0-1.287.251-1.667.769-.366.518-.556 1.213-.556 2.07 0 .414.044.784.147 1.124.102.34.234.636.438.887.19.252.424.444.702.592.278.148.585.222.95.222.41 0 .731-.089 1.009-.252.278-.162.497-.384.687-.636a2.62 2.62 0 0 0 .38-.902c.073-.354.117-.695.117-1.05Zm3.085-7.084h1.755v1.671H68.1V7.937Zm0 3.061h1.755v8.03H68.1v-8.03Zm3.319-3.061h1.754v11.091H71.42V7.937Zm7.105 11.313c-.628 0-1.199-.104-1.696-.326a3.846 3.846 0 0 1-1.257-.872 3.81 3.81 0 0 1-.775-1.346 5.316 5.316 0 0 1-.278-1.7c0-.607.088-1.169.278-1.686.175-.518.439-.961.775-1.346.336-.37.76-.665 1.257-.872a4.398 4.398 0 0 1 1.696-.326c.628 0 1.199.104 1.696.326.497.207.906.502 1.257.872.336.37.6.828.775 1.346.175.517.278 1.08.278 1.686 0 .62-.088 1.183-.278 1.7-.19.518-.439.962-.775 1.346-.336.37-.76.665-1.257.872a4.346 4.346 0 0 1-1.696.326Zm0-1.405c.38 0 .731-.089 1.009-.252.292-.162.511-.384.702-.65.19-.266.321-.577.41-.902a4.105 4.105 0 0 0 0-2.056 2.67 2.67 0 0 0-.41-.902 2.239 2.239 0 0 0-.702-.636 2.045 2.045 0 0 0-1.01-.251c-.379 0-.73.089-1.008.251a2.252 2.252 0 0 0-.702.636 2.67 2.67 0 0 0-.409.902 4.077 4.077 0 0 0 0 2.056c.088.34.22.636.41.902.19.266.423.488.701.65.293.178.63.252 1.009.252Zm4.532-6.847h1.33V8.573h1.755v2.41h1.579V12.3h-1.58v4.289c0 .192.015.34.03.488.015.133.058.251.103.34a.574.574 0 0 0 .248.207c.117.044.263.074.468.074.117 0 .249 0 .365-.015.118-.014.249-.03.366-.059v1.375c-.19.03-.38.045-.57.06-.19.03-.366.03-.57.03-.468 0-.834-.045-1.111-.134a1.59 1.59 0 0 1-.658-.384 1.375 1.375 0 0 1-.322-.636 5.126 5.126 0 0 1-.103-.888v-4.732h-1.33V10.97v.03Z"/><path fill-rule="evenodd" clip-rule="evenodd" d="M12.982 7.937h8.027L14.518 12.7l2.47 7.72-6.49-4.777-6.492 4.776 2.485-7.72L0 7.923l8.026.015 2.486-7.72 2.47 7.72Zm1.535 4.762.555 1.745-4.561 1.198 4.006-2.943ZM122.887 0h-20.882v21.122h20.882V0Zm22.619 0h-20.882v21.122h20.882V0Zm22.619 0h-20.882v21.122h20.882V0Zm22.619 0h-20.882v21.122h20.882V0Zm-75.123 13.418-3.176.815 4.503 3.32-1.327-4.135ZM114.16 8.89h5.59l-4.499 3.302-2.784 2.023-4.526 3.298 1.72-5.325-4.525-3.298h5.589l1.72-5.326 1.715 5.326Zm24.08 4.528-3.176.815 4.503 3.32-1.327-4.135Zm-1.456-4.528h5.585l-4.498 3.302-2.784 2.023-4.526 3.298 1.719-5.325-4.526-3.298h5.591l1.719-5.326 1.72 5.326Zm24.075 4.528-3.175.815 4.502 3.32-1.327-4.135Zm-1.457-4.528h5.591l-4.504 3.302-2.784 2.023-4.525 3.298 1.72-5.325-4.526-3.298h5.59l1.72-5.326 1.718 5.326Zm24.076 4.528-3.176.815 4.504 3.32-1.328-4.135Zm-1.456-4.528h5.59l-4.503 3.302-2.784 2.023-4.526 3.298 1.719-5.325-4.525-3.298h5.59l1.719-5.326 1.72 5.326ZM192.455 0H203v3.749l-1.66 5.14h-5.59l4.525 3.299-1.719 5.325L203 14.275v7.058h-10.545V0Z"/></g><defs><clipPath id="clip0_1_669"><path fill="#fff" d="M0 0h203v22H0z"/></clipPath></defs></svg>