<svg width="32" height="30" viewBox="0 0 32 30" fill="none" xmlns="http://www.w3.org/2000/svg">
<path d="M32 15.0917C32 6.75677 24.8366 0 16 0C7.16344 0 0 6.75677 0 15.0917C0 22.6242 5.85094 28.8678 13.5 30V19.4541H9.4375V15.0917H13.5V11.7668C13.5 7.98444 15.8888 5.89518 19.5434 5.89518C21.2934 5.89518 23.125 6.18994 23.125 6.18994V9.90391H21.1075C19.12 9.90391 18.5 11.0673 18.5 12.262V15.0917H22.9375L22.2281 19.4541H18.5V30C26.1491 28.8678 32 22.6242 32 15.0917Z" fill="white"/>
<path fill-rule="evenodd" clip-rule="evenodd" d="M3.2 0C1.43269 0 0 1.34315 0 3V27C0 28.6569 1.43269 30 3.2 30H13.5V19.4541H9.4375V15.0917H13.5V11.7668C13.5 7.98444 15.8888 5.89518 19.5434 5.89518C21.2934 5.89518 23.125 6.18994 23.125 6.18994V9.90391H21.1075C19.12 9.90391 18.5 11.0673 18.5 12.262V15.0917H22.9375L22.2281 19.4541H18.5V30H28.8C30.5673 30 32 28.6569 32 27V3C32 1.34315 30.5673 0 28.8 0H3.2Z" fill="white"/>
</svg>
