<svg width="32" height="30" viewBox="0 0 32 30" fill="none" xmlns="http://www.w3.org/2000/svg">
<path d="M29.6313 0H2.3625C1.05625 0 0 0.966797 0 2.16211V27.832C0 29.0273 1.05625 30 2.3625 30H29.6313C30.9375 30 32 29.0273 32 27.8379V2.16211C32 0.966797 30.9375 0 29.6313 0ZM9.49375 25.5645H4.74375V11.2441H9.49375V25.5645ZM7.11875 9.29297C5.59375 9.29297 4.3625 8.13867 4.3625 6.71484C4.3625 5.29102 5.59375 4.13672 7.11875 4.13672C8.6375 4.13672 9.86875 5.29102 9.86875 6.71484C9.86875 8.13281 8.6375 9.29297 7.11875 9.29297ZM27.2687 25.5645H22.525V18.6035C22.525 16.9453 22.4937 14.8066 20.0562 14.8066C17.5875 14.8066 17.2125 16.6172 17.2125 18.4863V25.5645H12.475V11.2441H17.025V13.2012H17.0875C17.7188 12.0762 19.2688 10.8867 21.575 10.8867C26.3813 10.8867 27.2687 13.8516 27.2687 17.707V25.5645Z" fill="white"/>
</svg>
