<svg width="31" height="25" viewBox="0 0 31 25" fill="none" xmlns="http://www.w3.org/2000/svg">
<path d="M9.75229 25C21.4475 25 27.8461 15.3808 27.8461 7.04153C27.8461 6.7711 27.8401 6.49467 27.8279 6.22425C29.0727 5.33082 30.1468 4.22419 31 2.95634C29.8408 3.46825 28.61 3.80257 27.3496 3.94789C28.6767 3.1584 29.6703 1.91814 30.1463 0.457033C28.8979 1.19135 27.5326 1.70935 26.109 1.98883C25.1498 0.977263 23.8816 0.307487 22.5004 0.0830526C21.1192 -0.141382 19.702 0.0920259 18.4679 0.747189C17.2338 1.40235 16.2515 2.44278 15.6729 3.70761C15.0943 4.97244 14.9516 6.39124 15.2669 7.74463C12.7391 7.61872 10.2661 6.96697 8.00831 5.83162C5.75053 4.69627 3.75835 3.10267 2.16092 1.15412C1.34902 2.54347 1.10057 4.18751 1.46608 5.75213C1.83159 7.31674 2.78362 8.68453 4.12869 9.57749C3.11889 9.54567 2.13122 9.27583 1.24727 8.79026V8.86838C1.24636 10.3264 1.75421 11.7397 2.68448 12.8681C3.61476 13.9965 4.91004 14.7703 6.35016 15.0581C5.41474 15.3121 4.43298 15.3491 3.48084 15.1662C3.88721 16.4201 4.67787 17.5168 5.74245 18.3033C6.80704 19.0897 8.09245 19.5266 9.41928 19.5531C7.16671 21.3093 4.38414 22.2618 1.51973 22.2573C1.01175 22.2565 0.504265 22.2256 0 22.1648C2.90994 24.0177 6.29498 25.0018 9.75229 25Z" fill="white"/>
</svg>
