<svg width="17" height="17" viewBox="0 0 17 17" fill="none" xmlns="http://www.w3.org/2000/svg">
<path d="M2.50221 8.01401C2.11505 7.62014 1.48191 7.61471 1.08805 8.00187C0.694189 8.38903 0.688755 9.02217 1.07591 9.41603L2.50221 8.01401ZM6.12184 13.1228L5.40869 13.8238L6.12184 14.5493L6.83499 13.8238L6.12184 13.1228ZM15.9233 4.57821C16.3104 4.18435 16.305 3.55121 15.9111 3.16405C15.5173 2.77689 14.8841 2.78232 14.497 3.17618L15.9233 4.57821ZM1.07591 9.41603L5.40869 13.8238L6.83499 12.4218L2.50221 8.01401L1.07591 9.41603ZM6.83499 13.8238L15.9233 4.57821L14.497 3.17618L5.40869 12.4218L6.83499 13.8238Z" fill="white"/>
</svg>
