<svg width="83" height="83" viewBox="0 0 83 83" fill="none" xmlns="http://www.w3.org/2000/svg">
<rect width="83" height="83" rx="10" fill="white"/>
<path d="M25.9527 40.6419C25.1783 39.8542 23.9121 39.8434 23.1243 40.6177C22.3366 41.392 22.3258 42.6583 23.1001 43.446L25.9527 40.6419ZM35.4858 53.1931L34.0595 54.5951L35.4858 56.0461L36.9121 54.5951L35.4858 53.1931ZM59.9 31.2092C60.6744 30.4214 60.6635 29.1551 59.8758 28.3808C59.088 27.6065 57.8218 27.6174 57.0474 28.4051L59.9 31.2092ZM23.1001 43.446L34.0595 54.5951L36.9121 51.7911L25.9527 40.6419L23.1001 43.446ZM36.9121 54.5951L59.9 31.2092L57.0474 28.4051L34.0595 51.7911L36.9121 54.5951Z" fill="#009688"/>
</svg>
