<svg width="500" height="500" viewBox="0 0 500 500" fill="none" xmlns="http://www.w3.org/2000/svg">
<path d="M108.29 238.49C102.998 245.604 95.7162 250.989 87.3641 253.964C79.012 256.94 69.9652 257.372 61.3676 255.206C52.77 253.04 45.0078 248.373 39.0624 241.795C33.1171 235.218 29.2556 227.025 27.9663 218.253C26.677 209.481 28.0178 200.524 31.8191 192.514C35.6204 184.504 41.7115 177.801 49.3222 173.252C56.9329 168.704 65.7214 166.515 74.5764 166.961C83.4314 167.407 91.9553 170.469 99.0701 175.76L99.1601 175.83C108.679 182.929 114.988 193.519 116.7 205.269C118.413 217.02 115.387 228.969 108.29 238.49Z" fill="#EBEBEB"/>
<path d="M99.7499 232.1C95.7221 237.524 90.1762 241.632 83.8136 243.905C77.451 246.177 70.5573 246.512 64.0045 244.866C57.4517 243.221 51.534 239.669 46.9997 234.661C42.4654 229.652 39.5182 223.411 38.5308 216.727C37.5435 210.044 38.5602 203.217 41.4525 197.111C44.3449 191.005 48.9829 185.894 54.78 182.424C60.5771 178.954 67.273 177.282 74.0209 177.617C80.7689 177.953 87.2657 180.282 92.6899 184.31H92.7499C100.009 189.713 104.824 197.777 106.136 206.73C107.449 215.683 105.152 224.791 99.7499 232.05V232.1Z" fill="#F5F5F5"/>
<path d="M100.38 231.24C100.21 231.12 100.99 229.84 102.12 227.41C103.71 224.014 104.759 220.39 105.23 216.67C105.928 211.185 105.272 205.613 103.32 200.44C102.164 197.423 100.592 194.582 98.6501 192C97.619 190.639 96.4821 189.362 95.2501 188.18C92.7162 185.736 89.8099 183.711 86.6401 182.18C83.615 180.706 80.3856 179.694 77.0601 179.18C75.4947 178.939 73.9139 178.812 72.3301 178.8C69.3927 178.762 66.4625 179.098 63.6101 179.8C61.1251 180.443 58.7176 181.355 56.4301 182.52C53.1045 184.242 50.068 186.472 47.4301 189.13C45.5401 191.02 44.6001 192.2 44.4301 192.13C44.2601 192.06 44.9601 190.66 46.6701 188.5C49.1413 185.469 52.1562 182.925 55.5601 181C59.6292 178.678 64.1274 177.205 68.7821 176.673C73.4369 176.14 78.1514 176.557 82.6401 177.9C84.4067 178.43 86.1288 179.098 87.7901 179.9C89.4979 180.729 91.1394 181.689 92.7001 182.77C94.2487 183.869 95.7128 185.082 97.0801 186.4C98.4009 187.689 99.618 189.08 100.72 190.56C103.507 194.311 105.508 198.587 106.601 203.13C107.694 207.674 107.857 212.392 107.08 217C106.439 220.867 105.082 224.58 103.08 227.95C101.58 230.24 100.51 231.33 100.38 231.24Z" fill="#E0E0E0"/>
<path d="M63.2802 230.29L59.7902 235.1L55.4902 232L58.8902 227.32C54.8202 223.97 51.7002 219.68 50.6802 216.11L56.8502 212.58C58.0675 216.095 60.1804 219.231 62.9802 221.68L68.1902 214.5C64.2502 209.88 60.0702 204.42 64.5302 198.27C67.8402 193.71 73.9902 192.2 81.3502 196.35L84.8102 191.58L89.1102 194.7L85.7102 199.38C88.6684 201.796 91.0095 204.881 92.5402 208.38L86.5402 212.11C85.3576 209.466 83.6575 207.086 81.5402 205.11L76.2402 212.42C80.2402 217 84.3002 222.42 79.9002 228.42C76.7102 232.87 70.6302 234.37 63.2802 230.29ZM72.7702 208.16L77.2002 202.05C74.5502 200.91 72.7402 201.51 71.7102 202.93C70.6802 204.35 71.3102 206.18 72.7702 208.16ZM72.6502 223.89C73.7402 222.38 73.0902 220.66 71.7102 218.67L67.4002 224.61C69.9002 225.7 71.6502 225.26 72.6502 223.89Z" fill="#E0E0E0"/>
<path d="M377.48 365.82C372.888 371.993 366.569 376.666 359.322 379.248C352.075 381.83 344.224 382.205 336.764 380.326C329.304 378.447 322.568 374.397 317.409 368.69C312.25 362.982 308.899 355.873 307.78 348.261C306.661 340.649 307.825 332.877 311.124 325.926C314.422 318.976 319.708 313.159 326.312 309.213C332.916 305.266 340.542 303.366 348.226 303.754C355.91 304.142 363.306 306.799 369.48 311.39L369.56 311.45C377.818 317.611 383.291 326.799 384.777 336.995C386.262 347.191 383.637 357.559 377.48 365.82Z" fill="#EBEBEB"/>
<path d="M370.07 360.28C366.569 364.981 361.752 368.538 356.228 370.502C350.705 372.466 344.723 372.747 339.04 371.312C333.357 369.876 328.226 366.787 324.298 362.436C320.37 358.084 317.821 352.666 316.972 346.866C316.123 341.066 317.013 335.144 319.53 329.85C322.047 324.556 326.076 320.126 331.11 317.122C336.144 314.118 341.955 312.674 347.81 312.973C353.664 313.271 359.298 315.299 364 318.8H364.05C367.172 321.126 369.805 324.045 371.797 327.389C373.79 330.734 375.103 334.439 375.663 338.292C376.222 342.144 376.016 346.07 375.056 349.843C374.096 353.616 372.402 357.162 370.07 360.28Z" fill="#F5F5F5"/>
<path d="M370.62 359.53C370.47 359.42 371.15 358.31 372.12 356.2C373.499 353.253 374.41 350.108 374.82 346.88C375.092 344.67 375.119 342.436 374.9 340.22C374.642 337.682 374.058 335.188 373.16 332.8C372.683 331.511 372.108 330.261 371.44 329.06C370.759 327.801 369.98 326.597 369.11 325.46C368.213 324.279 367.227 323.17 366.16 322.14C365.05 321.091 363.871 320.119 362.63 319.23C361.374 318.363 360.057 317.588 358.69 316.91C356.067 315.632 353.265 314.759 350.38 314.32C349.02 314.11 347.646 314 346.27 313.99C341.475 313.931 336.739 315.054 332.48 317.26C329.59 318.754 326.948 320.687 324.65 322.99C323.01 324.63 322.19 325.65 322.05 325.54C321.91 325.43 322.51 324.27 323.99 322.4C326.132 319.754 328.751 317.533 331.71 315.85C333.758 314.67 335.94 313.74 338.21 313.08C340.831 312.323 343.542 311.926 346.27 311.9C347.745 311.878 349.22 311.971 350.68 312.18C352.211 312.393 353.722 312.727 355.2 313.18C359.911 314.588 364.21 317.117 367.73 320.55C368.873 321.672 369.929 322.879 370.89 324.16C371.813 325.395 372.636 326.703 373.35 328.07C374.043 329.357 374.638 330.694 375.13 332.07C376.038 334.65 376.593 337.341 376.78 340.07C376.937 342.43 376.813 344.8 376.41 347.13C375.841 350.487 374.651 353.709 372.9 356.63C371.65 358.66 370.72 359.6 370.62 359.53Z" fill="#E0E0E0"/>
<path d="M338.43 358.7L335.43 362.88L331.69 360.17L334.64 356.1C331.11 353.2 328.41 349.47 327.52 346.38L332.87 343.32C333.929 346.37 335.762 349.092 338.19 351.22L342.71 344.98C339.3 340.98 335.71 336.24 339.54 330.9C342.41 326.9 347.75 325.63 354.13 329.24L357.13 325.09L360.86 327.8L357.91 331.87C360.477 333.951 362.51 336.615 363.84 339.64L358.64 342.87C357.629 340.575 356.166 338.508 354.34 336.79L349.74 343.14C353.18 347.14 356.74 351.79 352.92 357.05C350.07 360.94 344.8 362.24 338.43 358.7ZM346.66 339.5L350.5 334.2C348.2 333.2 346.63 333.73 345.73 334.96C344.83 336.19 345.39 337.79 346.66 339.5ZM346.55 353.15C347.5 351.84 346.93 350.35 345.73 348.62L342 353.77C344.16 354.77 345.69 354.34 346.55 353.15Z" fill="#E0E0E0"/>
<path d="M142.3 98.5399C141.391 103.511 139.027 108.101 135.509 111.728C131.991 115.356 127.477 117.86 122.536 118.921C117.595 119.983 112.451 119.556 107.753 117.694C103.055 115.832 99.0144 112.619 96.1429 108.46C93.2713 104.302 91.6974 99.3852 91.6202 94.3323C91.5429 89.2794 92.9659 84.317 95.709 80.0728C98.4522 75.8286 102.392 72.4932 107.031 70.4884C111.67 68.4836 116.799 67.8995 121.77 68.8099H121.83C125.126 69.4175 128.271 70.6685 131.084 72.4915C133.896 74.3145 136.323 76.6738 138.224 79.4346C140.124 82.1954 141.463 85.3036 142.162 88.5817C142.862 91.8599 142.909 95.2437 142.3 98.5399Z" fill="#EBEBEB"/>
<path d="M136.32 97.4299C135.626 101.218 133.824 104.715 131.143 107.478C128.461 110.242 125.02 112.149 121.255 112.957C117.49 113.765 113.57 113.439 109.99 112.019C106.41 110.599 103.332 108.15 101.145 104.98C98.9574 101.811 97.7589 98.0643 97.7009 94.2139C97.6429 90.3634 98.7281 86.5823 100.819 83.3485C102.91 80.1148 105.913 77.5738 109.448 76.0468C112.984 74.5198 116.892 74.0754 120.68 74.7699C125.749 75.7055 130.239 78.6161 133.163 82.8617C136.086 87.1074 137.204 92.3404 136.27 97.4099L136.32 97.4299Z" fill="#F5F5F5"/>
<path d="M136.43 96.8298C136.314 96.0354 136.287 95.2303 136.35 94.4298C136.305 92.2944 135.927 90.179 135.23 88.1598C134.752 86.76 134.118 85.4182 133.34 84.1598C132.452 82.741 131.383 81.4435 130.16 80.2998C128.816 79.0341 127.293 77.9728 125.64 77.1498C124.768 76.7174 123.866 76.3498 122.94 76.0498C121.985 75.7505 121.009 75.5199 120.02 75.3598C119.027 75.2166 118.024 75.1431 117.02 75.1398C116.046 75.1498 115.073 75.23 114.11 75.3798C113.182 75.5265 112.266 75.7438 111.37 76.0298C110.509 76.298 109.67 76.6323 108.86 77.0298C106.01 78.4085 103.543 80.4694 101.68 83.0298C100.392 84.7454 99.3798 86.6517 98.6803 88.6798C98.4983 89.4592 98.2335 90.2168 97.8903 90.9398C97.7911 90.126 97.8696 89.3004 98.1203 88.5198C98.6204 86.3406 99.5188 84.2726 100.77 82.4198C102.632 79.6283 105.189 77.3707 108.19 75.8698C109.057 75.4285 109.956 75.0541 110.88 74.7498C111.84 74.4283 112.823 74.1809 113.82 74.0098C114.871 73.8298 115.934 73.7262 117 73.6998C118.081 73.6964 119.161 73.7733 120.23 73.9298C121.298 74.0992 122.351 74.35 123.38 74.6798C124.38 75.008 125.353 75.4125 126.29 75.8898C127.196 76.348 128.062 76.8798 128.88 77.4798C129.669 78.0424 130.412 78.6677 131.1 79.3498C132.38 80.5997 133.487 82.0157 134.39 83.5598C135.162 84.9095 135.779 86.3419 136.23 87.8298C136.869 89.9712 137.103 92.2128 136.92 94.4398C136.919 95.2613 136.752 96.0741 136.43 96.8298Z" fill="#E0E0E0"/>
<path d="M117.22 105.69L116.65 109.04L113.65 108.53L114.2 105.27C111.572 104.732 109.146 103.467 107.2 101.62L109.46 98.26C110.968 99.75 112.84 100.819 114.89 101.36L115.74 96.36C112.57 94.99 109.06 93.25 109.79 88.98C110.33 85.82 113.09 83.5 117.9 83.77L118.46 80.45L121.46 80.96L120.9 84.22C123.015 84.7038 124.985 85.6803 126.65 87.07L124.53 90.49C123.265 89.4346 121.804 88.6394 120.23 88.15L119.36 93.23C122.54 94.57 125.99 96.3 125.27 100.5C124.73 103.63 122 105.93 117.22 105.69ZM116.49 92L117.22 87.76C115.57 87.85 114.8 88.61 114.63 89.6C114.46 90.59 115.25 91.35 116.49 92ZM120.4 100.07C120.58 99.07 119.81 98.31 118.6 97.65L117.9 101.76C119.45 101.68 120.24 101 120.4 100.06V100.07Z" fill="#E0E0E0"/>
<path d="M472.62 442.88C472.62 443.03 380.13 443.15 266.07 443.15C152.01 443.15 59.5098 443 59.5098 442.88C59.5098 442.76 151.97 442.62 266.07 442.62C380.17 442.62 472.62 442.74 472.62 442.88Z" fill="#263238"/>
<path d="M181.61 128.06C181.61 128.06 182.48 83.25 145.41 60.49H262.9C262.9 60.49 296.49 87.71 296.77 128.06H181.61Z" fill="#EBEBEB"/>
<path d="M253.94 76.8301C253.94 76.9801 240.52 77.1001 223.94 77.1001C207.36 77.1001 193.94 76.9801 193.94 76.8301C193.94 76.6801 207.36 76.5701 223.94 76.5701C240.52 76.5701 253.94 76.6901 253.94 76.8301Z" fill="#455A64"/>
<path d="M266.76 84.9399C266.76 85.0799 248.98 85.1999 227.05 85.1999C205.12 85.1999 187.34 85.0799 187.34 84.9399C187.34 84.7999 205.12 84.6699 227.05 84.6699C248.98 84.6699 266.76 84.7899 266.76 84.9399Z" fill="#263238"/>
<path d="M273.44 105.44C273.44 105.58 255.66 105.7 233.73 105.7C211.8 105.7 194.01 105.58 194.01 105.44C194.01 105.3 211.79 105.18 233.73 105.18C255.67 105.18 273.44 105.3 273.44 105.44Z" fill="#263238"/>
<path d="M231.94 94.27C231.404 94.3514 230.862 94.3882 230.32 94.38L225.88 94.46C222.13 94.51 216.96 94.54 211.24 94.54C205.52 94.54 200.35 94.54 196.6 94.46L192.16 94.38C191.618 94.3882 191.076 94.3514 190.54 94.27C191.076 94.1919 191.618 94.1584 192.16 94.17L196.6 94.09C200.35 94.09 205.52 94.01 211.24 94.01C216.96 94.01 222.13 94.01 225.88 94.09L230.32 94.17C230.862 94.1584 231.404 94.1919 231.94 94.27Z" fill="#263238"/>
<path d="M266.76 94.27C266.366 94.3517 265.963 94.3886 265.56 94.38L262.28 94.46C259.52 94.51 255.69 94.54 251.47 94.54C247.25 94.54 243.42 94.54 240.66 94.46L237.38 94.38C236.977 94.3886 236.575 94.3517 236.18 94.27C236.576 94.197 236.978 94.1635 237.38 94.17L240.66 94.09C243.42 94.09 247.25 94.01 251.47 94.01C255.69 94.01 259.47 94.01 262.28 94.09L265.56 94.17C265.963 94.1586 266.365 94.1921 266.76 94.27Z" fill="#263238"/>
<path d="M239.31 116.43C238.771 116.512 238.226 116.548 237.68 116.54L233.25 116.62C229.5 116.62 224.32 116.7 218.61 116.7C212.9 116.7 207.71 116.7 203.96 116.62L199.53 116.54C198.985 116.548 198.44 116.512 197.9 116.43C198.44 116.352 198.985 116.318 199.53 116.33L203.96 116.25C207.71 116.25 212.89 116.17 218.61 116.17C224.33 116.17 229.5 116.17 233.25 116.25L237.68 116.33C238.226 116.318 238.771 116.352 239.31 116.43Z" fill="#263238"/>
<path d="M274.13 116.43C273.735 116.512 273.333 116.548 272.93 116.54L269.65 116.62C266.88 116.62 263.06 116.7 258.84 116.7C254.62 116.7 250.84 116.7 248.02 116.62L244.74 116.54C244.337 116.548 243.935 116.512 243.54 116.43C243.936 116.357 244.338 116.323 244.74 116.33L248.02 116.25C250.79 116.25 254.61 116.17 258.84 116.17C263.07 116.17 266.84 116.17 269.65 116.25L272.93 116.33C273.332 116.323 273.734 116.357 274.13 116.43Z" fill="#263238"/>
<path d="M157.59 126.79H330.93L340.37 427.09C340.434 429.105 340.101 431.112 339.388 432.998C338.676 434.884 337.599 436.611 336.219 438.08C334.839 439.549 333.183 440.732 331.345 441.561C329.508 442.389 327.525 442.848 325.51 442.91H144.78C142.234 442.911 139.785 441.932 137.94 440.176C136.095 438.421 134.996 436.023 134.87 433.48L126.54 263.91C126.54 263.91 75.1302 245.25 76.0002 188.32C76.0002 188.32 78.3402 126.79 157.59 126.79Z" fill="#263238"/>
<path d="M167 442.46L159.44 126.79H337.22L340.43 429.18C340.541 432.699 339.249 436.118 336.84 438.685C334.43 441.253 331.1 442.758 327.58 442.87H327.12L167 442.46Z" fill="#455A64"/>
<path d="M174.13 145.08L177.73 292.06H322.52L320.57 145.08H174.13Z" fill="#263238"/>
<path d="M190.15 164.1C197.22 166.01 206.15 165.2 213.41 164.85C213.94 164.85 214.449 164.639 214.824 164.264C215.199 163.889 215.41 163.38 215.41 162.85C215.41 162.32 215.199 161.811 214.824 161.436C214.449 161.061 213.94 160.85 213.41 160.85C206.15 160.49 197.21 159.68 190.15 161.6C189.812 161.7 189.527 161.929 189.359 162.239C189.19 162.548 189.151 162.912 189.25 163.25C189.314 163.462 189.43 163.656 189.587 163.813C189.744 163.97 189.938 164.086 190.15 164.15V164.1Z" fill="#E0E0E0"/>
<path d="M225.77 163.81C232.71 165.58 241.68 165.26 248.77 164.58C249.301 164.58 249.809 164.369 250.185 163.994C250.56 163.619 250.77 163.11 250.77 162.58C250.77 162.049 250.56 161.541 250.185 161.166C249.809 160.791 249.301 160.58 248.77 160.58C241.68 159.89 232.71 159.58 225.77 161.35C225.608 161.399 225.457 161.48 225.326 161.587C225.195 161.695 225.087 161.827 225.007 161.977C224.927 162.126 224.877 162.29 224.861 162.459C224.844 162.627 224.861 162.798 224.91 162.96C224.971 163.163 225.082 163.348 225.232 163.499C225.382 163.649 225.567 163.759 225.77 163.82V163.81Z" fill="#E0E0E0"/>
<path d="M260.91 163.18C264.4 164.24 268.17 164.06 271.79 164.12C275.487 164.34 279.195 164.27 282.88 163.91C284.69 163.65 284.69 160.5 282.88 160.25C279.195 159.882 275.487 159.808 271.79 160.03C268.17 160.09 264.4 159.91 260.91 160.97C260.67 161.039 260.46 161.184 260.31 161.384C260.16 161.583 260.079 161.826 260.079 162.075C260.079 162.324 260.16 162.567 260.31 162.766C260.46 162.966 260.67 163.111 260.91 163.18Z" fill="#E0E0E0"/>
<path d="M293.47 163.38C296.103 163.763 298.76 163.967 301.42 163.99C304.06 164.05 306.91 164.48 309.47 163.75C309.83 163.641 310.145 163.42 310.369 163.118C310.593 162.816 310.713 162.451 310.713 162.075C310.713 161.699 310.593 161.334 310.369 161.032C310.145 160.73 309.83 160.509 309.47 160.4C306.91 159.67 304.06 160.1 301.42 160.16C298.759 160.181 296.103 160.389 293.47 160.78C293.192 160.865 292.949 161.038 292.776 161.272C292.603 161.506 292.51 161.789 292.51 162.08C292.51 162.371 292.603 162.654 292.776 162.888C292.949 163.122 293.192 163.295 293.47 163.38Z" fill="#E0E0E0"/>
<path d="M219.74 309.54H177.78V339.53H219.74V309.54Z" fill="#009688"/>
<path d="M185.37 309.54H177.78V339.53H185.37V309.54Z" fill="#263238"/>
<path d="M271.12 309.54H229.16V339.53H271.12V309.54Z" fill="#009688"/>
<path d="M236.32 309.54H228.73V339.53H236.32V309.54Z" fill="#263238"/>
<path d="M322.51 309.54H280.55V339.53H322.51V309.54Z" fill="#009688"/>
<path d="M286.94 309.54H279.35V339.53H286.94V309.54Z" fill="#263238"/>
<path d="M322.51 349.44H280.55V379.43H322.51V349.44Z" fill="#009688"/>
<path d="M288.37 349.44H280.55V379.43H288.37V349.44Z" fill="#263238"/>
<path d="M219.74 349.44H177.78V379.43H219.74V349.44Z" fill="#009688"/>
<path d="M185.37 349.38H177.78V379.37H185.37V349.38Z" fill="#263238"/>
<path d="M219.74 388.94H177.78V418.93H219.74V388.94Z" fill="#009688"/>
<path opacity="0.3" d="M219.74 388.94H177.78V418.93H219.74V388.94Z" fill="black"/>
<path d="M185.37 388.94H177.78V418.93H185.37V388.94Z" fill="#263238"/>
<path d="M270.89 349.44H228.93V379.43H270.89V349.44Z" fill="#009688"/>
<path d="M236.52 349.38H228.93V379.37H236.52V349.38Z" fill="#263238"/>
<path d="M271.12 388.94H229.16V418.93H271.12V388.94Z" fill="#009688"/>
<path opacity="0.3" d="M271.12 388.94H229.16V418.93H271.12V388.94Z" fill="black"/>
<path d="M236.75 388.94H229.16V418.93H236.75V388.94Z" fill="#263238"/>
<path d="M322.51 388.94H280.55V418.93H322.51V388.94Z" fill="#E0E0E0"/>
<path d="M288.14 388.94H280.55V418.93H288.14V388.94Z" fill="#263238"/>
<path d="M153.15 442.92C152.43 442.92 149.8 372.18 147.27 284.92C144.74 197.66 143.27 126.83 143.99 126.81C144.71 126.79 147.34 197.53 149.87 284.81C152.4 372.09 153.87 442.9 153.15 442.92Z" fill="#455A64"/>
<path d="M322.3 275.32V280.71L338.9 284.84L338.81 276.53L322.3 275.32Z" fill="#455A64"/>
<path d="M120.79 264.51C119.882 264.15 118.906 263.99 117.93 264.04C116.948 264.132 115.984 264.368 115.07 264.74L103.71 268.54L81.5103 276L39.5103 290C37.8531 290.474 36.4288 291.542 35.5103 293C34.6001 294.427 34.2609 296.144 34.5603 297.81C34.744 298.636 34.9845 299.448 35.2803 300.24L36.0903 302.66C36.6303 304.27 37.1603 305.86 37.7003 307.45C39.8069 313.777 41.8603 319.92 43.8603 325.88C47.8603 337.78 51.5403 348.88 54.9303 358.97C61.6703 379.2 67.1403 395.58 70.9303 406.9C72.8103 412.56 74.2603 416.95 75.2603 419.9C75.7403 421.39 76.1203 422.52 76.3703 423.29C76.6203 424.06 76.7303 424.45 76.7303 424.45C76.8642 424.832 77.035 425.201 77.2403 425.55C77.8169 426.592 78.6498 427.47 79.6603 428.1C80.479 428.607 81.3936 428.94 82.3468 429.078C83.3001 429.216 84.2715 429.155 85.2003 428.9C87.3803 428.2 89.8803 427.32 92.7103 426.38L134.47 412.3L89.9303 273.2L112.21 265.73L152.44 389L150.68 346.12C142.58 321.99 133.83 295.9 124.68 268.67C124.37 267.737 123.862 266.883 123.19 266.165C122.519 265.447 121.7 264.882 120.79 264.51ZM69.4503 327.88L59.5103 296.42L62.8803 295.35L72.8203 326.81L69.4503 327.88ZM76.3503 310.55L70.5503 292.21L73.9203 291.15L79.7203 309.48L76.3503 310.55ZM84.1303 333.81L78.3403 315.47L81.7103 314.41L87.5003 332.74L84.1303 333.81ZM86.1303 338.73L89.5003 337.66L105.5 388.44L102.13 389.5L86.1303 338.73ZM107.13 405.17L103.7 394.32L107.07 393.25L110.5 404.11L107.13 405.17ZM121 399.41L117.63 400.47L96.4603 333.47L99.8303 332.41L121 399.41ZM98.1003 326L94.7303 327.06L82.4503 288.23L85.8203 287.16L98.1003 326Z" fill="#009688"/>
<path opacity="0.3" d="M120.79 264.51C119.882 264.15 118.906 263.99 117.93 264.04C116.948 264.132 115.984 264.368 115.07 264.74L103.71 268.54L81.5103 276L39.5103 290C37.8531 290.474 36.4288 291.542 35.5103 293C34.6001 294.427 34.2609 296.144 34.5603 297.81C34.744 298.636 34.9845 299.448 35.2803 300.24L36.0903 302.66C36.6303 304.27 37.1603 305.86 37.7003 307.45C39.8069 313.777 41.8603 319.92 43.8603 325.88C47.8603 337.78 51.5403 348.88 54.9303 358.97C61.6703 379.2 67.1403 395.58 70.9303 406.9C72.8103 412.56 74.2603 416.95 75.2603 419.9C75.7403 421.39 76.1203 422.52 76.3703 423.29C76.6203 424.06 76.7303 424.45 76.7303 424.45C76.8642 424.832 77.035 425.201 77.2403 425.55C77.8169 426.592 78.6498 427.47 79.6603 428.1C80.479 428.607 81.3936 428.94 82.3468 429.078C83.3001 429.216 84.2715 429.155 85.2003 428.9C87.3803 428.2 89.8803 427.32 92.7103 426.38L134.47 412.3L89.9303 273.2L112.21 265.73L152.44 389L150.68 346.12C142.58 321.99 133.83 295.9 124.68 268.67C124.37 267.737 123.862 266.883 123.19 266.165C122.519 265.447 121.7 264.882 120.79 264.51ZM69.4503 327.88L59.5103 296.42L62.8803 295.35L72.8203 326.81L69.4503 327.88ZM76.3503 310.55L70.5503 292.21L73.9203 291.15L79.7203 309.48L76.3503 310.55ZM84.1303 333.81L78.3403 315.47L81.7103 314.41L87.5003 332.74L84.1303 333.81ZM86.1303 338.73L89.5003 337.66L105.5 388.44L102.13 389.5L86.1303 338.73ZM107.13 405.17L103.7 394.32L107.07 393.25L110.5 404.11L107.13 405.17ZM121 399.41L117.63 400.47L96.4603 333.47L99.8303 332.41L121 399.41ZM98.1003 326L94.7303 327.06L82.4503 288.23L85.8203 287.16L98.1003 326Z" fill="black"/>
<path d="M134.5 412.49L134.45 412.33L92.6905 426.41C89.8605 427.35 87.3605 428.23 85.1805 428.93C84.2517 429.185 83.2803 429.245 82.327 429.108C81.3737 428.97 80.4592 428.637 79.6404 428.13C78.63 427.5 77.7971 426.622 77.2205 425.58C76.8305 424.88 76.7404 424.47 76.7104 424.48L76.8104 424.77C77.3345 426.191 78.3114 427.399 79.5904 428.21C80.4149 428.738 81.3411 429.088 82.3092 429.236C83.2773 429.384 84.2656 429.328 85.2104 429.07C87.4104 428.38 89.9104 427.52 92.7505 426.58L140.68 410.58L152.05 406.78L153.15 406.22L134.5 412.49Z" fill="#263238"/>
<path d="M76.3502 423.31C76.1002 422.54 75.7202 421.41 75.2402 419.92C74.2402 416.92 72.7902 412.54 70.9102 406.92C67.1402 395.6 61.6702 379.22 54.9102 358.99C51.5202 348.88 47.8202 337.8 43.8402 325.9C41.8402 319.953 39.7869 313.81 37.6802 307.47C37.1402 305.88 36.6102 304.29 36.0702 302.68L35.2602 300.26C34.9645 299.468 34.7239 298.656 34.5402 297.83C34.2555 296.158 34.6127 294.44 35.5402 293.02C36.4588 291.562 37.883 290.493 39.5402 290.02L81.5402 276.02L103.74 268.58L115.1 264.78C116.014 264.408 116.978 264.172 117.96 264.08C119.438 264.002 120.9 264.41 122.123 265.243C123.346 266.076 124.262 267.287 124.73 268.69C133.86 295.92 142.61 322.01 150.73 346.14L150.66 344.52C142.72 320.8 134.14 295.22 125.21 268.52C124.874 267.521 124.325 266.607 123.602 265.841C122.878 265.074 121.998 264.474 121.02 264.08C120.046 263.69 118.998 263.519 117.95 263.58C116.921 263.674 115.91 263.916 114.95 264.3L103.6 268.11L81.4002 275.55L39.4002 289.63C37.6433 290.113 36.1264 291.228 35.1402 292.76C34.1788 294.285 33.8222 296.115 34.1402 297.89C34.3306 298.736 34.5778 299.568 34.8802 300.38C35.1502 301.19 35.4302 301.99 35.7002 302.8C36.2302 304.4 36.7702 306 37.3002 307.58C39.4336 313.913 41.4969 320.057 43.4902 326.01L54.6002 359.06L70.7302 406.94C72.6502 412.58 74.1302 416.94 75.1402 419.94C75.6502 421.42 76.0402 422.55 76.3002 423.32L76.7102 424.47C76.7102 424.47 76.6002 424.08 76.3502 423.31Z" fill="#263238"/>
<path d="M99.7951 332.426L96.4292 333.49L117.604 400.484L120.969 399.42L99.7951 332.426Z" fill="#FAFAFA"/>
<path d="M85.8161 287.16L82.4502 288.224L94.7311 327.08L98.097 326.016L85.8161 287.16Z" fill="#FAFAFA"/>
<path d="M73.9235 291.144L70.5576 292.208L76.353 310.544L79.7189 309.48L73.9235 291.144Z" fill="#FAFAFA"/>
<path d="M62.2545 294.406L58.8979 295.466L68.8016 326.819L72.1581 325.759L62.2545 294.406Z" fill="#FAFAFA"/>
<path d="M107.11 393.242L103.744 394.306L107.173 405.157L110.539 404.093L107.11 393.242Z" fill="#FAFAFA"/>
<path d="M81.7013 314.408L78.3354 315.472L84.1308 333.808L87.4967 332.744L81.7013 314.408Z" fill="#FAFAFA"/>
<path d="M89.4601 337.688L86.0942 338.752L102.142 389.526L105.508 388.462L89.4601 337.688Z" fill="#FAFAFA"/>
<path d="M89.9302 273.2L134.45 412.33L134.5 412.49L153.15 406.24L152.44 388.98L112.21 265.73L89.9302 273.2Z" fill="#FAFAFA"/>
<path d="M134.25 420.8L152.33 414.44L151.94 406.51L134.5 412.49L134.25 420.8Z" fill="#263238"/>
<path d="M362.21 190.61C362.21 190.75 361.65 190.84 360.95 190.81C360.25 190.78 359.71 190.64 359.72 190.49C359.73 190.34 360.29 190.26 360.98 190.29C361.67 190.32 362.22 190.46 362.21 190.61Z" fill="#263238"/>
<path d="M372 190.19C371.231 190.513 370.403 190.666 369.57 190.64C368.751 190.792 367.909 190.768 367.1 190.57C368.688 190.1 370.358 189.97 372 190.19Z" fill="#263238"/>
<path d="M381.7 188.46C380.979 188.879 380.178 189.142 379.35 189.23C378.555 189.481 377.719 189.57 376.89 189.49C378.404 188.82 380.044 188.479 381.7 188.49V188.46Z" fill="#263238"/>
<path d="M391.05 185.47C390.393 185.978 389.636 186.343 388.83 186.54C388.08 186.901 387.262 187.099 386.43 187.12C387.084 186.608 387.841 186.243 388.65 186.05C389.403 185.698 390.219 185.501 391.05 185.47Z" fill="#263238"/>
<path d="M399.92 181.24C398.638 182.29 397.154 183.063 395.56 183.51C396.147 182.92 396.848 182.454 397.62 182.14C398.316 181.684 399.099 181.377 399.92 181.24Z" fill="#263238"/>
<path d="M408.09 175.79C408.18 175.9 407.36 176.64 406.25 177.44C405.63 177.994 404.901 178.413 404.11 178.67C404.03 178.55 404.85 177.81 405.95 177.01C407.05 176.21 408 175.67 408.09 175.79Z" fill="#263238"/>
<path d="M415.31 169.13C415.42 169.23 414.72 170.13 413.76 171.05C412.8 171.97 411.93 172.71 411.84 172.6C411.75 172.49 412.43 171.6 413.39 170.68C414.35 169.76 415.2 169 415.31 169.13Z" fill="#263238"/>
<path d="M421.28 161.34C421.41 161.41 420.87 162.34 420.09 163.5C419.31 164.66 418.58 165.5 418.47 165.37C418.717 164.574 419.122 163.836 419.66 163.2C420.44 162.1 421.16 161.26 421.28 161.34Z" fill="#263238"/>
<path d="M425.68 152.56C425.34 154.185 424.658 155.719 423.68 157.06C423.998 155.428 424.682 153.89 425.68 152.56Z" fill="#263238"/>
<path d="M428.28 143.1C428.354 143.928 428.255 144.762 427.99 145.55C427.892 146.378 427.62 147.176 427.19 147.89C427.209 146.234 427.58 144.601 428.28 143.1Z" fill="#263238"/>
<path d="M429.28 133.33C429.533 134.967 429.427 136.639 428.97 138.23C428.767 137.426 428.733 136.588 428.87 135.77C428.84 134.937 428.98 134.107 429.28 133.33Z" fill="#263238"/>
<path d="M428.79 123.53C429.286 125.11 429.433 126.778 429.22 128.42C428.9 127.654 428.74 126.83 428.75 126C428.598 125.182 428.611 124.342 428.79 123.53Z" fill="#263238"/>
<path d="M426.8 113.91C427.239 114.617 427.528 115.407 427.65 116.23C427.932 117.014 428.048 117.849 427.99 118.68C427.551 117.973 427.261 117.184 427.14 116.36C426.863 115.575 426.747 114.741 426.8 113.91Z" fill="#263238"/>
<path d="M423.24 104.76C423.794 105.38 424.213 106.109 424.47 106.9C424.887 107.623 425.143 108.428 425.22 109.26C424.67 108.633 424.252 107.902 423.99 107.11C423.581 106.386 423.326 105.586 423.24 104.76Z" fill="#263238"/>
<path d="M418 96.45C418.11 96.36 418.83 97.19 419.62 98.31C420.162 98.9399 420.567 99.6754 420.81 100.47C420.69 100.55 419.96 99.71 419.19 98.61C418.648 97.9802 418.243 97.2447 418 96.45Z" fill="#263238"/>
<path d="M411.19 89.4102C411.28 89.3002 412.19 89.9002 413.19 90.8302C414.19 91.7602 414.87 92.6402 414.77 92.7402C414.67 92.8402 413.83 92.1302 412.84 91.2102C411.85 90.2902 411.1 89.5202 411.19 89.4102Z" fill="#263238"/>
<path d="M405.08 85.1902C405.15 85.0702 405.69 85.2602 406.28 85.6202C406.87 85.9802 407.28 86.3702 407.21 86.4902C407.14 86.6102 406.59 86.4202 406.01 86.0702C405.43 85.7202 405 85.3202 405.08 85.1902Z" fill="#263238"/>
<path d="M377.96 109.89C397.091 109.89 412.6 94.3812 412.6 75.2501C412.6 56.119 397.091 40.6101 377.96 40.6101C358.829 40.6101 343.32 56.119 343.32 75.2501C343.32 94.3812 358.829 109.89 377.96 109.89Z" fill="#009688"/>
<path d="M357.47 77.7801L362.83 72.4201L373.17 81.6101L393.47 62.0801L398.45 67.4401L372.41 91.9501L357.47 77.7801Z" fill="#FAFAFA"/>
<path d="M398.17 226.28L393.07 207.59C393.07 207.59 369.07 213.84 367.54 211.9C358.83 201.13 354.43 186.33 353.06 181.02C353.25 180.26 353.51 179.37 353.86 178.33C354.164 177.44 354.617 176.608 355.2 175.87C355.888 174.93 356.703 174.089 357.62 173.37C357.869 173.229 358.052 172.995 358.129 172.72C358.206 172.444 358.17 172.149 358.03 171.9C357.958 171.76 357.855 171.64 357.728 171.548C357.601 171.456 357.455 171.395 357.3 171.37C356.3 171.3 353.78 172.82 351.89 175.71C350 178.6 349.43 173.2 349.19 171.24C348.95 169.28 347.9 163.24 347.24 162.81C346.24 162.22 345.45 163.15 345.74 165.11C346.03 167.07 346.48 173.01 345.44 173.11C344.4 173.21 343.3 163.11 343.3 163.11C343.3 163.11 343.41 160.93 342.2 160.98C340.01 161.07 341.98 171.65 342.2 172.66C342.35 173.35 341.2 173.48 341.1 172.72C341 171.96 340.22 162.72 338 162.72C336.29 162.78 339.53 171.44 338.62 173.45C337.71 175.46 336.83 166.63 335.2 166.75C334.6 166.75 334.15 166.91 335.39 171.91C336.433 175.474 337.668 178.979 339.09 182.41H339C339 182.41 347.9 234.63 371 231.71C395.59 228.67 398.17 226.28 398.17 226.28Z" fill="#FFBE9D"/>
<path d="M363.32 278.09L216.75 267.42C214.763 267.281 212.911 266.362 211.6 264.863C210.288 263.364 209.623 261.408 209.75 259.42L216.31 169.37C216.448 167.383 217.367 165.532 218.866 164.22C220.365 162.909 222.322 162.244 224.31 162.37L371 173C372.997 173.141 374.856 174.069 376.168 175.581C377.481 177.092 378.14 179.063 378 181.06L371.44 271.11C371.371 272.098 371.108 273.063 370.667 273.95C370.225 274.837 369.613 275.628 368.865 276.278C368.118 276.928 367.249 277.425 366.31 277.739C365.37 278.053 364.378 278.179 363.39 278.11L363.32 278.09Z" fill="#009688"/>
<path d="M363.32 278.09C363.77 278.09 364.21 278.09 364.66 278.09C365.972 277.949 367.222 277.459 368.28 276.67C369.134 276.036 369.843 275.227 370.36 274.298C370.878 273.369 371.191 272.34 371.28 271.28C371.46 268.74 371.67 265.81 371.9 262.52L375.9 206.75C376.32 200.863 376.763 194.7 377.23 188.26C377.35 186.66 377.46 185.03 377.58 183.4C377.861 181.784 377.82 180.129 377.46 178.53C377.007 176.936 376.018 175.548 374.66 174.6C373.979 174.118 373.221 173.753 372.42 173.52C371.592 173.33 370.748 173.22 369.9 173.19L325.69 170L224.4 162.59C223.316 162.511 222.227 162.675 221.215 163.071C220.203 163.468 219.292 164.086 218.55 164.88C217.808 165.669 217.254 166.616 216.93 167.65C216.649 168.707 216.501 169.796 216.49 170.89C216.156 175.33 215.823 179.737 215.49 184.11C214.823 192.863 214.196 201.477 213.61 209.95C212.37 226.89 211.17 243.24 210.03 258.8C209.768 260.69 210.241 262.608 211.35 264.16C212.442 265.688 214.083 266.735 215.93 267.08C219.66 267.45 223.44 267.65 227.12 267.95L248.57 269.52L287.09 272.36L342.85 276.5L358 277.66L362 278L363.34 278.12C363.34 278.12 362.89 278.12 362 278.05L358 277.79L342.84 276.74L287.06 272.74L248.57 270L227.11 268.45C223.42 268.16 219.71 267.97 215.87 267.59C213.904 267.226 212.155 266.115 210.99 264.49C209.822 262.845 209.318 260.82 209.58 258.82C210.71 243.25 211.9 226.91 213.13 209.96C213.743 201.487 214.366 192.873 215 184.12C215.32 179.74 215.653 175.333 216 170.9C216.018 169.766 216.173 168.637 216.46 167.54C216.99 165.869 218.068 164.425 219.519 163.442C220.971 162.459 222.711 161.993 224.46 162.12L325.75 169.52L369.95 172.76C370.826 172.791 371.697 172.908 372.55 173.11C373.816 173.475 374.971 174.152 375.908 175.077C376.846 176.003 377.538 177.149 377.92 178.41C378.161 179.234 378.259 180.093 378.21 180.95C378.21 181.79 378.1 182.6 378.04 183.43C377.92 185.06 377.8 186.69 377.68 188.29C377.206 194.723 376.753 200.883 376.32 206.77C374.57 230.31 373.15 249.36 372.17 262.54C371.92 265.83 371.7 268.74 371.51 271.29C371.411 272.37 371.082 273.417 370.544 274.359C370.005 275.301 369.271 276.117 368.39 276.75C367.317 277.54 366.047 278.021 364.72 278.14C364.387 278.17 364.052 278.17 363.72 278.14L363.32 278.09Z" fill="#263238"/>
<path d="M226.33 230L225.68 239L224.76 238.93L225.35 230.78L223.24 230.63L223.3 229.81L226.33 230Z" fill="#FAFAFA"/>
<path d="M235 238.85L234.93 239.67L228.64 239.21V238.56L232.64 235.18C233.72 234.25 233.96 233.67 234 233.05C234.08 232.05 233.39 231.32 232 231.22C231.545 231.155 231.081 231.195 230.644 231.337C230.207 231.479 229.809 231.72 229.48 232.04L228.87 231.43C229.303 231.023 229.821 230.718 230.386 230.536C230.952 230.355 231.551 230.301 232.14 230.38C233.96 230.51 235.05 231.52 234.94 233.02C234.875 233.566 234.69 234.09 234.4 234.557C234.11 235.024 233.72 235.421 233.26 235.72L230 238.49L235 238.85Z" fill="#FAFAFA"/>
<path d="M244.52 238L242.73 237.87L242.55 240.23L241.63 240.16L241.8 237.8L236.74 237.44V236.77L241.93 231.17L242.93 231.24L237.93 236.7L241.83 236.99L241.98 234.91L242.88 234.97L242.73 237.05L244.52 237.18V238Z" fill="#FAFAFA"/>
<path d="M258.27 239L256.48 238.87L256.3 241.23L255.38 241.16L255.55 238.81L250.49 238.44V237.77L255.68 232.17L256.68 232.25L251.68 237.7L255.58 237.99L255.73 235.91L256.63 235.98L256.47 238.05L258.27 238.18V239Z" fill="#FAFAFA"/>
<path d="M266.13 239.29C266.02 240.82 264.87 241.93 262.68 241.77C261.496 241.729 260.374 241.231 259.55 240.38L260.05 239.69C260.747 240.437 261.709 240.882 262.73 240.93C264.25 241.04 265.11 240.35 265.19 239.26C265.27 238.17 264.61 237.34 262.33 237.17L260.42 237.03L261.21 232.57L266.12 232.93L266.06 233.75L261.96 233.45L261.44 236.28L262.6 236.37C265.3 236.56 266.25 237.7 266.13 239.29Z" fill="#FAFAFA"/>
<path d="M275 239.9C274.939 240.636 274.589 241.318 274.027 241.798C273.465 242.277 272.736 242.515 272 242.46H271.76C269.37 242.29 268.2 240.54 268.41 237.71C268.63 234.66 270.41 233.19 272.85 233.37C273.592 233.39 274.314 233.611 274.94 234.01L274.51 234.73C274.005 234.385 273.411 234.194 272.8 234.18C270.86 234.04 269.53 235.18 269.35 237.62V238.36C269.642 237.883 270.068 237.502 270.575 237.264C271.081 237.026 271.646 236.941 272.2 237.02C272.912 236.996 273.605 237.253 274.129 237.735C274.653 238.218 274.966 238.888 275 239.6C275.01 239.7 275.01 239.8 275 239.9ZM274.09 239.9C274.18 238.72 273.36 237.9 271.98 237.8C271.711 237.749 271.435 237.752 271.168 237.808C270.9 237.864 270.646 237.972 270.421 238.126C270.195 238.281 270.002 238.478 269.853 238.706C269.703 238.935 269.6 239.191 269.55 239.46C269.55 239.46 269.55 239.55 269.55 239.59C269.47 240.59 270.23 241.59 271.78 241.69C272.039 241.734 272.305 241.727 272.561 241.669C272.818 241.61 273.061 241.502 273.275 241.349C273.49 241.197 273.672 241.004 273.812 240.781C273.952 240.558 274.046 240.31 274.09 240.05C274.095 239.987 274.095 239.923 274.09 239.86V239.9Z" fill="#FAFAFA"/>
<path d="M287.27 240.9C287.16 242.4 285.99 243.47 283.82 243.31C282.633 243.269 281.508 242.771 280.68 241.92L281.18 241.23C281.887 241.975 282.854 242.419 283.88 242.47C285.37 242.57 286.24 241.94 286.32 240.83C286.4 239.72 285.69 238.99 284.03 238.83L283.39 238.78L283.44 238.1L286.15 235.17L281.56 234.84L281.62 234.02L287.39 234.44L287.34 235.09L284.57 238.09C286.49 238.38 287.37 239.46 287.27 240.9Z" fill="#FAFAFA"/>
<path d="M296.27 241.45C296.214 242.19 295.866 242.877 295.304 243.361C294.741 243.844 294.01 244.085 293.27 244.03C293.18 244.04 293.09 244.04 293 244.03C290.62 243.86 289.44 242.11 289.65 239.28C289.87 236.28 291.65 234.76 294.09 234.94C294.832 234.96 295.554 235.181 296.18 235.58L295.75 236.3C295.247 235.951 294.652 235.759 294.04 235.75C292.1 235.61 290.77 236.75 290.59 239.19V239.93C290.883 239.453 291.308 239.072 291.815 238.834C292.321 238.596 292.886 238.511 293.44 238.59C294.16 238.56 294.862 238.817 295.393 239.305C295.923 239.792 296.239 240.47 296.27 241.19C296.278 241.276 296.278 241.363 296.27 241.45ZM295.36 241.45C295.45 240.27 294.63 239.45 293.25 239.35C292.981 239.299 292.705 239.302 292.438 239.358C292.17 239.414 291.917 239.522 291.691 239.676C291.465 239.83 291.272 240.028 291.123 240.256C290.973 240.485 290.87 240.741 290.82 241.01C290.82 241.01 290.82 241.1 290.82 241.14C290.74 242.14 291.5 243.14 293.05 243.24C293.309 243.284 293.575 243.277 293.831 243.219C294.088 243.16 294.331 243.052 294.545 242.899C294.76 242.747 294.942 242.554 295.082 242.331C295.222 242.108 295.316 241.859 295.36 241.6C295.365 241.537 295.365 241.473 295.36 241.41V241.45Z" fill="#FAFAFA"/>
<path d="M305 235.76L304.95 236.41L300.59 244.41L299.59 244.34L303.88 236.46L299.27 236.12L299.14 237.8L298.23 237.74L298.42 235.24L305 235.76Z" fill="#FAFAFA"/>
<path d="M317.81 236.69L317.76 237.35L313.4 245.35L312.4 245.28L316.68 237.4L312.07 237.06L311.95 238.74L311.04 238.67L311.22 236.17L317.81 236.69Z" fill="#FAFAFA"/>
<path d="M326.16 243.81C326.05 245.4 324.63 246.28 322.49 246.13C320.35 245.98 319.1 244.89 319.22 243.3C319.254 242.791 319.459 242.308 319.802 241.931C320.145 241.553 320.606 241.302 321.11 241.22C320.7 241.062 320.354 240.774 320.125 240.4C319.895 240.026 319.795 239.587 319.84 239.15C319.95 237.69 321.26 236.87 323.16 237C325.06 237.13 326.26 238.15 326.16 239.61C326.139 240.051 325.972 240.473 325.686 240.809C325.401 241.145 325.012 241.378 324.58 241.47C325.069 241.624 325.491 241.94 325.778 242.364C326.065 242.789 326.199 243.299 326.16 243.81ZM325.22 243.73C325.3 242.62 324.4 241.86 322.81 241.73C321.22 241.6 320.24 242.23 320.16 243.34C320.08 244.45 320.96 245.21 322.55 245.34C324.14 245.47 325.14 244.84 325.22 243.73ZM322.86 241C324.26 241.1 325.14 240.53 325.21 239.56C325.28 238.59 324.44 237.86 323.1 237.77C321.76 237.68 320.84 238.22 320.77 239.22C320.7 240.22 321.47 240.91 322.86 241Z" fill="#FAFAFA"/>
<path d="M335 242.38C334.78 245.43 333 246.9 330.56 246.72C329.82 246.69 329.1 246.47 328.47 246.08L328.89 245.36C329.399 245.704 329.996 245.894 330.61 245.91C332.54 246.05 333.87 244.91 334.05 242.46V241.73C333.757 242.209 333.329 242.591 332.821 242.829C332.313 243.067 331.746 243.151 331.19 243.07C330.47 243.1 329.768 242.843 329.237 242.355C328.707 241.868 328.391 241.19 328.36 240.47C328.35 240.367 328.35 240.263 328.36 240.16C328.424 239.425 328.774 238.744 329.335 238.265C329.897 237.786 330.624 237.547 331.36 237.6H331.59C334.06 237.8 335.23 239.55 335 242.38ZM333.86 240.5C333.93 239.5 333.18 238.5 331.63 238.41C331.108 238.32 330.571 238.441 330.138 238.747C329.705 239.052 329.41 239.518 329.32 240.04C329.316 240.093 329.316 240.147 329.32 240.2C329.23 241.38 330.05 242.2 331.43 242.3C331.97 242.409 332.531 242.3 332.99 241.996C333.449 241.693 333.769 241.219 333.88 240.68V240.5H333.86Z" fill="#FAFAFA"/>
<path d="M291.637 250.497L291.353 254.397L363.213 259.624L363.497 255.724L291.637 250.497Z" fill="#FAFAFA"/>
<path d="M326.086 260.832L325.802 264.732L362.655 267.412L362.939 263.513L326.086 260.832Z" fill="#FAFAFA"/>
<path d="M222.664 204.365L221.743 216.992C221.544 219.724 223.597 222.1 226.329 222.299L246.585 223.776C249.317 223.975 251.694 221.922 251.893 219.19L252.814 206.563C253.013 203.831 250.959 201.455 248.227 201.256L227.971 199.779C225.239 199.58 222.863 201.633 222.664 204.365Z" fill="#455A64"/>
<path d="M221.85 215.69L221.96 214.25L237.48 215.38C237.906 215.424 238.336 215.384 238.747 215.261C239.157 215.139 239.54 214.937 239.872 214.667C240.205 214.396 240.481 214.063 240.684 213.686C240.888 213.31 241.016 212.896 241.06 212.47C241.104 212.044 241.063 211.613 240.941 211.203C240.818 210.792 240.616 210.41 240.346 210.077C240.076 209.745 239.743 209.469 239.366 209.265C238.989 209.062 238.576 208.934 238.15 208.89H238L222.48 207.76L222.58 206.31L238.11 207.44C239.324 207.57 240.441 208.166 241.224 209.103C242.008 210.04 242.396 211.245 242.308 212.464C242.22 213.682 241.662 214.818 240.752 215.633C239.841 216.448 238.65 216.877 237.43 216.83L221.85 215.69Z" fill="#009688"/>
<path d="M241.738 211.678L241.631 213.124L252.282 213.91L252.389 212.464L241.738 211.678Z" fill="#009688"/>
<path d="M227.937 181.115L227.452 187.768L304.996 193.421L305.481 186.769L227.937 181.115Z" fill="#FAFAFA"/>
<path d="M407.48 163.6C405.41 167.05 405.62 171.38 406.2 175.37C406.78 179.36 407.68 183.43 406.79 187.37C406.2 189.96 404.79 192.55 405.47 195.12C405.92 196.95 407.29 198.39 407.97 200.12C408.97 202.62 408.4 205.4 408.07 208.06C407.74 210.72 407.76 213.69 409.52 215.7C411.71 218.2 415.74 218.09 418.74 216.7C421.74 215.31 424.12 212.84 426.9 211.03C429.68 209.22 433.3 208.03 436.29 209.47C437.67 210.13 438.86 211.31 440.38 211.47C442.51 211.63 444.19 209.68 446.25 209.11C448.02 208.63 449.91 209.22 451.73 209.01C455.44 208.6 458.18 204.6 457.66 200.91C457.313 199.067 456.403 197.377 455.057 196.071C453.71 194.766 451.993 193.91 450.14 193.62C448.57 193.36 446.68 193.32 445.82 191.98C444.54 189.98 446.82 187.47 446.39 185.16C446.11 183.5 444.53 182.39 442.98 181.71C441.43 181.03 439.72 180.58 438.52 179.4C436.37 177.3 436.61 173.86 435.95 170.92C434.86 166.08 430.33 156.17 420.47 155.2" fill="#263238"/>
<path d="M402.91 439L403.1 431.94L416.33 432.21L416.16 442.54H415.34C411.69 442.67 396.75 442.94 394.34 442.15C391.62 441.3 402.91 439 402.91 439Z" fill="#009688"/>
<path d="M411.37 442.33C411.589 441.221 412.208 440.232 413.11 439.55C413.997 438.871 415.107 438.55 416.22 438.65L416.15 442.34L411.37 442.33Z" fill="#009688"/>
<path d="M397.39 440.31C397.39 440.31 393.39 441.37 393.91 442.03C394.43 442.69 409.49 443.03 416.16 442.53V442.24L398.55 442.04C398.55 442.04 398.16 440.36 397.39 440.31Z" fill="#009688"/>
<path d="M416.35 442.23H415.47L413.07 442.29H405.13C402.03 442.29 399.22 442.12 397.19 442.01L394.79 441.86L394.14 441.81H394.79L397.2 441.9C399.2 441.98 402.03 442.08 405.13 442.14C408.23 442.2 411.03 442.21 413.06 442.2H416.35V442.23Z" fill="#263238"/>
<path d="M398.53 442.25C398.431 441.848 398.287 441.459 398.1 441.09C397.869 440.748 397.601 440.432 397.3 440.15C397.693 440.335 398.021 440.634 398.241 441.009C398.46 441.384 398.561 441.817 398.53 442.25Z" fill="#263238"/>
<path d="M402.47 440.34C402.315 440.185 402.178 440.014 402.06 439.83C401.87 439.53 401.75 439.25 401.79 439.23C401.83 439.21 402.01 439.44 402.2 439.74C402.39 440.04 402.51 440.32 402.47 440.34Z" fill="#263238"/>
<path d="M403.55 439.8C403.383 439.714 403.228 439.606 403.09 439.48C402.86 439.27 402.71 439.07 402.74 439.04C402.77 439.01 402.98 439.15 403.2 439.36C403.42 439.57 403.58 439.77 403.55 439.8Z" fill="#263238"/>
<path d="M404.25 438.56C404.25 438.61 403.94 438.64 403.56 438.64C403.18 438.64 402.87 438.64 402.87 438.55C403.091 438.472 403.327 438.448 403.56 438.48C403.793 438.457 404.028 438.484 404.25 438.56Z" fill="#263238"/>
<path d="M404.5 437.69C404.271 437.838 404.002 437.911 403.73 437.9C403.459 437.943 403.182 437.897 402.94 437.77C403.2 437.75 403.46 437.75 403.72 437.77C403.975 437.709 404.238 437.682 404.5 437.69Z" fill="#263238"/>
<path d="M402 439.18C401.719 439.23 401.431 439.23 401.15 439.18C400.844 439.133 400.543 439.059 400.25 438.96C400.073 438.903 399.903 438.829 399.74 438.74C399.641 438.677 399.567 438.581 399.53 438.47C399.519 438.406 399.527 438.34 399.552 438.28C399.576 438.22 399.617 438.168 399.67 438.13C399.999 437.98 400.369 437.947 400.719 438.038C401.069 438.129 401.376 438.338 401.59 438.63C401.72 438.797 401.809 438.992 401.85 439.2V439.43C401.772 439.166 401.646 438.919 401.48 438.7C401.292 438.471 401.042 438.301 400.76 438.21C400.598 438.151 400.427 438.125 400.255 438.134C400.083 438.143 399.915 438.185 399.76 438.26C399.62 438.36 399.67 438.52 399.82 438.61C399.972 438.69 400.129 438.76 400.29 438.82C400.572 438.929 400.863 439.013 401.16 439.07C401.442 439.091 401.722 439.128 402 439.18Z" fill="#263238"/>
<path d="M401.82 439.22C401.719 439.041 401.691 438.83 401.74 438.63C401.769 438.401 401.859 438.183 402 438C402.072 437.873 402.177 437.767 402.303 437.693C402.43 437.619 402.573 437.58 402.72 437.58C402.803 437.606 402.874 437.66 402.919 437.733C402.965 437.807 402.983 437.895 402.97 437.98C402.945 438.112 402.894 438.238 402.82 438.35C402.706 438.537 402.568 438.708 402.41 438.86C402.272 439.011 402.101 439.127 401.91 439.2C402.059 439.07 402.199 438.929 402.33 438.78C402.47 438.629 402.591 438.461 402.69 438.28C402.81 438.1 402.9 437.78 402.69 437.74C402.48 437.7 402.25 437.92 402.12 438.09C401.993 438.25 401.907 438.439 401.87 438.64C401.838 438.832 401.822 439.026 401.82 439.22Z" fill="#263238"/>
<path d="M416.15 438.61C415.817 438.578 415.483 438.578 415.15 438.61C414.368 438.68 413.621 438.97 412.998 439.449C412.375 439.927 411.9 440.572 411.63 441.31C411.42 441.87 411.39 442.25 411.36 442.25C411.35 442.16 411.35 442.07 411.36 441.98C411.481 441.048 411.926 440.189 412.617 439.553C413.309 438.916 414.202 438.544 415.14 438.5C415.38 438.48 415.62 438.48 415.86 438.5C415.961 438.525 416.058 438.561 416.15 438.61Z" fill="#263238"/>
<path d="M414.89 433.08C414.97 433.984 414.99 434.893 414.95 435.8C414.972 436.705 414.938 437.61 414.85 438.51C414.743 436.702 414.743 434.889 414.85 433.08H414.89Z" fill="#263238"/>
<path d="M409.73 441C409.093 441.14 408.44 441.191 407.79 441.15C407.141 441.167 406.493 441.103 405.86 440.96C405.86 440.96 406.73 440.96 407.8 440.96C408.87 440.96 409.72 441 409.73 441Z" fill="#263238"/>
<path d="M412.32 441.06C412.269 441.186 412.213 441.31 412.15 441.43C412.05 441.62 412.01 441.81 411.96 441.8C411.91 441.79 411.9 441.59 412.01 441.37C412.12 441.15 412.29 441 412.32 441.06Z" fill="#263238"/>
<path d="M413.32 439.86C413.276 439.973 413.207 440.075 413.12 440.16C412.98 440.29 412.85 440.38 412.82 440.35C412.79 440.32 412.87 440.18 413.01 440.05C413.15 439.92 413.29 439.83 413.32 439.86Z" fill="#263238"/>
<path d="M414.73 439.33C414.73 439.38 414.54 439.33 414.35 439.44C414.16 439.55 414.01 439.6 413.98 439.57C413.95 439.54 414.06 439.36 414.3 439.28C414.54 439.2 414.74 439.29 414.73 439.33Z" fill="#263238"/>
<path d="M415.73 439.09C415.691 439.157 415.631 439.21 415.56 439.24C415.485 439.263 415.405 439.263 415.33 439.24C415.365 439.17 415.426 439.117 415.5 439.09C415.61 439.05 415.71 439.05 415.73 439.09Z" fill="#263238"/>
<path d="M440.44 439L440.63 431.94L453.85 432.21L453.679 442.54H452.859C449.209 442.67 434.279 442.94 431.859 442.15C429.149 441.3 440.44 439 440.44 439Z" fill="#009688"/>
<path d="M448.89 442.33C449.109 441.219 449.733 440.228 450.64 439.55C451.525 438.866 452.636 438.545 453.75 438.65L453.67 442.34L448.89 442.33Z" fill="#009688"/>
<path d="M434.92 440.31C434.92 440.31 430.92 441.37 431.43 442.03C431.94 442.69 447.01 443.03 453.68 442.53V442.24L436.06 442.04C436.06 442.04 435.69 440.36 434.92 440.31Z" fill="#009688"/>
<path d="M453.88 442.23H453L450.59 442.29H442.65C439.55 442.29 436.74 442.12 434.72 442.01L432.31 441.86L431.66 441.81H432.32L434.72 441.9C436.72 441.98 439.55 442.08 442.65 442.14C445.75 442.2 448.56 442.21 450.59 442.2H453.88V442.23Z" fill="#263238"/>
<path d="M436.05 442.25C435.955 441.848 435.814 441.459 435.63 441.09C435.399 440.748 435.131 440.432 434.83 440.15C435.222 440.335 435.549 440.635 435.767 441.01C435.985 441.385 436.083 441.817 436.05 442.25Z" fill="#263238"/>
<path d="M440 440.34C439.846 440.187 439.712 440.015 439.6 439.83C439.42 439.53 439.29 439.25 439.33 439.23C439.37 439.21 439.55 439.44 439.73 439.74C439.845 439.927 439.936 440.129 440 440.34Z" fill="#263238"/>
<path d="M441.08 439.8C440.912 439.717 440.757 439.609 440.62 439.48C440.4 439.27 440.24 439.07 440.27 439.04C440.3 439.01 440.5 439.15 440.73 439.36C440.96 439.57 441.11 439.77 441.08 439.8Z" fill="#263238"/>
<path d="M441.779 438.56C441.779 438.61 441.469 438.64 441.089 438.64C440.709 438.64 440.399 438.64 440.399 438.55C440.621 438.472 440.857 438.448 441.089 438.48C441.322 438.457 441.558 438.484 441.779 438.56Z" fill="#263238"/>
<path d="M442 437.69C441.765 437.833 441.494 437.906 441.22 437.9C440.949 437.943 440.672 437.897 440.43 437.77C440.689 437.75 440.95 437.75 441.21 437.77C441.468 437.708 441.734 437.682 442 437.69Z" fill="#263238"/>
<path d="M439.57 439.18C439.288 439.23 439.001 439.23 438.72 439.18C438.414 439.133 438.113 439.059 437.82 438.96C437.638 438.907 437.464 438.834 437.3 438.74C437.201 438.679 437.129 438.582 437.1 438.47C437.089 438.407 437.096 438.342 437.118 438.282C437.141 438.223 437.18 438.17 437.23 438.13C437.558 437.98 437.929 437.947 438.279 438.038C438.628 438.129 438.936 438.338 439.15 438.63C439.279 438.799 439.371 438.993 439.42 439.2C439.44 439.275 439.44 439.355 439.42 439.43C439.337 439.166 439.209 438.919 439.04 438.7C438.857 438.469 438.61 438.299 438.33 438.21C438.002 438.096 437.644 438.114 437.33 438.26C437.2 438.36 437.25 438.52 437.39 438.61C437.54 438.7 437.701 438.771 437.87 438.82C438.152 438.929 438.443 439.013 438.74 439.07C439.24 439.15 439.57 439.15 439.57 439.18Z" fill="#263238"/>
<path d="M439.35 439.22C439.246 439.042 439.214 438.831 439.26 438.63C439.292 438.406 439.378 438.193 439.51 438.01C439.584 437.887 439.688 437.784 439.812 437.71C439.936 437.637 440.076 437.596 440.22 437.59C440.306 437.611 440.38 437.664 440.429 437.739C440.477 437.813 440.495 437.903 440.48 437.99C440.456 438.124 440.401 438.251 440.32 438.36C440.209 438.549 440.071 438.721 439.91 438.87C439.777 439.022 439.609 439.139 439.42 439.21C439.564 439.077 439.701 438.937 439.83 438.79C439.97 438.636 440.094 438.469 440.2 438.29C440.32 438.11 440.4 437.79 440.2 437.75C440 437.71 439.77 437.93 439.63 438.1C439.513 438.266 439.428 438.452 439.38 438.65C439.35 438.838 439.34 439.029 439.35 439.22Z" fill="#263238"/>
<path d="M453.68 438.61C453.348 438.578 453.013 438.578 452.68 438.61C451.898 438.681 451.152 438.972 450.529 439.45C449.906 439.928 449.431 440.573 449.16 441.31C448.95 441.87 448.92 442.25 448.89 442.25C448.87 442.161 448.87 442.069 448.89 441.98C448.918 441.738 448.972 441.5 449.05 441.27C449.299 440.496 449.778 439.816 450.423 439.322C451.068 438.827 451.848 438.54 452.66 438.5C452.903 438.48 453.147 438.48 453.39 438.5C453.493 438.517 453.592 438.554 453.68 438.61Z" fill="#263238"/>
<path d="M452.42 433.08C452.527 434.889 452.527 436.702 452.42 438.51C452.34 437.609 452.32 436.704 452.36 435.8C452.325 434.893 452.345 433.985 452.42 433.08Z" fill="#263238"/>
<path d="M447.25 441C446.616 441.14 445.967 441.191 445.32 441.15C444.671 441.172 444.022 441.108 443.39 440.96C443.39 440.96 444.26 440.96 445.32 440.96C446.38 440.96 447.25 441 447.25 441Z" fill="#263238"/>
<path d="M449.84 441.06C449.84 441.06 449.77 441.24 449.68 441.43C449.59 441.62 449.53 441.81 449.49 441.8C449.45 441.79 449.43 441.59 449.49 441.37C449.55 441.15 449.82 441 449.84 441.06Z" fill="#263238"/>
<path d="M450.85 439.86C450.806 439.973 450.737 440.075 450.65 440.16C450.51 440.29 450.37 440.38 450.34 440.35C450.31 440.32 450.4 440.18 450.54 440.05C450.68 439.92 450.81 439.83 450.85 439.86Z" fill="#263238"/>
<path d="M452.25 439.33C452.25 439.38 452.07 439.33 451.87 439.44C451.67 439.55 451.54 439.6 451.5 439.57C451.46 439.54 451.58 439.36 451.82 439.28C452.06 439.2 452.27 439.29 452.25 439.33Z" fill="#263238"/>
<path d="M453.25 439.09C453.211 439.157 453.151 439.21 453.08 439.24C453.004 439.262 452.925 439.262 452.85 439.24C452.85 439.24 452.92 439.13 453.03 439.09C453.14 439.05 453.24 439.05 453.25 439.09Z" fill="#263238"/>
<path d="M400.24 257.55L393.9 352.06V437.29H419.24C419.24 437.29 420.31 363.79 419.64 358.98C419.64 358.98 423.78 285.36 424.25 286.41C425.25 288.56 425.19 351.14 426.61 358.89C428.03 366.64 434.61 437.29 434.61 437.29H459L450.8 356.29C450.63 346.53 448.12 260.82 448.12 260.82L400.24 257.55Z" fill="#263238"/>
<path d="M458.45 432.45C458.174 432.647 457.848 432.762 457.51 432.78C456.594 432.861 455.672 432.71 454.83 432.34C453.661 431.762 452.43 431.319 451.16 431.02C449.73 430.81 448.24 431.56 446.82 432.51C445.514 433.541 443.982 434.247 442.35 434.57C440.997 434.698 439.632 434.531 438.35 434.08C437.497 433.797 436.663 433.463 435.85 433.08C435.543 432.962 435.256 432.797 435 432.59C435 432.5 436.31 433.11 438.45 433.75C439.692 434.129 440.999 434.251 442.29 434.11C443.843 433.782 445.298 433.098 446.54 432.11C447.251 431.63 448.008 431.221 448.8 430.89C449.568 430.587 450.401 430.484 451.22 430.59C452.535 430.896 453.806 431.37 455 432C455.786 432.377 456.648 432.572 457.52 432.57C458.11 432.55 458.43 432.4 458.45 432.45Z" fill="#455A64"/>
<path d="M419.45 431.86C419.199 431.624 418.932 431.407 418.65 431.21C417.838 430.756 416.889 430.614 415.98 430.81C414.632 431.191 413.37 431.825 412.26 432.68C411.549 433.16 410.792 433.569 410 433.9C409.118 434.263 408.153 434.377 407.21 434.23C405.29 433.9 403.77 432.9 402.21 432.56C400.85 432.269 399.439 432.331 398.11 432.74C395.81 433.43 394.46 434.14 394.42 434.04C394.701 433.82 395.011 433.638 395.34 433.5C396.199 433.057 397.092 432.682 398.01 432.38C399.395 431.9 400.883 431.8 402.32 432.09C403.95 432.44 405.49 433.43 407.25 433.72C409.01 434.01 410.62 433.1 411.95 432.27C413.117 431.406 414.447 430.787 415.86 430.45C416.854 430.27 417.879 430.481 418.72 431.04C419.047 431.226 419.303 431.514 419.45 431.86Z" fill="#455A64"/>
<path d="M446.41 277.15C445.967 277.44 445.458 277.612 444.93 277.65C443.671 277.838 442.386 277.758 441.16 277.413C439.934 277.068 438.796 276.467 437.82 275.65C437.08 275.02 436.75 274.51 436.82 274.47C438.116 275.611 439.655 276.442 441.32 276.901C442.984 277.36 444.732 277.435 446.43 277.12L446.41 277.15Z" fill="#455A64"/>
<path d="M404.34 273.46C404.4 273.46 404.4 273.97 404.14 274.71C403.787 275.679 403.2 276.545 402.43 277.23C401.656 277.912 400.73 278.399 399.73 278.65C398.96 278.82 398.47 278.76 398.47 278.7C399.812 278.396 401.055 277.755 402.082 276.839C403.109 275.922 403.886 274.759 404.34 273.46Z" fill="#455A64"/>
<path d="M344.45 238.63L343.79 247.63L342.87 247.57L343.46 239.42L341.35 239.26L341.41 238.44L344.45 238.63Z" fill="#FAFAFA"/>
<path d="M353.08 247.45L353.02 248.27L346.73 247.82V247.16L350.73 243.78C351.81 242.86 352.05 242.27 352.1 241.65C352.17 240.65 351.49 239.92 350.1 239.82C349.645 239.76 349.183 239.803 348.747 239.945C348.311 240.087 347.912 240.324 347.58 240.64L347 240C347.433 239.593 347.951 239.288 348.517 239.106C349.082 238.924 349.681 238.871 350.27 238.95C352.09 239.08 353.18 240.09 353.07 241.59C353.01 242.45 352.68 243.2 351.39 244.29L348.13 247.07L353.08 247.45Z" fill="#FAFAFA"/>
<path d="M361.25 246.29C361.14 247.78 359.97 248.86 357.81 248.7C356.62 248.66 355.491 248.162 354.66 247.31L355.16 246.61C355.508 246.985 355.926 247.287 356.391 247.5C356.856 247.713 357.359 247.832 357.87 247.85C359.35 247.96 360.22 247.33 360.31 246.22C360.4 245.11 359.68 244.38 358.01 244.22H357.37L357.42 243.54L360.14 240.61L355.55 240.28L355.61 239.46L361.37 239.88V240.53L358.6 243.53C360.47 243.77 361.36 244.85 361.25 246.29Z" fill="#FAFAFA"/>
<path d="M408.5 158.32C407.606 159.229 406.918 160.318 406.482 161.516C406.045 162.713 405.871 163.99 405.97 165.26C406.192 167.801 407.018 170.253 408.38 172.41" fill="#263238"/>
<path d="M430.33 197.41L431.69 166.08L419.12 156.56L407.7 162.14C407.7 162.14 407.32 176.48 407.7 182.7C408.08 188.92 414.35 189.58 414.35 189.58C414.35 189.58 414.17 193.01 413.97 196.58C413.859 198.726 414.595 200.829 416.017 202.438C417.44 204.048 419.437 205.036 421.58 205.19C423.746 205.341 425.885 204.625 427.524 203.2C429.163 201.775 430.168 199.757 430.32 197.59C430.32 197.53 430.33 197.47 430.33 197.41Z" fill="#FFBE9D"/>
<path d="M409.74 172.6C409.74 172.758 409.787 172.913 409.875 173.044C409.962 173.176 410.087 173.279 410.234 173.339C410.38 173.4 410.541 173.416 410.696 173.385C410.851 173.354 410.994 173.278 411.105 173.166C411.217 173.054 411.294 172.911 411.324 172.756C411.355 172.601 411.339 172.44 411.279 172.294C411.218 172.148 411.116 172.023 410.984 171.935C410.853 171.847 410.698 171.8 410.54 171.8C410.435 171.8 410.331 171.821 410.234 171.861C410.137 171.901 410.048 171.96 409.974 172.034C409.9 172.109 409.841 172.197 409.801 172.294C409.76 172.391 409.74 172.495 409.74 172.6Z" fill="#263238"/>
<path d="M408.18 171.73C408.28 171.83 408.87 171.33 409.72 171.28C410.57 171.23 411.22 171.65 411.31 171.54C411.4 171.43 411.25 171.3 410.97 171.1C410.59 170.853 410.141 170.737 409.69 170.77C409.239 170.791 408.809 170.964 408.47 171.26C408.21 171.48 408.13 171.68 408.18 171.73Z" fill="#263238"/>
<path d="M419 172.6C419 172.81 419.083 173.01 419.231 173.159C419.38 173.307 419.58 173.39 419.79 173.39C419.948 173.392 420.103 173.347 420.236 173.261C420.369 173.174 420.473 173.051 420.535 172.905C420.598 172.76 420.615 172.599 420.586 172.444C420.558 172.288 420.483 172.145 420.373 172.031C420.262 171.918 420.121 171.84 419.966 171.807C419.811 171.775 419.65 171.788 419.503 171.847C419.356 171.906 419.23 172.007 419.14 172.137C419.051 172.268 419.002 172.422 419 172.58V172.6Z" fill="#263238"/>
<path d="M417.68 171.73C417.78 171.83 418.37 171.33 419.22 171.28C420.07 171.23 420.72 171.65 420.81 171.54C420.9 171.43 420.75 171.3 420.47 171.1C420.088 170.857 419.64 170.741 419.189 170.77C418.737 170.799 418.307 170.97 417.96 171.26C417.71 171.48 417.63 171.68 417.68 171.73Z" fill="#263238"/>
<path d="M417.41 179.78C416.102 180.441 414.709 180.919 413.27 181.2C413.588 181.63 414.038 181.942 414.552 182.088C415.066 182.235 415.614 182.207 416.11 182.01C416.336 181.96 416.549 181.867 416.739 181.734C416.928 181.601 417.089 181.432 417.213 181.237C417.336 181.042 417.42 180.824 417.459 180.596C417.498 180.369 417.492 180.135 417.44 179.91L417.41 179.78Z" fill="#FAFAFA"/>
<path d="M414.35 189.58C417.305 189.458 420.164 188.493 422.59 186.8C422.59 186.8 420.72 191.37 414.49 191.11L414.35 189.58Z" fill="#EB996E"/>
<path d="M414.58 179C414.122 178.889 413.652 178.831 413.18 178.83C412.96 178.83 412.75 178.83 412.7 178.63C412.673 178.389 412.718 178.145 412.83 177.93C413.01 177.37 413.21 176.78 413.41 176.16C413.82 174.89 414.17 173.75 414.41 172.91C414.578 172.467 414.682 172.002 414.72 171.53C414.491 171.941 414.31 172.377 414.18 172.83C413.88 173.65 413.49 174.83 413.08 176.05C412.89 176.68 412.7 177.27 412.52 177.84C412.399 178.121 412.371 178.432 412.44 178.73C412.47 178.807 412.519 178.875 412.582 178.93C412.644 178.984 412.719 179.021 412.8 179.04C412.922 179.06 413.047 179.06 413.17 179.04C413.639 179.092 414.114 179.078 414.58 179Z" fill="#263238"/>
<path d="M430.77 177.22C430.672 176.184 430.788 175.139 431.11 174.15C431.271 173.656 431.564 173.215 431.957 172.875C432.35 172.535 432.828 172.309 433.34 172.22C433.933 172.189 434.517 172.374 434.983 172.742C435.448 173.111 435.764 173.636 435.87 174.22C435.944 174.817 435.836 175.422 435.562 175.957C435.287 176.492 434.858 176.932 434.33 177.22C433.797 177.493 433.209 177.643 432.61 177.659C432.011 177.674 431.417 177.555 430.87 177.31" fill="#FFBE9D"/>
<path d="M432.59 176.31C432.59 176.24 432.92 176.4 433.36 176.26C433.634 176.165 433.871 175.987 434.038 175.75C434.205 175.513 434.293 175.23 434.29 174.94C434.317 174.794 434.312 174.644 434.273 174.5C434.235 174.357 434.166 174.223 434.07 174.11C433.875 173.963 433.633 173.891 433.39 173.91C432.93 173.91 432.6 174.07 432.57 174C432.54 173.93 432.78 173.71 433.34 173.55C433.511 173.51 433.689 173.507 433.862 173.541C434.034 173.576 434.197 173.647 434.34 173.75C434.503 173.907 434.627 174.1 434.702 174.314C434.777 174.527 434.8 174.756 434.77 174.98C434.744 175.406 434.583 175.812 434.31 176.14C434.072 176.407 433.745 176.578 433.39 176.62C432.82 176.68 432.53 176.35 432.59 176.31Z" fill="#EB996E"/>
<path d="M407.79 158.93C405.03 162.36 408.71 164.52 410.54 165.93C411.95 167.03 416.11 169.93 419.76 168.56C418.47 166.83 417 166.07 416.43 164.42C417.92 166.52 419.49 168.11 422.05 168.42C421.54 166.93 420.82 163.9 421.37 163.78C422.05 169.7 427.6 174.68 431.42 172.78C432.135 170.918 432.4 168.913 432.195 166.929C431.99 164.945 431.32 163.037 430.24 161.36C429.131 159.702 427.691 158.292 426.009 157.22C424.327 156.147 422.441 155.436 420.47 155.13C418.207 154.786 415.896 154.948 413.703 155.605C411.51 156.262 409.491 157.398 407.79 158.93Z" fill="#263238"/>
<path d="M434 177.79C434 177.73 434.47 178.18 434.28 179.03C434.221 179.275 434.107 179.504 433.948 179.699C433.789 179.895 433.588 180.052 433.36 180.16C433.075 180.29 432.764 180.351 432.452 180.339C432.139 180.327 431.834 180.242 431.56 180.09C431.292 179.928 431.063 179.708 430.891 179.447C430.718 179.186 430.605 178.89 430.56 178.58C430.499 178.082 430.627 177.578 430.92 177.17C431.42 176.49 431.98 176.42 431.98 176.47C431.683 176.728 431.43 177.032 431.23 177.37C431.039 177.717 430.971 178.12 431.04 178.51C431.078 178.741 431.164 178.961 431.293 179.156C431.423 179.35 431.592 179.516 431.79 179.64C431.993 179.753 432.218 179.82 432.45 179.836C432.681 179.851 432.914 179.815 433.13 179.73C433.308 179.657 433.469 179.547 433.601 179.407C433.734 179.268 433.836 179.102 433.9 178.92C434.008 178.554 434.042 178.17 434 177.79Z" fill="#009688"/>
<path d="M390.77 229.31L400.15 227.36L403 243.14C400.591 251.228 398.589 259.432 397 267.72L419 281.45L422.39 275.01L427.82 280.17L451.23 267.72C448.34 252.72 441.04 248.8 441.04 246.36C441.04 239.36 440.04 246.16 445.91 222.97C451.78 199.78 430.36 197.41 430.36 197.41C430.36 197.41 430.84 200.65 413.8 197.56C407.56 196.43 382.65 209.51 382.65 209.51L390.77 229.31Z" fill="#009688"/>
<path d="M413.77 197.56C413.77 197.56 413.57 214.72 417.66 213.56C421.75 212.4 429.99 205.07 430.33 197.37L413.77 197.56Z" fill="#FFBE9D"/>
<path d="M414.81 227.63C414.761 225.597 414.879 223.564 415.16 221.55C415.278 219.528 415.572 217.521 416.04 215.55C416.09 217.587 415.97 219.624 415.68 221.64C415.561 223.658 415.27 225.662 414.81 227.63Z" fill="#263238"/>
<path d="M417.42 226.24C417.12 224.635 416.989 223.002 417.03 221.37C416.903 219.74 416.947 218.101 417.16 216.48C417.46 218.089 417.59 219.724 417.55 221.36C417.687 222.986 417.643 224.623 417.42 226.24Z" fill="#263238"/>
<path d="M413.75 229.31C413.61 229.31 413.51 228.87 413.75 228.38C413.99 227.89 414.38 227.67 414.47 227.78C414.56 227.89 414.4 228.21 414.23 228.59C414.06 228.97 413.9 229.32 413.75 229.31Z" fill="#263238"/>
<path d="M414.31 229.31C414.17 229.31 414.12 228.95 414.19 228.56C414.26 228.17 414.45 227.89 414.59 227.92C414.73 227.95 414.78 228.28 414.71 228.67C414.64 229.06 414.45 229.34 414.31 229.31Z" fill="#263238"/>
<path d="M414.84 229.32C414.7 229.32 414.55 229.03 414.51 228.64C414.47 228.25 414.56 227.93 414.71 227.92C414.86 227.91 415 228.21 415.03 228.59C415.06 228.97 415 229.3 414.84 229.32Z" fill="#263238"/>
<path d="M415.71 229.59C415.56 229.59 415.45 229.09 415.19 228.59C414.93 228.09 414.63 227.65 414.73 227.53C414.83 227.41 415.36 227.71 415.67 228.37C415.98 229.03 415.85 229.6 415.71 229.59Z" fill="#263238"/>
<path d="M417.52 227.78C417.39 227.83 417.12 227.4 417.12 226.78C417.12 226.16 417.39 225.78 417.52 225.78C417.65 225.78 417.64 226.25 417.64 226.78C417.64 227.31 417.66 227.73 417.52 227.78Z" fill="#263238"/>
<path d="M418.06 227.5C417.92 227.5 417.77 227.18 417.73 226.76C417.69 226.34 417.73 225.98 417.92 225.97C418.11 225.96 418.21 226.29 418.25 226.71C418.29 227.13 418.2 227.49 418.06 227.5Z" fill="#263238"/>
<path d="M418.91 227.36C418.8 227.45 418.49 227.24 418.22 226.89C417.95 226.54 417.82 226.19 417.94 226.11C418.06 226.03 418.36 226.23 418.63 226.57C418.9 226.91 419 227.27 418.91 227.36Z" fill="#263238"/>
<path d="M419.19 227.08C419.06 227.14 418.81 226.88 418.49 226.6C418.17 226.32 417.89 226.11 417.94 225.97C417.99 225.83 418.44 225.85 418.84 226.21C419.24 226.57 419.32 227 419.19 227.08Z" fill="#263238"/>
<path d="M412.52 199.45C412.52 199.39 412.82 199.24 413.17 199.56C413.314 199.729 413.385 199.947 413.368 200.168C413.351 200.39 413.248 200.595 413.08 200.74C412.997 200.814 412.901 200.87 412.796 200.905C412.692 200.941 412.581 200.955 412.471 200.947C412.36 200.938 412.253 200.908 412.155 200.857C412.057 200.806 411.97 200.735 411.9 200.65C411.851 200.6 411.811 200.543 411.78 200.48C411.733 200.347 411.719 200.206 411.738 200.067C411.757 199.927 411.809 199.795 411.89 199.68C412.18 199.3 412.53 199.39 412.51 199.45C412.385 199.57 412.283 199.713 412.21 199.87C412.11 200.14 412.21 200.5 412.62 200.45C413.03 200.4 413.06 200.05 412.9 199.8C412.74 199.55 412.53 199.53 412.52 199.45Z" fill="#263238"/>
<path d="M412.92 202.68C412.83 202.79 412.55 202.68 412.28 202.54C412.01 202.4 411.86 202.1 411.94 201.98C412.02 201.86 412.31 201.92 412.58 202.12C412.85 202.32 413 202.56 412.92 202.68Z" fill="#263238"/>
<path d="M413.18 203.36C413.3 203.45 413.18 203.8 412.78 203.95C412.38 204.1 412.05 203.95 412.08 203.8C412.11 203.65 412.34 203.57 412.59 203.47C412.84 203.37 413.07 203.27 413.18 203.36Z" fill="#263238"/>
<path d="M413.2 205.05C413.31 205.14 413.2 205.4 413.05 205.63C412.9 205.86 412.61 205.98 412.5 205.88C412.39 205.78 412.45 205.53 412.65 205.3C412.85 205.07 413.08 205 413.2 205.05Z" fill="#263238"/>
<path d="M412.77 206.88C412.77 206.82 413.17 206.68 413.64 207.11C413.772 207.236 413.867 207.396 413.914 207.572C413.962 207.749 413.96 207.934 413.91 208.11C413.842 208.341 413.703 208.545 413.513 208.692C413.323 208.839 413.09 208.923 412.85 208.93C412.613 208.912 412.388 208.819 412.208 208.665C412.028 208.51 411.903 208.301 411.85 208.07C411.806 207.877 411.826 207.675 411.907 207.495C411.989 207.314 412.126 207.165 412.3 207.07C412.88 206.75 413.3 207.07 413.2 207.12C412.953 207.146 412.716 207.231 412.51 207.37C412.421 207.434 412.355 207.525 412.321 207.629C412.287 207.733 412.286 207.846 412.32 207.95C412.361 208.074 412.438 208.183 412.541 208.263C412.645 208.343 412.769 208.391 412.9 208.4C412.99 208.395 413.078 208.372 413.16 208.332C413.241 208.293 413.313 208.237 413.373 208.169C413.433 208.101 413.478 208.022 413.507 207.936C413.535 207.851 413.547 207.76 413.54 207.67C413.53 207.533 413.481 207.401 413.4 207.29C413.1 207 412.76 207 412.77 206.88Z" fill="#263238"/>
<path d="M413.89 209.79C413.96 209.92 413.74 210.16 413.5 210.43C413.26 210.7 413.06 210.95 412.92 210.9C412.78 210.85 412.8 210.45 413.11 210.09C413.42 209.73 413.83 209.66 413.89 209.79Z" fill="#263238"/>
<path d="M414.45 211.6C414.58 211.65 414.56 212.05 414.25 212.41C413.94 212.77 413.54 212.84 413.47 212.72C413.4 212.6 413.62 212.34 413.86 212.07C414.1 211.8 414.31 211.55 414.45 211.6Z" fill="#263238"/>
<path d="M414.75 214.53C414.61 214.53 414.46 214.21 414.43 213.78C414.4 213.35 414.43 213.01 414.62 212.99C414.81 212.97 414.91 213.31 414.94 213.74C414.97 214.17 414.9 214.52 414.75 214.53Z" fill="#263238"/>
<path d="M419.61 215C419.54 215.12 419.26 215.1 418.99 215C418.72 214.9 418.56 214.62 418.63 214.49C418.7 214.36 418.98 214.39 419.25 214.49C419.52 214.59 419.68 214.82 419.61 215Z" fill="#263238"/>
<path d="M421.3 213C421.4 213.1 421.23 213.43 420.93 213.74C420.63 214.05 420.29 214.22 420.19 214.12C420.09 214.02 420.25 213.69 420.56 213.38C420.87 213.07 421.19 212.91 421.3 213Z" fill="#263238"/>
<path d="M422.68 211.88C422.68 211.8 422.94 211.76 423.32 211.77H423.37L423.44 211.83C423.528 211.919 423.594 212.029 423.631 212.149C423.667 212.269 423.674 212.396 423.65 212.52C423.622 212.677 423.543 212.821 423.426 212.93C423.309 213.038 423.159 213.105 423 213.12C422.83 213.135 422.66 213.096 422.514 213.008C422.369 212.919 422.255 212.787 422.19 212.63C422.137 212.505 422.124 212.367 422.153 212.235C422.182 212.102 422.25 211.982 422.35 211.89C422.68 211.59 422.99 211.74 422.95 211.8C422.91 211.86 422.75 211.9 422.64 212.12C422.611 212.168 422.595 212.223 422.595 212.28C422.595 212.336 422.611 212.392 422.64 212.44C422.675 212.494 422.725 212.537 422.783 212.565C422.841 212.593 422.905 212.605 422.97 212.6C423.18 212.6 423.28 212.23 423.17 212.1L423.29 212.16C422.9 212.06 422.67 212 422.68 211.88Z" fill="#263238"/>
<path d="M424.11 211.61C423.97 211.61 423.91 211.24 423.99 210.86C424.07 210.48 424.25 210.19 424.39 210.21C424.53 210.23 424.58 210.58 424.5 210.96C424.42 211.34 424.25 211.64 424.11 211.61Z" fill="#263238"/>
<path d="M426.3 210.07C426.25 210.2 425.92 210.18 425.57 210.07C425.22 209.96 424.99 209.68 425.05 209.55C425.11 209.42 425.44 209.44 425.78 209.55C426.12 209.66 426.36 209.94 426.3 210.07Z" fill="#263238"/>
<path d="M426.55 208.17C426.61 208.17 426.6 208.35 426.72 208.48C426.84 208.61 426.99 208.64 427.1 208.48C427.21 208.32 427.1 208.2 426.94 208.14C426.822 208.109 426.698 208.109 426.58 208.14C426.52 208.14 426.58 207.86 426.92 207.79C427.026 207.77 427.135 207.778 427.236 207.813C427.338 207.848 427.429 207.909 427.5 207.99C427.592 208.097 427.646 208.231 427.655 208.372C427.664 208.512 427.627 208.652 427.55 208.77C427.479 208.892 427.371 208.989 427.242 209.047C427.113 209.104 426.968 209.119 426.83 209.09C426.726 209.065 426.63 209.014 426.553 208.94C426.475 208.866 426.419 208.773 426.39 208.67C426.29 208.29 426.5 208.12 426.55 208.17Z" fill="#263238"/>
<path d="M428.08 206.59C427.991 206.576 427.908 206.537 427.838 206.48C427.769 206.422 427.717 206.346 427.688 206.261C427.658 206.176 427.652 206.085 427.67 205.997C427.688 205.908 427.729 205.827 427.79 205.76C427.89 205.76 428.1 205.86 428.18 206.09C428.26 206.32 428.21 206.55 428.08 206.59Z" fill="#263238"/>
<path d="M429.51 205.19C429.44 205.31 429.16 205.29 428.89 205.13C428.62 204.97 428.46 204.75 428.54 204.63C428.62 204.51 428.88 204.53 429.15 204.68C429.42 204.83 429.58 205.06 429.51 205.19Z" fill="#263238"/>
<path d="M430.49 203.09C430.55 203.23 430.31 203.46 429.97 203.61C429.63 203.76 429.29 203.78 429.23 203.61C429.17 203.44 429.41 203.25 429.75 203.1C429.862 203.035 429.989 203.001 430.119 202.999C430.248 202.997 430.376 203.028 430.49 203.09Z" fill="#263238"/>
<path d="M430.94 200.58C430.94 200.53 431.13 200.34 431.47 200.52C431.569 200.575 431.652 200.654 431.712 200.751C431.771 200.847 431.805 200.957 431.81 201.07C431.809 201.217 431.765 201.361 431.681 201.482C431.598 201.604 431.48 201.697 431.342 201.75C431.205 201.803 431.055 201.813 430.912 201.779C430.768 201.745 430.639 201.669 430.54 201.56C430.467 201.472 430.418 201.367 430.399 201.255C430.38 201.142 430.39 201.027 430.43 200.92C430.56 200.57 430.84 200.55 430.85 200.62C430.86 200.69 430.77 200.8 430.79 200.99C430.81 201.18 430.93 201.35 431.15 201.27C431.37 201.19 431.37 200.99 431.24 200.82C431.11 200.65 431 200.65 430.94 200.58Z" fill="#263238"/>
<path d="M432.31 198.39C432.31 198.53 432.09 198.71 431.74 198.79C431.39 198.87 431.09 198.79 431.06 198.68C431.03 198.57 431.28 198.36 431.63 198.28C431.98 198.2 432.28 198.25 432.31 198.39Z" fill="#263238"/>
<path d="M430.91 197.66L431.46 197.24L430.91 197.66Z" fill="#263238"/>
<path d="M385.49 211.92C385.36 211.92 385.31 211.63 385.4 211.37C385.49 211.11 385.66 210.94 385.79 210.98C385.92 211.02 385.97 211.27 385.89 211.53C385.81 211.79 385.63 212 385.49 211.92Z" fill="#263238"/>
<path d="M386.69 213.37C386.69 213.31 386.87 213.12 387.23 213.28C387.354 213.335 387.459 213.425 387.533 213.538C387.607 213.652 387.646 213.784 387.646 213.92C387.646 214.055 387.607 214.188 387.533 214.302C387.459 214.415 387.354 214.505 387.23 214.56C387.097 214.633 386.944 214.662 386.794 214.644C386.643 214.626 386.502 214.562 386.39 214.46C386.307 214.38 386.245 214.28 386.211 214.17C386.176 214.06 386.168 213.943 386.19 213.83C386.26 213.44 386.55 213.38 386.57 213.44C386.59 213.5 386.51 213.64 386.57 213.84C386.63 214.04 386.77 214.22 387.02 214.1C387.27 213.98 387.22 213.76 387.02 213.59C386.82 213.42 386.72 213.44 386.69 213.37Z" fill="#263238"/>
<path d="M388.18 216.64C388.12 216.77 387.81 216.77 387.48 216.64C387.15 216.51 386.94 216.29 386.99 216.16C387.04 216.03 387.36 216.03 387.69 216.16C388.02 216.29 388.23 216.51 388.18 216.64Z" fill="#263238"/>
<path d="M388.55 218.64C388.5 218.78 388.26 218.82 388 218.74C387.74 218.66 387.57 218.48 387.61 218.34C387.65 218.2 387.9 218.16 388.16 218.25C388.42 218.34 388.59 218.51 388.55 218.64Z" fill="#263238"/>
<path d="M389.16 220C389.28 220.07 389.25 220.36 389.08 220.64C388.91 220.92 388.68 221.1 388.56 221.02C388.44 220.94 388.47 220.66 388.63 220.38C388.677 220.276 388.75 220.185 388.844 220.119C388.937 220.052 389.046 220.011 389.16 220Z" fill="#263238"/>
<path d="M389.52 221.39C389.45 221.39 389.69 221.02 390.2 221.16C390.346 221.2 390.48 221.276 390.59 221.381C390.7 221.486 390.783 221.616 390.83 221.76C390.887 221.962 390.866 222.178 390.769 222.364C390.672 222.55 390.508 222.691 390.31 222.76C390.13 222.832 389.934 222.851 389.744 222.814C389.554 222.776 389.379 222.685 389.24 222.55C389.128 222.421 389.066 222.256 389.066 222.085C389.066 221.914 389.128 221.749 389.24 221.62C389.322 221.538 389.434 221.492 389.55 221.492C389.666 221.492 389.777 221.538 389.86 221.62C389.97 221.75 389.92 221.85 389.86 221.85C389.832 221.853 389.803 221.849 389.777 221.839C389.751 221.829 389.728 221.812 389.71 221.79C389.691 221.778 389.669 221.771 389.647 221.769C389.624 221.767 389.602 221.77 389.581 221.777C389.56 221.785 389.54 221.797 389.525 221.813C389.509 221.829 389.497 221.849 389.49 221.87C389.466 221.932 389.461 222 389.477 222.064C389.493 222.129 389.529 222.187 389.58 222.23C389.656 222.284 389.744 222.318 389.837 222.329C389.93 222.339 390.024 222.326 390.11 222.29C390.52 222.14 390.35 221.68 390.05 221.53C389.75 221.38 389.57 221.45 389.52 221.39Z" fill="#263238"/>
<path d="M391 224C391.1 224.1 391 224.33 390.82 224.51C390.64 224.69 390.39 224.73 390.29 224.63C390.19 224.53 390.29 224.29 390.47 224.12C390.65 223.95 390.87 223.87 391 224Z" fill="#263238"/>
<path d="M391.54 225.72C391.65 225.82 391.54 226.07 391.37 226.28C391.2 226.49 390.92 226.59 390.81 226.49C390.7 226.39 390.81 226.14 390.99 225.93C391.17 225.72 391.44 225.62 391.54 225.72Z" fill="#263238"/>
<path d="M401.75 270.25C401.63 270.32 401.36 270.09 401.17 269.73C400.98 269.37 400.91 269.03 401.03 268.96C401.15 268.89 401.42 269.12 401.62 269.48C401.82 269.84 401.88 270.18 401.75 270.25Z" fill="#263238"/>
<path d="M402.62 270.25C402.49 270.31 402.25 270.07 402.09 269.71C401.93 269.35 401.91 269.02 402.09 268.96C402.27 268.9 402.46 269.14 402.62 269.5C402.78 269.86 402.75 270.19 402.62 270.25Z" fill="#263238"/>
<path d="M403.85 270.9V271.22C403.85 271.37 404 271.43 404.14 271.35C404.28 271.27 404.27 271.16 404.14 271.03C404.01 270.9 403.91 270.92 403.87 270.85C403.83 270.78 403.99 270.6 404.31 270.7C404.458 270.748 404.582 270.853 404.655 270.991C404.728 271.129 404.744 271.29 404.7 271.44C404.649 271.591 404.542 271.717 404.4 271.79C404.292 271.868 404.163 271.91 404.03 271.91C403.897 271.91 403.767 271.868 403.66 271.79C403.586 271.722 403.531 271.638 403.497 271.544C403.464 271.449 403.455 271.349 403.47 271.25C403.58 270.88 403.83 270.83 403.85 270.9Z" fill="#263238"/>
<path d="M406.93 271.55C407.02 271.66 406.83 271.95 406.51 272.19C406.19 272.43 405.87 272.53 405.78 272.41C405.69 272.29 405.88 272.01 406.2 271.77C406.52 271.53 406.85 271.43 406.93 271.55Z" fill="#263238"/>
<path d="M407.94 272.55C408 272.68 407.86 272.88 407.63 273C407.4 273.12 407.14 273.11 407.08 273C407.02 272.89 407.15 272.67 407.39 272.55C407.63 272.43 407.88 272.43 407.94 272.55Z" fill="#263238"/>
<path d="M409.36 274.14C409.21 274.14 409.07 273.95 409.02 273.67C408.97 273.39 409.07 273.15 409.21 273.13C409.35 273.11 409.5 273.32 409.54 273.6C409.58 273.88 409.5 274.12 409.36 274.14Z" fill="#263238"/>
<path d="M411.65 274.11C411.618 274.238 411.618 274.372 411.65 274.5C411.71 274.7 411.84 274.84 412.06 274.71C412.28 274.58 412.22 274.39 412.06 274.25C411.9 274.11 411.74 274.15 411.7 274.09C411.66 274.03 411.82 273.81 412.2 273.91C412.311 273.941 412.412 273.999 412.494 274.079C412.576 274.16 412.637 274.26 412.67 274.37C412.712 274.558 412.677 274.755 412.574 274.918C412.471 275.081 412.308 275.197 412.12 275.24C412.013 275.266 411.901 275.266 411.793 275.242C411.686 275.218 411.585 275.169 411.5 275.1C411.415 275.023 411.352 274.925 411.315 274.817C411.279 274.709 411.27 274.593 411.29 274.48C411.34 274.09 411.63 274 411.65 274.11Z" fill="#263238"/>
<path d="M414.37 275.16C414.47 275.27 414.32 275.55 414.04 275.79C413.76 276.03 413.46 276.14 413.37 276.03C413.28 275.92 413.42 275.64 413.7 275.4C413.98 275.16 414.28 275.05 414.37 275.16Z" fill="#263238"/>
<path d="M416.17 276.23C416.27 276.33 416.11 276.64 415.74 276.81C415.37 276.98 415.02 276.89 415.01 276.74C415 276.59 415.24 276.46 415.52 276.33C415.8 276.2 416.06 276.12 416.17 276.23Z" fill="#263238"/>
<path d="M417.53 278.18C417.39 278.23 417.21 278.07 417.13 277.83C417.05 277.59 417.13 277.36 417.23 277.32C417.33 277.28 417.55 277.43 417.63 277.67C417.71 277.91 417.66 278.14 417.53 278.18Z" fill="#263238"/>
<path d="M419.07 277.26C419.01 277.26 419.13 276.96 419.51 276.98C419.646 276.987 419.775 277.039 419.879 277.128C419.982 277.216 420.053 277.336 420.082 277.469C420.11 277.602 420.094 277.741 420.036 277.864C419.978 277.987 419.881 278.088 419.76 278.15C419.63 278.237 419.474 278.274 419.319 278.254C419.164 278.234 419.022 278.158 418.92 278.04C418.851 277.945 418.81 277.834 418.801 277.717C418.792 277.6 418.816 277.484 418.87 277.38C419.06 277.04 419.38 277.11 419.35 277.18C419.278 277.277 419.234 277.391 419.22 277.51C419.22 277.69 419.3 277.81 419.49 277.7C419.68 277.59 419.61 277.45 419.43 277.34C419.25 277.23 419.13 277.31 419.07 277.26Z" fill="#263238"/>
<path d="M420.51 275.86C420.39 275.94 420.18 275.86 420.04 275.65C419.9 275.44 419.89 275.22 420.04 275.14C420.19 275.06 420.37 275.14 420.51 275.35C420.65 275.56 420.63 275.78 420.51 275.86Z" fill="#263238"/>
<path d="M421.22 274.71C421.12 274.81 420.91 274.77 420.75 274.61C420.59 274.45 420.54 274.24 420.64 274.14C420.74 274.04 420.96 274.08 421.12 274.24C421.28 274.4 421.32 274.61 421.22 274.71Z" fill="#263238"/>
<path d="M422 272.51C421.93 272.51 422.08 272.24 422.39 272.35C422.482 272.383 422.562 272.442 422.621 272.52C422.68 272.599 422.714 272.692 422.72 272.79C422.707 272.945 422.634 273.088 422.516 273.189C422.398 273.29 422.245 273.341 422.09 273.33C422 273.325 421.912 273.299 421.834 273.254C421.755 273.209 421.689 273.146 421.64 273.07C421.596 272.992 421.573 272.904 421.573 272.815C421.573 272.726 421.596 272.638 421.64 272.56C421.76 272.3 421.98 272.29 422 272.35C422.01 272.45 422.01 272.55 422 272.65C422.001 272.678 422.008 272.706 422.02 272.732C422.032 272.758 422.049 272.781 422.07 272.8H422.27V272.69C422.27 272.69 422.08 272.56 422 272.51Z" fill="#263238"/>
<path d="M423.6 274.14C423.527 274.109 423.468 274.052 423.435 273.98C423.401 273.908 423.396 273.826 423.42 273.75C423.424 273.712 423.435 273.675 423.453 273.641C423.471 273.607 423.496 273.577 423.526 273.553C423.555 273.529 423.59 273.511 423.626 273.5C423.663 273.489 423.702 273.486 423.74 273.49C423.812 273.519 423.871 273.574 423.904 273.645C423.937 273.715 423.943 273.796 423.92 273.87C423.908 273.946 423.869 274.015 423.81 274.065C423.751 274.114 423.677 274.141 423.6 274.14Z" fill="#263238"/>
<path d="M424.33 275C424.275 274.944 424.235 274.876 424.214 274.801C424.193 274.725 424.192 274.646 424.21 274.57C424.21 274.49 424.235 274.413 424.282 274.348C424.328 274.283 424.394 274.235 424.47 274.21C424.61 274.21 424.78 274.38 424.73 274.66C424.68 274.94 424.44 275.09 424.33 275Z" fill="#263238"/>
<path d="M425.34 276.16C425.286 276.22 425.216 276.263 425.138 276.285C425.06 276.306 424.977 276.304 424.9 276.28C424.819 276.279 424.741 276.252 424.676 276.204C424.611 276.155 424.563 276.087 424.54 276.01C424.54 275.87 424.72 275.71 425 275.76C425.28 275.81 425.41 276 425.34 276.16Z" fill="#263238"/>
<path d="M426.16 277.14C426.11 277.09 426.24 276.89 426.55 276.94C426.645 276.96 426.735 277.004 426.809 277.067C426.884 277.129 426.943 277.209 426.98 277.3C427.023 277.452 427.004 277.616 426.927 277.754C426.851 277.893 426.722 277.996 426.57 278.04C426.467 278.069 426.358 278.07 426.255 278.044C426.151 278.017 426.056 277.964 425.98 277.89C425.922 277.806 425.891 277.707 425.891 277.605C425.891 277.503 425.922 277.404 425.98 277.32C426.14 277.02 426.42 277.1 426.39 277.17C426.34 277.251 426.316 277.345 426.32 277.44C426.32 277.57 426.32 277.57 426.38 277.57H426.48C426.58 277.57 426.55 277.51 426.56 277.48C426.55 277.42 426.518 277.367 426.47 277.33C426.32 277.2 426.2 277.2 426.16 277.14Z" fill="#263238"/>
<path d="M427.44 279.12C427.365 279.099 427.3 279.05 427.259 278.983C427.219 278.916 427.205 278.837 427.22 278.76C427.219 278.721 427.225 278.683 427.239 278.647C427.253 278.611 427.275 278.579 427.302 278.552C427.329 278.525 427.362 278.503 427.397 278.489C427.433 278.475 427.472 278.469 427.51 278.47C427.547 278.477 427.583 278.492 427.615 278.513C427.647 278.534 427.674 278.561 427.696 278.592C427.717 278.624 427.732 278.659 427.739 278.697C427.747 278.734 427.747 278.772 427.74 278.81C427.738 278.89 427.706 278.966 427.65 279.023C427.595 279.08 427.52 279.115 427.44 279.12Z" fill="#263238"/>
<path d="M429.38 278.09C429.38 278.23 429.1 278.3 428.82 278.23C428.54 278.16 428.34 278 428.37 277.86C428.4 277.72 428.66 277.66 428.94 277.72C429.22 277.78 429.41 278 429.38 278.09Z" fill="#263238"/>
<path d="M430.11 277.74C430.03 277.73 429.956 277.691 429.902 277.63C429.849 277.569 429.82 277.491 429.82 277.41C429.82 277.21 429.9 277.03 430.05 277.02C430.2 277.01 430.32 277.16 430.34 277.36C430.36 277.56 430.26 277.73 430.11 277.74Z" fill="#263238"/>
<path d="M431.47 276.66C431.33 276.66 431.21 276.5 431.21 276.3C431.21 276.1 431.33 275.94 431.47 275.94C431.61 275.94 431.73 276.1 431.73 276.3C431.73 276.5 431.62 276.66 431.47 276.66Z" fill="#263238"/>
<path d="M432.52 275.19C432.52 275.14 432.7 274.94 433.03 275.14C433.127 275.2 433.204 275.286 433.252 275.389C433.3 275.493 433.317 275.608 433.3 275.72C433.273 275.871 433.19 276.006 433.068 276.099C432.945 276.192 432.793 276.235 432.64 276.22C432.503 276.232 432.366 276.194 432.254 276.114C432.142 276.035 432.062 275.917 432.028 275.784C431.995 275.651 432.01 275.51 432.07 275.386C432.131 275.263 432.234 275.165 432.36 275.11C432.7 274.94 432.91 275.17 432.85 275.22C432.79 275.27 432.67 275.22 432.57 275.41C432.544 275.438 432.524 275.471 432.512 275.508C432.5 275.544 432.496 275.582 432.5 275.62C432.542 275.665 432.599 275.693 432.66 275.7C432.76 275.7 432.81 275.7 432.83 275.63C432.84 275.56 432.84 275.49 432.83 275.42C432.83 275.35 432.55 275.25 432.52 275.19Z" fill="#263238"/>
<path d="M435.23 274.35C435.12 274.46 434.93 274.43 434.74 274.41C434.55 274.39 434.35 274.33 434.29 274.2C434.23 274.07 434.45 273.83 434.82 273.89C435.19 273.95 435.33 274.26 435.23 274.35Z" fill="#263238"/>
<path d="M436.6 273.63C436.53 273.76 436.25 273.75 435.95 273.7C435.65 273.65 435.39 273.56 435.37 273.41C435.35 273.26 435.66 273.11 436.04 273.18C436.42 273.25 436.67 273.51 436.6 273.63Z" fill="#263238"/>
<path d="M437.38 273C437.24 273 437.14 272.81 437.15 272.61C437.16 272.41 437.3 272.26 437.45 272.28C437.6 272.3 437.69 272.46 437.67 272.66C437.671 272.742 437.642 272.822 437.589 272.884C437.536 272.947 437.461 272.988 437.38 273Z" fill="#263238"/>
<path d="M438.56 271.15C438.51 271.15 438.66 270.88 439.02 270.95C439.131 270.979 439.231 271.039 439.307 271.125C439.384 271.21 439.434 271.316 439.45 271.43C439.469 271.576 439.439 271.724 439.365 271.85C439.291 271.977 439.176 272.076 439.04 272.13C438.896 272.175 438.74 272.167 438.601 272.109C438.462 272.05 438.348 271.944 438.28 271.81C438.221 271.703 438.204 271.578 438.229 271.459C438.255 271.34 438.322 271.234 438.42 271.16C438.74 270.93 438.97 271.16 438.92 271.16C438.87 271.16 438.75 271.25 438.68 271.39C438.61 271.53 438.68 271.51 438.68 271.54C438.699 271.563 438.724 271.581 438.752 271.593C438.779 271.606 438.809 271.611 438.84 271.61C438.869 271.591 438.894 271.566 438.913 271.537C438.932 271.507 438.944 271.474 438.95 271.44C438.952 271.407 438.946 271.374 438.932 271.344C438.918 271.315 438.897 271.289 438.87 271.27C438.76 271.19 438.6 271.21 438.56 271.15Z" fill="#263238"/>
<path d="M440.27 271.1C440.194 271.067 440.132 271.007 440.097 270.931C440.062 270.856 440.056 270.77 440.08 270.69C440.08 270.648 440.088 270.606 440.105 270.567C440.122 270.528 440.147 270.493 440.178 270.463C440.209 270.434 440.245 270.412 440.285 270.398C440.325 270.383 440.368 270.377 440.41 270.38C440.55 270.38 440.63 270.59 440.59 270.79C440.55 270.99 440.41 271.13 440.27 271.1Z" fill="#263238"/>
<path d="M441.72 269.88C441.645 269.859 441.58 269.81 441.54 269.743C441.499 269.676 441.485 269.597 441.5 269.52C441.495 269.485 441.496 269.449 441.505 269.415C441.514 269.381 441.529 269.348 441.551 269.32C441.572 269.292 441.599 269.269 441.63 269.252C441.661 269.234 441.695 269.224 441.73 269.22C441.766 269.214 441.802 269.216 441.837 269.224C441.872 269.233 441.905 269.248 441.934 269.27C441.963 269.291 441.987 269.318 442.005 269.349C442.023 269.38 442.035 269.414 442.04 269.45C442.05 269.493 442.05 269.537 442.04 269.58C442.035 269.661 441.999 269.738 441.94 269.793C441.88 269.849 441.802 269.88 441.72 269.88Z" fill="#263238"/>
<path d="M443.76 268.7C443.68 268.82 443.43 268.8 443.17 268.7C442.91 268.6 442.68 268.55 442.66 268.4C442.64 268.25 442.93 268.11 443.29 268.19C443.65 268.27 443.84 268.58 443.76 268.7Z" fill="#263238"/>
<path d="M444.74 268C444.61 268.06 444.41 267.87 444.49 267.61C444.57 267.35 444.83 267.3 444.91 267.42C444.944 267.469 444.967 267.525 444.979 267.583C444.991 267.641 444.991 267.702 444.98 267.76C444.959 267.815 444.927 267.865 444.886 267.906C444.845 267.947 444.795 267.979 444.74 268Z" fill="#263238"/>
<path d="M445.92 266.85C445.844 266.829 445.78 266.78 445.739 266.713C445.698 266.646 445.684 266.567 445.7 266.49C445.7 266.451 445.707 266.412 445.723 266.377C445.738 266.341 445.76 266.308 445.788 266.281C445.816 266.254 445.849 266.233 445.885 266.219C445.922 266.205 445.961 266.199 446 266.2C446.074 266.219 446.138 266.266 446.179 266.331C446.22 266.396 446.235 266.474 446.22 266.55C446.215 266.628 446.182 266.701 446.126 266.757C446.071 266.812 445.998 266.845 445.92 266.85Z" fill="#263238"/>
<path d="M431.5 213.73L424.87 220.4L440.93 236.19C440.93 236.19 444.2 226.67 446.48 218.29C448.09 212.37 431.5 213.73 431.5 213.73Z" fill="#009688"/>
<path d="M428.91 221C428.77 221 428.62 220.71 428.58 220.33C428.54 219.95 428.63 219.62 428.77 219.61C428.91 219.6 429.06 219.89 429.1 220.28C429.14 220.67 429.05 221 428.91 221Z" fill="#263238"/>
<path d="M430.44 221.31C430.44 221.45 430.19 221.57 429.88 221.57C429.57 221.57 429.33 221.45 429.33 221.31C429.33 221.17 429.58 221.05 429.88 221.05C430.18 221.05 430.44 221.16 430.44 221.31Z" fill="#263238"/>
<path d="M430.859 223.53C430.729 223.45 430.739 223.22 430.739 222.97C430.739 222.72 430.739 222.5 430.859 222.42C430.979 222.34 431.259 222.56 431.259 222.97C431.259 223.38 430.999 223.62 430.859 223.53Z" fill="#263238"/>
<path d="M432.18 223.75C432.12 223.75 432.35 223.43 432.78 223.57C432.911 223.612 433.027 223.687 433.119 223.789C433.21 223.891 433.273 224.016 433.3 224.15C433.32 224.331 433.276 224.514 433.175 224.666C433.074 224.818 432.923 224.93 432.749 224.982C432.574 225.035 432.386 225.024 432.218 224.952C432.05 224.881 431.913 224.752 431.83 224.59C431.784 224.456 431.779 224.312 431.814 224.175C431.85 224.038 431.925 223.914 432.03 223.82C432.092 223.758 432.168 223.711 432.251 223.684C432.335 223.656 432.423 223.648 432.51 223.66C432.64 223.66 432.68 223.76 432.66 223.78C432.516 223.832 432.392 223.93 432.31 224.06C432.18 224.28 432.25 224.57 432.6 224.48C432.95 224.39 432.86 224.07 432.6 223.91C432.34 223.75 432.22 223.81 432.18 223.75Z" fill="#263238"/>
<path d="M433.91 226.45C433.78 226.45 433.73 226.18 433.8 225.95C433.87 225.72 434.05 225.57 434.19 225.61C434.33 225.65 434.38 225.88 434.3 226.11C434.22 226.34 434.05 226.49 433.91 226.45Z" fill="#263238"/>
<path d="M435.41 226.16C435.55 226.16 435.6 226.58 435.52 227.04C435.44 227.5 435.26 227.86 435.12 227.83C434.98 227.8 434.93 227.41 435.01 226.95C435.09 226.49 435.27 226.14 435.41 226.16Z" fill="#263238"/>
<path d="M437 228C437 228.14 436.75 228.29 436.4 228.33C436.05 228.37 435.77 228.28 435.75 228.14C435.73 228 436 227.85 436.35 227.81C436.7 227.77 437 227.83 437 228Z" fill="#263238"/>
<path d="M437.65 228.76C437.65 228.7 437.86 228.54 438.24 228.7C438.356 228.749 438.458 228.824 438.54 228.92C438.621 229.015 438.68 229.128 438.71 229.25C438.744 229.417 438.722 229.59 438.648 229.744C438.574 229.897 438.452 230.023 438.3 230.1C438.145 230.192 437.96 230.222 437.783 230.183C437.607 230.144 437.452 230.039 437.35 229.89C437.285 229.764 437.263 229.62 437.289 229.481C437.314 229.342 437.385 229.215 437.49 229.12C437.554 229.053 437.637 229.006 437.727 228.984C437.818 228.963 437.913 228.968 438 229C438.12 229.05 438.14 229.12 438.12 229.14C438.05 229.148 437.984 229.175 437.928 229.217C437.872 229.259 437.828 229.315 437.8 229.38C437.69 229.62 437.8 229.78 438.09 229.66C438.38 229.54 438.28 229.22 438.09 229.04C437.9 228.86 437.66 228.84 437.65 228.76Z" fill="#263238"/>
<path d="M439.33 232.29C439.19 232.29 439.07 231.91 439.07 231.45C439.07 230.99 439.19 230.62 439.33 230.62C439.47 230.62 439.59 230.99 439.59 231.45C439.59 231.91 439.48 232.29 439.33 232.29Z" fill="#263238"/>
<path d="M436.91 206.89C436.531 207.67 436.047 208.393 435.47 209.04C434.47 210.3 433.09 212.04 431.47 213.81C429.85 215.58 428.37 217.25 427.28 218.41C426.721 219.067 426.102 219.67 425.43 220.21C425.884 219.476 426.41 218.789 427 218.16C428 216.95 429.48 215.29 431.08 213.47L435.18 208.8C435.711 208.124 436.289 207.485 436.91 206.89Z" fill="#263238"/>
<path d="M448.14 266.73C448.14 266.87 447.84 266.92 447.54 266.85C447.24 266.78 447.029 266.6 447.059 266.46C447.089 266.32 447.369 266.27 447.659 266.34C447.949 266.41 448.17 266.59 448.14 266.73Z" fill="#263238"/>
<path d="M448.899 265.51C448.899 265.46 448.959 265.3 449.249 265.28C449.344 265.281 449.436 265.31 449.515 265.363C449.593 265.417 449.654 265.492 449.689 265.58C449.718 265.635 449.736 265.695 449.741 265.757C449.746 265.819 449.738 265.881 449.719 265.94C449.699 265.999 449.668 266.053 449.627 266.099C449.586 266.146 449.535 266.183 449.479 266.21H449.379C448.879 266.34 448.449 265.85 448.669 265.47C448.701 265.413 448.75 265.367 448.809 265.338C448.868 265.309 448.935 265.3 448.999 265.31C449.014 265.309 449.029 265.312 449.042 265.318C449.056 265.324 449.068 265.334 449.077 265.346C449.085 265.358 449.091 265.372 449.094 265.386C449.096 265.401 449.094 265.416 449.089 265.43C449.058 265.453 449.033 265.483 449.018 265.518C449.002 265.553 448.996 265.592 448.999 265.63C448.999 265.63 449.149 265.74 449.239 265.71C449.243 265.689 449.239 265.667 449.228 265.649C449.217 265.631 449.2 265.617 449.179 265.61C449.069 265.58 448.929 265.58 448.899 265.51Z" fill="#263238"/>
<path d="M363.79 230.06C363.22 228.17 356.05 224.29 357.13 223.24C358.53 221.86 364.43 227.62 364.96 228.07C365.49 228.52 366.14 227.75 365.64 227.37C364.92 226.82 357.46 220.9 358.83 219.54C359.59 218.78 360.83 220.31 360.83 220.31C360.83 220.31 367.41 226.38 368.04 225.71C368.67 225.04 364.92 221.34 363.57 220.19C362.22 219.04 362.23 217.93 363.21 217.75C363.87 217.62 368.09 221.06 369.39 222.24C370.69 223.42 374.24 226.7 373.77 223.63V223.49C373.23 220.49 373.77 217.98 374.47 217.38C374.617 217.232 374.807 217.135 375.012 217.1C375.218 217.066 375.429 217.096 375.616 217.188C375.803 217.279 375.957 217.427 376.057 217.61C376.156 217.793 376.195 218.003 376.17 218.21C376.2 218.358 376.2 218.511 376.17 218.66V218.88C376.139 219.928 376.21 220.976 376.38 222.01C376.517 222.939 376.812 223.839 377.25 224.67C377.76 225.67 378.25 226.43 378.65 227.1C383.44 229.74 397.23 236.71 411.04 237.77C413.54 237.96 426.19 221.6 426.19 221.6L438.6 233.79C436.92 236.66 436.33 237.32 427.9 248.85C414.15 267.66 370.9 236.51 370.9 236.51L370.5 236.31C367.214 234.706 364.022 232.917 360.94 230.95C357.22 228.34 357.44 228 357.81 227.6C358.65 226.55 364.37 232 363.79 230.06Z" fill="#FFBE9D"/>
</svg>
