<svg width="45" height="35" viewBox="0 0 45 35" fill="none" xmlns="http://www.w3.org/2000/svg">
<g clip-path="url(#clip0_247_1697)">
<path d="M8.15639 34.9233V32.6005C8.15639 31.712 7.61596 31.1302 6.68822 31.1302C6.22435 31.1302 5.71995 31.2835 5.37317 31.7887C5.10295 31.3647 4.71564 31.1302 4.13468 31.1302C3.74737 31.1302 3.36006 31.2474 3.05381 31.6714V31.2068H2.24316V34.9233H3.05381V32.8711C3.05381 32.2126 3.40059 31.9014 3.94102 31.9014C4.48145 31.9014 4.75167 32.2487 4.75167 32.8711V34.9233H5.56232V32.8711C5.56232 32.2126 5.94963 31.9014 6.44953 31.9014C6.98996 31.9014 7.26018 32.2487 7.26018 32.8711V34.9233H8.15639ZM20.181 31.2068H18.866V30.0838H18.0553V31.2068H17.3212V31.942H18.0553V33.6469C18.0553 34.4994 18.4021 35 19.3298 35C19.6766 35 20.0639 34.8827 20.3341 34.7294L20.0999 34.0303C19.8658 34.1836 19.5955 34.2242 19.4019 34.2242C19.0146 34.2242 18.8615 33.9897 18.8615 33.6063V31.942H20.1765V31.2068H20.181ZM27.0625 31.1257C26.5986 31.1257 26.2879 31.3602 26.0942 31.6669V31.2023H25.2836V34.9188H26.0942V32.826C26.0942 32.2081 26.3645 31.8563 26.8689 31.8563C27.022 31.8563 27.2156 31.8969 27.3733 31.933L27.6075 31.1572C27.4453 31.1257 27.2156 31.1257 27.0625 31.1257ZM16.6637 31.5135C16.2764 31.2429 15.736 31.1257 15.155 31.1257C14.2273 31.1257 13.6103 31.5902 13.6103 32.3254C13.6103 32.9433 14.0741 33.2951 14.8848 33.4079L15.2721 33.4485C15.6954 33.5251 15.9296 33.6424 15.9296 33.8364C15.9296 34.107 15.6189 34.3009 15.0784 34.3009C14.538 34.3009 14.1102 34.107 13.8399 33.913L13.4526 34.5309C13.876 34.8422 14.4569 34.9955 15.0379 34.9955C16.1188 34.9955 16.7403 34.4903 16.7403 33.7958C16.7403 33.1373 16.2359 32.79 15.4657 32.6727L15.0784 32.6321C14.7317 32.5915 14.4614 32.5148 14.4614 32.2848C14.4614 32.0142 14.7317 31.8608 15.1595 31.8608C15.6234 31.8608 16.0872 32.0548 16.3214 32.172L16.6637 31.5135ZM38.2315 31.1257C37.7676 31.1257 37.4568 31.3602 37.2632 31.6669V31.2023H36.4525V34.9188H37.2632V32.826C37.2632 32.2081 37.5334 31.8563 38.0378 31.8563C38.1909 31.8563 38.3846 31.8969 38.5422 31.933L38.7764 31.1662C38.6188 31.1257 38.3891 31.1257 38.2315 31.1257ZM27.8732 33.0651C27.8732 34.1882 28.6478 35 29.8457 35C30.3862 35 30.7735 34.8827 31.1608 34.576L30.7735 33.9175C30.4627 34.1521 30.1565 34.2648 29.8052 34.2648C29.1477 34.2648 28.6838 33.8003 28.6838 33.0651C28.6838 32.366 29.1477 31.9014 29.8052 31.8653C30.152 31.8653 30.4627 31.9826 30.7735 32.2126L31.1608 31.5541C30.7735 31.2429 30.3862 31.1302 29.8457 31.1302C28.6478 31.1257 27.8732 31.942 27.8732 33.0651ZM35.3717 33.0651V31.2068H34.561V31.6714C34.2908 31.3241 33.9035 31.1302 33.3991 31.1302C32.3543 31.1302 31.5436 31.942 31.5436 33.0651C31.5436 34.1882 32.3543 35 33.3991 35C33.9395 35 34.3268 34.8061 34.561 34.4588V34.9233H35.3717V33.0651ZM32.3948 33.0651C32.3948 32.4066 32.8181 31.8653 33.5162 31.8653C34.1737 31.8653 34.6376 32.3705 34.6376 33.0651C34.6376 33.7236 34.1737 34.2648 33.5162 34.2648C32.8226 34.2242 32.3948 33.7191 32.3948 33.0651ZM22.694 31.1257C21.6132 31.1257 20.8385 31.9014 20.8385 33.0606C20.8385 34.2242 21.6132 34.9955 22.7346 34.9955C23.275 34.9955 23.8154 34.8422 24.2433 34.4903L23.856 33.9085C23.5452 34.1431 23.1579 34.2964 22.7751 34.2964C22.2707 34.2964 21.7708 34.0619 21.6537 33.4079H24.3964C24.3964 33.2906 24.3964 33.2139 24.3964 33.0967C24.4324 31.9014 23.7344 31.1257 22.694 31.1257ZM22.694 31.8248C23.1984 31.8248 23.5452 32.136 23.6218 32.7133H21.6897C21.7663 32.2126 22.1131 31.8248 22.694 31.8248ZM42.8341 33.0651V29.7365H42.0235V31.6714C41.7533 31.3241 41.366 31.1302 40.8616 31.1302C39.8167 31.1302 39.0061 31.942 39.0061 33.0651C39.0061 34.1882 39.8167 35 40.8616 35C41.402 35 41.7893 34.8061 42.0235 34.4588V34.9233H42.8341V33.0651ZM39.8573 33.0651C39.8573 32.4066 40.2806 31.8653 40.9787 31.8653C41.6362 31.8653 42.1 32.3705 42.1 33.0651C42.1 33.7236 41.6362 34.2648 40.9787 34.2648C40.2806 34.2242 39.8573 33.7191 39.8573 33.0651ZM12.7185 33.0651V31.2068H11.9079V31.6714C11.6377 31.3241 11.2504 31.1302 10.746 31.1302C9.70113 31.1302 8.89048 31.942 8.89048 33.0651C8.89048 34.1882 9.70113 35 10.746 35C11.2864 35 11.6737 34.8061 11.9079 34.4588V34.9233H12.7185V33.0651ZM9.70563 33.0651C9.70563 32.4066 10.129 31.8653 10.827 31.8653C11.4846 31.8653 11.9484 32.3705 11.9484 33.0651C11.9484 33.7236 11.4846 34.2648 10.827 34.2648C10.129 34.2242 9.70563 33.7191 9.70563 33.0651Z" fill="#181818"/>
<path d="M28.5713 2.98132H16.3936V24.8924H28.5713V2.98132Z" fill="#FF5A00"/>
<path d="M17.2038 13.9369C17.2038 9.48518 19.2934 5.53415 22.5 2.98131C20.1401 1.12307 17.1632 0 13.9161 0C6.22398 0 0 6.23325 0 13.9369C0 21.6405 6.22398 27.8737 13.9161 27.8737C17.1632 27.8737 20.1401 26.7506 22.5 24.8924C19.2889 22.3756 17.2038 18.3885 17.2038 13.9369Z" fill="#EB001B"/>
<path d="M45 13.9369C45 21.6405 38.776 27.8737 31.0839 27.8737C27.8368 27.8737 24.8599 26.7506 22.5 24.8924C25.7471 22.3351 27.7962 18.3885 27.7962 13.9369C27.7962 9.48518 25.7066 5.53415 22.5 2.98131C24.8554 1.12307 27.8323 0 31.0794 0C38.776 0 45 6.27384 45 13.9369Z" fill="#F79E1B"/>
</g>
<defs>
<clipPath id="clip0_247_1697">
<rect width="45" height="35" fill="white"/>
</clipPath>
</defs>
</svg>
