<svg width="22" height="22" viewBox="0 0 22 22" fill="none" xmlns="http://www.w3.org/2000/svg">
<g clip-path="url(#clip0_247_1723)">
<path d="M19.0666 6.29797C19.9307 5.68438 20.6577 4.91849 21.25 4.03661V4.03573C20.4593 4.38193 19.6182 4.61214 18.7398 4.7237C19.643 4.18448 20.3327 3.33714 20.6568 2.31625C19.8147 2.81828 18.8851 3.17245 17.8943 3.37078C17.0947 2.51901 15.9552 1.99219 14.7121 1.99219C12.3002 1.99219 10.3585 3.94984 10.3585 6.34932C10.3585 6.69464 10.3877 7.02667 10.4594 7.34276C6.83807 7.16568 3.63286 5.43026 1.47953 2.78552C1.10411 3.43807 0.88276 4.18448 0.88276 4.98755C0.88276 6.4963 1.65927 7.83328 2.81828 8.60802C2.11792 8.59474 1.43172 8.39109 0.85 8.07146V8.11927C0.85 10.2363 2.35964 11.9947 4.34031 12.4003C3.98526 12.4977 3.59922 12.5437 3.19813 12.5437C2.91922 12.5437 2.63766 12.5278 2.3738 12.4693C2.93781 14.1941 4.54042 15.4629 6.44406 15.5045C4.96187 16.6635 3.07948 17.3621 1.04214 17.3621C0.685313 17.3621 0.342656 17.3462 0 17.3028C1.93021 18.5468 4.21635 19.2578 6.68313 19.2578C14.3712 19.2578 19.3818 12.8439 19.0666 6.29797Z" fill="#181818"/>
</g>
<defs>
<clipPath id="clip0_247_1723">
<rect width="21.25" height="21.25" fill="white"/>
</clipPath>
</defs>
</svg>
