<svg width="78" height="23" viewBox="0 0 78 23" fill="none" xmlns="http://www.w3.org/2000/svg">
<g clip-path="url(#clip0_247_1703)">
<path d="M33.8 22.6682H27.4814L31.4335 0.403564H37.7517L33.8 22.6682Z" fill="#00579F"/>
<path d="M56.7049 0.947862C55.4586 0.497369 53.4819 -3.05176e-05 51.0377 -3.05176e-05C44.7979 -3.05176e-05 40.4039 3.03159 40.3769 7.36589C40.3251 10.5637 43.5229 12.3399 45.9146 13.4061C48.3592 14.4957 49.1902 15.2069 49.1902 16.178C49.1653 17.6696 47.2148 18.3572 45.3956 18.3572C42.873 18.3572 41.5213 18.0027 39.4672 17.1728L38.6352 16.8171L37.751 21.815C39.2329 22.4302 41.9632 22.976 44.7979 23C51.4277 23 55.744 20.0153 55.7951 15.3964C55.8204 12.8618 54.1318 10.9198 50.4914 9.33282C48.2814 8.3141 46.928 7.62718 46.928 6.58485C46.9539 5.63727 48.0727 4.66671 50.5674 4.66671C52.6215 4.61917 54.1308 5.06904 55.2741 5.51921L55.8456 5.75564L56.7049 0.947862Z" fill="#00579F"/>
<path d="M65.103 14.7806C65.6233 13.5015 67.6256 8.55116 67.6256 8.55116C67.5994 8.59869 68.1449 7.24847 68.457 6.41958L68.8985 8.33803C68.8985 8.33803 70.0951 13.6674 70.3549 14.7806C69.3674 14.7806 66.351 14.7806 65.103 14.7806ZM72.9024 0.403564H68.015C66.5079 0.403564 65.3628 0.805891 64.7125 2.25087L55.3271 22.6679H61.957C61.957 22.6679 63.0485 19.9199 63.2831 19.328C64.0104 19.328 70.4599 19.328 71.3956 19.328C71.577 20.1097 72.1495 22.6679 72.1495 22.6679H77.9999L72.9024 0.403564Z" fill="#00579F"/>
<path d="M22.2035 0.403564L16.0155 15.5859L15.3393 12.5067C14.1953 8.9538 10.6074 5.0936 6.60352 3.17421L12.2714 22.6446H18.9531L28.8848 0.403564H22.2035Z" fill="#00579F"/>
<path d="M10.2699 0.403564H0.104001L0 0.853427C7.93006 2.70105 13.182 7.15466 15.3398 12.5077L13.1298 2.27511C12.766 0.853113 11.6479 0.450471 10.2699 0.403564Z" fill="#FAA61A"/>
</g>
<defs>
<clipPath id="clip0_247_1703">
<rect width="78" height="23" fill="white"/>
</clipPath>
</defs>
</svg>
