<svg width="22" height="22" viewBox="0 0 22 22" fill="none" xmlns="http://www.w3.org/2000/svg">
<g clip-path="url(#clip0_247_1718)">
<path d="M20.8122 5.52393C20.5672 4.61361 19.8495 3.89604 18.9393 3.65091C17.2764 3.19583 10.6248 3.19583 10.6248 3.19583C10.6248 3.19583 3.97333 3.19583 2.31043 3.63357C1.41777 3.87854 0.682542 4.61377 0.437573 5.52393C0 7.18667 0 10.6351 0 10.6351C0 10.6351 0 14.1008 0.437573 15.7462C0.682704 16.6563 1.40026 17.3741 2.31059 17.6192C3.99084 18.0743 10.625 18.0743 10.625 18.0743C10.625 18.0743 17.2764 18.0743 18.9393 17.6365C19.8496 17.3916 20.5672 16.6738 20.8123 15.7637C21.2499 14.1008 21.2499 10.6526 21.2499 10.6526C21.2499 10.6526 21.2674 7.18667 20.8122 5.52393Z" fill="#181818"/>
<path d="M8.50684 13.8208L14.038 10.6351L8.50684 7.44931V13.8208Z" fill="white"/>
</g>
<defs>
<clipPath id="clip0_247_1718">
<rect width="21.25" height="21.25" fill="white"/>
</clipPath>
</defs>
</svg>
