<svg width="64" height="64" viewBox="0 0 64 64" fill="none" xmlns="http://www.w3.org/2000/svg">
<path d="M20.3658 7.42286C17.0863 9.35747 15.4045 11.965 14.6477 15.9183C14.1431 18.4417 13.6386 19.1147 11.4522 19.7876C8.08857 20.7128 5.81812 24.9185 5.81812 29.9653C5.81812 31.984 6.9113 37.9561 8.34084 43.3394C9.6863 48.6386 10.8636 54.0218 10.8636 55.2835C10.8636 56.5452 11.284 57.9752 11.8727 58.564C13.3022 59.9939 52.1522 59.9939 53.5818 58.564C54.1704 57.9752 54.5908 56.377 54.5908 55.0312C54.5908 53.6013 55.7681 48.218 57.1136 43.1712C58.459 38.0402 59.6363 32.2364 59.6363 30.1335C59.6363 24.9185 57.3658 20.7128 54.0022 19.7035C51.7318 19.1147 51.2272 18.4417 50.8068 15.7501C49.4613 8.01165 41.7249 3.63774 35.2499 7.00229C32.9795 8.17988 32.4749 8.17988 30.2045 7.00229C26.9249 5.32001 23.5613 5.40413 20.3658 7.42286ZM31.2136 10.1145L32.7272 12.0491L34.3249 9.94627C36.5113 7.17051 42.4818 7.00229 45.3408 9.5257C47.9477 11.7968 49.7136 16.2548 49.0408 18.7782C48.6204 20.6287 48.7886 20.881 50.8068 20.881C54.0863 20.881 56.0204 22.2269 57.0295 25.1708C58.3749 29.0401 58.2068 32.3205 56.1045 39.8907C55.0954 43.5076 53.9181 48.975 53.3295 52.0031L52.4045 57.4705H13.0499L12.1249 52.0031C11.5363 48.975 10.359 43.5076 9.34993 39.8907C7.16357 32.0682 7.07948 28.6195 8.67721 24.6662C9.6863 22.2269 10.4431 21.6381 13.2181 21.2175C16.4136 20.7128 16.4977 20.6287 16.4136 17.4324C16.3295 13.8996 18.5999 10.1986 21.8795 8.43222C24.6545 6.91817 29.4477 7.84342 31.2136 10.1145Z" fill="#9FDB3D"/>
<path d="M22.2158 11.965C18.4318 15.7501 18.4318 24.3297 22.2158 28.1148C24.7386 30.6382 26.4204 30.6382 28.9431 28.1148C32.7272 24.3297 32.7272 15.7501 28.9431 11.965C27.8499 10.8715 26.3363 9.94627 25.5795 9.94627C24.8227 9.94627 23.309 10.8715 22.2158 11.965ZM29.1954 16.0025C30.6249 19.7876 29.9522 24.4979 27.5977 26.8531C25.4954 28.956 23.2249 27.8625 21.8795 24.1615C20.6181 20.6287 20.7022 18.8623 22.2158 15.3295C23.2249 12.8061 23.8136 12.3856 25.7477 12.6379C27.5136 12.8061 28.2704 13.5632 29.1954 16.0025Z" fill="#9FDB3D"/>
<path d="M36.5113 11.965C34.1567 14.3202 33.1477 18.7782 33.9886 23.068C34.5772 26.3484 37.6886 30.1336 39.8749 30.1336C43.7431 30.1336 46.9386 23.068 45.7613 17.0118C45.1727 13.7314 42.0613 9.94627 39.8749 9.94627C39.1181 9.94627 37.6045 10.8715 36.5113 11.965ZM43.4908 16.0025C44.9204 19.7876 44.2477 24.4979 41.8931 26.8531C39.7908 28.956 37.5204 27.8625 36.1749 24.1615C34.9136 20.6287 34.9977 18.8623 36.5113 15.3295C37.5204 12.8061 38.109 12.3856 40.0431 12.6379C41.809 12.8061 42.5658 13.5632 43.4908 16.0025Z" fill="#9FDB3D"/>
<path d="M10.8636 25.0867C9.01357 26.9372 8.7613 28.956 10.1068 32.4046C11.4522 35.9374 14.2272 38.5449 16.834 38.5449C20.1136 38.5449 21.2068 36.6944 20.7022 32.0682C20.3658 28.956 19.6931 27.526 17.6749 25.7596C14.5636 22.9839 13.134 22.8157 10.8636 25.0867ZM16.834 27.526C20.9545 31.7317 19.609 38.9655 15.1522 36.2739C14.3954 35.8533 13.134 34.0869 12.209 32.3205C10.9477 29.7971 10.8636 28.7036 11.6204 27.1055C12.7977 24.4979 13.8068 24.582 16.834 27.526Z" fill="#9FDB3D"/>
<path d="M47.7795 25.7596C45.7613 27.526 45.0886 28.956 44.7522 32.0682C44.2477 36.6944 45.3408 38.5449 48.6204 38.5449C54.5908 38.5449 58.7113 26.8531 53.7499 24.2456C51.3954 22.9839 50.6386 23.1521 47.7795 25.7596ZM53.834 27.1055C54.5908 28.7036 54.5068 29.7971 53.2454 32.3205C52.3204 34.0869 51.059 35.8533 50.3022 36.2739C45.8454 38.9655 44.4999 31.7317 48.6204 27.526C51.6477 24.5821 52.6568 24.4979 53.834 27.1055Z" fill="#9FDB3D"/>
<path d="M26.9249 34.3392C20.1136 39.3019 15.909 48.975 18.7681 53.2648C20.6181 56.0406 23.3931 56.6294 27.2613 55.0312C31.2136 53.3489 34.2408 53.3489 38.1931 55.0312C44.1636 57.4705 48.5363 54.1901 47.4431 47.8815C46.2658 40.9001 37.9408 31.8158 32.7272 31.8158C31.4658 31.8158 28.859 32.9934 26.9249 34.3392ZM37.6886 36.0215C41.5568 38.8814 44.0795 42.4983 45.3408 47.0404C47.0227 53.2648 44.3318 55.1994 37.4363 52.8442C32.7272 51.162 32.7272 51.162 28.0181 52.8442C23.0568 54.5265 20.7863 54.1901 19.7772 51.4984C19.1045 49.732 20.4499 44.7693 22.6363 41.3207C24.4863 38.2085 30.6249 33.4981 32.7272 33.4981C33.484 33.4981 35.7545 34.6757 37.6886 36.0215Z" fill="#9FDB3D"/>
</svg>
