<svg width="64" height="64" viewBox="0 0 64 64" fill="none" xmlns="http://www.w3.org/2000/svg">
<path d="M24.8522 7.20332C6.70159 13.7306 1.32066 37.0303 14.8131 50.8284C20.0334 56.1989 24.8522 58.1819 32.8834 58.1819C38.2643 58.1819 40.4328 57.7688 43.324 56.3642C49.0262 53.4724 52.4796 50.1674 55.3709 44.4664C57.8606 39.7569 58.1015 38.6002 58.1818 32.2382C58.1818 25.7109 57.9409 24.8021 55.2906 19.8447C49.1868 8.44267 36.3368 3.07216 24.8522 7.20332ZM34.0881 9.68202C33.2047 13.6479 31.5181 15.4657 26.2978 18.3575C20.0334 21.745 14.9738 26.8677 13.6084 30.9988C11.5203 37.5261 14.4919 44.6317 21.5594 49.9196C24.4506 52.0678 25.7356 52.4809 29.5906 52.4809C37.2203 52.4809 39.71 50.2501 48.7049 35.13C50.1506 32.7339 55.6921 29.8421 56.7362 30.9162C57.0574 31.1641 56.8165 33.7254 56.3346 36.5346C53.9252 50.0022 41.6375 58.8429 28.7875 56.3642C11.44 53.0592 3.24816 32.8992 13.2069 18.1096C17.3028 12.1607 25.4144 7.53382 32 7.45119C34.4897 7.45119 34.6503 7.61644 34.0881 9.68202ZM37.7022 9.51678C37.7022 11.3345 34.8912 16.705 33.2047 18.2748C32.3212 19.0185 29.43 20.8362 26.619 22.3234C20.8366 25.4631 17.0619 29.6769 16.3391 33.7254C15.6163 37.5261 18.6681 43.3097 23.0853 46.6146C30.3134 51.9025 36.9793 49.1759 42.5209 38.6828C44.0468 35.7084 45.8137 32.6513 46.4562 31.9077C47.8215 30.1726 53.2024 27.2808 54.9693 27.2808C56.9771 27.2808 56.3346 28.6854 54.0056 29.3464C50.3112 30.2552 47.3396 33.0644 44.9303 37.9392C38.8265 50.4979 30.715 54.216 22.4428 48.3497C20.7562 47.1104 18.4272 44.7143 17.2225 42.9792C11.5203 34.469 15.1344 26.1241 27.3419 19.8447C32.0803 17.366 34.8109 14.3089 35.6943 10.5083C36.3368 8.11218 37.7022 7.4512 37.7022 9.51678ZM46.2153 11.8302C52.3993 16.2093 57.7802 25.6283 54.1662 25.6283C50.2309 25.6283 43.8059 31.2467 41.8784 36.3693C40.4328 40.2526 36.2565 45.21 33.3653 46.6146C29.5906 48.4323 25.9765 47.3582 22.0412 43.3923C18.1863 39.3438 17.1422 35.6257 18.9091 31.7424C20.2744 28.768 25.0931 24.4716 28.8678 22.9844C33.8472 21.0014 39.3084 14.3916 39.3084 10.343C39.3084 8.36005 42.039 8.93841 46.2153 11.8302Z" fill="#0F0F10"/>
</svg>
