<svg width="64" height="64" viewBox="0 0 64 64" fill="none" xmlns="http://www.w3.org/2000/svg">
<path d="M12.4546 4.63633C10.4546 5.54542 7.45463 7.72724 5.81827 9.63633C3.27282 12.5454 2.90918 13.6363 2.90918 18.1818C2.90918 26.0909 6.63645 29.6363 12.3637 27.4545C14.5455 26.6363 14.7274 26.8181 14.7274 29.0909C14.8183 30.4545 15.3637 33 16.0001 34.8181C16.9092 37.5454 16.9092 38.3636 15.9092 39.8181C14.091 42.2727 14.4546 47.7272 16.5455 50.4545C17.5455 51.7272 18.3637 54.0909 18.3637 55.8182C18.3637 60.7272 19.3637 61.0909 32.0001 61.0909C44.6365 61.0909 45.6365 60.7272 45.6365 55.8182C45.6365 54.0909 46.4546 51.7272 47.4546 50.4545C49.5455 47.7272 49.9092 42.2727 48.091 39.8181C47.091 38.3636 47.091 37.5454 48.0001 34.8181C48.6365 33 49.1819 30.4545 49.2728 29.0909C49.2728 26.8181 49.4546 26.6363 51.6364 27.4545C57.4546 29.7272 61.091 26.0909 61.091 18C61.091 12.9091 60.9092 12.4545 57.1819 8.81815C53.091 4.63633 47.2728 2.27269 43.5455 3.27269C42.2728 3.54542 40.091 4.99997 38.7274 6.45451C36.7274 8.63633 35.5455 9.09088 31.8183 9.09088C28.7274 9.09088 27.091 8.63633 26.2728 7.54542C24.4546 4.99997 20.8183 2.90906 18.3637 2.90906C17.091 2.90906 14.4546 3.72724 12.4546 4.63633ZM24.4546 8.90906C26.6365 11.2727 28.3637 12.7272 28.3637 12.0909C28.3637 11.5454 29.9092 11.0909 32.0001 11.0909C34.091 11.0909 35.6365 11.5454 35.6365 12.0909C35.6365 12.7272 37.3637 11.2727 39.5455 8.90906C44.0001 4.18178 45.7274 3.81815 51.0001 6.54542C56.5455 9.3636 59.2728 13.1818 59.2728 18.2727C59.2728 23.4545 57.7274 25.8181 54.2728 25.8181C50.5455 25.8181 49.2728 23.5454 49.2728 16.3636C49.2728 11.5454 48.9092 9.99997 47.8183 9.54542C47.091 9.27269 46.0001 9.45451 45.3637 10.0909C44.6365 10.8181 44.7274 11.0909 45.9092 11.0909C47.7274 11.0909 48.091 14.3636 46.3637 15C45.4546 15.3636 45.4546 15.6363 46.3637 16.6363C47.7274 18.0909 47.8183 28.3636 46.5455 33.0909C45.8183 35.7272 45.2728 36.2727 43.8183 35.9091C41.3637 35.2727 41.5455 35.9091 44.7274 39.0909C49.8183 44.1818 46.9092 52 40.0001 52C33.8183 52 30.7274 46.9091 34.7274 43.3636C35.7274 42.4545 36.5455 40.9091 36.5455 40C36.5455 37.7272 32.7274 36.3636 29.7274 37.4545C27.0001 38.5454 26.8183 41.0909 29.2728 43.3636C33.2728 46.9091 30.1819 52 24.0001 52C17.091 52 14.1819 44.1818 19.2728 39.0909C22.4546 35.9091 22.6365 35.2727 20.1819 35.9091C18.7274 36.2727 18.1819 35.7272 17.4546 33.0909C16.1819 28.3636 16.2728 18.0909 17.7274 16.6363C18.6365 15.6363 18.6365 15.3636 17.7274 15C15.9092 14.3636 16.2728 11.0909 18.091 11.0909C19.2728 11.0909 19.3637 10.8181 18.6365 10.0909C18.0001 9.45451 16.9092 9.27269 16.1819 9.54542C15.091 9.99997 14.7274 11.5454 14.7274 16.3636C14.7274 23.5454 13.4546 25.8181 9.72736 25.8181C6.27282 25.8181 4.72736 23.4545 4.72736 18.2727C4.72736 13.2727 7.36372 9.45451 12.8183 6.54542C18.0001 3.81815 20.0001 4.18178 24.4546 8.90906ZM34.7274 40.0909C34.7274 40.5454 34.091 41.3636 33.3637 42C32.2728 42.9091 31.7274 42.9091 30.6365 42C28.5455 40.2727 29.0001 39.2727 32.0001 39.2727C33.5455 39.2727 34.7274 39.6363 34.7274 40.0909ZM32.091 54.7272C32.5455 54.7272 32.9092 54.0909 32.9092 53.3636C32.9092 52.5454 33.4546 52.2727 34.3637 52.6363C36.1819 53.2727 35.7274 57.3636 33.6365 58.7272C31.5455 60 28.9092 58.4545 28.5455 55.6363C28.1819 53.2727 30.4546 51.1818 30.9092 53.3636C31.091 54.0909 31.6365 54.7272 32.091 54.7272ZM26.6365 56.9091C27.2728 59.2727 27.1819 59.3636 24.0001 59.0909C21.091 58.8181 20.6365 58.4545 20.3637 56.2727C20.091 53.8181 20.2728 53.7272 23.0001 54C25.3637 54.2727 26.091 54.9091 26.6365 56.9091ZM43.6365 56.2727C43.3637 58.4545 42.9092 58.8181 40.0001 59.0909C37.1819 59.3636 36.6365 59.0909 37.0001 58C37.2728 57.1818 37.6365 56 37.8183 55.3636C38.0001 54.7272 39.4546 54.0909 41.091 54C43.7274 53.8181 43.9092 54 43.6365 56.2727Z" fill="#9FDB3D"/>
<path d="M19.8183 19.7272C18.8183 20.4545 18.2728 21.2727 18.5455 21.5454C19.1819 22.2727 23.8183 20.0909 23.8183 19.0909C23.8183 17.9091 21.7274 18.2727 19.8183 19.7272Z" fill="#9FDB3D"/>
<path d="M40.1819 19.0909C40.1819 20.0909 44.8183 22.2727 45.4546 21.5454C46.091 20.9091 42.8183 18.4545 41.3637 18.3636C40.7274 18.3636 40.1819 18.7272 40.1819 19.0909Z" fill="#9FDB3D"/>
<path d="M21.6365 23.7272C19.7274 25.8181 20.3637 28.9091 22.8183 29.7272C26.9092 31 29.7274 26.8181 26.9092 23.7272C26.091 22.8181 24.9092 22 24.2728 22C23.6365 22 22.4546 22.8181 21.6365 23.7272ZM25.9092 25.3636C26.2728 25.6363 26.091 26.4545 25.5455 27.1818C24.7274 28.0909 24.1819 28.0909 23.2728 27.3636C22.5455 26.8181 22.2728 26 22.5455 25.5454C23.091 24.5454 25.091 24.4545 25.9092 25.3636Z" fill="#9FDB3D"/>
<path d="M37.091 23.7272C35.1819 25.8181 35.8183 28.9091 38.2728 29.7272C42.3637 31 45.1819 26.8181 42.3637 23.7272C41.5455 22.8181 40.3637 22 39.7274 22C39.091 22 37.9092 22.8181 37.091 23.7272ZM41.3637 25.3636C41.7274 25.6363 41.5455 26.4545 41.0001 27.1818C40.1819 28.0909 39.6365 28.0909 38.7274 27.3636C38.0001 26.8181 37.7274 26 38.0001 25.5454C38.5455 24.5454 40.5455 24.4545 41.3637 25.3636Z" fill="#9FDB3D"/>
<path d="M26.5455 45.7272C26.5455 46.1818 27.0001 46.3636 27.4546 46.0909C28.0001 45.8181 28.3637 45.3636 28.3637 45.0909C28.3637 44.9091 28.0001 44.7272 27.4546 44.7272C27.0001 44.7272 26.5455 45.1818 26.5455 45.7272Z" fill="#9FDB3D"/>
<path d="M36.091 45.6363C36.3637 46.0909 36.8183 46.5454 37.091 46.5454C37.2728 46.5454 37.4546 46.0909 37.4546 45.6363C37.4546 45.0909 37.0001 44.7272 36.4546 44.7272C36.0001 44.7272 35.8183 45.0909 36.091 45.6363Z" fill="#9FDB3D"/>
<path d="M20.1819 47.4545C20.1819 47.9091 20.6365 48.3636 21.091 48.3636C21.6365 48.3636 22.0001 47.9091 22.0001 47.4545C22.0001 46.9091 21.6365 46.5454 21.091 46.5454C20.6365 46.5454 20.1819 46.9091 20.1819 47.4545Z" fill="#9FDB3D"/>
<path d="M42.0001 47.4545C42.0001 47.9091 42.4546 48.3636 42.9092 48.3636C43.4546 48.3636 43.8183 47.9091 43.8183 47.4545C43.8183 46.9091 43.4546 46.5454 42.9092 46.5454C42.4546 46.5454 42.0001 46.9091 42.0001 47.4545Z" fill="#9FDB3D"/>
</svg>
