<svg width="64" height="64" viewBox="0 0 64 64" fill="none" xmlns="http://www.w3.org/2000/svg">
<path d="M19.4113 12.1365C22.6953 15.3859 23.9724 14.9346 21.6006 11.4144C20.7796 10.1507 19.3201 9.15785 18.2254 9.15785C16.6746 9.15785 16.857 9.51889 19.4113 12.1365Z" fill="#9FDB3D"/>
<path d="M42.3995 11.4144C40.0277 14.9346 41.3048 15.3859 44.5889 12.1365C47.1431 9.51889 47.3256 9.15785 45.7748 9.15785C44.6801 9.15785 43.2205 10.1507 42.3995 11.4144Z" fill="#9FDB3D"/>
<path d="M21.4182 22.697C19.2288 23.5093 17.678 25.4048 19.1376 25.4048C20.9621 25.4048 24.7022 23.5996 24.7022 22.697C24.7022 21.6139 24.0637 21.6139 21.4182 22.697Z" fill="#9FDB3D"/>
<path d="M39.2979 22.697C39.2979 23.5996 43.0381 25.4048 45.045 25.4048C46.5958 25.4048 43.7679 22.9678 41.3961 22.2457C40.1189 21.8846 39.2979 22.0652 39.2979 22.697Z" fill="#9FDB3D"/>
<path d="M21.0533 27.6614C20.1411 28.7445 20.1411 29.5568 20.8709 31.2718C22.148 34.0699 25.9794 34.3407 27.4389 31.7231C29.6283 27.7516 23.9724 24.2314 21.0533 27.6614ZM25.8881 28.6542C26.7091 29.5568 25.5232 31.7231 24.2461 31.7231C22.6953 31.7231 21.6919 30.1887 22.4217 29.0153C23.0602 28.0224 24.9759 27.8419 25.8881 28.6542Z" fill="#9FDB3D"/>
<path d="M36.5612 28.1127C35.1929 30.64 36.9261 33.5283 39.8453 33.5283C42.6732 33.5283 44.7713 29.8276 42.9469 27.6614C41.3048 25.7659 37.7471 25.9464 36.5612 28.1127ZM41.8522 29.6471C42.3083 31.2718 39.2979 32.2647 38.3857 30.7302C37.9296 30.0984 37.8384 29.1958 38.112 28.7445C38.7506 27.6614 41.3048 28.2932 41.8522 29.6471Z" fill="#9FDB3D"/>
<path d="M27.4389 47.0675C27.4389 47.5188 27.895 47.9701 28.3512 47.9701C28.8985 47.9701 29.2634 47.5188 29.2634 47.0675C29.2634 46.5259 28.8985 46.1649 28.3512 46.1649C27.895 46.1649 27.4389 46.5259 27.4389 47.0675Z" fill="#9FDB3D"/>
<path d="M34.7368 47.0675C34.7368 47.5188 35.1929 47.9701 35.649 47.9701C36.1963 47.9701 36.5612 47.5188 36.5612 47.0675C36.5612 46.5259 36.1963 46.1649 35.649 46.1649C35.1929 46.1649 34.7368 46.5259 34.7368 47.0675Z" fill="#9FDB3D"/>
<path fill-rule="evenodd" clip-rule="evenodd" d="M10.289 4.37401C8.73818 7.44288 8.28206 12.0462 9.19429 16.1079C9.92408 19.3573 9.83286 21.6139 8.64696 26.3977C7.18738 32.1744 7.00494 32.5355 4.99803 32.0841C2.535 31.4523 2.44378 31.6328 3.7209 34.9725C4.45069 36.7777 4.45069 37.5901 3.62968 38.0414C0.984209 39.7563 7.55228 45.8038 15.1238 48.6019C19.2288 50.1364 19.685 50.5877 19.9586 53.3858C20.1411 55.1007 20.6884 56.9962 21.1445 57.5378C23.4251 60.3358 40.5751 60.3358 42.8556 57.5378C43.3118 56.9962 43.8591 55.1007 44.0415 53.3858C44.3152 50.5877 44.7713 50.1364 48.8764 48.6019C56.4479 45.8038 63.016 39.7563 60.3705 38.0414C59.5495 37.5901 59.5495 36.7777 60.2793 34.9725C61.5564 31.6328 61.4652 31.4523 59.0021 32.0841C56.9952 32.5355 56.8128 32.1744 55.3532 26.488C54.2585 21.7944 54.0761 19.3573 54.7147 15.8372C55.5357 11.5949 54.9883 6.17923 53.5288 3.83244C52.5253 2.298 50.9745 2.56879 44.5889 5.45714C36.3788 9.06758 27.6214 9.06758 19.4113 5.45714C12.6608 2.38827 11.3836 2.298 10.289 4.37401ZM25.0671 11.4144C24.7022 10.602 22.6041 9.06758 20.2323 7.89419C13.8467 4.73505 12.2047 4.37401 11.5661 6.08897C10.3802 9.2481 11.0188 16.9203 12.8432 20.26C14.6677 23.5093 14.6677 23.5996 12.9344 23.5996C11.11 23.5996 10.6539 24.412 9.65041 30.2789C9.28552 32.6257 8.55573 33.8894 7.27861 34.1602C5.91026 34.5212 5.72781 34.8822 6.54882 35.8751C7.36983 36.868 7.27861 37.4998 6.4576 38.4927C4.9068 40.2979 7.00494 42.735 12.2959 45.2623C17.0395 47.5188 18.3166 47.5188 18.3166 45.3525C18.3166 43.3668 21.5094 39.1245 22.3304 39.9369C22.6953 40.2979 22.2392 41.7421 21.327 43.3668C19.8674 45.8941 19.7762 46.3454 21.0533 48.6019C22.6041 51.4 27.4389 52.4831 29.8107 50.5877C31.4527 49.2337 31.4527 44.9012 29.7195 43.457C27.8038 41.8323 27.9863 39.2148 30.1756 38.6732C34.6456 37.4998 37.4735 40.8395 34.2807 43.457C32.5474 44.9012 32.5474 49.2337 34.1894 50.5877C36.5612 52.4831 41.3961 51.4 42.9469 48.6019C44.224 46.3454 44.1328 45.8941 42.6732 43.3668C41.761 41.7421 41.3048 40.2979 41.6697 39.9369C42.4908 39.1245 45.6836 43.3668 45.6836 45.3525C45.6836 47.5188 46.9607 47.5188 51.7043 45.2623C56.9952 42.735 59.0934 40.2979 57.5426 38.4927C56.7216 37.4998 56.6303 36.868 57.4514 35.8751C58.2724 34.8822 58.0899 34.5212 56.7216 34.1602C55.4444 33.8894 54.7147 32.6257 54.3498 30.2789C53.3463 24.412 52.8902 23.5996 51.0657 23.5996C49.3325 23.5996 49.3325 23.5093 51.157 20.26C52.3429 18.0034 52.9814 15.1151 52.9814 11.8657C52.9814 4.37401 52.4341 4.01296 45.7748 6.90132C42.6732 8.34549 39.7541 10.241 39.2067 11.1436C38.6594 12.0462 37.9296 12.5878 37.3823 12.317C36.9261 11.9559 36.7437 11.3241 37.0174 10.8728C37.3823 10.4215 35.1929 10.0605 32.0001 10.0605C28.8073 10.0605 26.6179 10.4215 26.9828 10.8728C27.2565 11.3241 27.074 11.9559 26.5267 12.317C25.9794 12.5878 25.3408 12.2267 25.0671 11.4144ZM30.9054 41.8323C31.7264 42.6447 32.2738 42.6447 33.0948 41.8323C33.9158 41.02 33.7333 40.7492 32.0001 40.7492C30.2668 40.7492 30.0844 41.02 30.9054 41.8323ZM32.9123 53.7468C32.9123 54.5591 32.5474 55.191 32.0913 55.191C31.6352 55.191 31.0879 54.5591 30.9054 53.7468C30.5405 51.7611 29.2634 53.2052 29.2634 55.7325C29.2634 57.8988 31.1791 59.0722 33.3684 58.2598C34.9192 57.628 35.1929 53.8371 33.8246 52.9344C33.3684 52.6637 32.9123 53.0247 32.9123 53.7468ZM27.4389 55.8228C27.4389 55.1007 26.8004 54.1981 25.9794 53.9273C23.3339 52.9345 21.7831 53.2955 22.148 54.9202C22.5129 56.9962 27.4389 57.7183 27.4389 55.8228ZM36.5612 55.7325C36.5612 57.7183 41.4873 56.9962 41.8522 54.9202C42.0346 53.9273 41.5785 53.3858 40.4838 53.476C37.8384 53.5663 36.5612 54.3786 36.5612 55.7325Z" fill="#9FDB3D"/>
</svg>
