<svg width="178" height="163" viewBox="0 0 178 163" fill="none" xmlns="http://www.w3.org/2000/svg">
<path d="M54.2406 21.3288C56.3952 14.6492 65.8456 14.6492 68.0003 21.3288L68.7197 23.559C70.1667 28.0452 75.4511 29.9685 79.4433 27.4621L81.4279 26.2161C87.372 22.4842 94.6115 28.5588 91.9685 35.0606L91.086 37.2315C89.3109 41.5982 92.1227 46.4684 96.7919 47.1145L99.1132 47.4356C106.065 48.3976 107.707 57.7045 101.503 60.9863L99.4311 62.082C95.2644 64.2861 94.2879 69.8242 97.4495 73.3205L99.0212 75.0586C103.729 80.2644 99.0034 88.4487 92.1413 86.9749L89.8502 86.4828C85.2416 85.4929 80.9337 89.1077 81.1082 93.8182L81.195 96.16C81.4549 103.174 72.5744 106.406 68.2651 100.866L66.8263 99.0164C63.9322 95.2957 58.3086 95.2957 55.4145 99.0164L53.9757 100.866C49.6665 106.406 40.7859 103.174 41.0458 96.16L41.1326 93.8182C41.3071 89.1077 36.9992 85.4929 32.3906 86.4828L30.0995 86.9749C23.2374 88.4487 18.5122 80.2644 23.2196 75.0586L24.7914 73.3205C27.9529 69.8242 26.9764 64.2861 22.8097 62.082L20.7383 60.9863C14.5343 57.7045 16.1754 48.3976 23.1276 47.4356L25.4489 47.1145C30.1182 46.4684 32.9299 41.5982 31.1548 37.2315L30.2724 35.0607C27.6293 28.5588 34.8688 22.4842 40.8129 26.2161L42.7975 27.4621C46.7897 29.9685 52.0741 28.0451 53.5212 23.559L54.2406 21.3288Z" fill="url(#paint0_linear_1_67)"/>
<g filter="url(#filter0_biiii_1_67)">
<path d="M96.0598 33.4814C98.2145 26.8018 107.665 26.8018 109.82 33.4815L112.923 43.1019C114.37 47.588 119.654 49.5114 123.646 47.005L132.208 41.63C138.152 37.8981 145.391 43.9727 142.748 50.4746L138.941 59.839C137.166 64.2057 139.978 69.0758 144.647 69.7219L154.66 71.1074C161.613 72.0694 163.254 81.3763 157.05 84.6581L148.114 89.3848C143.948 91.5889 142.971 97.127 146.133 100.623L152.913 108.121C157.62 113.327 152.895 121.511 146.033 120.037L136.15 117.914C131.541 116.925 127.233 120.539 127.408 125.25L127.782 135.351C128.042 142.365 119.161 145.597 114.852 140.058L108.646 132.079C105.751 128.358 100.128 128.358 97.2337 132.079L91.0273 140.058C86.718 145.597 77.8375 142.365 78.0974 135.351L78.4717 125.25C78.6462 120.539 74.3384 116.925 69.7297 117.914L59.8466 120.037C52.9845 121.511 48.2593 113.327 52.9667 108.121L59.7466 100.623C62.9082 97.127 61.9317 91.5889 57.765 89.3847L48.8296 84.6581C42.6256 81.3763 44.2667 72.0694 51.2189 71.1074L61.2321 69.7219C65.9013 69.0758 68.7131 64.2057 66.938 59.839L63.1313 50.4746C60.4883 43.9727 67.7278 37.8981 73.6719 41.63L82.233 47.005C86.2251 49.5114 91.5095 47.588 92.9566 43.1019L96.0598 33.4814Z" fill="black" fill-opacity="0.2"/>
</g>
<circle cx="103.297" cy="86.8558" r="16.0843" fill="url(#paint1_linear_1_67)"/>
<defs>
<filter id="filter0_biiii_1_67" x="36.5423" y="20.038" width="132.795" height="137.284" filterUnits="userSpaceOnUse" color-interpolation-filters="sRGB">
<feFlood flood-opacity="0" result="BackgroundImageFix"/>
<feGaussianBlur in="BackgroundImage" stdDeviation="4.21687"/>
<feComposite in2="SourceAlpha" operator="in" result="effect1_backgroundBlur_1_67"/>
<feBlend mode="normal" in="SourceGraphic" in2="effect1_backgroundBlur_1_67" result="shape"/>
<feColorMatrix in="SourceAlpha" type="matrix" values="0 0 0 0 0 0 0 0 0 0 0 0 0 0 0 0 0 0 127 0" result="hardAlpha"/>
<feOffset dy="-3.61446"/>
<feGaussianBlur stdDeviation="6.0241"/>
<feComposite in2="hardAlpha" operator="arithmetic" k2="-1" k3="1"/>
<feColorMatrix type="matrix" values="0 0 0 0 1 0 0 0 0 1 0 0 0 0 1 0 0 0 0.15 0"/>
<feBlend mode="normal" in2="shape" result="effect2_innerShadow_1_67"/>
<feColorMatrix in="SourceAlpha" type="matrix" values="0 0 0 0 0 0 0 0 0 0 0 0 0 0 0 0 0 0 127 0" result="hardAlpha"/>
<feOffset dy="-6.0241"/>
<feGaussianBlur stdDeviation="10.8765"/>
<feComposite in2="hardAlpha" operator="arithmetic" k2="-1" k3="1"/>
<feColorMatrix type="matrix" values="0 0 0 0 1 0 0 0 0 1 0 0 0 0 1 0 0 0 0.15 0"/>
<feBlend mode="normal" in2="effect2_innerShadow_1_67" result="effect3_innerShadow_1_67"/>
<feColorMatrix in="SourceAlpha" type="matrix" values="0 0 0 0 0 0 0 0 0 0 0 0 0 0 0 0 0 0 127 0" result="hardAlpha"/>
<feOffset dy="14.4578"/>
<feGaussianBlur stdDeviation="7.358"/>
<feComposite in2="hardAlpha" operator="arithmetic" k2="-1" k3="1"/>
<feColorMatrix type="matrix" values="0 0 0 0 1 0 0 0 0 1 0 0 0 0 1 0 0 0 0.1 0"/>
<feBlend mode="normal" in2="effect3_innerShadow_1_67" result="effect4_innerShadow_1_67"/>
<feColorMatrix in="SourceAlpha" type="matrix" values="0 0 0 0 0 0 0 0 0 0 0 0 0 0 0 0 0 0 127 0" result="hardAlpha"/>
<feOffset dy="3.54819"/>
<feGaussianBlur stdDeviation="1.8395"/>
<feComposite in2="hardAlpha" operator="arithmetic" k2="-1" k3="1"/>
<feColorMatrix type="matrix" values="0 0 0 0 1 0 0 0 0 1 0 0 0 0 1 0 0 0 0.15 0"/>
<feBlend mode="normal" in2="effect4_innerShadow_1_67" result="effect5_innerShadow_1_67"/>
</filter>
<linearGradient id="paint0_linear_1_67" x1="35.7429" y1="27.8799" x2="56.9681" y2="107.39" gradientUnits="userSpaceOnUse">
<stop stop-color="#D360E5"/>
<stop offset="1" stop-color="#3849FB"/>
</linearGradient>
<linearGradient id="paint1_linear_1_67" x1="91.1442" y1="74.7032" x2="113.662" y2="99.7233" gradientUnits="userSpaceOnUse">
<stop stop-color="white" stop-opacity="0.7"/>
<stop offset="1" stop-color="white" stop-opacity="0.2"/>
</linearGradient>
</defs>
</svg>
