<svg width="18" height="18" viewBox="0 0 18 18" fill="none" xmlns="http://www.w3.org/2000/svg">
<path d="M8.15077 1.36587C8.54204 0.736559 9.45796 0.73656 9.84924 1.36587L12.1357 5.04327C12.2733 5.26469 12.492 5.42358 12.7452 5.48609L16.9491 6.52424C17.6685 6.7019 17.9516 7.57298 17.474 8.13958L14.6831 11.4505C14.5151 11.6498 14.4315 11.9069 14.4503 12.167L14.7621 16.486C14.8154 17.2251 14.0744 17.7635 13.388 17.4843L9.37669 15.8532C9.13516 15.755 8.86483 15.755 8.62331 15.8532L4.61203 17.4843C3.92558 17.7635 3.18459 17.2251 3.23794 16.486L3.5497 12.167C3.56847 11.9069 3.48494 11.6498 3.3169 11.4505L0.52603 8.13958C0.0484277 7.57298 0.331462 6.7019 1.05089 6.52424L5.25484 5.48609C5.50797 5.42358 5.72667 5.26469 5.86434 5.04327L8.15077 1.36587Z" fill="url(#paint0_linear_247_101)"/>
<defs>
<linearGradient id="paint0_linear_247_101" x1="-13.1327" y1="-17.9245" x2="23.6384" y2="-15.117" gradientUnits="userSpaceOnUse">
<stop stop-color="#805FFF"/>
<stop offset="1" stop-color="#24F3DF"/>
</linearGradient>
</defs>
</svg>
