<svg width="38" height="44" viewBox="0 0 38 44" fill="none" xmlns="http://www.w3.org/2000/svg">
<path d="M28.5 13.7027V9.64006C28.5 8.37411 28.2543 7.12056 27.7769 5.95097C27.2994 4.78138 26.5997 3.71867 25.7175 2.82351C24.8354 1.92835 23.7881 1.21826 22.6355 0.733806C21.4829 0.249347 20.2476 0 19 0C17.7524 0 16.5171 0.249347 15.3645 0.733806C14.2119 1.21826 13.1646 1.92835 12.2825 2.82351C11.4003 3.71867 10.7006 4.78138 10.2231 5.95097C9.74572 7.12056 9.5 8.37411 9.5 9.64006V19.2801C9.5 19.6454 9.64298 19.9957 9.8975 20.2539C10.152 20.5122 10.4972 20.6573 10.8571 20.6573C11.2171 20.6573 11.5623 20.5122 11.8168 20.2539C12.0713 19.9957 12.2143 19.6454 12.2143 19.2801V16.457H23.0714V13.7027H12.2143V9.64006C12.2143 7.81385 12.9292 6.06243 14.2018 4.7711C15.4743 3.47977 17.2003 2.7543 19 2.7543C20.7997 2.7543 22.5257 3.47977 23.7982 4.7711C25.0708 6.06243 25.7857 7.81385 25.7857 9.64006V19.2113C25.7857 19.5765 25.9287 19.9268 26.1832 20.1851C26.4377 20.4433 26.7829 20.5884 27.1429 20.5884C27.5028 20.5884 27.848 20.4433 28.1025 20.1851C28.357 19.9268 28.5 19.5765 28.5 19.2113V16.457H35.2857V41.2457H2.71429V16.457H6.78571V13.7027H0V41.3696C0 42.0673 0.2731 42.7363 0.759221 43.2296C1.24534 43.7229 1.90466 44 2.59214 44H35.4079C36.0953 44 36.7547 43.7229 37.2408 43.2296C37.7269 42.7363 38 42.0673 38 41.3696V13.7027H28.5Z" fill="black"/>
</svg>
