<svg width="35" height="26" viewBox="0 0 35 26" fill="none" xmlns="http://www.w3.org/2000/svg">
<path d="M33.75 0H1.25C0.558594 0 0 0.516003 0 1.15469V24.2486C0 24.8872 0.558594 25.4032 1.25 25.4032H33.75C34.4414 25.4032 35 24.8872 35 24.2486V1.15469C35 0.516003 34.4414 0 33.75 0ZM30.5938 3.92956L18.2695 12.7882C17.9648 13.0083 17.5391 13.0083 17.2344 12.7882L4.90625 3.92956C4.85978 3.89643 4.82569 3.8507 4.80877 3.79878C4.79185 3.74685 4.79294 3.69134 4.81189 3.64001C4.83084 3.58869 4.8667 3.54413 4.91444 3.51258C4.96219 3.48103 5.01942 3.46407 5.07812 3.46408H30.4219C30.4806 3.46407 30.5378 3.48103 30.5856 3.51258C30.6333 3.54413 30.6692 3.58869 30.6881 3.64001C30.7071 3.69134 30.7082 3.74685 30.6912 3.79878C30.6743 3.8507 30.6402 3.89643 30.5938 3.92956Z" fill="#D9D9D9"/>
</svg>
