<svg width="25" height="26" viewBox="0 0 25 26" fill="none" xmlns="http://www.w3.org/2000/svg">
<path d="M24.287 17.9508L18.8182 15.5692C18.5846 15.4681 18.3249 15.4467 18.0783 15.5085C17.8318 15.5702 17.6116 15.7117 17.451 15.9116L15.0291 18.9184C11.2281 17.0973 8.16919 13.9891 6.37706 10.1268L9.3361 7.66581C9.53321 7.50291 9.67272 7.27918 9.73352 7.02851C9.79431 6.77784 9.77307 6.51386 9.67302 6.27655L7.32923 0.719487C7.21942 0.463668 7.0252 0.2548 6.78007 0.1289C6.53494 0.0029994 6.25426 -0.0320426 5.98643 0.0298162L0.908219 1.22061C0.649996 1.28121 0.419609 1.42894 0.25466 1.63972C0.0897111 1.85049 -5.94839e-05 2.11185 2.95718e-08 2.38115C2.95718e-08 15.1078 10.1515 25.4032 22.6566 25.4032C22.9217 25.4034 23.1791 25.3123 23.3866 25.1446C23.5941 24.977 23.7396 24.7428 23.7992 24.4804L24.9711 19.3203C25.0316 19.0468 24.9964 18.7604 24.8715 18.5105C24.7467 18.2605 24.54 18.0626 24.287 17.9508Z" fill="#D9D9D9"/>
</svg>
