<svg width="215" height="93" viewBox="0 0 215 93" fill="none" xmlns="http://www.w3.org/2000/svg">
<path d="M49.1086 18.5719C49.1086 18.01 49.3891 17.7009 49.95 17.7009H50.6792C51.2121 17.7009 51.5206 18.01 51.5206 18.5719V40.3749H62.15C62.7109 40.3749 63.0194 40.684 63.0194 41.2459V41.6674C63.0194 42.2293 62.7109 42.5384 62.15 42.5384H49.9219C49.361 42.5384 49.0806 42.2293 49.0806 41.6674V18.5719H49.1086Z" fill="#005CB9"/>
<path d="M65.7959 19.8363V18.5719C65.7959 18.01 66.0764 17.7009 66.6373 17.7009H67.5067C68.0676 17.7009 68.3481 18.01 68.3481 18.5719V19.8363C68.3481 20.3982 68.0676 20.6792 67.5067 20.6792H66.6373C66.0764 20.7073 65.7959 20.4263 65.7959 19.8363ZM65.852 25.6523C65.852 25.0903 66.1605 24.7813 66.7214 24.7813H67.3945C67.9554 24.7813 68.2359 25.0903 68.2359 25.6523V41.6955C68.2359 42.2574 67.9554 42.5665 67.3945 42.5665H66.7214C66.1605 42.5665 65.852 42.2574 65.852 41.6955V25.6523Z" fill="#005CB9"/>
<path d="M74.2939 26.9168H72.8074C72.2465 26.9168 71.9661 26.6358 71.9661 26.0739V25.7929C71.9661 25.231 72.2465 24.9219 72.8074 24.9219H74.3219V20.7355C74.3219 20.1736 74.6304 19.8645 75.1913 19.8645H75.8364C76.3973 19.8645 76.6778 20.1736 76.6778 20.7355V24.9219H80.2677C80.8286 24.9219 81.1371 25.231 81.1371 25.7929V26.0739C81.1371 26.6358 80.8286 26.9168 80.2677 26.9168H76.6778V35.8234C76.6778 39.9255 79.1739 40.4313 80.5762 40.4875C81.2773 40.5718 81.5297 40.7684 81.5297 41.3585V41.808C81.5297 42.3699 81.2493 42.6509 80.5481 42.6509C76.6497 42.6509 74.2939 40.2908 74.2939 36.1044V26.9168Z" fill="#005CB9"/>
<path d="M84.5024 32.7607V32.3112C84.5024 31.7493 84.7829 31.4402 85.3438 31.4402H93.6454C94.2063 31.4402 94.4868 31.7493 94.4868 32.3112V32.7607C94.4868 33.3227 94.2063 33.6036 93.6454 33.6036H85.3438C84.7829 33.6317 84.5024 33.3227 84.5024 32.7607Z" fill="#005CB9"/>
<path d="M111.118 17.2795C115.521 17.2795 118.326 19.0496 119.448 19.9206C119.868 20.2859 119.868 20.7073 119.588 21.1569L119.279 21.6064C118.971 22.0279 118.55 22.056 118.073 21.7469C117.008 21.0164 114.624 19.5554 111.174 19.5554C105.144 19.5554 101.162 24.0789 101.162 29.923C101.162 35.8233 105.116 40.6841 111.258 40.6841C114.96 40.6841 117.541 38.8859 118.634 37.9868C119.055 37.6215 119.476 37.6215 119.84 38.0992L120.149 38.4925C120.513 38.914 120.457 39.3354 120.065 39.7288C118.887 40.7122 115.83 42.988 111.174 42.988C103.602 42.988 98.6096 37.2282 98.6096 29.9511C98.6377 22.7584 103.798 17.2795 111.118 17.2795Z" fill="#005CB9"/>
<path d="M132.349 24.3318C137.537 24.3318 141.744 28.2934 141.744 33.5756C141.744 38.9421 137.537 42.988 132.377 42.988C127.188 42.988 122.981 38.9421 122.981 33.5756C122.981 28.3215 127.188 24.3318 132.349 24.3318ZM132.377 40.8526C136.163 40.8526 139.276 37.7339 139.276 33.6037C139.276 29.5578 136.163 26.5233 132.377 26.5233C128.563 26.5233 125.449 29.5578 125.449 33.6037C125.449 37.7339 128.563 40.8526 132.377 40.8526Z" fill="#005CB9"/>
<path d="M145.811 25.6523C145.811 25.0904 146.12 24.7813 146.68 24.7813H147.326C147.858 24.7813 148.167 25.0904 148.167 25.6523V27.7034C148.167 28.4058 148.027 28.9677 148.027 28.9677H148.111C148.784 27.3381 151.112 24.3318 155.291 24.3318C159.694 24.3318 161.264 26.8324 161.264 31.2436V41.6955C161.264 42.2575 160.956 42.5665 160.395 42.5665H159.722C159.161 42.5665 158.88 42.2575 158.88 41.6955V31.8898C158.88 29.0801 158.432 26.6076 154.982 26.6076C151.196 26.6076 148.223 29.7264 148.223 33.8566V41.6674C148.223 42.2294 147.943 42.5384 147.382 42.5384H146.709C146.148 42.5384 145.839 42.2294 145.839 41.6674V25.6523H145.811Z" fill="#005CB9"/>
<path d="M166.845 26.9168H165.359C164.798 26.9168 164.518 26.6358 164.518 26.0739V25.7929C164.518 25.231 164.798 24.9219 165.359 24.9219H166.873V20.7355C166.873 20.1736 167.182 19.8645 167.743 19.8645H168.388C168.949 19.8645 169.229 20.1736 169.229 20.7355V24.9219H172.819C173.38 24.9219 173.689 25.231 173.689 25.7929V26.0739C173.689 26.6358 173.38 26.9168 172.819 26.9168H169.229V35.8234C169.229 39.9255 171.725 40.4313 173.128 40.4875C173.829 40.5718 174.081 40.7684 174.081 41.3585V41.808C174.081 42.3699 173.801 42.6509 173.1 42.6509C169.201 42.6509 166.845 40.2908 166.845 36.1044V26.9168Z" fill="#005CB9"/>
<path d="M177.279 25.6523C177.279 25.0904 177.587 24.7813 178.148 24.7813H178.793C179.326 24.7813 179.634 25.0904 179.634 25.6523V28.0686C179.634 28.8554 179.494 29.4735 179.494 29.4735H179.578C180.42 26.8886 182.467 24.6689 185.3 24.6689C185.945 24.6689 186.225 24.9499 186.225 25.5118V26.1581C186.225 26.72 185.833 27.0291 185.244 27.0291C181.485 27.0291 179.691 31.2998 179.691 35.0366V41.6955C179.691 42.2575 179.41 42.5665 178.849 42.5665H178.176C177.615 42.5665 177.307 42.2575 177.307 41.6955V25.6523H177.279Z" fill="#005CB9"/>
<path d="M196.546 24.3318C201.735 24.3318 205.941 28.2934 205.941 33.5756C205.941 38.9421 201.735 42.988 196.574 42.988C191.386 42.988 187.179 38.9421 187.179 33.5756C187.179 28.3215 191.386 24.3318 196.546 24.3318ZM196.574 40.8526C200.36 40.8526 203.473 37.7339 203.473 33.6037C203.473 29.5578 200.36 26.5233 196.574 26.5233C192.76 26.5233 189.647 29.5578 189.647 33.6037C189.647 37.7339 192.76 40.8526 196.574 40.8526Z" fill="#005CB9"/>
<path d="M210.036 18.5719C210.036 18.01 210.317 17.7009 210.877 17.7009H211.551C212.112 17.7009 212.42 18.01 212.42 18.5719V37.9305C212.42 40.1502 213.486 40.403 214.271 40.5154C214.692 40.5435 215 40.7683 215 41.3021V41.836C215 42.3698 214.748 42.707 214.075 42.707C212.616 42.707 210.008 42.2574 210.008 38.352V18.5719H210.036Z" fill="#005CB9"/>
<path d="M52.3899 58.8346C55.0823 58.8346 55.8956 60.1552 55.8956 60.1552H55.9517C55.9517 60.1552 55.9237 59.9023 55.9237 59.5651V55.3787C55.9237 54.4515 56.4285 53.9458 57.354 53.9458H58.9807C59.9062 53.9458 60.411 54.4515 60.411 55.3787V71.1129C60.411 72.0401 59.9062 72.5458 58.9807 72.5458H57.6345C56.709 72.5458 56.2041 72.0963 56.2041 71.2534V71.0848C56.2041 71.0286 56.2322 70.9162 56.2322 70.9162H56.1761C56.1761 70.9162 55.0542 72.8549 52.3058 72.8549C48.6598 72.8549 46.2759 69.989 46.2759 65.8307C46.2759 61.5881 48.8281 58.8346 52.3899 58.8346ZM53.4276 69.1461C54.7738 69.1461 56.0639 68.1627 56.0639 65.8307C56.0639 64.2292 55.1945 62.6277 53.4276 62.6277C52.0253 62.6277 50.7913 63.7796 50.7913 65.8307C50.7913 67.8537 51.857 69.1461 53.4276 69.1461Z" fill="#005CB9"/>
<path d="M69.8064 58.8347C73.7889 58.8347 75.9765 61.6444 75.9765 65.2408C75.9765 65.9432 75.3595 66.7299 74.4621 66.7299H67.4225C67.7591 68.3595 69.1053 69.1181 70.5356 69.1181C71.4331 69.1181 72.3025 68.8371 72.9756 68.5C73.845 68.1066 74.462 68.219 74.9108 69.0338L75.2754 69.7081C75.6961 70.5229 75.5558 71.2254 74.7705 71.6468C73.817 72.1806 72.2184 72.855 70.171 72.855C65.4032 72.855 62.823 69.3991 62.823 65.8308C62.851 61.8973 65.4874 58.8347 69.8064 58.8347ZM71.5453 64.145C71.5453 63.0492 70.8441 62.1501 69.6942 62.1501C68.4041 62.1501 67.7591 63.0773 67.5347 64.145H71.5453Z" fill="#005CB9"/>
<path d="M77.3228 60.8015C76.9862 59.8181 77.435 59.1719 78.5007 59.1719H80.2396C81.0809 59.1719 81.5858 59.5652 81.8382 60.38L83.577 66.3084C83.8294 67.1794 84.0819 68.6124 84.0819 68.6124H84.1379C84.1379 68.6124 84.3623 67.1794 84.6428 66.3084L86.3536 60.38C86.5779 59.5652 87.1108 59.1719 87.9522 59.1719H89.7471C90.7848 59.1719 91.2616 59.8181 90.9251 60.8015L87.3071 71.3939C87.0547 72.2087 86.5218 72.574 85.7085 72.574H82.6796C81.8382 72.574 81.3333 72.2087 81.0809 71.3939L77.3228 60.8015Z" fill="#005CB9"/>
<path d="M93.0283 60.5766C93.0283 59.6494 93.5331 59.1437 94.4587 59.1437H96.0853C97.0108 59.1437 97.5157 59.6494 97.5157 60.5766V71.1129C97.5157 72.0401 97.0108 72.5458 96.0853 72.5458H94.4587C93.5331 72.5458 93.0283 72.0401 93.0283 71.1129V60.5766ZM93.0844 56.025V55.3787C93.0844 54.4515 93.5892 53.9458 94.5148 53.9458H96.0573C96.9828 53.9458 97.4876 54.4515 97.4876 55.3787V56.025C97.4876 56.9521 96.9828 57.4579 96.0573 57.4579H94.5148C93.5892 57.4579 93.0844 56.9521 93.0844 56.025Z" fill="#005CB9"/>
<path d="M107.388 58.8347C109.407 58.8347 110.838 59.4528 111.707 60.0429C112.436 60.5205 112.492 61.251 112.016 61.9815L111.567 62.6559C111.062 63.4707 110.473 63.4988 109.632 63.0773C109.099 62.8244 108.426 62.5716 107.668 62.5716C105.537 62.5716 104.471 64.1731 104.471 65.7746C104.471 67.3761 105.565 69.1181 107.837 69.1181C108.706 69.1181 109.604 68.7528 110.249 68.3595C111.118 67.8818 111.763 67.9942 112.184 68.8652L112.52 69.5115C112.913 70.2982 112.829 71.0006 112.128 71.4501C111.202 72.0683 109.576 72.855 107.36 72.855C102.592 72.855 99.8997 69.5115 99.8997 65.8308C99.9558 62.2344 102.592 58.8347 107.388 58.8347Z" fill="#005CB9"/>
<path d="M121.607 64.2012H122V63.9764C122 62.8525 121.102 62.4873 120.093 62.4873C119.223 62.4873 118.354 62.7683 117.681 63.0773C116.811 63.4426 116.166 63.274 115.746 62.4592L115.437 61.813C115.045 60.9982 115.213 60.2957 115.998 59.8743C117.008 59.3967 118.578 58.8347 120.485 58.8347C124.187 58.8347 126.459 60.8858 126.459 64.3136V71.1411C126.459 72.0682 125.954 72.574 125.029 72.574H123.795C122.869 72.574 122.365 72.0963 122.365 71.113V71.0006C122.365 70.832 122.393 70.7477 122.393 70.7477H122.336C122.336 70.7477 121.074 72.8831 118.382 72.8831C115.802 72.8831 114.007 71.113 114.007 68.809C114.063 65.1846 118.298 64.2012 121.607 64.2012ZM119.756 69.5115C121.046 69.5115 122.056 68.2471 122.056 67.1513V66.7861H121.635C120.261 66.7861 118.494 67.1513 118.494 68.3876C118.494 68.9776 118.943 69.5115 119.756 69.5115Z" fill="#005CB9"/>
<path d="M129.46 60.5766C129.46 59.6494 129.965 59.1436 130.89 59.1436H132.349C133.274 59.1436 133.779 59.6494 133.779 60.5766V61.4195C133.779 61.869 133.723 62.2624 133.723 62.2624H133.779C134.228 60.8856 135.658 59.0312 137.341 59.0312C138.238 59.0312 138.575 59.537 138.575 60.4642V61.9252C138.575 62.8524 138.07 63.3581 137.145 63.3581C135.013 63.3581 133.975 65.1844 133.975 67.376V71.1409C133.975 72.0681 133.471 72.5738 132.545 72.5738H130.918C129.993 72.5738 129.488 72.0681 129.488 71.1409V60.5766H129.46Z" fill="#005CB9"/>
<path d="M146.568 58.8347C150.551 58.8347 152.738 61.6444 152.738 65.2408C152.738 65.9432 152.121 66.7299 151.224 66.7299H144.184C144.521 68.3595 145.867 69.1181 147.297 69.1181C148.195 69.1181 149.064 68.8371 149.737 68.5C150.607 68.1066 151.224 68.219 151.673 69.0338L152.037 69.7081C152.458 70.5229 152.318 71.2254 151.532 71.6468C150.579 72.1806 148.98 72.855 146.933 72.855C142.165 72.855 139.585 69.3991 139.585 65.8308C139.613 61.8973 142.249 58.8347 146.568 58.8347ZM148.307 64.145C148.307 63.0492 147.606 62.1501 146.456 62.1501C145.166 62.1501 144.521 63.0773 144.296 64.145H148.307Z" fill="#005CB9"/>
<path d="M35.0574 34.4746C34.3843 33.6879 33.2344 33.6036 32.4491 34.2779L30.9066 35.6266V29.7263C30.9066 23.7979 27.9057 19.1619 22.8574 17.2795C24.6804 15.3689 25.662 12.8683 25.662 10.2272C25.662 4.57976 21.0905 0 15.4533 0C9.81607 0 5.24459 4.57976 5.24459 10.2272C5.24459 12.8683 6.25424 15.3689 8.07722 17.2795C3.00091 19.19 0 23.7979 0 29.6982V48.2982C0 53.4118 1.68276 55.9405 3.16919 58.1601C3.16919 58.1601 3.16919 58.1601 3.16919 58.1882C4.0947 59.5369 4.59953 60.2674 4.59953 62.7118V82.1266C4.59953 88.1112 9.45147 93 15.4253 93C21.399 93 26.279 88.1393 26.279 82.1266V62.7118C26.279 60.2955 26.7558 59.5369 27.9337 57.7668C29.1678 55.9405 30.8786 53.4399 30.8786 48.2701C30.8786 47.2586 30.0652 46.4157 29.0275 46.4157C28.0179 46.4157 27.1765 47.2305 27.1765 48.2701C27.1765 52.2879 25.9425 54.0861 24.8487 55.6876C23.4183 57.823 22.5489 59.3121 22.5489 62.6837V82.0985C22.5489 86.032 19.3517 89.2631 15.3972 89.2631C11.4708 89.2631 8.2455 86.0601 8.2455 82.0985V62.6837C8.2455 59.3402 7.43217 57.9072 6.1701 56.081C4.79585 54.0299 3.61792 52.2317 3.61792 48.2701V29.6982C3.61792 25.2589 5.77746 21.9716 9.50757 20.6511C10.4611 20.3139 12.0317 19.7801 12.3683 18.2628C12.7048 16.7737 11.583 15.6218 10.7416 14.7789C9.50757 13.5426 8.83446 11.913 8.83446 10.171C8.83446 6.57462 11.7512 3.65257 15.3411 3.65257C18.931 3.65257 21.8478 6.57462 21.8478 10.171C21.8478 11.913 21.1747 13.5426 19.9406 14.7789C19.1273 15.6218 17.9774 16.7456 18.342 18.2347C18.6786 19.7239 20.2772 20.2858 21.2027 20.5949C24.9328 21.8873 27.0924 25.1746 27.0924 29.642V35.5423L25.4657 34.1937C24.6804 33.5193 23.5305 33.6036 22.8574 34.3903C22.1843 35.177 22.2685 36.329 23.0537 37.0033L27.7094 40.993C27.7374 41.0211 27.7374 41.0211 27.7655 41.0492C27.7935 41.0773 27.7935 41.0773 27.8215 41.1054C27.8496 41.1335 27.9057 41.1616 27.9337 41.1897C27.9618 41.1897 27.9618 41.2178 27.9898 41.2178C28.0459 41.2459 28.102 41.274 28.1581 41.3021C28.1861 41.3021 28.1861 41.3021 28.2142 41.3302C28.2422 41.3583 28.2983 41.3583 28.3264 41.3864C28.3544 41.3864 28.3544 41.3864 28.3825 41.4145C28.4105 41.4145 28.4666 41.4426 28.4947 41.4426C28.5227 41.4426 28.5227 41.4426 28.5507 41.4426C28.6068 41.4426 28.6349 41.4707 28.691 41.4707C28.719 41.4707 28.719 41.4707 28.7471 41.4707C28.8032 41.4707 28.8592 41.4707 28.9153 41.4707C28.9714 41.4707 29.0275 41.4707 29.0836 41.4707C29.1117 41.4707 29.1117 41.4707 29.1397 41.4707C29.1958 41.4707 29.2238 41.4707 29.2799 41.4426C29.308 41.4426 29.308 41.4426 29.336 41.4426C29.3641 41.4426 29.4202 41.4145 29.4482 41.4145C29.4763 41.4145 29.4763 41.4145 29.5043 41.3864C29.5604 41.3583 29.5884 41.3583 29.6445 41.3302C29.6726 41.3302 29.6726 41.3302 29.7006 41.3021C29.7567 41.274 29.8128 41.2459 29.8689 41.2178C29.8969 41.2178 29.8969 41.1897 29.8969 41.1897C29.925 41.1616 29.9811 41.1335 30.0091 41.1054C30.0372 41.0773 30.0372 41.0773 30.0652 41.0492C30.0933 41.0211 30.0933 41.0211 30.1213 40.993L34.6928 37.0314C35.6183 36.4133 35.7025 35.2332 35.0574 34.4746Z" fill="#00B2E3"/>
</svg>
