<svg width="64" height="64" viewBox="0 0 64 64" fill="none" xmlns="http://www.w3.org/2000/svg">
<path d="M27.2505 28.3513C27.4377 29.0478 27.506 29.8125 27.2785 30.439C27.2343 30.5604 27.1638 30.6704 27.072 30.7613C26.9802 30.8521 26.8694 30.9216 26.7476 30.9646C26.6259 31.0076 26.4961 31.0231 26.3676 31.01C26.2391 30.9968 26.1151 30.9555 26.0045 30.8888C25.5367 30.5937 25.0889 30.2681 24.664 29.914L24.3245 29.6375C24.0095 29.3785 23.7032 29.13 23.3882 28.8938C22.5097 28.2375 21.8132 27.891 21.2095 27.9208C20.576 27.9523 19.8095 28.395 18.826 29.172C18.5477 29.3908 18.2502 29.6393 17.9422 29.8983C17.2632 30.4653 16.5282 31.0795 15.83 31.5275C15.7064 31.6071 15.5647 31.6543 15.4181 31.6647C15.2714 31.675 15.1245 31.6483 14.9909 31.5869C14.8573 31.5255 14.7414 31.4315 14.6537 31.3134C14.5661 31.1954 14.5096 31.0571 14.4895 30.9115C14.402 30.2728 14.535 29.4748 14.7852 28.6943C15.0699 27.8143 15.4795 26.9798 16.0015 26.2163C17.0865 24.629 18.847 23.1328 21.2042 23.2308C23.4792 23.327 25.1662 24.6605 26.1812 26.113C26.6922 26.841 27.0527 27.6233 27.2487 28.3513H27.2505ZM36.6025 28.3513C36.4135 29.0478 36.3452 29.8125 36.5727 30.439C36.6169 30.5606 36.6875 30.6709 36.7794 30.762C36.8713 30.853 36.9823 30.9225 37.1043 30.9656C37.2263 31.0086 37.3563 31.024 37.485 31.0107C37.6137 30.9974 37.7378 30.9558 37.8485 30.8888C38.307 30.6123 38.7602 30.2588 39.1872 29.914L39.5267 29.6375L39.5302 29.6358C39.8452 29.3785 40.1497 29.1283 40.4647 28.8938C41.3415 28.2375 42.0397 27.891 42.6417 27.9208C43.277 27.9523 44.0417 28.395 45.027 29.172C45.3035 29.3908 45.601 29.6393 45.9107 29.8983C46.588 30.4653 47.323 31.0795 48.023 31.5275C48.1466 31.6067 48.2881 31.6535 48.4345 31.6637C48.5809 31.6739 48.7275 31.647 48.8609 31.5857C48.9942 31.5243 49.11 31.4304 49.1975 31.3126C49.285 31.1948 49.3415 31.0569 49.3617 30.9115C49.4492 30.2728 49.3162 29.4748 49.0677 28.6943C48.7821 27.8147 48.3726 26.9803 47.8515 26.2163C46.7665 24.629 45.0042 23.1328 42.647 23.2308C40.372 23.327 38.6867 24.6605 37.67 26.113C37.1891 26.7928 36.8281 27.5498 36.6025 28.3513V28.3513Z" fill="black"/>
<path fill-rule="evenodd" clip-rule="evenodd" d="M43.144 45.1145C43.5057 44.6537 43.7851 44.1339 43.97 43.578C44.1537 43.039 44.3007 42.3478 44.2325 41.6408C44.1625 40.9128 43.83 39.9678 42.8692 39.406C41.9802 38.8863 40.9512 38.937 40.0412 39.1645L40.0167 39.1715C35.8237 40.2845 33.771 40.7448 31.7847 40.736C29.7932 40.7273 27.786 40.246 23.6665 39.1733C22.872 38.9493 21.9252 38.895 21.0835 39.4008C20.2137 39.9258 19.89 40.7798 19.792 41.422C19.6957 42.059 19.778 42.6943 19.9092 43.207C20.0422 43.725 20.261 44.2605 20.5585 44.7033C20.7532 44.9775 20.9709 45.2345 21.2095 45.4715C23.5247 48.0055 27.618 49.5 32.0245 49.5C36.613 49.5 40.8917 47.8725 43.144 45.1145ZM31.769 44.236C34.2295 44.2465 36.6637 43.6778 40.5802 42.6435L40.5277 42.7485C40.5008 42.802 40.4692 42.8529 40.4332 42.9008C39.0577 44.586 35.9532 46 32.0227 46C28.2742 46 25.2537 44.7085 23.7925 43.1108C23.7451 43.0568 23.696 43.0043 23.6455 42.9533L23.642 42.948C23.615 42.9201 23.5882 42.8921 23.5615 42.864L23.537 42.836C23.511 42.8094 23.4864 42.7813 23.4635 42.752L23.453 42.7345C27.0685 43.6725 29.3942 44.2255 31.769 44.236V44.236Z" fill="black"/>
<path fill-rule="evenodd" clip-rule="evenodd" d="M63.5 32C63.5 49.3967 49.3967 63.5 32 63.5C14.6033 63.5 0.5 49.3967 0.5 32C0.5 14.6033 14.6033 0.5 32 0.5C49.3967 0.5 63.5 14.6033 63.5 32ZM60 32C60 47.4647 47.4647 60 32 60C16.5353 60 4 47.4647 4 32C4 16.5353 16.5353 4 32 4C47.4647 4 60 16.5353 60 32Z" fill="black"/>
</svg>
