<svg width="80" height="80" viewBox="0 0 80 80" fill="none" xmlns="http://www.w3.org/2000/svg">
<g clip-path="url(#clip0_247_220)">
<path d="M45.7055 63.0609C43.9141 62.4195 41.9861 62.0732 39.9996 62.0732C37.998 62.0732 36.0775 62.4217 34.2929 63.0608L24.4321 72.2876L30.0859 80H49.9116L55.5674 72.2875C53.7314 68.0773 50.1968 64.6688 45.7055 63.0609Z" fill="#7CE3FF"/>
<path d="M39.9996 62.0732C37.998 62.0732 36.0775 62.4217 34.2929 63.0608C29.9703 64.6088 26.3394 67.9132 24.4321 72.2876L30.0859 80H32.9797V79.0477C32.9879 71.672 37.3891 65.3252 43.7076 62.4829C42.5089 62.2146 41.2663 62.0732 39.9996 62.0732Z" fill="#55DAFE"/>
<path d="M34.293 63.0608C35.295 65.6889 37.2995 67.7705 39.9998 69.2143C42.7001 67.7705 44.7034 65.6889 45.7056 63.0609L34.293 63.0608Z" fill="#FFBF9D"/>
<path d="M30.086 76.3856C29.8339 76.2356 29.5828 76.082 29.3332 75.9256C27.5854 74.8297 25.9059 73.5831 24.4322 72.2876C23.5286 74.3602 23.0254 76.6459 23.0254 79.0477V80H30.0858V79.0477V76.3856H30.086Z" fill="#FFBF9D"/>
<path d="M8.21332 39.6896C12.5779 39.6896 16.1161 36.1514 16.1161 31.7868C16.1161 27.4222 12.5779 23.884 8.21332 23.884C3.84874 23.884 0.310547 27.4222 0.310547 31.7868C0.310547 36.1514 3.84874 39.6896 8.21332 39.6896Z" fill="#FFBF9D"/>
<path d="M71.7866 39.6896C76.1511 39.6896 79.6893 36.1514 79.6893 31.7868C79.6893 27.4222 76.1511 23.884 71.7866 23.884C67.422 23.884 63.8838 27.4222 63.8838 31.7868C63.8838 36.1514 67.422 39.6896 71.7866 39.6896Z" fill="#FFBF9D"/>
<path d="M39.9996 0L8.21338 31.7869L22.4593 51.2633C27.8831 58.6783 36.5187 63.0609 45.7057 63.0609C46.7943 62.8633 47.8638 62.6104 48.9108 62.305C62.1284 58.4522 71.7865 46.248 71.7865 31.7867L39.9996 0Z" fill="#FFD4BD"/>
<path d="M18.7504 31.7869H8.21338C8.21338 46.248 17.8716 58.4521 31.0889 62.305C33.9164 63.1293 36.906 63.5731 39.9998 63.5731C41.9195 63.5731 43.824 63.4025 45.7057 63.0609C30.6584 60.5505 18.7504 47.5467 18.7504 31.7869Z" fill="#FFBF9D"/>
<path d="M23.3633 44.8062C26.4748 44.8062 28.9971 42.8244 28.9971 40.3797C28.9971 37.935 26.4748 35.9531 23.3633 35.9531C20.2518 35.9531 17.7295 37.935 17.7295 40.3797C17.7295 42.8244 20.2518 44.8062 23.3633 44.8062Z" fill="#FF8E9E"/>
<path d="M56.585 44.8062C59.6964 44.8062 62.2188 42.8244 62.2188 40.3797C62.2188 37.935 59.6964 35.9531 56.585 35.9531C53.4735 35.9531 50.9512 37.935 50.9512 40.3797C50.9512 42.8244 53.4735 44.8062 56.585 44.8062Z" fill="#FF8E9E"/>
<path d="M66.5779 14.3442L58.4507 18.451L55.9414 25.758C60.2397 29.5201 65.869 31.7839 71.7867 31.7849C71.7862 25.3445 69.8706 19.3509 66.5779 14.3442Z" fill="#E8B5B1"/>
<path d="M65.7584 3.03814C63.7127 4.37544 61.545 5.53778 59.2749 6.50872C57.9078 5.46486 56.4535 4.52917 54.9248 3.71468L16.9658 9.88192L23.5748 30.3365C23.854 31.2007 24.6589 31.7861 25.567 31.7857L37.0598 31.78C52.8197 31.4827 65.9244 20.6826 70.0588 6.18969C70.7831 3.65061 67.9683 1.59347 65.7584 3.03814Z" fill="#D6948C"/>
<path d="M45.2682 0.434608C43.5545 0.148732 41.7945 0 39.9996 0C30.9352 0 22.7565 3.79477 16.9657 9.88201C11.5422 15.5834 8.21354 23.2961 8.21338 31.7864L25.5669 31.7856C24.1859 29.703 23.8636 27.1243 24.5125 24.711C26.1343 18.6785 29.7886 13.4563 34.7732 9.87783C38.0339 7.53706 41.8623 5.89859 46.0629 5.19775L54.9247 3.71477C51.9547 2.13183 48.7059 1.00797 45.2682 0.434608Z" fill="#CE857A"/>
<path d="M28.7321 34.6851C28.0654 34.6851 27.5249 35.2256 27.5249 35.8923V38.0575C27.5249 38.7242 28.0654 39.2647 28.7321 39.2647C29.3989 39.2647 29.9394 38.7242 29.9394 38.0575V35.8923C29.9394 35.2256 29.3989 34.6851 28.7321 34.6851Z" fill="#313D40"/>
<path d="M51.2673 34.6851C50.6006 34.6851 50.0601 35.2256 50.0601 35.8923V38.0575C50.0601 38.7242 50.6006 39.2647 51.2673 39.2647C51.934 39.2647 52.4745 38.7242 52.4745 38.0575V35.8923C52.4745 35.2256 51.934 34.6851 51.2673 34.6851Z" fill="#313D40"/>
<path d="M43.7636 37.0827C43.2609 36.6448 42.4984 36.6971 42.0603 37.1998C41.54 37.7966 40.7891 38.139 39.9998 38.139C39.2104 38.139 38.4595 37.7966 37.9392 37.1998C37.5011 36.6971 36.7388 36.6449 36.2359 37.0827C35.7332 37.5209 35.6809 38.2834 36.1189 38.7861C37.0979 39.9093 38.5123 40.5535 39.9996 40.5535C41.4869 40.5535 42.9015 39.9093 43.8803 38.7861C44.3186 38.2834 44.2662 37.5209 43.7636 37.0827Z" fill="#313D40"/>
<path d="M55.5675 72.2876C53.8828 73.7686 51.9288 75.1861 49.9116 76.3869V80.0001H56.9743V79.0478C56.9745 76.6461 56.4713 74.3602 55.5675 72.2876Z" fill="#FFD4BD"/>
</g>
<defs>
<clipPath id="clip0_247_220">
<rect width="80" height="80" fill="white"/>
</clipPath>
</defs>
</svg>
