<svg width="80" height="80" viewBox="0 0 80 80" fill="none" xmlns="http://www.w3.org/2000/svg">
<path d="M61.8429 70.5145C58.1199 61.9764 49.6454 56.1828 39.9998 56.1826C39.9996 56.1826 39.9996 56.1826 39.9996 56.1826C37.1982 56.1826 34.5015 56.6705 31.9935 57.5687L24.5952 65.6857L28.0912 80.0001H39.9998H63.8169C63.8169 76.6301 63.111 73.4227 61.8429 70.5145Z" fill="#E8B5B1"/>
<path d="M39.9998 56.1826C37.2452 56.1826 34.544 56.6549 31.9937 57.5684V79.9999H48.0109V57.5706C45.4591 56.6565 42.7549 56.1826 39.9998 56.1826Z" fill="#EFEDFF"/>
<path d="M51.6062 71.8803C52.2729 71.8803 52.8134 71.3398 52.8134 70.6731C52.8134 70.0063 52.2729 69.4658 51.6062 69.4658C50.9394 69.4658 50.3989 70.0063 50.3989 70.6731C50.3989 71.3398 50.9394 71.8803 51.6062 71.8803Z" fill="#D6948C"/>
<path d="M51.6062 78.2563C52.2729 78.2563 52.8134 77.7158 52.8134 77.049C52.8134 76.3823 52.2729 75.8418 51.6062 75.8418C50.9394 75.8418 50.3989 76.3823 50.3989 77.049C50.3989 77.7158 50.9394 78.2563 51.6062 78.2563Z" fill="#D6948C"/>
<path d="M43.5407 71.8803C44.2075 71.8803 44.748 71.3398 44.748 70.6731C44.748 70.0063 44.2075 69.4658 43.5407 69.4658C42.874 69.4658 42.3335 70.0063 42.3335 70.6731C42.3335 71.3398 42.874 71.8803 43.5407 71.8803Z" fill="#D4D4FF"/>
<path d="M43.5407 78.2563C44.2075 78.2563 44.748 77.7158 44.748 77.049C44.748 76.3823 44.2075 75.8418 43.5407 75.8418C42.874 75.8418 42.3335 76.3823 42.3335 77.049C42.3335 77.7158 42.874 78.2563 43.5407 78.2563Z" fill="#D4D4FF"/>
<path d="M18.1565 70.5147C16.8886 73.4228 16.1826 76.6301 16.1826 79.9999H28.0912C28.7027 76.2546 30.0526 72.7513 31.9935 69.6493V57.5684C25.8188 59.7804 20.7874 64.4809 18.1565 70.5147Z" fill="#D6948C"/>
<path d="M48.0025 57.5677C45.4531 56.6554 42.7518 56.1826 39.9993 56.1826C37.2447 56.1826 34.5435 56.6549 31.9932 57.5684V69.6492C35.5946 63.8919 41.2355 59.5191 48.0025 57.5677Z" fill="#D4D4FF"/>
<path d="M31.9932 57.5684L30.2987 60.0476C28.5134 62.6588 30.3834 66.2025 33.5465 66.2025H39.9996V53.262L31.9932 57.5684Z" fill="#D4D4FF"/>
<path d="M49.699 60.0476L48.0103 57.5707L39.9995 53.262V66.2025H46.451C49.6142 66.2025 51.4841 62.6588 49.699 60.0476Z" fill="#EFEDFF"/>
<path d="M40.0065 53.2673L31.9937 57.5685C33.3997 61.2561 36.2177 64.1819 40.0065 66.2079C43.7952 64.1819 46.6047 61.2582 48.0107 57.5708L40.0065 53.2673Z" fill="#FFCBBE"/>
<path d="M11.4508 37.2556C15.3708 37.2556 18.5486 34.0778 18.5486 30.1578C18.5486 26.2378 15.3708 23.0601 11.4508 23.0601C7.53081 23.0601 4.35303 26.2378 4.35303 30.1578C4.35303 34.0778 7.53081 37.2556 11.4508 37.2556Z" fill="#FFCBBE"/>
<path d="M68.549 37.2556C72.469 37.2556 75.6467 34.0778 75.6467 30.1578C75.6467 26.2378 72.469 23.0601 68.549 23.0601C64.629 23.0601 61.4512 26.2378 61.4512 30.1578C61.4512 34.0778 64.629 37.2556 68.549 37.2556Z" fill="#FFCBBE"/>
<path d="M44.7319 1.99898C43.1927 1.74224 41.6119 1.60864 39.9999 1.60864C29.3551 1.60864 20.0719 7.43561 15.1631 16.0735L15.1632 44.2436L38.4352 58.3153H44.7319C45.8454 58.1292 46.9372 57.8786 48.0033 57.5678C55.193 55.472 61.2094 50.6253 64.837 44.243V16.0722C60.6716 8.74297 53.3564 3.43754 44.7319 1.99898Z" fill="#FFDDCF"/>
<path d="M20.9149 30.1579C20.9149 16.0028 31.2173 4.25363 44.7319 1.99898C43.1925 1.74208 41.6122 1.60864 39.9999 1.60864C29.3551 1.60864 20.0719 7.43561 15.1631 16.0735L15.1632 44.2436C20.0722 52.8801 29.3558 58.7066 39.9999 58.7066C41.6122 58.7066 43.1925 58.572 44.7319 58.3151C31.2173 56.0605 20.9149 44.3125 20.9149 30.1579Z" fill="#FFCBBE"/>
<path d="M27.7151 31.9744C27.0482 31.9744 26.5078 32.5147 26.5078 33.1816V35.5422C26.5078 36.2091 27.0482 36.7494 27.7151 36.7494C28.3819 36.7494 28.9223 36.2091 28.9223 35.5422V33.1816C28.9223 32.5147 28.3819 31.9744 27.7151 31.9744Z" fill="#313D40"/>
<path d="M52.2844 31.9744C51.6175 31.9744 51.0771 32.5147 51.0771 33.1816V35.5422C51.0771 36.2091 51.6175 36.7494 52.2844 36.7494C52.9513 36.7494 53.4916 36.2091 53.4916 35.5422V33.1816C53.4916 32.5147 52.9513 31.9744 52.2844 31.9744Z" fill="#313D40"/>
<path d="M47.6958 34.9605C46.5874 34.9605 45.548 34.485 44.7656 33.7002C44.1839 33.1168 43.3795 32.7556 42.4905 32.7556C41.4804 32.7556 40.5797 33.2218 39.9904 33.9505C39.4011 33.2219 38.5003 32.7556 37.4902 32.7556C36.6012 32.7556 35.7969 33.1167 35.2152 33.7002C34.4325 34.485 33.3932 34.9605 32.2849 34.9605C31.7861 34.9605 31.4143 35.418 31.5117 35.9072C31.9516 38.1167 33.9015 39.7821 36.2404 39.7821C37.7554 39.7821 39.1065 39.0827 39.9904 37.9899C40.8742 39.0827 42.2254 39.7821 43.7404 39.7821C46.0792 39.7821 48.0292 38.1167 48.4691 35.9072C48.5665 35.418 48.1946 34.9605 47.6958 34.9605Z" fill="#676FB2"/>
<path d="M67.6724 23.1134H67.6732C67.6732 19.1197 66.4212 15.2172 64.0288 12.0195C62.9976 10.6413 61.8514 9.35678 60.6045 8.17964C59.485 7.12258 57.9671 6.59332 56.43 6.68185C56.2977 5.42085 55.556 4.30422 54.4445 3.694C51.551 2.10543 48.3679 0.97996 44.9937 0.414326H44.9936C43.349 0.138592 41.6791 0.000482897 40.0091 0L15.9723 12.014C15.4454 12.7921 15.1637 13.7104 15.1637 14.6501L15.1626 44.2435C15.7237 44.0861 16.2567 43.8337 16.7243 43.4762C18.2802 42.2872 18.9181 40.2875 18.388 38.448C17.1549 34.1682 16.7122 29.7384 17.0419 25.3663C17.1042 24.5404 17.39 23.7647 17.8506 23.1132H23.703C25.5488 23.1132 27.381 22.9835 29.1879 22.7292C37.5954 21.5456 45.4498 17.6629 51.5228 11.5897L60.4788 20.5457C61.0992 21.166 61.8031 21.6835 62.564 22.0877C63.0079 24.7868 63.1542 27.5221 63.0036 30.2437C62.8555 32.9196 62.4017 35.703 61.6109 38.4476C61.5954 38.5012 61.5843 38.5555 61.5708 38.6093C61.1222 40.4034 61.7643 42.3213 63.2746 43.4757C63.7422 43.8331 64.2754 44.085 64.8365 44.2424C67.1993 40.0861 68.5485 35.2802 68.5485 30.1573C68.5487 27.7265 68.2444 25.3666 67.6724 23.1134Z" fill="#8288CB"/>
<path d="M40.0092 1.26193e-06C38.3329 -0.000481635 36.6566 0.137627 35.0056 0.414166C27.2529 1.71396 20.502 5.95799 15.9724 12.014C13.579 15.2142 12.326 19.1174 12.326 23.1136H12.3271C11.7552 25.3668 11.4507 27.7267 11.4507 30.1579C11.4507 35.2808 12.7999 40.0874 15.1629 44.2437C15.724 44.0864 16.257 43.8339 16.7246 43.4764C18.2805 42.2873 18.9184 40.2876 18.3883 38.4481C17.1552 34.1684 16.7125 29.7386 17.0422 25.3664C17.1044 24.5405 17.3903 23.7648 17.8508 23.1134H23.7032C25.5492 23.1134 27.381 22.9838 29.1881 22.7293C26.4239 14.1973 31.9738 4.22181 40.0092 1.26193e-06Z" fill="#676FB2"/>
</svg>
