<svg width="80" height="80" viewBox="0 0 80 80" fill="none" xmlns="http://www.w3.org/2000/svg">
<g clip-path="url(#clip0_247_279)">
<path d="M39.6395 55.6938C36.7733 55.6938 34.022 56.194 31.4665 57.1092C25.2768 59.3259 20.0794 64.0563 17.3483 70.3202C16.0543 73.2879 15.334 76.561 15.334 80H39.6398V55.6938C39.6397 55.6938 39.6397 55.6938 39.6395 55.6938Z" fill="#D4D4FF"/>
<path d="M61.931 70.3198C59.3023 64.2912 54.2409 59.4106 47.8098 57.1083C45.2448 56.1898 42.4841 55.6938 39.6396 55.6938V80H63.9455C63.9455 76.5608 63.225 73.2877 61.931 70.3198Z" fill="#EFEDFF"/>
<path d="M53.9992 60.9404L53.8681 60.2832H30.3085L23.4722 80.0001H55.8757V79.9972C55.8757 73.5988 55.2471 67.216 53.9992 60.9404Z" fill="#9EA2E3"/>
<path d="M31.1355 71.5643C33.5685 64.4984 38.7389 59.1535 45.0523 56.3042C43.3039 55.9049 41.4896 55.6938 39.6397 55.6938C36.7735 55.6938 34.0221 56.194 31.4666 57.1092C29.319 57.8783 27.2912 58.9497 25.4441 60.2831C24.1694 66.6912 23.4365 72.8864 23.4365 79.9998H29.7105C29.7153 77.2021 30.1736 74.3575 31.1355 71.5643Z" fill="#8288CB"/>
<path d="M23.4414 79.2585C23.4396 79.5055 23.4365 79.7509 23.4365 79.9999H39.6398L31.1355 71.5642L23.4414 79.2585Z" fill="#70DCBA"/>
<path d="M33.1548 56.575C32.5835 56.7333 32.0201 56.9109 31.4666 57.1092C29.319 57.8783 27.2911 58.9497 25.444 60.2831C25.1281 61.8717 24.8456 63.4482 24.5991 65.0277L31.1356 71.5641L39.6399 63.0598L33.1548 56.575Z" fill="#70DCBA"/>
<path d="M54.6842 65.0245C54.4723 63.6588 54.2335 62.297 53.9637 60.9404L53.8327 60.2832C52.0097 58.967 49.9888 57.8882 47.8101 57.1083C47.2572 56.9103 46.6948 56.7333 46.1248 56.5752L39.6401 63.06L48.1444 71.5643L54.6842 65.0245Z" fill="#70DCBA"/>
<path d="M55.8357 79.2555L48.1444 71.5642L39.6401 79.9999H55.8404V79.997C55.8404 79.7498 55.8376 79.5027 55.8357 79.2555Z" fill="#70DCBA"/>
<path d="M37.7793 61.1996L33.1549 56.5752C33.1546 56.5752 33.1543 56.5754 33.154 56.5755C32.584 56.7336 32.0214 56.9103 31.4682 57.1083C29.3188 57.8771 27.3 58.9436 25.444 60.2835C25.1295 61.8647 24.8465 63.442 24.5991 65.0282L31.1356 71.5645C32.5399 67.4858 34.8576 63.9824 37.7793 61.1996Z" fill="#06CCAB"/>
<path d="M23.4414 79.2588C23.4396 79.5057 23.4365 79.7512 23.4365 80.0002H29.7105C29.7153 77.2023 30.1737 74.3577 31.1355 71.5645L23.4414 79.2588Z" fill="#06CCAB"/>
<path d="M49.0862 60.6019L47.8102 57.1104H31.4683L30.1922 60.6023C29.4065 62.752 31.4501 64.8589 33.6229 64.1392L36.6028 63.152L42.6761 63.1516L45.6554 64.1388C47.8281 64.8586 49.8719 62.7517 49.0862 60.6019Z" fill="#EA5B70"/>
<path d="M39.6393 64.76C41.4316 64.76 42.8845 63.3071 42.8845 61.5148C42.8845 59.7225 41.4316 58.2695 39.6393 58.2695C37.847 58.2695 36.394 59.7225 36.394 61.5148C36.394 63.3071 37.847 64.76 39.6393 64.76Z" fill="#FF8E9E"/>
<path d="M10.5052 36.3785C14.5056 36.3785 17.7486 33.1355 17.7486 29.1351C17.7486 25.1346 14.5056 21.8916 10.5052 21.8916C6.50473 21.8916 3.26172 25.1346 3.26172 29.1351C3.26172 33.1355 6.50473 36.3785 10.5052 36.3785Z" fill="#FFBD86"/>
<path d="M68.7747 36.3785C72.7752 36.3785 76.0182 33.1355 76.0182 29.1351C76.0182 25.1346 72.7752 21.8916 68.7747 21.8916C64.7743 21.8916 61.5312 25.1346 61.5312 29.1351C61.5312 33.1355 64.7743 36.3785 68.7747 36.3785Z" fill="#FFBD86"/>
<path d="M68.763 28.3274C68.6145 22.8681 65.7174 18.3398 62.9638 14.0285C60.2101 9.71723 57.5999 5.6229 53.037 3.25606C53.0237 3.24914 53.0105 3.2419 52.9971 3.23498C50.364 1.87433 47.4967 0.903387 44.4719 0.398438L26.2433 3.25751L10.5171 28.3274L37.7797 57.8695H44.4717C45.6073 57.6796 46.7206 57.4241 47.8077 57.1072C59.9226 53.5757 68.7751 42.3897 68.7751 29.1349C68.7751 28.8648 68.7703 28.5959 68.763 28.3274Z" fill="#FED2A4"/>
<path d="M24.3964 29.135C24.3964 14.6894 33.0815 2.69972 44.4717 0.398712C42.9001 0.136499 41.2859 0 39.6399 0C34.8093 0 30.2541 1.17682 26.2432 3.25763L10.517 28.3276C10.5097 28.5959 10.5054 28.8649 10.5054 29.135C10.5054 42.3899 19.3578 53.5757 31.4725 57.1073C34.0642 57.8628 36.8044 58.2696 39.64 58.2696C41.2862 58.2696 42.9002 58.1325 44.4717 57.8698C33.0815 55.5688 24.3964 43.5802 24.3964 29.135Z" fill="#FFBD86"/>
<path d="M52.6379 14.0385C52.1838 15.5588 52.9188 17.1802 54.3741 17.8126L60.3623 20.4148C61.8904 21.0788 62.9372 22.5294 63.0648 24.1906C63.0666 24.2134 63.0683 24.2365 63.07 24.2593C63.2425 26.5589 65.1768 28.3277 67.483 28.3277H68.7631C68.466 17.4091 62.1627 7.99019 53.0371 3.25635C53.6794 6.12363 53.8914 9.84194 52.6379 14.0385Z" fill="#EFEDFF"/>
<path d="M16.2106 24.2593C16.2124 24.2365 16.214 24.2135 16.2158 24.1906C16.3436 22.5294 17.3902 21.0788 18.9184 20.4148L24.9066 17.8127C26.3619 17.1802 27.0969 15.5588 26.6428 14.0385C25.3897 9.84308 25.6015 6.12477 26.2433 3.25781C17.1181 7.99166 10.8142 17.4094 10.5171 28.3277H11.7977C14.1037 28.3276 16.0381 26.5589 16.2106 24.2593Z" fill="#D4D4FF"/>
<path d="M67.5877 26.8411C66.8293 25.5273 65.1491 25.0771 63.8353 25.8357C63.6729 25.9294 63.2729 26.1604 62.766 26.453C62.5571 25.8724 62.2638 25.3652 61.8747 24.9684C58.5748 21.6028 46.1767 21.5701 42.9318 24.9837C42.6907 25.2374 42.4885 25.5353 42.3235 25.8717C41.8186 26.901 41.7138 28.0942 41.8187 29.2828C41.128 28.9325 40.3831 28.7569 39.6401 28.7564C38.7124 28.7569 37.7804 29.026 36.9566 29.5738L35.1943 33.0922L39.6401 33.9503L42.8433 33.342C43.429 34.7582 44.2475 36.058 45.2541 36.7831C48.2788 38.9623 57.2093 39.0672 60.2351 36.7611C61.2212 36.0095 62.0428 34.5657 62.5645 32.913L66.5823 30.5934C67.8961 29.8351 68.3462 28.155 67.5877 26.8411Z" fill="#CE857A"/>
<path d="M36.9565 25.872C36.7915 25.5356 36.5893 25.2376 36.3482 24.9839C33.1031 21.5703 20.7052 21.603 17.4053 24.9687C17.0162 25.3654 16.7229 25.8726 16.514 26.4532C16.0071 26.1606 15.6071 25.9296 15.4447 25.8359C14.1309 25.0773 12.4507 25.5275 11.6923 26.8413C10.9336 28.1551 11.3838 29.8353 12.6976 30.5938L16.7155 32.9134C17.2372 34.5659 18.0586 36.0098 19.0448 36.7615C22.0707 39.0676 31.0012 38.9627 34.0259 36.7835C35.4329 35.7698 36.4752 33.6346 37.0231 31.6257C37.0268 31.6122 37.0302 31.5984 37.0337 31.5848C37.0608 31.4849 37.0873 31.3843 37.1128 31.2825C37.557 29.51 37.7496 27.4886 36.9565 25.872Z" fill="#BD7669"/>
<path d="M33.2635 29.5701C32.9949 31.1354 32.2576 32.9787 31.6168 33.4403C29.9832 34.6173 23.0237 34.6497 21.5438 33.4855C20.9302 33.0028 20.3512 31.0315 20.244 29.4563C20.1741 28.4295 20.8144 27.4841 21.8015 27.1928C24.4696 26.405 28.79 26.3251 31.663 27.0933C32.7539 27.3849 33.4546 28.4571 33.2635 29.5701Z" fill="#FFBD86"/>
<path d="M59.0352 29.4563C58.928 31.0315 58.349 33.0028 57.7354 33.4855C56.2555 34.6497 49.296 34.6175 47.6624 33.4403C47.0216 32.9787 46.2842 31.1353 46.0157 29.5701C45.8248 28.4571 46.5253 27.3849 47.6163 27.0933C50.4894 26.3251 54.8097 26.405 57.4779 27.1928C58.4646 27.4841 59.1049 28.4296 59.0352 29.4563Z" fill="#FFBD86"/>
<path d="M47.3452 34.9605C46.2368 34.9605 45.1974 34.485 44.415 33.7002C43.8333 33.1168 43.0289 32.7556 42.1399 32.7556C41.1298 32.7556 40.2291 33.2218 39.6398 33.9505C39.0505 33.2219 38.1497 32.7556 37.1397 32.7556C36.2506 32.7556 35.4463 33.1167 34.8646 33.7002C34.082 34.485 33.0426 34.9605 31.9344 34.9605C31.4355 34.9605 31.0637 35.418 31.1611 35.9072C31.601 38.1167 33.5509 39.7821 35.8898 39.7821C37.4048 39.7821 38.7559 39.0827 39.6398 37.9899C40.5236 39.0827 41.8748 39.7821 43.3898 39.7821C45.7286 39.7821 47.6786 38.1167 48.1185 35.9072C48.2159 35.418 47.844 34.9605 47.3452 34.9605Z" fill="#EFEDFF"/>
<path d="M27.1032 29.0291C26.4365 29.0291 25.896 29.5694 25.896 30.2363V31.6797C25.896 32.3466 26.4365 32.8869 27.1032 32.8869C27.77 32.8869 28.3105 32.3466 28.3105 31.6797V30.2363C28.3105 29.5694 27.77 29.0291 27.1032 29.0291Z" fill="#313D40"/>
<path d="M52.1765 29.0291C51.5098 29.0291 50.9692 29.5694 50.9692 30.2363V31.6797C50.9692 32.3466 51.5098 32.8869 52.1765 32.8869C52.8432 32.8869 53.3837 32.3466 53.3837 31.6797V30.2363C53.3837 29.5694 52.8432 29.0291 52.1765 29.0291Z" fill="#313D40"/>
<path d="M63.9457 80C62.6123 80 61.5312 78.919 61.5312 77.5855V61.9125C61.5312 57.72 64.9421 54.3091 69.1346 54.3091C73.3271 54.3091 76.738 57.72 76.738 61.9125C76.738 63.2459 75.657 64.327 74.3235 64.327C72.9901 64.327 71.909 63.2459 71.909 61.9125C71.909 60.3826 70.6644 59.1381 69.1346 59.1381C67.6048 59.1381 66.3602 60.3826 66.3602 61.9125V77.5855C66.3602 78.919 65.2792 80 63.9457 80Z" fill="#BD7669"/>
<path d="M62.3912 74.5497C64.1692 74.5497 65.6105 73.1084 65.6105 71.3304C65.6105 69.5524 64.1692 68.1111 62.3912 68.1111C60.6132 68.1111 59.1719 69.5524 59.1719 71.3304C59.1719 73.1084 60.6132 74.5497 62.3912 74.5497Z" fill="#FFBF9D"/>
<path d="M67.3612 75.7236C70.0282 75.7236 72.1902 73.5616 72.1902 70.8946C72.1902 68.2277 70.0282 66.0657 67.3612 66.0657C64.6942 66.0657 62.5322 68.2277 62.5322 70.8946C62.5322 73.5616 64.6942 75.7236 67.3612 75.7236Z" fill="#FFD4BD"/>
</g>
<defs>
<clipPath id="clip0_247_279">
<rect width="80" height="80" fill="white"/>
</clipPath>
</defs>
</svg>
