<svg width="1095" height="1050" viewBox="0 0 1095 1050" fill="none" xmlns="http://www.w3.org/2000/svg">
<g opacity="0.15">
<path d="M516.288 43.0664L483.738 114.331C466.888 115.317 450.124 117.352 433.549 120.422L383.757 58.7672L330.089 76.2645L329.822 154.707C307.088 165.912 285.301 179.46 264.72 195.271L188.873 162.524L150.041 202.131L188.87 272.754C176.482 289.689 165.595 307.589 156.324 326.267L73.0485 328.445L56.1401 380.289L123.376 427.781C120.157 447.017 118.585 466.454 118.495 485.908L43.8428 522.18L51.6618 576.013L133.601 591.394C138.499 607.84 144.573 623.942 151.779 639.587L97.7801 703.869L127.92 749.88L211.863 731.04C217.175 737.034 222.68 742.867 228.369 748.533C240.253 760.32 252.912 771.365 266.267 781.602L249.959 862.224L299.016 889.397L363.108 835.884C381.447 842.953 400.329 848.652 419.584 852.93L440.504 931.692L496.976 936.116L530.927 861.837C554.389 860.483 577.773 857.12 600.768 851.71L654.705 911.634L707.302 891.446L705.762 861.068L582.989 771.797C547.248 780.462 510.184 782.781 473.782 778.844C405.871 771.502 340.607 742.094 289.39 691.304C172.323 575.201 175.671 390.516 296.743 278.264C355.385 223.892 430.816 196.309 506.333 195.528C586.725 194.695 667.191 224.23 727.553 284.095C825.792 381.531 839.183 528.107 769.389 639.075L837.763 688.806C846.263 676.023 853.941 662.754 860.753 649.072L943.424 646.892L960.332 595.049L893.569 547.881C896.789 528.486 898.42 508.879 898.445 489.241L972.631 453.096L964.815 399.263L882.946 383.882C876.058 361.141 866.927 339.081 855.678 318L904.461 253.208L871.847 208.794L791.518 231.16C790.509 230.135 789.529 229.095 788.507 228.084C775.863 215.539 762.331 203.846 748.007 193.089L763.38 116.954L714.316 89.7832L653.364 140.671C633.633 133.057 613.367 127.13 592.812 122.727L572.83 47.4879L516.288 43.0664ZM391.912 357.861C369.789 358.103 347.861 363.312 327.751 372.791L424.462 443.161C453.711 464.44 462.007 504.88 439.561 533.267C417.109 561.67 373.998 565.94 344.326 544.357L247.684 474.052C237.788 524.897 256.527 578.771 302.421 612.16C343.58 642.096 396.403 647.7 441.905 632.028L452.128 628.501L460.747 634.782L749.874 845.119L758.493 851.398L757.757 861.781C754.256 908.026 773.99 955.317 815.168 985.273C861.063 1018.66 920.273 1021.43 968.681 998.603L872.043 928.302C842.371 906.716 835.083 865.741 857.543 837.363C879.999 808.98 922.852 805.77 952.109 827.043L1048.75 897.35C1058.62 846.524 1039.96 792.623 994.08 759.242C952.776 729.182 900.37 723.226 855.135 738.667L844.976 742.129L836.357 735.847L547.23 525.515L538.612 519.233L539.347 508.918C542.662 463.007 522.559 416.235 481.267 386.189C454.44 366.674 423.046 357.521 391.912 357.861ZM485.079 542.944L835.553 797.947L811.425 828.516L460.884 573.45L485.079 542.944Z" fill="#EDAA46"/>
</g>
</svg>
