<svg width="396" height="380" viewBox="0 0 396 380" fill="none" xmlns="http://www.w3.org/2000/svg">
<g opacity="0.15">
<path d="M186.712 15.5859L174.941 41.3769C168.847 41.7337 162.784 42.47 156.79 43.5812L138.783 21.2681L119.375 27.6004L119.278 55.9891C111.056 60.0444 103.177 64.9473 95.7346 70.6695L68.3046 58.8183L54.2613 73.1522L68.3038 98.7109C63.8236 104.84 59.8865 111.318 56.5336 118.078L26.4175 118.866L20.3027 137.628L44.6181 154.816C43.454 161.777 42.8856 168.812 42.8531 175.852L15.8555 188.979L18.6832 208.462L48.3159 214.028C50.0873 219.98 52.2839 225.808 54.8901 231.47L35.3616 254.734L46.2616 271.385L76.619 264.567C78.54 266.736 80.5308 268.847 82.5884 270.898C86.8862 275.163 91.464 279.161 96.2937 282.865L90.3963 312.043L108.137 321.877L131.316 302.51C137.948 305.068 144.776 307.131 151.74 308.679L159.306 337.184L179.728 338.785L192.007 311.903C200.491 311.413 208.948 310.196 217.264 308.238L236.77 329.925L255.791 322.618L255.234 311.624L210.834 279.317C197.909 282.453 184.505 283.292 171.34 281.867C146.781 279.21 123.178 268.567 104.656 250.186C62.3197 208.168 63.5302 141.329 107.315 100.705C128.523 81.0275 155.802 71.0451 183.112 70.7623C212.186 70.461 241.285 81.15 263.115 102.815C298.643 138.078 303.485 191.124 278.245 231.284L302.972 249.282C306.046 244.656 308.823 239.854 311.286 234.902L341.183 234.113L347.298 215.351L323.154 198.281C324.318 191.262 324.908 184.166 324.917 177.058L351.746 163.977L348.919 144.495L319.312 138.929C316.821 130.699 313.519 122.715 309.451 115.086L327.093 91.6371L315.298 75.5635L286.248 83.6578C285.883 83.2867 285.528 82.9104 285.159 82.5445C280.586 78.0045 275.692 73.7728 270.512 69.8799L276.072 42.3261L258.328 32.4929L236.285 50.9095C229.149 48.1538 221.82 46.0089 214.387 44.4154L207.161 17.186L186.712 15.5859ZM141.732 129.512C133.732 129.599 125.802 131.484 118.529 134.915L153.504 160.382C164.082 168.083 167.082 182.718 158.965 192.992C150.845 203.271 135.254 204.816 124.523 197.005L89.5733 171.562C85.9946 189.963 92.7715 209.46 109.369 221.544C124.254 232.377 143.357 234.406 159.812 228.734L163.509 227.457L166.626 229.731L271.187 305.852L274.304 308.125L274.038 311.883C272.772 328.619 279.909 345.734 294.8 356.575C311.398 368.658 332.811 369.66 350.318 361.399L315.369 335.957C304.638 328.145 302.003 313.316 310.125 303.045C318.246 292.774 333.744 291.612 344.324 299.311L379.274 324.755C382.845 306.361 376.096 286.854 359.503 274.773C344.566 263.894 325.613 261.739 309.254 267.327L305.581 268.58L302.464 266.306L197.903 190.186L194.786 187.913L195.052 184.18C196.25 167.564 188.98 150.637 174.047 139.763C164.345 132.701 152.992 129.388 141.732 129.512ZM175.426 196.494L302.173 288.781L293.447 299.844L166.676 207.534L175.426 196.494Z" fill="#EDAA46"/>
</g>
</svg>
