<svg width="70" height="76" viewBox="0 0 70 76" fill="none" xmlns="http://www.w3.org/2000/svg">
<path fill-rule="evenodd" clip-rule="evenodd" d="M15.2005 8.901C16.8695 7.23005 18.7428 5.77655 20.776 4.575C25.0871 2.03845 29.998 0.700867 35 0.700867C40.002 0.700867 44.9129 2.03845 49.224 4.575C51.2572 5.77659 53.1305 7.23008 54.7995 8.901L35 28.7005L15.2005 8.901ZM35 18.799L25.9455 9.7445C28.7739 8.39757 31.8672 7.69864 35 7.69864C38.1328 7.69864 41.2261 8.39757 44.0545 9.7445L35 18.799Z" fill="black"/>
<path d="M-1.27574e-05 40.303C-0.00525995 35.0992 1.15226 29.96 3.38794 25.2609C5.62363 20.5619 8.881 16.4217 12.922 13.143L17.9025 18.127C13.2739 21.696 9.87816 26.6239 8.19137 32.22C6.50458 37.8162 6.61129 43.7998 8.49654 49.3322C10.3818 54.8646 13.9511 59.6684 18.704 63.07C23.4569 66.4717 29.1552 68.3008 35 68.3008C40.8448 68.3008 46.5431 66.4717 51.296 63.07C56.0489 59.6684 59.6182 54.8646 61.5034 49.3322C63.3887 43.7998 63.4954 37.8162 61.8086 32.22C60.1218 26.6239 56.7261 21.696 52.0975 18.127L57.078 13.143C61.119 16.4217 64.3763 20.5619 66.612 25.2609C68.8477 29.96 70.0052 35.0992 70 40.303C70 59.63 54.3305 75.303 35 75.303C15.6695 75.303 -1.27574e-05 59.63 -1.27574e-05 40.303Z" fill="black"/>
</svg>
