<svg width="84" height="83" viewBox="0 0 84 83" fill="none" xmlns="http://www.w3.org/2000/svg">
<path d="M77.3902 20.3685L51.1402 6.10292C50.7526 5.89222 50.3174 5.78174 49.875 5.78174C49.4326 5.78174 48.9973 5.89222 48.6097 6.10292L22.3597 20.3685C21.9482 20.5924 21.605 20.9214 21.3659 21.3211C21.1269 21.7207 21.0008 22.1764 21.0008 22.6407C21.0008 23.1049 21.1269 23.5606 21.3659 23.9603C21.605 24.3599 21.9482 24.6889 22.3597 24.9128L47.25 38.4392V66.2416L39.2805 61.91L36.75 66.4517L48.6097 72.8972C48.9972 73.1083 49.4325 73.2191 49.875 73.2191C50.3175 73.2191 50.7528 73.1083 51.1402 72.8972L77.3902 58.6315C77.8019 58.4077 78.1453 58.0788 78.3845 57.6792C78.6237 57.2795 78.7499 56.8237 78.75 56.3594V22.6407C78.7499 22.1764 78.6237 21.7206 78.3845 21.3209C78.1453 20.9212 77.8019 20.5923 77.3902 20.3685ZM49.875 11.3371L70.6781 22.6407L49.875 33.9442L29.0719 22.6407L49.875 11.3371ZM73.5 54.8265L52.5 66.239V38.4366L73.5 27.0241V54.8265Z" fill="black"/>
<path d="M26.25 41.5H5.25V36.3125H26.25V41.5ZM31.5 62.25H10.5V57.0625H31.5V62.25ZM36.75 51.875H15.75V46.6875H36.75V51.875Z" fill="black"/>
</svg>
